0
SECTION
2
HEADER
9
$INSUNITS
70
4
0
ENDSEC
0
SECTION
2
TABLES
0
TABLE
2
LTYPE
0
LTYPE
72
65
70
64
2
CONTINUOUS
3
______
73
0
40
0
0
ENDTAB
0
TABLE
2
LAYER
0
ENDTAB
0
ENDSEC
0
SECTION
2
ENTITIES
0
LINE
8
0
10
139.475
20
-178.525
11
139.475
21
-84.7539267
0
LINE
8
0
10
140.8890262
20
-82.8416938
11
185.813586
21
-69.0752671
0
LINE
8
0
10
186.3995597
20
-68.9875
11
243.6503253
21
-68.9875
0
LINE
8
0
10
244.4934625
20
-69.173907
11
273.6681372
21
-82.737176
0
LINE
8
0
10
274.825
20
-84.550769
11
274.825
21
-157.0895633
0
LINE
8
0
10
274.6817585
20
-157.8328316
11
264.4565358
21
-183.3764592
0
LINE
8
0
10
261.8599765
20
-184.4913337
11
217.8387741
21
-166.9647362
0
LINE
8
0
10
216.4388051
20
-166.934976
11
177.8955669
21
-180.4129031
0
LINE
8
0
10
177.2353987
20
-180.525
11
141.475
21
-180.525
0
ARC
8
0
10
141.475
20
-84.7539267
40
2
50
107.0368615
51
180
0
ARC
8
0
10
186.3995597
20
-70.9875
40
2
50
90
51
107.0368615
0
ARC
8
0
10
243.6503253
20
-70.9875
40
2
50
65.0663403
51
90
0
ARC
8
0
10
272.825
20
-84.550769
40
2
50
0
51
65.0663403
0
ARC
8
0
10
272.825
20
-157.0895633
40
2
50
338.1835632
51
0
0
ARC
8
0
10
262.5997773
20
-182.6331909
40
2
50
248.2905249
51
338.1835632
0
ARC
8
0
10
217.0989733
20
-168.822879
40
2
50
68.2905249
51
109.2738806
0
ARC
8
0
10
177.2353987
20
-178.525
40
2
50
270
51
289.2738806
0
ARC
8
0
10
141.475
20
-178.525
40
2
50
180
51
270
0
LINE
8
0
10
446.275
20
-178.525
11
446.275
21
-84.7539267
0
LINE
8
0
10
444.8609738
20
-82.8416938
11
399.936414
21
-69.0752671
0
LINE
8
0
10
399.3504403
20
-68.9875
11
342.0996747
21
-68.9875
0
LINE
8
0
10
341.2565375
20
-69.173907
11
312.0818628
21
-82.737176
0
LINE
8
0
10
310.925
20
-84.550769
11
310.925
21
-157.0895633
0
LINE
8
0
10
311.0682415
20
-157.8328316
11
321.2934642
21
-183.3764592
0
LINE
8
0
10
323.8900235
20
-184.4913337
11
367.9112259
21
-166.9647362
0
LINE
8
0
10
369.3111949
20
-166.934976
11
407.8544331
21
-180.4129031
0
LINE
8
0
10
408.5146013
20
-180.525
11
444.275
21
-180.525
0
ARC
8
0
10
444.275
20
-84.7539267
40
2
50
0
51
72.9631385
0
ARC
8
0
10
399.3504403
20
-70.9875
40
2
50
72.9631385
51
90
0
ARC
8
0
10
342.0996747
20
-70.9875
40
2
50
90
51
114.9336597
0
ARC
8
0
10
312.925
20
-84.550769
40
2
50
114.9336597
51
180
0
ARC
8
0
10
312.925
20
-157.0895633
40
2
50
180
51
201.8164368
0
ARC
8
0
10
323.1502227
20
-182.6331909
40
2
50
201.8164368
51
291.7094751
0
ARC
8
0
10
368.6510267
20
-168.822879
40
2
50
70.7261194
51
111.7094751
0
ARC
8
0
10
408.5146013
20
-178.525
40
2
50
250.7261194
51
270
0
ARC
8
0
10
444.275
20
-178.525
40
2
50
270
51
0
0
ENDSEC
0
EOF