0
SECTION
2
HEADER
9
$INSUNITS
70
4
0
ENDSEC
0
SECTION
2
TABLES
0
TABLE
2
LTYPE
0
LTYPE
72
65
70
64
2
CONTINUOUS
3
______
73
0
40
0
0
ENDTAB
0
TABLE
2
LAYER
0
ENDTAB
0
ENDSEC
0
SECTION
2
ENTITIES
0
LINE
8
0
10
427.225
20
-178.525
11
427.225
21
-85.275
0
LINE
8
0
10
425.225
20
-83.275
11
406.647136
21
-83.275
0
LINE
8
0
10
405.7527088
20
-83.0638544
11
387.2965955
21
-73.8357978
0
LINE
8
0
10
386.9402233
20
-73.6983872
11
370.3389752
21
-69.061235
0
LINE
8
0
10
293.875
20
-68.9875
11
369.8009202
21
-68.9875
0
LINE
8
0
10
291.875
20
-70.9875
11
291.875
21
-157.0891295
0
LINE
8
0
10
292.0185524
20
-157.8331741
11
302.2545906
21
-183.3728638
0
LINE
8
0
10
304.8508366
20
-184.4869631
11
349.0254981
21
-166.8993321
0
LINE
8
0
10
350.1173635
20
-166.7887076
11
367.790836
21
-169.9491841
0
LINE
8
0
10
368.3331962
20
-170.1290981
11
388.7027088
21
-180.3138544
0
LINE
8
0
10
389.597136
20
-180.525
11
425.225
21
-180.525
0
ARC
8
0
10
425.225
20
-85.275
40
2
50
0
51
90
0
ARC
8
0
10
406.647136
20
-81.275
40
2
50
243.4349488
51
270
0
ARC
8
0
10
386.4021683
20
-75.6246522
40
2
50
63.4349488
51
74.3935944
0
ARC
8
0
10
369.8009202
20
-70.9875
40
2
50
74.3935944
51
90
0
ARC
8
0
10
293.875
20
-70.9875
40
2
50
90
51
180
0
ARC
8
0
10
293.875
20
-157.0891295
40
2
50
180
51
201.8403918
0
ARC
8
0
10
304.1110382
20
-182.6288192
40
2
50
201.8403918
51
291.7094007
0
ARC
8
0
10
349.7652965
20
-168.757476
40
2
50
79.8611932
51
111.7094007
0
ARC
8
0
10
367.438769
20
-171.9179525
40
2
50
63.4349488
51
79.8611932
0
ARC
8
0
10
389.597136
20
-178.525
40
2
50
243.4349488
51
270
0
ARC
8
0
10
425.225
20
-178.525
40
2
50
270
51
0
0
ENDSEC
0
EOF