0
SECTION
2
HEADER
9
$INSUNITS
70
4
0
ENDSEC
0
SECTION
2
TABLES
0
TABLE
2
LTYPE
0
LTYPE
72
65
70
64
2
CONTINUOUS
3
______
73
0
40
0
0
ENDTAB
0
TABLE
2
LAYER
0
ENDTAB
0
ENDSEC
0
SECTION
2
ENTITIES
0
LINE
8
0
10
69.475
20
-188.525
11
69.475
21
-94.6343912
0
LINE
8
0
10
70.7389958
20
-92.7747413
11
105.2203798
21
-79.12785
0
LINE
8
0
10
105.956384
20
-78.9875
11
173.6503253
21
-78.9875
0
LINE
8
0
10
174.4934625
20
-79.173907
11
203.6681372
21
-92.737176
0
LINE
8
0
10
204.825
20
-94.550769
11
204.825
21
-167.5616971
0
LINE
8
0
10
204.679698
20
-168.3100923
11
194.465923
21
-193.6222101
0
LINE
8
0
10
191.8629812
20
-194.728574
11
147.8508617
21
-176.9732781
0
LINE
8
0
10
146.4272631
20
-176.9455134
11
108.9024601
21
-190.4075238
0
LINE
8
0
10
108.2271053
20
-190.525
11
71.475
21
-190.525
0
ARC
8
0
10
71.475
20
-94.6343912
40
2
50
111.5924534
51
180
0
ARC
8
0
10
105.956384
20
-80.9875
40
2
50
90
51
111.5924534
0
ARC
8
0
10
173.6503253
20
-80.9875
40
2
50
65.0663403
51
90
0
ARC
8
0
10
202.825
20
-94.550769
40
2
50
0
51
65.0663403
0
ARC
8
0
10
202.825
20
-167.5616971
40
2
50
338.0252718
51
0
0
ARC
8
0
10
192.611225
20
-192.8738149
40
2
50
248.0299479
51
338.0252718
0
ARC
8
0
10
147.1026179
20
-178.8280372
40
2
50
68.0299479
51
109.7354318
0
ARC
8
0
10
108.2271053
20
-188.525
40
2
50
270
51
289.7354318
0
ARC
8
0
10
71.475
20
-188.525
40
2
50
180
51
270
0
LINE
8
0
10
357.225
20
-188.525
11
357.225
21
-94.6343912
0
LINE
8
0
10
355.9610042
20
-92.7747413
11
321.4796202
21
-79.12785
0
LINE
8
0
10
320.743616
20
-78.9875
11
253.0496747
21
-78.9875
0
LINE
8
0
10
252.2065375
20
-79.173907
11
223.0318628
21
-92.737176
0
LINE
8
0
10
221.875
20
-94.550769
11
221.875
21
-167.5616971
0
LINE
8
0
10
222.020302
20
-168.3100923
11
232.234077
21
-193.6222101
0
LINE
8
0
10
234.8370188
20
-194.728574
11
278.8491383
21
-176.9732781
0
LINE
8
0
10
280.2727369
20
-176.9455134
11
317.7975399
21
-190.4075238
0
LINE
8
0
10
318.4728947
20
-190.525
11
355.225
21
-190.525
0
ARC
8
0
10
355.225
20
-94.6343912
40
2
50
0
51
68.4075466
0
ARC
8
0
10
320.743616
20
-80.9875
40
2
50
68.4075466
51
90
0
ARC
8
0
10
253.0496747
20
-80.9875
40
2
50
90
51
114.9336597
0
ARC
8
0
10
223.875
20
-94.550769
40
2
50
114.9336597
51
180
0
ARC
8
0
10
223.875
20
-167.5616971
40
2
50
180
51
201.9747282
0
ARC
8
0
10
234.088775
20
-192.8738149
40
2
50
201.9747282
51
291.9700521
0
ARC
8
0
10
279.5973821
20
-178.8280372
40
2
50
70.2645682
51
111.9700521
0
ARC
8
0
10
318.4728947
20
-188.525
40
2
50
250.2645682
51
270
0
ARC
8
0
10
355.225
20
-188.525
40
2
50
270
51
0
0
ENDSEC
0
EOF