0
SECTION
2
HEADER
9
$INSUNITS
70
4
0
ENDSEC
0
SECTION
2
TABLES
0
TABLE
2
LTYPE
0
LTYPE
72
65
70
64
2
CONTINUOUS
3
______
73
0
40
0
0
ENDTAB
0
TABLE
2
LAYER
0
ENDTAB
0
ENDSEC
0
SECTION
2
ENTITIES
0
LINE
8
0
10
139.475
20
-178.525
11
139.475
21
-85.275
0
LINE
8
0
10
141.475
20
-83.275
11
160.052864
21
-83.275
0
LINE
8
0
10
160.9472912
20
-83.0638544
11
179.4034045
21
-73.8357978
0
LINE
8
0
10
179.7597767
20
-73.6983872
11
196.3610248
21
-69.061235
0
LINE
8
0
10
196.8990798
20
-68.9875
11
272.825
21
-68.9875
0
LINE
8
0
10
274.825
20
-70.9875
11
274.825
21
-157.0891295
0
LINE
8
0
10
274.6814476
20
-157.8331741
11
264.4454094
21
-183.3728638
0
LINE
8
0
10
261.8491634
20
-184.4869631
11
217.6745019
21
-166.8993321
0
LINE
8
0
10
216.5826365
20
-166.7887076
11
198.909164
21
-169.9491841
0
LINE
8
0
10
198.3668038
20
-170.1290981
11
177.9972912
21
-180.3138544
0
LINE
8
0
10
177.102864
20
-180.525
11
141.475
21
-180.525
0
ARC
8
0
10
141.475
20
-85.275
40
2
50
90
51
180
0
ARC
8
0
10
160.052864
20
-81.275
40
2
50
270
51
296.5650512
0
ARC
8
0
10
180.2978317
20
-75.6246522
40
2
50
105.6064056
51
116.5650512
0
ARC
8
0
10
196.8990798
20
-70.9875
40
2
50
90
51
105.6064056
0
ARC
8
0
10
272.825
20
-70.9875
40
2
50
0
51
90
0
ARC
8
0
10
272.825
20
-157.0891295
40
2
50
338.1596082
51
0
0
ARC
8
0
10
262.5889618
20
-182.6288192
40
2
50
248.2905993
51
338.1596082
0
ARC
8
0
10
216.9347035
20
-168.757476
40
2
50
68.2905993
51
100.1388068
0
ARC
8
0
10
199.261231
20
-171.9179525
40
2
50
100.1388068
51
116.5650512
0
ARC
8
0
10
177.102864
20
-178.525
40
2
50
270
51
296.5650512
0
ARC
8
0
10
141.475
20
-178.525
40
2
50
180
51
270
0
ENDSEC
0
EOF