0
SECTION
2
HEADER
9
$INSUNITS
70
4
0
ENDSEC
0
SECTION
2
TABLES
0
TABLE
2
LTYPE
0
LTYPE
72
65
70
64
2
CONTINUOUS
3
______
73
0
40
0
0
ENDTAB
0
TABLE
2
LAYER
0
ENDTAB
0
ENDSEC
0
SECTION
2
ENTITIES
0
LINE
8
0
10
141.975
20
-179.025
11
158.025
21
-179.025
0
LINE
8
0
10
159.025
20
-178.025
11
159.025
21
-161.975
0
LINE
8
0
10
158.025
20
-160.975
11
141.975
21
-160.975
0
LINE
8
0
10
140.975
20
-161.975
11
140.975
21
-178.025
0
LINE
8
0
10
141.975
20
-159.975
11
158.025
21
-159.975
0
LINE
8
0
10
159.025
20
-158.975
11
159.025
21
-142.925
0
LINE
8
0
10
158.025
20
-141.925
11
141.975
21
-141.925
0
LINE
8
0
10
140.975
20
-142.925
11
140.975
21
-158.975
0
LINE
8
0
10
141.975
20
-140.925
11
158.025
21
-140.925
0
LINE
8
0
10
159.025
20
-139.925
11
159.025
21
-123.875
0
LINE
8
0
10
158.025
20
-122.875
11
141.975
21
-122.875
0
LINE
8
0
10
140.975
20
-123.875
11
140.975
21
-139.925
0
LINE
8
0
10
141.975
20
-121.875
11
158.025
21
-121.875
0
LINE
8
0
10
159.025
20
-120.875
11
159.025
21
-104.825
0
LINE
8
0
10
158.025
20
-103.825
11
141.975
21
-103.825
0
LINE
8
0
10
140.975
20
-104.825
11
140.975
21
-120.875
0
LINE
8
0
10
141.975
20
-102.825
11
158.025
21
-102.825
0
LINE
8
0
10
159.025
20
-101.825
11
159.025
21
-85.775
0
LINE
8
0
10
158.025
20
-84.775
11
141.975
21
-84.775
0
LINE
8
0
10
140.975
20
-85.775
11
140.975
21
-101.825
0
LINE
8
0
10
161.025
20
-179.025
11
177.075
21
-179.025
0
LINE
8
0
10
178.075
20
-178.025
11
178.075
21
-161.975
0
LINE
8
0
10
177.075
20
-160.975
11
161.025
21
-160.975
0
LINE
8
0
10
160.025
20
-161.975
11
160.025
21
-178.025
0
LINE
8
0
10
161.025
20
-159.975
11
177.075
21
-159.975
0
LINE
8
0
10
178.075
20
-158.975
11
178.075
21
-142.925
0
LINE
8
0
10
177.075
20
-141.925
11
161.025
21
-141.925
0
LINE
8
0
10
160.025
20
-142.925
11
160.025
21
-158.975
0
LINE
8
0
10
161.025
20
-140.925
11
177.075
21
-140.925
0
LINE
8
0
10
178.075
20
-139.925
11
178.075
21
-123.875
0
LINE
8
0
10
177.075
20
-122.875
11
161.025
21
-122.875
0
LINE
8
0
10
160.025
20
-123.875
11
160.025
21
-139.925
0
LINE
8
0
10
161.025
20
-121.875
11
177.075
21
-121.875
0
LINE
8
0
10
178.075
20
-120.875
11
178.075
21
-104.825
0
LINE
8
0
10
177.075
20
-103.825
11
161.025
21
-103.825
0
LINE
8
0
10
160.025
20
-104.825
11
160.025
21
-120.875
0
LINE
8
0
10
161.025
20
-102.825
11
177.075
21
-102.825
0
LINE
8
0
10
178.075
20
-101.825
11
178.075
21
-85.775
0
LINE
8
0
10
177.075
20
-84.775
11
161.025
21
-84.775
0
LINE
8
0
10
160.025
20
-85.775
11
160.025
21
-101.825
0
LINE
8
0
10
180.075
20
-169.5
11
196.125
21
-169.5
0
LINE
8
0
10
197.125
20
-168.5
11
197.125
21
-152.45
0
LINE
8
0
10
196.125
20
-151.45
11
180.075
21
-151.45
0
LINE
8
0
10
179.075
20
-152.45
11
179.075
21
-168.5
0
LINE
8
0
10
180.075
20
-150.45
11
196.125
21
-150.45
0
LINE
8
0
10
197.125
20
-149.45
11
197.125
21
-133.4
0
LINE
8
0
10
196.125
20
-132.4
11
180.075
21
-132.4
0
LINE
8
0
10
179.075
20
-133.4
11
179.075
21
-149.45
0
LINE
8
0
10
180.075
20
-131.4
11
196.125
21
-131.4
0
LINE
8
0
10
197.125
20
-130.4
11
197.125
21
-114.35
0
LINE
8
0
10
196.125
20
-113.35
11
180.075
21
-113.35
0
LINE
8
0
10
179.075
20
-114.35
11
179.075
21
-130.4
0
LINE
8
0
10
180.075
20
-112.35
11
196.125
21
-112.35
0
LINE
8
0
10
197.125
20
-111.35
11
197.125
21
-95.3
0
LINE
8
0
10
196.125
20
-94.3
11
180.075
21
-94.3
0
LINE
8
0
10
179.075
20
-95.3
11
179.075
21
-111.35
0
LINE
8
0
10
180.075
20
-93.3
11
196.125
21
-93.3
0
LINE
8
0
10
197.125
20
-92.3
11
197.125
21
-76.25
0
LINE
8
0
10
196.125
20
-75.25
11
180.075
21
-75.25
0
LINE
8
0
10
179.075
20
-76.25
11
179.075
21
-92.3
0
LINE
8
0
10
199.125
20
-164.7375
11
215.175
21
-164.7375
0
LINE
8
0
10
216.175
20
-163.7375
11
216.175
21
-147.6875
0
LINE
8
0
10
215.175
20
-146.6875
11
199.125
21
-146.6875
0
LINE
8
0
10
198.125
20
-147.6875
11
198.125
21
-163.7375
0
LINE
8
0
10
199.125
20
-145.6875
11
215.175
21
-145.6875
0
LINE
8
0
10
216.175
20
-144.6875
11
216.175
21
-128.6375
0
LINE
8
0
10
215.175
20
-127.6375
11
199.125
21
-127.6375
0
LINE
8
0
10
198.125
20
-128.6375
11
198.125
21
-144.6875
0
LINE
8
0
10
199.125
20
-126.6375
11
215.175
21
-126.6375
0
LINE
8
0
10
216.175
20
-125.6375
11
216.175
21
-109.5875
0
LINE
8
0
10
215.175
20
-108.5875
11
199.125
21
-108.5875
0
LINE
8
0
10
198.125
20
-109.5875
11
198.125
21
-125.6375
0
LINE
8
0
10
199.125
20
-107.5875
11
215.175
21
-107.5875
0
LINE
8
0
10
216.175
20
-106.5875
11
216.175
21
-90.5375
0
LINE
8
0
10
215.175
20
-89.5375
11
199.125
21
-89.5375
0
LINE
8
0
10
198.125
20
-90.5375
11
198.125
21
-106.5875
0
LINE
8
0
10
199.125
20
-88.5375
11
215.175
21
-88.5375
0
LINE
8
0
10
216.175
20
-87.5375
11
216.175
21
-71.4875
0
LINE
8
0
10
215.175
20
-70.4875
11
199.125
21
-70.4875
0
LINE
8
0
10
198.125
20
-71.4875
11
198.125
21
-87.5375
0
LINE
8
0
10
218.175
20
-148.06875
11
234.225
21
-148.06875
0
LINE
8
0
10
235.225
20
-147.06875
11
235.225
21
-131.01875
0
LINE
8
0
10
234.225
20
-130.01875
11
218.175
21
-130.01875
0
LINE
8
0
10
217.175
20
-131.01875
11
217.175
21
-147.06875
0
LINE
8
0
10
218.175
20
-129.01875
11
234.225
21
-129.01875
0
LINE
8
0
10
235.225
20
-128.01875
11
235.225
21
-111.96875
0
LINE
8
0
10
234.225
20
-110.96875
11
218.175
21
-110.96875
0
LINE
8
0
10
217.175
20
-111.96875
11
217.175
21
-128.01875
0
LINE
8
0
10
218.175
20
-109.96875
11
234.225
21
-109.96875
0
LINE
8
0
10
235.225
20
-108.96875
11
235.225
21
-92.91875
0
LINE
8
0
10
234.225
20
-91.91875
11
218.175
21
-91.91875
0
LINE
8
0
10
217.175
20
-92.91875
11
217.175
21
-108.96875
0
LINE
8
0
10
218.175
20
-90.91875
11
234.225
21
-90.91875
0
LINE
8
0
10
235.225
20
-89.91875
11
235.225
21
-73.86875
0
LINE
8
0
10
234.225
20
-72.86875
11
218.175
21
-72.86875
0
LINE
8
0
10
217.175
20
-73.86875
11
217.175
21
-89.91875
0
LINE
8
0
10
237.225
20
-150.45
11
253.275
21
-150.45
0
LINE
8
0
10
254.275
20
-149.45
11
254.275
21
-133.4
0
LINE
8
0
10
253.275
20
-132.4
11
237.225
21
-132.4
0
LINE
8
0
10
236.225
20
-133.4
11
236.225
21
-149.45
0
LINE
8
0
10
237.225
20
-131.4
11
253.275
21
-131.4
0
LINE
8
0
10
254.275
20
-130.4
11
254.275
21
-114.35
0
LINE
8
0
10
253.275
20
-113.35
11
237.225
21
-113.35
0
LINE
8
0
10
236.225
20
-114.35
11
236.225
21
-130.4
0
LINE
8
0
10
237.225
20
-112.35
11
253.275
21
-112.35
0
LINE
8
0
10
254.275
20
-111.35
11
254.275
21
-95.3
0
LINE
8
0
10
253.275
20
-94.3
11
237.225
21
-94.3
0
LINE
8
0
10
236.225
20
-95.3
11
236.225
21
-111.35
0
LINE
8
0
10
237.225
20
-93.3
11
253.275
21
-93.3
0
LINE
8
0
10
254.275
20
-92.3
11
254.275
21
-76.25
0
LINE
8
0
10
253.275
20
-75.25
11
237.225
21
-75.25
0
LINE
8
0
10
236.225
20
-76.25
11
236.225
21
-92.3
0
LINE
8
0
10
256.275
20
-140.925
11
272.325
21
-140.925
0
LINE
8
0
10
273.325
20
-139.925
11
273.325
21
-123.875
0
LINE
8
0
10
272.325
20
-122.875
11
256.275
21
-122.875
0
LINE
8
0
10
255.275
20
-123.875
11
255.275
21
-139.925
0
LINE
8
0
10
256.275
20
-121.875
11
272.325
21
-121.875
0
LINE
8
0
10
273.325
20
-120.875
11
273.325
21
-104.825
0
LINE
8
0
10
272.325
20
-103.825
11
256.275
21
-103.825
0
LINE
8
0
10
255.275
20
-104.825
11
255.275
21
-120.875
0
LINE
8
0
10
256.275
20
-102.825
11
272.325
21
-102.825
0
LINE
8
0
10
273.325
20
-101.825
11
273.325
21
-85.775
0
LINE
8
0
10
272.325
20
-84.775
11
256.275
21
-84.775
0
LINE
8
0
10
255.275
20
-85.775
11
255.275
21
-101.825
0
LINE
8
0
10
220.487812
20
-166.4213025
11
244.200539
21
-176.0018661
0
LINE
8
0
10
227.249461
20
-149.6856339
11
250.962188
21
-159.2661975
0
LINE
8
0
10
263.1535921
20
-182.5808618
11
272.7341557
21
-158.8681348
0
LINE
8
0
10
246.4179235
20
-175.8192128
11
255.9984871
21
-152.1064858
0
LINE
8
0
10
408.675
20
-179.025
11
424.725
21
-179.025
0
LINE
8
0
10
425.725
20
-178.025
11
425.725
21
-161.975
0
LINE
8
0
10
424.725
20
-160.975
11
408.675
21
-160.975
0
LINE
8
0
10
407.675
20
-161.975
11
407.675
21
-178.025
0
LINE
8
0
10
408.675
20
-159.975
11
424.725
21
-159.975
0
LINE
8
0
10
425.725
20
-158.975
11
425.725
21
-142.925
0
LINE
8
0
10
424.725
20
-141.925
11
408.675
21
-141.925
0
LINE
8
0
10
407.675
20
-142.925
11
407.675
21
-158.975
0
LINE
8
0
10
408.675
20
-140.925
11
424.725
21
-140.925
0
LINE
8
0
10
425.725
20
-139.925
11
425.725
21
-123.875
0
LINE
8
0
10
424.725
20
-122.875
11
408.675
21
-122.875
0
LINE
8
0
10
407.675
20
-123.875
11
407.675
21
-139.925
0
LINE
8
0
10
408.675
20
-121.875
11
424.725
21
-121.875
0
LINE
8
0
10
425.725
20
-120.875
11
425.725
21
-104.825
0
LINE
8
0
10
424.725
20
-103.825
11
408.675
21
-103.825
0
LINE
8
0
10
407.675
20
-104.825
11
407.675
21
-120.875
0
LINE
8
0
10
408.675
20
-102.825
11
424.725
21
-102.825
0
LINE
8
0
10
425.725
20
-101.825
11
425.725
21
-85.775
0
LINE
8
0
10
424.725
20
-84.775
11
408.675
21
-84.775
0
LINE
8
0
10
407.675
20
-85.775
11
407.675
21
-101.825
0
LINE
8
0
10
389.625
20
-179.025
11
405.675
21
-179.025
0
LINE
8
0
10
406.675
20
-178.025
11
406.675
21
-161.975
0
LINE
8
0
10
405.675
20
-160.975
11
389.625
21
-160.975
0
LINE
8
0
10
388.625
20
-161.975
11
388.625
21
-178.025
0
LINE
8
0
10
389.625
20
-159.975
11
405.675
21
-159.975
0
LINE
8
0
10
406.675
20
-158.975
11
406.675
21
-142.925
0
LINE
8
0
10
405.675
20
-141.925
11
389.625
21
-141.925
0
LINE
8
0
10
388.625
20
-142.925
11
388.625
21
-158.975
0
LINE
8
0
10
389.625
20
-140.925
11
405.675
21
-140.925
0
LINE
8
0
10
406.675
20
-139.925
11
406.675
21
-123.875
0
LINE
8
0
10
405.675
20
-122.875
11
389.625
21
-122.875
0
LINE
8
0
10
388.625
20
-123.875
11
388.625
21
-139.925
0
LINE
8
0
10
389.625
20
-121.875
11
405.675
21
-121.875
0
LINE
8
0
10
406.675
20
-120.875
11
406.675
21
-104.825
0
LINE
8
0
10
405.675
20
-103.825
11
389.625
21
-103.825
0
LINE
8
0
10
388.625
20
-104.825
11
388.625
21
-120.875
0
LINE
8
0
10
389.625
20
-102.825
11
405.675
21
-102.825
0
LINE
8
0
10
406.675
20
-101.825
11
406.675
21
-85.775
0
LINE
8
0
10
405.675
20
-84.775
11
389.625
21
-84.775
0
LINE
8
0
10
388.625
20
-85.775
11
388.625
21
-101.825
0
LINE
8
0
10
370.575
20
-169.5
11
386.625
21
-169.5
0
LINE
8
0
10
387.625
20
-168.5
11
387.625
21
-152.45
0
LINE
8
0
10
386.625
20
-151.45
11
370.575
21
-151.45
0
LINE
8
0
10
369.575
20
-152.45
11
369.575
21
-168.5
0
LINE
8
0
10
370.575
20
-150.45
11
386.625
21
-150.45
0
LINE
8
0
10
387.625
20
-149.45
11
387.625
21
-133.4
0
LINE
8
0
10
386.625
20
-132.4
11
370.575
21
-132.4
0
LINE
8
0
10
369.575
20
-133.4
11
369.575
21
-149.45
0
LINE
8
0
10
370.575
20
-131.4
11
386.625
21
-131.4
0
LINE
8
0
10
387.625
20
-130.4
11
387.625
21
-114.35
0
LINE
8
0
10
386.625
20
-113.35
11
370.575
21
-113.35
0
LINE
8
0
10
369.575
20
-114.35
11
369.575
21
-130.4
0
LINE
8
0
10
370.575
20
-112.35
11
386.625
21
-112.35
0
LINE
8
0
10
387.625
20
-111.35
11
387.625
21
-95.3
0
LINE
8
0
10
386.625
20
-94.3
11
370.575
21
-94.3
0
LINE
8
0
10
369.575
20
-95.3
11
369.575
21
-111.35
0
LINE
8
0
10
370.575
20
-93.3
11
386.625
21
-93.3
0
LINE
8
0
10
387.625
20
-92.3
11
387.625
21
-76.25
0
LINE
8
0
10
386.625
20
-75.25
11
370.575
21
-75.25
0
LINE
8
0
10
369.575
20
-76.25
11
369.575
21
-92.3
0
LINE
8
0
10
351.525
20
-164.7375
11
367.575
21
-164.7375
0
LINE
8
0
10
368.575
20
-163.7375
11
368.575
21
-147.6875
0
LINE
8
0
10
367.575
20
-146.6875
11
351.525
21
-146.6875
0
LINE
8
0
10
350.525
20
-147.6875
11
350.525
21
-163.7375
0
LINE
8
0
10
351.525
20
-145.6875
11
367.575
21
-145.6875
0
LINE
8
0
10
368.575
20
-144.6875
11
368.575
21
-128.6375
0
LINE
8
0
10
367.575
20
-127.6375
11
351.525
21
-127.6375
0
LINE
8
0
10
350.525
20
-128.6375
11
350.525
21
-144.6875
0
LINE
8
0
10
351.525
20
-126.6375
11
367.575
21
-126.6375
0
LINE
8
0
10
368.575
20
-125.6375
11
368.575
21
-109.5875
0
LINE
8
0
10
367.575
20
-108.5875
11
351.525
21
-108.5875
0
LINE
8
0
10
350.525
20
-109.5875
11
350.525
21
-125.6375
0
LINE
8
0
10
351.525
20
-107.5875
11
367.575
21
-107.5875
0
LINE
8
0
10
368.575
20
-106.5875
11
368.575
21
-90.5375
0
LINE
8
0
10
367.575
20
-89.5375
11
351.525
21
-89.5375
0
LINE
8
0
10
350.525
20
-90.5375
11
350.525
21
-106.5875
0
LINE
8
0
10
351.525
20
-88.5375
11
367.575
21
-88.5375
0
LINE
8
0
10
368.575
20
-87.5375
11
368.575
21
-71.4875
0
LINE
8
0
10
367.575
20
-70.4875
11
351.525
21
-70.4875
0
LINE
8
0
10
350.525
20
-71.4875
11
350.525
21
-87.5375
0
LINE
8
0
10
332.475
20
-148.06875
11
348.525
21
-148.06875
0
LINE
8
0
10
349.525
20
-147.06875
11
349.525
21
-131.01875
0
LINE
8
0
10
348.525
20
-130.01875
11
332.475
21
-130.01875
0
LINE
8
0
10
331.475
20
-131.01875
11
331.475
21
-147.06875
0
LINE
8
0
10
332.475
20
-129.01875
11
348.525
21
-129.01875
0
LINE
8
0
10
349.525
20
-128.01875
11
349.525
21
-111.96875
0
LINE
8
0
10
348.525
20
-110.96875
11
332.475
21
-110.96875
0
LINE
8
0
10
331.475
20
-111.96875
11
331.475
21
-128.01875
0
LINE
8
0
10
332.475
20
-109.96875
11
348.525
21
-109.96875
0
LINE
8
0
10
349.525
20
-108.96875
11
349.525
21
-92.91875
0
LINE
8
0
10
348.525
20
-91.91875
11
332.475
21
-91.91875
0
LINE
8
0
10
331.475
20
-92.91875
11
331.475
21
-108.96875
0
LINE
8
0
10
332.475
20
-90.91875
11
348.525
21
-90.91875
0
LINE
8
0
10
349.525
20
-89.91875
11
349.525
21
-73.86875
0
LINE
8
0
10
348.525
20
-72.86875
11
332.475
21
-72.86875
0
LINE
8
0
10
331.475
20
-73.86875
11
331.475
21
-89.91875
0
LINE
8
0
10
313.425
20
-150.45
11
329.475
21
-150.45
0
LINE
8
0
10
330.475
20
-149.45
11
330.475
21
-133.4
0
LINE
8
0
10
329.475
20
-132.4
11
313.425
21
-132.4
0
LINE
8
0
10
312.425
20
-133.4
11
312.425
21
-149.45
0
LINE
8
0
10
313.425
20
-131.4
11
329.475
21
-131.4
0
LINE
8
0
10
330.475
20
-130.4
11
330.475
21
-114.35
0
LINE
8
0
10
329.475
20
-113.35
11
313.425
21
-113.35
0
LINE
8
0
10
312.425
20
-114.35
11
312.425
21
-130.4
0
LINE
8
0
10
313.425
20
-112.35
11
329.475
21
-112.35
0
LINE
8
0
10
330.475
20
-111.35
11
330.475
21
-95.3
0
LINE
8
0
10
329.475
20
-94.3
11
313.425
21
-94.3
0
LINE
8
0
10
312.425
20
-95.3
11
312.425
21
-111.35
0
LINE
8
0
10
313.425
20
-93.3
11
329.475
21
-93.3
0
LINE
8
0
10
330.475
20
-92.3
11
330.475
21
-76.25
0
LINE
8
0
10
329.475
20
-75.25
11
313.425
21
-75.25
0
LINE
8
0
10
312.425
20
-76.25
11
312.425
21
-92.3
0
LINE
8
0
10
294.375
20
-140.925
11
310.425
21
-140.925
0
LINE
8
0
10
311.425
20
-139.925
11
311.425
21
-123.875
0
LINE
8
0
10
310.425
20
-122.875
11
294.375
21
-122.875
0
LINE
8
0
10
293.375
20
-123.875
11
293.375
21
-139.925
0
LINE
8
0
10
294.375
20
-121.875
11
310.425
21
-121.875
0
LINE
8
0
10
311.425
20
-120.875
11
311.425
21
-104.825
0
LINE
8
0
10
310.425
20
-103.825
11
294.375
21
-103.825
0
LINE
8
0
10
293.375
20
-104.825
11
293.375
21
-120.875
0
LINE
8
0
10
294.375
20
-102.825
11
310.425
21
-102.825
0
LINE
8
0
10
311.425
20
-101.825
11
311.425
21
-85.775
0
LINE
8
0
10
310.425
20
-84.775
11
294.375
21
-84.775
0
LINE
8
0
10
293.375
20
-85.775
11
293.375
21
-101.825
0
LINE
8
0
10
322.499461
20
-176.0018661
11
346.212188
21
-166.4213025
0
LINE
8
0
10
315.737812
20
-159.2661975
11
339.450539
21
-149.6856339
0
LINE
8
0
10
310.7015129
20
-152.1064858
11
320.2820765
21
-175.8192128
0
LINE
8
0
10
293.9658443
20
-158.8681348
11
303.5464079
21
-182.5808618
0
ARC
8
0
10
158.025
20
-178.025
40
1
50
270
51
0
0
ARC
8
0
10
158.025
20
-161.975
40
1
50
0
51
90
0
ARC
8
0
10
141.975
20
-161.975
40
1
50
90
51
180
0
ARC
8
0
10
141.975
20
-178.025
40
1
50
180
51
270
0
ARC
8
0
10
158.025
20
-158.975
40
1
50
270
51
0
0
ARC
8
0
10
158.025
20
-142.925
40
1
50
0
51
90
0
ARC
8
0
10
141.975
20
-142.925
40
1
50
90
51
180
0
ARC
8
0
10
141.975
20
-158.975
40
1
50
180
51
270
0
ARC
8
0
10
177.075
20
-178.025
40
1
50
270
51
0
0
ARC
8
0
10
177.075
20
-161.975
40
1
50
0
51
90
0
ARC
8
0
10
161.025
20
-161.975
40
1
50
90
51
180
0
ARC
8
0
10
161.025
20
-178.025
40
1
50
180
51
270
0
ARC
8
0
10
177.075
20
-158.975
40
1
50
270
51
0
0
ARC
8
0
10
177.075
20
-142.925
40
1
50
0
51
90
0
ARC
8
0
10
161.025
20
-142.925
40
1
50
90
51
180
0
ARC
8
0
10
161.025
20
-158.975
40
1
50
180
51
270
0
ARC
8
0
10
196.125
20
-168.5
40
1
50
270
51
0
0
ARC
8
0
10
196.125
20
-152.45
40
1
50
0
51
90
0
ARC
8
0
10
180.075
20
-152.45
40
1
50
90
51
180
0
ARC
8
0
10
180.075
20
-168.5
40
1
50
180
51
270
0
ARC
8
0
10
196.125
20
-149.45
40
1
50
270
51
0
0
ARC
8
0
10
196.125
20
-133.4
40
1
50
0
51
90
0
ARC
8
0
10
180.075
20
-133.4
40
1
50
90
51
180
0
ARC
8
0
10
180.075
20
-149.45
40
1
50
180
51
270
0
ARC
8
0
10
215.175
20
-163.7375
40
1
50
270
51
0
0
ARC
8
0
10
215.175
20
-147.6875
40
1
50
0
51
90
0
ARC
8
0
10
199.125
20
-147.6875
40
1
50
90
51
180
0
ARC
8
0
10
199.125
20
-163.7375
40
1
50
180
51
270
0
ARC
8
0
10
234.225
20
-147.06875
40
1
50
270
51
0
0
ARC
8
0
10
234.225
20
-131.01875
40
1
50
0
51
90
0
ARC
8
0
10
218.175
20
-131.01875
40
1
50
90
51
180
0
ARC
8
0
10
218.175
20
-147.06875
40
1
50
180
51
270
0
ARC
8
0
10
253.275
20
-149.45
40
1
50
270
51
0
0
ARC
8
0
10
253.275
20
-133.4
40
1
50
0
51
90
0
ARC
8
0
10
237.225
20
-133.4
40
1
50
90
51
180
0
ARC
8
0
10
237.225
20
-149.45
40
1
50
180
51
270
0
ARC
8
0
10
424.725
20
-178.025
40
1
50
270
51
0
0
ARC
8
0
10
424.725
20
-161.975
40
1
50
0
51
90
0
ARC
8
0
10
408.675
20
-161.975
40
1
50
90
51
180
0
ARC
8
0
10
408.675
20
-178.025
40
1
50
180
51
270
0
ARC
8
0
10
424.725
20
-158.975
40
1
50
270
51
0
0
ARC
8
0
10
424.725
20
-142.925
40
1
50
0
51
90
0
ARC
8
0
10
408.675
20
-142.925
40
1
50
90
51
180
0
ARC
8
0
10
408.675
20
-158.975
40
1
50
180
51
270
0
ARC
8
0
10
405.675
20
-178.025
40
1
50
270
51
0
0
ARC
8
0
10
405.675
20
-161.975
40
1
50
0
51
90
0
ARC
8
0
10
389.625
20
-161.975
40
1
50
90
51
180
0
ARC
8
0
10
389.625
20
-178.025
40
1
50
180
51
270
0
ARC
8
0
10
405.675
20
-158.975
40
1
50
270
51
0
0
ARC
8
0
10
405.675
20
-142.925
40
1
50
0
51
90
0
ARC
8
0
10
389.625
20
-142.925
40
1
50
90
51
180
0
ARC
8
0
10
389.625
20
-158.975
40
1
50
180
51
270
0
ARC
8
0
10
386.625
20
-168.5
40
1
50
270
51
0
0
ARC
8
0
10
386.625
20
-152.45
40
1
50
0
51
90
0
ARC
8
0
10
370.575
20
-152.45
40
1
50
90
51
180
0
ARC
8
0
10
370.575
20
-168.5
40
1
50
180
51
270
0
ARC
8
0
10
386.625
20
-149.45
40
1
50
270
51
0
0
ARC
8
0
10
386.625
20
-133.4
40
1
50
0
51
90
0
ARC
8
0
10
370.575
20
-133.4
40
1
50
90
51
180
0
ARC
8
0
10
370.575
20
-149.45
40
1
50
180
51
270
0
ARC
8
0
10
367.575
20
-163.7375
40
1
50
270
51
0
0
ARC
8
0
10
367.575
20
-147.6875
40
1
50
0
51
90
0
ARC
8
0
10
351.525
20
-147.6875
40
1
50
90
51
180
0
ARC
8
0
10
351.525
20
-163.7375
40
1
50
180
51
270
0
ARC
8
0
10
348.525
20
-147.06875
40
1
50
270
51
0
0
ARC
8
0
10
348.525
20
-131.01875
40
1
50
0
51
90
0
ARC
8
0
10
332.475
20
-131.01875
40
1
50
90
51
180
0
ARC
8
0
10
332.475
20
-147.06875
40
1
50
180
51
270
0
ARC
8
0
10
329.475
20
-149.45
40
1
50
270
51
0
0
ARC
8
0
10
329.475
20
-133.4
40
1
50
0
51
90
0
ARC
8
0
10
313.425
20
-133.4
40
1
50
90
51
180
0
ARC
8
0
10
313.425
20
-149.45
40
1
50
180
51
270
0
ARC
8
0
10
158.025
20
-139.925
40
1
50
270
51
0
0
ARC
8
0
10
158.025
20
-123.875
40
1
50
0
51
90
0
ARC
8
0
10
141.975
20
-123.875
40
1
50
90
51
180
0
ARC
8
0
10
141.975
20
-139.925
40
1
50
180
51
270
0
ARC
8
0
10
158.025
20
-120.875
40
1
50
270
51
0
0
ARC
8
0
10
158.025
20
-104.825
40
1
50
0
51
90
0
ARC
8
0
10
141.975
20
-104.825
40
1
50
90
51
180
0
ARC
8
0
10
141.975
20
-120.875
40
1
50
180
51
270
0
ARC
8
0
10
158.025
20
-101.825
40
1
50
270
51
0
0
ARC
8
0
10
158.025
20
-85.775
40
1
50
0
51
90
0
ARC
8
0
10
141.975
20
-85.775
40
1
50
90
51
180
0
ARC
8
0
10
141.975
20
-101.825
40
1
50
180
51
270
0
ARC
8
0
10
177.075
20
-139.925
40
1
50
270
51
0
0
ARC
8
0
10
177.075
20
-123.875
40
1
50
0
51
90
0
ARC
8
0
10
161.025
20
-123.875
40
1
50
90
51
180
0
ARC
8
0
10
161.025
20
-139.925
40
1
50
180
51
270
0
ARC
8
0
10
177.075
20
-120.875
40
1
50
270
51
0
0
ARC
8
0
10
177.075
20
-104.825
40
1
50
0
51
90
0
ARC
8
0
10
161.025
20
-104.825
40
1
50
90
51
180
0
ARC
8
0
10
161.025
20
-120.875
40
1
50
180
51
270
0
ARC
8
0
10
177.075
20
-101.825
40
1
50
270
51
0
0
ARC
8
0
10
177.075
20
-85.775
40
1
50
0
51
90
0
ARC
8
0
10
161.025
20
-85.775
40
1
50
90
51
180
0
ARC
8
0
10
161.025
20
-101.825
40
1
50
180
51
270
0
ARC
8
0
10
196.125
20
-130.4
40
1
50
270
51
0
0
ARC
8
0
10
196.125
20
-114.35
40
1
50
0
51
90
0
ARC
8
0
10
180.075
20
-114.35
40
1
50
90
51
180
0
ARC
8
0
10
180.075
20
-130.4
40
1
50
180
51
270
0
ARC
8
0
10
196.125
20
-111.35
40
1
50
270
51
0
0
ARC
8
0
10
196.125
20
-95.3
40
1
50
0
51
90
0
ARC
8
0
10
180.075
20
-95.3
40
1
50
90
51
180
0
ARC
8
0
10
180.075
20
-111.35
40
1
50
180
51
270
0
ARC
8
0
10
196.125
20
-92.3
40
1
50
270
51
0
0
ARC
8
0
10
196.125
20
-76.25
40
1
50
0
51
90
0
ARC
8
0
10
180.075
20
-76.25
40
1
50
90
51
180
0
ARC
8
0
10
180.075
20
-92.3
40
1
50
180
51
270
0
ARC
8
0
10
215.175
20
-144.6875
40
1
50
270
51
0
0
ARC
8
0
10
215.175
20
-128.6375
40
1
50
0
51
90
0
ARC
8
0
10
199.125
20
-128.6375
40
1
50
90
51
180
0
ARC
8
0
10
199.125
20
-144.6875
40
1
50
180
51
270
0
ARC
8
0
10
215.175
20
-125.6375
40
1
50
270
51
0
0
ARC
8
0
10
215.175
20
-109.5875
40
1
50
0
51
90
0
ARC
8
0
10
199.125
20
-109.5875
40
1
50
90
51
180
0
ARC
8
0
10
199.125
20
-125.6375
40
1
50
180
51
270
0
ARC
8
0
10
215.175
20
-106.5875
40
1
50
270
51
0
0
ARC
8
0
10
215.175
20
-90.5375
40
1
50
0
51
90
0
ARC
8
0
10
199.125
20
-90.5375
40
1
50
90
51
180
0
ARC
8
0
10
199.125
20
-106.5875
40
1
50
180
51
270
0
ARC
8
0
10
215.175
20
-87.5375
40
1
50
270
51
0
0
ARC
8
0
10
215.175
20
-71.4875
40
1
50
0
51
90
0
ARC
8
0
10
199.125
20
-71.4875
40
1
50
90
51
180
0
ARC
8
0
10
199.125
20
-87.5375
40
1
50
180
51
270
0
ARC
8
0
10
234.225
20
-128.01875
40
1
50
270
51
0
0
ARC
8
0
10
234.225
20
-111.96875
40
1
50
0
51
90
0
ARC
8
0
10
218.175
20
-111.96875
40
1
50
90
51
180
0
ARC
8
0
10
218.175
20
-128.01875
40
1
50
180
51
270
0
ARC
8
0
10
234.225
20
-108.96875
40
1
50
270
51
0
0
ARC
8
0
10
234.225
20
-92.91875
40
1
50
0
51
90
0
ARC
8
0
10
218.175
20
-92.91875
40
1
50
90
51
180
0
ARC
8
0
10
218.175
20
-108.96875
40
1
50
180
51
270
0
ARC
8
0
10
234.225
20
-89.91875
40
1
50
270
51
0
0
ARC
8
0
10
234.225
20
-73.86875
40
1
50
0
51
90
0
ARC
8
0
10
218.175
20
-73.86875
40
1
50
90
51
180
0
ARC
8
0
10
218.175
20
-89.91875
40
1
50
180
51
270
0
ARC
8
0
10
253.275
20
-130.4
40
1
50
270
51
0
0
ARC
8
0
10
253.275
20
-114.35
40
1
50
0
51
90
0
ARC
8
0
10
237.225
20
-114.35
40
1
50
90
51
180
0
ARC
8
0
10
237.225
20
-130.4
40
1
50
180
51
270
0
ARC
8
0
10
253.275
20
-111.35
40
1
50
270
51
0
0
ARC
8
0
10
253.275
20
-95.3
40
1
50
0
51
90
0
ARC
8
0
10
237.225
20
-95.3
40
1
50
90
51
180
0
ARC
8
0
10
237.225
20
-111.35
40
1
50
180
51
270
0
ARC
8
0
10
253.275
20
-92.3
40
1
50
270
51
0
0
ARC
8
0
10
253.275
20
-76.25
40
1
50
0
51
90
0
ARC
8
0
10
237.225
20
-76.25
40
1
50
90
51
180
0
ARC
8
0
10
237.225
20
-92.3
40
1
50
180
51
270
0
ARC
8
0
10
424.725
20
-139.925
40
1
50
270
51
0
0
ARC
8
0
10
424.725
20
-123.875
40
1
50
0
51
90
0
ARC
8
0
10
408.675
20
-123.875
40
1
50
90
51
180
0
ARC
8
0
10
408.675
20
-139.925
40
1
50
180
51
270
0
ARC
8
0
10
424.725
20
-120.875
40
1
50
270
51
0
0
ARC
8
0
10
424.725
20
-104.825
40
1
50
0
51
90
0
ARC
8
0
10
408.675
20
-104.825
40
1
50
90
51
180
0
ARC
8
0
10
408.675
20
-120.875
40
1
50
180
51
270
0
ARC
8
0
10
424.725
20
-101.825
40
1
50
270
51
0
0
ARC
8
0
10
424.725
20
-85.775
40
1
50
0
51
90
0
ARC
8
0
10
408.675
20
-85.775
40
1
50
90
51
180
0
ARC
8
0
10
408.675
20
-101.825
40
1
50
180
51
270
0
ARC
8
0
10
405.675
20
-139.925
40
1
50
270
51
0
0
ARC
8
0
10
405.675
20
-123.875
40
1
50
0
51
90
0
ARC
8
0
10
389.625
20
-123.875
40
1
50
90
51
180
0
ARC
8
0
10
389.625
20
-139.925
40
1
50
180
51
270
0
ARC
8
0
10
405.675
20
-120.875
40
1
50
270
51
0
0
ARC
8
0
10
405.675
20
-104.825
40
1
50
0
51
90
0
ARC
8
0
10
389.625
20
-104.825
40
1
50
90
51
180
0
ARC
8
0
10
389.625
20
-120.875
40
1
50
180
51
270
0
ARC
8
0
10
405.675
20
-101.825
40
1
50
270
51
0
0
ARC
8
0
10
405.675
20
-85.775
40
1
50
0
51
90
0
ARC
8
0
10
389.625
20
-85.775
40
1
50
90
51
180
0
ARC
8
0
10
389.625
20
-101.825
40
1
50
180
51
270
0
ARC
8
0
10
386.625
20
-130.4
40
1
50
270
51
0
0
ARC
8
0
10
386.625
20
-114.35
40
1
50
0
51
90
0
ARC
8
0
10
370.575
20
-114.35
40
1
50
90
51
180
0
ARC
8
0
10
370.575
20
-130.4
40
1
50
180
51
270
0
ARC
8
0
10
386.625
20
-111.35
40
1
50
270
51
0
0
ARC
8
0
10
386.625
20
-95.3
40
1
50
0
51
90
0
ARC
8
0
10
370.575
20
-95.3
40
1
50
90
51
180
0
ARC
8
0
10
370.575
20
-111.35
40
1
50
180
51
270
0
ARC
8
0
10
386.625
20
-92.3
40
1
50
270
51
0
0
ARC
8
0
10
386.625
20
-76.25
40
1
50
0
51
90
0
ARC
8
0
10
370.575
20
-76.25
40
1
50
90
51
180
0
ARC
8
0
10
370.575
20
-92.3
40
1
50
180
51
270
0
ARC
8
0
10
367.575
20
-144.6875
40
1
50
270
51
0
0
ARC
8
0
10
367.575
20
-128.6375
40
1
50
0
51
90
0
ARC
8
0
10
351.525
20
-128.6375
40
1
50
90
51
180
0
ARC
8
0
10
351.525
20
-144.6875
40
1
50
180
51
270
0
ARC
8
0
10
367.575
20
-125.6375
40
1
50
270
51
0
0
ARC
8
0
10
367.575
20
-109.5875
40
1
50
0
51
90
0
ARC
8
0
10
351.525
20
-109.5875
40
1
50
90
51
180
0
ARC
8
0
10
351.525
20
-125.6375
40
1
50
180
51
270
0
ARC
8
0
10
367.575
20
-106.5875
40
1
50
270
51
0
0
ARC
8
0
10
367.575
20
-90.5375
40
1
50
0
51
90
0
ARC
8
0
10
351.525
20
-90.5375
40
1
50
90
51
180
0
ARC
8
0
10
351.525
20
-106.5875
40
1
50
180
51
270
0
ARC
8
0
10
367.575
20
-87.5375
40
1
50
270
51
0
0
ARC
8
0
10
367.575
20
-71.4875
40
1
50
0
51
90
0
ARC
8
0
10
351.525
20
-71.4875
40
1
50
90
51
180
0
ARC
8
0
10
351.525
20
-87.5375
40
1
50
180
51
270
0
ARC
8
0
10
348.525
20
-128.01875
40
1
50
270
51
0
0
ARC
8
0
10
348.525
20
-111.96875
40
1
50
0
51
90
0
ARC
8
0
10
332.475
20
-111.96875
40
1
50
90
51
180
0
ARC
8
0
10
332.475
20
-128.01875
40
1
50
180
51
270
0
ARC
8
0
10
348.525
20
-108.96875
40
1
50
270
51
0
0
ARC
8
0
10
348.525
20
-92.91875
40
1
50
0
51
90
0
ARC
8
0
10
332.475
20
-92.91875
40
1
50
90
51
180
0
ARC
8
0
10
332.475
20
-108.96875
40
1
50
180
51
270
0
ARC
8
0
10
348.525
20
-89.91875
40
1
50
270
51
0
0
ARC
8
0
10
348.525
20
-73.86875
40
1
50
0
51
90
0
ARC
8
0
10
332.475
20
-73.86875
40
1
50
90
51
180
0
ARC
8
0
10
332.475
20
-89.91875
40
1
50
180
51
270
0
ARC
8
0
10
329.475
20
-130.4
40
1
50
270
51
0
0
ARC
8
0
10
329.475
20
-114.35
40
1
50
0
51
90
0
ARC
8
0
10
313.425
20
-114.35
40
1
50
90
51
180
0
ARC
8
0
10
313.425
20
-130.4
40
1
50
180
51
270
0
ARC
8
0
10
329.475
20
-111.35
40
1
50
270
51
0
0
ARC
8
0
10
329.475
20
-95.3
40
1
50
0
51
90
0
ARC
8
0
10
313.425
20
-95.3
40
1
50
90
51
180
0
ARC
8
0
10
313.425
20
-111.35
40
1
50
180
51
270
0
ARC
8
0
10
329.475
20
-92.3
40
1
50
270
51
0
0
ARC
8
0
10
329.475
20
-76.25
40
1
50
0
51
90
0
ARC
8
0
10
313.425
20
-76.25
40
1
50
90
51
180
0
ARC
8
0
10
313.425
20
-92.3
40
1
50
180
51
270
0
ARC
8
0
10
310.425
20
-139.925
40
1
50
270
51
0
0
ARC
8
0
10
310.425
20
-123.875
40
1
50
0
51
90
0
ARC
8
0
10
294.375
20
-123.875
40
1
50
90
51
180
0
ARC
8
0
10
294.375
20
-139.925
40
1
50
180
51
270
0
ARC
8
0
10
310.425
20
-120.875
40
1
50
270
51
0
0
ARC
8
0
10
310.425
20
-104.825
40
1
50
0
51
90
0
ARC
8
0
10
294.375
20
-104.825
40
1
50
90
51
180
0
ARC
8
0
10
294.375
20
-120.875
40
1
50
180
51
270
0
ARC
8
0
10
310.425
20
-101.825
40
1
50
270
51
0
0
ARC
8
0
10
310.425
20
-85.775
40
1
50
0
51
90
0
ARC
8
0
10
294.375
20
-85.775
40
1
50
90
51
180
0
ARC
8
0
10
294.375
20
-101.825
40
1
50
180
51
270
0
ARC
8
0
10
272.325
20
-139.925
40
1
50
270
51
0
0
ARC
8
0
10
272.325
20
-123.875
40
1
50
0
51
90
0
ARC
8
0
10
256.275
20
-123.875
40
1
50
90
51
180
0
ARC
8
0
10
256.275
20
-139.925
40
1
50
180
51
270
0
ARC
8
0
10
272.325
20
-120.875
40
1
50
270
51
0
0
ARC
8
0
10
272.325
20
-104.825
40
1
50
0
51
90
0
ARC
8
0
10
256.275
20
-104.825
40
1
50
90
51
180
0
ARC
8
0
10
256.275
20
-120.875
40
1
50
180
51
270
0
ARC
8
0
10
272.325
20
-101.825
40
1
50
270
51
0
0
ARC
8
0
10
272.325
20
-85.775
40
1
50
0
51
90
0
ARC
8
0
10
256.275
20
-85.775
40
1
50
90
51
180
0
ARC
8
0
10
256.275
20
-101.825
40
1
50
180
51
270
0
LINE
8
0
10
245.5023295
20
-175.4492888
11
251.5147653
21
-160.567988
0
LINE
8
0
10
225.9476705
20
-150.2382112
11
219.9352347
21
-165.119512
0
LINE
8
0
10
346.7647653
20
-165.119512
11
340.7523295
21
-150.2382112
0
LINE
8
0
10
315.1852347
20
-160.567988
11
321.1976705
21
-175.4492888
0
ARC
8
0
10
244.5751456
20
-175.0746822
40
1
50
248.0000006
51
338.0000006
0
ARC
8
0
10
250.5875814
20
-160.1933814
40
1
50
338.0000006
51
68.0000006
0
ARC
8
0
10
226.8748544
20
-150.6128178
40
1
50
68.0000006
51
158.0000006
0
ARC
8
0
10
220.8624186
20
-165.4941186
40
1
50
158.0000006
51
248.0000006
0
ARC
8
0
10
345.8375814
20
-165.4941186
40
1
50
291.9999994
51
21.9999994
0
ARC
8
0
10
339.8251456
20
-150.6128178
40
1
50
21.9999994
51
111.9999994
0
ARC
8
0
10
316.1124186
20
-160.1933814
40
1
50
111.9999994
51
201.9999994
0
ARC
8
0
10
322.1248544
20
-175.0746822
40
1
50
201.9999994
51
291.9999994
0
LINE
8
0
10
246.9705008
20
-177.1210033
11
261.8518016
21
-183.1334391
0
LINE
8
0
10
272.1815784
20
-157.5663443
11
257.3002776
21
-151.5539085
0
LINE
8
0
10
304.8481984
20
-183.1334391
11
319.7294992
21
-177.1210033
0
LINE
8
0
10
309.3997224
20
-151.5539085
11
294.5184216
21
-157.5663443
0
ARC
8
0
10
309.774329
20
-152.4810924
40
1
50
21.9999994
51
111.9999994
0
ARC
8
0
10
294.8930282
20
-158.4935282
40
1
50
111.9999994
51
201.9999994
0
ARC
8
0
10
304.4735918
20
-182.2062552
40
1
50
201.9999994
51
291.9999994
0
ARC
8
0
10
319.3548926
20
-176.1938194
40
1
50
291.9999994
51
21.9999994
0
ARC
8
0
10
271.8069718
20
-158.4935282
40
1
50
338.0000006
51
68.0000006
0
ARC
8
0
10
256.925671
20
-152.4810924
40
1
50
68.0000006
51
158.0000006
0
ARC
8
0
10
247.3451074
20
-176.1938194
40
1
50
158.0000006
51
248.0000006
0
ARC
8
0
10
262.2264082
20
-182.2062552
40
1
50
248.0000006
51
338.0000006
0
ENDSEC
0
EOF