0
SECTION
2
HEADER
9
$INSUNITS
70
4
0
ENDSEC
0
SECTION
2
TABLES
0
TABLE
2
LTYPE
0
LTYPE
72
65
70
64
2
CONTINUOUS
3
______
73
0
40
0
0
ENDTAB
0
TABLE
2
LAYER
0
ENDTAB
0
ENDSEC
0
SECTION
2
ENTITIES
0
LINE
8
0
10
139.975
20
-180.025
11
179.075
21
-180.025
0
LINE
8
0
10
139.975
20
-180.025
11
139.975
21
-83.775
0
LINE
8
0
10
139.975
20
-83.775
11
178.075
21
-83.775
0
LINE
8
0
10
179.075
20
-180.025
11
179.075
21
-170.5
0
LINE
8
0
10
179.075
20
-170.5
11
198.125
21
-170.5
0
LINE
8
0
10
198.125
20
-170.5
11
198.125
21
-165.7375
0
LINE
8
0
10
197.125
20
-74.25
11
178.075
21
-74.25
0
LINE
8
0
10
178.075
20
-74.25
11
178.075
21
-83.775
0
LINE
8
0
10
198.125
20
-165.7375
11
216.175
21
-165.7375
0
LINE
8
0
10
217.175
20
-71.86875
11
217.175
21
-69.4875
0
LINE
8
0
10
217.175
20
-69.4875
11
197.125
21
-69.4875
0
LINE
8
0
10
197.125
20
-69.4875
11
197.125
21
-74.25
0
LINE
8
0
10
236.225
20
-74.25
11
236.225
21
-71.86875
0
LINE
8
0
10
236.225
20
-71.86875
11
217.175
21
-71.86875
0
LINE
8
0
10
255.275
20
-149.7
11
255.275
21
-141.925
0
LINE
8
0
10
255.275
20
-83.775
11
255.275
21
-74.25
0
LINE
8
0
10
255.275
20
-74.25
11
236.225
21
-74.25
0
LINE
8
0
10
255.275
20
-141.925
11
274.325
21
-141.925
0
LINE
8
0
10
274.325
20
-141.925
11
274.325
21
-83.775
0
LINE
8
0
10
274.325
20
-83.775
11
255.275
21
-83.775
0
LINE
8
0
10
406.675
20
-180.025
11
445.775
21
-180.025
0
LINE
8
0
10
445.775
20
-180.025
11
445.775
21
-83.775
0
LINE
8
0
10
407.675
20
-83.775
11
445.775
21
-83.775
0
LINE
8
0
10
406.675
20
-170.5
11
406.675
21
-180.025
0
LINE
8
0
10
387.625
20
-170.5
11
406.675
21
-170.5
0
LINE
8
0
10
387.625
20
-165.7375
11
387.625
21
-170.5
0
LINE
8
0
10
407.675
20
-83.775
11
407.675
21
-74.25
0
LINE
8
0
10
407.675
20
-74.25
11
388.625
21
-74.25
0
LINE
8
0
10
369.575
20
-165.7375
11
387.625
21
-165.7375
0
LINE
8
0
10
388.625
20
-74.25
11
388.625
21
-69.4875
0
LINE
8
0
10
388.625
20
-69.4875
11
368.575
21
-69.4875
0
LINE
8
0
10
368.575
20
-69.4875
11
368.575
21
-71.86875
0
LINE
8
0
10
368.575
20
-71.86875
11
349.525
21
-71.86875
0
LINE
8
0
10
349.525
20
-71.86875
11
349.525
21
-74.25
0
LINE
8
0
10
330.475
20
-149.7
11
330.475
21
-141.925
0
LINE
8
0
10
349.525
20
-74.25
11
330.475
21
-74.25
0
LINE
8
0
10
330.475
20
-74.25
11
330.475
21
-83.775
0
LINE
8
0
10
311.425
20
-141.925
11
330.475
21
-141.925
0
LINE
8
0
10
311.425
20
-141.925
11
311.425
21
-83.775
0
LINE
8
0
10
330.475
20
-83.775
11
311.425
21
-83.775
0
LINE
8
0
10
263.3431525
20
-184.8145187
11
216.175
21
-165.7375
0
LINE
8
0
10
255.275
20
-149.7
11
274.4221425
21
-157.3930562
0
LINE
8
0
10
274.4221425
20
-157.3930562
11
263.3431525
21
-184.8145187
0
LINE
8
0
10
322.4068475
20
-184.8145187
11
369.575
21
-165.7375
0
LINE
8
0
10
330.475
20
-149.7
11
311.3278575
21
-157.3930562
0
LINE
8
0
10
311.3278575
20
-157.3930562
11
322.4068475
21
-184.8145187
0
ENDSEC
0
EOF