0
SECTION
2
HEADER
9
$INSUNITS
70
4
0
ENDSEC
0
SECTION
2
TABLES
0
TABLE
2
LTYPE
0
LTYPE
72
65
70
64
2
CONTINUOUS
3
______
73
0
40
0
0
ENDTAB
0
TABLE
2
LAYER
0
ENDTAB
0
ENDSEC
0
SECTION
2
ENTITIES
0
LINE
8
0
10
139.475
20
-178.525
11
139.475
21
-85.275
0
LINE
8
0
10
141.475
20
-83.275
11
160.052864
21
-83.275
0
LINE
8
0
10
160.9472912
20
-83.0638544
11
179.4034045
21
-73.8357978
0
LINE
8
0
10
179.7597767
20
-73.6983872
11
196.3610248
21
-69.061235
0
LINE
8
0
10
196.8990798
20
-68.9875
11
236.4509202
21
-68.9875
0
LINE
8
0
10
236.9889752
20
-69.061235
11
253.6277958
21
-73.7088821
0
LINE
8
0
10
253.9142476
20
-73.8130087
11
273.6495068
21
-82.7430963
0
LINE
8
0
10
274.825
20
-84.5652347
11
274.825
21
-157.0891295
0
LINE
8
0
10
274.6814476
20
-157.8331741
11
264.4454094
21
-183.3728638
0
LINE
8
0
10
261.8491634
20
-184.4869631
11
217.6745019
21
-166.8993321
0
LINE
8
0
10
216.5826365
20
-166.7887076
11
198.909164
21
-169.9491841
0
LINE
8
0
10
198.3668038
20
-170.1290981
11
177.9972912
21
-180.3138544
0
LINE
8
0
10
177.102864
20
-180.525
11
141.475
21
-180.525
0
ARC
8
0
10
141.475
20
-85.275
40
2
50
90
51
180
0
ARC
8
0
10
160.052864
20
-81.275
40
2
50
270
51
296.5650512
0
ARC
8
0
10
180.2978317
20
-75.6246522
40
2
50
105.6064056
51
116.5650512
0
ARC
8
0
10
196.8990798
20
-70.9875
40
2
50
90
51
105.6064056
0
ARC
8
0
10
236.4509202
20
-70.9875
40
2
50
74.3935944
51
90
0
ARC
8
0
10
253.0897408
20
-75.6351471
40
2
50
65.6535307
51
74.3935944
0
ARC
8
0
10
272.825
20
-84.5652347
40
2
50
0
51
65.6535307
0
ARC
8
0
10
272.825
20
-157.0891295
40
2
50
338.1596082
51
0
0
ARC
8
0
10
262.5889618
20
-182.6288192
40
2
50
248.2905993
51
338.1596082
0
ARC
8
0
10
216.9347035
20
-168.757476
40
2
50
68.2905993
51
100.1388068
0
ARC
8
0
10
199.261231
20
-171.9179525
40
2
50
100.1388068
51
116.5650512
0
ARC
8
0
10
177.102864
20
-178.525
40
2
50
270
51
296.5650512
0
ARC
8
0
10
141.475
20
-178.525
40
2
50
180
51
270
0
LINE
8
0
10
427.225
20
-178.525
11
427.225
21
-85.275
0
LINE
8
0
10
425.225
20
-83.275
11
406.647136
21
-83.275
0
LINE
8
0
10
405.7527088
20
-83.0638544
11
387.2965955
21
-73.8357978
0
LINE
8
0
10
386.9402233
20
-73.6983872
11
370.3389752
21
-69.061235
0
LINE
8
0
10
369.8009202
20
-68.9875
11
330.2490798
21
-68.9875
0
LINE
8
0
10
329.7110248
20
-69.061235
11
313.0722042
21
-73.7088821
0
LINE
8
0
10
312.7857524
20
-73.8130087
11
293.0504932
21
-82.7430963
0
LINE
8
0
10
291.875
20
-84.5652347
11
291.875
21
-157.0891295
0
LINE
8
0
10
292.0185524
20
-157.8331741
11
302.2545906
21
-183.3728638
0
LINE
8
0
10
304.8508366
20
-184.4869631
11
349.0254981
21
-166.8993321
0
LINE
8
0
10
350.1173635
20
-166.7887076
11
367.790836
21
-169.9491841
0
LINE
8
0
10
368.3331962
20
-170.1290981
11
388.7027088
21
-180.3138544
0
LINE
8
0
10
389.597136
20
-180.525
11
425.225
21
-180.525
0
ARC
8
0
10
425.225
20
-85.275
40
2
50
0
51
90
0
ARC
8
0
10
406.647136
20
-81.275
40
2
50
243.4349488
51
270
0
ARC
8
0
10
386.4021683
20
-75.6246522
40
2
50
63.4349488
51
74.3935944
0
ARC
8
0
10
369.8009202
20
-70.9875
40
2
50
74.3935944
51
90
0
ARC
8
0
10
330.2490798
20
-70.9875
40
2
50
90
51
105.6064056
0
ARC
8
0
10
313.6102592
20
-75.6351471
40
2
50
105.6064056
51
114.3464693
0
ARC
8
0
10
293.875
20
-84.5652347
40
2
50
114.3464693
51
180
0
ARC
8
0
10
293.875
20
-157.0891295
40
2
50
180
51
201.8403918
0
ARC
8
0
10
304.1110382
20
-182.6288192
40
2
50
201.8403918
51
291.7094007
0
ARC
8
0
10
349.7652965
20
-168.757476
40
2
50
79.8611932
51
111.7094007
0
ARC
8
0
10
367.438769
20
-171.9179525
40
2
50
63.4349488
51
79.8611932
0
ARC
8
0
10
389.597136
20
-178.525
40
2
50
243.4349488
51
270
0
ARC
8
0
10
425.225
20
-178.525
40
2
50
270
51
0
0
LINE
8
0
10
143
20
-177
11
157
21
-177
0
LINE
8
0
10
157
20
-177
11
157
21
-163
0
LINE
8
0
10
157
20
-163
11
143
21
-163
0
LINE
8
0
10
143
20
-163
11
143
21
-177
0
LINE
8
0
10
143
20
-157.95
11
157
21
-157.95
0
LINE
8
0
10
157
20
-157.95
11
157
21
-143.95
0
LINE
8
0
10
157
20
-143.95
11
143
21
-143.95
0
LINE
8
0
10
143
20
-143.95
11
143
21
-157.95
0
LINE
8
0
10
143
20
-138.9
11
157
21
-138.9
0
LINE
8
0
10
157
20
-138.9
11
157
21
-124.9
0
LINE
8
0
10
157
20
-124.9
11
143
21
-124.9
0
LINE
8
0
10
143
20
-124.9
11
143
21
-138.9
0
LINE
8
0
10
143
20
-119.85
11
157
21
-119.85
0
LINE
8
0
10
157
20
-119.85
11
157
21
-105.85
0
LINE
8
0
10
157
20
-105.85
11
143
21
-105.85
0
LINE
8
0
10
143
20
-105.85
11
143
21
-119.85
0
LINE
8
0
10
143
20
-100.8
11
157
21
-100.8
0
LINE
8
0
10
157
20
-100.8
11
157
21
-86.8
0
LINE
8
0
10
157
20
-86.8
11
143
21
-86.8
0
LINE
8
0
10
143
20
-86.8
11
143
21
-100.8
0
LINE
8
0
10
162.05
20
-177
11
176.05
21
-177
0
LINE
8
0
10
176.05
20
-177
11
176.05
21
-163
0
LINE
8
0
10
176.05
20
-163
11
162.05
21
-163
0
LINE
8
0
10
162.05
20
-163
11
162.05
21
-177
0
LINE
8
0
10
162.05
20
-157.95
11
176.05
21
-157.95
0
LINE
8
0
10
176.05
20
-157.95
11
176.05
21
-143.95
0
LINE
8
0
10
176.05
20
-143.95
11
162.05
21
-143.95
0
LINE
8
0
10
162.05
20
-143.95
11
162.05
21
-157.95
0
LINE
8
0
10
162.05
20
-138.9
11
176.05
21
-138.9
0
LINE
8
0
10
176.05
20
-138.9
11
176.05
21
-124.9
0
LINE
8
0
10
176.05
20
-124.9
11
162.05
21
-124.9
0
LINE
8
0
10
162.05
20
-124.9
11
162.05
21
-138.9
0
LINE
8
0
10
162.05
20
-119.85
11
176.05
21
-119.85
0
LINE
8
0
10
176.05
20
-119.85
11
176.05
21
-105.85
0
LINE
8
0
10
176.05
20
-105.85
11
162.05
21
-105.85
0
LINE
8
0
10
162.05
20
-105.85
11
162.05
21
-119.85
0
LINE
8
0
10
162.05
20
-100.8
11
176.05
21
-100.8
0
LINE
8
0
10
176.05
20
-100.8
11
176.05
21
-86.8
0
LINE
8
0
10
176.05
20
-86.8
11
162.05
21
-86.8
0
LINE
8
0
10
162.05
20
-86.8
11
162.05
21
-100.8
0
LINE
8
0
10
181.1
20
-167.475
11
195.1
21
-167.475
0
LINE
8
0
10
195.1
20
-167.475
11
195.1
21
-153.475
0
LINE
8
0
10
195.1
20
-153.475
11
181.1
21
-153.475
0
LINE
8
0
10
181.1
20
-153.475
11
181.1
21
-167.475
0
LINE
8
0
10
181.1
20
-148.425
11
195.1
21
-148.425
0
LINE
8
0
10
195.1
20
-148.425
11
195.1
21
-134.425
0
LINE
8
0
10
195.1
20
-134.425
11
181.1
21
-134.425
0
LINE
8
0
10
181.1
20
-134.425
11
181.1
21
-148.425
0
LINE
8
0
10
181.1
20
-129.375
11
195.1
21
-129.375
0
LINE
8
0
10
195.1
20
-129.375
11
195.1
21
-115.375
0
LINE
8
0
10
195.1
20
-115.375
11
181.1
21
-115.375
0
LINE
8
0
10
181.1
20
-115.375
11
181.1
21
-129.375
0
LINE
8
0
10
181.1
20
-110.325
11
195.1
21
-110.325
0
LINE
8
0
10
195.1
20
-110.325
11
195.1
21
-96.325
0
LINE
8
0
10
195.1
20
-96.325
11
181.1
21
-96.325
0
LINE
8
0
10
181.1
20
-96.325
11
181.1
21
-110.325
0
LINE
8
0
10
181.1
20
-91.275
11
195.1
21
-91.275
0
LINE
8
0
10
195.1
20
-91.275
11
195.1
21
-77.275
0
LINE
8
0
10
195.1
20
-77.275
11
181.1
21
-77.275
0
LINE
8
0
10
181.1
20
-77.275
11
181.1
21
-91.275
0
LINE
8
0
10
200.15
20
-162.7125
11
214.15
21
-162.7125
0
LINE
8
0
10
214.15
20
-162.7125
11
214.15
21
-148.7125
0
LINE
8
0
10
214.15
20
-148.7125
11
200.15
21
-148.7125
0
LINE
8
0
10
200.15
20
-148.7125
11
200.15
21
-162.7125
0
LINE
8
0
10
200.15
20
-143.6625
11
214.15
21
-143.6625
0
LINE
8
0
10
214.15
20
-143.6625
11
214.15
21
-129.6625
0
LINE
8
0
10
214.15
20
-129.6625
11
200.15
21
-129.6625
0
LINE
8
0
10
200.15
20
-129.6625
11
200.15
21
-143.6625
0
LINE
8
0
10
200.15
20
-124.6125
11
214.15
21
-124.6125
0
LINE
8
0
10
214.15
20
-124.6125
11
214.15
21
-110.6125
0
LINE
8
0
10
214.15
20
-110.6125
11
200.15
21
-110.6125
0
LINE
8
0
10
200.15
20
-110.6125
11
200.15
21
-124.6125
0
LINE
8
0
10
200.15
20
-105.5625
11
214.15
21
-105.5625
0
LINE
8
0
10
214.15
20
-105.5625
11
214.15
21
-91.5625
0
LINE
8
0
10
214.15
20
-91.5625
11
200.15
21
-91.5625
0
LINE
8
0
10
200.15
20
-91.5625
11
200.15
21
-105.5625
0
LINE
8
0
10
200.15
20
-86.5125
11
214.15
21
-86.5125
0
LINE
8
0
10
214.15
20
-86.5125
11
214.15
21
-72.5125
0
LINE
8
0
10
214.15
20
-72.5125
11
200.15
21
-72.5125
0
LINE
8
0
10
200.15
20
-72.5125
11
200.15
21
-86.5125
0
LINE
8
0
10
219.2
20
-146.04375
11
233.2
21
-146.04375
0
LINE
8
0
10
233.2
20
-146.04375
11
233.2
21
-132.04375
0
LINE
8
0
10
233.2
20
-132.04375
11
219.2
21
-132.04375
0
LINE
8
0
10
219.2
20
-132.04375
11
219.2
21
-146.04375
0
LINE
8
0
10
219.2
20
-126.99375
11
233.2
21
-126.99375
0
LINE
8
0
10
233.2
20
-126.99375
11
233.2
21
-112.99375
0
LINE
8
0
10
233.2
20
-112.99375
11
219.2
21
-112.99375
0
LINE
8
0
10
219.2
20
-112.99375
11
219.2
21
-126.99375
0
LINE
8
0
10
219.2
20
-107.94375
11
233.2
21
-107.94375
0
LINE
8
0
10
233.2
20
-107.94375
11
233.2
21
-93.94375
0
LINE
8
0
10
233.2
20
-93.94375
11
219.2
21
-93.94375
0
LINE
8
0
10
219.2
20
-93.94375
11
219.2
21
-107.94375
0
LINE
8
0
10
219.2
20
-88.89375
11
233.2
21
-88.89375
0
LINE
8
0
10
233.2
20
-88.89375
11
233.2
21
-74.89375
0
LINE
8
0
10
233.2
20
-74.89375
11
219.2
21
-74.89375
0
LINE
8
0
10
219.2
20
-74.89375
11
219.2
21
-88.89375
0
LINE
8
0
10
238.25
20
-148.425
11
252.25
21
-148.425
0
LINE
8
0
10
252.25
20
-148.425
11
252.25
21
-134.425
0
LINE
8
0
10
252.25
20
-134.425
11
238.25
21
-134.425
0
LINE
8
0
10
238.25
20
-134.425
11
238.25
21
-148.425
0
LINE
8
0
10
238.25
20
-129.375
11
252.25
21
-129.375
0
LINE
8
0
10
252.25
20
-129.375
11
252.25
21
-115.375
0
LINE
8
0
10
252.25
20
-115.375
11
238.25
21
-115.375
0
LINE
8
0
10
238.25
20
-115.375
11
238.25
21
-129.375
0
LINE
8
0
10
238.25
20
-110.325
11
252.25
21
-110.325
0
LINE
8
0
10
252.25
20
-110.325
11
252.25
21
-96.325
0
LINE
8
0
10
252.25
20
-96.325
11
238.25
21
-96.325
0
LINE
8
0
10
238.25
20
-96.325
11
238.25
21
-110.325
0
LINE
8
0
10
238.25
20
-91.275
11
252.25
21
-91.275
0
LINE
8
0
10
252.25
20
-91.275
11
252.25
21
-77.275
0
LINE
8
0
10
252.25
20
-77.275
11
238.25
21
-77.275
0
LINE
8
0
10
238.25
20
-77.275
11
238.25
21
-91.275
0
LINE
8
0
10
257.3
20
-138.9
11
271.3
21
-138.9
0
LINE
8
0
10
271.3
20
-138.9
11
271.3
21
-124.9
0
LINE
8
0
10
271.3
20
-124.9
11
257.3
21
-124.9
0
LINE
8
0
10
257.3
20
-124.9
11
257.3
21
-138.9
0
LINE
8
0
10
257.3
20
-119.85
11
271.3
21
-119.85
0
LINE
8
0
10
271.3
20
-119.85
11
271.3
21
-105.85
0
LINE
8
0
10
271.3
20
-105.85
11
257.3
21
-105.85
0
LINE
8
0
10
257.3
20
-105.85
11
257.3
21
-119.85
0
LINE
8
0
10
257.3
20
-100.8
11
271.3
21
-100.8
0
LINE
8
0
10
271.3
20
-100.8
11
271.3
21
-86.8
0
LINE
8
0
10
271.3
20
-86.8
11
257.3
21
-86.8
0
LINE
8
0
10
257.3
20
-86.8
11
257.3
21
-100.8
0
LINE
8
0
10
226.6124669
20
-166.7117908
11
239.5930408
21
-171.9562831
0
LINE
8
0
10
239.5930408
20
-171.9562831
11
244.8375331
21
-158.9757092
0
LINE
8
0
10
244.8375331
20
-158.9757092
11
231.8569592
21
-153.7312169
0
LINE
8
0
10
231.8569592
20
-153.7312169
11
226.6124669
21
-166.7117908
0
LINE
8
0
10
250.4635065
20
-171.2117146
11
263.4440804
21
-176.4562069
0
LINE
8
0
10
263.4440804
20
-176.4562069
11
268.6885727
21
-163.475633
0
LINE
8
0
10
268.6885727
20
-163.475633
11
255.7079988
21
-158.2311407
0
LINE
8
0
10
255.7079988
20
-158.2311407
11
250.4635065
21
-171.2117146
0
LINE
8
0
10
409.7
20
-177
11
423.7
21
-177
0
LINE
8
0
10
423.7
20
-177
11
423.7
21
-163
0
LINE
8
0
10
423.7
20
-163
11
409.7
21
-163
0
LINE
8
0
10
409.7
20
-163
11
409.7
21
-177
0
LINE
8
0
10
409.7
20
-157.95
11
423.7
21
-157.95
0
LINE
8
0
10
423.7
20
-157.95
11
423.7
21
-143.95
0
LINE
8
0
10
423.7
20
-143.95
11
409.7
21
-143.95
0
LINE
8
0
10
409.7
20
-143.95
11
409.7
21
-157.95
0
LINE
8
0
10
409.7
20
-138.9
11
423.7
21
-138.9
0
LINE
8
0
10
423.7
20
-138.9
11
423.7
21
-124.9
0
LINE
8
0
10
423.7
20
-124.9
11
409.7
21
-124.9
0
LINE
8
0
10
409.7
20
-124.9
11
409.7
21
-138.9
0
LINE
8
0
10
409.7
20
-119.85
11
423.7
21
-119.85
0
LINE
8
0
10
423.7
20
-119.85
11
423.7
21
-105.85
0
LINE
8
0
10
423.7
20
-105.85
11
409.7
21
-105.85
0
LINE
8
0
10
409.7
20
-105.85
11
409.7
21
-119.85
0
LINE
8
0
10
409.7
20
-100.8
11
423.7
21
-100.8
0
LINE
8
0
10
423.7
20
-100.8
11
423.7
21
-86.8
0
LINE
8
0
10
423.7
20
-86.8
11
409.7
21
-86.8
0
LINE
8
0
10
409.7
20
-86.8
11
409.7
21
-100.8
0
LINE
8
0
10
390.65
20
-177
11
404.65
21
-177
0
LINE
8
0
10
404.65
20
-177
11
404.65
21
-163
0
LINE
8
0
10
404.65
20
-163
11
390.65
21
-163
0
LINE
8
0
10
390.65
20
-163
11
390.65
21
-177
0
LINE
8
0
10
390.65
20
-157.95
11
404.65
21
-157.95
0
LINE
8
0
10
404.65
20
-157.95
11
404.65
21
-143.95
0
LINE
8
0
10
404.65
20
-143.95
11
390.65
21
-143.95
0
LINE
8
0
10
390.65
20
-143.95
11
390.65
21
-157.95
0
LINE
8
0
10
390.65
20
-138.9
11
404.65
21
-138.9
0
LINE
8
0
10
404.65
20
-138.9
11
404.65
21
-124.9
0
LINE
8
0
10
404.65
20
-124.9
11
390.65
21
-124.9
0
LINE
8
0
10
390.65
20
-124.9
11
390.65
21
-138.9
0
LINE
8
0
10
390.65
20
-119.85
11
404.65
21
-119.85
0
LINE
8
0
10
404.65
20
-119.85
11
404.65
21
-105.85
0
LINE
8
0
10
404.65
20
-105.85
11
390.65
21
-105.85
0
LINE
8
0
10
390.65
20
-105.85
11
390.65
21
-119.85
0
LINE
8
0
10
390.65
20
-100.8
11
404.65
21
-100.8
0
LINE
8
0
10
404.65
20
-100.8
11
404.65
21
-86.8
0
LINE
8
0
10
404.65
20
-86.8
11
390.65
21
-86.8
0
LINE
8
0
10
390.65
20
-86.8
11
390.65
21
-100.8
0
LINE
8
0
10
371.6
20
-167.475
11
385.6
21
-167.475
0
LINE
8
0
10
385.6
20
-167.475
11
385.6
21
-153.475
0
LINE
8
0
10
385.6
20
-153.475
11
371.6
21
-153.475
0
LINE
8
0
10
371.6
20
-153.475
11
371.6
21
-167.475
0
LINE
8
0
10
371.6
20
-148.425
11
385.6
21
-148.425
0
LINE
8
0
10
385.6
20
-148.425
11
385.6
21
-134.425
0
LINE
8
0
10
385.6
20
-134.425
11
371.6
21
-134.425
0
LINE
8
0
10
371.6
20
-134.425
11
371.6
21
-148.425
0
LINE
8
0
10
371.6
20
-129.375
11
385.6
21
-129.375
0
LINE
8
0
10
385.6
20
-129.375
11
385.6
21
-115.375
0
LINE
8
0
10
385.6
20
-115.375
11
371.6
21
-115.375
0
LINE
8
0
10
371.6
20
-115.375
11
371.6
21
-129.375
0
LINE
8
0
10
371.6
20
-110.325
11
385.6
21
-110.325
0
LINE
8
0
10
385.6
20
-110.325
11
385.6
21
-96.325
0
LINE
8
0
10
385.6
20
-96.325
11
371.6
21
-96.325
0
LINE
8
0
10
371.6
20
-96.325
11
371.6
21
-110.325
0
LINE
8
0
10
371.6
20
-91.275
11
385.6
21
-91.275
0
LINE
8
0
10
385.6
20
-91.275
11
385.6
21
-77.275
0
LINE
8
0
10
385.6
20
-77.275
11
371.6
21
-77.275
0
LINE
8
0
10
371.6
20
-77.275
11
371.6
21
-91.275
0
LINE
8
0
10
352.55
20
-162.7125
11
366.55
21
-162.7125
0
LINE
8
0
10
366.55
20
-162.7125
11
366.55
21
-148.7125
0
LINE
8
0
10
366.55
20
-148.7125
11
352.55
21
-148.7125
0
LINE
8
0
10
352.55
20
-148.7125
11
352.55
21
-162.7125
0
LINE
8
0
10
352.55
20
-143.6625
11
366.55
21
-143.6625
0
LINE
8
0
10
366.55
20
-143.6625
11
366.55
21
-129.6625
0
LINE
8
0
10
366.55
20
-129.6625
11
352.55
21
-129.6625
0
LINE
8
0
10
352.55
20
-129.6625
11
352.55
21
-143.6625
0
LINE
8
0
10
352.55
20
-124.6125
11
366.55
21
-124.6125
0
LINE
8
0
10
366.55
20
-124.6125
11
366.55
21
-110.6125
0
LINE
8
0
10
366.55
20
-110.6125
11
352.55
21
-110.6125
0
LINE
8
0
10
352.55
20
-110.6125
11
352.55
21
-124.6125
0
LINE
8
0
10
352.55
20
-105.5625
11
366.55
21
-105.5625
0
LINE
8
0
10
366.55
20
-105.5625
11
366.55
21
-91.5625
0
LINE
8
0
10
366.55
20
-91.5625
11
352.55
21
-91.5625
0
LINE
8
0
10
352.55
20
-91.5625
11
352.55
21
-105.5625
0
LINE
8
0
10
352.55
20
-86.5125
11
366.55
21
-86.5125
0
LINE
8
0
10
366.55
20
-86.5125
11
366.55
21
-72.5125
0
LINE
8
0
10
366.55
20
-72.5125
11
352.55
21
-72.5125
0
LINE
8
0
10
352.55
20
-72.5125
11
352.55
21
-86.5125
0
LINE
8
0
10
333.5
20
-146.04375
11
347.5
21
-146.04375
0
LINE
8
0
10
347.5
20
-146.04375
11
347.5
21
-132.04375
0
LINE
8
0
10
347.5
20
-132.04375
11
333.5
21
-132.04375
0
LINE
8
0
10
333.5
20
-132.04375
11
333.5
21
-146.04375
0
LINE
8
0
10
333.5
20
-126.99375
11
347.5
21
-126.99375
0
LINE
8
0
10
347.5
20
-126.99375
11
347.5
21
-112.99375
0
LINE
8
0
10
347.5
20
-112.99375
11
333.5
21
-112.99375
0
LINE
8
0
10
333.5
20
-112.99375
11
333.5
21
-126.99375
0
LINE
8
0
10
333.5
20
-107.94375
11
347.5
21
-107.94375
0
LINE
8
0
10
347.5
20
-107.94375
11
347.5
21
-93.94375
0
LINE
8
0
10
347.5
20
-93.94375
11
333.5
21
-93.94375
0
LINE
8
0
10
333.5
20
-93.94375
11
333.5
21
-107.94375
0
LINE
8
0
10
333.5
20
-88.89375
11
347.5
21
-88.89375
0
LINE
8
0
10
347.5
20
-88.89375
11
347.5
21
-74.89375
0
LINE
8
0
10
347.5
20
-74.89375
11
333.5
21
-74.89375
0
LINE
8
0
10
333.5
20
-74.89375
11
333.5
21
-88.89375
0
LINE
8
0
10
314.45
20
-148.425
11
328.45
21
-148.425
0
LINE
8
0
10
328.45
20
-148.425
11
328.45
21
-134.425
0
LINE
8
0
10
328.45
20
-134.425
11
314.45
21
-134.425
0
LINE
8
0
10
314.45
20
-134.425
11
314.45
21
-148.425
0
LINE
8
0
10
314.45
20
-129.375
11
328.45
21
-129.375
0
LINE
8
0
10
328.45
20
-129.375
11
328.45
21
-115.375
0
LINE
8
0
10
328.45
20
-115.375
11
314.45
21
-115.375
0
LINE
8
0
10
314.45
20
-115.375
11
314.45
21
-129.375
0
LINE
8
0
10
314.45
20
-110.325
11
328.45
21
-110.325
0
LINE
8
0
10
328.45
20
-110.325
11
328.45
21
-96.325
0
LINE
8
0
10
328.45
20
-96.325
11
314.45
21
-96.325
0
LINE
8
0
10
314.45
20
-96.325
11
314.45
21
-110.325
0
LINE
8
0
10
314.45
20
-91.275
11
328.45
21
-91.275
0
LINE
8
0
10
328.45
20
-91.275
11
328.45
21
-77.275
0
LINE
8
0
10
328.45
20
-77.275
11
314.45
21
-77.275
0
LINE
8
0
10
314.45
20
-77.275
11
314.45
21
-91.275
0
LINE
8
0
10
295.4
20
-138.9
11
309.4
21
-138.9
0
LINE
8
0
10
309.4
20
-138.9
11
309.4
21
-124.9
0
LINE
8
0
10
309.4
20
-124.9
11
295.4
21
-124.9
0
LINE
8
0
10
295.4
20
-124.9
11
295.4
21
-138.9
0
LINE
8
0
10
295.4
20
-119.85
11
309.4
21
-119.85
0
LINE
8
0
10
309.4
20
-119.85
11
309.4
21
-105.85
0
LINE
8
0
10
309.4
20
-105.85
11
295.4
21
-105.85
0
LINE
8
0
10
295.4
20
-105.85
11
295.4
21
-119.85
0
LINE
8
0
10
295.4
20
-100.8
11
309.4
21
-100.8
0
LINE
8
0
10
309.4
20
-100.8
11
309.4
21
-86.8
0
LINE
8
0
10
309.4
20
-86.8
11
295.4
21
-86.8
0
LINE
8
0
10
295.4
20
-86.8
11
295.4
21
-100.8
0
LINE
8
0
10
327.1069592
20
-171.9562831
11
340.0875331
21
-166.7117908
0
LINE
8
0
10
340.0875331
20
-166.7117908
11
334.8430408
21
-153.7312169
0
LINE
8
0
10
334.8430408
20
-153.7312169
11
321.8624669
21
-158.9757092
0
LINE
8
0
10
321.8624669
20
-158.9757092
11
327.1069592
21
-171.9562831
0
LINE
8
0
10
303.2559196
20
-176.4562069
11
316.2364935
21
-171.2117146
0
LINE
8
0
10
316.2364935
20
-171.2117146
11
310.9920012
21
-158.2311407
0
LINE
8
0
10
310.9920012
20
-158.2311407
11
298.0114273
21
-163.475633
0
LINE
8
0
10
298.0114273
20
-163.475633
11
303.2559196
21
-176.4562069
0
ENDSEC
0
EOF