0
SECTION
2
HEADER
9
$INSUNITS
70
4
0
ENDSEC
0
SECTION
2
TABLES
0
TABLE
2
LTYPE
0
LTYPE
72
65
70
64
2
CONTINUOUS
3
______
73
0
40
0
0
ENDTAB
0
TABLE
2
LAYER
0
ENDTAB
0
ENDSEC
0
SECTION
2
ENTITIES
0
LINE
8
0
10
139.475
20
-178.525
11
139.475
21
-84.7539267
0
LINE
8
0
10
140.8890262
20
-82.8416938
11
185.813586
21
-69.0752671
0
LINE
8
0
10
186.3995597
20
-68.9875
11
243.6503253
21
-68.9875
0
LINE
8
0
10
244.4934625
20
-69.173907
11
273.6681372
21
-82.737176
0
LINE
8
0
10
274.825
20
-84.550769
11
274.825
21
-157.0895633
0
LINE
8
0
10
274.6817585
20
-157.8328316
11
264.4565358
21
-183.3764592
0
LINE
8
0
10
261.8599765
20
-184.4913337
11
217.8387741
21
-166.9647362
0
LINE
8
0
10
216.4388051
20
-166.934976
11
177.8955669
21
-180.4129031
0
LINE
8
0
10
177.2353987
20
-180.525
11
141.475
21
-180.525
0
ARC
8
0
10
141.475
20
-84.7539267
40
2
50
107.0368615
51
180
0
ARC
8
0
10
186.3995597
20
-70.9875
40
2
50
90
51
107.0368615
0
ARC
8
0
10
243.6503253
20
-70.9875
40
2
50
65.0663403
51
90
0
ARC
8
0
10
272.825
20
-84.550769
40
2
50
0
51
65.0663403
0
ARC
8
0
10
272.825
20
-157.0895633
40
2
50
338.1835632
51
0
0
ARC
8
0
10
262.5997773
20
-182.6331909
40
2
50
248.2905249
51
338.1835632
0
ARC
8
0
10
217.0989733
20
-168.822879
40
2
50
68.2905249
51
109.2738806
0
ARC
8
0
10
177.2353987
20
-178.525
40
2
50
270
51
289.2738806
0
ARC
8
0
10
141.475
20
-178.525
40
2
50
180
51
270
0
LINE
8
0
10
446.275
20
-178.525
11
446.275
21
-84.7539267
0
LINE
8
0
10
444.8609738
20
-82.8416938
11
399.936414
21
-69.0752671
0
LINE
8
0
10
399.3504403
20
-68.9875
11
342.0996747
21
-68.9875
0
LINE
8
0
10
341.2565375
20
-69.173907
11
312.0818628
21
-82.737176
0
LINE
8
0
10
310.925
20
-84.550769
11
310.925
21
-157.0895633
0
LINE
8
0
10
311.0682415
20
-157.8328316
11
321.2934642
21
-183.3764592
0
LINE
8
0
10
323.8900235
20
-184.4913337
11
367.9112259
21
-166.9647362
0
LINE
8
0
10
369.3111949
20
-166.934976
11
407.8544331
21
-180.4129031
0
LINE
8
0
10
408.5146013
20
-180.525
11
444.275
21
-180.525
0
ARC
8
0
10
444.275
20
-84.7539267
40
2
50
0
51
72.9631385
0
ARC
8
0
10
399.3504403
20
-70.9875
40
2
50
72.9631385
51
90
0
ARC
8
0
10
342.0996747
20
-70.9875
40
2
50
90
51
114.9336597
0
ARC
8
0
10
312.925
20
-84.550769
40
2
50
114.9336597
51
180
0
ARC
8
0
10
312.925
20
-157.0895633
40
2
50
180
51
201.8164368
0
ARC
8
0
10
323.1502227
20
-182.6331909
40
2
50
201.8164368
51
291.7094751
0
ARC
8
0
10
368.6510267
20
-168.822879
40
2
50
70.7261194
51
111.7094751
0
ARC
8
0
10
408.5146013
20
-178.525
40
2
50
250.7261194
51
270
0
ARC
8
0
10
444.275
20
-178.525
40
2
50
270
51
0
0
LINE
8
0
10
143
20
-177
11
157
21
-177
0
LINE
8
0
10
157
20
-177
11
157
21
-163
0
LINE
8
0
10
157
20
-163
11
143
21
-163
0
LINE
8
0
10
143
20
-163
11
143
21
-177
0
LINE
8
0
10
143
20
-157.95
11
157
21
-157.95
0
LINE
8
0
10
157
20
-157.95
11
157
21
-143.95
0
LINE
8
0
10
157
20
-143.95
11
143
21
-143.95
0
LINE
8
0
10
143
20
-143.95
11
143
21
-157.95
0
LINE
8
0
10
143
20
-138.9
11
157
21
-138.9
0
LINE
8
0
10
157
20
-138.9
11
157
21
-124.9
0
LINE
8
0
10
157
20
-124.9
11
143
21
-124.9
0
LINE
8
0
10
143
20
-124.9
11
143
21
-138.9
0
LINE
8
0
10
143
20
-119.85
11
157
21
-119.85
0
LINE
8
0
10
157
20
-119.85
11
157
21
-105.85
0
LINE
8
0
10
157
20
-105.85
11
143
21
-105.85
0
LINE
8
0
10
143
20
-105.85
11
143
21
-119.85
0
LINE
8
0
10
143
20
-100.8
11
157
21
-100.8
0
LINE
8
0
10
157
20
-100.8
11
157
21
-86.8
0
LINE
8
0
10
157
20
-86.8
11
143
21
-86.8
0
LINE
8
0
10
143
20
-86.8
11
143
21
-100.8
0
LINE
8
0
10
162.05
20
-177
11
176.05
21
-177
0
LINE
8
0
10
176.05
20
-177
11
176.05
21
-163
0
LINE
8
0
10
176.05
20
-163
11
162.05
21
-163
0
LINE
8
0
10
162.05
20
-163
11
162.05
21
-177
0
LINE
8
0
10
162.05
20
-157.95
11
176.05
21
-157.95
0
LINE
8
0
10
176.05
20
-157.95
11
176.05
21
-143.95
0
LINE
8
0
10
176.05
20
-143.95
11
162.05
21
-143.95
0
LINE
8
0
10
162.05
20
-143.95
11
162.05
21
-157.95
0
LINE
8
0
10
162.05
20
-138.9
11
176.05
21
-138.9
0
LINE
8
0
10
176.05
20
-138.9
11
176.05
21
-124.9
0
LINE
8
0
10
176.05
20
-124.9
11
162.05
21
-124.9
0
LINE
8
0
10
162.05
20
-124.9
11
162.05
21
-138.9
0
LINE
8
0
10
162.05
20
-119.85
11
176.05
21
-119.85
0
LINE
8
0
10
176.05
20
-119.85
11
176.05
21
-105.85
0
LINE
8
0
10
176.05
20
-105.85
11
162.05
21
-105.85
0
LINE
8
0
10
162.05
20
-105.85
11
162.05
21
-119.85
0
LINE
8
0
10
162.05
20
-100.8
11
176.05
21
-100.8
0
LINE
8
0
10
176.05
20
-100.8
11
176.05
21
-86.8
0
LINE
8
0
10
176.05
20
-86.8
11
162.05
21
-86.8
0
LINE
8
0
10
162.05
20
-86.8
11
162.05
21
-100.8
0
LINE
8
0
10
181.1
20
-167.475
11
195.1
21
-167.475
0
LINE
8
0
10
195.1
20
-167.475
11
195.1
21
-153.475
0
LINE
8
0
10
195.1
20
-153.475
11
181.1
21
-153.475
0
LINE
8
0
10
181.1
20
-153.475
11
181.1
21
-167.475
0
LINE
8
0
10
181.1
20
-148.425
11
195.1
21
-148.425
0
LINE
8
0
10
195.1
20
-148.425
11
195.1
21
-134.425
0
LINE
8
0
10
195.1
20
-134.425
11
181.1
21
-134.425
0
LINE
8
0
10
181.1
20
-134.425
11
181.1
21
-148.425
0
LINE
8
0
10
181.1
20
-129.375
11
195.1
21
-129.375
0
LINE
8
0
10
195.1
20
-129.375
11
195.1
21
-115.375
0
LINE
8
0
10
195.1
20
-115.375
11
181.1
21
-115.375
0
LINE
8
0
10
181.1
20
-115.375
11
181.1
21
-129.375
0
LINE
8
0
10
181.1
20
-110.325
11
195.1
21
-110.325
0
LINE
8
0
10
195.1
20
-110.325
11
195.1
21
-96.325
0
LINE
8
0
10
195.1
20
-96.325
11
181.1
21
-96.325
0
LINE
8
0
10
181.1
20
-96.325
11
181.1
21
-110.325
0
LINE
8
0
10
181.1
20
-91.275
11
195.1
21
-91.275
0
LINE
8
0
10
195.1
20
-91.275
11
195.1
21
-77.275
0
LINE
8
0
10
195.1
20
-77.275
11
181.1
21
-77.275
0
LINE
8
0
10
181.1
20
-77.275
11
181.1
21
-91.275
0
LINE
8
0
10
200.15
20
-162.7125
11
214.15
21
-162.7125
0
LINE
8
0
10
214.15
20
-162.7125
11
214.15
21
-148.7125
0
LINE
8
0
10
214.15
20
-148.7125
11
200.15
21
-148.7125
0
LINE
8
0
10
200.15
20
-148.7125
11
200.15
21
-162.7125
0
LINE
8
0
10
200.15
20
-143.6625
11
214.15
21
-143.6625
0
LINE
8
0
10
214.15
20
-143.6625
11
214.15
21
-129.6625
0
LINE
8
0
10
214.15
20
-129.6625
11
200.15
21
-129.6625
0
LINE
8
0
10
200.15
20
-129.6625
11
200.15
21
-143.6625
0
LINE
8
0
10
200.15
20
-124.6125
11
214.15
21
-124.6125
0
LINE
8
0
10
214.15
20
-124.6125
11
214.15
21
-110.6125
0
LINE
8
0
10
214.15
20
-110.6125
11
200.15
21
-110.6125
0
LINE
8
0
10
200.15
20
-110.6125
11
200.15
21
-124.6125
0
LINE
8
0
10
200.15
20
-105.5625
11
214.15
21
-105.5625
0
LINE
8
0
10
214.15
20
-105.5625
11
214.15
21
-91.5625
0
LINE
8
0
10
214.15
20
-91.5625
11
200.15
21
-91.5625
0
LINE
8
0
10
200.15
20
-91.5625
11
200.15
21
-105.5625
0
LINE
8
0
10
200.15
20
-86.5125
11
214.15
21
-86.5125
0
LINE
8
0
10
214.15
20
-86.5125
11
214.15
21
-72.5125
0
LINE
8
0
10
214.15
20
-72.5125
11
200.15
21
-72.5125
0
LINE
8
0
10
200.15
20
-72.5125
11
200.15
21
-86.5125
0
LINE
8
0
10
219.2
20
-146.04375
11
233.2
21
-146.04375
0
LINE
8
0
10
233.2
20
-146.04375
11
233.2
21
-132.04375
0
LINE
8
0
10
233.2
20
-132.04375
11
219.2
21
-132.04375
0
LINE
8
0
10
219.2
20
-132.04375
11
219.2
21
-146.04375
0
LINE
8
0
10
219.2
20
-126.99375
11
233.2
21
-126.99375
0
LINE
8
0
10
233.2
20
-126.99375
11
233.2
21
-112.99375
0
LINE
8
0
10
233.2
20
-112.99375
11
219.2
21
-112.99375
0
LINE
8
0
10
219.2
20
-112.99375
11
219.2
21
-126.99375
0
LINE
8
0
10
219.2
20
-107.94375
11
233.2
21
-107.94375
0
LINE
8
0
10
233.2
20
-107.94375
11
233.2
21
-93.94375
0
LINE
8
0
10
233.2
20
-93.94375
11
219.2
21
-93.94375
0
LINE
8
0
10
219.2
20
-93.94375
11
219.2
21
-107.94375
0
LINE
8
0
10
219.2
20
-88.89375
11
233.2
21
-88.89375
0
LINE
8
0
10
233.2
20
-88.89375
11
233.2
21
-74.89375
0
LINE
8
0
10
233.2
20
-74.89375
11
219.2
21
-74.89375
0
LINE
8
0
10
219.2
20
-74.89375
11
219.2
21
-88.89375
0
LINE
8
0
10
238.25
20
-148.425
11
252.25
21
-148.425
0
LINE
8
0
10
252.25
20
-148.425
11
252.25
21
-134.425
0
LINE
8
0
10
252.25
20
-134.425
11
238.25
21
-134.425
0
LINE
8
0
10
238.25
20
-134.425
11
238.25
21
-148.425
0
LINE
8
0
10
238.25
20
-129.375
11
252.25
21
-129.375
0
LINE
8
0
10
252.25
20
-129.375
11
252.25
21
-115.375
0
LINE
8
0
10
252.25
20
-115.375
11
238.25
21
-115.375
0
LINE
8
0
10
238.25
20
-115.375
11
238.25
21
-129.375
0
LINE
8
0
10
238.25
20
-110.325
11
252.25
21
-110.325
0
LINE
8
0
10
252.25
20
-110.325
11
252.25
21
-96.325
0
LINE
8
0
10
252.25
20
-96.325
11
238.25
21
-96.325
0
LINE
8
0
10
238.25
20
-96.325
11
238.25
21
-110.325
0
LINE
8
0
10
238.25
20
-91.275
11
252.25
21
-91.275
0
LINE
8
0
10
252.25
20
-91.275
11
252.25
21
-77.275
0
LINE
8
0
10
252.25
20
-77.275
11
238.25
21
-77.275
0
LINE
8
0
10
238.25
20
-77.275
11
238.25
21
-91.275
0
LINE
8
0
10
257.3
20
-138.9
11
271.3
21
-138.9
0
LINE
8
0
10
271.3
20
-138.9
11
271.3
21
-124.9
0
LINE
8
0
10
271.3
20
-124.9
11
257.3
21
-124.9
0
LINE
8
0
10
257.3
20
-124.9
11
257.3
21
-138.9
0
LINE
8
0
10
257.3
20
-119.85
11
271.3
21
-119.85
0
LINE
8
0
10
271.3
20
-119.85
11
271.3
21
-105.85
0
LINE
8
0
10
271.3
20
-105.85
11
257.3
21
-105.85
0
LINE
8
0
10
257.3
20
-105.85
11
257.3
21
-119.85
0
LINE
8
0
10
257.3
20
-100.8
11
271.3
21
-100.8
0
LINE
8
0
10
271.3
20
-100.8
11
271.3
21
-86.8
0
LINE
8
0
10
271.3
20
-86.8
11
257.3
21
-86.8
0
LINE
8
0
10
257.3
20
-86.8
11
257.3
21
-100.8
0
LINE
8
0
10
226.6124669
20
-166.7117908
11
239.5930408
21
-171.9562831
0
LINE
8
0
10
239.5930408
20
-171.9562831
11
244.8375331
21
-158.9757092
0
LINE
8
0
10
244.8375331
20
-158.9757092
11
231.8569592
21
-153.7312169
0
LINE
8
0
10
231.8569592
20
-153.7312169
11
226.6124669
21
-166.7117908
0
LINE
8
0
10
250.4750963
20
-171.2163972
11
263.4556702
21
-176.4608895
0
LINE
8
0
10
263.4556702
20
-176.4608895
11
268.7001625
21
-163.4803156
0
LINE
8
0
10
268.7001625
20
-163.4803156
11
255.7195886
21
-158.2358233
0
LINE
8
0
10
255.7195886
20
-158.2358233
11
250.4750963
21
-171.2163972
0
LINE
8
0
10
428.75
20
-177
11
442.75
21
-177
0
LINE
8
0
10
442.75
20
-177
11
442.75
21
-163
0
LINE
8
0
10
442.75
20
-163
11
428.75
21
-163
0
LINE
8
0
10
428.75
20
-163
11
428.75
21
-177
0
LINE
8
0
10
428.75
20
-157.95
11
442.75
21
-157.95
0
LINE
8
0
10
442.75
20
-157.95
11
442.75
21
-143.95
0
LINE
8
0
10
442.75
20
-143.95
11
428.75
21
-143.95
0
LINE
8
0
10
428.75
20
-143.95
11
428.75
21
-157.95
0
LINE
8
0
10
428.75
20
-138.9
11
442.75
21
-138.9
0
LINE
8
0
10
442.75
20
-138.9
11
442.75
21
-124.9
0
LINE
8
0
10
442.75
20
-124.9
11
428.75
21
-124.9
0
LINE
8
0
10
428.75
20
-124.9
11
428.75
21
-138.9
0
LINE
8
0
10
428.75
20
-119.85
11
442.75
21
-119.85
0
LINE
8
0
10
442.75
20
-119.85
11
442.75
21
-105.85
0
LINE
8
0
10
442.75
20
-105.85
11
428.75
21
-105.85
0
LINE
8
0
10
428.75
20
-105.85
11
428.75
21
-119.85
0
LINE
8
0
10
428.75
20
-100.8
11
442.75
21
-100.8
0
LINE
8
0
10
442.75
20
-100.8
11
442.75
21
-86.8
0
LINE
8
0
10
442.75
20
-86.8
11
428.75
21
-86.8
0
LINE
8
0
10
428.75
20
-86.8
11
428.75
21
-100.8
0
LINE
8
0
10
409.7
20
-177
11
423.7
21
-177
0
LINE
8
0
10
423.7
20
-177
11
423.7
21
-163
0
LINE
8
0
10
423.7
20
-163
11
409.7
21
-163
0
LINE
8
0
10
409.7
20
-163
11
409.7
21
-177
0
LINE
8
0
10
409.7
20
-157.95
11
423.7
21
-157.95
0
LINE
8
0
10
423.7
20
-157.95
11
423.7
21
-143.95
0
LINE
8
0
10
423.7
20
-143.95
11
409.7
21
-143.95
0
LINE
8
0
10
409.7
20
-143.95
11
409.7
21
-157.95
0
LINE
8
0
10
409.7
20
-138.9
11
423.7
21
-138.9
0
LINE
8
0
10
423.7
20
-138.9
11
423.7
21
-124.9
0
LINE
8
0
10
423.7
20
-124.9
11
409.7
21
-124.9
0
LINE
8
0
10
409.7
20
-124.9
11
409.7
21
-138.9
0
LINE
8
0
10
409.7
20
-119.85
11
423.7
21
-119.85
0
LINE
8
0
10
423.7
20
-119.85
11
423.7
21
-105.85
0
LINE
8
0
10
423.7
20
-105.85
11
409.7
21
-105.85
0
LINE
8
0
10
409.7
20
-105.85
11
409.7
21
-119.85
0
LINE
8
0
10
409.7
20
-100.8
11
423.7
21
-100.8
0
LINE
8
0
10
423.7
20
-100.8
11
423.7
21
-86.8
0
LINE
8
0
10
423.7
20
-86.8
11
409.7
21
-86.8
0
LINE
8
0
10
409.7
20
-86.8
11
409.7
21
-100.8
0
LINE
8
0
10
390.65
20
-167.475
11
404.65
21
-167.475
0
LINE
8
0
10
404.65
20
-167.475
11
404.65
21
-153.475
0
LINE
8
0
10
404.65
20
-153.475
11
390.65
21
-153.475
0
LINE
8
0
10
390.65
20
-153.475
11
390.65
21
-167.475
0
LINE
8
0
10
390.65
20
-148.425
11
404.65
21
-148.425
0
LINE
8
0
10
404.65
20
-148.425
11
404.65
21
-134.425
0
LINE
8
0
10
404.65
20
-134.425
11
390.65
21
-134.425
0
LINE
8
0
10
390.65
20
-134.425
11
390.65
21
-148.425
0
LINE
8
0
10
390.65
20
-129.375
11
404.65
21
-129.375
0
LINE
8
0
10
404.65
20
-129.375
11
404.65
21
-115.375
0
LINE
8
0
10
404.65
20
-115.375
11
390.65
21
-115.375
0
LINE
8
0
10
390.65
20
-115.375
11
390.65
21
-129.375
0
LINE
8
0
10
390.65
20
-110.325
11
404.65
21
-110.325
0
LINE
8
0
10
404.65
20
-110.325
11
404.65
21
-96.325
0
LINE
8
0
10
404.65
20
-96.325
11
390.65
21
-96.325
0
LINE
8
0
10
390.65
20
-96.325
11
390.65
21
-110.325
0
LINE
8
0
10
390.65
20
-91.275
11
404.65
21
-91.275
0
LINE
8
0
10
404.65
20
-91.275
11
404.65
21
-77.275
0
LINE
8
0
10
404.65
20
-77.275
11
390.65
21
-77.275
0
LINE
8
0
10
390.65
20
-77.275
11
390.65
21
-91.275
0
LINE
8
0
10
371.6
20
-162.7125
11
385.6
21
-162.7125
0
LINE
8
0
10
385.6
20
-162.7125
11
385.6
21
-148.7125
0
LINE
8
0
10
385.6
20
-148.7125
11
371.6
21
-148.7125
0
LINE
8
0
10
371.6
20
-148.7125
11
371.6
21
-162.7125
0
LINE
8
0
10
371.6
20
-143.6625
11
385.6
21
-143.6625
0
LINE
8
0
10
385.6
20
-143.6625
11
385.6
21
-129.6625
0
LINE
8
0
10
385.6
20
-129.6625
11
371.6
21
-129.6625
0
LINE
8
0
10
371.6
20
-129.6625
11
371.6
21
-143.6625
0
LINE
8
0
10
371.6
20
-124.6125
11
385.6
21
-124.6125
0
LINE
8
0
10
385.6
20
-124.6125
11
385.6
21
-110.6125
0
LINE
8
0
10
385.6
20
-110.6125
11
371.6
21
-110.6125
0
LINE
8
0
10
371.6
20
-110.6125
11
371.6
21
-124.6125
0
LINE
8
0
10
371.6
20
-105.5625
11
385.6
21
-105.5625
0
LINE
8
0
10
385.6
20
-105.5625
11
385.6
21
-91.5625
0
LINE
8
0
10
385.6
20
-91.5625
11
371.6
21
-91.5625
0
LINE
8
0
10
371.6
20
-91.5625
11
371.6
21
-105.5625
0
LINE
8
0
10
371.6
20
-86.5125
11
385.6
21
-86.5125
0
LINE
8
0
10
385.6
20
-86.5125
11
385.6
21
-72.5125
0
LINE
8
0
10
385.6
20
-72.5125
11
371.6
21
-72.5125
0
LINE
8
0
10
371.6
20
-72.5125
11
371.6
21
-86.5125
0
LINE
8
0
10
352.55
20
-146.04375
11
366.55
21
-146.04375
0
LINE
8
0
10
366.55
20
-146.04375
11
366.55
21
-132.04375
0
LINE
8
0
10
366.55
20
-132.04375
11
352.55
21
-132.04375
0
LINE
8
0
10
352.55
20
-132.04375
11
352.55
21
-146.04375
0
LINE
8
0
10
352.55
20
-126.99375
11
366.55
21
-126.99375
0
LINE
8
0
10
366.55
20
-126.99375
11
366.55
21
-112.99375
0
LINE
8
0
10
366.55
20
-112.99375
11
352.55
21
-112.99375
0
LINE
8
0
10
352.55
20
-112.99375
11
352.55
21
-126.99375
0
LINE
8
0
10
352.55
20
-107.94375
11
366.55
21
-107.94375
0
LINE
8
0
10
366.55
20
-107.94375
11
366.55
21
-93.94375
0
LINE
8
0
10
366.55
20
-93.94375
11
352.55
21
-93.94375
0
LINE
8
0
10
352.55
20
-93.94375
11
352.55
21
-107.94375
0
LINE
8
0
10
352.55
20
-88.89375
11
366.55
21
-88.89375
0
LINE
8
0
10
366.55
20
-88.89375
11
366.55
21
-74.89375
0
LINE
8
0
10
366.55
20
-74.89375
11
352.55
21
-74.89375
0
LINE
8
0
10
352.55
20
-74.89375
11
352.55
21
-88.89375
0
LINE
8
0
10
333.5
20
-148.425
11
347.5
21
-148.425
0
LINE
8
0
10
347.5
20
-148.425
11
347.5
21
-134.425
0
LINE
8
0
10
347.5
20
-134.425
11
333.5
21
-134.425
0
LINE
8
0
10
333.5
20
-134.425
11
333.5
21
-148.425
0
LINE
8
0
10
333.5
20
-129.375
11
347.5
21
-129.375
0
LINE
8
0
10
347.5
20
-129.375
11
347.5
21
-115.375
0
LINE
8
0
10
347.5
20
-115.375
11
333.5
21
-115.375
0
LINE
8
0
10
333.5
20
-115.375
11
333.5
21
-129.375
0
LINE
8
0
10
333.5
20
-110.325
11
347.5
21
-110.325
0
LINE
8
0
10
347.5
20
-110.325
11
347.5
21
-96.325
0
LINE
8
0
10
347.5
20
-96.325
11
333.5
21
-96.325
0
LINE
8
0
10
333.5
20
-96.325
11
333.5
21
-110.325
0
LINE
8
0
10
333.5
20
-91.275
11
347.5
21
-91.275
0
LINE
8
0
10
347.5
20
-91.275
11
347.5
21
-77.275
0
LINE
8
0
10
347.5
20
-77.275
11
333.5
21
-77.275
0
LINE
8
0
10
333.5
20
-77.275
11
333.5
21
-91.275
0
LINE
8
0
10
314.45
20
-138.9
11
328.45
21
-138.9
0
LINE
8
0
10
328.45
20
-138.9
11
328.45
21
-124.9
0
LINE
8
0
10
328.45
20
-124.9
11
314.45
21
-124.9
0
LINE
8
0
10
314.45
20
-124.9
11
314.45
21
-138.9
0
LINE
8
0
10
314.45
20
-119.85
11
328.45
21
-119.85
0
LINE
8
0
10
328.45
20
-119.85
11
328.45
21
-105.85
0
LINE
8
0
10
328.45
20
-105.85
11
314.45
21
-105.85
0
LINE
8
0
10
314.45
20
-105.85
11
314.45
21
-119.85
0
LINE
8
0
10
314.45
20
-100.8
11
328.45
21
-100.8
0
LINE
8
0
10
328.45
20
-100.8
11
328.45
21
-86.8
0
LINE
8
0
10
328.45
20
-86.8
11
314.45
21
-86.8
0
LINE
8
0
10
314.45
20
-86.8
11
314.45
21
-100.8
0
LINE
8
0
10
346.1569592
20
-171.9562831
11
359.1375331
21
-166.7117908
0
LINE
8
0
10
359.1375331
20
-166.7117908
11
353.8930408
21
-153.7312169
0
LINE
8
0
10
353.8930408
20
-153.7312169
11
340.9124669
21
-158.9757092
0
LINE
8
0
10
340.9124669
20
-158.9757092
11
346.1569592
21
-171.9562831
0
LINE
8
0
10
322.2943298
20
-176.4608895
11
335.2749037
21
-171.2163972
0
LINE
8
0
10
335.2749037
20
-171.2163972
11
330.0304114
21
-158.2358233
0
LINE
8
0
10
330.0304114
20
-158.2358233
11
317.0498375
21
-163.4803156
0
LINE
8
0
10
317.0498375
20
-163.4803156
11
322.2943298
21
-176.4608895
0
ENDSEC
0
EOF