0
SECTION
2
HEADER
9
$INSUNITS
70
4
0
ENDSEC
0
SECTION
2
TABLES
0
TABLE
2
LTYPE
0
LTYPE
72
65
70
64
2
CONTINUOUS
3
______
73
0
40
0
0
ENDTAB
0
TABLE
2
LAYER
0
ENDTAB
0
ENDSEC
0
SECTION
2
ENTITIES
0
LINE
8
0
10
69.475
20
-188.525
11
69.475
21
-94.6343912
0
LINE
8
0
10
70.7389958
20
-92.7747413
11
105.2203798
21
-79.12785
0
LINE
8
0
10
105.956384
20
-78.9875
11
173.6503253
21
-78.9875
0
LINE
8
0
10
174.4934625
20
-79.173907
11
203.6681372
21
-92.737176
0
LINE
8
0
10
204.825
20
-94.550769
11
204.825
21
-167.5616971
0
LINE
8
0
10
204.679698
20
-168.3100923
11
194.465923
21
-193.6222101
0
LINE
8
0
10
191.8629812
20
-194.728574
11
147.8508617
21
-176.9732781
0
LINE
8
0
10
146.4272631
20
-176.9455134
11
108.9024601
21
-190.4075238
0
LINE
8
0
10
108.2271053
20
-190.525
11
71.475
21
-190.525
0
ARC
8
0
10
71.475
20
-94.6343912
40
2
50
111.5924534
51
180
0
ARC
8
0
10
105.956384
20
-80.9875
40
2
50
90
51
111.5924534
0
ARC
8
0
10
173.6503253
20
-80.9875
40
2
50
65.0663403
51
90
0
ARC
8
0
10
202.825
20
-94.550769
40
2
50
0
51
65.0663403
0
ARC
8
0
10
202.825
20
-167.5616971
40
2
50
338.0252718
51
0
0
ARC
8
0
10
192.611225
20
-192.8738149
40
2
50
248.0299479
51
338.0252718
0
ARC
8
0
10
147.1026179
20
-178.8280372
40
2
50
68.0299479
51
109.7354318
0
ARC
8
0
10
108.2271053
20
-188.525
40
2
50
270
51
289.7354318
0
ARC
8
0
10
71.475
20
-188.525
40
2
50
180
51
270
0
LINE
8
0
10
357.225
20
-188.525
11
357.225
21
-94.6343912
0
LINE
8
0
10
355.9610042
20
-92.7747413
11
321.4796202
21
-79.12785
0
LINE
8
0
10
320.743616
20
-78.9875
11
253.0496747
21
-78.9875
0
LINE
8
0
10
252.2065375
20
-79.173907
11
223.0318628
21
-92.737176
0
LINE
8
0
10
221.875
20
-94.550769
11
221.875
21
-167.5616971
0
LINE
8
0
10
222.020302
20
-168.3100923
11
232.234077
21
-193.6222101
0
LINE
8
0
10
234.8370188
20
-194.728574
11
278.8491383
21
-176.9732781
0
LINE
8
0
10
280.2727369
20
-176.9455134
11
317.7975399
21
-190.4075238
0
LINE
8
0
10
318.4728947
20
-190.525
11
355.225
21
-190.525
0
ARC
8
0
10
355.225
20
-94.6343912
40
2
50
0
51
68.4075466
0
ARC
8
0
10
320.743616
20
-80.9875
40
2
50
68.4075466
51
90
0
ARC
8
0
10
253.0496747
20
-80.9875
40
2
50
90
51
114.9336597
0
ARC
8
0
10
223.875
20
-94.550769
40
2
50
114.9336597
51
180
0
ARC
8
0
10
223.875
20
-167.5616971
40
2
50
180
51
201.9747282
0
ARC
8
0
10
234.088775
20
-192.8738149
40
2
50
201.9747282
51
291.9700521
0
ARC
8
0
10
279.5973821
20
-178.8280372
40
2
50
70.2645682
51
111.9700521
0
ARC
8
0
10
318.4728947
20
-188.525
40
2
50
250.2645682
51
270
0
ARC
8
0
10
355.225
20
-188.525
40
2
50
270
51
0
0
LINE
8
0
10
73
20
-187
11
87
21
-187
0
LINE
8
0
10
87
20
-187
11
87
21
-173
0
LINE
8
0
10
87
20
-173
11
73
21
-173
0
LINE
8
0
10
73
20
-173
11
73
21
-187
0
LINE
8
0
10
73
20
-167.95
11
87
21
-167.95
0
LINE
8
0
10
87
20
-167.95
11
87
21
-153.95
0
LINE
8
0
10
87
20
-153.95
11
73
21
-153.95
0
LINE
8
0
10
73
20
-153.95
11
73
21
-167.95
0
LINE
8
0
10
73
20
-148.9
11
87
21
-148.9
0
LINE
8
0
10
87
20
-148.9
11
87
21
-134.9
0
LINE
8
0
10
87
20
-134.9
11
73
21
-134.9
0
LINE
8
0
10
73
20
-134.9
11
73
21
-148.9
0
LINE
8
0
10
73
20
-129.85
11
87
21
-129.85
0
LINE
8
0
10
87
20
-129.85
11
87
21
-115.85
0
LINE
8
0
10
87
20
-115.85
11
73
21
-115.85
0
LINE
8
0
10
73
20
-115.85
11
73
21
-129.85
0
LINE
8
0
10
73
20
-110.8
11
87
21
-110.8
0
LINE
8
0
10
87
20
-110.8
11
87
21
-96.8
0
LINE
8
0
10
87
20
-96.8
11
73
21
-96.8
0
LINE
8
0
10
73
20
-96.8
11
73
21
-110.8
0
LINE
8
0
10
92.05
20
-187
11
106.05
21
-187
0
LINE
8
0
10
106.05
20
-187
11
106.05
21
-173
0
LINE
8
0
10
106.05
20
-173
11
92.05
21
-173
0
LINE
8
0
10
92.05
20
-173
11
92.05
21
-187
0
LINE
8
0
10
92.05
20
-167.95
11
106.05
21
-167.95
0
LINE
8
0
10
106.05
20
-167.95
11
106.05
21
-153.95
0
LINE
8
0
10
106.05
20
-153.95
11
92.05
21
-153.95
0
LINE
8
0
10
92.05
20
-153.95
11
92.05
21
-167.95
0
LINE
8
0
10
92.05
20
-148.9
11
106.05
21
-148.9
0
LINE
8
0
10
106.05
20
-148.9
11
106.05
21
-134.9
0
LINE
8
0
10
106.05
20
-134.9
11
92.05
21
-134.9
0
LINE
8
0
10
92.05
20
-134.9
11
92.05
21
-148.9
0
LINE
8
0
10
92.05
20
-129.85
11
106.05
21
-129.85
0
LINE
8
0
10
106.05
20
-129.85
11
106.05
21
-115.85
0
LINE
8
0
10
106.05
20
-115.85
11
92.05
21
-115.85
0
LINE
8
0
10
92.05
20
-115.85
11
92.05
21
-129.85
0
LINE
8
0
10
92.05
20
-110.8
11
106.05
21
-110.8
0
LINE
8
0
10
106.05
20
-110.8
11
106.05
21
-96.8
0
LINE
8
0
10
106.05
20
-96.8
11
92.05
21
-96.8
0
LINE
8
0
10
92.05
20
-96.8
11
92.05
21
-110.8
0
LINE
8
0
10
111.1
20
-177.475
11
125.1
21
-177.475
0
LINE
8
0
10
125.1
20
-177.475
11
125.1
21
-163.475
0
LINE
8
0
10
125.1
20
-163.475
11
111.1
21
-163.475
0
LINE
8
0
10
111.1
20
-163.475
11
111.1
21
-177.475
0
LINE
8
0
10
111.1
20
-158.425
11
125.1
21
-158.425
0
LINE
8
0
10
125.1
20
-158.425
11
125.1
21
-144.425
0
LINE
8
0
10
125.1
20
-144.425
11
111.1
21
-144.425
0
LINE
8
0
10
111.1
20
-144.425
11
111.1
21
-158.425
0
LINE
8
0
10
111.1
20
-139.375
11
125.1
21
-139.375
0
LINE
8
0
10
125.1
20
-139.375
11
125.1
21
-125.375
0
LINE
8
0
10
125.1
20
-125.375
11
111.1
21
-125.375
0
LINE
8
0
10
111.1
20
-125.375
11
111.1
21
-139.375
0
LINE
8
0
10
111.1
20
-120.325
11
125.1
21
-120.325
0
LINE
8
0
10
125.1
20
-120.325
11
125.1
21
-106.325
0
LINE
8
0
10
125.1
20
-106.325
11
111.1
21
-106.325
0
LINE
8
0
10
111.1
20
-106.325
11
111.1
21
-120.325
0
LINE
8
0
10
111.1
20
-101.275
11
125.1
21
-101.275
0
LINE
8
0
10
125.1
20
-101.275
11
125.1
21
-87.275
0
LINE
8
0
10
125.1
20
-87.275
11
111.1
21
-87.275
0
LINE
8
0
10
111.1
20
-87.275
11
111.1
21
-101.275
0
LINE
8
0
10
130.15
20
-172.7125
11
144.15
21
-172.7125
0
LINE
8
0
10
144.15
20
-172.7125
11
144.15
21
-158.7125
0
LINE
8
0
10
144.15
20
-158.7125
11
130.15
21
-158.7125
0
LINE
8
0
10
130.15
20
-158.7125
11
130.15
21
-172.7125
0
LINE
8
0
10
130.15
20
-153.6625
11
144.15
21
-153.6625
0
LINE
8
0
10
144.15
20
-153.6625
11
144.15
21
-139.6625
0
LINE
8
0
10
144.15
20
-139.6625
11
130.15
21
-139.6625
0
LINE
8
0
10
130.15
20
-139.6625
11
130.15
21
-153.6625
0
LINE
8
0
10
130.15
20
-134.6125
11
144.15
21
-134.6125
0
LINE
8
0
10
144.15
20
-134.6125
11
144.15
21
-120.6125
0
LINE
8
0
10
144.15
20
-120.6125
11
130.15
21
-120.6125
0
LINE
8
0
10
130.15
20
-120.6125
11
130.15
21
-134.6125
0
LINE
8
0
10
130.15
20
-115.5625
11
144.15
21
-115.5625
0
LINE
8
0
10
144.15
20
-115.5625
11
144.15
21
-101.5625
0
LINE
8
0
10
144.15
20
-101.5625
11
130.15
21
-101.5625
0
LINE
8
0
10
130.15
20
-101.5625
11
130.15
21
-115.5625
0
LINE
8
0
10
130.15
20
-96.5125
11
144.15
21
-96.5125
0
LINE
8
0
10
144.15
20
-96.5125
11
144.15
21
-82.5125
0
LINE
8
0
10
144.15
20
-82.5125
11
130.15
21
-82.5125
0
LINE
8
0
10
130.15
20
-82.5125
11
130.15
21
-96.5125
0
LINE
8
0
10
149.2
20
-156.04375
11
163.2
21
-156.04375
0
LINE
8
0
10
163.2
20
-156.04375
11
163.2
21
-142.04375
0
LINE
8
0
10
163.2
20
-142.04375
11
149.2
21
-142.04375
0
LINE
8
0
10
149.2
20
-142.04375
11
149.2
21
-156.04375
0
LINE
8
0
10
149.2
20
-136.99375
11
163.2
21
-136.99375
0
LINE
8
0
10
163.2
20
-136.99375
11
163.2
21
-122.99375
0
LINE
8
0
10
163.2
20
-122.99375
11
149.2
21
-122.99375
0
LINE
8
0
10
149.2
20
-122.99375
11
149.2
21
-136.99375
0
LINE
8
0
10
149.2
20
-117.94375
11
163.2
21
-117.94375
0
LINE
8
0
10
163.2
20
-117.94375
11
163.2
21
-103.94375
0
LINE
8
0
10
163.2
20
-103.94375
11
149.2
21
-103.94375
0
LINE
8
0
10
149.2
20
-103.94375
11
149.2
21
-117.94375
0
LINE
8
0
10
149.2
20
-98.89375
11
163.2
21
-98.89375
0
LINE
8
0
10
163.2
20
-98.89375
11
163.2
21
-84.89375
0
LINE
8
0
10
163.2
20
-84.89375
11
149.2
21
-84.89375
0
LINE
8
0
10
149.2
20
-84.89375
11
149.2
21
-98.89375
0
LINE
8
0
10
168.25
20
-158.425
11
182.25
21
-158.425
0
LINE
8
0
10
182.25
20
-158.425
11
182.25
21
-144.425
0
LINE
8
0
10
182.25
20
-144.425
11
168.25
21
-144.425
0
LINE
8
0
10
168.25
20
-144.425
11
168.25
21
-158.425
0
LINE
8
0
10
168.25
20
-139.375
11
182.25
21
-139.375
0
LINE
8
0
10
182.25
20
-139.375
11
182.25
21
-125.375
0
LINE
8
0
10
182.25
20
-125.375
11
168.25
21
-125.375
0
LINE
8
0
10
168.25
20
-125.375
11
168.25
21
-139.375
0
LINE
8
0
10
168.25
20
-120.325
11
182.25
21
-120.325
0
LINE
8
0
10
182.25
20
-120.325
11
182.25
21
-106.325
0
LINE
8
0
10
182.25
20
-106.325
11
168.25
21
-106.325
0
LINE
8
0
10
168.25
20
-106.325
11
168.25
21
-120.325
0
LINE
8
0
10
168.25
20
-101.275
11
182.25
21
-101.275
0
LINE
8
0
10
182.25
20
-101.275
11
182.25
21
-87.275
0
LINE
8
0
10
182.25
20
-87.275
11
168.25
21
-87.275
0
LINE
8
0
10
168.25
20
-87.275
11
168.25
21
-101.275
0
LINE
8
0
10
187.3
20
-148.9
11
201.3
21
-148.9
0
LINE
8
0
10
201.3
20
-148.9
11
201.3
21
-134.9
0
LINE
8
0
10
201.3
20
-134.9
11
187.3
21
-134.9
0
LINE
8
0
10
187.3
20
-134.9
11
187.3
21
-148.9
0
LINE
8
0
10
187.3
20
-129.85
11
201.3
21
-129.85
0
LINE
8
0
10
201.3
20
-129.85
11
201.3
21
-115.85
0
LINE
8
0
10
201.3
20
-115.85
11
187.3
21
-115.85
0
LINE
8
0
10
187.3
20
-115.85
11
187.3
21
-129.85
0
LINE
8
0
10
187.3
20
-110.8
11
201.3
21
-110.8
0
LINE
8
0
10
201.3
20
-110.8
11
201.3
21
-96.8
0
LINE
8
0
10
201.3
20
-96.8
11
187.3
21
-96.8
0
LINE
8
0
10
187.3
20
-96.8
11
187.3
21
-110.8
0
LINE
8
0
10
156.6124669
20
-176.7117908
11
169.5930408
21
-181.9562831
0
LINE
8
0
10
169.5930408
20
-181.9562831
11
174.8375331
21
-168.9757092
0
LINE
8
0
10
174.8375331
20
-168.9757092
11
161.8569592
21
-163.7312169
0
LINE
8
0
10
161.8569592
20
-163.7312169
11
156.6124669
21
-176.7117908
0
LINE
8
0
10
180.5634106
20
-181.2520785
11
193.5439845
21
-186.4965708
0
LINE
8
0
10
193.5439845
20
-186.4965708
11
198.7884768
21
-173.5159969
0
LINE
8
0
10
198.7884768
20
-173.5159969
11
185.8079029
21
-168.2715046
0
LINE
8
0
10
185.8079029
20
-168.2715046
11
180.5634106
21
-181.2520785
0
LINE
8
0
10
339.7
20
-187
11
353.7
21
-187
0
LINE
8
0
10
353.7
20
-187
11
353.7
21
-173
0
LINE
8
0
10
353.7
20
-173
11
339.7
21
-173
0
LINE
8
0
10
339.7
20
-173
11
339.7
21
-187
0
LINE
8
0
10
339.7
20
-167.95
11
353.7
21
-167.95
0
LINE
8
0
10
353.7
20
-167.95
11
353.7
21
-153.95
0
LINE
8
0
10
353.7
20
-153.95
11
339.7
21
-153.95
0
LINE
8
0
10
339.7
20
-153.95
11
339.7
21
-167.95
0
LINE
8
0
10
339.7
20
-148.9
11
353.7
21
-148.9
0
LINE
8
0
10
353.7
20
-148.9
11
353.7
21
-134.9
0
LINE
8
0
10
353.7
20
-134.9
11
339.7
21
-134.9
0
LINE
8
0
10
339.7
20
-134.9
11
339.7
21
-148.9
0
LINE
8
0
10
339.7
20
-129.85
11
353.7
21
-129.85
0
LINE
8
0
10
353.7
20
-129.85
11
353.7
21
-115.85
0
LINE
8
0
10
353.7
20
-115.85
11
339.7
21
-115.85
0
LINE
8
0
10
339.7
20
-115.85
11
339.7
21
-129.85
0
LINE
8
0
10
339.7
20
-110.8
11
353.7
21
-110.8
0
LINE
8
0
10
353.7
20
-110.8
11
353.7
21
-96.8
0
LINE
8
0
10
353.7
20
-96.8
11
339.7
21
-96.8
0
LINE
8
0
10
339.7
20
-96.8
11
339.7
21
-110.8
0
LINE
8
0
10
320.65
20
-187
11
334.65
21
-187
0
LINE
8
0
10
334.65
20
-187
11
334.65
21
-173
0
LINE
8
0
10
334.65
20
-173
11
320.65
21
-173
0
LINE
8
0
10
320.65
20
-173
11
320.65
21
-187
0
LINE
8
0
10
320.65
20
-167.95
11
334.65
21
-167.95
0
LINE
8
0
10
334.65
20
-167.95
11
334.65
21
-153.95
0
LINE
8
0
10
334.65
20
-153.95
11
320.65
21
-153.95
0
LINE
8
0
10
320.65
20
-153.95
11
320.65
21
-167.95
0
LINE
8
0
10
320.65
20
-148.9
11
334.65
21
-148.9
0
LINE
8
0
10
334.65
20
-148.9
11
334.65
21
-134.9
0
LINE
8
0
10
334.65
20
-134.9
11
320.65
21
-134.9
0
LINE
8
0
10
320.65
20
-134.9
11
320.65
21
-148.9
0
LINE
8
0
10
320.65
20
-129.85
11
334.65
21
-129.85
0
LINE
8
0
10
334.65
20
-129.85
11
334.65
21
-115.85
0
LINE
8
0
10
334.65
20
-115.85
11
320.65
21
-115.85
0
LINE
8
0
10
320.65
20
-115.85
11
320.65
21
-129.85
0
LINE
8
0
10
320.65
20
-110.8
11
334.65
21
-110.8
0
LINE
8
0
10
334.65
20
-110.8
11
334.65
21
-96.8
0
LINE
8
0
10
334.65
20
-96.8
11
320.65
21
-96.8
0
LINE
8
0
10
320.65
20
-96.8
11
320.65
21
-110.8
0
LINE
8
0
10
301.6
20
-177.475
11
315.6
21
-177.475
0
LINE
8
0
10
315.6
20
-177.475
11
315.6
21
-163.475
0
LINE
8
0
10
315.6
20
-163.475
11
301.6
21
-163.475
0
LINE
8
0
10
301.6
20
-163.475
11
301.6
21
-177.475
0
LINE
8
0
10
301.6
20
-158.425
11
315.6
21
-158.425
0
LINE
8
0
10
315.6
20
-158.425
11
315.6
21
-144.425
0
LINE
8
0
10
315.6
20
-144.425
11
301.6
21
-144.425
0
LINE
8
0
10
301.6
20
-144.425
11
301.6
21
-158.425
0
LINE
8
0
10
301.6
20
-139.375
11
315.6
21
-139.375
0
LINE
8
0
10
315.6
20
-139.375
11
315.6
21
-125.375
0
LINE
8
0
10
315.6
20
-125.375
11
301.6
21
-125.375
0
LINE
8
0
10
301.6
20
-125.375
11
301.6
21
-139.375
0
LINE
8
0
10
301.6
20
-120.325
11
315.6
21
-120.325
0
LINE
8
0
10
315.6
20
-120.325
11
315.6
21
-106.325
0
LINE
8
0
10
315.6
20
-106.325
11
301.6
21
-106.325
0
LINE
8
0
10
301.6
20
-106.325
11
301.6
21
-120.325
0
LINE
8
0
10
301.6
20
-101.275
11
315.6
21
-101.275
0
LINE
8
0
10
315.6
20
-101.275
11
315.6
21
-87.275
0
LINE
8
0
10
315.6
20
-87.275
11
301.6
21
-87.275
0
LINE
8
0
10
301.6
20
-87.275
11
301.6
21
-101.275
0
LINE
8
0
10
282.55
20
-172.7125
11
296.55
21
-172.7125
0
LINE
8
0
10
296.55
20
-172.7125
11
296.55
21
-158.7125
0
LINE
8
0
10
296.55
20
-158.7125
11
282.55
21
-158.7125
0
LINE
8
0
10
282.55
20
-158.7125
11
282.55
21
-172.7125
0
LINE
8
0
10
282.55
20
-153.6625
11
296.55
21
-153.6625
0
LINE
8
0
10
296.55
20
-153.6625
11
296.55
21
-139.6625
0
LINE
8
0
10
296.55
20
-139.6625
11
282.55
21
-139.6625
0
LINE
8
0
10
282.55
20
-139.6625
11
282.55
21
-153.6625
0
LINE
8
0
10
282.55
20
-134.6125
11
296.55
21
-134.6125
0
LINE
8
0
10
296.55
20
-134.6125
11
296.55
21
-120.6125
0
LINE
8
0
10
296.55
20
-120.6125
11
282.55
21
-120.6125
0
LINE
8
0
10
282.55
20
-120.6125
11
282.55
21
-134.6125
0
LINE
8
0
10
282.55
20
-115.5625
11
296.55
21
-115.5625
0
LINE
8
0
10
296.55
20
-115.5625
11
296.55
21
-101.5625
0
LINE
8
0
10
296.55
20
-101.5625
11
282.55
21
-101.5625
0
LINE
8
0
10
282.55
20
-101.5625
11
282.55
21
-115.5625
0
LINE
8
0
10
282.55
20
-96.5125
11
296.55
21
-96.5125
0
LINE
8
0
10
296.55
20
-96.5125
11
296.55
21
-82.5125
0
LINE
8
0
10
296.55
20
-82.5125
11
282.55
21
-82.5125
0
LINE
8
0
10
282.55
20
-82.5125
11
282.55
21
-96.5125
0
LINE
8
0
10
263.5
20
-156.04375
11
277.5
21
-156.04375
0
LINE
8
0
10
277.5
20
-156.04375
11
277.5
21
-142.04375
0
LINE
8
0
10
277.5
20
-142.04375
11
263.5
21
-142.04375
0
LINE
8
0
10
263.5
20
-142.04375
11
263.5
21
-156.04375
0
LINE
8
0
10
263.5
20
-136.99375
11
277.5
21
-136.99375
0
LINE
8
0
10
277.5
20
-136.99375
11
277.5
21
-122.99375
0
LINE
8
0
10
277.5
20
-122.99375
11
263.5
21
-122.99375
0
LINE
8
0
10
263.5
20
-122.99375
11
263.5
21
-136.99375
0
LINE
8
0
10
263.5
20
-117.94375
11
277.5
21
-117.94375
0
LINE
8
0
10
277.5
20
-117.94375
11
277.5
21
-103.94375
0
LINE
8
0
10
277.5
20
-103.94375
11
263.5
21
-103.94375
0
LINE
8
0
10
263.5
20
-103.94375
11
263.5
21
-117.94375
0
LINE
8
0
10
263.5
20
-98.89375
11
277.5
21
-98.89375
0
LINE
8
0
10
277.5
20
-98.89375
11
277.5
21
-84.89375
0
LINE
8
0
10
277.5
20
-84.89375
11
263.5
21
-84.89375
0
LINE
8
0
10
263.5
20
-84.89375
11
263.5
21
-98.89375
0
LINE
8
0
10
244.45
20
-158.425
11
258.45
21
-158.425
0
LINE
8
0
10
258.45
20
-158.425
11
258.45
21
-144.425
0
LINE
8
0
10
258.45
20
-144.425
11
244.45
21
-144.425
0
LINE
8
0
10
244.45
20
-144.425
11
244.45
21
-158.425
0
LINE
8
0
10
244.45
20
-139.375
11
258.45
21
-139.375
0
LINE
8
0
10
258.45
20
-139.375
11
258.45
21
-125.375
0
LINE
8
0
10
258.45
20
-125.375
11
244.45
21
-125.375
0
LINE
8
0
10
244.45
20
-125.375
11
244.45
21
-139.375
0
LINE
8
0
10
244.45
20
-120.325
11
258.45
21
-120.325
0
LINE
8
0
10
258.45
20
-120.325
11
258.45
21
-106.325
0
LINE
8
0
10
258.45
20
-106.325
11
244.45
21
-106.325
0
LINE
8
0
10
244.45
20
-106.325
11
244.45
21
-120.325
0
LINE
8
0
10
244.45
20
-101.275
11
258.45
21
-101.275
0
LINE
8
0
10
258.45
20
-101.275
11
258.45
21
-87.275
0
LINE
8
0
10
258.45
20
-87.275
11
244.45
21
-87.275
0
LINE
8
0
10
244.45
20
-87.275
11
244.45
21
-101.275
0
LINE
8
0
10
225.4
20
-148.9
11
239.4
21
-148.9
0
LINE
8
0
10
239.4
20
-148.9
11
239.4
21
-134.9
0
LINE
8
0
10
239.4
20
-134.9
11
225.4
21
-134.9
0
LINE
8
0
10
225.4
20
-134.9
11
225.4
21
-148.9
0
LINE
8
0
10
225.4
20
-129.85
11
239.4
21
-129.85
0
LINE
8
0
10
239.4
20
-129.85
11
239.4
21
-115.85
0
LINE
8
0
10
239.4
20
-115.85
11
225.4
21
-115.85
0
LINE
8
0
10
225.4
20
-115.85
11
225.4
21
-129.85
0
LINE
8
0
10
225.4
20
-110.8
11
239.4
21
-110.8
0
LINE
8
0
10
239.4
20
-110.8
11
239.4
21
-96.8
0
LINE
8
0
10
239.4
20
-96.8
11
225.4
21
-96.8
0
LINE
8
0
10
225.4
20
-96.8
11
225.4
21
-110.8
0
LINE
8
0
10
257.1069592
20
-181.9562831
11
270.0875331
21
-176.7117908
0
LINE
8
0
10
270.0875331
20
-176.7117908
11
264.8430408
21
-163.7312169
0
LINE
8
0
10
264.8430408
20
-163.7312169
11
251.8624669
21
-168.9757092
0
LINE
8
0
10
251.8624669
20
-168.9757092
11
257.1069592
21
-181.9562831
0
LINE
8
0
10
233.1560155
20
-186.4965708
11
246.1365894
21
-181.2520785
0
LINE
8
0
10
246.1365894
20
-181.2520785
11
240.8920971
21
-168.2715046
0
LINE
8
0
10
240.8920971
20
-168.2715046
11
227.9115232
21
-173.5159969
0
LINE
8
0
10
227.9115232
20
-173.5159969
11
233.1560155
21
-186.4965708
0
ENDSEC
0
EOF