0
SECTION
2
HEADER
9
$INSUNITS
70
4
0
ENDSEC
0
SECTION
2
TABLES
0
TABLE
2
LTYPE
0
LTYPE
72
65
70
64
2
CONTINUOUS
3
______
73
0
40
0
0
ENDTAB
0
TABLE
2
LAYER
0
ENDTAB
0
ENDSEC
0
SECTION
2
ENTITIES
0
LINE
8
0
10
63.475
20
-188.525
11
63.475
21
-94.6343912
0
ARC
8
0
10
71.475
20
-94.6343912
40
8
50
111.5924534
51
180
0
LINE
8
0
10
68.5309834
20
-87.1957914
11
103.0123675
21
-73.5489002
0
ARC
8
0
10
105.956384
20
-80.9875
40
8
50
90
51
111.5924517
0
LINE
8
0
10
105.956384
20
-72.9875
11
173.6503253
21
-72.9875
0
ARC
8
0
10
173.6503253
20
-80.9875
40
8
50
65.0663435
51
90
0
LINE
8
0
10
177.0228738
20
-73.7331277
11
206.1975485
21
-87.2963968
0
ARC
8
0
10
202.825
20
-94.550769
40
8
50
0
51
65.0663403
0
LINE
8
0
10
210.825
20
-94.550769
11
210.825
21
-167.561697
0
ARC
8
0
10
202.825
20
-167.5616971
40
8
50
338.0252718
51
360
0
ARC
8
0
10
204.679698
20
-168.3100923
40
6
50
338.014811
51
338.0252718
0
LINE
8
0
10
210.2433819
20
-170.5562937
11
200.030017
21
-195.8673957
0
ARC
8
0
10
192.611225
20
-192.8738149
40
8
50
248.0299485
51
338.0252718
0
LINE
8
0
10
189.6182498
20
-200.2928512
11
147.3724085
21
-183.2501043
0
LINE
8
0
10
146.6606092
20
-183.2362219
11
110.9285245
21
-196.0550953
0
ARC
8
0
10
108.2271053
20
-188.525
40
8
50
270
51
289.7354318
0
LINE
8
0
10
108.2271053
20
-196.525
11
71.475
21
-196.525
0
ARC
8
0
10
71.475
20
-188.525
40
8
50
180
51
270
0
LINE
8
0
10
363.225
20
-188.525
11
363.225
21
-94.6343912
0
ARC
8
0
10
355.225
20
-94.6343912
40
8
50
0
51
68.4075466
0
LINE
8
0
10
358.1690166
20
-87.1957914
11
323.6876325
21
-73.5489002
0
ARC
8
0
10
320.743616
20
-80.9875
40
8
50
68.4075483
51
90
0
LINE
8
0
10
320.743616
20
-72.9875
11
253.0496747
21
-72.9875
0
ARC
8
0
10
253.0496747
20
-80.9875
40
8
50
90
51
114.9336565
0
LINE
8
0
10
249.6771262
20
-73.7331277
11
220.5024515
21
-87.2963968
0
ARC
8
0
10
223.875
20
-94.550769
40
8
50
114.9336597
51
180
0
LINE
8
0
10
215.875
20
-94.550769
11
215.875
21
-167.561697
0
ARC
8
0
10
223.875
20
-167.5616971
40
8
50
180
51
201.9747282
0
ARC
8
0
10
222.020302
20
-168.3100923
40
6
50
201.9747282
51
201.985189
0
LINE
8
0
10
216.4566181
20
-170.5562937
11
226.669983
21
-195.8673957
0
ARC
8
0
10
234.088775
20
-192.8738149
40
8
50
201.9747282
51
291.9700515
0
LINE
8
0
10
237.0817502
20
-200.2928512
11
279.3275915
21
-183.2501043
0
LINE
8
0
10
280.0393908
20
-183.2362219
11
315.7714755
21
-196.0550953
0
ARC
8
0
10
318.4728947
20
-188.525
40
8
50
250.2645682
51
270
0
LINE
8
0
10
318.4728947
20
-196.525
11
355.225
21
-196.525
0
ARC
8
0
10
355.225
20
-188.525
40
8
50
270
51
360
0
LINE
8
0
10
317.625
20
-190.275
11
356.725
21
-190.275
0
ARC
8
0
10
356.725
20
-190.025
40
0.25
50
270
51
360
0
LINE
8
0
10
356.975
20
-190.025
11
356.975
21
-93.775
0
ARC
8
0
10
356.725
20
-93.775
40
0.25
50
0
51
90
0
LINE
8
0
10
319.875
20
-93.525
11
356.725
21
-93.525
0
LINE
8
0
10
318.875
20
-92.525
11
318.875
21
-84.25
0
ARC
8
0
10
318.625
20
-84.25
40
0.25
50
0
51
90
0
LINE
8
0
10
318.625
20
-84
11
300.825
21
-84
0
LINE
8
0
10
299.825
20
-83
11
299.825
21
-79.4875
0
ARC
8
0
10
299.575
20
-79.4875
40
0.25
50
0
51
90
0
LINE
8
0
10
299.575
20
-79.2375
11
279.525
21
-79.2375
0
ARC
8
0
10
279.525
20
-79.4875
40
0.25
50
90
51
180
0
LINE
8
0
10
279.275
20
-79.4875
11
279.275
21
-80.61875
0
LINE
8
0
10
278.275
20
-81.61875
11
260.475
21
-81.61875
0
ARC
8
0
10
260.475
20
-81.86875
40
0.25
50
90
51
180
0
LINE
8
0
10
260.225
20
-81.86875
11
260.225
21
-83
0
LINE
8
0
10
259.225
20
-84
11
241.425
21
-84
0
ARC
8
0
10
241.425
20
-84.25
40
0.25
50
90
51
180
0
LINE
8
0
10
241.175
20
-84.25
11
241.175
21
-92.525
0
LINE
8
0
10
240.175
20
-93.525
11
222.375
21
-93.525
0
ARC
8
0
10
222.375
20
-93.775
40
0.25
50
90
51
180
0
LINE
8
0
10
222.125
20
-151.925
11
222.125
21
-93.775
0
ARC
8
0
10
222.375
20
-151.925
40
0.25
50
180
51
270
0
LINE
8
0
10
222.375
20
-152.175
11
240.175
21
-152.175
0
LINE
8
0
10
241.175
20
-158.8551187
11
241.175
21
-153.175
0
LINE
8
0
10
240.5478272
20
-159.7830195
11
222.0963364
21
-167.1967623
0
ARC
8
0
10
222.1895432
20
-167.4287375
40
0.25
50
111.8900844
51
201.9999866
0
LINE
8
0
10
221.9577472
20
-167.5223891
11
233.0367372
21
-194.9438516
0
ARC
8
0
10
233.2685332
20
-194.8502
40
0.25
50
201.9999866
51
292.0206846
0
LINE
8
0
10
233.3622685
20
-195.0819621
11
280.3932682
21
-176.0604514
0
LINE
8
0
10
280.7682095
20
-175.9875
11
297.325
21
-175.9875
0
LINE
8
0
10
298.325
20
-176.9875
11
298.325
21
-180.5
0
ARC
8
0
10
298.575
20
-180.5
40
0.25
50
180
51
270
0
LINE
8
0
10
298.575
20
-180.75
11
316.375
21
-180.75
0
LINE
8
0
10
317.375
20
-181.75
11
317.375
21
-190.025
0
ARC
8
0
10
317.625
20
-190.025
40
0.25
50
180
51
270
0
LINE
8
0
10
69.975
20
-190.275
11
109.075
21
-190.275
0
ARC
8
0
10
109.075
20
-190.025
40
0.25
50
270
51
360
0
LINE
8
0
10
109.325
20
-190.025
11
109.325
21
-181.75
0
LINE
8
0
10
110.325
20
-180.75
11
128.125
21
-180.75
0
ARC
8
0
10
128.125
20
-180.5
40
0.25
50
270
51
360
0
LINE
8
0
10
128.375
20
-180.5
11
128.375
21
-176.9875
0
LINE
8
0
10
129.375
20
-175.9875
11
145.9317905
21
-175.9875
0
LINE
8
0
10
193.3377315
20
-195.0819621
11
146.3067318
21
-176.0604514
0
ARC
8
0
10
193.4314668
20
-194.8502
40
0.25
50
247.9793154
51
338.0000134
0
LINE
8
0
10
204.7422528
20
-167.5223891
11
193.6632628
21
-194.9438516
0
ARC
8
0
10
204.5104568
20
-167.4287375
40
0.25
50
338.0000134
51
68.1099156
0
LINE
8
0
10
186.1521728
20
-159.7830195
11
204.6036636
21
-167.1967623
0
LINE
8
0
10
185.525
20
-158.8551187
11
185.525
21
-153.175
0
LINE
8
0
10
186.525
20
-152.175
11
204.325
21
-152.175
0
ARC
8
0
10
204.325
20
-151.925
40
0.25
50
270
51
360
0
LINE
8
0
10
204.575
20
-151.925
11
204.575
21
-93.775
0
ARC
8
0
10
204.325
20
-93.775
40
0.25
50
0
51
90
0
LINE
8
0
10
204.325
20
-93.525
11
186.525
21
-93.525
0
LINE
8
0
10
185.525
20
-92.525
11
185.525
21
-84.25
0
ARC
8
0
10
185.275
20
-84.25
40
0.25
50
0
51
90
0
LINE
8
0
10
185.275
20
-84
11
167.475
21
-84
0
LINE
8
0
10
166.475
20
-83
11
166.475
21
-81.86875
0
ARC
8
0
10
166.225
20
-81.86875
40
0.25
50
0
51
90
0
LINE
8
0
10
166.225
20
-81.61875
11
148.425
21
-81.61875
0
LINE
8
0
10
147.425
20
-80.61875
11
147.425
21
-79.4875
0
ARC
8
0
10
147.175
20
-79.4875
40
0.25
50
0
51
90
0
LINE
8
0
10
147.175
20
-79.2375
11
127.125
21
-79.2375
0
ARC
8
0
10
127.125
20
-79.4875
40
0.25
50
90
51
180
0
LINE
8
0
10
126.875
20
-79.4875
11
126.875
21
-83
0
LINE
8
0
10
125.875
20
-84
11
108.075
21
-84
0
ARC
8
0
10
108.075
20
-84.25
40
0.25
50
90
51
180
0
LINE
8
0
10
107.825
20
-84.25
11
107.825
21
-92.525
0
LINE
8
0
10
69.975
20
-93.525
11
106.825
21
-93.525
0
ARC
8
0
10
69.975
20
-93.775
40
0.25
50
90
51
180
0
LINE
8
0
10
69.725
20
-190.025
11
69.725
21
-93.775
0
ARC
8
0
10
69.975
20
-190.025
40
0.25
50
180
51
270
0
ARC
8
0
10
319.875
20
-92.525
40
1
50
180
51
270
0
ARC
8
0
10
300.825
20
-83
40
1
50
180
51
270
0
ARC
8
0
10
278.275
20
-80.61875
40
1
50
270
51
0
0
ARC
8
0
10
259.225
20
-83
40
1
50
270
51
0
0
ARC
8
0
10
240.175
20
-92.525
40
1
50
270
51
0
0
ARC
8
0
10
240.175
20
-153.175
40
1
50
0
51
90
0
ARC
8
0
10
240.175
20
-158.8551187
40
1
50
291.8900839
51
0
0
ARC
8
0
10
280.7682095
20
-176.9875
40
1
50
90
51
112.0206839
0
ARC
8
0
10
297.325
20
-176.9875
40
1
50
0
51
90
0
ARC
8
0
10
316.375
20
-181.75
40
1
50
0
51
90
0
ARC
8
0
10
110.325
20
-181.75
40
1
50
90
51
180
0
ARC
8
0
10
129.375
20
-176.9875
40
1
50
90
51
180
0
ARC
8
0
10
145.9317905
20
-176.9875
40
1
50
67.9793161
51
90
0
ARC
8
0
10
186.525
20
-158.8551187
40
1
50
180
51
248.1099161
0
ARC
8
0
10
186.525
20
-153.175
40
1
50
90
51
180
0
ARC
8
0
10
186.525
20
-92.525
40
1
50
180
51
270
0
ARC
8
0
10
167.475
20
-83
40
1
50
180
51
270
0
ARC
8
0
10
148.425
20
-80.61875
40
1
50
180
51
270
0
ARC
8
0
10
125.875
20
-83
40
1
50
270
51
0
0
ARC
8
0
10
106.825
20
-92.525
40
1
50
270
51
0
0
ARC
8
0
10
103.3803696
20
-74.4787252
40
1
50
111.5924517
51
111.5924534
0
ARC
8
0
10
176.6013052
20
-74.6399242
40
1
50
65.0663403
51
65.0663435
0
ARC
8
0
10
189.9923717
20
-199.3654716
40
1
50
248.0299479
51
248.0299485
0
ARC
8
0
10
146.9982866
20
-184.1774838
40
1
50
68.0299479
51
109.7354318
0
ARC
8
0
10
323.3196304
20
-74.4787252
40
1
50
68.4075466
51
68.4075483
0
ARC
8
0
10
250.0986948
20
-74.6399242
40
1
50
114.9336565
51
114.9336597
0
ARC
8
0
10
236.7076283
20
-199.3654716
40
1
50
291.9700515
51
291.9700521
0
ARC
8
0
10
279.7017134
20
-184.1774838
40
1
50
70.2645682
51
111.9700521
0
LINE
8
0
10
71.975
20
-189.025
11
88.025
21
-189.025
0
LINE
8
0
10
89.025
20
-188.025
11
89.025
21
-171.975
0
LINE
8
0
10
88.025
20
-170.975
11
71.975
21
-170.975
0
LINE
8
0
10
70.975
20
-171.975
11
70.975
21
-188.025
0
LINE
8
0
10
71.975
20
-169.975
11
88.025
21
-169.975
0
LINE
8
0
10
89.025
20
-168.975
11
89.025
21
-152.925
0
LINE
8
0
10
88.025
20
-151.925
11
71.975
21
-151.925
0
LINE
8
0
10
70.975
20
-152.925
11
70.975
21
-168.975
0
LINE
8
0
10
71.975
20
-150.925
11
88.025
21
-150.925
0
LINE
8
0
10
89.025
20
-149.925
11
89.025
21
-133.875
0
LINE
8
0
10
88.025
20
-132.875
11
71.975
21
-132.875
0
LINE
8
0
10
70.975
20
-133.875
11
70.975
21
-149.925
0
LINE
8
0
10
71.975
20
-131.875
11
88.025
21
-131.875
0
LINE
8
0
10
89.025
20
-130.875
11
89.025
21
-114.825
0
LINE
8
0
10
88.025
20
-113.825
11
71.975
21
-113.825
0
LINE
8
0
10
70.975
20
-114.825
11
70.975
21
-130.875
0
LINE
8
0
10
71.975
20
-112.825
11
88.025
21
-112.825
0
LINE
8
0
10
89.025
20
-111.825
11
89.025
21
-95.775
0
LINE
8
0
10
88.025
20
-94.775
11
71.975
21
-94.775
0
LINE
8
0
10
70.975
20
-95.775
11
70.975
21
-111.825
0
LINE
8
0
10
91.025
20
-189.025
11
107.075
21
-189.025
0
LINE
8
0
10
108.075
20
-188.025
11
108.075
21
-171.975
0
LINE
8
0
10
107.075
20
-170.975
11
91.025
21
-170.975
0
LINE
8
0
10
90.025
20
-171.975
11
90.025
21
-188.025
0
LINE
8
0
10
91.025
20
-169.975
11
107.075
21
-169.975
0
LINE
8
0
10
108.075
20
-168.975
11
108.075
21
-152.925
0
LINE
8
0
10
107.075
20
-151.925
11
91.025
21
-151.925
0
LINE
8
0
10
90.025
20
-152.925
11
90.025
21
-168.975
0
LINE
8
0
10
91.025
20
-150.925
11
107.075
21
-150.925
0
LINE
8
0
10
108.075
20
-149.925
11
108.075
21
-133.875
0
LINE
8
0
10
107.075
20
-132.875
11
91.025
21
-132.875
0
LINE
8
0
10
90.025
20
-133.875
11
90.025
21
-149.925
0
LINE
8
0
10
91.025
20
-131.875
11
107.075
21
-131.875
0
LINE
8
0
10
108.075
20
-130.875
11
108.075
21
-114.825
0
LINE
8
0
10
107.075
20
-113.825
11
91.025
21
-113.825
0
LINE
8
0
10
90.025
20
-114.825
11
90.025
21
-130.875
0
LINE
8
0
10
91.025
20
-112.825
11
107.075
21
-112.825
0
LINE
8
0
10
108.075
20
-111.825
11
108.075
21
-95.775
0
LINE
8
0
10
107.075
20
-94.775
11
91.025
21
-94.775
0
LINE
8
0
10
90.025
20
-95.775
11
90.025
21
-111.825
0
LINE
8
0
10
110.075
20
-179.5
11
126.125
21
-179.5
0
LINE
8
0
10
127.125
20
-178.5
11
127.125
21
-162.45
0
LINE
8
0
10
126.125
20
-161.45
11
110.075
21
-161.45
0
LINE
8
0
10
109.075
20
-162.45
11
109.075
21
-178.5
0
LINE
8
0
10
110.075
20
-160.45
11
126.125
21
-160.45
0
LINE
8
0
10
127.125
20
-159.45
11
127.125
21
-143.4
0
LINE
8
0
10
126.125
20
-142.4
11
110.075
21
-142.4
0
LINE
8
0
10
109.075
20
-143.4
11
109.075
21
-159.45
0
LINE
8
0
10
110.075
20
-141.4
11
126.125
21
-141.4
0
LINE
8
0
10
127.125
20
-140.4
11
127.125
21
-124.35
0
LINE
8
0
10
126.125
20
-123.35
11
110.075
21
-123.35
0
LINE
8
0
10
109.075
20
-124.35
11
109.075
21
-140.4
0
LINE
8
0
10
110.075
20
-122.35
11
126.125
21
-122.35
0
LINE
8
0
10
127.125
20
-121.35
11
127.125
21
-105.3
0
LINE
8
0
10
126.125
20
-104.3
11
110.075
21
-104.3
0
LINE
8
0
10
109.075
20
-105.3
11
109.075
21
-121.35
0
LINE
8
0
10
110.075
20
-103.3
11
126.125
21
-103.3
0
LINE
8
0
10
127.125
20
-102.3
11
127.125
21
-86.25
0
LINE
8
0
10
126.125
20
-85.25
11
110.075
21
-85.25
0
LINE
8
0
10
109.075
20
-86.25
11
109.075
21
-102.3
0
LINE
8
0
10
129.125
20
-174.7375
11
145.175
21
-174.7375
0
LINE
8
0
10
146.175
20
-173.7375
11
146.175
21
-157.6875
0
LINE
8
0
10
145.175
20
-156.6875
11
129.125
21
-156.6875
0
LINE
8
0
10
128.125
20
-157.6875
11
128.125
21
-173.7375
0
LINE
8
0
10
129.125
20
-155.6875
11
145.175
21
-155.6875
0
LINE
8
0
10
146.175
20
-154.6875
11
146.175
21
-138.6375
0
LINE
8
0
10
145.175
20
-137.6375
11
129.125
21
-137.6375
0
LINE
8
0
10
128.125
20
-138.6375
11
128.125
21
-154.6875
0
LINE
8
0
10
129.125
20
-136.6375
11
145.175
21
-136.6375
0
LINE
8
0
10
146.175
20
-135.6375
11
146.175
21
-119.5875
0
LINE
8
0
10
145.175
20
-118.5875
11
129.125
21
-118.5875
0
LINE
8
0
10
128.125
20
-119.5875
11
128.125
21
-135.6375
0
LINE
8
0
10
129.125
20
-117.5875
11
145.175
21
-117.5875
0
LINE
8
0
10
146.175
20
-116.5875
11
146.175
21
-100.5375
0
LINE
8
0
10
145.175
20
-99.5375
11
129.125
21
-99.5375
0
LINE
8
0
10
128.125
20
-100.5375
11
128.125
21
-116.5875
0
LINE
8
0
10
129.125
20
-98.5375
11
145.175
21
-98.5375
0
LINE
8
0
10
146.175
20
-97.5375
11
146.175
21
-81.4875
0
LINE
8
0
10
145.175
20
-80.4875
11
129.125
21
-80.4875
0
LINE
8
0
10
128.125
20
-81.4875
11
128.125
21
-97.5375
0
LINE
8
0
10
148.175
20
-158.06875
11
164.225
21
-158.06875
0
LINE
8
0
10
165.225
20
-157.06875
11
165.225
21
-141.01875
0
LINE
8
0
10
164.225
20
-140.01875
11
148.175
21
-140.01875
0
LINE
8
0
10
147.175
20
-141.01875
11
147.175
21
-157.06875
0
LINE
8
0
10
148.175
20
-139.01875
11
164.225
21
-139.01875
0
LINE
8
0
10
165.225
20
-138.01875
11
165.225
21
-121.96875
0
LINE
8
0
10
164.225
20
-120.96875
11
148.175
21
-120.96875
0
LINE
8
0
10
147.175
20
-121.96875
11
147.175
21
-138.01875
0
LINE
8
0
10
148.175
20
-119.96875
11
164.225
21
-119.96875
0
LINE
8
0
10
165.225
20
-118.96875
11
165.225
21
-102.91875
0
LINE
8
0
10
164.225
20
-101.91875
11
148.175
21
-101.91875
0
LINE
8
0
10
147.175
20
-102.91875
11
147.175
21
-118.96875
0
LINE
8
0
10
148.175
20
-100.91875
11
164.225
21
-100.91875
0
LINE
8
0
10
165.225
20
-99.91875
11
165.225
21
-83.86875
0
LINE
8
0
10
164.225
20
-82.86875
11
148.175
21
-82.86875
0
LINE
8
0
10
147.175
20
-83.86875
11
147.175
21
-99.91875
0
LINE
8
0
10
167.225
20
-160.45
11
183.275
21
-160.45
0
LINE
8
0
10
184.275
20
-159.45
11
184.275
21
-143.4
0
LINE
8
0
10
183.275
20
-142.4
11
167.225
21
-142.4
0
LINE
8
0
10
166.225
20
-143.4
11
166.225
21
-159.45
0
LINE
8
0
10
167.225
20
-141.4
11
183.275
21
-141.4
0
LINE
8
0
10
184.275
20
-140.4
11
184.275
21
-124.35
0
LINE
8
0
10
183.275
20
-123.35
11
167.225
21
-123.35
0
LINE
8
0
10
166.225
20
-124.35
11
166.225
21
-140.4
0
LINE
8
0
10
167.225
20
-122.35
11
183.275
21
-122.35
0
LINE
8
0
10
184.275
20
-121.35
11
184.275
21
-105.3
0
LINE
8
0
10
183.275
20
-104.3
11
167.225
21
-104.3
0
LINE
8
0
10
166.225
20
-105.3
11
166.225
21
-121.35
0
LINE
8
0
10
167.225
20
-103.3
11
183.275
21
-103.3
0
LINE
8
0
10
184.275
20
-102.3
11
184.275
21
-86.25
0
LINE
8
0
10
183.275
20
-85.25
11
167.225
21
-85.25
0
LINE
8
0
10
166.225
20
-86.25
11
166.225
21
-102.3
0
LINE
8
0
10
186.275
20
-150.925
11
202.325
21
-150.925
0
LINE
8
0
10
203.325
20
-149.925
11
203.325
21
-133.875
0
LINE
8
0
10
202.325
20
-132.875
11
186.275
21
-132.875
0
LINE
8
0
10
185.275
20
-133.875
11
185.275
21
-149.925
0
LINE
8
0
10
186.275
20
-131.875
11
202.325
21
-131.875
0
LINE
8
0
10
203.325
20
-130.875
11
203.325
21
-114.825
0
LINE
8
0
10
202.325
20
-113.825
11
186.275
21
-113.825
0
LINE
8
0
10
185.275
20
-114.825
11
185.275
21
-130.875
0
LINE
8
0
10
186.275
20
-112.825
11
202.325
21
-112.825
0
LINE
8
0
10
203.325
20
-111.825
11
203.325
21
-95.775
0
LINE
8
0
10
202.325
20
-94.775
11
186.275
21
-94.775
0
LINE
8
0
10
185.275
20
-95.775
11
185.275
21
-111.825
0
LINE
8
0
10
150.487812
20
-176.4213025
11
174.200539
21
-186.0018661
0
LINE
8
0
10
157.249461
20
-159.6856339
11
180.962188
21
-169.2661975
0
LINE
8
0
10
193.2534962
20
-192.6212257
11
202.8340598
21
-168.9084987
0
LINE
8
0
10
176.5178276
20
-185.8595767
11
186.0983912
21
-162.1468497
0
LINE
8
0
10
338.675
20
-189.025
11
354.725
21
-189.025
0
LINE
8
0
10
355.725
20
-188.025
11
355.725
21
-171.975
0
LINE
8
0
10
354.725
20
-170.975
11
338.675
21
-170.975
0
LINE
8
0
10
337.675
20
-171.975
11
337.675
21
-188.025
0
LINE
8
0
10
338.675
20
-169.975
11
354.725
21
-169.975
0
LINE
8
0
10
355.725
20
-168.975
11
355.725
21
-152.925
0
LINE
8
0
10
354.725
20
-151.925
11
338.675
21
-151.925
0
LINE
8
0
10
337.675
20
-152.925
11
337.675
21
-168.975
0
LINE
8
0
10
338.675
20
-150.925
11
354.725
21
-150.925
0
LINE
8
0
10
355.725
20
-149.925
11
355.725
21
-133.875
0
LINE
8
0
10
354.725
20
-132.875
11
338.675
21
-132.875
0
LINE
8
0
10
337.675
20
-133.875
11
337.675
21
-149.925
0
LINE
8
0
10
338.675
20
-131.875
11
354.725
21
-131.875
0
LINE
8
0
10
355.725
20
-130.875
11
355.725
21
-114.825
0
LINE
8
0
10
354.725
20
-113.825
11
338.675
21
-113.825
0
LINE
8
0
10
337.675
20
-114.825
11
337.675
21
-130.875
0
LINE
8
0
10
338.675
20
-112.825
11
354.725
21
-112.825
0
LINE
8
0
10
355.725
20
-111.825
11
355.725
21
-95.775
0
LINE
8
0
10
354.725
20
-94.775
11
338.675
21
-94.775
0
LINE
8
0
10
337.675
20
-95.775
11
337.675
21
-111.825
0
LINE
8
0
10
319.625
20
-189.025
11
335.675
21
-189.025
0
LINE
8
0
10
336.675
20
-188.025
11
336.675
21
-171.975
0
LINE
8
0
10
335.675
20
-170.975
11
319.625
21
-170.975
0
LINE
8
0
10
318.625
20
-171.975
11
318.625
21
-188.025
0
LINE
8
0
10
319.625
20
-169.975
11
335.675
21
-169.975
0
LINE
8
0
10
336.675
20
-168.975
11
336.675
21
-152.925
0
LINE
8
0
10
335.675
20
-151.925
11
319.625
21
-151.925
0
LINE
8
0
10
318.625
20
-152.925
11
318.625
21
-168.975
0
LINE
8
0
10
319.625
20
-150.925
11
335.675
21
-150.925
0
LINE
8
0
10
336.675
20
-149.925
11
336.675
21
-133.875
0
LINE
8
0
10
335.675
20
-132.875
11
319.625
21
-132.875
0
LINE
8
0
10
318.625
20
-133.875
11
318.625
21
-149.925
0
LINE
8
0
10
319.625
20
-131.875
11
335.675
21
-131.875
0
LINE
8
0
10
336.675
20
-130.875
11
336.675
21
-114.825
0
LINE
8
0
10
335.675
20
-113.825
11
319.625
21
-113.825
0
LINE
8
0
10
318.625
20
-114.825
11
318.625
21
-130.875
0
LINE
8
0
10
319.625
20
-112.825
11
335.675
21
-112.825
0
LINE
8
0
10
336.675
20
-111.825
11
336.675
21
-95.775
0
LINE
8
0
10
335.675
20
-94.775
11
319.625
21
-94.775
0
LINE
8
0
10
318.625
20
-95.775
11
318.625
21
-111.825
0
LINE
8
0
10
300.575
20
-179.5
11
316.625
21
-179.5
0
LINE
8
0
10
317.625
20
-178.5
11
317.625
21
-162.45
0
LINE
8
0
10
316.625
20
-161.45
11
300.575
21
-161.45
0
LINE
8
0
10
299.575
20
-162.45
11
299.575
21
-178.5
0
LINE
8
0
10
300.575
20
-160.45
11
316.625
21
-160.45
0
LINE
8
0
10
317.625
20
-159.45
11
317.625
21
-143.4
0
LINE
8
0
10
316.625
20
-142.4
11
300.575
21
-142.4
0
LINE
8
0
10
299.575
20
-143.4
11
299.575
21
-159.45
0
LINE
8
0
10
300.575
20
-141.4
11
316.625
21
-141.4
0
LINE
8
0
10
317.625
20
-140.4
11
317.625
21
-124.35
0
LINE
8
0
10
316.625
20
-123.35
11
300.575
21
-123.35
0
LINE
8
0
10
299.575
20
-124.35
11
299.575
21
-140.4
0
LINE
8
0
10
300.575
20
-122.35
11
316.625
21
-122.35
0
LINE
8
0
10
317.625
20
-121.35
11
317.625
21
-105.3
0
LINE
8
0
10
316.625
20
-104.3
11
300.575
21
-104.3
0
LINE
8
0
10
299.575
20
-105.3
11
299.575
21
-121.35
0
LINE
8
0
10
300.575
20
-103.3
11
316.625
21
-103.3
0
LINE
8
0
10
317.625
20
-102.3
11
317.625
21
-86.25
0
LINE
8
0
10
316.625
20
-85.25
11
300.575
21
-85.25
0
LINE
8
0
10
299.575
20
-86.25
11
299.575
21
-102.3
0
LINE
8
0
10
281.525
20
-174.7375
11
297.575
21
-174.7375
0
LINE
8
0
10
298.575
20
-173.7375
11
298.575
21
-157.6875
0
LINE
8
0
10
297.575
20
-156.6875
11
281.525
21
-156.6875
0
LINE
8
0
10
280.525
20
-157.6875
11
280.525
21
-173.7375
0
LINE
8
0
10
281.525
20
-155.6875
11
297.575
21
-155.6875
0
LINE
8
0
10
298.575
20
-154.6875
11
298.575
21
-138.6375
0
LINE
8
0
10
297.575
20
-137.6375
11
281.525
21
-137.6375
0
LINE
8
0
10
280.525
20
-138.6375
11
280.525
21
-154.6875
0
LINE
8
0
10
281.525
20
-136.6375
11
297.575
21
-136.6375
0
LINE
8
0
10
298.575
20
-135.6375
11
298.575
21
-119.5875
0
LINE
8
0
10
297.575
20
-118.5875
11
281.525
21
-118.5875
0
LINE
8
0
10
280.525
20
-119.5875
11
280.525
21
-135.6375
0
LINE
8
0
10
281.525
20
-117.5875
11
297.575
21
-117.5875
0
LINE
8
0
10
298.575
20
-116.5875
11
298.575
21
-100.5375
0
LINE
8
0
10
297.575
20
-99.5375
11
281.525
21
-99.5375
0
LINE
8
0
10
280.525
20
-100.5375
11
280.525
21
-116.5875
0
LINE
8
0
10
281.525
20
-98.5375
11
297.575
21
-98.5375
0
LINE
8
0
10
298.575
20
-97.5375
11
298.575
21
-81.4875
0
LINE
8
0
10
297.575
20
-80.4875
11
281.525
21
-80.4875
0
LINE
8
0
10
280.525
20
-81.4875
11
280.525
21
-97.5375
0
LINE
8
0
10
262.475
20
-158.06875
11
278.525
21
-158.06875
0
LINE
8
0
10
279.525
20
-157.06875
11
279.525
21
-141.01875
0
LINE
8
0
10
278.525
20
-140.01875
11
262.475
21
-140.01875
0
LINE
8
0
10
261.475
20
-141.01875
11
261.475
21
-157.06875
0
LINE
8
0
10
262.475
20
-139.01875
11
278.525
21
-139.01875
0
LINE
8
0
10
279.525
20
-138.01875
11
279.525
21
-121.96875
0
LINE
8
0
10
278.525
20
-120.96875
11
262.475
21
-120.96875
0
LINE
8
0
10
261.475
20
-121.96875
11
261.475
21
-138.01875
0
LINE
8
0
10
262.475
20
-119.96875
11
278.525
21
-119.96875
0
LINE
8
0
10
279.525
20
-118.96875
11
279.525
21
-102.91875
0
LINE
8
0
10
278.525
20
-101.91875
11
262.475
21
-101.91875
0
LINE
8
0
10
261.475
20
-102.91875
11
261.475
21
-118.96875
0
LINE
8
0
10
262.475
20
-100.91875
11
278.525
21
-100.91875
0
LINE
8
0
10
279.525
20
-99.91875
11
279.525
21
-83.86875
0
LINE
8
0
10
278.525
20
-82.86875
11
262.475
21
-82.86875
0
LINE
8
0
10
261.475
20
-83.86875
11
261.475
21
-99.91875
0
LINE
8
0
10
243.425
20
-160.45
11
259.475
21
-160.45
0
LINE
8
0
10
260.475
20
-159.45
11
260.475
21
-143.4
0
LINE
8
0
10
259.475
20
-142.4
11
243.425
21
-142.4
0
LINE
8
0
10
242.425
20
-143.4
11
242.425
21
-159.45
0
LINE
8
0
10
243.425
20
-141.4
11
259.475
21
-141.4
0
LINE
8
0
10
260.475
20
-140.4
11
260.475
21
-124.35
0
LINE
8
0
10
259.475
20
-123.35
11
243.425
21
-123.35
0
LINE
8
0
10
242.425
20
-124.35
11
242.425
21
-140.4
0
LINE
8
0
10
243.425
20
-122.35
11
259.475
21
-122.35
0
LINE
8
0
10
260.475
20
-121.35
11
260.475
21
-105.3
0
LINE
8
0
10
259.475
20
-104.3
11
243.425
21
-104.3
0
LINE
8
0
10
242.425
20
-105.3
11
242.425
21
-121.35
0
LINE
8
0
10
243.425
20
-103.3
11
259.475
21
-103.3
0
LINE
8
0
10
260.475
20
-102.3
11
260.475
21
-86.25
0
LINE
8
0
10
259.475
20
-85.25
11
243.425
21
-85.25
0
LINE
8
0
10
242.425
20
-86.25
11
242.425
21
-102.3
0
LINE
8
0
10
224.375
20
-150.925
11
240.425
21
-150.925
0
LINE
8
0
10
241.425
20
-149.925
11
241.425
21
-133.875
0
LINE
8
0
10
240.425
20
-132.875
11
224.375
21
-132.875
0
LINE
8
0
10
223.375
20
-133.875
11
223.375
21
-149.925
0
LINE
8
0
10
224.375
20
-131.875
11
240.425
21
-131.875
0
LINE
8
0
10
241.425
20
-130.875
11
241.425
21
-114.825
0
LINE
8
0
10
240.425
20
-113.825
11
224.375
21
-113.825
0
LINE
8
0
10
223.375
20
-114.825
11
223.375
21
-130.875
0
LINE
8
0
10
224.375
20
-112.825
11
240.425
21
-112.825
0
LINE
8
0
10
241.425
20
-111.825
11
241.425
21
-95.775
0
LINE
8
0
10
240.425
20
-94.775
11
224.375
21
-94.775
0
LINE
8
0
10
223.375
20
-95.775
11
223.375
21
-111.825
0
LINE
8
0
10
252.499461
20
-186.0018661
11
276.212188
21
-176.4213025
0
LINE
8
0
10
245.737812
20
-169.2661975
11
269.450539
21
-159.6856339
0
LINE
8
0
10
240.6016088
20
-162.1468497
11
250.1821724
21
-185.8595767
0
LINE
8
0
10
223.8659402
20
-168.9084987
11
233.4465038
21
-192.6212257
0
ARC
8
0
10
145.175
20
-173.7375
40
1
50
270
51
0
0
ARC
8
0
10
145.175
20
-157.6875
40
1
50
0
51
90
0
ARC
8
0
10
129.125
20
-157.6875
40
1
50
90
51
180
0
ARC
8
0
10
129.125
20
-173.7375
40
1
50
180
51
270
0
ARC
8
0
10
145.175
20
-154.6875
40
1
50
270
51
0
0
ARC
8
0
10
145.175
20
-138.6375
40
1
50
0
51
90
0
ARC
8
0
10
129.125
20
-138.6375
40
1
50
90
51
180
0
ARC
8
0
10
129.125
20
-154.6875
40
1
50
180
51
270
0
ARC
8
0
10
164.225
20
-157.06875
40
1
50
270
51
0
0
ARC
8
0
10
164.225
20
-141.01875
40
1
50
0
51
90
0
ARC
8
0
10
148.175
20
-141.01875
40
1
50
90
51
180
0
ARC
8
0
10
148.175
20
-157.06875
40
1
50
180
51
270
0
ARC
8
0
10
183.275
20
-159.45
40
1
50
270
51
0
0
ARC
8
0
10
183.275
20
-143.4
40
1
50
0
51
90
0
ARC
8
0
10
167.225
20
-143.4
40
1
50
90
51
180
0
ARC
8
0
10
167.225
20
-159.45
40
1
50
180
51
270
0
ARC
8
0
10
202.325
20
-149.925
40
1
50
270
51
0
0
ARC
8
0
10
202.325
20
-133.875
40
1
50
0
51
90
0
ARC
8
0
10
186.275
20
-133.875
40
1
50
90
51
180
0
ARC
8
0
10
186.275
20
-149.925
40
1
50
180
51
270
0
ARC
8
0
10
354.725
20
-188.025
40
1
50
270
51
0
0
ARC
8
0
10
354.725
20
-171.975
40
1
50
0
51
90
0
ARC
8
0
10
338.675
20
-171.975
40
1
50
90
51
180
0
ARC
8
0
10
338.675
20
-188.025
40
1
50
180
51
270
0
ARC
8
0
10
354.725
20
-168.975
40
1
50
270
51
0
0
ARC
8
0
10
354.725
20
-152.925
40
1
50
0
51
90
0
ARC
8
0
10
338.675
20
-152.925
40
1
50
90
51
180
0
ARC
8
0
10
338.675
20
-168.975
40
1
50
180
51
270
0
ARC
8
0
10
354.725
20
-149.925
40
1
50
270
51
0
0
ARC
8
0
10
354.725
20
-133.875
40
1
50
0
51
90
0
ARC
8
0
10
338.675
20
-133.875
40
1
50
90
51
180
0
ARC
8
0
10
338.675
20
-149.925
40
1
50
180
51
270
0
ARC
8
0
10
335.675
20
-188.025
40
1
50
270
51
0
0
ARC
8
0
10
335.675
20
-171.975
40
1
50
0
51
90
0
ARC
8
0
10
319.625
20
-171.975
40
1
50
90
51
180
0
ARC
8
0
10
319.625
20
-188.025
40
1
50
180
51
270
0
ARC
8
0
10
335.675
20
-168.975
40
1
50
270
51
0
0
ARC
8
0
10
335.675
20
-152.925
40
1
50
0
51
90
0
ARC
8
0
10
319.625
20
-152.925
40
1
50
90
51
180
0
ARC
8
0
10
319.625
20
-168.975
40
1
50
180
51
270
0
ARC
8
0
10
335.675
20
-149.925
40
1
50
270
51
0
0
ARC
8
0
10
335.675
20
-133.875
40
1
50
0
51
90
0
ARC
8
0
10
319.625
20
-133.875
40
1
50
90
51
180
0
ARC
8
0
10
319.625
20
-149.925
40
1
50
180
51
270
0
ARC
8
0
10
316.625
20
-178.5
40
1
50
270
51
0
0
ARC
8
0
10
316.625
20
-162.45
40
1
50
0
51
90
0
ARC
8
0
10
300.575
20
-162.45
40
1
50
90
51
180
0
ARC
8
0
10
300.575
20
-178.5
40
1
50
180
51
270
0
ARC
8
0
10
316.625
20
-159.45
40
1
50
270
51
0
0
ARC
8
0
10
316.625
20
-143.4
40
1
50
0
51
90
0
ARC
8
0
10
300.575
20
-143.4
40
1
50
90
51
180
0
ARC
8
0
10
300.575
20
-159.45
40
1
50
180
51
270
0
ARC
8
0
10
297.575
20
-173.7375
40
1
50
270
51
0
0
ARC
8
0
10
297.575
20
-157.6875
40
1
50
0
51
90
0
ARC
8
0
10
281.525
20
-157.6875
40
1
50
90
51
180
0
ARC
8
0
10
281.525
20
-173.7375
40
1
50
180
51
270
0
ARC
8
0
10
297.575
20
-154.6875
40
1
50
270
51
0
0
ARC
8
0
10
297.575
20
-138.6375
40
1
50
0
51
90
0
ARC
8
0
10
281.525
20
-138.6375
40
1
50
90
51
180
0
ARC
8
0
10
281.525
20
-154.6875
40
1
50
180
51
270
0
ARC
8
0
10
278.525
20
-157.06875
40
1
50
270
51
0
0
ARC
8
0
10
278.525
20
-141.01875
40
1
50
0
51
90
0
ARC
8
0
10
262.475
20
-141.01875
40
1
50
90
51
180
0
ARC
8
0
10
262.475
20
-157.06875
40
1
50
180
51
270
0
ARC
8
0
10
240.425
20
-149.925
40
1
50
270
51
0
0
ARC
8
0
10
240.425
20
-133.875
40
1
50
0
51
90
0
ARC
8
0
10
224.375
20
-133.875
40
1
50
90
51
180
0
ARC
8
0
10
224.375
20
-149.925
40
1
50
180
51
270
0
ARC
8
0
10
88.025
20
-188.025
40
1
50
270
51
0
0
ARC
8
0
10
88.025
20
-171.975
40
1
50
0
51
90
0
ARC
8
0
10
71.975
20
-171.975
40
1
50
90
51
180
0
ARC
8
0
10
71.975
20
-188.025
40
1
50
180
51
270
0
ARC
8
0
10
88.025
20
-168.975
40
1
50
270
51
0
0
ARC
8
0
10
88.025
20
-152.925
40
1
50
0
51
90
0
ARC
8
0
10
71.975
20
-152.925
40
1
50
90
51
180
0
ARC
8
0
10
71.975
20
-168.975
40
1
50
180
51
270
0
ARC
8
0
10
88.025
20
-149.925
40
1
50
270
51
0
0
ARC
8
0
10
88.025
20
-133.875
40
1
50
0
51
90
0
ARC
8
0
10
71.975
20
-133.875
40
1
50
90
51
180
0
ARC
8
0
10
71.975
20
-149.925
40
1
50
180
51
270
0
ARC
8
0
10
107.075
20
-188.025
40
1
50
270
51
0
0
ARC
8
0
10
107.075
20
-171.975
40
1
50
0
51
90
0
ARC
8
0
10
91.025
20
-171.975
40
1
50
90
51
180
0
ARC
8
0
10
91.025
20
-188.025
40
1
50
180
51
270
0
ARC
8
0
10
107.075
20
-168.975
40
1
50
270
51
0
0
ARC
8
0
10
107.075
20
-152.925
40
1
50
0
51
90
0
ARC
8
0
10
91.025
20
-152.925
40
1
50
90
51
180
0
ARC
8
0
10
91.025
20
-168.975
40
1
50
180
51
270
0
ARC
8
0
10
107.075
20
-149.925
40
1
50
270
51
0
0
ARC
8
0
10
107.075
20
-133.875
40
1
50
0
51
90
0
ARC
8
0
10
91.025
20
-133.875
40
1
50
90
51
180
0
ARC
8
0
10
91.025
20
-149.925
40
1
50
180
51
270
0
ARC
8
0
10
126.125
20
-178.5
40
1
50
270
51
0
0
ARC
8
0
10
126.125
20
-162.45
40
1
50
0
51
90
0
ARC
8
0
10
110.075
20
-162.45
40
1
50
90
51
180
0
ARC
8
0
10
110.075
20
-178.5
40
1
50
180
51
270
0
ARC
8
0
10
126.125
20
-159.45
40
1
50
270
51
0
0
ARC
8
0
10
126.125
20
-143.4
40
1
50
0
51
90
0
ARC
8
0
10
110.075
20
-143.4
40
1
50
90
51
180
0
ARC
8
0
10
110.075
20
-159.45
40
1
50
180
51
270
0
ARC
8
0
10
145.175
20
-135.6375
40
1
50
270
51
0
0
ARC
8
0
10
145.175
20
-119.5875
40
1
50
0
51
90
0
ARC
8
0
10
129.125
20
-119.5875
40
1
50
90
51
180
0
ARC
8
0
10
129.125
20
-135.6375
40
1
50
180
51
270
0
ARC
8
0
10
145.175
20
-116.5875
40
1
50
270
51
0
0
ARC
8
0
10
145.175
20
-100.5375
40
1
50
0
51
90
0
ARC
8
0
10
129.125
20
-100.5375
40
1
50
90
51
180
0
ARC
8
0
10
129.125
20
-116.5875
40
1
50
180
51
270
0
ARC
8
0
10
145.175
20
-97.5375
40
1
50
270
51
0
0
ARC
8
0
10
145.175
20
-81.4875
40
1
50
0
51
90
0
ARC
8
0
10
129.125
20
-81.4875
40
1
50
90
51
180
0
ARC
8
0
10
129.125
20
-97.5375
40
1
50
180
51
270
0
ARC
8
0
10
164.225
20
-138.01875
40
1
50
270
51
0
0
ARC
8
0
10
164.225
20
-121.96875
40
1
50
0
51
90
0
ARC
8
0
10
148.175
20
-121.96875
40
1
50
90
51
180
0
ARC
8
0
10
148.175
20
-138.01875
40
1
50
180
51
270
0
ARC
8
0
10
164.225
20
-118.96875
40
1
50
270
51
0
0
ARC
8
0
10
164.225
20
-102.91875
40
1
50
0
51
90
0
ARC
8
0
10
148.175
20
-102.91875
40
1
50
90
51
180
0
ARC
8
0
10
148.175
20
-118.96875
40
1
50
180
51
270
0
ARC
8
0
10
164.225
20
-99.91875
40
1
50
270
51
0
0
ARC
8
0
10
164.225
20
-83.86875
40
1
50
0
51
90
0
ARC
8
0
10
148.175
20
-83.86875
40
1
50
90
51
180
0
ARC
8
0
10
148.175
20
-99.91875
40
1
50
180
51
270
0
ARC
8
0
10
183.275
20
-140.4
40
1
50
270
51
0
0
ARC
8
0
10
183.275
20
-124.35
40
1
50
0
51
90
0
ARC
8
0
10
167.225
20
-124.35
40
1
50
90
51
180
0
ARC
8
0
10
167.225
20
-140.4
40
1
50
180
51
270
0
ARC
8
0
10
183.275
20
-121.35
40
1
50
270
51
0
0
ARC
8
0
10
183.275
20
-105.3
40
1
50
0
51
90
0
ARC
8
0
10
167.225
20
-105.3
40
1
50
90
51
180
0
ARC
8
0
10
167.225
20
-121.35
40
1
50
180
51
270
0
ARC
8
0
10
183.275
20
-102.3
40
1
50
270
51
0
0
ARC
8
0
10
183.275
20
-86.25
40
1
50
0
51
90
0
ARC
8
0
10
167.225
20
-86.25
40
1
50
90
51
180
0
ARC
8
0
10
167.225
20
-102.3
40
1
50
180
51
270
0
ARC
8
0
10
202.325
20
-130.875
40
1
50
270
51
0
0
ARC
8
0
10
202.325
20
-114.825
40
1
50
0
51
90
0
ARC
8
0
10
186.275
20
-114.825
40
1
50
90
51
180
0
ARC
8
0
10
186.275
20
-130.875
40
1
50
180
51
270
0
ARC
8
0
10
202.325
20
-111.825
40
1
50
270
51
0
0
ARC
8
0
10
202.325
20
-95.775
40
1
50
0
51
90
0
ARC
8
0
10
186.275
20
-95.775
40
1
50
90
51
180
0
ARC
8
0
10
186.275
20
-111.825
40
1
50
180
51
270
0
ARC
8
0
10
354.725
20
-130.875
40
1
50
270
51
0
0
ARC
8
0
10
354.725
20
-114.825
40
1
50
0
51
90
0
ARC
8
0
10
338.675
20
-114.825
40
1
50
90
51
180
0
ARC
8
0
10
338.675
20
-130.875
40
1
50
180
51
270
0
ARC
8
0
10
354.725
20
-111.825
40
1
50
270
51
0
0
ARC
8
0
10
354.725
20
-95.775
40
1
50
0
51
90
0
ARC
8
0
10
338.675
20
-95.775
40
1
50
90
51
180
0
ARC
8
0
10
338.675
20
-111.825
40
1
50
180
51
270
0
ARC
8
0
10
335.675
20
-130.875
40
1
50
270
51
0
0
ARC
8
0
10
335.675
20
-114.825
40
1
50
0
51
90
0
ARC
8
0
10
319.625
20
-114.825
40
1
50
90
51
180
0
ARC
8
0
10
319.625
20
-130.875
40
1
50
180
51
270
0
ARC
8
0
10
335.675
20
-111.825
40
1
50
270
51
0
0
ARC
8
0
10
335.675
20
-95.775
40
1
50
0
51
90
0
ARC
8
0
10
319.625
20
-95.775
40
1
50
90
51
180
0
ARC
8
0
10
319.625
20
-111.825
40
1
50
180
51
270
0
ARC
8
0
10
316.625
20
-140.4
40
1
50
270
51
0
0
ARC
8
0
10
316.625
20
-124.35
40
1
50
0
51
90
0
ARC
8
0
10
300.575
20
-124.35
40
1
50
90
51
180
0
ARC
8
0
10
300.575
20
-140.4
40
1
50
180
51
270
0
ARC
8
0
10
316.625
20
-121.35
40
1
50
270
51
0
0
ARC
8
0
10
316.625
20
-105.3
40
1
50
0
51
90
0
ARC
8
0
10
300.575
20
-105.3
40
1
50
90
51
180
0
ARC
8
0
10
300.575
20
-121.35
40
1
50
180
51
270
0
ARC
8
0
10
316.625
20
-102.3
40
1
50
270
51
0
0
ARC
8
0
10
316.625
20
-86.25
40
1
50
0
51
90
0
ARC
8
0
10
300.575
20
-86.25
40
1
50
90
51
180
0
ARC
8
0
10
300.575
20
-102.3
40
1
50
180
51
270
0
ARC
8
0
10
297.575
20
-135.6375
40
1
50
270
51
0
0
ARC
8
0
10
297.575
20
-119.5875
40
1
50
0
51
90
0
ARC
8
0
10
281.525
20
-119.5875
40
1
50
90
51
180
0
ARC
8
0
10
281.525
20
-135.6375
40
1
50
180
51
270
0
ARC
8
0
10
297.575
20
-116.5875
40
1
50
270
51
0
0
ARC
8
0
10
297.575
20
-100.5375
40
1
50
0
51
90
0
ARC
8
0
10
281.525
20
-100.5375
40
1
50
90
51
180
0
ARC
8
0
10
281.525
20
-116.5875
40
1
50
180
51
270
0
ARC
8
0
10
297.575
20
-97.5375
40
1
50
270
51
0
0
ARC
8
0
10
297.575
20
-81.4875
40
1
50
0
51
90
0
ARC
8
0
10
281.525
20
-81.4875
40
1
50
90
51
180
0
ARC
8
0
10
281.525
20
-97.5375
40
1
50
180
51
270
0
ARC
8
0
10
278.525
20
-138.01875
40
1
50
270
51
0
0
ARC
8
0
10
278.525
20
-121.96875
40
1
50
0
51
90
0
ARC
8
0
10
262.475
20
-121.96875
40
1
50
90
51
180
0
ARC
8
0
10
262.475
20
-138.01875
40
1
50
180
51
270
0
ARC
8
0
10
278.525
20
-118.96875
40
1
50
270
51
0
0
ARC
8
0
10
278.525
20
-102.91875
40
1
50
0
51
90
0
ARC
8
0
10
262.475
20
-102.91875
40
1
50
90
51
180
0
ARC
8
0
10
262.475
20
-118.96875
40
1
50
180
51
270
0
ARC
8
0
10
278.525
20
-99.91875
40
1
50
270
51
0
0
ARC
8
0
10
278.525
20
-83.86875
40
1
50
0
51
90
0
ARC
8
0
10
262.475
20
-83.86875
40
1
50
90
51
180
0
ARC
8
0
10
262.475
20
-99.91875
40
1
50
180
51
270
0
ARC
8
0
10
240.425
20
-130.875
40
1
50
270
51
0
0
ARC
8
0
10
240.425
20
-114.825
40
1
50
0
51
90
0
ARC
8
0
10
224.375
20
-114.825
40
1
50
90
51
180
0
ARC
8
0
10
224.375
20
-130.875
40
1
50
180
51
270
0
ARC
8
0
10
240.425
20
-111.825
40
1
50
270
51
0
0
ARC
8
0
10
240.425
20
-95.775
40
1
50
0
51
90
0
ARC
8
0
10
224.375
20
-95.775
40
1
50
90
51
180
0
ARC
8
0
10
224.375
20
-111.825
40
1
50
180
51
270
0
ARC
8
0
10
88.025
20
-130.875
40
1
50
270
51
0
0
ARC
8
0
10
88.025
20
-114.825
40
1
50
0
51
90
0
ARC
8
0
10
71.975
20
-114.825
40
1
50
90
51
180
0
ARC
8
0
10
71.975
20
-130.875
40
1
50
180
51
270
0
ARC
8
0
10
88.025
20
-111.825
40
1
50
270
51
0
0
ARC
8
0
10
88.025
20
-95.775
40
1
50
0
51
90
0
ARC
8
0
10
71.975
20
-95.775
40
1
50
90
51
180
0
ARC
8
0
10
71.975
20
-111.825
40
1
50
180
51
270
0
ARC
8
0
10
107.075
20
-130.875
40
1
50
270
51
0
0
ARC
8
0
10
107.075
20
-114.825
40
1
50
0
51
90
0
ARC
8
0
10
91.025
20
-114.825
40
1
50
90
51
180
0
ARC
8
0
10
91.025
20
-130.875
40
1
50
180
51
270
0
ARC
8
0
10
107.075
20
-111.825
40
1
50
270
51
0
0
ARC
8
0
10
107.075
20
-95.775
40
1
50
0
51
90
0
ARC
8
0
10
91.025
20
-95.775
40
1
50
90
51
180
0
ARC
8
0
10
91.025
20
-111.825
40
1
50
180
51
270
0
ARC
8
0
10
126.125
20
-140.4
40
1
50
270
51
0
0
ARC
8
0
10
126.125
20
-124.35
40
1
50
0
51
90
0
ARC
8
0
10
110.075
20
-124.35
40
1
50
90
51
180
0
ARC
8
0
10
110.075
20
-140.4
40
1
50
180
51
270
0
ARC
8
0
10
126.125
20
-121.35
40
1
50
270
51
0
0
ARC
8
0
10
126.125
20
-105.3
40
1
50
0
51
90
0
ARC
8
0
10
110.075
20
-105.3
40
1
50
90
51
180
0
ARC
8
0
10
110.075
20
-121.35
40
1
50
180
51
270
0
ARC
8
0
10
126.125
20
-102.3
40
1
50
270
51
0
0
ARC
8
0
10
126.125
20
-86.25
40
1
50
0
51
90
0
ARC
8
0
10
110.075
20
-86.25
40
1
50
90
51
180
0
ARC
8
0
10
110.075
20
-102.3
40
1
50
180
51
270
0
ARC
8
0
10
259.475
20
-159.45
40
1
50
270
51
0
0
ARC
8
0
10
259.475
20
-143.4
40
1
50
0
51
90
0
ARC
8
0
10
243.425
20
-143.4
40
1
50
90
51
180
0
ARC
8
0
10
243.425
20
-159.45
40
1
50
180
51
270
0
ARC
8
0
10
259.475
20
-140.4
40
1
50
270
51
0
0
ARC
8
0
10
259.475
20
-124.35
40
1
50
0
51
90
0
ARC
8
0
10
243.425
20
-124.35
40
1
50
90
51
180
0
ARC
8
0
10
243.425
20
-140.4
40
1
50
180
51
270
0
ARC
8
0
10
259.475
20
-121.35
40
1
50
270
51
0
0
ARC
8
0
10
259.475
20
-105.3
40
1
50
0
51
90
0
ARC
8
0
10
243.425
20
-105.3
40
1
50
90
51
180
0
ARC
8
0
10
243.425
20
-121.35
40
1
50
180
51
270
0
ARC
8
0
10
259.475
20
-102.3
40
1
50
270
51
0
0
ARC
8
0
10
259.475
20
-86.25
40
1
50
0
51
90
0
ARC
8
0
10
243.425
20
-86.25
40
1
50
90
51
180
0
ARC
8
0
10
243.425
20
-102.3
40
1
50
180
51
270
0
LINE
8
0
10
175.5023295
20
-185.4492888
11
181.5147653
21
-170.567988
0
LINE
8
0
10
155.9476705
20
-160.2382112
11
149.9352347
21
-175.119512
0
LINE
8
0
10
276.7647653
20
-175.119512
11
270.7523295
21
-160.2382112
0
LINE
8
0
10
245.1852347
20
-170.567988
11
251.1976705
21
-185.4492888
0
ARC
8
0
10
174.5751456
20
-185.0746822
40
1
50
248.0000006
51
338.0000006
0
ARC
8
0
10
180.5875814
20
-170.1933814
40
1
50
338.0000006
51
68.0000006
0
ARC
8
0
10
156.8748544
20
-160.6128178
40
1
50
68.0000006
51
158.0000006
0
ARC
8
0
10
150.8624186
20
-175.4941186
40
1
50
158.0000006
51
248.0000006
0
ARC
8
0
10
275.8375814
20
-175.4941186
40
1
50
291.9999994
51
21.9999994
0
ARC
8
0
10
269.8251456
20
-160.6128178
40
1
50
21.9999994
51
111.9999994
0
ARC
8
0
10
246.1124186
20
-170.1933814
40
1
50
111.9999994
51
201.9999994
0
ARC
8
0
10
252.1248544
20
-185.0746822
40
1
50
201.9999994
51
291.9999994
0
LINE
8
0
10
177.0704049
20
-187.1613672
11
191.9517057
21
-193.173803
0
LINE
8
0
10
202.2814825
20
-167.6067082
11
187.4001817
21
-161.5942724
0
LINE
8
0
10
234.7482943
20
-193.173803
11
249.6295951
21
-187.1613672
0
LINE
8
0
10
239.2998183
20
-161.5942724
11
224.4185175
21
-167.6067082
0
ARC
8
0
10
201.9068759
20
-168.5338921
40
1
50
338.0000006
51
68.0000006
0
ARC
8
0
10
187.0255751
20
-162.5214563
40
1
50
68.0000006
51
158.0000006
0
ARC
8
0
10
177.4450115
20
-186.2341833
40
1
50
158.0000006
51
248.0000006
0
ARC
8
0
10
192.3263123
20
-192.2466191
40
1
50
248.0000006
51
338.0000006
0
ARC
8
0
10
239.6744249
20
-162.5214563
40
1
50
21.9999994
51
111.9999994
0
ARC
8
0
10
224.7931241
20
-168.5338921
40
1
50
111.9999994
51
201.9999994
0
ARC
8
0
10
234.3736877
20
-192.2466191
40
1
50
201.9999994
51
291.9999994
0
ARC
8
0
10
249.2549885
20
-186.2341833
40
1
50
291.9999994
51
21.9999994
0
ENDSEC
0
EOF