0
SECTION
2
HEADER
9
$INSUNITS
70
4
0
ENDSEC
0
SECTION
2
TABLES
0
TABLE
2
LTYPE
0
LTYPE
72
65
70
64
2
CONTINUOUS
3
______
73
0
40
0
0
ENDTAB
0
TABLE
2
LAYER
0
ENDTAB
0
ENDSEC
0
SECTION
2
ENTITIES
0
LINE
8
0
10
139.475
20
-178.525
11
139.475
21
-85.275
0
LINE
8
0
10
141.475
20
-83.275
11
160.052864
21
-83.275
0
LINE
8
0
10
160.9472912
20
-83.0638544
11
179.4034045
21
-73.8357978
0
LINE
8
0
10
179.7597767
20
-73.6983872
11
196.3610248
21
-69.061235
0
LINE
8
0
10
196.8990798
20
-68.9875
11
236.4509202
21
-68.9875
0
LINE
8
0
10
236.9889752
20
-69.061235
11
253.6277958
21
-73.7088821
0
LINE
8
0
10
253.9142476
20
-73.8130087
11
273.6495068
21
-82.7430963
0
LINE
8
0
10
274.825
20
-84.5652347
11
274.825
21
-157.0891295
0
LINE
8
0
10
274.6814476
20
-157.8331741
11
264.4454094
21
-183.3728638
0
LINE
8
0
10
261.8491634
20
-184.4869631
11
217.6745019
21
-166.8993321
0
LINE
8
0
10
216.5826365
20
-166.7887076
11
198.909164
21
-169.9491841
0
LINE
8
0
10
198.3668038
20
-170.1290981
11
177.9972912
21
-180.3138544
0
LINE
8
0
10
177.102864
20
-180.525
11
141.475
21
-180.525
0
ARC
8
0
10
141.475
20
-85.275
40
2
50
90
51
180
0
ARC
8
0
10
160.052864
20
-81.275
40
2
50
270
51
296.5650512
0
ARC
8
0
10
180.2978317
20
-75.6246522
40
2
50
105.6064056
51
116.5650512
0
ARC
8
0
10
196.8990798
20
-70.9875
40
2
50
90
51
105.6064056
0
ARC
8
0
10
236.4509202
20
-70.9875
40
2
50
74.3935944
51
90
0
ARC
8
0
10
253.0897408
20
-75.6351471
40
2
50
65.6535307
51
74.3935944
0
ARC
8
0
10
272.825
20
-84.5652347
40
2
50
0
51
65.6535307
0
ARC
8
0
10
272.825
20
-157.0891295
40
2
50
338.1596082
51
0
0
ARC
8
0
10
262.5889618
20
-182.6288192
40
2
50
248.2905993
51
338.1596082
0
ARC
8
0
10
216.9347035
20
-168.757476
40
2
50
68.2905993
51
100.1388068
0
ARC
8
0
10
199.261231
20
-171.9179525
40
2
50
100.1388068
51
116.5650512
0
ARC
8
0
10
177.102864
20
-178.525
40
2
50
270
51
296.5650512
0
ARC
8
0
10
141.475
20
-178.525
40
2
50
180
51
270
0
LINE
8
0
10
427.225
20
-178.525
11
427.225
21
-85.275
0
LINE
8
0
10
425.225
20
-83.275
11
406.647136
21
-83.275
0
LINE
8
0
10
405.7527088
20
-83.0638544
11
387.2965955
21
-73.8357978
0
LINE
8
0
10
386.9402233
20
-73.6983872
11
370.3389752
21
-69.061235
0
LINE
8
0
10
369.8009202
20
-68.9875
11
330.2490798
21
-68.9875
0
LINE
8
0
10
329.7110248
20
-69.061235
11
313.0722042
21
-73.7088821
0
LINE
8
0
10
312.7857524
20
-73.8130087
11
293.0504932
21
-82.7430963
0
LINE
8
0
10
291.875
20
-84.5652347
11
291.875
21
-157.0891295
0
LINE
8
0
10
292.0185524
20
-157.8331741
11
302.2545906
21
-183.3728638
0
LINE
8
0
10
304.8508366
20
-184.4869631
11
349.0254981
21
-166.8993321
0
LINE
8
0
10
350.1173635
20
-166.7887076
11
367.790836
21
-169.9491841
0
LINE
8
0
10
368.3331962
20
-170.1290981
11
388.7027088
21
-180.3138544
0
LINE
8
0
10
389.597136
20
-180.525
11
425.225
21
-180.525
0
ARC
8
0
10
425.225
20
-85.275
40
2
50
0
51
90
0
ARC
8
0
10
406.647136
20
-81.275
40
2
50
243.4349488
51
270
0
ARC
8
0
10
386.4021683
20
-75.6246522
40
2
50
63.4349488
51
74.3935944
0
ARC
8
0
10
369.8009202
20
-70.9875
40
2
50
74.3935944
51
90
0
ARC
8
0
10
330.2490798
20
-70.9875
40
2
50
90
51
105.6064056
0
ARC
8
0
10
313.6102592
20
-75.6351471
40
2
50
105.6064056
51
114.3464693
0
ARC
8
0
10
293.875
20
-84.5652347
40
2
50
114.3464693
51
180
0
ARC
8
0
10
293.875
20
-157.0891295
40
2
50
180
51
201.8403918
0
ARC
8
0
10
304.1110382
20
-182.6288192
40
2
50
201.8403918
51
291.7094007
0
ARC
8
0
10
349.7652965
20
-168.757476
40
2
50
79.8611932
51
111.7094007
0
ARC
8
0
10
367.438769
20
-171.9179525
40
2
50
63.4349488
51
79.8611932
0
ARC
8
0
10
389.597136
20
-178.525
40
2
50
243.4349488
51
270
0
ARC
8
0
10
425.225
20
-178.525
40
2
50
270
51
0
0
ENDSEC
0
EOF