0
SECTION
2
HEADER
9
$INSUNITS
70
4
0
ENDSEC
0
SECTION
2
TABLES
0
TABLE
2
LTYPE
0
LTYPE
72
65
70
0
2
CONTINUOUS
3
______
73
0
40
0
0
LTYPE
72
65
70
0
2
DASHED
3
_ _ _ 
73
2
40
7.5
49
5
49
-2.5
0
LTYPE
72
65
70
0
2
DOTTED
3
. . . 
73
2
40
1.5
49
0.5
49
-1
0
ENDTAB
0
TABLE
2
LAYER
0
ENDTAB
0
ENDSEC
0
SECTION
2
ENTITIES
0
LINE
8
0
6
CONTINUOUS
10
69.975
20
-190.225
11
109.075
21
-190.225
0
ARC
8
0
6
CONTINUOUS
10
109.075
20
-190.025
40
0.2
50
270
51
360
0
LINE
8
0
6
CONTINUOUS
10
109.275
20
-190.025
11
109.275
21
-180.7
0
LINE
8
0
6
CONTINUOUS
10
109.275
20
-180.7
11
128.125
21
-180.7
0
ARC
8
0
6
CONTINUOUS
10
128.125
20
-180.5
40
0.2
50
270
51
360
0
LINE
8
0
6
CONTINUOUS
10
128.325
20
-180.5
11
128.325
21
-175.9375
0
LINE
8
0
6
CONTINUOUS
10
128.325
20
-175.9375
11
146.1465296
21
-175.9375
0
LINE
8
0
6
CONTINUOUS
10
148.5262871
20
-176.6290456
11
146.1465296
21
-175.9375
0
LINE
8
0
6
CONTINUOUS
10
192.4782122
20
-196.1977034
11
148.5262871
21
-176.6290456
0
ARC
8
0
6
CONTINUOUS
10
192.5595596
20
-196.0149944
40
0.2
50
245.9999707
51
336
0
LINE
8
0
6
CONTINUOUS
10
204.7715048
20
-169.0782349
11
192.7422686
21
-196.0963418
0
ARC
8
0
6
CONTINUOUS
10
204.5887958
20
-168.9968875
40
0.2
50
335.9999707
51
426.129288
0
LINE
8
0
6
CONTINUOUS
10
185.475
20
-160.3197974
11
204.6697306
21
-168.8139953
0
LINE
8
0
6
CONTINUOUS
10
185.475
20
-160.3197974
11
185.475
21
-152.125
0
LINE
8
0
6
CONTINUOUS
10
185.475
20
-152.125
11
204.325
21
-152.125
0
ARC
8
0
6
CONTINUOUS
10
204.325
20
-151.925
40
0.2
50
270
51
360
0
LINE
8
0
6
CONTINUOUS
10
204.525
20
-151.925
11
204.525
21
-93.775
0
ARC
8
0
6
CONTINUOUS
10
204.325
20
-93.775
40
0.2
50
0
51
90
0
LINE
8
0
6
CONTINUOUS
10
204.325
20
-93.575
11
185.475
21
-93.575
0
LINE
8
0
6
CONTINUOUS
10
185.475
20
-93.575
11
185.475
21
-84.25
0
ARC
8
0
6
CONTINUOUS
10
185.275
20
-84.25
40
0.2
50
0
51
90
0
LINE
8
0
6
CONTINUOUS
10
185.275
20
-84.05
11
166.425
21
-84.05
0
LINE
8
0
6
CONTINUOUS
10
166.425
20
-84.05
11
166.425
21
-81.86875
0
ARC
8
0
6
CONTINUOUS
10
166.225
20
-81.86875
40
0.2
50
0
51
90
0
LINE
8
0
6
CONTINUOUS
10
166.225
20
-81.66875
11
147.375
21
-81.66875
0
LINE
8
0
6
CONTINUOUS
10
147.375
20
-81.66875
11
147.375
21
-79.4875
0
ARC
8
0
6
CONTINUOUS
10
147.175
20
-79.4875
40
0.2
50
0
51
90
0
LINE
8
0
6
CONTINUOUS
10
147.175
20
-79.2875
11
127.125
21
-79.2875
0
ARC
8
0
6
CONTINUOUS
10
127.125
20
-79.4875
40
0.2
50
90
51
180
0
LINE
8
0
6
CONTINUOUS
10
126.925
20
-79.4875
11
126.925
21
-84.05
0
LINE
8
0
6
CONTINUOUS
10
126.925
20
-84.05
11
108.075
21
-84.05
0
ARC
8
0
6
CONTINUOUS
10
108.075
20
-84.25
40
0.2
50
90
51
180
0
LINE
8
0
6
CONTINUOUS
10
107.875
20
-84.25
11
107.875
21
-93.575
0
LINE
8
0
6
CONTINUOUS
10
69.975
20
-93.575
11
107.875
21
-93.575
0
ARC
8
0
6
CONTINUOUS
10
69.975
20
-93.775
40
0.2
50
90
51
180
0
LINE
8
0
6
CONTINUOUS
10
69.775
20
-190.025
11
69.775
21
-93.775
0
ARC
8
0
6
CONTINUOUS
10
69.975
20
-190.025
40
0.2
50
180
51
270
0
LINE
8
0
6
CONTINUOUS
10
327.15
20
-190.225
11
366.25
21
-190.225
0
ARC
8
0
6
CONTINUOUS
10
366.25
20
-190.025
40
0.2
50
270
51
360
0
LINE
8
0
6
CONTINUOUS
10
366.45
20
-190.025
11
366.45
21
-93.775
0
ARC
8
0
6
CONTINUOUS
10
366.25
20
-93.775
40
0.2
50
0
51
90
0
LINE
8
0
6
CONTINUOUS
10
328.35
20
-93.575
11
366.25
21
-93.575
0
LINE
8
0
6
CONTINUOUS
10
328.35
20
-93.575
11
328.35
21
-84.25
0
ARC
8
0
6
CONTINUOUS
10
328.15
20
-84.25
40
0.2
50
0
51
90
0
LINE
8
0
6
CONTINUOUS
10
328.15
20
-84.05
11
309.3
21
-84.05
0
LINE
8
0
6
CONTINUOUS
10
309.3
20
-84.05
11
309.3
21
-79.4875
0
ARC
8
0
6
CONTINUOUS
10
309.1
20
-79.4875
40
0.2
50
0
51
90
0
LINE
8
0
6
CONTINUOUS
10
309.1
20
-79.2875
11
289.05
21
-79.2875
0
ARC
8
0
6
CONTINUOUS
10
289.05
20
-79.4875
40
0.2
50
90
51
180
0
LINE
8
0
6
CONTINUOUS
10
288.85
20
-79.4875
11
288.85
21
-81.66875
0
LINE
8
0
6
CONTINUOUS
10
288.85
20
-81.66875
11
270
21
-81.66875
0
ARC
8
0
6
CONTINUOUS
10
270
20
-81.86875
40
0.2
50
90
51
180
0
LINE
8
0
6
CONTINUOUS
10
269.8
20
-81.86875
11
269.8
21
-84.05
0
LINE
8
0
6
CONTINUOUS
10
269.8
20
-84.05
11
250.95
21
-84.05
0
ARC
8
0
6
CONTINUOUS
10
250.95
20
-84.25
40
0.2
50
90
51
180
0
LINE
8
0
6
CONTINUOUS
10
250.75
20
-84.25
11
250.75
21
-93.575
0
LINE
8
0
6
CONTINUOUS
10
250.75
20
-93.575
11
231.9
21
-93.575
0
ARC
8
0
6
CONTINUOUS
10
231.9
20
-93.775
40
0.2
50
90
51
180
0
LINE
8
0
6
CONTINUOUS
10
231.7
20
-151.925
11
231.7
21
-93.775
0
ARC
8
0
6
CONTINUOUS
10
231.9
20
-151.925
40
0.2
50
180
51
270
0
LINE
8
0
6
CONTINUOUS
10
231.9
20
-152.125
11
250.75
21
-152.125
0
LINE
8
0
6
CONTINUOUS
10
250.75
20
-152.125
11
250.75
21
-160.4291515
0
LINE
8
0
6
CONTINUOUS
10
250.75
20
-160.4291515
11
231.5957368
21
-168.9054414
0
ARC
8
0
6
CONTINUOUS
10
231.6362042
20
-168.9968875
40
0.1
50
113.870712
51
204.0000508
0
LINE
8
0
6
CONTINUOUS
10
231.5448497
20
-169.0375612
11
243.5740859
21
-196.0556681
0
ARC
8
0
6
CONTINUOUS
10
243.6654404
20
-196.0149944
40
0.1
50
204
51
294.0000293
0
LINE
8
0
6
CONTINUOUS
10
243.7061141
20
-196.1063489
11
287.6642642
21
-176.5349195
0
LINE
8
0
6
CONTINUOUS
10
287.6642642
20
-176.5349195
11
289.7201137
21
-175.9375
0
LINE
8
0
6
CONTINUOUS
10
289.7201137
20
-175.9375
11
307.9
21
-175.9375
0
LINE
8
0
6
CONTINUOUS
10
307.9
20
-175.9375
11
307.9
21
-180.5
0
ARC
8
0
6
CONTINUOUS
10
308.1
20
-180.5
40
0.2
50
180
51
270
0
LINE
8
0
6
CONTINUOUS
10
308.1
20
-180.7
11
326.95
21
-180.7
0
LINE
8
0
6
CONTINUOUS
10
326.95
20
-180.7
11
326.95
21
-190.025
0
ARC
8
0
6
CONTINUOUS
10
327.15
20
-190.025
40
0.2
50
180
51
270
0
ENDSEC
0
EOF