0
SECTION
2
HEADER
9
$INSUNITS
70
4
0
ENDSEC
0
SECTION
2
TABLES
0
TABLE
2
LTYPE
0
LTYPE
72
65
70
0
2
CONTINUOUS
3
______
73
0
40
0
0
LTYPE
72
65
70
0
2
DASHED
3
_ _ _ 
73
2
40
7.5
49
5
49
-2.5
0
LTYPE
72
65
70
0
2
DOTTED
3
. . . 
73
2
40
1.5
49
0.5
49
-1
0
ENDTAB
0
TABLE
2
LAYER
0
ENDTAB
0
ENDSEC
0
SECTION
2
ENTITIES
0
LINE
8
0
6
CONTINUOUS
10
287.6298156
20
-176.4407934
11
290.05
21
-175.7375
0
LINE
8
0
6
CONTINUOUS
10
290.05
20
-175.7375
11
289.55
21
-156.1875
0
LINE
8
0
6
CONTINUOUS
10
289.55
20
-156.1875
11
250.95
21
-156.1875
0
LINE
8
0
6
CONTINUOUS
10
250.95
20
-156.1875
11
250.95
21
-160.45
0
LINE
8
0
6
CONTINUOUS
10
250.95
20
-160.45
11
231.6362042
21
-168.9968875
0
LINE
8
0
6
CONTINUOUS
10
231.6362042
20
-168.9968875
11
243.6654404
21
-196.0149944
0
LINE
8
0
6
CONTINUOUS
10
243.6654404
20
-196.0149944
11
287.6298156
21
-176.4407934
0
ENDSEC
0
EOF