0
SECTION
2
HEADER
9
$INSUNITS
70
4
0
ENDSEC
0
SECTION
2
TABLES
0
TABLE
2
LTYPE
0
LTYPE
72
65
70
0
2
CONTINUOUS
3
______
73
0
40
0
0
LTYPE
72
65
70
0
2
DASHED
3
_ _ _ 
73
2
40
7.5
49
5
49
-2.5
0
LTYPE
72
65
70
0
2
DOTTED
3
. . . 
73
2
40
1.5
49
0.5
49
-1
0
ENDTAB
0
TABLE
2
LAYER
0
ENDTAB
0
ENDSEC
0
SECTION
2
ENTITIES
0
LINE
8
0
6
CONTINUOUS
10
366.75
20
-188.525
11
366.75
21
-94.5652347
0
LINE
8
0
6
CONTINUOUS
10
365.5745068
20
-92.7430963
11
335.5680695
21
-79.1653616
0
LINE
8
0
6
CONTINUOUS
10
334.7435627
20
-78.9875
11
263.4064373
21
-78.9875
0
LINE
8
0
6
CONTINUOUS
10
262.5819305
20
-79.1653616
11
232.5752026
21
-92.7432278
0
LINE
8
0
6
CONTINUOUS
10
231.3997095
20
-94.5649158
11
231.3828956
21
-169.2316799
0
LINE
8
0
6
CONTINUOUS
10
231.5558045
20
-170.0456035
11
242.5985627
21
-194.8480445
0
LINE
8
0
6
CONTINUOUS
10
245.2391268
20
-195.8616623
11
287.5635879
21
-177.017598
0
LINE
8
0
6
CONTINUOUS
10
289.0401013
20
-176.9577926
11
327.3281267
21
-190.4118963
0
LINE
8
0
6
CONTINUOUS
10
327.9911669
20
-190.525
11
364.75
21
-190.525
0
ARC
8
0
6
CONTINUOUS
10
364.75
20
-94.5652347
40
2
50
0
51
65.6535307
0
ARC
8
0
6
CONTINUOUS
10
334.7435627
20
-80.9875
40
2
50
65.6535307
51
90
0
ARC
8
0
6
CONTINUOUS
10
263.4064373
20
-80.9875
40
2
50
90
51
114.3464693
0
ARC
8
0
6
CONTINUOUS
10
233.3997094
20
-94.5653662
40
2
50
114.3464693
51
179.987097
0
ARC
8
0
6
CONTINUOUS
10
233.3828955
20
-169.2321303
40
2
50
179.987097
51
203.9999968
0
ARC
8
0
6
CONTINUOUS
10
244.4256536
20
-194.0345713
40
2
50
203.9999968
51
293.9999968
0
ARC
8
0
6
CONTINUOUS
10
288.3770611
20
-178.8446889
40
2
50
70.6389355
51
113.9999968
0
ARC
8
0
6
CONTINUOUS
10
327.9911669
20
-188.525
40
2
50
250.6389355
51
270
0
ARC
8
0
6
CONTINUOUS
10
364.75
20
-188.525
40
2
50
270
51
0
0
ENDSEC
0
EOF