0
SECTION
2
HEADER
9
$INSUNITS
70
4
0
ENDSEC
0
SECTION
2
TABLES
0
TABLE
2
LTYPE
0
LTYPE
72
65
70
0
2
CONTINUOUS
3
______
73
0
40
0
0
LTYPE
72
65
70
0
2
DASHED
3
_ _ _ 
73
2
40
7.5
49
5
49
-2.5
0
LTYPE
72
65
70
0
2
DOTTED
3
. . . 
73
2
40
1.5
49
0.5
49
-1
0
ENDTAB
0
TABLE
2
LAYER
0
ENDTAB
0
ENDSEC
0
SECTION
2
ENTITIES
0
LINE
8
0
6
CONTINUOUS
10
69.475
20
-188.525
11
69.475
21
-94.7539267
0
LINE
8
0
6
CONTINUOUS
10
70.8890262
20
-92.8416938
11
115.813586
21
-79.0752671
0
LINE
8
0
6
CONTINUOUS
10
116.3995597
20
-78.9875
11
173.6503253
21
-78.9875
0
LINE
8
0
6
CONTINUOUS
10
174.4934625
20
-79.173907
11
203.6684245
21
-92.7373095
0
LINE
8
0
6
CONTINUOUS
10
204.8252872
20
-94.5504522
11
204.8421044
21
-169.2316799
0
LINE
8
0
6
CONTINUOUS
10
204.6691955
20
-170.0456035
11
193.6264373
21
-194.8480445
0
LINE
8
0
6
CONTINUOUS
10
190.9858732
20
-195.8616623
11
148.6614121
21
-177.017598
0
LINE
8
0
6
CONTINUOUS
10
147.1848987
20
-176.9577926
11
108.8968733
21
-190.4118963
0
LINE
8
0
6
CONTINUOUS
10
108.2338331
20
-190.525
11
71.475
21
-190.525
0
ARC
8
0
6
CONTINUOUS
10
71.475
20
-94.7539267
40
2
50
107.0368615
51
180
0
ARC
8
0
6
CONTINUOUS
10
116.3995597
20
-80.9875
40
2
50
90
51
107.0368615
0
ARC
8
0
6
CONTINUOUS
10
173.6503253
20
-80.9875
40
2
50
65.0663403
51
90
0
ARC
8
0
6
CONTINUOUS
10
202.8252873
20
-94.5509026
40
2
50
0.012903
51
65.0663403
0
ARC
8
0
6
CONTINUOUS
10
202.8421045
20
-169.2321303
40
2
50
336.0000032
51
0.012903
0
ARC
8
0
6
CONTINUOUS
10
191.7993464
20
-194.0345713
40
2
50
246.0000032
51
336.0000032
0
ARC
8
0
6
CONTINUOUS
10
147.8479389
20
-178.8446889
40
2
50
66.0000032
51
109.3610645
0
ARC
8
0
6
CONTINUOUS
10
108.2338331
20
-188.525
40
2
50
270
51
289.3610645
0
ARC
8
0
6
CONTINUOUS
10
71.475
20
-188.525
40
2
50
180
51
270
0
LINE
8
0
6
CONTINUOUS
10
366.75
20
-188.525
11
366.75
21
-94.7539267
0
LINE
8
0
6
CONTINUOUS
10
365.3359738
20
-92.8416938
11
320.411414
21
-79.0752671
0
LINE
8
0
6
CONTINUOUS
10
319.8254403
20
-78.9875
11
262.5746747
21
-78.9875
0
LINE
8
0
6
CONTINUOUS
10
261.7315375
20
-79.173907
11
232.5565755
21
-92.7373095
0
LINE
8
0
6
CONTINUOUS
10
231.3997128
20
-94.5504522
11
231.3828956
21
-169.2316799
0
LINE
8
0
6
CONTINUOUS
10
231.5558045
20
-170.0456035
11
242.5985627
21
-194.8480445
0
LINE
8
0
6
CONTINUOUS
10
245.2391268
20
-195.8616623
11
287.5635879
21
-177.017598
0
LINE
8
0
6
CONTINUOUS
10
289.0401013
20
-176.9577926
11
327.3281267
21
-190.4118963
0
LINE
8
0
6
CONTINUOUS
10
327.9911669
20
-190.525
11
364.75
21
-190.525
0
ARC
8
0
6
CONTINUOUS
10
364.75
20
-94.7539267
40
2
50
0
51
72.9631385
0
ARC
8
0
6
CONTINUOUS
10
319.8254403
20
-80.9875
40
2
50
72.9631385
51
90
0
ARC
8
0
6
CONTINUOUS
10
262.5746747
20
-80.9875
40
2
50
90
51
114.9336597
0
ARC
8
0
6
CONTINUOUS
10
233.3997127
20
-94.5509026
40
2
50
114.9336597
51
179.987097
0
ARC
8
0
6
CONTINUOUS
10
233.3828955
20
-169.2321303
40
2
50
179.987097
51
203.9999968
0
ARC
8
0
6
CONTINUOUS
10
244.4256536
20
-194.0345713
40
2
50
203.9999968
51
293.9999968
0
ARC
8
0
6
CONTINUOUS
10
288.3770611
20
-178.8446889
40
2
50
70.6389355
51
113.9999968
0
ARC
8
0
6
CONTINUOUS
10
327.9911669
20
-188.525
40
2
50
250.6389355
51
270
0
ARC
8
0
6
CONTINUOUS
10
364.75
20
-188.525
40
2
50
270
51
0
0
ENDSEC
0
EOF