0
SECTION
2
HEADER
9
$INSUNITS
70
4
0
ENDSEC
0
SECTION
2
TABLES
0
TABLE
2
LTYPE
0
LTYPE
72
65
70
0
2
CONTINUOUS
3
______
73
0
40
0
0
LTYPE
72
65
70
0
2
DASHED
3
_ _ _ 
73
2
40
7.5
49
5
49
-2.5
0
LTYPE
72
65
70
0
2
DOTTED
3
. . . 
73
2
40
1.5
49
0.5
49
-1
0
ENDTAB
0
TABLE
2
LAYER
0
ENDTAB
0
ENDSEC
0
SECTION
2
ENTITIES
0
LINE
8
0
6
CONTINUOUS
10
69.475
20
-188.525
11
69.475
21
-94.5652347
0
LINE
8
0
6
CONTINUOUS
10
70.6504932
20
-92.7430963
11
100.6569305
21
-79.1653616
0
LINE
8
0
6
CONTINUOUS
10
101.4814373
20
-78.9875
11
172.8185627
21
-78.9875
0
LINE
8
0
6
CONTINUOUS
10
173.6430695
20
-79.1653616
11
203.6497974
21
-92.7432278
0
LINE
8
0
6
CONTINUOUS
10
204.8252905
20
-94.5649158
11
204.8421044
21
-169.2316799
0
LINE
8
0
6
CONTINUOUS
10
204.6691955
20
-170.0456035
11
193.6264373
21
-194.8480445
0
LINE
8
0
6
CONTINUOUS
10
190.9858732
20
-195.8616623
11
148.6614121
21
-177.017598
0
LINE
8
0
6
CONTINUOUS
10
147.1848987
20
-176.9577926
11
108.8968733
21
-190.4118963
0
LINE
8
0
6
CONTINUOUS
10
108.2338331
20
-190.525
11
71.475
21
-190.525
0
ARC
8
0
6
CONTINUOUS
10
71.475
20
-94.5652347
40
2
50
114.3464693
51
180
0
ARC
8
0
6
CONTINUOUS
10
101.4814373
20
-80.9875
40
2
50
90
51
114.3464693
0
ARC
8
0
6
CONTINUOUS
10
172.8185627
20
-80.9875
40
2
50
65.6535307
51
90
0
ARC
8
0
6
CONTINUOUS
10
202.8252906
20
-94.5653662
40
2
50
0.012903
51
65.6535307
0
ARC
8
0
6
CONTINUOUS
10
202.8421045
20
-169.2321303
40
2
50
336.0000032
51
0.012903
0
ARC
8
0
6
CONTINUOUS
10
191.7993464
20
-194.0345713
40
2
50
246.0000032
51
336.0000032
0
ARC
8
0
6
CONTINUOUS
10
147.8479389
20
-178.8446889
40
2
50
66.0000032
51
109.3610645
0
ARC
8
0
6
CONTINUOUS
10
108.2338331
20
-188.525
40
2
50
270
51
289.3610645
0
ARC
8
0
6
CONTINUOUS
10
71.475
20
-188.525
40
2
50
180
51
270
0
ENDSEC
0
EOF