0
SECTION
2
HEADER
9
$INSUNITS
70
4
0
ENDSEC
0
SECTION
2
TABLES
0
TABLE
2
LTYPE
0
LTYPE
72
65
70
0
2
CONTINUOUS
3
______
73
0
40
0
0
LTYPE
72
65
70
0
2
DASHED
3
_ _ _ 
73
2
40
7.5
49
5
49
-2.5
0
LTYPE
72
65
70
0
2
DOTTED
3
. . . 
73
2
40
1.5
49
0.5
49
-1
0
ENDTAB
0
TABLE
2
LAYER
0
ENDTAB
0
ENDSEC
0
SECTION
2
ENTITIES
0
LINE
8
0
6
CONTINUOUS
10
60.475
20
-188.525
11
60.475
21
-94.5652347
0
ARC
8
0
6
CONTINUOUS
10
71.475
20
-94.5652347
40
11
50
114.3464693
51
180
0
LINE
8
0
6
CONTINUOUS
10
66.9402125
20
-84.5434733
11
96.9466498
21
-70.9657386
0
ARC
8
0
6
CONTINUOUS
10
101.4814373
20
-80.9875
40
11
50
90
51
114.3464693
0
LINE
8
0
6
CONTINUOUS
10
101.4814373
20
-69.9875
11
172.8185627
21
-69.9875
0
ARC
8
0
6
CONTINUOUS
10
172.8185627
20
-80.9875
40
11
50
65.6535307
51
90
0
LINE
8
0
6
CONTINUOUS
10
177.3533502
20
-70.9657386
11
207.3600781
21
-84.5436048
0
ARC
8
0
6
CONTINUOUS
10
202.8252906
20
-94.5653662
40
11
50
0.012903
51
65.6535307
0
LINE
8
0
6
CONTINUOUS
10
213.8252903
20
-94.5628891
11
213.8421042
21
-169.2296532
0
ARC
8
0
6
CONTINUOUS
10
202.8421045
20
-169.2321303
40
11
50
336.0000032
51
360.012903
0
ARC
8
0
6
CONTINUOUS
10
204.6691955
20
-170.0456035
40
9
50
335.9914587
51
336.0000032
0
LINE
8
0
6
CONTINUOUS
10
212.8905588
20
-173.7074589
11
201.8483465
21
-198.5086743
0
ARC
8
0
6
CONTINUOUS
10
191.7993464
20
-194.0345713
40
11
50
246.0000032
51
336.0000032
0
LINE
8
0
6
CONTINUOUS
10
187.3252434
20
-204.0835714
11
187.3240178
21
-204.0830256
0
LINE
8
0
6
CONTINUOUS
10
187.3240178
20
-204.0830256
11
147.5430732
21
-186.3714079
0
LINE
8
0
6
CONTINUOUS
10
147.5430732
20
-186.3714079
11
111.8805541
21
-198.9029298
0
ARC
8
0
6
CONTINUOUS
10
108.2338331
20
-188.525
40
11
50
270
51
289.3610645
0
LINE
8
0
6
CONTINUOUS
10
108.2338331
20
-199.525
11
71.475
21
-199.525
0
ARC
8
0
6
CONTINUOUS
10
71.475
20
-188.525
40
11
50
180
51
270
0
ENDSEC
0
EOF