<svg width="153.367mm" height="135.047mm" viewBox="0 0 153.367 135.047" xmlns="http://www.w3.org/2000/svg"><g id="svgGroup" stroke-linecap="round" fill-rule="evenodd" font-size="9pt" stroke="#000" stroke-width="0.25mm" fill="none" style="stroke:#000;stroke-width:0.25mm;fill:none"><path d="M 0 118.538 L 0 24.578 A 11 11 0 0 1 6.465 14.556 L 36.472 0.978 A 11 11 0 0 1 41.006 0 L 112.344 0 A 11 11 0 0 1 116.878 0.978 L 146.885 14.556 A 11 11 0 0 1 153.35 24.575 L 153.367 99.242 A 11 11 0 0 1 152.416 103.719 A 9 9 0 0 1 152.416 103.72 L 141.373 128.521 A 11 11 0 0 1 126.85 134.096 L 126.849 134.096 L 87.068 116.384 L 51.406 128.915 A 11 11 0 0 1 47.759 129.538 L 11 129.538 A 11 11 0 0 1 0 118.538 Z" vector-effect="non-scaling-stroke"/></g></svg>