0
SECTION
2
HEADER
9
$INSUNITS
70
4
0
ENDSEC
0
SECTION
2
TABLES
0
TABLE
2
LTYPE
0
LTYPE
72
65
70
0
2
CONTINUOUS
3
______
73
0
40
0
0
LTYPE
72
65
70
0
2
DASHED
3
_ _ _ 
73
2
40
7.5
49
5
49
-2.5
0
LTYPE
72
65
70
0
2
DOTTED
3
. . . 
73
2
40
1.5
49
0.5
49
-1
0
ENDTAB
0
TABLE
2
LAYER
0
ENDTAB
0
ENDSEC
0
SECTION
2
ENTITIES
0
LINE
8
0
6
CONTINUOUS
10
69.475
20
-188.525
11
69.475
21
-94.5652347
0
LINE
8
0
6
CONTINUOUS
10
70.6504932
20
-92.7430963
11
100.6569305
21
-79.1653616
0
LINE
8
0
6
CONTINUOUS
10
101.4814373
20
-78.9875
11
172.8185627
21
-78.9875
0
LINE
8
0
6
CONTINUOUS
10
173.6430695
20
-79.1653616
11
203.6497974
21
-92.7432278
0
LINE
8
0
6
CONTINUOUS
10
204.8252905
20
-94.5649158
11
204.8421044
21
-169.2316799
0
LINE
8
0
6
CONTINUOUS
10
204.6691955
20
-170.0456035
11
193.6264373
21
-194.8480445
0
LINE
8
0
6
CONTINUOUS
10
190.9858732
20
-195.8616623
11
148.6614121
21
-177.017598
0
LINE
8
0
6
CONTINUOUS
10
147.1848987
20
-176.9577926
11
108.8968733
21
-190.4118963
0
LINE
8
0
6
CONTINUOUS
10
108.2338331
20
-190.525
11
71.475
21
-190.525
0
ARC
8
0
6
CONTINUOUS
10
71.475
20
-94.5652347
40
2
50
114.3464693
51
180
0
ARC
8
0
6
CONTINUOUS
10
101.4814373
20
-80.9875
40
2
50
90
51
114.3464693
0
ARC
8
0
6
CONTINUOUS
10
172.8185627
20
-80.9875
40
2
50
65.6535307
51
90
0
ARC
8
0
6
CONTINUOUS
10
202.8252906
20
-94.5653662
40
2
50
0.012903
51
65.6535307
0
ARC
8
0
6
CONTINUOUS
10
202.8421045
20
-169.2321303
40
2
50
336.0000032
51
0.012903
0
ARC
8
0
6
CONTINUOUS
10
191.7993464
20
-194.0345713
40
2
50
246.0000032
51
336.0000032
0
ARC
8
0
6
CONTINUOUS
10
147.8479389
20
-178.8446889
40
2
50
66.0000032
51
109.3610645
0
ARC
8
0
6
CONTINUOUS
10
108.2338331
20
-188.525
40
2
50
270
51
289.3610645
0
ARC
8
0
6
CONTINUOUS
10
71.475
20
-188.525
40
2
50
180
51
270
0
LINE
8
0
6
CONTINUOUS
10
366.75
20
-188.525
11
366.75
21
-94.5652347
0
LINE
8
0
6
CONTINUOUS
10
365.5745068
20
-92.7430963
11
335.5680695
21
-79.1653616
0
LINE
8
0
6
CONTINUOUS
10
334.7435627
20
-78.9875
11
263.4064373
21
-78.9875
0
LINE
8
0
6
CONTINUOUS
10
262.5819305
20
-79.1653616
11
232.5752026
21
-92.7432278
0
LINE
8
0
6
CONTINUOUS
10
231.3997095
20
-94.5649158
11
231.3828956
21
-169.2316799
0
LINE
8
0
6
CONTINUOUS
10
231.5558045
20
-170.0456035
11
242.5985627
21
-194.8480445
0
LINE
8
0
6
CONTINUOUS
10
245.2391268
20
-195.8616623
11
287.5635879
21
-177.017598
0
LINE
8
0
6
CONTINUOUS
10
289.0401013
20
-176.9577926
11
327.3281267
21
-190.4118963
0
LINE
8
0
6
CONTINUOUS
10
327.9911669
20
-190.525
11
364.75
21
-190.525
0
ARC
8
0
6
CONTINUOUS
10
364.75
20
-94.5652347
40
2
50
0
51
65.6535307
0
ARC
8
0
6
CONTINUOUS
10
334.7435627
20
-80.9875
40
2
50
65.6535307
51
90
0
ARC
8
0
6
CONTINUOUS
10
263.4064373
20
-80.9875
40
2
50
90
51
114.3464693
0
ARC
8
0
6
CONTINUOUS
10
233.3997094
20
-94.5653662
40
2
50
114.3464693
51
179.987097
0
ARC
8
0
6
CONTINUOUS
10
233.3828955
20
-169.2321303
40
2
50
179.987097
51
203.9999968
0
ARC
8
0
6
CONTINUOUS
10
244.4256536
20
-194.0345713
40
2
50
203.9999968
51
293.9999968
0
ARC
8
0
6
CONTINUOUS
10
288.3770611
20
-178.8446889
40
2
50
70.6389355
51
113.9999968
0
ARC
8
0
6
CONTINUOUS
10
327.9911669
20
-188.525
40
2
50
250.6389355
51
270
0
ARC
8
0
6
CONTINUOUS
10
364.75
20
-188.525
40
2
50
270
51
0
0
LINE
8
0
6
CONTINUOUS
10
73
20
-187
11
87
21
-187
0
LINE
8
0
6
CONTINUOUS
10
87
20
-187
11
87
21
-173
0
LINE
8
0
6
CONTINUOUS
10
87
20
-173
11
73
21
-173
0
LINE
8
0
6
CONTINUOUS
10
73
20
-173
11
73
21
-187
0
LINE
8
0
6
CONTINUOUS
10
73
20
-167.95
11
87
21
-167.95
0
LINE
8
0
6
CONTINUOUS
10
87
20
-167.95
11
87
21
-153.95
0
LINE
8
0
6
CONTINUOUS
10
87
20
-153.95
11
73
21
-153.95
0
LINE
8
0
6
CONTINUOUS
10
73
20
-153.95
11
73
21
-167.95
0
LINE
8
0
6
CONTINUOUS
10
73
20
-148.9
11
87
21
-148.9
0
LINE
8
0
6
CONTINUOUS
10
87
20
-148.9
11
87
21
-134.9
0
LINE
8
0
6
CONTINUOUS
10
87
20
-134.9
11
73
21
-134.9
0
LINE
8
0
6
CONTINUOUS
10
73
20
-134.9
11
73
21
-148.9
0
LINE
8
0
6
CONTINUOUS
10
73
20
-129.85
11
87
21
-129.85
0
LINE
8
0
6
CONTINUOUS
10
87
20
-129.85
11
87
21
-115.85
0
LINE
8
0
6
CONTINUOUS
10
87
20
-115.85
11
73
21
-115.85
0
LINE
8
0
6
CONTINUOUS
10
73
20
-115.85
11
73
21
-129.85
0
LINE
8
0
6
CONTINUOUS
10
73
20
-110.8
11
87
21
-110.8
0
LINE
8
0
6
CONTINUOUS
10
87
20
-110.8
11
87
21
-96.8
0
LINE
8
0
6
CONTINUOUS
10
87
20
-96.8
11
73
21
-96.8
0
LINE
8
0
6
CONTINUOUS
10
73
20
-96.8
11
73
21
-110.8
0
LINE
8
0
6
CONTINUOUS
10
92.05
20
-187
11
106.05
21
-187
0
LINE
8
0
6
CONTINUOUS
10
106.05
20
-187
11
106.05
21
-173
0
LINE
8
0
6
CONTINUOUS
10
106.05
20
-173
11
92.05
21
-173
0
LINE
8
0
6
CONTINUOUS
10
92.05
20
-173
11
92.05
21
-187
0
LINE
8
0
6
CONTINUOUS
10
92.05
20
-167.95
11
106.05
21
-167.95
0
LINE
8
0
6
CONTINUOUS
10
106.05
20
-167.95
11
106.05
21
-153.95
0
LINE
8
0
6
CONTINUOUS
10
106.05
20
-153.95
11
92.05
21
-153.95
0
LINE
8
0
6
CONTINUOUS
10
92.05
20
-153.95
11
92.05
21
-167.95
0
LINE
8
0
6
CONTINUOUS
10
92.05
20
-148.9
11
106.05
21
-148.9
0
LINE
8
0
6
CONTINUOUS
10
106.05
20
-148.9
11
106.05
21
-134.9
0
LINE
8
0
6
CONTINUOUS
10
106.05
20
-134.9
11
92.05
21
-134.9
0
LINE
8
0
6
CONTINUOUS
10
92.05
20
-134.9
11
92.05
21
-148.9
0
LINE
8
0
6
CONTINUOUS
10
92.05
20
-129.85
11
106.05
21
-129.85
0
LINE
8
0
6
CONTINUOUS
10
106.05
20
-129.85
11
106.05
21
-115.85
0
LINE
8
0
6
CONTINUOUS
10
106.05
20
-115.85
11
92.05
21
-115.85
0
LINE
8
0
6
CONTINUOUS
10
92.05
20
-115.85
11
92.05
21
-129.85
0
LINE
8
0
6
CONTINUOUS
10
92.05
20
-110.8
11
106.05
21
-110.8
0
LINE
8
0
6
CONTINUOUS
10
106.05
20
-110.8
11
106.05
21
-96.8
0
LINE
8
0
6
CONTINUOUS
10
106.05
20
-96.8
11
92.05
21
-96.8
0
LINE
8
0
6
CONTINUOUS
10
92.05
20
-96.8
11
92.05
21
-110.8
0
LINE
8
0
6
CONTINUOUS
10
111.1
20
-177.475
11
125.1
21
-177.475
0
LINE
8
0
6
CONTINUOUS
10
125.1
20
-177.475
11
125.1
21
-163.475
0
LINE
8
0
6
CONTINUOUS
10
125.1
20
-163.475
11
111.1
21
-163.475
0
LINE
8
0
6
CONTINUOUS
10
111.1
20
-163.475
11
111.1
21
-177.475
0
LINE
8
0
6
CONTINUOUS
10
111.1
20
-158.425
11
125.1
21
-158.425
0
LINE
8
0
6
CONTINUOUS
10
125.1
20
-158.425
11
125.1
21
-144.425
0
LINE
8
0
6
CONTINUOUS
10
125.1
20
-144.425
11
111.1
21
-144.425
0
LINE
8
0
6
CONTINUOUS
10
111.1
20
-144.425
11
111.1
21
-158.425
0
LINE
8
0
6
CONTINUOUS
10
111.1
20
-139.375
11
125.1
21
-139.375
0
LINE
8
0
6
CONTINUOUS
10
125.1
20
-139.375
11
125.1
21
-125.375
0
LINE
8
0
6
CONTINUOUS
10
125.1
20
-125.375
11
111.1
21
-125.375
0
LINE
8
0
6
CONTINUOUS
10
111.1
20
-125.375
11
111.1
21
-139.375
0
LINE
8
0
6
CONTINUOUS
10
111.1
20
-120.325
11
125.1
21
-120.325
0
LINE
8
0
6
CONTINUOUS
10
125.1
20
-120.325
11
125.1
21
-106.325
0
LINE
8
0
6
CONTINUOUS
10
125.1
20
-106.325
11
111.1
21
-106.325
0
LINE
8
0
6
CONTINUOUS
10
111.1
20
-106.325
11
111.1
21
-120.325
0
LINE
8
0
6
CONTINUOUS
10
111.1
20
-101.275
11
125.1
21
-101.275
0
LINE
8
0
6
CONTINUOUS
10
125.1
20
-101.275
11
125.1
21
-87.275
0
LINE
8
0
6
CONTINUOUS
10
125.1
20
-87.275
11
111.1
21
-87.275
0
LINE
8
0
6
CONTINUOUS
10
111.1
20
-87.275
11
111.1
21
-101.275
0
LINE
8
0
6
CONTINUOUS
10
130.15
20
-172.7125
11
144.15
21
-172.7125
0
LINE
8
0
6
CONTINUOUS
10
144.15
20
-172.7125
11
144.15
21
-158.7125
0
LINE
8
0
6
CONTINUOUS
10
144.15
20
-158.7125
11
130.15
21
-158.7125
0
LINE
8
0
6
CONTINUOUS
10
130.15
20
-158.7125
11
130.15
21
-172.7125
0
LINE
8
0
6
CONTINUOUS
10
130.15
20
-153.6625
11
144.15
21
-153.6625
0
LINE
8
0
6
CONTINUOUS
10
144.15
20
-153.6625
11
144.15
21
-139.6625
0
LINE
8
0
6
CONTINUOUS
10
144.15
20
-139.6625
11
130.15
21
-139.6625
0
LINE
8
0
6
CONTINUOUS
10
130.15
20
-139.6625
11
130.15
21
-153.6625
0
LINE
8
0
6
CONTINUOUS
10
130.15
20
-134.6125
11
144.15
21
-134.6125
0
LINE
8
0
6
CONTINUOUS
10
144.15
20
-134.6125
11
144.15
21
-120.6125
0
LINE
8
0
6
CONTINUOUS
10
144.15
20
-120.6125
11
130.15
21
-120.6125
0
LINE
8
0
6
CONTINUOUS
10
130.15
20
-120.6125
11
130.15
21
-134.6125
0
LINE
8
0
6
CONTINUOUS
10
130.15
20
-115.5625
11
144.15
21
-115.5625
0
LINE
8
0
6
CONTINUOUS
10
144.15
20
-115.5625
11
144.15
21
-101.5625
0
LINE
8
0
6
CONTINUOUS
10
144.15
20
-101.5625
11
130.15
21
-101.5625
0
LINE
8
0
6
CONTINUOUS
10
130.15
20
-101.5625
11
130.15
21
-115.5625
0
LINE
8
0
6
CONTINUOUS
10
130.15
20
-96.5125
11
144.15
21
-96.5125
0
LINE
8
0
6
CONTINUOUS
10
144.15
20
-96.5125
11
144.15
21
-82.5125
0
LINE
8
0
6
CONTINUOUS
10
144.15
20
-82.5125
11
130.15
21
-82.5125
0
LINE
8
0
6
CONTINUOUS
10
130.15
20
-82.5125
11
130.15
21
-96.5125
0
LINE
8
0
6
CONTINUOUS
10
149.2
20
-156.04375
11
163.2
21
-156.04375
0
LINE
8
0
6
CONTINUOUS
10
163.2
20
-156.04375
11
163.2
21
-142.04375
0
LINE
8
0
6
CONTINUOUS
10
163.2
20
-142.04375
11
149.2
21
-142.04375
0
LINE
8
0
6
CONTINUOUS
10
149.2
20
-142.04375
11
149.2
21
-156.04375
0
LINE
8
0
6
CONTINUOUS
10
149.2
20
-136.99375
11
163.2
21
-136.99375
0
LINE
8
0
6
CONTINUOUS
10
163.2
20
-136.99375
11
163.2
21
-122.99375
0
LINE
8
0
6
CONTINUOUS
10
163.2
20
-122.99375
11
149.2
21
-122.99375
0
LINE
8
0
6
CONTINUOUS
10
149.2
20
-122.99375
11
149.2
21
-136.99375
0
LINE
8
0
6
CONTINUOUS
10
149.2
20
-117.94375
11
163.2
21
-117.94375
0
LINE
8
0
6
CONTINUOUS
10
163.2
20
-117.94375
11
163.2
21
-103.94375
0
LINE
8
0
6
CONTINUOUS
10
163.2
20
-103.94375
11
149.2
21
-103.94375
0
LINE
8
0
6
CONTINUOUS
10
149.2
20
-103.94375
11
149.2
21
-117.94375
0
LINE
8
0
6
CONTINUOUS
10
149.2
20
-98.89375
11
163.2
21
-98.89375
0
LINE
8
0
6
CONTINUOUS
10
163.2
20
-98.89375
11
163.2
21
-84.89375
0
LINE
8
0
6
CONTINUOUS
10
163.2
20
-84.89375
11
149.2
21
-84.89375
0
LINE
8
0
6
CONTINUOUS
10
149.2
20
-84.89375
11
149.2
21
-98.89375
0
LINE
8
0
6
CONTINUOUS
10
168.25
20
-158.425
11
182.25
21
-158.425
0
LINE
8
0
6
CONTINUOUS
10
182.25
20
-158.425
11
182.25
21
-144.425
0
LINE
8
0
6
CONTINUOUS
10
182.25
20
-144.425
11
168.25
21
-144.425
0
LINE
8
0
6
CONTINUOUS
10
168.25
20
-144.425
11
168.25
21
-158.425
0
LINE
8
0
6
CONTINUOUS
10
168.25
20
-139.375
11
182.25
21
-139.375
0
LINE
8
0
6
CONTINUOUS
10
182.25
20
-139.375
11
182.25
21
-125.375
0
LINE
8
0
6
CONTINUOUS
10
182.25
20
-125.375
11
168.25
21
-125.375
0
LINE
8
0
6
CONTINUOUS
10
168.25
20
-125.375
11
168.25
21
-139.375
0
LINE
8
0
6
CONTINUOUS
10
168.25
20
-120.325
11
182.25
21
-120.325
0
LINE
8
0
6
CONTINUOUS
10
182.25
20
-120.325
11
182.25
21
-106.325
0
LINE
8
0
6
CONTINUOUS
10
182.25
20
-106.325
11
168.25
21
-106.325
0
LINE
8
0
6
CONTINUOUS
10
168.25
20
-106.325
11
168.25
21
-120.325
0
LINE
8
0
6
CONTINUOUS
10
168.25
20
-101.275
11
182.25
21
-101.275
0
LINE
8
0
6
CONTINUOUS
10
182.25
20
-101.275
11
182.25
21
-87.275
0
LINE
8
0
6
CONTINUOUS
10
182.25
20
-87.275
11
168.25
21
-87.275
0
LINE
8
0
6
CONTINUOUS
10
168.25
20
-87.275
11
168.25
21
-101.275
0
LINE
8
0
6
CONTINUOUS
10
187.3
20
-148.9
11
201.3
21
-148.9
0
LINE
8
0
6
CONTINUOUS
10
201.3
20
-148.9
11
201.3
21
-134.9
0
LINE
8
0
6
CONTINUOUS
10
201.3
20
-134.9
11
187.3
21
-134.9
0
LINE
8
0
6
CONTINUOUS
10
187.3
20
-134.9
11
187.3
21
-148.9
0
LINE
8
0
6
CONTINUOUS
10
187.3
20
-129.85
11
201.3
21
-129.85
0
LINE
8
0
6
CONTINUOUS
10
201.3
20
-129.85
11
201.3
21
-115.85
0
LINE
8
0
6
CONTINUOUS
10
201.3
20
-115.85
11
187.3
21
-115.85
0
LINE
8
0
6
CONTINUOUS
10
187.3
20
-115.85
11
187.3
21
-129.85
0
LINE
8
0
6
CONTINUOUS
10
187.3
20
-110.8
11
201.3
21
-110.8
0
LINE
8
0
6
CONTINUOUS
10
201.3
20
-110.8
11
201.3
21
-96.8
0
LINE
8
0
6
CONTINUOUS
10
201.3
20
-96.8
11
187.3
21
-96.8
0
LINE
8
0
6
CONTINUOUS
10
187.3
20
-96.8
11
187.3
21
-110.8
0
LINE
8
0
6
CONTINUOUS
10
156.4830253
20
-176.6414117
11
169.2726617
21
-182.3357247
0
LINE
8
0
6
CONTINUOUS
10
169.2726617
20
-182.3357247
11
174.9669747
21
-169.5460883
0
LINE
8
0
6
CONTINUOUS
10
174.9669747
20
-169.5460883
11
162.1773383
21
-163.8517753
0
LINE
8
0
6
CONTINUOUS
10
162.1773383
20
-163.8517753
11
156.4830253
21
-176.6414117
0
LINE
8
0
6
CONTINUOUS
10
180.1739098
20
-181.9760678
11
192.9635462
21
-187.6703808
0
LINE
8
0
6
CONTINUOUS
10
192.9635462
20
-187.6703808
11
198.6578592
21
-174.8807444
0
LINE
8
0
6
CONTINUOUS
10
198.6578592
20
-174.8807444
11
185.8682228
21
-169.1864314
0
LINE
8
0
6
CONTINUOUS
10
185.8682228
20
-169.1864314
11
180.1739098
21
-181.9760678
0
LINE
8
0
6
CONTINUOUS
10
349.225
20
-187
11
363.225
21
-187
0
LINE
8
0
6
CONTINUOUS
10
363.225
20
-187
11
363.225
21
-173
0
LINE
8
0
6
CONTINUOUS
10
363.225
20
-173
11
349.225
21
-173
0
LINE
8
0
6
CONTINUOUS
10
349.225
20
-173
11
349.225
21
-187
0
LINE
8
0
6
CONTINUOUS
10
349.225
20
-167.95
11
363.225
21
-167.95
0
LINE
8
0
6
CONTINUOUS
10
363.225
20
-167.95
11
363.225
21
-153.95
0
LINE
8
0
6
CONTINUOUS
10
363.225
20
-153.95
11
349.225
21
-153.95
0
LINE
8
0
6
CONTINUOUS
10
349.225
20
-153.95
11
349.225
21
-167.95
0
LINE
8
0
6
CONTINUOUS
10
349.225
20
-148.9
11
363.225
21
-148.9
0
LINE
8
0
6
CONTINUOUS
10
363.225
20
-148.9
11
363.225
21
-134.9
0
LINE
8
0
6
CONTINUOUS
10
363.225
20
-134.9
11
349.225
21
-134.9
0
LINE
8
0
6
CONTINUOUS
10
349.225
20
-134.9
11
349.225
21
-148.9
0
LINE
8
0
6
CONTINUOUS
10
349.225
20
-129.85
11
363.225
21
-129.85
0
LINE
8
0
6
CONTINUOUS
10
363.225
20
-129.85
11
363.225
21
-115.85
0
LINE
8
0
6
CONTINUOUS
10
363.225
20
-115.85
11
349.225
21
-115.85
0
LINE
8
0
6
CONTINUOUS
10
349.225
20
-115.85
11
349.225
21
-129.85
0
LINE
8
0
6
CONTINUOUS
10
349.225
20
-110.8
11
363.225
21
-110.8
0
LINE
8
0
6
CONTINUOUS
10
363.225
20
-110.8
11
363.225
21
-96.8
0
LINE
8
0
6
CONTINUOUS
10
363.225
20
-96.8
11
349.225
21
-96.8
0
LINE
8
0
6
CONTINUOUS
10
349.225
20
-96.8
11
349.225
21
-110.8
0
LINE
8
0
6
CONTINUOUS
10
330.175
20
-187
11
344.175
21
-187
0
LINE
8
0
6
CONTINUOUS
10
344.175
20
-187
11
344.175
21
-173
0
LINE
8
0
6
CONTINUOUS
10
344.175
20
-173
11
330.175
21
-173
0
LINE
8
0
6
CONTINUOUS
10
330.175
20
-173
11
330.175
21
-187
0
LINE
8
0
6
CONTINUOUS
10
330.175
20
-167.95
11
344.175
21
-167.95
0
LINE
8
0
6
CONTINUOUS
10
344.175
20
-167.95
11
344.175
21
-153.95
0
LINE
8
0
6
CONTINUOUS
10
344.175
20
-153.95
11
330.175
21
-153.95
0
LINE
8
0
6
CONTINUOUS
10
330.175
20
-153.95
11
330.175
21
-167.95
0
LINE
8
0
6
CONTINUOUS
10
330.175
20
-148.9
11
344.175
21
-148.9
0
LINE
8
0
6
CONTINUOUS
10
344.175
20
-148.9
11
344.175
21
-134.9
0
LINE
8
0
6
CONTINUOUS
10
344.175
20
-134.9
11
330.175
21
-134.9
0
LINE
8
0
6
CONTINUOUS
10
330.175
20
-134.9
11
330.175
21
-148.9
0
LINE
8
0
6
CONTINUOUS
10
330.175
20
-129.85
11
344.175
21
-129.85
0
LINE
8
0
6
CONTINUOUS
10
344.175
20
-129.85
11
344.175
21
-115.85
0
LINE
8
0
6
CONTINUOUS
10
344.175
20
-115.85
11
330.175
21
-115.85
0
LINE
8
0
6
CONTINUOUS
10
330.175
20
-115.85
11
330.175
21
-129.85
0
LINE
8
0
6
CONTINUOUS
10
330.175
20
-110.8
11
344.175
21
-110.8
0
LINE
8
0
6
CONTINUOUS
10
344.175
20
-110.8
11
344.175
21
-96.8
0
LINE
8
0
6
CONTINUOUS
10
344.175
20
-96.8
11
330.175
21
-96.8
0
LINE
8
0
6
CONTINUOUS
10
330.175
20
-96.8
11
330.175
21
-110.8
0
LINE
8
0
6
CONTINUOUS
10
311.125
20
-177.475
11
325.125
21
-177.475
0
LINE
8
0
6
CONTINUOUS
10
325.125
20
-177.475
11
325.125
21
-163.475
0
LINE
8
0
6
CONTINUOUS
10
325.125
20
-163.475
11
311.125
21
-163.475
0
LINE
8
0
6
CONTINUOUS
10
311.125
20
-163.475
11
311.125
21
-177.475
0
LINE
8
0
6
CONTINUOUS
10
311.125
20
-158.425
11
325.125
21
-158.425
0
LINE
8
0
6
CONTINUOUS
10
325.125
20
-158.425
11
325.125
21
-144.425
0
LINE
8
0
6
CONTINUOUS
10
325.125
20
-144.425
11
311.125
21
-144.425
0
LINE
8
0
6
CONTINUOUS
10
311.125
20
-144.425
11
311.125
21
-158.425
0
LINE
8
0
6
CONTINUOUS
10
311.125
20
-139.375
11
325.125
21
-139.375
0
LINE
8
0
6
CONTINUOUS
10
325.125
20
-139.375
11
325.125
21
-125.375
0
LINE
8
0
6
CONTINUOUS
10
325.125
20
-125.375
11
311.125
21
-125.375
0
LINE
8
0
6
CONTINUOUS
10
311.125
20
-125.375
11
311.125
21
-139.375
0
LINE
8
0
6
CONTINUOUS
10
311.125
20
-120.325
11
325.125
21
-120.325
0
LINE
8
0
6
CONTINUOUS
10
325.125
20
-120.325
11
325.125
21
-106.325
0
LINE
8
0
6
CONTINUOUS
10
325.125
20
-106.325
11
311.125
21
-106.325
0
LINE
8
0
6
CONTINUOUS
10
311.125
20
-106.325
11
311.125
21
-120.325
0
LINE
8
0
6
CONTINUOUS
10
311.125
20
-101.275
11
325.125
21
-101.275
0
LINE
8
0
6
CONTINUOUS
10
325.125
20
-101.275
11
325.125
21
-87.275
0
LINE
8
0
6
CONTINUOUS
10
325.125
20
-87.275
11
311.125
21
-87.275
0
LINE
8
0
6
CONTINUOUS
10
311.125
20
-87.275
11
311.125
21
-101.275
0
LINE
8
0
6
CONTINUOUS
10
292.075
20
-172.7125
11
306.075
21
-172.7125
0
LINE
8
0
6
CONTINUOUS
10
306.075
20
-172.7125
11
306.075
21
-158.7125
0
LINE
8
0
6
CONTINUOUS
10
306.075
20
-158.7125
11
292.075
21
-158.7125
0
LINE
8
0
6
CONTINUOUS
10
292.075
20
-158.7125
11
292.075
21
-172.7125
0
LINE
8
0
6
CONTINUOUS
10
292.075
20
-153.6625
11
306.075
21
-153.6625
0
LINE
8
0
6
CONTINUOUS
10
306.075
20
-153.6625
11
306.075
21
-139.6625
0
LINE
8
0
6
CONTINUOUS
10
306.075
20
-139.6625
11
292.075
21
-139.6625
0
LINE
8
0
6
CONTINUOUS
10
292.075
20
-139.6625
11
292.075
21
-153.6625
0
LINE
8
0
6
CONTINUOUS
10
292.075
20
-134.6125
11
306.075
21
-134.6125
0
LINE
8
0
6
CONTINUOUS
10
306.075
20
-134.6125
11
306.075
21
-120.6125
0
LINE
8
0
6
CONTINUOUS
10
306.075
20
-120.6125
11
292.075
21
-120.6125
0
LINE
8
0
6
CONTINUOUS
10
292.075
20
-120.6125
11
292.075
21
-134.6125
0
LINE
8
0
6
CONTINUOUS
10
292.075
20
-115.5625
11
306.075
21
-115.5625
0
LINE
8
0
6
CONTINUOUS
10
306.075
20
-115.5625
11
306.075
21
-101.5625
0
LINE
8
0
6
CONTINUOUS
10
306.075
20
-101.5625
11
292.075
21
-101.5625
0
LINE
8
0
6
CONTINUOUS
10
292.075
20
-101.5625
11
292.075
21
-115.5625
0
LINE
8
0
6
CONTINUOUS
10
292.075
20
-96.5125
11
306.075
21
-96.5125
0
LINE
8
0
6
CONTINUOUS
10
306.075
20
-96.5125
11
306.075
21
-82.5125
0
LINE
8
0
6
CONTINUOUS
10
306.075
20
-82.5125
11
292.075
21
-82.5125
0
LINE
8
0
6
CONTINUOUS
10
292.075
20
-82.5125
11
292.075
21
-96.5125
0
LINE
8
0
6
CONTINUOUS
10
273.025
20
-156.04375
11
287.025
21
-156.04375
0
LINE
8
0
6
CONTINUOUS
10
287.025
20
-156.04375
11
287.025
21
-142.04375
0
LINE
8
0
6
CONTINUOUS
10
287.025
20
-142.04375
11
273.025
21
-142.04375
0
LINE
8
0
6
CONTINUOUS
10
273.025
20
-142.04375
11
273.025
21
-156.04375
0
LINE
8
0
6
CONTINUOUS
10
273.025
20
-136.99375
11
287.025
21
-136.99375
0
LINE
8
0
6
CONTINUOUS
10
287.025
20
-136.99375
11
287.025
21
-122.99375
0
LINE
8
0
6
CONTINUOUS
10
287.025
20
-122.99375
11
273.025
21
-122.99375
0
LINE
8
0
6
CONTINUOUS
10
273.025
20
-122.99375
11
273.025
21
-136.99375
0
LINE
8
0
6
CONTINUOUS
10
273.025
20
-117.94375
11
287.025
21
-117.94375
0
LINE
8
0
6
CONTINUOUS
10
287.025
20
-117.94375
11
287.025
21
-103.94375
0
LINE
8
0
6
CONTINUOUS
10
287.025
20
-103.94375
11
273.025
21
-103.94375
0
LINE
8
0
6
CONTINUOUS
10
273.025
20
-103.94375
11
273.025
21
-117.94375
0
LINE
8
0
6
CONTINUOUS
10
273.025
20
-98.89375
11
287.025
21
-98.89375
0
LINE
8
0
6
CONTINUOUS
10
287.025
20
-98.89375
11
287.025
21
-84.89375
0
LINE
8
0
6
CONTINUOUS
10
287.025
20
-84.89375
11
273.025
21
-84.89375
0
LINE
8
0
6
CONTINUOUS
10
273.025
20
-84.89375
11
273.025
21
-98.89375
0
LINE
8
0
6
CONTINUOUS
10
253.975
20
-158.425
11
267.975
21
-158.425
0
LINE
8
0
6
CONTINUOUS
10
267.975
20
-158.425
11
267.975
21
-144.425
0
LINE
8
0
6
CONTINUOUS
10
267.975
20
-144.425
11
253.975
21
-144.425
0
LINE
8
0
6
CONTINUOUS
10
253.975
20
-144.425
11
253.975
21
-158.425
0
LINE
8
0
6
CONTINUOUS
10
253.975
20
-139.375
11
267.975
21
-139.375
0
LINE
8
0
6
CONTINUOUS
10
267.975
20
-139.375
11
267.975
21
-125.375
0
LINE
8
0
6
CONTINUOUS
10
267.975
20
-125.375
11
253.975
21
-125.375
0
LINE
8
0
6
CONTINUOUS
10
253.975
20
-125.375
11
253.975
21
-139.375
0
LINE
8
0
6
CONTINUOUS
10
253.975
20
-120.325
11
267.975
21
-120.325
0
LINE
8
0
6
CONTINUOUS
10
267.975
20
-120.325
11
267.975
21
-106.325
0
LINE
8
0
6
CONTINUOUS
10
267.975
20
-106.325
11
253.975
21
-106.325
0
LINE
8
0
6
CONTINUOUS
10
253.975
20
-106.325
11
253.975
21
-120.325
0
LINE
8
0
6
CONTINUOUS
10
253.975
20
-101.275
11
267.975
21
-101.275
0
LINE
8
0
6
CONTINUOUS
10
267.975
20
-101.275
11
267.975
21
-87.275
0
LINE
8
0
6
CONTINUOUS
10
267.975
20
-87.275
11
253.975
21
-87.275
0
LINE
8
0
6
CONTINUOUS
10
253.975
20
-87.275
11
253.975
21
-101.275
0
LINE
8
0
6
CONTINUOUS
10
234.925
20
-148.9
11
248.925
21
-148.9
0
LINE
8
0
6
CONTINUOUS
10
248.925
20
-148.9
11
248.925
21
-134.9
0
LINE
8
0
6
CONTINUOUS
10
248.925
20
-134.9
11
234.925
21
-134.9
0
LINE
8
0
6
CONTINUOUS
10
234.925
20
-134.9
11
234.925
21
-148.9
0
LINE
8
0
6
CONTINUOUS
10
234.925
20
-129.85
11
248.925
21
-129.85
0
LINE
8
0
6
CONTINUOUS
10
248.925
20
-129.85
11
248.925
21
-115.85
0
LINE
8
0
6
CONTINUOUS
10
248.925
20
-115.85
11
234.925
21
-115.85
0
LINE
8
0
6
CONTINUOUS
10
234.925
20
-115.85
11
234.925
21
-129.85
0
LINE
8
0
6
CONTINUOUS
10
234.925
20
-110.8
11
248.925
21
-110.8
0
LINE
8
0
6
CONTINUOUS
10
248.925
20
-110.8
11
248.925
21
-96.8
0
LINE
8
0
6
CONTINUOUS
10
248.925
20
-96.8
11
234.925
21
-96.8
0
LINE
8
0
6
CONTINUOUS
10
234.925
20
-96.8
11
234.925
21
-110.8
0
LINE
8
0
6
CONTINUOUS
10
266.9523383
20
-182.3357247
11
279.7419747
21
-176.6414117
0
LINE
8
0
6
CONTINUOUS
10
279.7419747
20
-176.6414117
11
274.0476617
21
-163.8517753
0
LINE
8
0
6
CONTINUOUS
10
274.0476617
20
-163.8517753
11
261.2580253
21
-169.5460883
0
LINE
8
0
6
CONTINUOUS
10
261.2580253
20
-169.5460883
11
266.9523383
21
-182.3357247
0
LINE
8
0
6
CONTINUOUS
10
243.2614538
20
-187.6703808
11
256.0510902
21
-181.9760678
0
LINE
8
0
6
CONTINUOUS
10
256.0510902
20
-181.9760678
11
250.3567772
21
-169.1864314
0
LINE
8
0
6
CONTINUOUS
10
250.3567772
20
-169.1864314
11
237.5671408
21
-174.8807444
0
LINE
8
0
6
CONTINUOUS
10
237.5671408
20
-174.8807444
11
243.2614538
21
-187.6703808
0
ENDSEC
0
EOF