0
SECTION
2
HEADER
9
$INSUNITS
70
4
0
ENDSEC
0
SECTION
2
TABLES
0
TABLE
2
LTYPE
0
LTYPE
72
65
70
0
2
CONTINUOUS
3
______
73
0
40
0
0
LTYPE
72
65
70
0
2
DASHED
3
_ _ _ 
73
2
40
7.5
49
5
49
-2.5
0
LTYPE
72
65
70
0
2
DOTTED
3
. . . 
73
2
40
1.5
49
0.5
49
-1
0
ENDTAB
0
TABLE
2
LAYER
0
ENDTAB
0
ENDSEC
0
SECTION
2
ENTITIES
0
LINE
8
0
6
CONTINUOUS
10
372.75
20
-188.525
11
372.75
21
-94.7539267
0
ARC
8
0
6
CONTINUOUS
10
364.75
20
-94.7539267
40
8
50
0
51
72.9631385
0
LINE
8
0
6
CONTINUOUS
10
367.0938952
20
-87.1049951
11
322.1693354
21
-73.3385683
0
ARC
8
0
6
CONTINUOUS
10
319.8254403
20
-80.9875
40
8
50
72.9631385
51
90
0
LINE
8
0
6
CONTINUOUS
10
319.8254403
20
-72.9875
11
262.5746747
21
-72.9875
0
ARC
8
0
6
CONTINUOUS
10
262.5746747
20
-80.9875
40
8
50
90
51
114.9336597
0
LINE
8
0
6
CONTINUOUS
10
259.2021262
20
-73.7331278
11
230.0271642
21
-87.2965304
0
ARC
8
0
6
CONTINUOUS
10
233.3997127
20
-94.5509026
40
8
50
114.9336597
51
179.987097
0
LINE
8
0
6
CONTINUOUS
10
225.399713
20
-94.5491011
11
225.3828957
21
-169.2303288
0
ARC
8
0
6
CONTINUOUS
10
233.3828955
20
-169.2321303
40
8
50
179.987097
51
203.9999968
0
LINE
8
0
6
CONTINUOUS
10
226.0745317
20
-172.4860233
11
237.1168444
21
-197.2874636
0
ARC
8
0
6
CONTINUOUS
10
242.5985626
20
-194.8480445
40
6
50
203.9895395
51
203.9999968
0
ARC
8
0
6
CONTINUOUS
10
244.4256536
20
-194.0345713
40
8
50
203.9999968
51
293.9999968
0
ARC
8
0
6
CONTINUOUS
10
245.2391268
20
-195.8616623
40
6
50
293.9999968
51
294.0104611
0
LINE
8
0
6
CONTINUOUS
10
247.6805474
20
-201.3424894
11
288.5512701
21
-183.1456712
0
LINE
8
0
6
CONTINUOUS
10
288.5512701
20
-183.1456712
11
325.3390062
21
-196.0725853
0
ARC
8
0
6
CONTINUOUS
10
327.9911669
20
-188.525
40
8
50
250.6389355
51
270
0
LINE
8
0
6
CONTINUOUS
10
327.9911669
20
-196.525
11
364.75
21
-196.525
0
ARC
8
0
6
CONTINUOUS
10
364.75
20
-188.525
40
8
50
270
51
360
0
LINE
8
0
6
CONTINUOUS
10
63.475
20
-188.525
11
63.475
21
-94.7539267
0
ARC
8
0
6
CONTINUOUS
10
71.475
20
-94.7539267
40
8
50
107.0368615
51
180
0
LINE
8
0
6
CONTINUOUS
10
69.1311048
20
-87.1049951
11
114.0556646
21
-73.3385683
0
ARC
8
0
6
CONTINUOUS
10
116.3995597
20
-80.9875
40
8
50
90
51
107.0368615
0
LINE
8
0
6
CONTINUOUS
10
116.3995597
20
-72.9875
11
173.6503253
21
-72.9875
0
ARC
8
0
6
CONTINUOUS
10
173.6503253
20
-80.9875
40
8
50
65.0663403
51
90
0
LINE
8
0
6
CONTINUOUS
10
177.0228738
20
-73.7331278
11
206.1978358
21
-87.2965304
0
ARC
8
0
6
CONTINUOUS
10
202.8252873
20
-94.5509026
40
8
50
0.012903
51
65.0663403
0
LINE
8
0
6
CONTINUOUS
10
210.825287
20
-94.5491011
11
210.8421043
21
-169.2303288
0
ARC
8
0
6
CONTINUOUS
10
202.8421045
20
-169.2321303
40
8
50
336.0000032
51
360.012903
0
LINE
8
0
6
CONTINUOUS
10
210.1504683
20
-172.4860233
11
199.1081556
21
-197.2874636
0
ARC
8
0
6
CONTINUOUS
10
193.6264374
20
-194.8480445
40
6
50
336.0000032
51
336.0104605
0
ARC
8
0
6
CONTINUOUS
10
191.7993464
20
-194.0345713
40
8
50
246.0000032
51
336.0000032
0
ARC
8
0
6
CONTINUOUS
10
190.9858732
20
-195.8616623
40
6
50
245.9895389
51
246.0000032
0
LINE
8
0
6
CONTINUOUS
10
188.5444526
20
-201.3424894
11
147.6737299
21
-183.1456712
0
LINE
8
0
6
CONTINUOUS
10
147.6737299
20
-183.1456712
11
110.8859938
21
-196.0725853
0
ARC
8
0
6
CONTINUOUS
10
108.2338331
20
-188.525
40
8
50
270
51
289.3610645
0
LINE
8
0
6
CONTINUOUS
10
108.2338331
20
-196.525
11
71.475
21
-196.525
0
ARC
8
0
6
CONTINUOUS
10
71.475
20
-188.525
40
8
50
180
51
270
0
LINE
8
0
6
CONTINUOUS
10
69.975
20
-190.225
11
109.075
21
-190.225
0
ARC
8
0
6
CONTINUOUS
10
109.075
20
-190.025
40
0.2
50
270
51
360
0
LINE
8
0
6
CONTINUOUS
10
109.275
20
-190.025
11
109.275
21
-180.7
0
LINE
8
0
6
CONTINUOUS
10
109.275
20
-180.7
11
128.125
21
-180.7
0
ARC
8
0
6
CONTINUOUS
10
128.125
20
-180.5
40
0.2
50
270
51
360
0
LINE
8
0
6
CONTINUOUS
10
128.325
20
-180.5
11
128.325
21
-175.9375
0
LINE
8
0
6
CONTINUOUS
10
128.325
20
-175.9375
11
146.1465296
21
-175.9375
0
LINE
8
0
6
CONTINUOUS
10
148.5262871
20
-176.6290456
11
146.1465296
21
-175.9375
0
LINE
8
0
6
CONTINUOUS
10
192.4782122
20
-196.1977034
11
148.5262871
21
-176.6290456
0
ARC
8
0
6
CONTINUOUS
10
192.5595596
20
-196.0149944
40
0.2
50
245.9999707
51
336
0
LINE
8
0
6
CONTINUOUS
10
204.7715048
20
-169.0782349
11
192.7422686
21
-196.0963418
0
ARC
8
0
6
CONTINUOUS
10
204.5887958
20
-168.9968875
40
0.2
50
335.9999707
51
426.129288
0
LINE
8
0
6
CONTINUOUS
10
185.475
20
-160.3197974
11
204.6697306
21
-168.8139953
0
LINE
8
0
6
CONTINUOUS
10
185.475
20
-160.3197974
11
185.475
21
-152.125
0
LINE
8
0
6
CONTINUOUS
10
185.475
20
-152.125
11
204.325
21
-152.125
0
ARC
8
0
6
CONTINUOUS
10
204.325
20
-151.925
40
0.2
50
270
51
360
0
LINE
8
0
6
CONTINUOUS
10
204.525
20
-151.925
11
204.525
21
-93.775
0
ARC
8
0
6
CONTINUOUS
10
204.325
20
-93.775
40
0.2
50
0
51
90
0
LINE
8
0
6
CONTINUOUS
10
204.325
20
-93.575
11
185.475
21
-93.575
0
LINE
8
0
6
CONTINUOUS
10
185.475
20
-93.575
11
185.475
21
-84.25
0
ARC
8
0
6
CONTINUOUS
10
185.275
20
-84.25
40
0.2
50
0
51
90
0
LINE
8
0
6
CONTINUOUS
10
185.275
20
-84.05
11
166.425
21
-84.05
0
LINE
8
0
6
CONTINUOUS
10
166.425
20
-84.05
11
166.425
21
-81.86875
0
ARC
8
0
6
CONTINUOUS
10
166.225
20
-81.86875
40
0.2
50
0
51
90
0
LINE
8
0
6
CONTINUOUS
10
166.225
20
-81.66875
11
147.375
21
-81.66875
0
LINE
8
0
6
CONTINUOUS
10
147.375
20
-81.66875
11
147.375
21
-79.4875
0
ARC
8
0
6
CONTINUOUS
10
147.175
20
-79.4875
40
0.2
50
0
51
90
0
LINE
8
0
6
CONTINUOUS
10
147.175
20
-79.2875
11
127.125
21
-79.2875
0
ARC
8
0
6
CONTINUOUS
10
127.125
20
-79.4875
40
0.2
50
90
51
180
0
LINE
8
0
6
CONTINUOUS
10
126.925
20
-79.4875
11
126.925
21
-84.05
0
LINE
8
0
6
CONTINUOUS
10
126.925
20
-84.05
11
108.075
21
-84.05
0
ARC
8
0
6
CONTINUOUS
10
108.075
20
-84.25
40
0.2
50
90
51
180
0
LINE
8
0
6
CONTINUOUS
10
107.875
20
-84.25
11
107.875
21
-93.575
0
LINE
8
0
6
CONTINUOUS
10
69.975
20
-93.575
11
107.875
21
-93.575
0
ARC
8
0
6
CONTINUOUS
10
69.975
20
-93.775
40
0.2
50
90
51
180
0
LINE
8
0
6
CONTINUOUS
10
69.775
20
-190.025
11
69.775
21
-93.775
0
ARC
8
0
6
CONTINUOUS
10
69.975
20
-190.025
40
0.2
50
180
51
270
0
LINE
8
0
6
CONTINUOUS
10
327.15
20
-190.225
11
366.25
21
-190.225
0
ARC
8
0
6
CONTINUOUS
10
366.25
20
-190.025
40
0.2
50
270
51
360
0
LINE
8
0
6
CONTINUOUS
10
366.45
20
-190.025
11
366.45
21
-93.775
0
ARC
8
0
6
CONTINUOUS
10
366.25
20
-93.775
40
0.2
50
0
51
90
0
LINE
8
0
6
CONTINUOUS
10
328.35
20
-93.575
11
366.25
21
-93.575
0
LINE
8
0
6
CONTINUOUS
10
328.35
20
-93.575
11
328.35
21
-84.25
0
ARC
8
0
6
CONTINUOUS
10
328.15
20
-84.25
40
0.2
50
0
51
90
0
LINE
8
0
6
CONTINUOUS
10
328.15
20
-84.05
11
309.3
21
-84.05
0
LINE
8
0
6
CONTINUOUS
10
309.3
20
-84.05
11
309.3
21
-79.4875
0
ARC
8
0
6
CONTINUOUS
10
309.1
20
-79.4875
40
0.2
50
0
51
90
0
LINE
8
0
6
CONTINUOUS
10
309.1
20
-79.2875
11
289.05
21
-79.2875
0
ARC
8
0
6
CONTINUOUS
10
289.05
20
-79.4875
40
0.2
50
90
51
180
0
LINE
8
0
6
CONTINUOUS
10
288.85
20
-79.4875
11
288.85
21
-81.66875
0
LINE
8
0
6
CONTINUOUS
10
288.85
20
-81.66875
11
270
21
-81.66875
0
ARC
8
0
6
CONTINUOUS
10
270
20
-81.86875
40
0.2
50
90
51
180
0
LINE
8
0
6
CONTINUOUS
10
269.8
20
-81.86875
11
269.8
21
-84.05
0
LINE
8
0
6
CONTINUOUS
10
269.8
20
-84.05
11
250.95
21
-84.05
0
ARC
8
0
6
CONTINUOUS
10
250.95
20
-84.25
40
0.2
50
90
51
180
0
LINE
8
0
6
CONTINUOUS
10
250.75
20
-84.25
11
250.75
21
-93.575
0
LINE
8
0
6
CONTINUOUS
10
250.75
20
-93.575
11
231.9
21
-93.575
0
ARC
8
0
6
CONTINUOUS
10
231.9
20
-93.775
40
0.2
50
90
51
180
0
LINE
8
0
6
CONTINUOUS
10
231.7
20
-151.925
11
231.7
21
-93.775
0
ARC
8
0
6
CONTINUOUS
10
231.9
20
-151.925
40
0.2
50
180
51
270
0
LINE
8
0
6
CONTINUOUS
10
231.9
20
-152.125
11
250.75
21
-152.125
0
LINE
8
0
6
CONTINUOUS
10
250.75
20
-152.125
11
250.75
21
-160.4291515
0
LINE
8
0
6
CONTINUOUS
10
250.75
20
-160.4291515
11
231.5957368
21
-168.9054414
0
ARC
8
0
6
CONTINUOUS
10
231.6362042
20
-168.9968875
40
0.1
50
113.870712
51
204.0000508
0
LINE
8
0
6
CONTINUOUS
10
231.5448497
20
-169.0375612
11
243.5740859
21
-196.0556681
0
ARC
8
0
6
CONTINUOUS
10
243.6654404
20
-196.0149944
40
0.1
50
204
51
294.0000293
0
LINE
8
0
6
CONTINUOUS
10
243.7061141
20
-196.1063489
11
287.6642642
21
-176.5349195
0
LINE
8
0
6
CONTINUOUS
10
287.6642642
20
-176.5349195
11
289.7201137
21
-175.9375
0
LINE
8
0
6
CONTINUOUS
10
289.7201137
20
-175.9375
11
307.9
21
-175.9375
0
LINE
8
0
6
CONTINUOUS
10
307.9
20
-175.9375
11
307.9
21
-180.5
0
ARC
8
0
6
CONTINUOUS
10
308.1
20
-180.5
40
0.2
50
180
51
270
0
LINE
8
0
6
CONTINUOUS
10
308.1
20
-180.7
11
326.95
21
-180.7
0
LINE
8
0
6
CONTINUOUS
10
326.95
20
-180.7
11
326.95
21
-190.025
0
ARC
8
0
6
CONTINUOUS
10
327.15
20
-190.025
40
0.2
50
180
51
270
0
LINE
8
0
6
CONTINUOUS
10
71.975
20
-189.025
11
88.025
21
-189.025
0
LINE
8
0
6
CONTINUOUS
10
89.025
20
-188.025
11
89.025
21
-171.975
0
LINE
8
0
6
CONTINUOUS
10
88.025
20
-170.975
11
71.975
21
-170.975
0
LINE
8
0
6
CONTINUOUS
10
70.975
20
-171.975
11
70.975
21
-188.025
0
LINE
8
0
6
CONTINUOUS
10
71.975
20
-169.975
11
88.025
21
-169.975
0
LINE
8
0
6
CONTINUOUS
10
89.025
20
-168.975
11
89.025
21
-152.925
0
LINE
8
0
6
CONTINUOUS
10
88.025
20
-151.925
11
71.975
21
-151.925
0
LINE
8
0
6
CONTINUOUS
10
70.975
20
-152.925
11
70.975
21
-168.975
0
LINE
8
0
6
CONTINUOUS
10
71.975
20
-150.925
11
88.025
21
-150.925
0
LINE
8
0
6
CONTINUOUS
10
89.025
20
-149.925
11
89.025
21
-133.875
0
LINE
8
0
6
CONTINUOUS
10
88.025
20
-132.875
11
71.975
21
-132.875
0
LINE
8
0
6
CONTINUOUS
10
70.975
20
-133.875
11
70.975
21
-149.925
0
LINE
8
0
6
CONTINUOUS
10
71.975
20
-131.875
11
88.025
21
-131.875
0
LINE
8
0
6
CONTINUOUS
10
89.025
20
-130.875
11
89.025
21
-114.825
0
LINE
8
0
6
CONTINUOUS
10
88.025
20
-113.825
11
71.975
21
-113.825
0
LINE
8
0
6
CONTINUOUS
10
70.975
20
-114.825
11
70.975
21
-130.875
0
LINE
8
0
6
CONTINUOUS
10
71.975
20
-112.825
11
88.025
21
-112.825
0
LINE
8
0
6
CONTINUOUS
10
89.025
20
-111.825
11
89.025
21
-95.775
0
LINE
8
0
6
CONTINUOUS
10
88.025
20
-94.775
11
71.975
21
-94.775
0
LINE
8
0
6
CONTINUOUS
10
70.975
20
-95.775
11
70.975
21
-111.825
0
LINE
8
0
6
CONTINUOUS
10
91.025
20
-189.025
11
107.075
21
-189.025
0
LINE
8
0
6
CONTINUOUS
10
108.075
20
-188.025
11
108.075
21
-171.975
0
LINE
8
0
6
CONTINUOUS
10
107.075
20
-170.975
11
91.025
21
-170.975
0
LINE
8
0
6
CONTINUOUS
10
90.025
20
-171.975
11
90.025
21
-188.025
0
LINE
8
0
6
CONTINUOUS
10
91.025
20
-169.975
11
107.075
21
-169.975
0
LINE
8
0
6
CONTINUOUS
10
108.075
20
-168.975
11
108.075
21
-152.925
0
LINE
8
0
6
CONTINUOUS
10
107.075
20
-151.925
11
91.025
21
-151.925
0
LINE
8
0
6
CONTINUOUS
10
90.025
20
-152.925
11
90.025
21
-168.975
0
LINE
8
0
6
CONTINUOUS
10
91.025
20
-150.925
11
107.075
21
-150.925
0
LINE
8
0
6
CONTINUOUS
10
108.075
20
-149.925
11
108.075
21
-133.875
0
LINE
8
0
6
CONTINUOUS
10
107.075
20
-132.875
11
91.025
21
-132.875
0
LINE
8
0
6
CONTINUOUS
10
90.025
20
-133.875
11
90.025
21
-149.925
0
LINE
8
0
6
CONTINUOUS
10
91.025
20
-131.875
11
107.075
21
-131.875
0
LINE
8
0
6
CONTINUOUS
10
108.075
20
-130.875
11
108.075
21
-114.825
0
LINE
8
0
6
CONTINUOUS
10
107.075
20
-113.825
11
91.025
21
-113.825
0
LINE
8
0
6
CONTINUOUS
10
90.025
20
-114.825
11
90.025
21
-130.875
0
LINE
8
0
6
CONTINUOUS
10
91.025
20
-112.825
11
107.075
21
-112.825
0
LINE
8
0
6
CONTINUOUS
10
108.075
20
-111.825
11
108.075
21
-95.775
0
LINE
8
0
6
CONTINUOUS
10
107.075
20
-94.775
11
91.025
21
-94.775
0
LINE
8
0
6
CONTINUOUS
10
90.025
20
-95.775
11
90.025
21
-111.825
0
LINE
8
0
6
CONTINUOUS
10
110.075
20
-179.5
11
126.125
21
-179.5
0
LINE
8
0
6
CONTINUOUS
10
127.125
20
-178.5
11
127.125
21
-162.45
0
LINE
8
0
6
CONTINUOUS
10
126.125
20
-161.45
11
110.075
21
-161.45
0
LINE
8
0
6
CONTINUOUS
10
109.075
20
-162.45
11
109.075
21
-178.5
0
LINE
8
0
6
CONTINUOUS
10
110.075
20
-160.45
11
126.125
21
-160.45
0
LINE
8
0
6
CONTINUOUS
10
127.125
20
-159.45
11
127.125
21
-143.4
0
LINE
8
0
6
CONTINUOUS
10
126.125
20
-142.4
11
110.075
21
-142.4
0
LINE
8
0
6
CONTINUOUS
10
109.075
20
-143.4
11
109.075
21
-159.45
0
LINE
8
0
6
CONTINUOUS
10
110.075
20
-141.4
11
126.125
21
-141.4
0
LINE
8
0
6
CONTINUOUS
10
127.125
20
-140.4
11
127.125
21
-124.35
0
LINE
8
0
6
CONTINUOUS
10
126.125
20
-123.35
11
110.075
21
-123.35
0
LINE
8
0
6
CONTINUOUS
10
109.075
20
-124.35
11
109.075
21
-140.4
0
LINE
8
0
6
CONTINUOUS
10
110.075
20
-122.35
11
126.125
21
-122.35
0
LINE
8
0
6
CONTINUOUS
10
127.125
20
-121.35
11
127.125
21
-105.3
0
LINE
8
0
6
CONTINUOUS
10
126.125
20
-104.3
11
110.075
21
-104.3
0
LINE
8
0
6
CONTINUOUS
10
109.075
20
-105.3
11
109.075
21
-121.35
0
LINE
8
0
6
CONTINUOUS
10
110.075
20
-103.3
11
126.125
21
-103.3
0
LINE
8
0
6
CONTINUOUS
10
127.125
20
-102.3
11
127.125
21
-86.25
0
LINE
8
0
6
CONTINUOUS
10
126.125
20
-85.25
11
110.075
21
-85.25
0
LINE
8
0
6
CONTINUOUS
10
109.075
20
-86.25
11
109.075
21
-102.3
0
LINE
8
0
6
CONTINUOUS
10
129.125
20
-174.7375
11
145.175
21
-174.7375
0
LINE
8
0
6
CONTINUOUS
10
146.175
20
-173.7375
11
146.175
21
-157.6875
0
LINE
8
0
6
CONTINUOUS
10
145.175
20
-156.6875
11
129.125
21
-156.6875
0
LINE
8
0
6
CONTINUOUS
10
128.125
20
-157.6875
11
128.125
21
-173.7375
0
LINE
8
0
6
CONTINUOUS
10
129.125
20
-155.6875
11
145.175
21
-155.6875
0
LINE
8
0
6
CONTINUOUS
10
146.175
20
-154.6875
11
146.175
21
-138.6375
0
LINE
8
0
6
CONTINUOUS
10
145.175
20
-137.6375
11
129.125
21
-137.6375
0
LINE
8
0
6
CONTINUOUS
10
128.125
20
-138.6375
11
128.125
21
-154.6875
0
LINE
8
0
6
CONTINUOUS
10
129.125
20
-136.6375
11
145.175
21
-136.6375
0
LINE
8
0
6
CONTINUOUS
10
146.175
20
-135.6375
11
146.175
21
-119.5875
0
LINE
8
0
6
CONTINUOUS
10
145.175
20
-118.5875
11
129.125
21
-118.5875
0
LINE
8
0
6
CONTINUOUS
10
128.125
20
-119.5875
11
128.125
21
-135.6375
0
LINE
8
0
6
CONTINUOUS
10
129.125
20
-117.5875
11
145.175
21
-117.5875
0
LINE
8
0
6
CONTINUOUS
10
146.175
20
-116.5875
11
146.175
21
-100.5375
0
LINE
8
0
6
CONTINUOUS
10
145.175
20
-99.5375
11
129.125
21
-99.5375
0
LINE
8
0
6
CONTINUOUS
10
128.125
20
-100.5375
11
128.125
21
-116.5875
0
LINE
8
0
6
CONTINUOUS
10
129.125
20
-98.5375
11
145.175
21
-98.5375
0
LINE
8
0
6
CONTINUOUS
10
146.175
20
-97.5375
11
146.175
21
-81.4875
0
LINE
8
0
6
CONTINUOUS
10
145.175
20
-80.4875
11
129.125
21
-80.4875
0
LINE
8
0
6
CONTINUOUS
10
128.125
20
-81.4875
11
128.125
21
-97.5375
0
LINE
8
0
6
CONTINUOUS
10
148.175
20
-158.06875
11
164.225
21
-158.06875
0
LINE
8
0
6
CONTINUOUS
10
165.225
20
-157.06875
11
165.225
21
-141.01875
0
LINE
8
0
6
CONTINUOUS
10
164.225
20
-140.01875
11
148.175
21
-140.01875
0
LINE
8
0
6
CONTINUOUS
10
147.175
20
-141.01875
11
147.175
21
-157.06875
0
LINE
8
0
6
CONTINUOUS
10
148.175
20
-139.01875
11
164.225
21
-139.01875
0
LINE
8
0
6
CONTINUOUS
10
165.225
20
-138.01875
11
165.225
21
-121.96875
0
LINE
8
0
6
CONTINUOUS
10
164.225
20
-120.96875
11
148.175
21
-120.96875
0
LINE
8
0
6
CONTINUOUS
10
147.175
20
-121.96875
11
147.175
21
-138.01875
0
LINE
8
0
6
CONTINUOUS
10
148.175
20
-119.96875
11
164.225
21
-119.96875
0
LINE
8
0
6
CONTINUOUS
10
165.225
20
-118.96875
11
165.225
21
-102.91875
0
LINE
8
0
6
CONTINUOUS
10
164.225
20
-101.91875
11
148.175
21
-101.91875
0
LINE
8
0
6
CONTINUOUS
10
147.175
20
-102.91875
11
147.175
21
-118.96875
0
LINE
8
0
6
CONTINUOUS
10
148.175
20
-100.91875
11
164.225
21
-100.91875
0
LINE
8
0
6
CONTINUOUS
10
165.225
20
-99.91875
11
165.225
21
-83.86875
0
LINE
8
0
6
CONTINUOUS
10
164.225
20
-82.86875
11
148.175
21
-82.86875
0
LINE
8
0
6
CONTINUOUS
10
147.175
20
-83.86875
11
147.175
21
-99.91875
0
LINE
8
0
6
CONTINUOUS
10
167.225
20
-160.45
11
183.275
21
-160.45
0
LINE
8
0
6
CONTINUOUS
10
184.275
20
-159.45
11
184.275
21
-143.4
0
LINE
8
0
6
CONTINUOUS
10
183.275
20
-142.4
11
167.225
21
-142.4
0
LINE
8
0
6
CONTINUOUS
10
166.225
20
-143.4
11
166.225
21
-159.45
0
LINE
8
0
6
CONTINUOUS
10
167.225
20
-141.4
11
183.275
21
-141.4
0
LINE
8
0
6
CONTINUOUS
10
184.275
20
-140.4
11
184.275
21
-124.35
0
LINE
8
0
6
CONTINUOUS
10
183.275
20
-123.35
11
167.225
21
-123.35
0
LINE
8
0
6
CONTINUOUS
10
166.225
20
-124.35
11
166.225
21
-140.4
0
LINE
8
0
6
CONTINUOUS
10
167.225
20
-122.35
11
183.275
21
-122.35
0
LINE
8
0
6
CONTINUOUS
10
184.275
20
-121.35
11
184.275
21
-105.3
0
LINE
8
0
6
CONTINUOUS
10
183.275
20
-104.3
11
167.225
21
-104.3
0
LINE
8
0
6
CONTINUOUS
10
166.225
20
-105.3
11
166.225
21
-121.35
0
LINE
8
0
6
CONTINUOUS
10
167.225
20
-103.3
11
183.275
21
-103.3
0
LINE
8
0
6
CONTINUOUS
10
184.275
20
-102.3
11
184.275
21
-86.25
0
LINE
8
0
6
CONTINUOUS
10
183.275
20
-85.25
11
167.225
21
-85.25
0
LINE
8
0
6
CONTINUOUS
10
166.225
20
-86.25
11
166.225
21
-102.3
0
LINE
8
0
6
CONTINUOUS
10
186.275
20
-150.925
11
202.325
21
-150.925
0
LINE
8
0
6
CONTINUOUS
10
203.325
20
-149.925
11
203.325
21
-133.875
0
LINE
8
0
6
CONTINUOUS
10
202.325
20
-132.875
11
186.275
21
-132.875
0
LINE
8
0
6
CONTINUOUS
10
185.275
20
-133.875
11
185.275
21
-149.925
0
LINE
8
0
6
CONTINUOUS
10
186.275
20
-131.875
11
202.325
21
-131.875
0
LINE
8
0
6
CONTINUOUS
10
203.325
20
-130.875
11
203.325
21
-114.825
0
LINE
8
0
6
CONTINUOUS
10
202.325
20
-113.825
11
186.275
21
-113.825
0
LINE
8
0
6
CONTINUOUS
10
185.275
20
-114.825
11
185.275
21
-130.875
0
LINE
8
0
6
CONTINUOUS
10
186.275
20
-112.825
11
202.325
21
-112.825
0
LINE
8
0
6
CONTINUOUS
10
203.325
20
-111.825
11
203.325
21
-95.775
0
LINE
8
0
6
CONTINUOUS
10
202.325
20
-94.775
11
186.275
21
-94.775
0
LINE
8
0
6
CONTINUOUS
10
185.275
20
-95.775
11
185.275
21
-111.825
0
LINE
8
0
6
CONTINUOUS
10
150.3722392
20
-176.1373529
11
173.7361644
21
-186.5396426
0
LINE
8
0
6
CONTINUOUS
10
157.7138356
20
-159.6478574
11
181.0777608
21
-170.0501471
0
LINE
8
0
6
CONTINUOUS
10
192.4594874
20
-193.7811669
11
202.8617771
21
-170.4172417
0
LINE
8
0
6
CONTINUOUS
10
175.9699919
20
-186.4395705
11
186.3722816
21
-163.0756453
0
LINE
8
0
6
CONTINUOUS
10
348.2
20
-189.025
11
364.25
21
-189.025
0
LINE
8
0
6
CONTINUOUS
10
365.25
20
-188.025
11
365.25
21
-171.975
0
LINE
8
0
6
CONTINUOUS
10
364.25
20
-170.975
11
348.2
21
-170.975
0
LINE
8
0
6
CONTINUOUS
10
347.2
20
-171.975
11
347.2
21
-188.025
0
LINE
8
0
6
CONTINUOUS
10
348.2
20
-169.975
11
364.25
21
-169.975
0
LINE
8
0
6
CONTINUOUS
10
365.25
20
-168.975
11
365.25
21
-152.925
0
LINE
8
0
6
CONTINUOUS
10
364.25
20
-151.925
11
348.2
21
-151.925
0
LINE
8
0
6
CONTINUOUS
10
347.2
20
-152.925
11
347.2
21
-168.975
0
LINE
8
0
6
CONTINUOUS
10
348.2
20
-150.925
11
364.25
21
-150.925
0
LINE
8
0
6
CONTINUOUS
10
365.25
20
-149.925
11
365.25
21
-133.875
0
LINE
8
0
6
CONTINUOUS
10
364.25
20
-132.875
11
348.2
21
-132.875
0
LINE
8
0
6
CONTINUOUS
10
347.2
20
-133.875
11
347.2
21
-149.925
0
LINE
8
0
6
CONTINUOUS
10
348.2
20
-131.875
11
364.25
21
-131.875
0
LINE
8
0
6
CONTINUOUS
10
365.25
20
-130.875
11
365.25
21
-114.825
0
LINE
8
0
6
CONTINUOUS
10
364.25
20
-113.825
11
348.2
21
-113.825
0
LINE
8
0
6
CONTINUOUS
10
347.2
20
-114.825
11
347.2
21
-130.875
0
LINE
8
0
6
CONTINUOUS
10
348.2
20
-112.825
11
364.25
21
-112.825
0
LINE
8
0
6
CONTINUOUS
10
365.25
20
-111.825
11
365.25
21
-95.775
0
LINE
8
0
6
CONTINUOUS
10
364.25
20
-94.775
11
348.2
21
-94.775
0
LINE
8
0
6
CONTINUOUS
10
347.2
20
-95.775
11
347.2
21
-111.825
0
LINE
8
0
6
CONTINUOUS
10
329.15
20
-189.025
11
345.2
21
-189.025
0
LINE
8
0
6
CONTINUOUS
10
346.2
20
-188.025
11
346.2
21
-171.975
0
LINE
8
0
6
CONTINUOUS
10
345.2
20
-170.975
11
329.15
21
-170.975
0
LINE
8
0
6
CONTINUOUS
10
328.15
20
-171.975
11
328.15
21
-188.025
0
LINE
8
0
6
CONTINUOUS
10
329.15
20
-169.975
11
345.2
21
-169.975
0
LINE
8
0
6
CONTINUOUS
10
346.2
20
-168.975
11
346.2
21
-152.925
0
LINE
8
0
6
CONTINUOUS
10
345.2
20
-151.925
11
329.15
21
-151.925
0
LINE
8
0
6
CONTINUOUS
10
328.15
20
-152.925
11
328.15
21
-168.975
0
LINE
8
0
6
CONTINUOUS
10
329.15
20
-150.925
11
345.2
21
-150.925
0
LINE
8
0
6
CONTINUOUS
10
346.2
20
-149.925
11
346.2
21
-133.875
0
LINE
8
0
6
CONTINUOUS
10
345.2
20
-132.875
11
329.15
21
-132.875
0
LINE
8
0
6
CONTINUOUS
10
328.15
20
-133.875
11
328.15
21
-149.925
0
LINE
8
0
6
CONTINUOUS
10
329.15
20
-131.875
11
345.2
21
-131.875
0
LINE
8
0
6
CONTINUOUS
10
346.2
20
-130.875
11
346.2
21
-114.825
0
LINE
8
0
6
CONTINUOUS
10
345.2
20
-113.825
11
329.15
21
-113.825
0
LINE
8
0
6
CONTINUOUS
10
328.15
20
-114.825
11
328.15
21
-130.875
0
LINE
8
0
6
CONTINUOUS
10
329.15
20
-112.825
11
345.2
21
-112.825
0
LINE
8
0
6
CONTINUOUS
10
346.2
20
-111.825
11
346.2
21
-95.775
0
LINE
8
0
6
CONTINUOUS
10
345.2
20
-94.775
11
329.15
21
-94.775
0
LINE
8
0
6
CONTINUOUS
10
328.15
20
-95.775
11
328.15
21
-111.825
0
LINE
8
0
6
CONTINUOUS
10
310.1
20
-179.5
11
326.15
21
-179.5
0
LINE
8
0
6
CONTINUOUS
10
327.15
20
-178.5
11
327.15
21
-162.45
0
LINE
8
0
6
CONTINUOUS
10
326.15
20
-161.45
11
310.1
21
-161.45
0
LINE
8
0
6
CONTINUOUS
10
309.1
20
-162.45
11
309.1
21
-178.5
0
LINE
8
0
6
CONTINUOUS
10
310.1
20
-160.45
11
326.15
21
-160.45
0
LINE
8
0
6
CONTINUOUS
10
327.15
20
-159.45
11
327.15
21
-143.4
0
LINE
8
0
6
CONTINUOUS
10
326.15
20
-142.4
11
310.1
21
-142.4
0
LINE
8
0
6
CONTINUOUS
10
309.1
20
-143.4
11
309.1
21
-159.45
0
LINE
8
0
6
CONTINUOUS
10
310.1
20
-141.4
11
326.15
21
-141.4
0
LINE
8
0
6
CONTINUOUS
10
327.15
20
-140.4
11
327.15
21
-124.35
0
LINE
8
0
6
CONTINUOUS
10
326.15
20
-123.35
11
310.1
21
-123.35
0
LINE
8
0
6
CONTINUOUS
10
309.1
20
-124.35
11
309.1
21
-140.4
0
LINE
8
0
6
CONTINUOUS
10
310.1
20
-122.35
11
326.15
21
-122.35
0
LINE
8
0
6
CONTINUOUS
10
327.15
20
-121.35
11
327.15
21
-105.3
0
LINE
8
0
6
CONTINUOUS
10
326.15
20
-104.3
11
310.1
21
-104.3
0
LINE
8
0
6
CONTINUOUS
10
309.1
20
-105.3
11
309.1
21
-121.35
0
LINE
8
0
6
CONTINUOUS
10
310.1
20
-103.3
11
326.15
21
-103.3
0
LINE
8
0
6
CONTINUOUS
10
327.15
20
-102.3
11
327.15
21
-86.25
0
LINE
8
0
6
CONTINUOUS
10
326.15
20
-85.25
11
310.1
21
-85.25
0
LINE
8
0
6
CONTINUOUS
10
309.1
20
-86.25
11
309.1
21
-102.3
0
LINE
8
0
6
CONTINUOUS
10
291.05
20
-174.7375
11
307.1
21
-174.7375
0
LINE
8
0
6
CONTINUOUS
10
308.1
20
-173.7375
11
308.1
21
-157.6875
0
LINE
8
0
6
CONTINUOUS
10
307.1
20
-156.6875
11
291.05
21
-156.6875
0
LINE
8
0
6
CONTINUOUS
10
290.05
20
-157.6875
11
290.05
21
-173.7375
0
LINE
8
0
6
CONTINUOUS
10
291.05
20
-155.6875
11
307.1
21
-155.6875
0
LINE
8
0
6
CONTINUOUS
10
308.1
20
-154.6875
11
308.1
21
-138.6375
0
LINE
8
0
6
CONTINUOUS
10
307.1
20
-137.6375
11
291.05
21
-137.6375
0
LINE
8
0
6
CONTINUOUS
10
290.05
20
-138.6375
11
290.05
21
-154.6875
0
LINE
8
0
6
CONTINUOUS
10
291.05
20
-136.6375
11
307.1
21
-136.6375
0
LINE
8
0
6
CONTINUOUS
10
308.1
20
-135.6375
11
308.1
21
-119.5875
0
LINE
8
0
6
CONTINUOUS
10
307.1
20
-118.5875
11
291.05
21
-118.5875
0
LINE
8
0
6
CONTINUOUS
10
290.05
20
-119.5875
11
290.05
21
-135.6375
0
LINE
8
0
6
CONTINUOUS
10
291.05
20
-117.5875
11
307.1
21
-117.5875
0
LINE
8
0
6
CONTINUOUS
10
308.1
20
-116.5875
11
308.1
21
-100.5375
0
LINE
8
0
6
CONTINUOUS
10
307.1
20
-99.5375
11
291.05
21
-99.5375
0
LINE
8
0
6
CONTINUOUS
10
290.05
20
-100.5375
11
290.05
21
-116.5875
0
LINE
8
0
6
CONTINUOUS
10
291.05
20
-98.5375
11
307.1
21
-98.5375
0
LINE
8
0
6
CONTINUOUS
10
308.1
20
-97.5375
11
308.1
21
-81.4875
0
LINE
8
0
6
CONTINUOUS
10
307.1
20
-80.4875
11
291.05
21
-80.4875
0
LINE
8
0
6
CONTINUOUS
10
290.05
20
-81.4875
11
290.05
21
-97.5375
0
LINE
8
0
6
CONTINUOUS
10
272
20
-158.06875
11
288.05
21
-158.06875
0
LINE
8
0
6
CONTINUOUS
10
289.05
20
-157.06875
11
289.05
21
-141.01875
0
LINE
8
0
6
CONTINUOUS
10
288.05
20
-140.01875
11
272
21
-140.01875
0
LINE
8
0
6
CONTINUOUS
10
271
20
-141.01875
11
271
21
-157.06875
0
LINE
8
0
6
CONTINUOUS
10
272
20
-139.01875
11
288.05
21
-139.01875
0
LINE
8
0
6
CONTINUOUS
10
289.05
20
-138.01875
11
289.05
21
-121.96875
0
LINE
8
0
6
CONTINUOUS
10
288.05
20
-120.96875
11
272
21
-120.96875
0
LINE
8
0
6
CONTINUOUS
10
271
20
-121.96875
11
271
21
-138.01875
0
LINE
8
0
6
CONTINUOUS
10
272
20
-119.96875
11
288.05
21
-119.96875
0
LINE
8
0
6
CONTINUOUS
10
289.05
20
-118.96875
11
289.05
21
-102.91875
0
LINE
8
0
6
CONTINUOUS
10
288.05
20
-101.91875
11
272
21
-101.91875
0
LINE
8
0
6
CONTINUOUS
10
271
20
-102.91875
11
271
21
-118.96875
0
LINE
8
0
6
CONTINUOUS
10
272
20
-100.91875
11
288.05
21
-100.91875
0
LINE
8
0
6
CONTINUOUS
10
289.05
20
-99.91875
11
289.05
21
-83.86875
0
LINE
8
0
6
CONTINUOUS
10
288.05
20
-82.86875
11
272
21
-82.86875
0
LINE
8
0
6
CONTINUOUS
10
271
20
-83.86875
11
271
21
-99.91875
0
LINE
8
0
6
CONTINUOUS
10
252.95
20
-160.45
11
269
21
-160.45
0
LINE
8
0
6
CONTINUOUS
10
270
20
-159.45
11
270
21
-143.4
0
LINE
8
0
6
CONTINUOUS
10
269
20
-142.4
11
252.95
21
-142.4
0
LINE
8
0
6
CONTINUOUS
10
251.95
20
-143.4
11
251.95
21
-159.45
0
LINE
8
0
6
CONTINUOUS
10
252.95
20
-141.4
11
269
21
-141.4
0
LINE
8
0
6
CONTINUOUS
10
270
20
-140.4
11
270
21
-124.35
0
LINE
8
0
6
CONTINUOUS
10
269
20
-123.35
11
252.95
21
-123.35
0
LINE
8
0
6
CONTINUOUS
10
251.95
20
-124.35
11
251.95
21
-140.4
0
LINE
8
0
6
CONTINUOUS
10
252.95
20
-122.35
11
269
21
-122.35
0
LINE
8
0
6
CONTINUOUS
10
270
20
-121.35
11
270
21
-105.3
0
LINE
8
0
6
CONTINUOUS
10
269
20
-104.3
11
252.95
21
-104.3
0
LINE
8
0
6
CONTINUOUS
10
251.95
20
-105.3
11
251.95
21
-121.35
0
LINE
8
0
6
CONTINUOUS
10
252.95
20
-103.3
11
269
21
-103.3
0
LINE
8
0
6
CONTINUOUS
10
270
20
-102.3
11
270
21
-86.25
0
LINE
8
0
6
CONTINUOUS
10
269
20
-85.25
11
252.95
21
-85.25
0
LINE
8
0
6
CONTINUOUS
10
251.95
20
-86.25
11
251.95
21
-102.3
0
LINE
8
0
6
CONTINUOUS
10
233.9
20
-150.925
11
249.95
21
-150.925
0
LINE
8
0
6
CONTINUOUS
10
250.95
20
-149.925
11
250.95
21
-133.875
0
LINE
8
0
6
CONTINUOUS
10
249.95
20
-132.875
11
233.9
21
-132.875
0
LINE
8
0
6
CONTINUOUS
10
232.9
20
-133.875
11
232.9
21
-149.925
0
LINE
8
0
6
CONTINUOUS
10
233.9
20
-131.875
11
249.95
21
-131.875
0
LINE
8
0
6
CONTINUOUS
10
250.95
20
-130.875
11
250.95
21
-114.825
0
LINE
8
0
6
CONTINUOUS
10
249.95
20
-113.825
11
233.9
21
-113.825
0
LINE
8
0
6
CONTINUOUS
10
232.9
20
-114.825
11
232.9
21
-130.875
0
LINE
8
0
6
CONTINUOUS
10
233.9
20
-112.825
11
249.95
21
-112.825
0
LINE
8
0
6
CONTINUOUS
10
250.95
20
-111.825
11
250.95
21
-95.775
0
LINE
8
0
6
CONTINUOUS
10
249.95
20
-94.775
11
233.9
21
-94.775
0
LINE
8
0
6
CONTINUOUS
10
232.9
20
-95.775
11
232.9
21
-111.825
0
LINE
8
0
6
CONTINUOUS
10
262.4888356
20
-186.5396426
11
285.8527608
21
-176.1373529
0
LINE
8
0
6
CONTINUOUS
10
255.1472392
20
-170.0501471
11
278.5111644
21
-159.6478574
0
LINE
8
0
6
CONTINUOUS
10
249.8527184
20
-163.0756453
11
260.2550081
21
-186.4395705
0
LINE
8
0
6
CONTINUOUS
10
233.3632229
20
-170.4172417
11
243.7655126
21
-193.7811669
0
ARC
8
0
6
CONTINUOUS
10
145.175
20
-173.7375
40
1
50
270
51
0
0
ARC
8
0
6
CONTINUOUS
10
145.175
20
-157.6875
40
1
50
0
51
90
0
ARC
8
0
6
CONTINUOUS
10
129.125
20
-157.6875
40
1
50
90
51
180
0
ARC
8
0
6
CONTINUOUS
10
129.125
20
-173.7375
40
1
50
180
51
270
0
ARC
8
0
6
CONTINUOUS
10
145.175
20
-154.6875
40
1
50
270
51
0
0
ARC
8
0
6
CONTINUOUS
10
145.175
20
-138.6375
40
1
50
0
51
90
0
ARC
8
0
6
CONTINUOUS
10
129.125
20
-138.6375
40
1
50
90
51
180
0
ARC
8
0
6
CONTINUOUS
10
129.125
20
-154.6875
40
1
50
180
51
270
0
ARC
8
0
6
CONTINUOUS
10
164.225
20
-157.06875
40
1
50
270
51
0
0
ARC
8
0
6
CONTINUOUS
10
164.225
20
-141.01875
40
1
50
0
51
90
0
ARC
8
0
6
CONTINUOUS
10
148.175
20
-141.01875
40
1
50
90
51
180
0
ARC
8
0
6
CONTINUOUS
10
148.175
20
-157.06875
40
1
50
180
51
270
0
ARC
8
0
6
CONTINUOUS
10
183.275
20
-159.45
40
1
50
270
51
0
0
ARC
8
0
6
CONTINUOUS
10
183.275
20
-143.4
40
1
50
0
51
90
0
ARC
8
0
6
CONTINUOUS
10
167.225
20
-143.4
40
1
50
90
51
180
0
ARC
8
0
6
CONTINUOUS
10
167.225
20
-159.45
40
1
50
180
51
270
0
ARC
8
0
6
CONTINUOUS
10
202.325
20
-149.925
40
1
50
270
51
0
0
ARC
8
0
6
CONTINUOUS
10
202.325
20
-133.875
40
1
50
0
51
90
0
ARC
8
0
6
CONTINUOUS
10
186.275
20
-133.875
40
1
50
90
51
180
0
ARC
8
0
6
CONTINUOUS
10
186.275
20
-149.925
40
1
50
180
51
270
0
ARC
8
0
6
CONTINUOUS
10
364.25
20
-188.025
40
1
50
270
51
0
0
ARC
8
0
6
CONTINUOUS
10
364.25
20
-171.975
40
1
50
0
51
90
0
ARC
8
0
6
CONTINUOUS
10
348.2
20
-171.975
40
1
50
90
51
180
0
ARC
8
0
6
CONTINUOUS
10
348.2
20
-188.025
40
1
50
180
51
270
0
ARC
8
0
6
CONTINUOUS
10
364.25
20
-168.975
40
1
50
270
51
0
0
ARC
8
0
6
CONTINUOUS
10
364.25
20
-152.925
40
1
50
0
51
90
0
ARC
8
0
6
CONTINUOUS
10
348.2
20
-152.925
40
1
50
90
51
180
0
ARC
8
0
6
CONTINUOUS
10
348.2
20
-168.975
40
1
50
180
51
270
0
ARC
8
0
6
CONTINUOUS
10
364.25
20
-149.925
40
1
50
270
51
0
0
ARC
8
0
6
CONTINUOUS
10
364.25
20
-133.875
40
1
50
0
51
90
0
ARC
8
0
6
CONTINUOUS
10
348.2
20
-133.875
40
1
50
90
51
180
0
ARC
8
0
6
CONTINUOUS
10
348.2
20
-149.925
40
1
50
180
51
270
0
ARC
8
0
6
CONTINUOUS
10
345.2
20
-188.025
40
1
50
270
51
0
0
ARC
8
0
6
CONTINUOUS
10
345.2
20
-171.975
40
1
50
0
51
90
0
ARC
8
0
6
CONTINUOUS
10
329.15
20
-171.975
40
1
50
90
51
180
0
ARC
8
0
6
CONTINUOUS
10
329.15
20
-188.025
40
1
50
180
51
270
0
ARC
8
0
6
CONTINUOUS
10
345.2
20
-168.975
40
1
50
270
51
0
0
ARC
8
0
6
CONTINUOUS
10
345.2
20
-152.925
40
1
50
0
51
90
0
ARC
8
0
6
CONTINUOUS
10
329.15
20
-152.925
40
1
50
90
51
180
0
ARC
8
0
6
CONTINUOUS
10
329.15
20
-168.975
40
1
50
180
51
270
0
ARC
8
0
6
CONTINUOUS
10
345.2
20
-149.925
40
1
50
270
51
0
0
ARC
8
0
6
CONTINUOUS
10
345.2
20
-133.875
40
1
50
0
51
90
0
ARC
8
0
6
CONTINUOUS
10
329.15
20
-133.875
40
1
50
90
51
180
0
ARC
8
0
6
CONTINUOUS
10
329.15
20
-149.925
40
1
50
180
51
270
0
ARC
8
0
6
CONTINUOUS
10
326.15
20
-178.5
40
1
50
270
51
0
0
ARC
8
0
6
CONTINUOUS
10
326.15
20
-162.45
40
1
50
0
51
90
0
ARC
8
0
6
CONTINUOUS
10
310.1
20
-162.45
40
1
50
90
51
180
0
ARC
8
0
6
CONTINUOUS
10
310.1
20
-178.5
40
1
50
180
51
270
0
ARC
8
0
6
CONTINUOUS
10
326.15
20
-159.45
40
1
50
270
51
0
0
ARC
8
0
6
CONTINUOUS
10
326.15
20
-143.4
40
1
50
0
51
90
0
ARC
8
0
6
CONTINUOUS
10
310.1
20
-143.4
40
1
50
90
51
180
0
ARC
8
0
6
CONTINUOUS
10
310.1
20
-159.45
40
1
50
180
51
270
0
ARC
8
0
6
CONTINUOUS
10
307.1
20
-173.7375
40
1
50
270
51
0
0
ARC
8
0
6
CONTINUOUS
10
307.1
20
-157.6875
40
1
50
0
51
90
0
ARC
8
0
6
CONTINUOUS
10
291.05
20
-157.6875
40
1
50
90
51
180
0
ARC
8
0
6
CONTINUOUS
10
291.05
20
-173.7375
40
1
50
180
51
270
0
ARC
8
0
6
CONTINUOUS
10
307.1
20
-154.6875
40
1
50
270
51
0
0
ARC
8
0
6
CONTINUOUS
10
307.1
20
-138.6375
40
1
50
0
51
90
0
ARC
8
0
6
CONTINUOUS
10
291.05
20
-138.6375
40
1
50
90
51
180
0
ARC
8
0
6
CONTINUOUS
10
291.05
20
-154.6875
40
1
50
180
51
270
0
ARC
8
0
6
CONTINUOUS
10
288.05
20
-157.06875
40
1
50
270
51
0
0
ARC
8
0
6
CONTINUOUS
10
288.05
20
-141.01875
40
1
50
0
51
90
0
ARC
8
0
6
CONTINUOUS
10
272
20
-141.01875
40
1
50
90
51
180
0
ARC
8
0
6
CONTINUOUS
10
272
20
-157.06875
40
1
50
180
51
270
0
ARC
8
0
6
CONTINUOUS
10
249.95
20
-149.925
40
1
50
270
51
0
0
ARC
8
0
6
CONTINUOUS
10
249.95
20
-133.875
40
1
50
0
51
90
0
ARC
8
0
6
CONTINUOUS
10
233.9
20
-133.875
40
1
50
90
51
180
0
ARC
8
0
6
CONTINUOUS
10
233.9
20
-149.925
40
1
50
180
51
270
0
ARC
8
0
6
CONTINUOUS
10
88.025
20
-188.025
40
1
50
270
51
0
0
ARC
8
0
6
CONTINUOUS
10
88.025
20
-171.975
40
1
50
0
51
90
0
ARC
8
0
6
CONTINUOUS
10
71.975
20
-171.975
40
1
50
90
51
180
0
ARC
8
0
6
CONTINUOUS
10
71.975
20
-188.025
40
1
50
180
51
270
0
ARC
8
0
6
CONTINUOUS
10
88.025
20
-168.975
40
1
50
270
51
0
0
ARC
8
0
6
CONTINUOUS
10
88.025
20
-152.925
40
1
50
0
51
90
0
ARC
8
0
6
CONTINUOUS
10
71.975
20
-152.925
40
1
50
90
51
180
0
ARC
8
0
6
CONTINUOUS
10
71.975
20
-168.975
40
1
50
180
51
270
0
ARC
8
0
6
CONTINUOUS
10
88.025
20
-149.925
40
1
50
270
51
0
0
ARC
8
0
6
CONTINUOUS
10
88.025
20
-133.875
40
1
50
0
51
90
0
ARC
8
0
6
CONTINUOUS
10
71.975
20
-133.875
40
1
50
90
51
180
0
ARC
8
0
6
CONTINUOUS
10
71.975
20
-149.925
40
1
50
180
51
270
0
ARC
8
0
6
CONTINUOUS
10
107.075
20
-188.025
40
1
50
270
51
0
0
ARC
8
0
6
CONTINUOUS
10
107.075
20
-171.975
40
1
50
0
51
90
0
ARC
8
0
6
CONTINUOUS
10
91.025
20
-171.975
40
1
50
90
51
180
0
ARC
8
0
6
CONTINUOUS
10
91.025
20
-188.025
40
1
50
180
51
270
0
ARC
8
0
6
CONTINUOUS
10
107.075
20
-168.975
40
1
50
270
51
0
0
ARC
8
0
6
CONTINUOUS
10
107.075
20
-152.925
40
1
50
0
51
90
0
ARC
8
0
6
CONTINUOUS
10
91.025
20
-152.925
40
1
50
90
51
180
0
ARC
8
0
6
CONTINUOUS
10
91.025
20
-168.975
40
1
50
180
51
270
0
ARC
8
0
6
CONTINUOUS
10
107.075
20
-149.925
40
1
50
270
51
0
0
ARC
8
0
6
CONTINUOUS
10
107.075
20
-133.875
40
1
50
0
51
90
0
ARC
8
0
6
CONTINUOUS
10
91.025
20
-133.875
40
1
50
90
51
180
0
ARC
8
0
6
CONTINUOUS
10
91.025
20
-149.925
40
1
50
180
51
270
0
ARC
8
0
6
CONTINUOUS
10
126.125
20
-178.5
40
1
50
270
51
0
0
ARC
8
0
6
CONTINUOUS
10
126.125
20
-162.45
40
1
50
0
51
90
0
ARC
8
0
6
CONTINUOUS
10
110.075
20
-162.45
40
1
50
90
51
180
0
ARC
8
0
6
CONTINUOUS
10
110.075
20
-178.5
40
1
50
180
51
270
0
ARC
8
0
6
CONTINUOUS
10
126.125
20
-159.45
40
1
50
270
51
0
0
ARC
8
0
6
CONTINUOUS
10
126.125
20
-143.4
40
1
50
0
51
90
0
ARC
8
0
6
CONTINUOUS
10
110.075
20
-143.4
40
1
50
90
51
180
0
ARC
8
0
6
CONTINUOUS
10
110.075
20
-159.45
40
1
50
180
51
270
0
ARC
8
0
6
CONTINUOUS
10
145.175
20
-135.6375
40
1
50
270
51
0
0
ARC
8
0
6
CONTINUOUS
10
145.175
20
-119.5875
40
1
50
0
51
90
0
ARC
8
0
6
CONTINUOUS
10
129.125
20
-119.5875
40
1
50
90
51
180
0
ARC
8
0
6
CONTINUOUS
10
129.125
20
-135.6375
40
1
50
180
51
270
0
ARC
8
0
6
CONTINUOUS
10
145.175
20
-116.5875
40
1
50
270
51
0
0
ARC
8
0
6
CONTINUOUS
10
145.175
20
-100.5375
40
1
50
0
51
90
0
ARC
8
0
6
CONTINUOUS
10
129.125
20
-100.5375
40
1
50
90
51
180
0
ARC
8
0
6
CONTINUOUS
10
129.125
20
-116.5875
40
1
50
180
51
270
0
ARC
8
0
6
CONTINUOUS
10
145.175
20
-97.5375
40
1
50
270
51
0
0
ARC
8
0
6
CONTINUOUS
10
145.175
20
-81.4875
40
1
50
0
51
90
0
ARC
8
0
6
CONTINUOUS
10
129.125
20
-81.4875
40
1
50
90
51
180
0
ARC
8
0
6
CONTINUOUS
10
129.125
20
-97.5375
40
1
50
180
51
270
0
ARC
8
0
6
CONTINUOUS
10
164.225
20
-138.01875
40
1
50
270
51
0
0
ARC
8
0
6
CONTINUOUS
10
164.225
20
-121.96875
40
1
50
0
51
90
0
ARC
8
0
6
CONTINUOUS
10
148.175
20
-121.96875
40
1
50
90
51
180
0
ARC
8
0
6
CONTINUOUS
10
148.175
20
-138.01875
40
1
50
180
51
270
0
ARC
8
0
6
CONTINUOUS
10
164.225
20
-118.96875
40
1
50
270
51
0
0
ARC
8
0
6
CONTINUOUS
10
164.225
20
-102.91875
40
1
50
0
51
90
0
ARC
8
0
6
CONTINUOUS
10
148.175
20
-102.91875
40
1
50
90
51
180
0
ARC
8
0
6
CONTINUOUS
10
148.175
20
-118.96875
40
1
50
180
51
270
0
ARC
8
0
6
CONTINUOUS
10
164.225
20
-99.91875
40
1
50
270
51
0
0
ARC
8
0
6
CONTINUOUS
10
164.225
20
-83.86875
40
1
50
0
51
90
0
ARC
8
0
6
CONTINUOUS
10
148.175
20
-83.86875
40
1
50
90
51
180
0
ARC
8
0
6
CONTINUOUS
10
148.175
20
-99.91875
40
1
50
180
51
270
0
ARC
8
0
6
CONTINUOUS
10
183.275
20
-140.4
40
1
50
270
51
0
0
ARC
8
0
6
CONTINUOUS
10
183.275
20
-124.35
40
1
50
0
51
90
0
ARC
8
0
6
CONTINUOUS
10
167.225
20
-124.35
40
1
50
90
51
180
0
ARC
8
0
6
CONTINUOUS
10
167.225
20
-140.4
40
1
50
180
51
270
0
ARC
8
0
6
CONTINUOUS
10
183.275
20
-121.35
40
1
50
270
51
0
0
ARC
8
0
6
CONTINUOUS
10
183.275
20
-105.3
40
1
50
0
51
90
0
ARC
8
0
6
CONTINUOUS
10
167.225
20
-105.3
40
1
50
90
51
180
0
ARC
8
0
6
CONTINUOUS
10
167.225
20
-121.35
40
1
50
180
51
270
0
ARC
8
0
6
CONTINUOUS
10
183.275
20
-102.3
40
1
50
270
51
0
0
ARC
8
0
6
CONTINUOUS
10
183.275
20
-86.25
40
1
50
0
51
90
0
ARC
8
0
6
CONTINUOUS
10
167.225
20
-86.25
40
1
50
90
51
180
0
ARC
8
0
6
CONTINUOUS
10
167.225
20
-102.3
40
1
50
180
51
270
0
ARC
8
0
6
CONTINUOUS
10
202.325
20
-130.875
40
1
50
270
51
0
0
ARC
8
0
6
CONTINUOUS
10
202.325
20
-114.825
40
1
50
0
51
90
0
ARC
8
0
6
CONTINUOUS
10
186.275
20
-114.825
40
1
50
90
51
180
0
ARC
8
0
6
CONTINUOUS
10
186.275
20
-130.875
40
1
50
180
51
270
0
ARC
8
0
6
CONTINUOUS
10
202.325
20
-111.825
40
1
50
270
51
0
0
ARC
8
0
6
CONTINUOUS
10
202.325
20
-95.775
40
1
50
0
51
90
0
ARC
8
0
6
CONTINUOUS
10
186.275
20
-95.775
40
1
50
90
51
180
0
ARC
8
0
6
CONTINUOUS
10
186.275
20
-111.825
40
1
50
180
51
270
0
ARC
8
0
6
CONTINUOUS
10
364.25
20
-130.875
40
1
50
270
51
0
0
ARC
8
0
6
CONTINUOUS
10
364.25
20
-114.825
40
1
50
0
51
90
0
ARC
8
0
6
CONTINUOUS
10
348.2
20
-114.825
40
1
50
90
51
180
0
ARC
8
0
6
CONTINUOUS
10
348.2
20
-130.875
40
1
50
180
51
270
0
ARC
8
0
6
CONTINUOUS
10
364.25
20
-111.825
40
1
50
270
51
0
0
ARC
8
0
6
CONTINUOUS
10
364.25
20
-95.775
40
1
50
0
51
90
0
ARC
8
0
6
CONTINUOUS
10
348.2
20
-95.775
40
1
50
90
51
180
0
ARC
8
0
6
CONTINUOUS
10
348.2
20
-111.825
40
1
50
180
51
270
0
ARC
8
0
6
CONTINUOUS
10
345.2
20
-130.875
40
1
50
270
51
0
0
ARC
8
0
6
CONTINUOUS
10
345.2
20
-114.825
40
1
50
0
51
90
0
ARC
8
0
6
CONTINUOUS
10
329.15
20
-114.825
40
1
50
90
51
180
0
ARC
8
0
6
CONTINUOUS
10
329.15
20
-130.875
40
1
50
180
51
270
0
ARC
8
0
6
CONTINUOUS
10
345.2
20
-111.825
40
1
50
270
51
0
0
ARC
8
0
6
CONTINUOUS
10
345.2
20
-95.775
40
1
50
0
51
90
0
ARC
8
0
6
CONTINUOUS
10
329.15
20
-95.775
40
1
50
90
51
180
0
ARC
8
0
6
CONTINUOUS
10
329.15
20
-111.825
40
1
50
180
51
270
0
ARC
8
0
6
CONTINUOUS
10
326.15
20
-140.4
40
1
50
270
51
0
0
ARC
8
0
6
CONTINUOUS
10
326.15
20
-124.35
40
1
50
0
51
90
0
ARC
8
0
6
CONTINUOUS
10
310.1
20
-124.35
40
1
50
90
51
180
0
ARC
8
0
6
CONTINUOUS
10
310.1
20
-140.4
40
1
50
180
51
270
0
ARC
8
0
6
CONTINUOUS
10
326.15
20
-121.35
40
1
50
270
51
0
0
ARC
8
0
6
CONTINUOUS
10
326.15
20
-105.3
40
1
50
0
51
90
0
ARC
8
0
6
CONTINUOUS
10
310.1
20
-105.3
40
1
50
90
51
180
0
ARC
8
0
6
CONTINUOUS
10
310.1
20
-121.35
40
1
50
180
51
270
0
ARC
8
0
6
CONTINUOUS
10
326.15
20
-102.3
40
1
50
270
51
0
0
ARC
8
0
6
CONTINUOUS
10
326.15
20
-86.25
40
1
50
0
51
90
0
ARC
8
0
6
CONTINUOUS
10
310.1
20
-86.25
40
1
50
90
51
180
0
ARC
8
0
6
CONTINUOUS
10
310.1
20
-102.3
40
1
50
180
51
270
0
ARC
8
0
6
CONTINUOUS
10
307.1
20
-135.6375
40
1
50
270
51
0
0
ARC
8
0
6
CONTINUOUS
10
307.1
20
-119.5875
40
1
50
0
51
90
0
ARC
8
0
6
CONTINUOUS
10
291.05
20
-119.5875
40
1
50
90
51
180
0
ARC
8
0
6
CONTINUOUS
10
291.05
20
-135.6375
40
1
50
180
51
270
0
ARC
8
0
6
CONTINUOUS
10
307.1
20
-116.5875
40
1
50
270
51
0
0
ARC
8
0
6
CONTINUOUS
10
307.1
20
-100.5375
40
1
50
0
51
90
0
ARC
8
0
6
CONTINUOUS
10
291.05
20
-100.5375
40
1
50
90
51
180
0
ARC
8
0
6
CONTINUOUS
10
291.05
20
-116.5875
40
1
50
180
51
270
0
ARC
8
0
6
CONTINUOUS
10
307.1
20
-97.5375
40
1
50
270
51
0
0
ARC
8
0
6
CONTINUOUS
10
307.1
20
-81.4875
40
1
50
0
51
90
0
ARC
8
0
6
CONTINUOUS
10
291.05
20
-81.4875
40
1
50
90
51
180
0
ARC
8
0
6
CONTINUOUS
10
291.05
20
-97.5375
40
1
50
180
51
270
0
ARC
8
0
6
CONTINUOUS
10
288.05
20
-138.01875
40
1
50
270
51
0
0
ARC
8
0
6
CONTINUOUS
10
288.05
20
-121.96875
40
1
50
0
51
90
0
ARC
8
0
6
CONTINUOUS
10
272
20
-121.96875
40
1
50
90
51
180
0
ARC
8
0
6
CONTINUOUS
10
272
20
-138.01875
40
1
50
180
51
270
0
ARC
8
0
6
CONTINUOUS
10
288.05
20
-118.96875
40
1
50
270
51
0
0
ARC
8
0
6
CONTINUOUS
10
288.05
20
-102.91875
40
1
50
0
51
90
0
ARC
8
0
6
CONTINUOUS
10
272
20
-102.91875
40
1
50
90
51
180
0
ARC
8
0
6
CONTINUOUS
10
272
20
-118.96875
40
1
50
180
51
270
0
ARC
8
0
6
CONTINUOUS
10
288.05
20
-99.91875
40
1
50
270
51
0
0
ARC
8
0
6
CONTINUOUS
10
288.05
20
-83.86875
40
1
50
0
51
90
0
ARC
8
0
6
CONTINUOUS
10
272
20
-83.86875
40
1
50
90
51
180
0
ARC
8
0
6
CONTINUOUS
10
272
20
-99.91875
40
1
50
180
51
270
0
ARC
8
0
6
CONTINUOUS
10
249.95
20
-130.875
40
1
50
270
51
0
0
ARC
8
0
6
CONTINUOUS
10
249.95
20
-114.825
40
1
50
0
51
90
0
ARC
8
0
6
CONTINUOUS
10
233.9
20
-114.825
40
1
50
90
51
180
0
ARC
8
0
6
CONTINUOUS
10
233.9
20
-130.875
40
1
50
180
51
270
0
ARC
8
0
6
CONTINUOUS
10
249.95
20
-111.825
40
1
50
270
51
0
0
ARC
8
0
6
CONTINUOUS
10
249.95
20
-95.775
40
1
50
0
51
90
0
ARC
8
0
6
CONTINUOUS
10
233.9
20
-95.775
40
1
50
90
51
180
0
ARC
8
0
6
CONTINUOUS
10
233.9
20
-111.825
40
1
50
180
51
270
0
ARC
8
0
6
CONTINUOUS
10
88.025
20
-130.875
40
1
50
270
51
0
0
ARC
8
0
6
CONTINUOUS
10
88.025
20
-114.825
40
1
50
0
51
90
0
ARC
8
0
6
CONTINUOUS
10
71.975
20
-114.825
40
1
50
90
51
180
0
ARC
8
0
6
CONTINUOUS
10
71.975
20
-130.875
40
1
50
180
51
270
0
ARC
8
0
6
CONTINUOUS
10
88.025
20
-111.825
40
1
50
270
51
0
0
ARC
8
0
6
CONTINUOUS
10
88.025
20
-95.775
40
1
50
0
51
90
0
ARC
8
0
6
CONTINUOUS
10
71.975
20
-95.775
40
1
50
90
51
180
0
ARC
8
0
6
CONTINUOUS
10
71.975
20
-111.825
40
1
50
180
51
270
0
ARC
8
0
6
CONTINUOUS
10
107.075
20
-130.875
40
1
50
270
51
0
0
ARC
8
0
6
CONTINUOUS
10
107.075
20
-114.825
40
1
50
0
51
90
0
ARC
8
0
6
CONTINUOUS
10
91.025
20
-114.825
40
1
50
90
51
180
0
ARC
8
0
6
CONTINUOUS
10
91.025
20
-130.875
40
1
50
180
51
270
0
ARC
8
0
6
CONTINUOUS
10
107.075
20
-111.825
40
1
50
270
51
0
0
ARC
8
0
6
CONTINUOUS
10
107.075
20
-95.775
40
1
50
0
51
90
0
ARC
8
0
6
CONTINUOUS
10
91.025
20
-95.775
40
1
50
90
51
180
0
ARC
8
0
6
CONTINUOUS
10
91.025
20
-111.825
40
1
50
180
51
270
0
ARC
8
0
6
CONTINUOUS
10
126.125
20
-140.4
40
1
50
270
51
0
0
ARC
8
0
6
CONTINUOUS
10
126.125
20
-124.35
40
1
50
0
51
90
0
ARC
8
0
6
CONTINUOUS
10
110.075
20
-124.35
40
1
50
90
51
180
0
ARC
8
0
6
CONTINUOUS
10
110.075
20
-140.4
40
1
50
180
51
270
0
ARC
8
0
6
CONTINUOUS
10
126.125
20
-121.35
40
1
50
270
51
0
0
ARC
8
0
6
CONTINUOUS
10
126.125
20
-105.3
40
1
50
0
51
90
0
ARC
8
0
6
CONTINUOUS
10
110.075
20
-105.3
40
1
50
90
51
180
0
ARC
8
0
6
CONTINUOUS
10
110.075
20
-121.35
40
1
50
180
51
270
0
ARC
8
0
6
CONTINUOUS
10
126.125
20
-102.3
40
1
50
270
51
0
0
ARC
8
0
6
CONTINUOUS
10
126.125
20
-86.25
40
1
50
0
51
90
0
ARC
8
0
6
CONTINUOUS
10
110.075
20
-86.25
40
1
50
90
51
180
0
ARC
8
0
6
CONTINUOUS
10
110.075
20
-102.3
40
1
50
180
51
270
0
ARC
8
0
6
CONTINUOUS
10
269
20
-159.45
40
1
50
270
51
0
0
ARC
8
0
6
CONTINUOUS
10
269
20
-143.4
40
1
50
0
51
90
0
ARC
8
0
6
CONTINUOUS
10
252.95
20
-143.4
40
1
50
90
51
180
0
ARC
8
0
6
CONTINUOUS
10
252.95
20
-159.45
40
1
50
180
51
270
0
ARC
8
0
6
CONTINUOUS
10
269
20
-140.4
40
1
50
270
51
0
0
ARC
8
0
6
CONTINUOUS
10
269
20
-124.35
40
1
50
0
51
90
0
ARC
8
0
6
CONTINUOUS
10
252.95
20
-124.35
40
1
50
90
51
180
0
ARC
8
0
6
CONTINUOUS
10
252.95
20
-140.4
40
1
50
180
51
270
0
ARC
8
0
6
CONTINUOUS
10
269
20
-121.35
40
1
50
270
51
0
0
ARC
8
0
6
CONTINUOUS
10
269
20
-105.3
40
1
50
0
51
90
0
ARC
8
0
6
CONTINUOUS
10
252.95
20
-105.3
40
1
50
90
51
180
0
ARC
8
0
6
CONTINUOUS
10
252.95
20
-121.35
40
1
50
180
51
270
0
ARC
8
0
6
CONTINUOUS
10
269
20
-102.3
40
1
50
270
51
0
0
ARC
8
0
6
CONTINUOUS
10
269
20
-86.25
40
1
50
0
51
90
0
ARC
8
0
6
CONTINUOUS
10
252.95
20
-86.25
40
1
50
90
51
180
0
ARC
8
0
6
CONTINUOUS
10
252.95
20
-102.3
40
1
50
180
51
270
0
LINE
8
0
6
CONTINUOUS
10
175.0564465
20
-186.0328337
11
181.5845696
21
-171.3704292
0
LINE
8
0
6
CONTINUOUS
10
156.3935535
20
-160.1546663
11
149.8654304
21
-174.8170708
0
LINE
8
0
6
CONTINUOUS
10
286.3595696
20
-174.8170708
11
279.8314465
21
-160.1546663
0
LINE
8
0
6
CONTINUOUS
10
254.6404304
20
-171.3704292
11
261.1685535
21
-186.0328337
0
ARC
8
0
6
CONTINUOUS
10
285.4460241
20
-175.2238074
40
1
50
294.000002
51
23.9999968
0
ARC
8
0
6
CONTINUOUS
10
278.917901
20
-160.5614029
40
1
50
23.9999968
51
113.9999968
0
ARC
8
0
6
CONTINUOUS
10
255.5539759
20
-170.9636926
40
1
50
114.000002
51
203.9999968
0
ARC
8
0
6
CONTINUOUS
10
262.082099
20
-185.6260971
40
1
50
203.9999968
51
293.9999968
0
ARC
8
0
6
CONTINUOUS
10
174.142901
20
-185.6260971
40
1
50
246.0000032
51
336.0000032
0
ARC
8
0
6
CONTINUOUS
10
180.6710241
20
-170.9636926
40
1
50
336.0000032
51
65.999998
0
ARC
8
0
6
CONTINUOUS
10
157.307099
20
-160.5614029
40
1
50
66.0000032
51
156.0000032
0
ARC
8
0
6
CONTINUOUS
10
150.7789759
20
-175.2238074
40
1
50
156.0000032
51
245.999998
0
LINE
8
0
6
CONTINUOUS
10
176.4768008
20
-187.7598526
11
191.1392053
21
-194.2879757
0
LINE
8
0
6
CONTINUOUS
10
202.3549682
20
-169.0969596
11
187.6925637
21
-162.5688365
0
LINE
8
0
6
CONTINUOUS
10
245.0857947
20
-194.2879757
11
259.7481992
21
-187.7598526
0
LINE
8
0
6
CONTINUOUS
10
248.5324363
20
-162.5688365
11
233.8700318
21
-169.0969596
0
ARC
8
0
6
CONTINUOUS
10
201.9482316
20
-170.0105051
40
1
50
336.0000032
51
66.0000032
0
ARC
8
0
6
CONTINUOUS
10
187.2858271
20
-163.482382
40
1
50
66.0000032
51
155.999998
0
ARC
8
0
6
CONTINUOUS
10
176.8835374
20
-186.8463071
40
1
50
156.0000032
51
246.0000032
0
ARC
8
0
6
CONTINUOUS
10
191.5459419
20
-193.3744302
40
1
50
246.0000032
51
335.999998
0
ARC
8
0
6
CONTINUOUS
10
248.9391729
20
-163.482382
40
1
50
24.000002
51
113.9999968
0
ARC
8
0
6
CONTINUOUS
10
234.2767684
20
-170.0105051
40
1
50
113.9999968
51
203.9999968
0
ARC
8
0
6
CONTINUOUS
10
244.6790581
20
-193.3744302
40
1
50
204.000002
51
293.9999968
0
ARC
8
0
6
CONTINUOUS
10
259.3414626
20
-186.8463071
40
1
50
293.9999968
51
23.9999968
0
ENDSEC
0
EOF