#VRML V2.0 utf8
# 3D model generated by easyeda2kicad.py (https://github.com/uPesy/easyeda2kicad.py)

Shape{
    appearance Appearance {
        material  Material 	{
            diffuseColor 0.8509803921568627 0.8509803921568627 0.8509803921568627
            specularColor 0.4235294117647059 0.4235294117647059 0.4235294117647059
            ambientIntensity 0.851
            transparency 0.0
            shininess 0.5
        }
    }
    geometry IndexedFaceSet {
        ccw TRUE
        solid FALSE
        coord DEF co Coordinate {
            point [
                1.1811 0.6496 1.3228, 1.1811 0.3937 1.3228, 1.1811 0.6496 1.2441, 1.1811 0.3937 1.2441, -1.1811 0.6496 1.3228, -1.1811 0.6496 1.2441, -1.1811 0.3937 1.3228, -1.1811 0.3937 1.2441, -1.1024 0.3937 1.3228, -1.1024 0.3937 1.2441, -1.0848 0.3917 1.3228, -1.0848 0.3917 1.2441, -1.0682 0.3859 1.3228, -1.0682 0.3859 1.2441, -1.0533 0.3765 1.3228, -1.0533 0.3765 1.2441, -1.0408 0.3641 1.3228, -1.0408 0.3641 1.2441, -1.0314 0.3491 1.3228, -1.0314 0.3491 1.2441, -1.0256 0.3325 1.3228, -1.0256 0.3325 1.2441, -1.0236 0.315 1.3228, -1.0236 0.315 1.2441, -1.0236 -0.315 1.3228, -1.0236 -0.315 1.2441, -1.0256 -0.3325 1.3228, -1.0256 -0.3325 1.2441, -1.0314 -0.3491 1.3228, -1.0314 -0.3491 1.2441, -1.0408 -0.3641 1.3228, -1.0408 -0.3641 1.2441, -1.0533 -0.3765 1.3228, -1.0533 -0.3765 1.2441, -1.0682 -0.3859 1.3228, -1.0682 -0.3859 1.2441, -1.0848 -0.3917 1.3228, -1.0848 -0.3917 1.2441, -1.1024 -0.3937 1.3228, -1.1024 -0.3937 1.2441, -1.1811 -0.3937 1.3228, -1.1811 -0.3937 1.2441, -1.1811 -0.6496 1.3228, -1.1811 -0.6496 1.2441, 1.1811 -0.6496 1.3228, 1.1811 -0.6496 1.2441, 1.1811 -0.3937 1.3228, 1.1811 -0.3937 1.2441, 1.1024 -0.3937 1.3228, 1.1024 -0.3937 1.2441, 1.0848 -0.3917 1.3228, 1.0848 -0.3917 1.2441, 1.0682 -0.3859 1.3228, 1.0682 -0.3859 1.2441, 1.0533 -0.3765 1.3228, 1.0533 -0.3765 1.2441, 1.0408 -0.3641 1.3228, 1.0408 -0.3641 1.2441, 1.0314 -0.3491 1.3228, 1.0314 -0.3491 1.2441, 1.0256 -0.3325 1.3228, 1.0256 -0.3325 1.2441, 1.0236 -0.315 1.3228, 1.0236 -0.315 1.2441, 1.0236 0.315 1.3228, 1.0236 0.315 1.2441, 1.0256 0.3325 1.3228, 1.0256 0.3325 1.2441, 1.0314 0.3491 1.3228, 1.0314 0.3491 1.2441, 1.0408 0.3641 1.3228, 1.0408 0.3641 1.2441, 1.0533 0.3765 1.3228, 1.0533 0.3765 1.2441, 1.0682 0.3859 1.3228, 1.0682 0.3859 1.2441, 1.0848 0.3917 1.3228, 1.0848 0.3917 1.2441, 1.1024 0.3937 1.3228, 1.1024 0.3937 1.2441, 0.6004 -0.3051 1.3228, -0.6004 -0.3051 1.3228, 0.6004 0.3051 1.3228, -0.6004 0.3051 1.3228, -0.6004 0.3051 1.2441, 0.6004 0.3051 1.2441, -0.6004 -0.3051 1.2441, 0.6004 -0.3051 1.2441
            ]
        }
        coordIndex [
            0,1,2,-1,2,1,3,-1,4,0,5,-1,5,0,2,-1,6,4,7,-1,7,4,5,-1,8,6,9,-1,9,6,7,-1,8,9,10,-1,10,9,11,-1,10,11,12,-1,12,11,13,-1,12,13,14,-1,14,13,15,-1,14,15,16,-1,16,15,17,-1,16,17,18,-1,18,17,19,-1,18,19,20,-1,20,19,21,-1,20,21,22,-1,22,21,23,-1,24,22,25,-1,25,22,23,-1,24,25,26,-1,26,25,27,-1,26,27,28,-1,28,27,29,-1,28,29,30,-1,30,29,31,-1,30,31,32,-1,32,31,33,-1,32,33,34,-1,34,33,35,-1,34,35,36,-1,36,35,37,-1,36,37,38,-1,38,37,39,-1,40,38,41,-1,41,38,39,-1,42,40,43,-1,43,40,41,-1,44,42,45,-1,45,42,43,-1,46,44,47,-1,47,44,45,-1,48,46,49,-1,49,46,47,-1,48,49,50,-1,50,49,51,-1,50,51,52,-1,52,51,53,-1,52,53,54,-1,54,53,55,-1,54,55,56,-1,56,55,57,-1,56,57,58,-1,58,57,59,-1,58,59,60,-1,60,59,61,-1,60,61,62,-1,62,61,63,-1,64,62,65,-1,65,62,63,-1,64,65,66,-1,66,65,67,-1,66,67,68,-1,68,67,69,-1,68,69,70,-1,70,69,71,-1,70,71,72,-1,72,71,73,-1,72,73,74,-1,74,73,75,-1,74,75,76,-1,76,75,77,-1,76,77,78,-1,78,77,79,-1,1,78,3,-1,3,78,79,-1,44,80,42,-1,42,80,81,-1,44,46,48,-1,66,68,82,-1,82,0,83,-1,83,0,4,-1,56,58,80,-1,1,0,78,-1,78,0,76,-1,40,42,38,-1,38,42,36,-1,48,50,44,-1,44,50,52,-1,44,52,80,-1,80,52,54,-1,80,54,56,-1,68,70,82,-1,82,70,72,-1,82,72,0,-1,0,72,74,-1,0,74,76,-1,4,6,8,-1,81,26,28,-1,28,30,81,-1,81,30,32,-1,81,32,42,-1,42,32,34,-1,42,34,36,-1,16,18,83,-1,58,60,80,-1,80,60,62,-1,80,62,82,-1,82,62,64,-1,82,64,66,-1,8,10,4,-1,4,10,12,-1,4,12,83,-1,83,12,14,-1,83,14,16,-1,18,20,83,-1,83,20,22,-1,83,22,81,-1,81,22,24,-1,81,24,26,-1,84,5,85,-1,85,5,2,-1,37,43,39,-1,39,43,41,-1,71,69,85,-1,37,35,43,-1,43,35,86,-1,43,86,45,-1,45,86,87,-1,35,33,86,-1,86,33,31,-1,86,31,29,-1,7,5,9,-1,9,5,11,-1,2,3,79,-1,47,45,49,-1,49,45,51,-1,84,21,19,-1,79,77,2,-1,2,77,75,-1,2,75,85,-1,85,75,73,-1,85,73,71,-1,87,61,59,-1,29,27,86,-1,86,27,25,-1,86,25,84,-1,84,25,23,-1,84,23,21,-1,19,17,84,-1,84,17,15,-1,84,15,5,-1,5,15,13,-1,5,13,11,-1,59,57,87,-1,87,57,55,-1,87,55,45,-1,45,55,53,-1,45,53,51,-1,69,67,85,-1,85,67,65,-1,85,65,87,-1,87,65,63,-1,87,63,61,-1,85,87,82,-1,82,87,80,-1,87,86,80,-1,80,86,81,-1,86,84,81,-1,81,84,83,-1,84,85,83,-1,83,85,82,-1,
        ]
    }
}
Shape{
    appearance Appearance {
        material  Material 	{
            diffuseColor 0.8431372549019608 0.8156862745098039 0.7529411764705882
            specularColor 0.4235294117647059 0.40784313725490196 0.3764705882352941
            ambientIntensity 0.8167
            transparency 0.0
            shininess 0.5
        }
    }
    geometry IndexedFaceSet {
        ccw TRUE
        solid FALSE
        coord DEF co Coordinate {
            point [
                -0.1223 -0.0483 0.0039, -0.1018 -0.0427 0.0039, -0.0673 -0.0476 0.0039, 0.0235 -0.0476 0.0039, 0.0451 -0.0487 0.0039, 0.0235 -0.0281 0.0039, 0.0451 0.6496 0.0039, -0.0435 -0.0281 0.0039, -0.0435 0.0302 0.0039, 0.0191 0.0302 0.0039, -0.1433 -0.0303 0.0039, -0.105 0.1027 0.0039, -0.1218 -0.0275 0.0039, -0.1018 0.101 0.0039, -0.1018 -0.019 0.0039, -0.1279 -0.0487 0.0039, -0.0435 0.0496 0.0039, -0.0435 0.1101 0.0039, 0.0191 0.0496 0.0039, 0.0278 0.1101 0.0039, -0.1018 0.1204 0.0039, -0.0673 0.1296 0.0039, -0.3157 -0.0476 0.0039, -0.3157 0.1101 0.0039, -0.2488 0.1101 0.0039, -0.2137 -0.0178 0.0039, -0.1982 -0.0326 0.0039, -0.1817 -0.0423 0.0039, -0.204 0.1144 0.0039, -0.2169 0.1007 0.0039, -0.2264 0.084 0.0039, -0.2319 0.065 0.0039, -0.1207 0.1282 0.0039, -0.1458 0.1317 0.0039, -1.1811 0.6496 0.0039, -0.1608 -0.0283 0.0039, -0.174 -0.0236 0.0039, -0.1865 -0.0152 0.0039, -0.1972 -0.0033 0.0039, -0.2044 0.0104 0.0039, -0.2091 0.0296 0.0039, -0.2099 0.0429 0.0039, -0.2081 0.0621 0.0039, -0.2033 0.0773 0.0039, -0.1473 0.1123 0.0039, -0.1877 0.0983 0.0039, -0.1638 0.1105 0.0039, -0.1768 0.1057 0.0039, -0.1959 0.0896 0.0039, -0.1238 0.1097 0.0039, -0.1622 -0.0481 0.0039, -0.1561 -0.0487 0.0039, -0.3395 -0.0476 0.0039, -0.2336 0.0443 0.0039, -0.2311 0.0192 0.0039, -0.2243 -0.001 0.0039, -0.3395 0.1296 0.0039, -0.1506 0.1317 0.0039, -0.2488 0.1296 0.0039, -0.1724 0.1295 0.0039, -0.1896 0.1236 0.0039, 0.0278 0.1296 0.0039, 0.0451 -0.6496 0.0039, -0.1435 -0.0497 0.0039, -1.1811 -0.6496 0.0039, -1.1811 -0.1958 0.0039, -1.1811 -0.0487 0.0039, -1.1811 0.1958 0.0039, 0.3087 -0.0476 0.0039, 0.3778 0.1296 0.0039, 1.1811 0.6496 0.0039, 0.1717 0.1106 0.0039, 0.1534 0.1214 0.0039, 0.133 0.1276 0.0039, 0.3339 0.0799 0.0039, 0.2608 0.0799 0.0039, 0.3519 0.1296 0.0039, 0.2438 0.1296 0.0039, 0.2179 0.1296 0.0039, 0.1105 0.1296 0.0039, 0.0624 0.1296 0.0039, 0.2025 0.0625 0.0039, 0.1961 0.0809 0.0039, 0.1862 0.0966 0.0039, 0.1587 -0.0376 0.0039, 0.1762 -0.0261 0.0039, 0.2849 -0.0476 0.0039, 0.1831 -0.0198 0.0039, 0.1937 -0.0059 0.0039, 0.0624 -0.0476 0.0039, 0.1124 -0.0476 0.0039, 0.1379 -0.0448 0.0039, 0.2012 0.0113 0.0039, 0.2046 0.03 0.0039, 0.205 0.0388 0.0039, 1.1811 -0.6496 0.0039, 1.1811 -0.1958 0.0039, 1.1811 -0.0487 0.0039, 1.1811 0.1958 0.0039, 1.1811 -0.1969 0.0079, 1.1811 -0.1966 0.0058, 1.1811 -0.1969 0.0709, 1.1811 -0.1966 0.0729, 1.1811 -0.6496 1.2441, 1.1811 -0.1958 0.0748, 1.1811 0.1966 0.0058, 1.1811 0.1958 0.0748, 1.1811 0.1966 0.0729, 1.1811 -0.189 0.0787, 1.1811 0.189 0.0787, 1.1811 0.6496 1.2441, 1.1811 0.191 0.0785, 1.1811 0.1929 0.0777, 1.1811 0.1945 0.0764, 1.1811 -0.1945 0.0764, 1.1811 -0.1929 0.0777, 1.1811 -0.191 0.0785, 1.1811 0.1969 0.0709, 1.1811 0.1969 0.0079, -1.1811 -0.1966 0.0058, -1.1811 -0.1958 0.0748, -1.1811 -0.1966 0.0729, -1.1811 0.189 0.0787, -1.1811 -0.189 0.0787, -1.1811 -0.6496 1.2441, -1.1811 -0.191 0.0785, -1.1811 -0.1929 0.0777, -1.1811 -0.1945 0.0764, -1.1811 -0.1969 0.0709, -1.1811 -0.1969 0.0079, -1.1811 0.1969 0.0079, -1.1811 0.1966 0.0058, -1.1811 0.1969 0.0709, -1.1811 0.1966 0.0729, -1.1811 0.6496 1.2441, -1.1811 0.1958 0.0748, -1.1811 0.1945 0.0764, -1.1811 0.1929 0.0777, -1.1811 0.191 0.0785, -0.7677 0.3543 1.2441, -0.7677 -0.3543 1.2441, -1.0827 -0.3543 1.2441, -1.0827 0.3543 1.2441, 1.0827 -0.3543 1.2441, 0.7677 -0.3543 1.2441, 0.7677 0.3543 1.2441, 0.5906 0.2559 1.2441, 0.5906 -0.2559 1.2441, 0.5892 -0.2661 1.2441, 0.5512 0.2953 1.2441, 0.5614 0.2939 1.2441, 0.579 -0.2838 1.2441, 0.5752 -0.2871 1.2441, -0.5709 -0.29 1.2441, -0.5752 -0.2871 1.2441, 0.5709 -0.29 1.2441, 0.5663 -0.2923 1.2441, 0.5614 -0.2939 1.2441, -0.5663 -0.2923 1.2441, -0.579 -0.2838 1.2441, -0.5824 -0.2799 1.2441, -0.5853 -0.2756 1.2441, -0.5906 -0.2559 1.2441, -0.5906 0.2559 1.2441, -0.5892 0.2661 1.2441, -0.5512 0.2953 1.2441, 0.5752 0.2871 1.2441, 0.579 0.2838 1.2441, 0.5824 0.2799 1.2441, 0.5853 0.2756 1.2441, 0.5876 -0.271 1.2441, 0.5853 -0.2756 1.2441, 0.5824 -0.2799 1.2441, 0.5512 -0.2953 1.2441, -0.5512 -0.2953 1.2441, -0.5614 -0.2939 1.2441, -0.5876 -0.271 1.2441, -0.5892 -0.2661 1.2441, -0.5824 0.2799 1.2441, -0.579 0.2838 1.2441, -0.5752 0.2871 1.2441, -0.5709 0.29 1.2441, 1.0827 0.3543 1.2441, 0.5663 0.2923 1.2441, 0.5709 0.29 1.2441, 0.5876 0.271 1.2441, 0.5892 0.2661 1.2441, -0.5876 0.271 1.2441, -0.5853 0.2756 1.2441, -0.5663 0.2923 1.2441, -0.5614 0.2939 1.2441, -0.5271 -0.2712 1.9344, 0.5271 -0.2712 1.9344, -0.5664 -0.2318 1.9344, -0.5664 0.2318 1.9344, 0.5271 0.2712 1.9344, -0.5271 0.2712 1.9344, 0.5664 0.2318 1.9344, 0.5664 -0.2318 1.9344, 0.5271 0.2318 1.9724, -0.5271 0.2318 1.9724, 0.5271 -0.2318 1.9724, -0.5271 -0.2318 1.9724, -0.5651 0.242 1.9348, -0.5651 0.242 1.9348, -0.5612 0.2515 1.9349, -0.5612 0.2515 1.9349, -0.5549 0.2596 1.935, -0.5468 0.2659 1.9349, -0.5468 0.2659 1.9349, -0.5373 0.2698 1.9348, -0.5373 0.2698 1.9348, -0.5373 -0.2698 1.9348, -0.5373 -0.2698 1.9348, -0.5468 -0.2659 1.9349, -0.5468 -0.2659 1.9349, -0.5549 -0.2596 1.935, -0.5612 -0.2515 1.9349, -0.5612 -0.2515 1.9349, -0.5651 -0.242 1.9348, -0.5651 -0.242 1.9348, -0.5649 0.2318 1.9441, -0.5649 -0.2318 1.9441, -0.5648 0.2318 1.9443, -0.5648 -0.2318 1.9443, -0.5609 0.2318 1.9533, -0.5609 -0.2318 1.9533, -0.5607 0.2318 1.9535, -0.5607 -0.2318 1.9535, -0.5546 0.2318 1.9613, -0.5546 -0.2318 1.9613, -0.5544 0.2318 1.9614, -0.5544 -0.2318 1.9614, -0.5465 0.2318 1.9673, -0.5465 -0.2318 1.9673, -0.5464 0.2318 1.9674, -0.5464 -0.2318 1.9674, -0.5371 0.2318 1.9711, -0.5371 -0.2318 1.9711, -0.5371 0.2318 1.9712, -0.5371 -0.2318 1.9712, -0.5536 0.2389 1.9613, -0.5458 0.2368 1.9673, -0.5368 0.2344 1.9711, -0.5358 0.2368 1.9711, -0.5321 0.2405 1.9711, -0.5342 0.2389 1.9711, -0.5297 0.2415 1.9711, -0.5636 0.2416 1.9441, -0.5598 0.2507 1.9441, -0.5538 0.2586 1.9441, -0.546 0.2646 1.9441, -0.5369 0.2683 1.9441, -0.5271 0.2696 1.9441, -0.5271 0.2418 1.9712, -0.5439 0.2415 1.9673, -0.5408 0.2455 1.9673, -0.5368 0.2486 1.9673, -0.5321 0.2506 1.9673, -0.5271 0.2418 1.9711, -0.5271 0.2511 1.9674, -0.5271 0.2512 1.9673, -0.5271 0.2592 1.9614, -0.5509 0.2456 1.9613, -0.5465 0.2513 1.9613, -0.5408 0.2556 1.9613, -0.5342 0.2584 1.9613, -0.5597 0.2406 1.9533, -0.5563 0.2487 1.9533, -0.551 0.2557 1.9533, -0.544 0.2611 1.9533, -0.5358 0.2644 1.9533, -0.5271 0.2593 1.9613, -0.5271 0.2654 1.9535, -0.5271 0.2656 1.9533, -0.5271 0.2695 1.9443, -0.5271 -0.2654 1.9535, -0.5271 -0.2593 1.9613, -0.5342 -0.2584 1.9613, -0.5321 -0.2506 1.9673, -0.5297 -0.2415 1.9711, -0.5321 -0.2405 1.9711, -0.5358 -0.2368 1.9711, -0.5342 -0.2389 1.9711, -0.5368 -0.2344 1.9711, -0.5271 -0.2418 1.9712, -0.5369 -0.2683 1.9441, -0.546 -0.2646 1.9441, -0.5538 -0.2586 1.9441, -0.5598 -0.2507 1.9441, -0.5636 -0.2416 1.9441, -0.5271 -0.2592 1.9614, -0.5271 -0.2512 1.9673, -0.5271 -0.2511 1.9674, -0.5271 -0.2418 1.9711, -0.5368 -0.2486 1.9673, -0.5408 -0.2455 1.9673, -0.5439 -0.2415 1.9673, -0.5458 -0.2368 1.9673, -0.5408 -0.2556 1.9613, -0.5465 -0.2513 1.9613, -0.5509 -0.2456 1.9613, -0.5536 -0.2389 1.9613, -0.5271 -0.2695 1.9443, -0.5271 -0.2656 1.9533, -0.5358 -0.2644 1.9533, -0.544 -0.2611 1.9533, -0.551 -0.2557 1.9533, -0.5563 -0.2487 1.9533, -0.5597 -0.2406 1.9533, -0.5271 -0.2696 1.9441, 0.5271 0.2696 1.9441, 0.5271 0.2695 1.9443, 0.5271 0.2656 1.9533, 0.5271 0.2654 1.9535, 0.5271 0.2593 1.9613, 0.5271 0.2592 1.9614, 0.5271 0.2512 1.9673, 0.5271 0.2511 1.9674, 0.5271 0.2418 1.9711, 0.5271 0.2418 1.9712, 0.5373 0.2698 1.9348, 0.5373 0.2698 1.9348, 0.5468 0.2659 1.9349, 0.5468 0.2659 1.9349, 0.5549 0.2596 1.935, 0.5612 0.2515 1.9349, 0.5612 0.2515 1.9349, 0.5651 0.242 1.9348, 0.5651 0.242 1.9348, 0.5651 -0.242 1.9348, 0.5651 -0.242 1.9348, 0.5612 -0.2515 1.9349, 0.5612 -0.2515 1.9349, 0.5549 -0.2596 1.935, 0.5468 -0.2659 1.9349, 0.5468 -0.2659 1.9349, 0.5373 -0.2698 1.9348, 0.5373 -0.2698 1.9348, 0.5271 -0.2696 1.9441, 0.5271 -0.2695 1.9443, 0.5271 -0.2656 1.9533, 0.5271 -0.2654 1.9535, 0.5271 -0.2593 1.9613, 0.5271 -0.2592 1.9614, 0.5271 -0.2512 1.9673, 0.5271 -0.2511 1.9674, 0.5271 -0.2418 1.9711, 0.5271 -0.2418 1.9712, 0.5342 0.2584 1.9613, 0.5321 0.2506 1.9673, 0.5297 0.2415 1.9711, 0.5321 0.2405 1.9711, 0.5358 0.2368 1.9711, 0.5342 0.2389 1.9711, 0.5368 0.2344 1.9711, 0.5369 0.2683 1.9441, 0.546 0.2646 1.9441, 0.5538 0.2586 1.9441, 0.5598 0.2507 1.9441, 0.5636 0.2416 1.9441, 0.5649 0.2318 1.9441, 0.5371 0.2318 1.9712, 0.5368 0.2486 1.9673, 0.5408 0.2455 1.9673, 0.5439 0.2415 1.9673, 0.5458 0.2368 1.9673, 0.5371 0.2318 1.9711, 0.5464 0.2318 1.9674, 0.5465 0.2318 1.9673, 0.5544 0.2318 1.9614, 0.5408 0.2556 1.9613, 0.5465 0.2513 1.9613, 0.5509 0.2456 1.9613, 0.5536 0.2389 1.9613, 0.5358 0.2644 1.9533, 0.544 0.2611 1.9533, 0.551 0.2557 1.9533, 0.5563 0.2487 1.9533, 0.5597 0.2406 1.9533, 0.5546 0.2318 1.9613, 0.5607 0.2318 1.9535, 0.5609 0.2318 1.9533, 0.5648 0.2318 1.9443, 0.5607 -0.2318 1.9535, 0.5546 -0.2318 1.9613, 0.5536 -0.2389 1.9613, 0.5458 -0.2368 1.9673, 0.5368 -0.2344 1.9711, 0.5358 -0.2368 1.9711, 0.5321 -0.2405 1.9711, 0.5342 -0.2389 1.9711, 0.5297 -0.2415 1.9711, 0.5371 -0.2318 1.9712, 0.5636 -0.2416 1.9441, 0.5598 -0.2507 1.9441, 0.5538 -0.2586 1.9441, 0.546 -0.2646 1.9441, 0.5369 -0.2683 1.9441, 0.5544 -0.2318 1.9614, 0.5465 -0.2318 1.9673, 0.5464 -0.2318 1.9674, 0.5371 -0.2318 1.9711, 0.5439 -0.2415 1.9673, 0.5408 -0.2455 1.9673, 0.5368 -0.2486 1.9673, 0.5321 -0.2506 1.9673, 0.5509 -0.2456 1.9613, 0.5465 -0.2513 1.9613, 0.5408 -0.2556 1.9613, 0.5342 -0.2584 1.9613, 0.5648 -0.2318 1.9443, 0.5609 -0.2318 1.9533, 0.5597 -0.2406 1.9533, 0.5563 -0.2487 1.9533, 0.551 -0.2557 1.9533, 0.544 -0.2611 1.9533, 0.5358 -0.2644 1.9533, 0.5649 -0.2318 1.9441, -0.7677 -0.3543 1.3228, -0.7677 0.3543 1.3228, -1.0827 0.3543 1.3228, -1.0827 -0.3543 1.3228, -0.8465 -0.2756 1.4016, -0.8465 0.2756 1.4016, -1.0039 -0.2756 1.4016, -1.0039 0.2756 1.4016, 1.0827 -0.3543 1.3228, 1.0827 0.3543 1.3228, 0.7677 0.3543 1.3228, 0.7677 -0.3543 1.3228, 1.0039 -0.2756 1.4016, 1.0039 0.2756 1.4016, 0.8465 -0.2756 1.4016, 0.8465 0.2756 1.4016
            ]
        }
        coordIndex [
            0,1,2,-1,2,3,4,-1,4,3,5,-1,4,5,6,-1,7,8,5,-1,5,8,9,-1,10,11,12,-1,12,11,13,-1,12,13,14,-1,0,2,15,-1,16,17,18,-1,18,17,19,-1,20,21,13,-1,13,21,2,-1,13,2,14,-1,14,2,1,-1,22,23,24,-1,25,26,22,-1,22,26,27,-1,28,29,24,-1,24,29,30,-1,24,30,31,-1,32,33,34,-1,10,35,11,-1,11,35,36,-1,11,36,37,-1,37,38,11,-1,11,38,39,-1,11,39,40,-1,40,41,11,-1,11,41,42,-1,11,42,43,-1,44,45,46,-1,46,45,47,-1,43,48,11,-1,11,48,45,-1,11,45,49,-1,49,45,44,-1,27,50,22,-1,22,50,51,-1,22,51,52,-1,31,53,24,-1,24,53,54,-1,24,54,22,-1,22,54,55,-1,22,55,25,-1,56,57,58,-1,58,57,59,-1,58,59,24,-1,24,59,60,-1,24,60,28,-1,20,32,21,-1,21,32,34,-1,21,34,61,-1,61,34,6,-1,61,6,19,-1,19,6,5,-1,19,5,18,-1,18,5,9,-1,2,4,15,-1,15,4,62,-1,15,62,63,-1,62,64,63,-1,63,64,65,-1,63,65,51,-1,51,65,66,-1,51,66,52,-1,52,66,67,-1,52,67,56,-1,56,67,34,-1,56,34,57,-1,57,34,33,-1,68,69,70,-1,71,72,6,-1,6,72,73,-1,74,75,76,-1,76,75,77,-1,69,76,70,-1,70,76,77,-1,70,77,6,-1,6,77,78,-1,6,78,71,-1,73,79,6,-1,6,79,80,-1,6,80,4,-1,81,82,78,-1,78,82,83,-1,78,83,71,-1,84,85,86,-1,86,85,87,-1,86,87,88,-1,4,86,68,-1,80,89,4,-1,4,89,90,-1,4,90,86,-1,86,90,91,-1,86,91,84,-1,88,92,86,-1,86,92,93,-1,86,93,78,-1,78,93,94,-1,78,94,81,-1,95,62,96,-1,96,62,4,-1,96,4,97,-1,97,4,68,-1,97,68,98,-1,98,68,70,-1,99,95,100,-1,100,95,96,-1,99,101,95,-1,95,101,102,-1,95,102,103,-1,103,102,104,-1,105,98,70,-1,106,107,70,-1,108,109,110,-1,109,111,110,-1,110,111,112,-1,110,112,70,-1,70,112,113,-1,70,113,106,-1,104,114,103,-1,103,114,115,-1,103,115,110,-1,110,115,116,-1,110,116,108,-1,107,117,70,-1,70,117,118,-1,70,118,105,-1,119,65,64,-1,120,121,64,-1,122,123,124,-1,123,125,124,-1,124,125,126,-1,124,126,64,-1,64,126,127,-1,64,127,120,-1,121,128,64,-1,64,128,129,-1,64,129,119,-1,130,34,131,-1,131,34,67,-1,130,132,34,-1,34,132,133,-1,34,133,134,-1,134,133,135,-1,135,136,134,-1,134,136,137,-1,134,137,124,-1,124,137,138,-1,124,138,122,-1,139,110,134,-1,103,140,124,-1,124,140,141,-1,124,141,134,-1,134,141,142,-1,134,142,139,-1,103,143,144,-1,145,146,144,-1,144,146,147,-1,144,147,148,-1,149,150,145,-1,103,151,152,-1,153,154,140,-1,152,155,103,-1,103,155,156,-1,103,156,157,-1,153,140,158,-1,154,159,140,-1,140,159,160,-1,140,160,161,-1,140,162,139,-1,139,162,163,-1,139,163,164,-1,149,145,165,-1,166,167,145,-1,145,167,168,-1,145,168,169,-1,148,170,144,-1,144,170,171,-1,144,171,103,-1,103,171,172,-1,103,172,151,-1,157,173,103,-1,103,173,174,-1,103,174,140,-1,140,174,175,-1,140,175,158,-1,161,176,140,-1,140,176,177,-1,140,177,162,-1,178,179,139,-1,139,179,180,-1,139,180,181,-1,143,103,182,-1,182,103,110,-1,182,110,145,-1,145,110,139,-1,145,139,165,-1,150,183,145,-1,145,183,184,-1,145,184,166,-1,169,185,145,-1,145,185,186,-1,145,186,146,-1,164,187,139,-1,139,187,188,-1,139,188,178,-1,181,189,139,-1,139,189,190,-1,139,190,165,-1,34,134,6,-1,6,134,110,-1,6,110,70,-1,124,64,103,-1,103,64,62,-1,103,62,95,-1,174,173,191,-1,191,173,192,-1,193,194,162,-1,162,194,163,-1,149,165,195,-1,195,165,196,-1,197,198,146,-1,146,198,147,-1,199,200,201,-1,201,200,202,-1,194,203,163,-1,163,203,164,-1,164,203,187,-1,187,203,204,-1,187,204,188,-1,188,204,205,-1,188,205,178,-1,178,205,206,-1,178,206,179,-1,179,206,207,-1,179,207,180,-1,180,207,208,-1,180,208,181,-1,181,208,209,-1,181,209,189,-1,189,209,210,-1,189,210,190,-1,210,211,190,-1,190,211,196,-1,190,196,165,-1,174,191,212,-1,174,212,175,-1,175,212,213,-1,175,213,158,-1,158,213,214,-1,158,214,153,-1,153,214,154,-1,154,214,215,-1,154,215,159,-1,159,215,216,-1,159,216,160,-1,160,216,217,-1,160,217,161,-1,161,217,218,-1,161,218,176,-1,176,218,219,-1,176,219,177,-1,219,220,177,-1,177,220,193,-1,177,193,162,-1,194,193,221,-1,221,193,222,-1,221,222,223,-1,223,222,224,-1,223,224,225,-1,225,224,226,-1,225,226,227,-1,227,226,228,-1,227,228,229,-1,229,228,230,-1,229,230,231,-1,231,230,232,-1,231,232,233,-1,233,232,234,-1,233,234,235,-1,235,234,236,-1,235,236,237,-1,237,236,238,-1,237,238,239,-1,238,240,239,-1,239,240,202,-1,239,202,200,-1,227,229,241,-1,242,243,244,-1,200,245,246,-1,247,245,200,-1,244,243,200,-1,239,200,243,-1,248,204,203,-1,204,248,205,-1,205,248,249,-1,205,249,206,-1,206,249,250,-1,206,250,207,-1,207,250,251,-1,207,251,208,-1,208,251,209,-1,209,251,252,-1,209,252,210,-1,210,252,211,-1,211,252,253,-1,211,253,196,-1,254,247,200,-1,231,233,242,-1,242,233,235,-1,242,235,243,-1,243,235,237,-1,243,237,239,-1,255,246,256,-1,256,246,245,-1,256,245,257,-1,257,245,247,-1,257,247,258,-1,254,259,247,-1,247,259,260,-1,247,260,258,-1,258,260,261,-1,258,261,262,-1,241,255,263,-1,263,255,256,-1,263,256,264,-1,264,256,257,-1,264,257,265,-1,265,257,258,-1,265,258,266,-1,266,258,262,-1,223,225,267,-1,267,225,227,-1,227,241,267,-1,267,241,263,-1,267,263,268,-1,268,263,264,-1,268,264,269,-1,269,264,265,-1,269,265,270,-1,270,265,266,-1,270,266,271,-1,229,231,241,-1,241,231,242,-1,241,242,255,-1,255,242,244,-1,255,244,246,-1,246,244,200,-1,223,248,221,-1,221,248,203,-1,221,203,194,-1,262,272,266,-1,266,272,273,-1,266,273,271,-1,271,273,274,-1,271,274,275,-1,223,267,248,-1,248,267,268,-1,248,268,249,-1,249,268,269,-1,249,269,250,-1,250,269,270,-1,250,270,251,-1,251,270,271,-1,251,271,252,-1,252,271,275,-1,252,275,253,-1,276,277,278,-1,279,280,281,-1,202,282,283,-1,284,282,202,-1,281,280,202,-1,285,202,280,-1,286,213,212,-1,213,286,214,-1,214,286,287,-1,214,287,215,-1,215,287,288,-1,215,288,216,-1,216,288,289,-1,216,289,217,-1,217,289,218,-1,218,289,290,-1,218,290,219,-1,219,290,220,-1,220,290,222,-1,220,222,193,-1,240,284,202,-1,291,292,279,-1,279,292,293,-1,279,293,280,-1,280,293,294,-1,280,294,285,-1,295,283,296,-1,296,283,282,-1,296,282,297,-1,297,282,284,-1,297,284,298,-1,240,238,284,-1,284,238,236,-1,284,236,298,-1,298,236,234,-1,298,234,232,-1,278,295,299,-1,299,295,296,-1,299,296,300,-1,300,296,297,-1,300,297,301,-1,301,297,298,-1,301,298,302,-1,302,298,232,-1,303,304,305,-1,305,304,276,-1,276,278,305,-1,305,278,299,-1,305,299,306,-1,306,299,300,-1,306,300,307,-1,307,300,301,-1,307,301,308,-1,308,301,302,-1,308,302,309,-1,277,291,278,-1,278,291,279,-1,278,279,295,-1,295,279,281,-1,295,281,283,-1,283,281,202,-1,303,286,310,-1,310,286,212,-1,310,212,191,-1,232,230,302,-1,302,230,228,-1,302,228,309,-1,309,228,226,-1,309,226,224,-1,303,305,286,-1,286,305,306,-1,286,306,287,-1,287,306,307,-1,287,307,288,-1,288,307,308,-1,288,308,289,-1,289,308,309,-1,289,309,290,-1,290,309,224,-1,290,224,222,-1,195,196,311,-1,311,196,253,-1,311,253,312,-1,312,253,275,-1,312,275,313,-1,313,275,274,-1,313,274,314,-1,314,274,273,-1,314,273,315,-1,315,273,272,-1,315,272,316,-1,316,272,262,-1,316,262,317,-1,317,262,261,-1,317,261,318,-1,318,261,260,-1,318,260,319,-1,319,260,259,-1,319,259,320,-1,259,254,320,-1,320,254,200,-1,320,200,199,-1,195,321,149,-1,149,321,150,-1,150,321,183,-1,183,321,322,-1,183,322,184,-1,184,322,323,-1,184,323,166,-1,166,323,324,-1,166,324,167,-1,167,324,325,-1,167,325,168,-1,168,325,326,-1,168,326,169,-1,169,326,327,-1,169,327,185,-1,185,327,328,-1,185,328,186,-1,328,329,186,-1,186,329,197,-1,186,197,146,-1,147,198,330,-1,147,330,148,-1,148,330,331,-1,148,331,170,-1,170,331,332,-1,170,332,171,-1,171,332,172,-1,172,332,333,-1,172,333,151,-1,151,333,334,-1,151,334,152,-1,152,334,335,-1,152,335,155,-1,155,335,336,-1,155,336,156,-1,156,336,337,-1,156,337,157,-1,337,338,157,-1,157,338,192,-1,157,192,173,-1,191,192,310,-1,310,192,339,-1,310,339,303,-1,303,339,340,-1,303,340,304,-1,304,340,341,-1,304,341,276,-1,276,341,342,-1,276,342,277,-1,277,342,343,-1,277,343,291,-1,291,343,344,-1,291,344,292,-1,292,344,345,-1,292,345,293,-1,293,345,346,-1,293,346,294,-1,294,346,347,-1,294,347,285,-1,347,348,285,-1,285,348,201,-1,285,201,202,-1,314,315,349,-1,350,351,352,-1,199,353,354,-1,355,353,199,-1,352,351,199,-1,320,199,351,-1,356,322,321,-1,322,356,323,-1,323,356,357,-1,323,357,324,-1,324,357,358,-1,324,358,325,-1,325,358,359,-1,325,359,326,-1,326,359,327,-1,327,359,360,-1,327,360,328,-1,328,360,329,-1,329,360,361,-1,329,361,197,-1,362,355,199,-1,316,317,350,-1,350,317,318,-1,350,318,351,-1,351,318,319,-1,351,319,320,-1,363,354,364,-1,364,354,353,-1,364,353,365,-1,365,353,355,-1,365,355,366,-1,362,367,355,-1,355,367,368,-1,355,368,366,-1,366,368,369,-1,366,369,370,-1,349,363,371,-1,371,363,364,-1,371,364,372,-1,372,364,365,-1,372,365,373,-1,373,365,366,-1,373,366,374,-1,374,366,370,-1,312,313,375,-1,375,313,314,-1,314,349,375,-1,375,349,371,-1,375,371,376,-1,376,371,372,-1,376,372,377,-1,377,372,373,-1,377,373,378,-1,378,373,374,-1,378,374,379,-1,315,316,349,-1,349,316,350,-1,349,350,363,-1,363,350,352,-1,363,352,354,-1,354,352,199,-1,312,356,311,-1,311,356,321,-1,311,321,195,-1,370,380,374,-1,374,380,381,-1,374,381,379,-1,379,381,382,-1,379,382,383,-1,312,375,356,-1,356,375,376,-1,356,376,357,-1,357,376,377,-1,357,377,358,-1,358,377,378,-1,358,378,359,-1,359,378,379,-1,359,379,360,-1,360,379,383,-1,360,383,361,-1,384,385,386,-1,387,388,389,-1,201,390,391,-1,392,390,201,-1,389,388,201,-1,393,201,388,-1,394,331,330,-1,331,394,332,-1,332,394,395,-1,332,395,333,-1,333,395,396,-1,333,396,334,-1,334,396,397,-1,334,397,335,-1,335,397,336,-1,336,397,398,-1,336,398,337,-1,337,398,338,-1,338,398,339,-1,338,339,192,-1,348,392,201,-1,399,400,387,-1,387,400,401,-1,387,401,388,-1,388,401,402,-1,388,402,393,-1,403,391,404,-1,404,391,390,-1,404,390,405,-1,405,390,392,-1,405,392,406,-1,348,347,392,-1,392,347,346,-1,392,346,406,-1,406,346,345,-1,406,345,344,-1,386,403,407,-1,407,403,404,-1,407,404,408,-1,408,404,405,-1,408,405,409,-1,409,405,406,-1,409,406,410,-1,410,406,344,-1,411,412,413,-1,413,412,384,-1,384,386,413,-1,413,386,407,-1,413,407,414,-1,414,407,408,-1,414,408,415,-1,415,408,409,-1,415,409,416,-1,416,409,410,-1,416,410,417,-1,385,399,386,-1,386,399,387,-1,386,387,403,-1,403,387,389,-1,403,389,391,-1,391,389,201,-1,411,394,418,-1,418,394,330,-1,418,330,198,-1,344,343,410,-1,410,343,342,-1,410,342,417,-1,417,342,341,-1,417,341,340,-1,411,413,394,-1,394,413,414,-1,394,414,395,-1,395,414,415,-1,395,415,396,-1,396,415,416,-1,396,416,397,-1,397,416,417,-1,397,417,398,-1,398,417,340,-1,398,340,339,-1,198,197,418,-1,418,197,361,-1,418,361,411,-1,411,361,383,-1,411,383,412,-1,412,383,382,-1,412,382,384,-1,384,382,381,-1,384,381,385,-1,385,381,380,-1,385,380,399,-1,399,380,370,-1,399,370,400,-1,400,370,369,-1,400,369,401,-1,401,369,368,-1,401,368,402,-1,402,368,367,-1,402,367,393,-1,367,362,393,-1,393,362,199,-1,393,199,201,-1,419,140,420,-1,420,140,139,-1,420,139,421,-1,421,139,142,-1,421,142,422,-1,422,142,141,-1,422,141,419,-1,419,141,140,-1,423,424,425,-1,425,424,426,-1,427,143,428,-1,428,143,182,-1,428,182,429,-1,429,182,145,-1,429,145,430,-1,430,145,144,-1,430,144,427,-1,427,144,143,-1,431,432,433,-1,433,432,434,-1,429,434,428,-1,428,434,432,-1,430,433,429,-1,429,433,434,-1,431,427,432,-1,432,427,428,-1,427,431,430,-1,430,431,433,-1,421,426,420,-1,420,426,424,-1,422,425,421,-1,421,425,426,-1,423,419,424,-1,424,419,420,-1,419,423,422,-1,422,423,425,-1,
        ]
    }
}
Shape{
    appearance Appearance {
        material  Material 	{
            diffuseColor 0.8509803921568627 0.8509803921568627 0.8509803921568627
            specularColor 0.4235294117647059 0.4235294117647059 0.4235294117647059
            ambientIntensity 0.851
            transparency 0.0
            shininess 0.5
        }
    }
    geometry IndexedFaceSet {
        ccw TRUE
        solid FALSE
        coord DEF co Coordinate {
            point [
                -1.1811 -0.1958 0.0039, -1.1811 -0.189 0.0, -1.1811 -0.0487 0.0039, -1.1811 0.189 0.0, -1.1811 0.1958 0.0039, -1.1811 -0.1945 0.0023, -1.1811 -0.1929 0.0011, -1.1811 -0.191 0.0003, -1.1811 0.191 0.0003, -1.1811 0.1929 0.0011, -1.1811 0.1945 0.0023, -1.2482 0.1575 0.5187, -1.3109 0.1575 0.5128, -1.2482 -0.1575 0.5187, -1.3109 -0.1575 0.5128, -1.2791 -0.189 0.0892, -1.2791 0.189 0.0892, -1.2739 0.189 0.0656, -1.2739 -0.189 0.0656, -1.2631 0.189 0.044, -1.2631 -0.189 0.044, -1.2474 0.189 0.0257, -1.2474 -0.189 0.0257, -1.2276 0.189 0.0117, -1.2276 -0.189 0.0117, -1.2051 0.189 0.003, -1.2051 -0.189 0.003, -1.2085 -0.1969 0.0959, -1.2713 -0.1969 0.09, -1.2071 -0.1969 0.0892, -1.2665 -0.1969 0.0683, -1.2041 -0.1969 0.0832, -1.2566 -0.1969 0.0484, -1.1997 -0.1969 0.078, -1.2421 -0.1969 0.0315, -1.1941 -0.1969 0.0741, -1.2239 -0.1969 0.0186, -1.1878 -0.1969 0.0717, -1.2032 -0.1969 0.0106, -1.1811 -0.1969 0.0709, -1.1811 -0.1969 0.0079, -1.1811 -0.189 0.0787, -1.1811 0.189 0.0787, -1.1859 -0.189 0.0793, -1.1859 0.189 0.0793, -1.1904 -0.189 0.0811, -1.1904 0.189 0.0811, -1.1944 -0.189 0.0839, -1.1944 0.189 0.0839, -1.1975 -0.189 0.0875, -1.1975 0.189 0.0875, -1.1997 -0.189 0.0919, -1.1997 0.189 0.0919, -1.2007 -0.189 0.0966, -1.2007 0.189 0.0966, -1.1811 0.1969 0.0709, -1.1811 0.1969 0.0079, -1.1878 0.1969 0.0717, -1.2032 0.1969 0.0106, -1.1941 0.1969 0.0741, -1.2239 0.1969 0.0186, -1.1997 0.1969 0.078, -1.2421 0.1969 0.0315, -1.2041 0.1969 0.0832, -1.2566 0.1969 0.0484, -1.2071 0.1969 0.0892, -1.2665 0.1969 0.0683, -1.2085 0.1969 0.0959, -1.2713 0.1969 0.09, -1.3151 0.189 0.4729, -1.3151 -0.189 0.4729, -1.3176 -0.1732 0.5, -1.3171 -0.1798 0.4951, -1.3158 -0.1879 0.481, -1.3165 -0.1848 0.4886, -1.318 0.1575 0.5042, -1.318 -0.1575 0.5042, -1.3179 -0.1656 0.5032, -1.3176 0.1732 0.5, -1.3171 0.1798 0.4951, -1.3165 0.1848 0.4886, -1.3179 0.1656 0.5032, -1.3158 0.1879 0.481, -1.2445 -0.1969 0.4795, -1.3072 -0.1969 0.4736, -1.2367 -0.189 0.4802, -1.2396 -0.1575 0.5116, -1.2392 0.1732 0.5074, -1.2395 0.1656 0.5105, -1.2396 0.1575 0.5116, -1.2367 0.189 0.4802, -1.2374 0.1879 0.4883, -1.2381 0.1848 0.4959, -1.2387 0.1798 0.5024, -1.2387 -0.1798 0.5024, -1.2392 -0.1732 0.5074, -1.2395 -0.1656 0.5105, -1.2381 -0.1848 0.4959, -1.2374 -0.1879 0.4883, -1.2445 0.1969 0.4795, -1.3072 0.1969 0.4736, -1.248 0.1677 0.5174, -1.3108 0.1677 0.5115, -1.2477 0.1772 0.5134, -1.3104 0.1772 0.5076, -1.2471 0.1853 0.5072, -1.3098 0.1853 0.5013, -1.2463 0.1916 0.4991, -1.309 0.1916 0.4932, -1.2454 0.1955 0.4896, -1.3082 0.1955 0.4838, -1.3108 -0.1677 0.5115, -1.248 -0.1677 0.5174, -1.3104 -0.1772 0.5076, -1.2477 -0.1772 0.5134, -1.3098 -0.1853 0.5013, -1.2471 -0.1853 0.5072, -1.309 -0.1916 0.4932, -1.2463 -0.1916 0.4991, -1.3082 -0.1955 0.4838, -1.2454 -0.1955 0.4896, -1.201 0.191 0.0966, -1.1999 0.191 0.0918, -1.2018 0.1929 0.0965, -1.2007 0.1929 0.0915, -1.203 0.1945 0.0964, -1.2018 0.1945 0.0911, -1.2046 0.1958 0.0962, -1.2034 0.1958 0.0906, -1.2065 0.1966 0.096, -1.2052 0.1966 0.0899, -1.1977 0.191 0.0874, -1.1984 0.1929 0.087, -1.1994 0.1945 0.0863, -1.2008 0.1958 0.0854, -1.2024 0.1966 0.0843, -1.1945 0.191 0.0837, -1.1951 0.1929 0.0831, -1.1959 0.1945 0.0822, -1.197 0.1958 0.081, -1.1983 0.1966 0.0796, -1.1905 0.191 0.0808, -1.1909 0.1929 0.0801, -1.1915 0.1945 0.079, -1.1923 0.1958 0.0776, -1.1932 0.1966 0.0759, -1.186 0.191 0.0791, -1.1862 0.1929 0.0783, -1.1865 0.1945 0.0771, -1.1869 0.1958 0.0755, -1.1873 0.1966 0.0737, -1.1811 0.191 0.0785, -1.1811 0.1929 0.0777, -1.1811 0.1945 0.0764, -1.1811 0.1958 0.0748, -1.1811 0.1966 0.0729, -1.2425 0.1966 0.4797, -1.2406 0.1958 0.4799, -1.239 0.1945 0.48, -1.2377 0.1929 0.4801, -1.2369 0.191 0.4802, -1.2401 0.1575 0.5136, -1.2399 0.1662 0.5124, -1.241 0.1575 0.5154, -1.2409 0.1667 0.5142, -1.2424 0.1575 0.5169, -1.2423 0.1671 0.5157, -1.2442 0.1575 0.518, -1.244 0.1674 0.5167, -1.2461 0.1575 0.5186, -1.246 0.1676 0.5173, -1.2396 0.1742 0.5091, -1.2406 0.1752 0.5107, -1.2419 0.176 0.512, -1.2437 0.1766 0.5129, -1.2456 0.177 0.5134, -1.2391 0.1812 0.5038, -1.24 0.1825 0.5051, -1.2414 0.1837 0.5061, -1.2431 0.1846 0.5068, -1.245 0.1851 0.5072, -1.2385 0.1865 0.4969, -1.2394 0.1882 0.4978, -1.2407 0.1896 0.4985, -1.2424 0.1907 0.4989, -1.2443 0.1913 0.4991, -1.2377 0.1899 0.4888, -1.2386 0.1917 0.4893, -1.2398 0.1933 0.4896, -1.2415 0.1945 0.4897, -1.2434 0.1952 0.4898, -1.2461 -0.1575 0.5186, -1.2442 -0.1575 0.518, -1.2424 -0.1575 0.5169, -1.241 -0.1575 0.5154, -1.2401 -0.1575 0.5136, -1.2369 -0.191 0.4802, -1.2377 -0.1899 0.4888, -1.2377 -0.1929 0.4801, -1.2386 -0.1917 0.4893, -1.239 -0.1945 0.48, -1.2398 -0.1933 0.4896, -1.2406 -0.1958 0.4799, -1.2415 -0.1945 0.4897, -1.2425 -0.1966 0.4797, -1.2434 -0.1952 0.4898, -1.2385 -0.1865 0.4969, -1.2394 -0.1882 0.4978, -1.2407 -0.1896 0.4985, -1.2424 -0.1907 0.4989, -1.2443 -0.1913 0.4991, -1.2391 -0.1812 0.5038, -1.24 -0.1825 0.5051, -1.2414 -0.1837 0.5061, -1.2431 -0.1846 0.5068, -1.245 -0.1851 0.5072, -1.2396 -0.1742 0.5091, -1.2406 -0.1752 0.5107, -1.2419 -0.176 0.512, -1.2437 -0.1766 0.5129, -1.2456 -0.177 0.5134, -1.2399 -0.1662 0.5124, -1.2409 -0.1667 0.5142, -1.2423 -0.1671 0.5157, -1.244 -0.1674 0.5167, -1.246 -0.1676 0.5173, -1.201 -0.191 0.0966, -1.2018 -0.1929 0.0965, -1.203 -0.1945 0.0964, -1.2046 -0.1958 0.0962, -1.2065 -0.1966 0.096, -1.1811 -0.191 0.0785, -1.186 -0.191 0.0791, -1.1811 -0.1929 0.0777, -1.1862 -0.1929 0.0783, -1.1811 -0.1945 0.0764, -1.1865 -0.1945 0.0771, -1.1811 -0.1958 0.0748, -1.1869 -0.1958 0.0755, -1.1811 -0.1966 0.0729, -1.1873 -0.1966 0.0737, -1.1905 -0.191 0.0808, -1.1909 -0.1929 0.0801, -1.1915 -0.1945 0.079, -1.1923 -0.1958 0.0776, -1.1932 -0.1966 0.0759, -1.1945 -0.191 0.0837, -1.1951 -0.1929 0.0831, -1.1959 -0.1945 0.0822, -1.197 -0.1958 0.081, -1.1983 -0.1966 0.0796, -1.1977 -0.191 0.0874, -1.1984 -0.1929 0.087, -1.1994 -0.1945 0.0863, -1.2008 -0.1958 0.0854, -1.2024 -0.1966 0.0843, -1.1999 -0.191 0.0918, -1.2007 -0.1929 0.0915, -1.2018 -0.1945 0.0911, -1.2034 -0.1958 0.0906, -1.2052 -0.1966 0.0899, -1.2733 0.1966 0.0898, -1.2684 0.1966 0.0676, -1.2752 0.1958 0.0896, -1.2702 0.1958 0.0669, -1.2768 0.1945 0.0895, -1.2717 0.1945 0.0664, -1.278 0.1929 0.0893, -1.2729 0.1929 0.066, -1.2788 0.191 0.0893, -1.2737 0.191 0.0657, -1.2582 0.1966 0.0472, -1.2598 0.1958 0.0462, -1.2612 0.1945 0.0453, -1.2622 0.1929 0.0446, -1.2629 0.191 0.0441, -1.2434 0.1966 0.03, -1.2447 0.1958 0.0286, -1.2458 0.1945 0.0274, -1.2467 0.1929 0.0264, -1.2472 0.191 0.0259, -1.2249 0.1966 0.0168, -1.2258 0.1958 0.0152, -1.2265 0.1945 0.0137, -1.2271 0.1929 0.0126, -1.2275 0.191 0.0119, -1.2037 0.1966 0.0086, -1.2041 0.1958 0.0068, -1.2045 0.1945 0.0052, -1.2048 0.1929 0.004, -1.205 0.191 0.0032, -1.1811 0.1966 0.0058, -1.3148 0.191 0.4729, -1.314 0.1929 0.473, -1.3128 0.1945 0.4731, -1.3111 0.1958 0.4732, -1.3092 0.1966 0.4734, -1.3156 0.1899 0.4815, -1.3149 0.1917 0.4821, -1.3137 0.1933 0.4826, -1.3121 0.1945 0.4831, -1.3102 0.1952 0.4835, -1.3163 0.1865 0.4896, -1.3157 0.1882 0.4906, -1.3145 0.1896 0.4915, -1.3129 0.1907 0.4923, -1.3111 0.1913 0.4929, -1.317 0.1812 0.4965, -1.3163 0.1825 0.4979, -1.3152 0.1837 0.4992, -1.3137 0.1846 0.5002, -1.3118 0.1851 0.5009, -1.3175 0.1742 0.5018, -1.3169 0.1752 0.5035, -1.3158 0.176 0.505, -1.3142 0.1766 0.5063, -1.3124 0.177 0.5071, -1.3178 0.1662 0.5052, -1.3172 0.1667 0.5071, -1.3161 0.1671 0.5087, -1.3146 0.1674 0.5101, -1.3128 0.1676 0.511, -1.3179 0.1575 0.5063, -1.3173 0.1575 0.5083, -1.3162 0.1575 0.51, -1.3147 0.1575 0.5114, -1.3129 0.1575 0.5124, -1.3129 -0.1575 0.5124, -1.3147 -0.1575 0.5114, -1.3162 -0.1575 0.51, -1.3173 -0.1575 0.5083, -1.3179 -0.1575 0.5063, -1.3178 -0.1662 0.5052, -1.3172 -0.1667 0.5071, -1.3161 -0.1671 0.5087, -1.3146 -0.1674 0.5101, -1.3128 -0.1676 0.511, -1.3175 -0.1742 0.5018, -1.3169 -0.1752 0.5035, -1.3158 -0.176 0.505, -1.3142 -0.1766 0.5063, -1.3124 -0.177 0.5071, -1.317 -0.1812 0.4965, -1.3163 -0.1825 0.4979, -1.3152 -0.1837 0.4992, -1.3137 -0.1846 0.5002, -1.3118 -0.1851 0.5009, -1.3163 -0.1865 0.4896, -1.3157 -0.1882 0.4906, -1.3145 -0.1896 0.4915, -1.3129 -0.1907 0.4923, -1.3111 -0.1913 0.4929, -1.3156 -0.1899 0.4815, -1.3149 -0.1917 0.4821, -1.3137 -0.1933 0.4826, -1.3121 -0.1945 0.4831, -1.3102 -0.1952 0.4835, -1.3148 -0.191 0.4729, -1.314 -0.1929 0.473, -1.3128 -0.1945 0.4731, -1.3111 -0.1958 0.4732, -1.3092 -0.1966 0.4734, -1.2733 -0.1966 0.0898, -1.2752 -0.1958 0.0896, -1.2768 -0.1945 0.0895, -1.278 -0.1929 0.0893, -1.2788 -0.191 0.0893, -1.1811 -0.1966 0.0058, -1.2037 -0.1966 0.0086, -1.2041 -0.1958 0.0068, -1.2045 -0.1945 0.0052, -1.2048 -0.1929 0.004, -1.205 -0.191 0.0032, -1.2249 -0.1966 0.0168, -1.2258 -0.1958 0.0152, -1.2265 -0.1945 0.0137, -1.2271 -0.1929 0.0126, -1.2275 -0.191 0.0119, -1.2434 -0.1966 0.03, -1.2447 -0.1958 0.0286, -1.2458 -0.1945 0.0274, -1.2467 -0.1929 0.0264, -1.2472 -0.191 0.0259, -1.2582 -0.1966 0.0472, -1.2598 -0.1958 0.0462, -1.2612 -0.1945 0.0453, -1.2622 -0.1929 0.0446, -1.2629 -0.191 0.0441, -1.2684 -0.1966 0.0676, -1.2702 -0.1958 0.0669, -1.2717 -0.1945 0.0664, -1.2729 -0.1929 0.066, -1.2737 -0.191 0.0657, 1.1811 0.1958 0.0039, 1.1811 0.189 0.0, 1.1811 -0.0487 0.0039, 1.1811 -0.189 0.0, 1.1811 -0.1958 0.0039, 1.1811 -0.191 0.0003, 1.1811 -0.1929 0.0011, 1.1811 -0.1945 0.0023, 1.1811 0.1945 0.0023, 1.1811 0.1929 0.0011, 1.1811 0.191 0.0003, 1.2482 -0.1575 0.5187, 1.3109 -0.1575 0.5128, 1.2482 0.1575 0.5187, 1.3109 0.1575 0.5128, 1.1811 0.189 0.0787, 1.1811 -0.189 0.0787, 1.1859 0.189 0.0793, 1.1859 -0.189 0.0793, 1.1904 0.189 0.0811, 1.1904 -0.189 0.0811, 1.1944 0.189 0.0839, 1.1944 -0.189 0.0839, 1.1975 0.189 0.0875, 1.1975 -0.189 0.0875, 1.1997 0.189 0.0919, 1.1997 -0.189 0.0919, 1.2007 0.189 0.0966, 1.2007 -0.189 0.0966, 1.1811 -0.1969 0.0709, 1.1811 -0.1969 0.0079, 1.1878 -0.1969 0.0717, 1.2032 -0.1969 0.0106, 1.1941 -0.1969 0.0741, 1.2239 -0.1969 0.0186, 1.1997 -0.1969 0.078, 1.2421 -0.1969 0.0315, 1.2041 -0.1969 0.0832, 1.2566 -0.1969 0.0484, 1.2071 -0.1969 0.0892, 1.2665 -0.1969 0.0683, 1.2085 -0.1969 0.0959, 1.2713 -0.1969 0.09, 1.2791 0.189 0.0892, 1.2791 -0.189 0.0892, 1.2739 -0.189 0.0656, 1.2739 0.189 0.0656, 1.2631 -0.189 0.044, 1.2631 0.189 0.044, 1.2474 -0.189 0.0257, 1.2474 0.189 0.0257, 1.2276 -0.189 0.0117, 1.2276 0.189 0.0117, 1.2051 -0.189 0.003, 1.2051 0.189 0.003, 1.2085 0.1969 0.0959, 1.2713 0.1969 0.09, 1.2071 0.1969 0.0892, 1.2665 0.1969 0.0683, 1.2041 0.1969 0.0832, 1.2566 0.1969 0.0484, 1.1997 0.1969 0.078, 1.2421 0.1969 0.0315, 1.1941 0.1969 0.0741, 1.2239 0.1969 0.0186, 1.1878 0.1969 0.0717, 1.2032 0.1969 0.0106, 1.1811 0.1969 0.0709, 1.1811 0.1969 0.0079, 1.2395 -0.1656 0.5105, 1.2396 -0.1575 0.5116, 1.2367 -0.189 0.4802, 1.2381 -0.1848 0.4959, 1.2387 -0.1798 0.5024, 1.2392 -0.1732 0.5074, 1.2396 0.1575 0.5116, 1.2374 -0.1879 0.4883, 1.2381 0.1848 0.4959, 1.2374 0.1879 0.4883, 1.2367 0.189 0.4802, 1.2395 0.1656 0.5105, 1.2392 0.1732 0.5074, 1.2387 0.1798 0.5024, 1.2445 -0.1969 0.4795, 1.3072 -0.1969 0.4736, 1.3179 0.1656 0.5032, 1.318 0.1575 0.5042, 1.3151 0.189 0.4729, 1.3151 -0.189 0.4729, 1.3165 0.1848 0.4886, 1.3171 0.1798 0.4951, 1.3176 0.1732 0.5, 1.318 -0.1575 0.5042, 1.3158 -0.1879 0.481, 1.3176 -0.1732 0.5, 1.3171 -0.1798 0.4951, 1.3165 -0.1848 0.4886, 1.3158 0.1879 0.481, 1.3179 -0.1656 0.5032, 1.2445 0.1969 0.4795, 1.3072 0.1969 0.4736, 1.3108 0.1677 0.5115, 1.248 0.1677 0.5174, 1.3104 0.1772 0.5076, 1.2477 0.1772 0.5134, 1.3098 0.1853 0.5013, 1.2471 0.1853 0.5072, 1.309 0.1916 0.4932, 1.2463 0.1916 0.4991, 1.3082 0.1955 0.4838, 1.2454 0.1955 0.4896, 1.248 -0.1677 0.5174, 1.3108 -0.1677 0.5115, 1.2477 -0.1772 0.5134, 1.3104 -0.1772 0.5076, 1.2471 -0.1853 0.5072, 1.3098 -0.1853 0.5013, 1.2463 -0.1916 0.4991, 1.309 -0.1916 0.4932, 1.2454 -0.1955 0.4896, 1.3082 -0.1955 0.4838, 1.1811 0.191 0.0785, 1.186 0.191 0.0791, 1.1811 0.1929 0.0777, 1.1862 0.1929 0.0783, 1.1811 0.1945 0.0764, 1.1865 0.1945 0.0771, 1.1811 0.1958 0.0748, 1.1869 0.1958 0.0755, 1.1811 0.1966 0.0729, 1.1873 0.1966 0.0737, 1.1905 0.191 0.0808, 1.1909 0.1929 0.0801, 1.1915 0.1945 0.079, 1.1923 0.1958 0.0776, 1.1932 0.1966 0.0759, 1.1945 0.191 0.0837, 1.1951 0.1929 0.0831, 1.1959 0.1945 0.0822, 1.197 0.1958 0.081, 1.1983 0.1966 0.0796, 1.1977 0.191 0.0874, 1.1984 0.1929 0.087, 1.1994 0.1945 0.0863, 1.2008 0.1958 0.0854, 1.2024 0.1966 0.0843, 1.1999 0.191 0.0918, 1.2007 0.1929 0.0915, 1.2018 0.1945 0.0911, 1.2034 0.1958 0.0906, 1.2052 0.1966 0.0899, 1.201 0.191 0.0966, 1.2018 0.1929 0.0965, 1.203 0.1945 0.0964, 1.2046 0.1958 0.0962, 1.2065 0.1966 0.096, 1.2369 0.191 0.4802, 1.2377 0.1929 0.4801, 1.239 0.1945 0.48, 1.2406 0.1958 0.4799, 1.2425 0.1966 0.4797, 1.2377 0.1899 0.4888, 1.2386 0.1917 0.4893, 1.2398 0.1933 0.4896, 1.2415 0.1945 0.4897, 1.2434 0.1952 0.4898, 1.2385 0.1865 0.4969, 1.2394 0.1882 0.4978, 1.2407 0.1896 0.4985, 1.2424 0.1907 0.4989, 1.2443 0.1913 0.4991, 1.2391 0.1812 0.5038, 1.24 0.1825 0.5051, 1.2414 0.1837 0.5061, 1.2431 0.1846 0.5068, 1.245 0.1851 0.5072, 1.2396 0.1742 0.5091, 1.2406 0.1752 0.5107, 1.2419 0.176 0.512, 1.2437 0.1766 0.5129, 1.2456 0.177 0.5134, 1.2399 0.1662 0.5124, 1.2409 0.1667 0.5142, 1.2423 0.1671 0.5157, 1.244 0.1674 0.5167, 1.246 0.1676 0.5173, 1.2401 0.1575 0.5136, 1.241 0.1575 0.5154, 1.2424 0.1575 0.5169, 1.2442 0.1575 0.518, 1.2461 0.1575 0.5186, 1.2461 -0.1575 0.5186, 1.2442 -0.1575 0.518, 1.2424 -0.1575 0.5169, 1.241 -0.1575 0.5154, 1.2401 -0.1575 0.5136, 1.2399 -0.1662 0.5124, 1.2409 -0.1667 0.5142, 1.2423 -0.1671 0.5157, 1.244 -0.1674 0.5167, 1.246 -0.1676 0.5173, 1.2396 -0.1742 0.5091, 1.2406 -0.1752 0.5107, 1.2419 -0.176 0.512, 1.2437 -0.1766 0.5129, 1.2456 -0.177 0.5134, 1.2391 -0.1812 0.5038, 1.24 -0.1825 0.5051, 1.2414 -0.1837 0.5061, 1.2431 -0.1846 0.5068, 1.245 -0.1851 0.5072, 1.2385 -0.1865 0.4969, 1.2394 -0.1882 0.4978, 1.2407 -0.1896 0.4985, 1.2424 -0.1907 0.4989, 1.2443 -0.1913 0.4991, 1.2377 -0.1899 0.4888, 1.2386 -0.1917 0.4893, 1.2398 -0.1933 0.4896, 1.2415 -0.1945 0.4897, 1.2434 -0.1952 0.4898, 1.2369 -0.191 0.4802, 1.2377 -0.1929 0.4801, 1.239 -0.1945 0.48, 1.2406 -0.1958 0.4799, 1.2425 -0.1966 0.4797, 1.2065 -0.1966 0.096, 1.2046 -0.1958 0.0962, 1.203 -0.1945 0.0964, 1.2018 -0.1929 0.0965, 1.201 -0.191 0.0966, 1.1999 -0.191 0.0918, 1.2007 -0.1929 0.0915, 1.2018 -0.1945 0.0911, 1.2034 -0.1958 0.0906, 1.2052 -0.1966 0.0899, 1.1977 -0.191 0.0874, 1.1984 -0.1929 0.087, 1.1994 -0.1945 0.0863, 1.2008 -0.1958 0.0854, 1.2024 -0.1966 0.0843, 1.1945 -0.191 0.0837, 1.1951 -0.1929 0.0831, 1.1959 -0.1945 0.0822, 1.197 -0.1958 0.081, 1.1983 -0.1966 0.0796, 1.1905 -0.191 0.0808, 1.1909 -0.1929 0.0801, 1.1915 -0.1945 0.079, 1.1923 -0.1958 0.0776, 1.1932 -0.1966 0.0759, 1.186 -0.191 0.0791, 1.1862 -0.1929 0.0783, 1.1865 -0.1945 0.0771, 1.1869 -0.1958 0.0755, 1.1873 -0.1966 0.0737, 1.1811 -0.191 0.0785, 1.1811 -0.1929 0.0777, 1.1811 -0.1945 0.0764, 1.1811 -0.1958 0.0748, 1.1811 -0.1966 0.0729, 1.1811 0.1966 0.0058, 1.2037 0.1966 0.0086, 1.2041 0.1958 0.0068, 1.2045 0.1945 0.0052, 1.2048 0.1929 0.004, 1.205 0.191 0.0032, 1.2249 0.1966 0.0168, 1.2258 0.1958 0.0152, 1.2265 0.1945 0.0137, 1.2271 0.1929 0.0126, 1.2275 0.191 0.0119, 1.2434 0.1966 0.03, 1.2447 0.1958 0.0286, 1.2458 0.1945 0.0274, 1.2467 0.1929 0.0264, 1.2472 0.191 0.0259, 1.2582 0.1966 0.0472, 1.2598 0.1958 0.0462, 1.2612 0.1945 0.0453, 1.2622 0.1929 0.0446, 1.2629 0.191 0.0441, 1.2684 0.1966 0.0676, 1.2702 0.1958 0.0669, 1.2717 0.1945 0.0664, 1.2729 0.1929 0.066, 1.2737 0.191 0.0657, 1.2733 0.1966 0.0898, 1.2752 0.1958 0.0896, 1.2768 0.1945 0.0895, 1.278 0.1929 0.0893, 1.2788 0.191 0.0893, 1.3092 0.1966 0.4734, 1.3111 0.1958 0.4732, 1.3128 0.1945 0.4731, 1.314 0.1929 0.473, 1.3148 0.191 0.4729, 1.3179 0.1575 0.5063, 1.3178 0.1662 0.5052, 1.3173 0.1575 0.5083, 1.3172 0.1667 0.5071, 1.3162 0.1575 0.51, 1.3161 0.1671 0.5087, 1.3147 0.1575 0.5114, 1.3146 0.1674 0.5101, 1.3129 0.1575 0.5124, 1.3128 0.1676 0.511, 1.3175 0.1742 0.5018, 1.3169 0.1752 0.5035, 1.3158 0.176 0.505, 1.3142 0.1766 0.5063, 1.3124 0.177 0.5071, 1.317 0.1812 0.4965, 1.3163 0.1825 0.4979, 1.3152 0.1837 0.4992, 1.3137 0.1846 0.5002, 1.3118 0.1851 0.5009, 1.3163 0.1865 0.4896, 1.3157 0.1882 0.4906, 1.3145 0.1896 0.4915, 1.3129 0.1907 0.4923, 1.3111 0.1913 0.4929, 1.3156 0.1899 0.4815, 1.3149 0.1917 0.4821, 1.3137 0.1933 0.4826, 1.3121 0.1945 0.4831, 1.3102 0.1952 0.4835, 1.3129 -0.1575 0.5124, 1.3147 -0.1575 0.5114, 1.3162 -0.1575 0.51, 1.3173 -0.1575 0.5083, 1.3179 -0.1575 0.5063, 1.3148 -0.191 0.4729, 1.3156 -0.1899 0.4815, 1.314 -0.1929 0.473, 1.3149 -0.1917 0.4821, 1.3128 -0.1945 0.4731, 1.3137 -0.1933 0.4826, 1.3111 -0.1958 0.4732, 1.3121 -0.1945 0.4831, 1.3092 -0.1966 0.4734, 1.3102 -0.1952 0.4835, 1.3163 -0.1865 0.4896, 1.3157 -0.1882 0.4906, 1.3145 -0.1896 0.4915, 1.3129 -0.1907 0.4923, 1.3111 -0.1913 0.4929, 1.317 -0.1812 0.4965, 1.3163 -0.1825 0.4979, 1.3152 -0.1837 0.4992, 1.3137 -0.1846 0.5002, 1.3118 -0.1851 0.5009, 1.3175 -0.1742 0.5018, 1.3169 -0.1752 0.5035, 1.3158 -0.176 0.505, 1.3142 -0.1766 0.5063, 1.3124 -0.177 0.5071, 1.3178 -0.1662 0.5052, 1.3172 -0.1667 0.5071, 1.3161 -0.1671 0.5087, 1.3146 -0.1674 0.5101, 1.3128 -0.1676 0.511, 1.2788 -0.191 0.0893, 1.278 -0.1929 0.0893, 1.2768 -0.1945 0.0895, 1.2752 -0.1958 0.0896, 1.2733 -0.1966 0.0898, 1.2684 -0.1966 0.0676, 1.2702 -0.1958 0.0669, 1.2717 -0.1945 0.0664, 1.2729 -0.1929 0.066, 1.2737 -0.191 0.0657, 1.2582 -0.1966 0.0472, 1.2598 -0.1958 0.0462, 1.2612 -0.1945 0.0453, 1.2622 -0.1929 0.0446, 1.2629 -0.191 0.0441, 1.2434 -0.1966 0.03, 1.2447 -0.1958 0.0286, 1.2458 -0.1945 0.0274, 1.2467 -0.1929 0.0264, 1.2472 -0.191 0.0259, 1.2249 -0.1966 0.0168, 1.2258 -0.1958 0.0152, 1.2265 -0.1945 0.0137, 1.2271 -0.1929 0.0126, 1.2275 -0.191 0.0119, 1.2037 -0.1966 0.0086, 1.2041 -0.1958 0.0068, 1.2045 -0.1945 0.0052, 1.2048 -0.1929 0.004, 1.205 -0.191 0.0032, 1.1811 -0.1966 0.0058
            ]
        }
        coordIndex [
            0,1,2,-1,2,1,3,-1,2,3,4,-1,5,6,0,-1,0,6,7,-1,0,7,1,-1,8,9,3,-1,3,9,10,-1,3,10,4,-1,11,12,13,-1,13,12,14,-1,15,16,17,-1,15,17,18,-1,18,17,19,-1,18,19,20,-1,20,19,21,-1,20,21,22,-1,22,21,23,-1,22,23,24,-1,24,23,25,-1,24,25,26,-1,26,25,3,-1,26,3,1,-1,27,28,29,-1,29,28,30,-1,29,30,31,-1,31,30,32,-1,31,32,33,-1,33,32,34,-1,33,34,35,-1,35,34,36,-1,35,36,37,-1,37,36,38,-1,37,38,39,-1,39,38,40,-1,41,42,43,-1,43,42,44,-1,43,44,45,-1,45,44,46,-1,45,46,47,-1,47,46,48,-1,47,48,49,-1,49,48,50,-1,49,50,51,-1,51,50,52,-1,51,52,53,-1,53,52,54,-1,55,56,57,-1,57,56,58,-1,57,58,59,-1,59,58,60,-1,59,60,61,-1,61,60,62,-1,61,62,63,-1,63,62,64,-1,63,64,65,-1,65,64,66,-1,65,66,67,-1,67,66,68,-1,16,15,69,-1,69,15,70,-1,71,70,72,-1,72,70,73,-1,72,73,74,-1,75,69,76,-1,76,69,70,-1,76,70,77,-1,77,70,71,-1,78,79,80,-1,75,81,69,-1,69,81,78,-1,69,78,82,-1,82,78,80,-1,83,84,27,-1,27,84,28,-1,85,53,86,-1,87,88,89,-1,86,53,89,-1,53,54,89,-1,89,54,90,-1,89,90,91,-1,91,92,89,-1,89,92,93,-1,89,93,87,-1,94,86,95,-1,95,86,96,-1,94,97,86,-1,86,97,98,-1,86,98,85,-1,67,68,99,-1,99,68,100,-1,12,11,101,-1,12,101,102,-1,102,101,103,-1,102,103,104,-1,104,103,105,-1,104,105,106,-1,106,105,107,-1,106,107,108,-1,108,107,109,-1,108,109,110,-1,110,109,99,-1,110,99,100,-1,13,14,111,-1,13,111,112,-1,112,111,113,-1,112,113,114,-1,114,113,115,-1,114,115,116,-1,116,115,117,-1,116,117,118,-1,118,117,119,-1,118,119,120,-1,120,119,84,-1,120,84,83,-1,54,52,121,-1,121,52,122,-1,121,122,123,-1,123,122,124,-1,123,124,125,-1,125,124,126,-1,125,126,127,-1,127,126,128,-1,127,128,129,-1,129,128,130,-1,129,130,67,-1,67,130,65,-1,52,50,122,-1,122,50,131,-1,122,131,124,-1,124,131,132,-1,124,132,126,-1,126,132,133,-1,126,133,128,-1,128,133,134,-1,128,134,130,-1,130,134,135,-1,130,135,65,-1,65,135,63,-1,50,48,131,-1,131,48,136,-1,131,136,132,-1,132,136,137,-1,132,137,133,-1,133,137,138,-1,133,138,134,-1,134,138,139,-1,134,139,135,-1,135,139,140,-1,135,140,63,-1,63,140,61,-1,48,46,136,-1,136,46,141,-1,136,141,137,-1,137,141,142,-1,137,142,138,-1,138,142,143,-1,138,143,139,-1,139,143,144,-1,139,144,140,-1,140,144,145,-1,140,145,61,-1,61,145,59,-1,46,44,141,-1,141,44,146,-1,141,146,142,-1,142,146,147,-1,142,147,143,-1,143,147,148,-1,143,148,144,-1,144,148,149,-1,144,149,145,-1,145,149,150,-1,145,150,59,-1,59,150,57,-1,44,42,146,-1,146,42,151,-1,146,151,147,-1,147,151,152,-1,147,152,148,-1,148,152,153,-1,148,153,149,-1,149,153,154,-1,149,154,150,-1,150,154,155,-1,150,155,57,-1,57,155,55,-1,67,99,156,-1,67,156,129,-1,129,156,157,-1,129,157,127,-1,127,157,158,-1,127,158,125,-1,125,158,159,-1,125,159,123,-1,123,159,160,-1,123,160,121,-1,121,160,90,-1,121,90,54,-1,89,88,161,-1,161,88,162,-1,161,162,163,-1,163,162,164,-1,163,164,165,-1,165,164,166,-1,165,166,167,-1,167,166,168,-1,167,168,169,-1,169,168,170,-1,169,170,11,-1,11,170,101,-1,88,87,162,-1,162,87,171,-1,162,171,164,-1,164,171,172,-1,164,172,166,-1,166,172,173,-1,166,173,168,-1,168,173,174,-1,168,174,170,-1,170,174,175,-1,170,175,101,-1,101,175,103,-1,87,93,171,-1,171,93,176,-1,171,176,172,-1,172,176,177,-1,172,177,173,-1,173,177,178,-1,173,178,174,-1,174,178,179,-1,174,179,175,-1,175,179,180,-1,175,180,103,-1,103,180,105,-1,93,92,176,-1,176,92,181,-1,176,181,177,-1,177,181,182,-1,177,182,178,-1,178,182,183,-1,178,183,179,-1,179,183,184,-1,179,184,180,-1,180,184,185,-1,180,185,105,-1,105,185,107,-1,92,91,181,-1,181,91,186,-1,181,186,182,-1,182,186,187,-1,182,187,183,-1,183,187,188,-1,183,188,184,-1,184,188,189,-1,184,189,185,-1,185,189,190,-1,185,190,107,-1,107,190,109,-1,91,90,186,-1,186,90,160,-1,186,160,187,-1,187,160,159,-1,187,159,188,-1,188,159,158,-1,188,158,189,-1,189,158,157,-1,189,157,190,-1,190,157,156,-1,190,156,109,-1,109,156,99,-1,11,13,191,-1,11,191,169,-1,169,191,192,-1,169,192,167,-1,167,192,193,-1,167,193,165,-1,165,193,194,-1,165,194,163,-1,163,194,195,-1,163,195,161,-1,161,195,86,-1,161,86,89,-1,85,98,196,-1,196,98,197,-1,196,197,198,-1,198,197,199,-1,198,199,200,-1,200,199,201,-1,200,201,202,-1,202,201,203,-1,202,203,204,-1,204,203,205,-1,204,205,83,-1,83,205,120,-1,98,97,197,-1,197,97,206,-1,197,206,199,-1,199,206,207,-1,199,207,201,-1,201,207,208,-1,201,208,203,-1,203,208,209,-1,203,209,205,-1,205,209,210,-1,205,210,120,-1,120,210,118,-1,97,94,206,-1,206,94,211,-1,206,211,207,-1,207,211,212,-1,207,212,208,-1,208,212,213,-1,208,213,209,-1,209,213,214,-1,209,214,210,-1,210,214,215,-1,210,215,118,-1,118,215,116,-1,94,95,211,-1,211,95,216,-1,211,216,212,-1,212,216,217,-1,212,217,213,-1,213,217,218,-1,213,218,214,-1,214,218,219,-1,214,219,215,-1,215,219,220,-1,215,220,116,-1,116,220,114,-1,95,96,216,-1,216,96,221,-1,216,221,217,-1,217,221,222,-1,217,222,218,-1,218,222,223,-1,218,223,219,-1,219,223,224,-1,219,224,220,-1,220,224,225,-1,220,225,114,-1,114,225,112,-1,96,86,221,-1,221,86,195,-1,221,195,222,-1,222,195,194,-1,222,194,223,-1,223,194,193,-1,223,193,224,-1,224,193,192,-1,224,192,225,-1,225,192,191,-1,225,191,112,-1,112,191,13,-1,53,85,196,-1,53,196,226,-1,226,196,198,-1,226,198,227,-1,227,198,200,-1,227,200,228,-1,228,200,202,-1,228,202,229,-1,229,202,204,-1,229,204,230,-1,230,204,83,-1,230,83,27,-1,41,43,231,-1,231,43,232,-1,231,232,233,-1,233,232,234,-1,233,234,235,-1,235,234,236,-1,235,236,237,-1,237,236,238,-1,237,238,239,-1,239,238,240,-1,239,240,39,-1,39,240,37,-1,43,45,232,-1,232,45,241,-1,232,241,234,-1,234,241,242,-1,234,242,236,-1,236,242,243,-1,236,243,238,-1,238,243,244,-1,238,244,240,-1,240,244,245,-1,240,245,37,-1,37,245,35,-1,45,47,241,-1,241,47,246,-1,241,246,242,-1,242,246,247,-1,242,247,243,-1,243,247,248,-1,243,248,244,-1,244,248,249,-1,244,249,245,-1,245,249,250,-1,245,250,35,-1,35,250,33,-1,47,49,246,-1,246,49,251,-1,246,251,247,-1,247,251,252,-1,247,252,248,-1,248,252,253,-1,248,253,249,-1,249,253,254,-1,249,254,250,-1,250,254,255,-1,250,255,33,-1,33,255,31,-1,49,51,251,-1,251,51,256,-1,251,256,252,-1,252,256,257,-1,252,257,253,-1,253,257,258,-1,253,258,254,-1,254,258,259,-1,254,259,255,-1,255,259,260,-1,255,260,31,-1,31,260,29,-1,51,53,256,-1,256,53,226,-1,256,226,257,-1,257,226,227,-1,257,227,258,-1,258,227,228,-1,258,228,259,-1,259,228,229,-1,259,229,260,-1,260,229,230,-1,260,230,29,-1,29,230,27,-1,68,66,261,-1,261,66,262,-1,261,262,263,-1,263,262,264,-1,263,264,265,-1,265,264,266,-1,265,266,267,-1,267,266,268,-1,267,268,269,-1,269,268,270,-1,269,270,16,-1,16,270,17,-1,66,64,262,-1,262,64,271,-1,262,271,264,-1,264,271,272,-1,264,272,266,-1,266,272,273,-1,266,273,268,-1,268,273,274,-1,268,274,270,-1,270,274,275,-1,270,275,17,-1,17,275,19,-1,64,62,271,-1,271,62,276,-1,271,276,272,-1,272,276,277,-1,272,277,273,-1,273,277,278,-1,273,278,274,-1,274,278,279,-1,274,279,275,-1,275,279,280,-1,275,280,19,-1,19,280,21,-1,62,60,276,-1,276,60,281,-1,276,281,277,-1,277,281,282,-1,277,282,278,-1,278,282,283,-1,278,283,279,-1,279,283,284,-1,279,284,280,-1,280,284,285,-1,280,285,21,-1,21,285,23,-1,60,58,281,-1,281,58,286,-1,281,286,282,-1,282,286,287,-1,282,287,283,-1,283,287,288,-1,283,288,284,-1,284,288,289,-1,284,289,285,-1,285,289,290,-1,285,290,23,-1,23,290,25,-1,58,56,286,-1,286,56,291,-1,286,291,287,-1,287,291,4,-1,287,4,288,-1,288,4,10,-1,288,10,289,-1,289,10,9,-1,289,9,290,-1,290,9,8,-1,290,8,25,-1,25,8,3,-1,16,69,292,-1,16,292,269,-1,269,292,293,-1,269,293,267,-1,267,293,294,-1,267,294,265,-1,265,294,295,-1,265,295,263,-1,263,295,296,-1,263,296,261,-1,261,296,100,-1,261,100,68,-1,69,82,292,-1,292,82,297,-1,292,297,293,-1,293,297,298,-1,293,298,294,-1,294,298,299,-1,294,299,295,-1,295,299,300,-1,295,300,296,-1,296,300,301,-1,296,301,100,-1,100,301,110,-1,82,80,297,-1,297,80,302,-1,297,302,298,-1,298,302,303,-1,298,303,299,-1,299,303,304,-1,299,304,300,-1,300,304,305,-1,300,305,301,-1,301,305,306,-1,301,306,110,-1,110,306,108,-1,80,79,302,-1,302,79,307,-1,302,307,303,-1,303,307,308,-1,303,308,304,-1,304,308,309,-1,304,309,305,-1,305,309,310,-1,305,310,306,-1,306,310,311,-1,306,311,108,-1,108,311,106,-1,79,78,307,-1,307,78,312,-1,307,312,308,-1,308,312,313,-1,308,313,309,-1,309,313,314,-1,309,314,310,-1,310,314,315,-1,310,315,311,-1,311,315,316,-1,311,316,106,-1,106,316,104,-1,78,81,312,-1,312,81,317,-1,312,317,313,-1,313,317,318,-1,313,318,314,-1,314,318,319,-1,314,319,315,-1,315,319,320,-1,315,320,316,-1,316,320,321,-1,316,321,104,-1,104,321,102,-1,81,75,317,-1,317,75,322,-1,317,322,318,-1,318,322,323,-1,318,323,319,-1,319,323,324,-1,319,324,320,-1,320,324,325,-1,320,325,321,-1,321,325,326,-1,321,326,102,-1,102,326,12,-1,14,12,326,-1,14,326,327,-1,327,326,325,-1,327,325,328,-1,328,325,324,-1,328,324,329,-1,329,324,323,-1,329,323,330,-1,330,323,322,-1,330,322,331,-1,331,322,75,-1,331,75,76,-1,76,77,331,-1,331,77,332,-1,331,332,330,-1,330,332,333,-1,330,333,329,-1,329,333,334,-1,329,334,328,-1,328,334,335,-1,328,335,327,-1,327,335,336,-1,327,336,14,-1,14,336,111,-1,77,71,332,-1,332,71,337,-1,332,337,333,-1,333,337,338,-1,333,338,334,-1,334,338,339,-1,334,339,335,-1,335,339,340,-1,335,340,336,-1,336,340,341,-1,336,341,111,-1,111,341,113,-1,71,72,337,-1,337,72,342,-1,337,342,338,-1,338,342,343,-1,338,343,339,-1,339,343,344,-1,339,344,340,-1,340,344,345,-1,340,345,341,-1,341,345,346,-1,341,346,113,-1,113,346,115,-1,72,74,342,-1,342,74,347,-1,342,347,343,-1,343,347,348,-1,343,348,344,-1,344,348,349,-1,344,349,345,-1,345,349,350,-1,345,350,346,-1,346,350,351,-1,346,351,115,-1,115,351,117,-1,74,73,347,-1,347,73,352,-1,347,352,348,-1,348,352,353,-1,348,353,349,-1,349,353,354,-1,349,354,350,-1,350,354,355,-1,350,355,351,-1,351,355,356,-1,351,356,117,-1,117,356,119,-1,73,70,352,-1,352,70,357,-1,352,357,353,-1,353,357,358,-1,353,358,354,-1,354,358,359,-1,354,359,355,-1,355,359,360,-1,355,360,356,-1,356,360,361,-1,356,361,119,-1,119,361,84,-1,28,84,361,-1,28,361,362,-1,362,361,360,-1,362,360,363,-1,363,360,359,-1,363,359,364,-1,364,359,358,-1,364,358,365,-1,365,358,357,-1,365,357,366,-1,366,357,70,-1,366,70,15,-1,40,38,367,-1,367,38,368,-1,367,368,0,-1,0,368,369,-1,0,369,5,-1,5,369,370,-1,5,370,6,-1,6,370,371,-1,6,371,7,-1,7,371,372,-1,7,372,1,-1,1,372,26,-1,38,36,368,-1,368,36,373,-1,368,373,369,-1,369,373,374,-1,369,374,370,-1,370,374,375,-1,370,375,371,-1,371,375,376,-1,371,376,372,-1,372,376,377,-1,372,377,26,-1,26,377,24,-1,36,34,373,-1,373,34,378,-1,373,378,374,-1,374,378,379,-1,374,379,375,-1,375,379,380,-1,375,380,376,-1,376,380,381,-1,376,381,377,-1,377,381,382,-1,377,382,24,-1,24,382,22,-1,34,32,378,-1,378,32,383,-1,378,383,379,-1,379,383,384,-1,379,384,380,-1,380,384,385,-1,380,385,381,-1,381,385,386,-1,381,386,382,-1,382,386,387,-1,382,387,22,-1,22,387,20,-1,32,30,383,-1,383,30,388,-1,383,388,384,-1,384,388,389,-1,384,389,385,-1,385,389,390,-1,385,390,386,-1,386,390,391,-1,386,391,387,-1,387,391,392,-1,387,392,20,-1,20,392,18,-1,30,28,388,-1,388,28,362,-1,388,362,389,-1,389,362,363,-1,389,363,390,-1,390,363,364,-1,390,364,391,-1,391,364,365,-1,391,365,392,-1,392,365,366,-1,392,366,18,-1,18,366,15,-1,393,394,395,-1,395,394,396,-1,395,396,397,-1,398,399,396,-1,396,399,400,-1,396,400,397,-1,401,402,393,-1,393,402,403,-1,393,403,394,-1,404,405,406,-1,406,405,407,-1,408,409,410,-1,410,409,411,-1,410,411,412,-1,412,411,413,-1,412,413,414,-1,414,413,415,-1,414,415,416,-1,416,415,417,-1,416,417,418,-1,418,417,419,-1,418,419,420,-1,420,419,421,-1,422,423,424,-1,424,423,425,-1,424,425,426,-1,426,425,427,-1,426,427,428,-1,428,427,429,-1,428,429,430,-1,430,429,431,-1,430,431,432,-1,432,431,433,-1,432,433,434,-1,434,433,435,-1,436,437,438,-1,436,438,439,-1,439,438,440,-1,439,440,441,-1,441,440,442,-1,441,442,443,-1,443,442,444,-1,443,444,445,-1,445,444,446,-1,445,446,447,-1,447,446,396,-1,447,396,394,-1,448,449,450,-1,450,449,451,-1,450,451,452,-1,452,451,453,-1,452,453,454,-1,454,453,455,-1,454,455,456,-1,456,455,457,-1,456,457,458,-1,458,457,459,-1,458,459,460,-1,460,459,461,-1,462,463,464,-1,465,466,467,-1,468,420,463,-1,463,420,421,-1,463,421,464,-1,462,464,467,-1,467,464,469,-1,467,469,465,-1,470,471,468,-1,468,471,472,-1,468,472,420,-1,473,474,468,-1,468,474,475,-1,468,475,470,-1,434,435,476,-1,476,435,477,-1,478,479,480,-1,437,436,481,-1,481,436,480,-1,482,483,484,-1,480,479,481,-1,481,479,485,-1,481,485,486,-1,487,488,489,-1,478,480,484,-1,484,480,490,-1,484,490,482,-1,486,485,489,-1,489,485,491,-1,489,491,487,-1,492,493,448,-1,448,493,449,-1,406,407,494,-1,406,494,495,-1,495,494,496,-1,495,496,497,-1,497,496,498,-1,497,498,499,-1,499,498,500,-1,499,500,501,-1,501,500,502,-1,501,502,503,-1,503,502,493,-1,503,493,492,-1,405,404,504,-1,405,504,505,-1,505,504,506,-1,505,506,507,-1,507,506,508,-1,507,508,509,-1,509,508,510,-1,509,510,511,-1,511,510,512,-1,511,512,513,-1,513,512,476,-1,513,476,477,-1,408,410,514,-1,514,410,515,-1,514,515,516,-1,516,515,517,-1,516,517,518,-1,518,517,519,-1,518,519,520,-1,520,519,521,-1,520,521,522,-1,522,521,523,-1,522,523,460,-1,460,523,458,-1,410,412,515,-1,515,412,524,-1,515,524,517,-1,517,524,525,-1,517,525,519,-1,519,525,526,-1,519,526,521,-1,521,526,527,-1,521,527,523,-1,523,527,528,-1,523,528,458,-1,458,528,456,-1,412,414,524,-1,524,414,529,-1,524,529,525,-1,525,529,530,-1,525,530,526,-1,526,530,531,-1,526,531,527,-1,527,531,532,-1,527,532,528,-1,528,532,533,-1,528,533,456,-1,456,533,454,-1,414,416,529,-1,529,416,534,-1,529,534,530,-1,530,534,535,-1,530,535,531,-1,531,535,536,-1,531,536,532,-1,532,536,537,-1,532,537,533,-1,533,537,538,-1,533,538,454,-1,454,538,452,-1,416,418,534,-1,534,418,539,-1,534,539,535,-1,535,539,540,-1,535,540,536,-1,536,540,541,-1,536,541,537,-1,537,541,542,-1,537,542,538,-1,538,542,543,-1,538,543,452,-1,452,543,450,-1,418,420,539,-1,539,420,544,-1,539,544,540,-1,540,544,545,-1,540,545,541,-1,541,545,546,-1,541,546,542,-1,542,546,547,-1,542,547,543,-1,543,547,548,-1,543,548,450,-1,450,548,448,-1,420,472,549,-1,420,549,544,-1,544,549,550,-1,544,550,545,-1,545,550,551,-1,545,551,546,-1,546,551,552,-1,546,552,547,-1,547,552,553,-1,547,553,548,-1,548,553,492,-1,548,492,448,-1,472,471,549,-1,549,471,554,-1,549,554,550,-1,550,554,555,-1,550,555,551,-1,551,555,556,-1,551,556,552,-1,552,556,557,-1,552,557,553,-1,553,557,558,-1,553,558,492,-1,492,558,503,-1,471,470,554,-1,554,470,559,-1,554,559,555,-1,555,559,560,-1,555,560,556,-1,556,560,561,-1,556,561,557,-1,557,561,562,-1,557,562,558,-1,558,562,563,-1,558,563,503,-1,503,563,501,-1,470,475,559,-1,559,475,564,-1,559,564,560,-1,560,564,565,-1,560,565,561,-1,561,565,566,-1,561,566,562,-1,562,566,567,-1,562,567,563,-1,563,567,568,-1,563,568,501,-1,501,568,499,-1,475,474,564,-1,564,474,569,-1,564,569,565,-1,565,569,570,-1,565,570,566,-1,566,570,571,-1,566,571,567,-1,567,571,572,-1,567,572,568,-1,568,572,573,-1,568,573,499,-1,499,573,497,-1,474,473,569,-1,569,473,574,-1,569,574,570,-1,570,574,575,-1,570,575,571,-1,571,575,576,-1,571,576,572,-1,572,576,577,-1,572,577,573,-1,573,577,578,-1,573,578,497,-1,497,578,495,-1,473,468,574,-1,574,468,579,-1,574,579,575,-1,575,579,580,-1,575,580,576,-1,576,580,581,-1,576,581,577,-1,577,581,582,-1,577,582,578,-1,578,582,583,-1,578,583,495,-1,495,583,406,-1,404,406,583,-1,404,583,584,-1,584,583,582,-1,584,582,585,-1,585,582,581,-1,585,581,586,-1,586,581,580,-1,586,580,587,-1,587,580,579,-1,587,579,588,-1,588,579,468,-1,588,468,463,-1,463,462,588,-1,588,462,589,-1,588,589,587,-1,587,589,590,-1,587,590,586,-1,586,590,591,-1,586,591,585,-1,585,591,592,-1,585,592,584,-1,584,592,593,-1,584,593,404,-1,404,593,504,-1,462,467,589,-1,589,467,594,-1,589,594,590,-1,590,594,595,-1,590,595,591,-1,591,595,596,-1,591,596,592,-1,592,596,597,-1,592,597,593,-1,593,597,598,-1,593,598,504,-1,504,598,506,-1,467,466,594,-1,594,466,599,-1,594,599,595,-1,595,599,600,-1,595,600,596,-1,596,600,601,-1,596,601,597,-1,597,601,602,-1,597,602,598,-1,598,602,603,-1,598,603,506,-1,506,603,508,-1,466,465,599,-1,599,465,604,-1,599,604,600,-1,600,604,605,-1,600,605,601,-1,601,605,606,-1,601,606,602,-1,602,606,607,-1,602,607,603,-1,603,607,608,-1,603,608,508,-1,508,608,510,-1,465,469,604,-1,604,469,609,-1,604,609,605,-1,605,609,610,-1,605,610,606,-1,606,610,611,-1,606,611,607,-1,607,611,612,-1,607,612,608,-1,608,612,613,-1,608,613,510,-1,510,613,512,-1,469,464,609,-1,609,464,614,-1,609,614,610,-1,610,614,615,-1,610,615,611,-1,611,615,616,-1,611,616,612,-1,612,616,617,-1,612,617,613,-1,613,617,618,-1,613,618,512,-1,512,618,476,-1,434,476,618,-1,434,618,619,-1,619,618,617,-1,619,617,620,-1,620,617,616,-1,620,616,621,-1,621,616,615,-1,621,615,622,-1,622,615,614,-1,622,614,623,-1,623,614,464,-1,623,464,421,-1,421,419,623,-1,623,419,624,-1,623,624,622,-1,622,624,625,-1,622,625,621,-1,621,625,626,-1,621,626,620,-1,620,626,627,-1,620,627,619,-1,619,627,628,-1,619,628,434,-1,434,628,432,-1,419,417,624,-1,624,417,629,-1,624,629,625,-1,625,629,630,-1,625,630,626,-1,626,630,631,-1,626,631,627,-1,627,631,632,-1,627,632,628,-1,628,632,633,-1,628,633,432,-1,432,633,430,-1,417,415,629,-1,629,415,634,-1,629,634,630,-1,630,634,635,-1,630,635,631,-1,631,635,636,-1,631,636,632,-1,632,636,637,-1,632,637,633,-1,633,637,638,-1,633,638,430,-1,430,638,428,-1,415,413,634,-1,634,413,639,-1,634,639,635,-1,635,639,640,-1,635,640,636,-1,636,640,641,-1,636,641,637,-1,637,641,642,-1,637,642,638,-1,638,642,643,-1,638,643,428,-1,428,643,426,-1,413,411,639,-1,639,411,644,-1,639,644,640,-1,640,644,645,-1,640,645,641,-1,641,645,646,-1,641,646,642,-1,642,646,647,-1,642,647,643,-1,643,647,648,-1,643,648,426,-1,426,648,424,-1,411,409,644,-1,644,409,649,-1,644,649,645,-1,645,649,650,-1,645,650,646,-1,646,650,651,-1,646,651,647,-1,647,651,652,-1,647,652,648,-1,648,652,653,-1,648,653,424,-1,424,653,422,-1,461,459,654,-1,654,459,655,-1,654,655,393,-1,393,655,656,-1,393,656,401,-1,401,656,657,-1,401,657,402,-1,402,657,658,-1,402,658,403,-1,403,658,659,-1,403,659,394,-1,394,659,447,-1,459,457,655,-1,655,457,660,-1,655,660,656,-1,656,660,661,-1,656,661,657,-1,657,661,662,-1,657,662,658,-1,658,662,663,-1,658,663,659,-1,659,663,664,-1,659,664,447,-1,447,664,445,-1,457,455,660,-1,660,455,665,-1,660,665,661,-1,661,665,666,-1,661,666,662,-1,662,666,667,-1,662,667,663,-1,663,667,668,-1,663,668,664,-1,664,668,669,-1,664,669,445,-1,445,669,443,-1,455,453,665,-1,665,453,670,-1,665,670,666,-1,666,670,671,-1,666,671,667,-1,667,671,672,-1,667,672,668,-1,668,672,673,-1,668,673,669,-1,669,673,674,-1,669,674,443,-1,443,674,441,-1,453,451,670,-1,670,451,675,-1,670,675,671,-1,671,675,676,-1,671,676,672,-1,672,676,677,-1,672,677,673,-1,673,677,678,-1,673,678,674,-1,674,678,679,-1,674,679,441,-1,441,679,439,-1,451,449,675,-1,675,449,680,-1,675,680,676,-1,676,680,681,-1,676,681,677,-1,677,681,682,-1,677,682,678,-1,678,682,683,-1,678,683,679,-1,679,683,684,-1,679,684,439,-1,439,684,436,-1,449,493,685,-1,449,685,680,-1,680,685,686,-1,680,686,681,-1,681,686,687,-1,681,687,682,-1,682,687,688,-1,682,688,683,-1,683,688,689,-1,683,689,684,-1,684,689,480,-1,684,480,436,-1,479,478,690,-1,690,478,691,-1,690,691,692,-1,692,691,693,-1,692,693,694,-1,694,693,695,-1,694,695,696,-1,696,695,697,-1,696,697,698,-1,698,697,699,-1,698,699,407,-1,407,699,494,-1,478,484,691,-1,691,484,700,-1,691,700,693,-1,693,700,701,-1,693,701,695,-1,695,701,702,-1,695,702,697,-1,697,702,703,-1,697,703,699,-1,699,703,704,-1,699,704,494,-1,494,704,496,-1,484,483,700,-1,700,483,705,-1,700,705,701,-1,701,705,706,-1,701,706,702,-1,702,706,707,-1,702,707,703,-1,703,707,708,-1,703,708,704,-1,704,708,709,-1,704,709,496,-1,496,709,498,-1,483,482,705,-1,705,482,710,-1,705,710,706,-1,706,710,711,-1,706,711,707,-1,707,711,712,-1,707,712,708,-1,708,712,713,-1,708,713,709,-1,709,713,714,-1,709,714,498,-1,498,714,500,-1,482,490,710,-1,710,490,715,-1,710,715,711,-1,711,715,716,-1,711,716,712,-1,712,716,717,-1,712,717,713,-1,713,717,718,-1,713,718,714,-1,714,718,719,-1,714,719,500,-1,500,719,502,-1,490,480,715,-1,715,480,689,-1,715,689,716,-1,716,689,688,-1,716,688,717,-1,717,688,687,-1,717,687,718,-1,718,687,686,-1,718,686,719,-1,719,686,685,-1,719,685,502,-1,502,685,493,-1,407,405,720,-1,407,720,698,-1,698,720,721,-1,698,721,696,-1,696,721,722,-1,696,722,694,-1,694,722,723,-1,694,723,692,-1,692,723,724,-1,692,724,690,-1,690,724,485,-1,690,485,479,-1,481,486,725,-1,725,486,726,-1,725,726,727,-1,727,726,728,-1,727,728,729,-1,729,728,730,-1,729,730,731,-1,731,730,732,-1,731,732,733,-1,733,732,734,-1,733,734,477,-1,477,734,513,-1,486,489,726,-1,726,489,735,-1,726,735,728,-1,728,735,736,-1,728,736,730,-1,730,736,737,-1,730,737,732,-1,732,737,738,-1,732,738,734,-1,734,738,739,-1,734,739,513,-1,513,739,511,-1,489,488,735,-1,735,488,740,-1,735,740,736,-1,736,740,741,-1,736,741,737,-1,737,741,742,-1,737,742,738,-1,738,742,743,-1,738,743,739,-1,739,743,744,-1,739,744,511,-1,511,744,509,-1,488,487,740,-1,740,487,745,-1,740,745,741,-1,741,745,746,-1,741,746,742,-1,742,746,747,-1,742,747,743,-1,743,747,748,-1,743,748,744,-1,744,748,749,-1,744,749,509,-1,509,749,507,-1,487,491,745,-1,745,491,750,-1,745,750,746,-1,746,750,751,-1,746,751,747,-1,747,751,752,-1,747,752,748,-1,748,752,753,-1,748,753,749,-1,749,753,754,-1,749,754,507,-1,507,754,505,-1,491,485,750,-1,750,485,724,-1,750,724,751,-1,751,724,723,-1,751,723,752,-1,752,723,722,-1,752,722,753,-1,753,722,721,-1,753,721,754,-1,754,721,720,-1,754,720,505,-1,505,720,405,-1,437,481,725,-1,437,725,755,-1,755,725,727,-1,755,727,756,-1,756,727,729,-1,756,729,757,-1,757,729,731,-1,757,731,758,-1,758,731,733,-1,758,733,759,-1,759,733,477,-1,759,477,435,-1,435,433,759,-1,759,433,760,-1,759,760,758,-1,758,760,761,-1,758,761,757,-1,757,761,762,-1,757,762,756,-1,756,762,763,-1,756,763,755,-1,755,763,764,-1,755,764,437,-1,437,764,438,-1,433,431,760,-1,760,431,765,-1,760,765,761,-1,761,765,766,-1,761,766,762,-1,762,766,767,-1,762,767,763,-1,763,767,768,-1,763,768,764,-1,764,768,769,-1,764,769,438,-1,438,769,440,-1,431,429,765,-1,765,429,770,-1,765,770,766,-1,766,770,771,-1,766,771,767,-1,767,771,772,-1,767,772,768,-1,768,772,773,-1,768,773,769,-1,769,773,774,-1,769,774,440,-1,440,774,442,-1,429,427,770,-1,770,427,775,-1,770,775,771,-1,771,775,776,-1,771,776,772,-1,772,776,777,-1,772,777,773,-1,773,777,778,-1,773,778,774,-1,774,778,779,-1,774,779,442,-1,442,779,444,-1,427,425,775,-1,775,425,780,-1,775,780,776,-1,776,780,781,-1,776,781,777,-1,777,781,782,-1,777,782,778,-1,778,782,783,-1,778,783,779,-1,779,783,784,-1,779,784,444,-1,444,784,446,-1,425,423,780,-1,780,423,785,-1,780,785,781,-1,781,785,397,-1,781,397,782,-1,782,397,400,-1,782,400,783,-1,783,400,399,-1,783,399,784,-1,784,399,398,-1,784,398,446,-1,446,398,396,-1,
        ]
    }
}
Shape{
    appearance Appearance {
        material  Material 	{
            diffuseColor 1.0 1.0 1.0
            specularColor 0.8784313725490196 0.8784313725490196 0.8784313725490196
            ambientIntensity 1.0
            transparency 0.0
            shininess 0.5
        }
    }
    geometry IndexedFaceSet {
        ccw TRUE
        solid FALSE
        coord DEF co Coordinate {
            point [
                0.3087 -0.0476 0.0079, 0.3778 0.1296 0.0079, 0.3087 -0.0476 0.0039, 0.3778 0.1296 0.0039, 0.3519 0.1296 0.0079, 0.3519 0.1296 0.0039, 0.3339 0.0799 0.0079, 0.3339 0.0799 0.0039, 0.2608 0.0799 0.0079, 0.2608 0.0799 0.0039, 0.2438 0.1296 0.0079, 0.2438 0.1296 0.0039, 0.2179 0.1296 0.0079, 0.2179 0.1296 0.0039, 0.2849 -0.0476 0.0079, 0.2849 -0.0476 0.0039, 0.2667 0.0604 0.0079, 0.326 0.0604 0.0079, 0.2932 -0.0136 0.0079, 0.2948 -0.0197 0.0079, 0.296 -0.026 0.0079, 0.2966 -0.026 0.0079, 0.2977 -0.0197 0.0079, 0.2993 -0.0136 0.0079, 0.2667 0.0604 0.0039, 0.326 0.0604 0.0039, 0.2932 -0.0136 0.0039, 0.2948 -0.0197 0.0039, 0.296 -0.026 0.0039, 0.2966 -0.026 0.0039, 0.2977 -0.0197 0.0039, 0.2993 -0.0136 0.0039, 0.1105 0.1296 0.0079, 0.0624 0.1296 0.0079, 0.1105 0.1296 0.0039, 0.0624 0.1296 0.0039, 0.0624 -0.0476 0.0079, 0.0624 -0.0476 0.0039, 0.1124 -0.0476 0.0079, 0.1124 -0.0476 0.0039, 0.205 0.0388 0.0079, 0.205 0.0388 0.0039, 0.2046 0.03 0.0039, 0.2046 0.03 0.0079, 0.2012 0.0113 0.0039, 0.2012 0.0113 0.0079, 0.1937 -0.0059 0.0039, 0.1937 -0.0059 0.0079, 0.1831 -0.0198 0.0039, 0.1831 -0.0198 0.0079, 0.1762 -0.0261 0.0039, 0.1762 -0.0261 0.0079, 0.1587 -0.0376 0.0039, 0.1587 -0.0376 0.0079, 0.1379 -0.0448 0.0039, 0.1379 -0.0448 0.0079, 0.133 0.1276 0.0039, 0.133 0.1276 0.0079, 0.1534 0.1214 0.0039, 0.1534 0.1214 0.0079, 0.1717 0.1106 0.0039, 0.1717 0.1106 0.0079, 0.1862 0.0966 0.0039, 0.1862 0.0966 0.0079, 0.1961 0.0809 0.0039, 0.1961 0.0809 0.0079, 0.2025 0.0625 0.0039, 0.2025 0.0625 0.0079, 0.1812 0.0393 0.0079, 0.1797 0.0216 0.0079, 0.1755 0.0076 0.0079, 0.1695 -0.0032 0.0079, 0.1609 -0.0124 0.0079, 0.148 -0.0207 0.0079, 0.1333 -0.0259 0.0079, 0.1122 -0.0281 0.0079, 0.0861 -0.0281 0.0079, 0.0861 0.1101 0.0079, 0.1113 0.1101 0.0079, 0.13 0.1084 0.0079, 0.1449 0.1037 0.0079, 0.1569 0.0966 0.0079, 0.1669 0.0868 0.0079, 0.1743 0.0747 0.0079, 0.179 0.0606 0.0079, 0.1122 -0.0281 0.0039, 0.0861 -0.0281 0.0039, 0.1333 -0.0259 0.0039, 0.148 -0.0207 0.0039, 0.1609 -0.0124 0.0039, 0.1695 -0.0032 0.0039, 0.1755 0.0076 0.0039, 0.1797 0.0216 0.0039, 0.1812 0.0393 0.0039, 0.179 0.0606 0.0039, 0.1743 0.0747 0.0039, 0.1669 0.0868 0.0039, 0.1569 0.0966 0.0039, 0.1449 0.1037 0.0039, 0.13 0.1084 0.0039, 0.1113 0.1101 0.0039, 0.0861 0.1101 0.0039, 0.0278 0.1101 0.0079, 0.0278 0.1296 0.0079, 0.0278 0.1101 0.0039, 0.0278 0.1296 0.0039, -0.0673 0.1296 0.0079, -0.0673 0.1296 0.0039, -0.0673 -0.0476 0.0079, -0.0673 -0.0476 0.0039, 0.0235 -0.0476 0.0079, 0.0235 -0.0476 0.0039, 0.0235 -0.0281 0.0079, 0.0235 -0.0281 0.0039, -0.0435 -0.0281 0.0079, -0.0435 -0.0281 0.0039, -0.0435 0.0302 0.0079, -0.0435 0.0302 0.0039
            ]
        }
        coordIndex [
            0,1,2,-1,2,1,3,-1,1,4,3,-1,3,4,5,-1,4,6,5,-1,5,6,7,-1,6,8,7,-1,7,8,9,-1,8,10,9,-1,9,10,11,-1,10,12,11,-1,11,12,13,-1,12,14,13,-1,13,14,15,-1,14,0,15,-1,15,0,2,-1,16,8,17,-1,17,8,6,-1,18,14,16,-1,16,14,12,-1,16,12,8,-1,8,12,10,-1,18,19,14,-1,14,19,20,-1,14,20,0,-1,0,20,21,-1,0,21,22,-1,22,23,0,-1,0,23,17,-1,0,17,1,-1,1,17,6,-1,1,6,4,-1,16,17,24,-1,24,17,25,-1,18,16,26,-1,26,16,24,-1,18,26,27,-1,18,27,19,-1,19,27,28,-1,19,28,20,-1,21,20,29,-1,29,20,28,-1,21,29,30,-1,21,30,22,-1,22,30,31,-1,22,31,23,-1,17,23,25,-1,25,23,31,-1,32,33,34,-1,34,33,35,-1,33,36,35,-1,35,36,37,-1,36,38,37,-1,37,38,39,-1,40,41,42,-1,40,42,43,-1,43,42,44,-1,43,44,45,-1,45,44,46,-1,45,46,47,-1,47,46,48,-1,47,48,49,-1,49,48,50,-1,49,50,51,-1,51,50,52,-1,51,52,53,-1,53,52,54,-1,53,54,55,-1,55,54,39,-1,55,39,38,-1,32,34,56,-1,32,56,57,-1,57,56,58,-1,57,58,59,-1,59,58,60,-1,59,60,61,-1,61,60,62,-1,61,62,63,-1,63,62,64,-1,63,64,65,-1,65,64,66,-1,65,66,67,-1,67,66,41,-1,67,41,40,-1,67,40,68,-1,68,40,43,-1,68,43,69,-1,69,43,45,-1,69,45,70,-1,70,45,47,-1,70,47,71,-1,71,47,49,-1,71,49,72,-1,72,49,51,-1,72,51,73,-1,73,51,53,-1,73,53,74,-1,74,53,55,-1,74,55,75,-1,75,55,38,-1,75,38,76,-1,76,38,36,-1,76,36,77,-1,77,36,33,-1,77,33,78,-1,78,33,32,-1,78,32,79,-1,79,32,57,-1,79,57,80,-1,80,57,59,-1,80,59,81,-1,81,59,61,-1,81,61,82,-1,82,61,63,-1,82,63,83,-1,83,63,65,-1,83,65,84,-1,84,65,67,-1,84,67,68,-1,75,76,85,-1,85,76,86,-1,75,85,87,-1,75,87,74,-1,74,87,88,-1,74,88,73,-1,73,88,89,-1,73,89,72,-1,72,89,90,-1,72,90,71,-1,71,90,91,-1,71,91,70,-1,70,91,92,-1,70,92,69,-1,69,92,93,-1,69,93,68,-1,68,93,94,-1,68,94,84,-1,84,94,95,-1,84,95,83,-1,83,95,96,-1,83,96,82,-1,82,96,97,-1,82,97,81,-1,81,97,98,-1,81,98,80,-1,80,98,99,-1,80,99,79,-1,79,99,100,-1,79,100,78,-1,77,78,101,-1,101,78,100,-1,76,77,86,-1,86,77,101,-1,102,103,104,-1,104,103,105,-1,103,106,105,-1,105,106,107,-1,106,108,107,-1,107,108,109,-1,108,110,109,-1,109,110,111,-1,110,112,111,-1,111,112,113,-1,112,114,113,-1,113,114,115,-1,114,116,115,-1,115,116,117,-1,
        ]
    }
}
Shape{
    appearance Appearance {
        material  Material 	{
            diffuseColor 0.8509803921568627 0.8509803921568627 0.8509803921568627
            specularColor 0.4235294117647059 0.4235294117647059 0.4235294117647059
            ambientIntensity 0.851
            transparency 0.0
            shininess 0.5
        }
    }
    geometry IndexedFaceSet {
        ccw TRUE
        solid FALSE
        coord DEF co Coordinate {
            point [
                -0.0435 0.0302 0.0079, 0.0191 0.0302 0.0079, -0.0435 0.0302 0.0039, 0.0191 0.0302 0.0039, 0.0191 0.0496 0.0079, 0.0191 0.0496 0.0039, -0.0435 0.0496 0.0079, -0.0435 0.0496 0.0039, -0.0435 0.1101 0.0079, -0.0435 0.1101 0.0039, 0.0278 0.1101 0.0079, 0.0278 0.1101 0.0039, -0.0673 0.1296 0.0079, 0.0278 0.1296 0.0079, -0.0673 -0.0476 0.0079, 0.0235 -0.0281 0.0079, 0.0235 -0.0476 0.0079, -0.0435 -0.0281 0.0079, -0.1018 0.101 0.0079, -0.1018 0.1204 0.0079, -0.1018 0.101 0.0039, -0.1018 0.1204 0.0039, -0.1506 0.1317 0.0079, -0.1506 0.1317 0.0039, -0.1458 0.1317 0.0039, -0.1458 0.1317 0.0079, -0.1207 0.1282 0.0039, -0.1207 0.1282 0.0079, -0.2336 0.0443 0.0079, -0.2336 0.0443 0.0039, -0.2319 0.065 0.0039, -0.2319 0.065 0.0079, -0.2264 0.084 0.0039, -0.2264 0.084 0.0079, -0.2169 0.1007 0.0039, -0.2169 0.1007 0.0079, -0.204 0.1144 0.0039, -0.204 0.1144 0.0079, -0.1896 0.1236 0.0039, -0.1896 0.1236 0.0079, -0.1724 0.1295 0.0039, -0.1724 0.1295 0.0079, -0.1435 -0.0497 0.0079, -0.1435 -0.0497 0.0039, -0.1622 -0.0481 0.0079, -0.1561 -0.0487 0.0039, -0.1622 -0.0481 0.0039, -0.1817 -0.0423 0.0039, -0.1817 -0.0423 0.0079, -0.1982 -0.0326 0.0039, -0.1982 -0.0326 0.0079, -0.2137 -0.0178 0.0039, -0.2137 -0.0178 0.0079, -0.2243 -0.001 0.0039, -0.2243 -0.001 0.0079, -0.2311 0.0192 0.0039, -0.2311 0.0192 0.0079, -0.1279 -0.0487 0.0039, -0.1223 -0.0483 0.0079, -0.1223 -0.0483 0.0039, -0.1018 -0.0427 0.0079, -0.1018 -0.0427 0.0039, -0.1018 -0.019 0.0079, -0.1018 -0.019 0.0039, -0.1433 -0.0303 0.0079, -0.1433 -0.0303 0.0039, -0.1218 -0.0275 0.0039, -0.1218 -0.0275 0.0079, -0.2099 0.0429 0.0079, -0.2099 0.0429 0.0039, -0.2091 0.0296 0.0039, -0.2091 0.0296 0.0079, -0.2044 0.0104 0.0039, -0.2044 0.0104 0.0079, -0.1972 -0.0033 0.0039, -0.1972 -0.0033 0.0079, -0.1865 -0.0152 0.0039, -0.1865 -0.0152 0.0079, -0.174 -0.0236 0.0039, -0.174 -0.0236 0.0079, -0.1608 -0.0283 0.0039, -0.1608 -0.0283 0.0079, -0.1473 0.1123 0.0079, -0.1473 0.1123 0.0039, -0.1638 0.1105 0.0039, -0.1638 0.1105 0.0079, -0.1768 0.1057 0.0039, -0.1768 0.1057 0.0079, -0.1877 0.0983 0.0039, -0.1877 0.0983 0.0079, -0.1959 0.0896 0.0039, -0.1959 0.0896 0.0079, -0.2033 0.0773 0.0039, -0.2033 0.0773 0.0079, -0.2081 0.0621 0.0039, -0.2081 0.0621 0.0079, -0.105 0.1027 0.0039, -0.105 0.1027 0.0079, -0.1238 0.1097 0.0039, -0.1238 0.1097 0.0079
            ]
        }
        coordIndex [
            0,1,2,-1,2,1,3,-1,1,4,3,-1,3,4,5,-1,4,6,5,-1,5,6,7,-1,6,8,7,-1,7,8,9,-1,8,10,9,-1,9,10,11,-1,12,13,10,-1,10,8,12,-1,12,8,6,-1,12,6,14,-1,15,16,17,-1,17,16,14,-1,17,14,0,-1,0,14,6,-1,0,6,1,-1,1,6,4,-1,18,19,20,-1,20,19,21,-1,22,23,24,-1,22,24,25,-1,25,24,26,-1,25,26,27,-1,27,26,21,-1,27,21,19,-1,28,29,30,-1,28,30,31,-1,31,30,32,-1,31,32,33,-1,33,32,34,-1,33,34,35,-1,35,34,36,-1,35,36,37,-1,37,36,38,-1,37,38,39,-1,39,38,40,-1,39,40,41,-1,41,40,23,-1,41,23,22,-1,42,43,44,-1,44,43,45,-1,45,46,44,-1,44,46,47,-1,44,47,48,-1,48,47,49,-1,48,49,50,-1,50,49,51,-1,50,51,52,-1,52,51,53,-1,52,53,54,-1,54,53,55,-1,54,55,56,-1,56,55,29,-1,56,29,28,-1,43,42,57,-1,57,42,58,-1,57,58,59,-1,59,58,60,-1,59,60,61,-1,60,62,61,-1,61,62,63,-1,64,65,66,-1,64,66,67,-1,67,66,63,-1,67,63,62,-1,68,69,70,-1,68,70,71,-1,71,70,72,-1,71,72,73,-1,73,72,74,-1,73,74,75,-1,75,74,76,-1,75,76,77,-1,77,76,78,-1,77,78,79,-1,79,78,80,-1,79,80,81,-1,81,80,65,-1,81,65,64,-1,82,83,84,-1,82,84,85,-1,85,84,86,-1,85,86,87,-1,87,86,88,-1,87,88,89,-1,89,88,90,-1,89,90,91,-1,91,90,92,-1,91,92,93,-1,93,92,94,-1,93,94,95,-1,95,94,69,-1,95,69,68,-1,18,20,96,-1,18,96,97,-1,97,96,98,-1,97,98,99,-1,99,98,83,-1,99,83,82,-1,85,22,82,-1,82,22,25,-1,82,25,99,-1,99,25,27,-1,99,27,97,-1,97,27,19,-1,97,19,18,-1,62,60,67,-1,67,60,58,-1,67,58,64,-1,64,58,42,-1,64,42,81,-1,81,42,44,-1,81,44,79,-1,79,44,48,-1,79,48,77,-1,77,48,50,-1,77,50,75,-1,75,50,52,-1,75,52,73,-1,73,52,54,-1,73,54,71,-1,71,54,56,-1,71,56,68,-1,68,56,28,-1,68,28,95,-1,95,28,31,-1,95,31,93,-1,93,31,33,-1,93,33,91,-1,91,33,35,-1,91,35,89,-1,89,35,37,-1,89,37,87,-1,87,37,39,-1,87,39,85,-1,85,39,41,-1,85,41,22,-1,
        ]
    }
}
Shape{
    appearance Appearance {
        material  Material 	{
            diffuseColor 1.0 1.0 1.0
            specularColor 0.8784313725490196 0.8784313725490196 0.8784313725490196
            ambientIntensity 1.0
            transparency 0.0
            shininess 0.5
        }
    }
    geometry IndexedFaceSet {
        ccw TRUE
        solid FALSE
        coord DEF co Coordinate {
            point [
                -0.2488 0.1101 0.0079, -0.2488 0.1296 0.0079, -0.2488 0.1101 0.0039, -0.2488 0.1296 0.0039, -0.3395 0.1296 0.0079, -0.3395 0.1296 0.0039, -0.3395 -0.0476 0.0079, -0.3395 -0.0476 0.0039, -0.3157 -0.0476 0.0079, -0.3157 -0.0476 0.0039, -0.3157 0.1101 0.0079, -0.3157 0.1101 0.0039
            ]
        }
        coordIndex [
            0,1,2,-1,2,1,3,-1,1,4,3,-1,3,4,5,-1,4,6,5,-1,5,6,7,-1,6,8,7,-1,7,8,9,-1,8,10,9,-1,9,10,11,-1,10,0,11,-1,11,0,2,-1,8,6,10,-1,10,6,4,-1,10,4,0,-1,0,4,1,-1,
        ]
    }
}
Shape{
    appearance Appearance {
        material  Material 	{
            diffuseColor 0.8431372549019608 0.8156862745098039 0.7529411764705882
            specularColor 0.4235294117647059 0.40784313725490196 0.3764705882352941
            ambientIntensity 0.8167
            transparency 0.0
            shininess 0.5
        }
    }
    geometry IndexedFaceSet {
        ccw TRUE
        solid FALSE
        coord DEF co Coordinate {
            point [
                0.2667 0.0604 0.0039, 0.326 0.0604 0.0039, 0.2932 -0.0136 0.0039, 0.2993 -0.0136 0.0039, 0.2948 -0.0197 0.0039, 0.2977 -0.0197 0.0039, 0.296 -0.026 0.0039, 0.2966 -0.026 0.0039, 0.0861 -0.0281 0.0039, 0.0861 0.1101 0.0039, 0.1122 -0.0281 0.0039, 0.1113 0.1101 0.0039, 0.179 0.0606 0.0039, 0.1812 0.0393 0.0039, 0.1797 0.0216 0.0039, 0.1755 0.0076 0.0039, 0.1333 -0.0259 0.0039, 0.13 0.1084 0.0039, 0.1449 0.1037 0.0039, 0.1569 0.0966 0.0039, 0.1695 -0.0032 0.0039, 0.1609 -0.0124 0.0039, 0.148 -0.0207 0.0039, 0.1669 0.0868 0.0039, 0.1743 0.0747 0.0039
            ]
        }
        coordIndex [
            0,1,2,-1,2,1,3,-1,2,3,4,-1,4,3,5,-1,4,5,6,-1,6,5,7,-1,8,9,10,-1,10,9,11,-1,12,13,10,-1,13,14,10,-1,10,14,15,-1,10,15,16,-1,11,17,10,-1,10,17,18,-1,10,18,19,-1,20,21,15,-1,15,21,22,-1,15,22,16,-1,19,23,10,-1,10,23,24,-1,10,24,12,-1,
        ]
    }
}