#VRML V2.0 utf8
# 3D model generated by easyeda2kicad.py (https://github.com/uPesy/easyeda2kicad.py)

Shape{
    appearance Appearance {
        material  Material 	{
            diffuseColor 1.0 1.0 1.0
            specularColor 0.5019607843137255 0.5019607843137255 0.5019607843137255
            ambientIntensity 1.0
            transparency 0.0
            shininess 0.5
        }
    }
    geometry IndexedFaceSet {
        ccw TRUE
        solid FALSE
        coord DEF co Coordinate {
            point [
                0.5709 -0.0984 0.4331, 0.6693 -0.0984 0.4331, 0.5709 0.0984 0.4331, 0.6693 0.0984 0.4331, 0.5807 -0.0984 0.3701, 0.5807 0.0984 0.3701, 0.5807 0.0637 -1.1811, 0.5807 -0.0637 -1.1811, 0.5807 0.0984 -0.9842, 0.5807 -0.0984 -0.9842, 0.6791 -0.0637 -1.1811, 0.6791 0.0637 -1.1811, 0.6791 0.0984 0.3701, 0.6791 -0.0984 0.3701, 0.6791 0.0984 -0.9842, 0.6791 -0.0984 -0.9842
            ]
        }
        coordIndex [
            0,1,2,-1,2,1,3,-1,4,0,5,-1,5,0,2,-1,6,7,8,-1,8,7,9,-1,8,9,5,-1,5,9,4,-1,7,6,10,-1,10,6,11,-1,12,13,14,-1,14,13,15,-1,14,15,11,-1,11,15,10,-1,1,13,3,-1,3,13,12,-1,9,15,4,-1,4,15,13,-1,4,13,0,-1,0,13,1,-1,2,3,5,-1,5,3,12,-1,5,12,8,-1,8,12,14,-1,10,15,7,-1,7,15,9,-1,14,11,8,-1,8,11,6,-1,
        ]
    }
}
Shape{
    appearance Appearance {
        material  Material 	{
            diffuseColor 0.25098039215686274 0.25098039215686274 0.25098039215686274
            specularColor 0.12549019607843137 0.12549019607843137 0.12549019607843137
            ambientIntensity 0.251
            transparency 0.0
            shininess 0.5
        }
    }
    geometry IndexedFaceSet {
        ccw TRUE
        solid FALSE
        coord DEF co Coordinate {
            point [
                0.3451 -0.9297 0.1181, 0.4186 -0.9297 0.1181, 0.4186 -1.0084 0.1181, 0.4921 -1.3386 0.1181, 0.4186 -1.3386 0.1181, 0.4186 -1.1909 0.1181, 0.2953 -1.3386 0.1181, 0.2953 -1.4961 0.1181, 0.1613 -1.5551 0.1181, 0.1613 -1.1909 0.1181, 0.5315 -1.1909 0.1181, 0.5315 -1.5551 0.1181, 0.4186 -1.5551 0.1181, 0.4186 -1.4961 0.1181, 0.4921 -1.4961 0.1181, -0.3998 -1.3386 0.1181, -0.4921 -1.3386 0.1181, -0.5315 -1.1909 0.1181, -0.5315 -1.5551 0.1181, -0.4921 -1.4961 0.1181, -0.3998 -1.5551 0.1181, -0.3998 -1.4961 0.1181, -0.2423 -1.5551 0.1181, -0.3998 -1.1909 0.1181, -0.2953 -1.3386 0.1181, -0.2423 -1.1909 0.1181, -0.2953 -1.4961 0.1181, -0.5315 1.1909 0.1181, -0.5315 1.6142 0.1181, -0.4921 1.3386 0.1181, -0.4921 1.4961 0.1181, -0.2423 1.1909 0.1181, -0.3998 1.1909 0.1181, -0.3998 1.3386 0.1181, -0.3998 1.4961 0.1181, -0.3998 1.6142 0.1181, -0.2953 1.4961 0.1181, -0.2423 1.6142 0.1181, -0.2953 1.3386 0.1181, 0.4186 1.3386 0.1181, 0.4186 1.1909 0.1181, 0.2953 1.3386 0.1181, 0.1613 1.1909 0.1181, 0.2953 1.4961 0.1181, 0.5315 1.1909 0.1181, 0.4921 1.3386 0.1181, 0.5315 1.6142 0.1181, 0.4921 1.4961 0.1181, 0.4186 1.6142 0.1181, 0.4186 1.4961 0.1181, 0.1613 1.6142 0.1181, 0.227 -1.0084 0.1181, 0.227 -1.0433 0.1181, 0.4186 -0.8965 0.1181, 0.3451 -0.9252 0.1181, 0.1613 -0.8965 0.1181, 0.227 -0.9252 0.1181, 0.1613 -0.9297 0.1181, 0.3451 -1.0433 0.1181, 0.3451 -1.0084 0.1181, -0.3998 0.4921 0.1181, -0.3075 0.9252 0.1181, -0.3075 1.0433 0.1181, -0.2423 0.4921 0.1181, -0.2423 0.9252 0.1181, 0.0154 0.4921 0.1181, -0.2423 1.0433 0.1181, -0.1894 1.0433 0.1181, 0.0154 1.1909 0.1181, -0.1894 0.9252 0.1181, -0.3075 -0.9297 0.1181, -0.3075 -1.0084 0.1181, -0.3998 -0.9297 0.1181, -0.3998 -1.0084 0.1181, -0.1894 -1.0433 0.1181, -0.1894 -1.0084 0.1181, 0.0154 -1.0084 0.1181, -0.1894 -0.9297 0.1181, -0.3075 -1.0433 0.1181, -0.2423 -1.0433 0.1181, 0.0154 -1.1909 0.1181, -0.3075 -0.0591 0.1181, -0.3998 -0.3568 0.1181, -0.3075 0.0591 0.1181, -0.2423 0.0591 0.1181, -0.1894 0.0591 0.1181, -0.1894 -0.0591 0.1181, 0.0601 -0.814 0.1181, 0.0515 -0.814 0.1181, 0.0154 -0.8025 0.1181, 0.02 -0.8678 0.1181, 0.0159 -0.8524 0.1181, 0.0287 -0.8678 0.1181, 0.0947 -0.8524 0.1181, 0.0166 -0.8762 0.1181, 0.0154 -0.8841 0.1181, 0.0515 -0.8419 0.1181, 0.0246 -0.8419 0.1181, 0.0246 -0.8102 0.1181, 0.0159 -0.8102 0.1181, 0.0244 -0.8953 0.1181, 0.0236 -0.888 0.1181, 0.0852 -0.8965 0.1181, 0.095 -0.8769 0.1181, 0.0925 -0.8678 0.1181, 0.1613 -0.8025 0.1181, 0.0248 -0.8775 0.1181, 0.0279 -0.8692 0.1181, 0.0861 -0.894 0.1181, 0.0947 -0.8121 0.1181, 0.086 -0.8121 0.1181, 0.0819 -0.8678 0.1181, 0.0857 -0.8767 0.1181, 0.087 -0.8862 0.1181, 0.095 -0.8942 0.1181, 0.0956 -0.8863 0.1181, 0.084 -0.8999 0.1181, 0.0606 -0.9154 0.1181, 0.0545 -0.9158 0.1181, 0.0459 -0.915 0.1181, 0.0298 -0.9059 0.1181, 0.0265 -0.9011 0.1181, 0.0249 -0.8965 0.1181, 0.0803 -0.9053 0.1181, 0.0751 -0.9101 0.1181, 0.069 -0.9133 0.1181, 0.0392 -0.9129 0.1181, 0.0337 -0.9096 0.1181, 0.0739 -0.9222 0.1181, 0.0813 -0.9176 0.1181, 0.0226 -0.9131 0.1181, 0.0289 -0.919 0.1181, 0.0154 -0.9297 0.1181, 0.0364 -0.9232 0.1181, 0.0154 -0.8965 0.1181, 0.016 -0.8992 0.1181, 0.0186 -0.9068 0.1181, 0.0881 -0.9105 0.1181, 0.0924 -0.903 0.1181, 0.0943 -0.8965 0.1181, 0.0447 -0.9256 0.1181, 0.0538 -0.9264 0.1181, 0.065 -0.9252 0.1181, 0.015 -0.8873 0.1181, 0.015 -0.8895 0.1181, -0.2423 -0.8965 0.1181, 0.0154 -0.8941 0.1181, 0.0157 -0.8965 0.1181, 0.5315 -0.7286 0.1181, 0.4186 -0.3568 0.1181, 0.5315 -0.3568 0.1181, 0.4186 0.4921 0.1181, 0.5315 0.4921 0.1181, 0.5315 -1.0084 0.1181, 0.5315 -0.9297 0.1181, 0.5315 -0.8965 0.1181, 0.227 1.0433 0.1181, 0.3451 1.0433 0.1181, 0.3451 0.9252 0.1181, 0.227 0.9252 0.1181, 0.227 0.0591 0.1181, 0.227 -0.0591 0.1181, 0.1613 -0.3568 0.1181, 0.4186 -0.7286 0.1181, 0.3451 -0.0591 0.1181, 0.3451 0.0591 0.1181, 0.1613 0.4921 0.1181, 0.5315 -0.8025 0.1181, 0.4186 -0.8025 0.1181, 0.0154 -0.3568 0.1181, 0.0159 -0.7141 0.1181, 0.0159 -0.7257 0.1181, 0.0154 -0.7286 0.1181, 0.0159 -0.6661 0.1181, 0.038 -0.6741 0.1181, 0.038 -0.7066 0.1181, 0.1613 -0.7286 0.1181, 0.0947 -0.6959 0.1181, 0.0947 -0.6853 0.1181, 0.0159 -0.6546 0.1181, 0.086 -0.8419 0.1181, 0.0601 -0.8419 0.1181, 0.0947 -0.7948 0.1181, 0.0947 -0.7726 0.1181, 0.0935 -0.7612 0.1181, 0.0902 -0.752 0.1181, 0.0845 -0.7434 0.1181, 0.0375 -0.7354 0.1181, 0.0305 -0.7399 0.1181, 0.0243 -0.7464 0.1181, 0.0195 -0.7546 0.1181, 0.0844 -0.7433 0.1181, 0.0782 -0.7378 0.1181, 0.0715 -0.7341 0.1181, 0.0168 -0.7637 0.1181, 0.0159 -0.7734 0.1181, 0.0159 -0.7948 0.1181, 0.0637 -0.732 0.1181, 0.0563 -0.7314 0.1181, 0.0458 -0.7325 0.1181, 0.0947 -0.9629 0.1181, 0.0246 -0.9629 0.1181, 0.0246 -0.9331 0.1181, 0.0159 -0.9331 0.1181, 0.0159 -0.9734 0.1181, 0.0947 -0.9734 0.1181, 0.1613 -1.0084 0.1181, -0.1894 -0.9252 0.1181, -0.2423 -0.9252 0.1181, -0.3075 -0.9252 0.1181, 0.227 -0.9297 0.1181, 0.0154 1.6142 0.1181, -0.2423 -0.8025 0.1181, -0.2423 -0.7286 0.1181, -0.2423 -0.3568 0.1181, -0.2423 -0.0591 0.1181, 0.0154 -1.5551 0.1181, -0.3998 -0.8965 0.1181, -0.3998 -0.8025 0.1181, -0.3998 -0.7286 0.1181, -0.5315 -1.0084 0.1181, -0.5315 -0.9297 0.1181, -0.5315 -0.8965 0.1181, -0.5315 -0.8025 0.1181, -0.5315 -0.7286 0.1181, -0.5315 -0.3568 0.1181, -0.5315 0.4921 0.1181, 0.5315 -1.6142 0.1181, 0.4186 -1.6142 0.1181, 0.1613 -1.6142 0.1181, 0.0154 -1.6142 0.1181, -0.2423 -1.6142 0.1181, -0.3998 -1.6142 0.1181, -0.5315 -1.6142 0.1181, -0.5709 -1.1024 0.3543, -0.5709 -0.8661 0.3543, -0.5315 -1.6535 0.3543, 0.689 1.1024 0.3543, 0.5315 1.6535 0.3543, 0.689 1.6654 0.3543, -0.5315 1.6535 0.3543, -0.689 1.6654 0.3543, 0.5315 -1.6535 0.3543, 0.689 -1.6654 0.3543, -0.689 -1.6654 0.3543, -0.689 -1.1024 0.3543, -0.689 -0.8661 0.3543, -0.689 -0.1181 0.3543, -0.5709 -0.1181 0.3543, -0.5709 0.1181 0.3543, -0.689 1.1024 0.3543, -0.5709 1.1024 0.3543, -0.5709 0.8661 0.3543, -0.689 0.8661 0.3543, -0.689 0.1181 0.3543, 0.689 0.8661 0.3543, 0.689 0.1181 0.3543, 0.5709 0.8661 0.3543, 0.5709 0.1181 0.3543, 0.5709 1.1024 0.3543, 0.5709 -0.1181 0.3543, 0.689 -1.1024 0.3543, 0.5709 -1.1024 0.3543, 0.5709 -0.8661 0.3543, 0.689 -0.8661 0.3543, 0.689 -0.1181 0.3543, 0.689 -1.608 1.3343, 0.689 -1.6471 1.3216, 0.689 -1.7323 0.8661, 0.689 -1.7717 1.1811, 0.689 -1.7717 0.8661, 0.689 -1.7376 1.2402, 0.689 -1.6654 0.4134, 0.689 -1.7126 0.4134, 0.689 -1.7323 0.3642, 0.689 -1.7126 0.3642, 0.689 -1.6828 1.301, 0.689 -1.7134 1.2735, 0.689 -1.1024 0.4331, 0.689 -1.5671 1.3386, 0.689 1.5671 1.3386, 0.689 -0.8661 0.4331, 0.689 0.1181 0.4331, 0.689 0.8661 0.4331, 0.689 -0.1181 0.4331, 0.689 1.7717 0.8661, 0.689 1.7717 1.1811, 0.689 1.7323 0.8661, 0.689 1.1024 0.4331, 0.689 1.7376 1.2402, 0.689 1.7063 1.2809, 0.689 1.7126 0.3642, 0.689 1.7323 0.3642, 0.689 1.7126 0.4134, 0.689 1.6654 0.4134, 0.689 1.6655 1.3122, 0.689 1.618 1.3319, -0.2559 1.7376 1.2402, -0.2559 1.7717 1.1811, -0.689 1.7376 1.2402, -0.689 1.7717 1.1811, 0.2559 -1.7376 1.2402, 0.2559 -1.7717 1.1811, -0.2837 0.6184 1.3386, -0.2756 0.6246 1.3386, -0.689 1.5671 1.3386, -0.5315 -1.2992 1.3386, -0.315 -1.3976 1.3386, -0.315 -0.6496 1.3386, -0.5315 0.2756 1.3386, -0.3136 -0.6394 1.3386, -0.3097 -0.6299 1.3386, -0.689 0.2756 1.3386, -0.29 0.0591 1.3386, -0.2939 0.0686 1.3386, -0.29 0.6102 1.3386, -0.2939 0.6007 1.3386, -0.2661 0.6286 1.3386, -0.2559 0.6299 1.3386, 0.2559 0.6299 1.3386, 0.2661 0.6286 1.3386, 0.2756 0.6246 1.3386, 0.2837 0.6184 1.3386, 0.29 0.6102 1.3386, 0.1779 -0.0421 1.3386, 0.1969 -0.0499 1.3386, 0.2559 0.0394 1.3386, -0.3034 -0.6218 1.3386, -0.2953 -0.6155 1.3386, -0.2858 -0.6116 1.3386, 0.2257 -0.0787 1.3386, 0.2756 0.0446 1.3386, 0.2661 0.0407 1.3386, -0.2953 0.0787 1.3386, -0.2953 0.5906 1.3386, 0.2939 0.6007 1.3386, 0.2953 0.5906 1.3386, 0.2953 0.0787 1.3386, -0.2362 -0.1181 1.3386, -0.2335 -0.0977 1.3386, -0.2257 -0.0787 1.3386, -0.2837 0.0509 1.3386, -0.689 -1.2992 1.3386, -0.689 -1.5671 1.3386, 0.315 -1.3976 1.3386, 0.315 -0.6496 1.3386, 0.3136 -0.6394 1.3386, 0.2939 0.0686 1.3386, 0.2335 -0.4535 1.3386, 0.3097 -0.6299 1.3386, 0.2362 -0.4331 1.3386, 0.2362 -0.1181 1.3386, 0.2335 -0.0977 1.3386, 0.29 0.0591 1.3386, 0.2837 0.0509 1.3386, -0.2132 -0.4887 1.3386, -0.1969 -0.5013 1.3386, -0.2756 -0.6102 1.3386, -0.1779 -0.5091 1.3386, 0.2132 -0.0624 1.3386, -0.2257 -0.4724 1.3386, -0.2335 -0.4535 1.3386, -0.2362 -0.4331 1.3386, -0.1969 -0.0499 1.3386, -0.2559 0.0394 1.3386, -0.2132 -0.0624 1.3386, -0.2661 0.0407 1.3386, -0.2756 0.0446 1.3386, -0.1779 -0.0421 1.3386, -0.1575 -0.0394 1.3386, 0.1575 -0.0394 1.3386, 0.1969 -0.5013 1.3386, 0.2756 -0.6102 1.3386, 0.2132 -0.4887 1.3386, 0.2858 -0.6116 1.3386, 0.2257 -0.4724 1.3386, 0.2953 -0.6155 1.3386, 0.3034 -0.6218 1.3386, 0.1779 -0.5091 1.3386, 0.1575 -0.5118 1.3386, -0.1575 -0.5118 1.3386, -0.689 -1.7376 1.2402, -0.689 -1.7126 0.4134, -0.689 -1.7126 0.3642, -0.689 -1.7323 0.3642, -0.689 -1.7323 0.8661, -0.689 -1.2992 0.9449, -0.689 -1.7717 0.8661, -0.689 -1.7717 1.1811, -0.689 -1.7134 1.2735, -0.689 -1.6828 1.301, -0.689 -1.6471 1.3216, -0.689 0.1181 0.4331, -0.689 0.2756 0.9449, -0.689 0.8661 0.4331, -0.689 -1.608 1.3343, -0.689 1.7323 0.8661, -0.689 1.618 1.3319, -0.689 1.7717 0.8661, -0.689 -0.1181 0.4331, -0.689 -0.8661 0.4331, -0.689 -1.6654 0.4134, -0.689 1.6655 1.3122, -0.689 1.7063 1.2809, -0.689 1.6654 0.4134, -0.689 1.1024 0.4331, -0.689 -1.1024 0.4331, -0.689 1.7126 0.4134, -0.689 1.7323 0.3642, -0.689 1.7126 0.3642, -0.2559 -1.7717 1.1811, -0.2559 -1.7717 0.8661, 0.2559 -1.7717 0.8661, 0.2559 1.7717 1.1811, 0.2559 1.7717 0.8661, -0.2559 1.7717 0.8661, 0.5315 -1.6535 0.1575, -0.5315 -1.6535 0.1575, -0.5315 1.642 0.1296, -0.5315 1.6339 0.1234, -0.5315 1.6483 0.1378, -0.5315 1.6244 0.1195, -0.5315 1.6522 0.1473, -0.5315 1.6535 0.1575, -0.5315 -1.642 0.1296, -0.5315 -1.6483 0.1378, -0.5315 -1.6522 0.1473, -0.5315 -1.6339 0.1234, -0.5315 -1.6244 0.1195, 0.5315 1.6535 0.1575, 0.5315 -1.6339 0.1234, 0.5315 -1.6244 0.1195, 0.5315 -1.642 0.1296, 0.5315 -1.6483 0.1378, 0.5315 -1.6522 0.1473, 0.5315 1.6522 0.1473, 0.5315 1.6244 0.1195, 0.5315 1.6339 0.1234, 0.5315 1.6483 0.1378, 0.5315 1.642 0.1296, 0.2953 1.3386 0.063, 0.4921 1.3386 0.063, 0.2953 1.4876 0.0315, 0.2953 1.4776 0.0185, 0.2953 1.4646 0.0084, 0.2953 1.4961 0.063, 0.2953 1.4939 0.0467, 0.2953 1.4331 0.0, 0.2953 1.4494 0.0021, 0.2953 1.4016 0.0, 0.2953 1.3853 0.0021, 0.2953 1.3701 0.0084, 0.2953 1.357 0.0185, 0.2953 1.347 0.0315, 0.2953 1.3407 0.0467, 0.4921 1.4961 0.063, 0.4921 1.347 0.0315, 0.4921 1.4016 0.0, 0.4921 1.3407 0.0467, 0.4921 1.357 0.0185, 0.4921 1.3701 0.0084, 0.4921 1.3853 0.0021, 0.4921 1.4331 0.0, 0.4921 1.4494 0.0021, 0.4921 1.4646 0.0084, 0.4921 1.4776 0.0185, 0.4921 1.4876 0.0315, 0.4921 1.4939 0.0467, -0.2953 1.3386 0.063, -0.4921 1.3386 0.063, -0.4921 1.4016 0.0, -0.4921 1.3701 0.0084, -0.4921 1.357 0.0185, -0.4921 1.347 0.0315, -0.4921 1.4961 0.063, -0.4921 1.4939 0.0467, -0.4921 1.3853 0.0021, -0.4921 1.3407 0.0467, -0.4921 1.4876 0.0315, -0.4921 1.4776 0.0185, -0.4921 1.4646 0.0084, -0.4921 1.4494 0.0021, -0.4921 1.4331 0.0, -0.2953 1.4961 0.063, -0.2953 1.347 0.0315, -0.2953 1.4016 0.0, -0.2953 1.3407 0.0467, -0.2953 1.357 0.0185, -0.2953 1.3701 0.0084, -0.2953 1.3853 0.0021, -0.2953 1.4331 0.0, -0.2953 1.4494 0.0021, -0.2953 1.4646 0.0084, -0.2953 1.4776 0.0185, -0.2953 1.4876 0.0315, -0.2953 1.4939 0.0467, -0.2953 -1.4961 0.063, -0.4921 -1.4961 0.063, -0.4921 -1.3386 0.063, -0.4921 -1.347 0.0315, -0.4921 -1.357 0.0185, -0.4921 -1.3701 0.0084, -0.4921 -1.4494 0.0021, -0.4921 -1.4646 0.0084, -0.4921 -1.3407 0.0467, -0.4921 -1.4016 0.0, -0.4921 -1.3853 0.0021, -0.4921 -1.4331 0.0, -0.4921 -1.4776 0.0185, -0.4921 -1.4876 0.0315, -0.4921 -1.4939 0.0467, -0.2953 -1.3386 0.063, -0.2953 -1.4939 0.0467, -0.2953 -1.4646 0.0084, -0.2953 -1.4876 0.0315, -0.2953 -1.4776 0.0185, -0.2953 -1.4494 0.0021, -0.2953 -1.4331 0.0, -0.2953 -1.4016 0.0, -0.2953 -1.3853 0.0021, -0.2953 -1.3701 0.0084, -0.2953 -1.357 0.0185, -0.2953 -1.347 0.0315, -0.2953 -1.3407 0.0467, 0.2953 -1.4961 0.063, 0.4921 -1.4961 0.063, 0.2953 -1.3853 0.0021, 0.2953 -1.4016 0.0, 0.2953 -1.4331 0.0, 0.2953 -1.4494 0.0021, 0.2953 -1.4646 0.0084, 0.2953 -1.4776 0.0185, 0.2953 -1.4876 0.0315, 0.2953 -1.4939 0.0467, 0.2953 -1.3386 0.063, 0.2953 -1.3407 0.0467, 0.2953 -1.347 0.0315, 0.2953 -1.357 0.0185, 0.2953 -1.3701 0.0084, 0.4921 -1.3386 0.063, 0.4921 -1.3407 0.0467, 0.4921 -1.3853 0.0021, 0.4921 -1.3701 0.0084, 0.4921 -1.4939 0.0467, 0.4921 -1.4646 0.0084, 0.4921 -1.4876 0.0315, 0.4921 -1.4776 0.0185, 0.4921 -1.4494 0.0021, 0.4921 -1.4331 0.0, 0.4921 -1.4016 0.0, 0.4921 -1.357 0.0185, 0.4921 -1.347 0.0315, 0.227 -1.0433 0.1969, 0.3451 -1.0433 0.1969, 0.3451 -0.9252 0.1969, 0.227 -0.9252 0.1969, -0.3075 0.9252 0.1969, -0.1894 0.9252 0.1969, -0.1894 1.0433 0.1969, -0.3075 1.0433 0.1969, -0.3075 -1.0433 0.1969, -0.1894 -1.0433 0.1969, -0.1894 -0.9252 0.1969, -0.3075 -0.9252 0.1969, 0.227 -0.0591 0.1969, 0.3451 -0.0591 0.1969, 0.3451 0.0591 0.1969, 0.227 0.0591 0.1969, -0.3075 -0.0591 0.1969, -0.1894 -0.0591 0.1969, -0.1894 0.0591 0.1969, -0.3075 0.0591 0.1969, 0.227 0.9252 0.1969, 0.3451 0.9252 0.1969, 0.3451 1.0433 0.1969, 0.227 1.0433 0.1969, 0.2559 1.7323 0.8661, 0.2559 1.7376 1.2402, 0.2559 1.7323 1.2488, -0.2559 1.7323 0.8661, -0.2559 1.7323 1.2488, 0.2559 -1.7323 0.8661, -0.2559 -1.7323 0.8661, -0.2559 -1.7376 1.2402, -0.2559 -1.7323 1.2488, 0.2559 -1.7323 1.2488, -0.5315 -1.2992 0.9449, -0.5315 0.2756 0.9449, 0.2559 0.6299 2.9134, -0.2559 0.6299 2.9134, -0.2953 0.5906 2.9134, -0.2953 0.0787 2.9134, -0.2559 0.0394 2.9134, 0.2559 0.0394 2.9134, 0.2953 0.5906 2.9134, 0.2953 0.0787 2.9134, -0.2837 0.0509 2.9134, -0.29 0.0591 2.9134, -0.2939 0.0686 2.9134, -0.2756 0.0446 2.9134, -0.2661 0.0407 2.9134, 0.2756 0.0446 2.9134, 0.2837 0.0509 2.9134, 0.2661 0.0407 2.9134, 0.29 0.0591 2.9134, 0.2939 0.0686 2.9134, -0.2837 0.6184 2.9134, -0.2756 0.6246 2.9134, -0.2661 0.6286 2.9134, -0.29 0.6102 2.9134, -0.2939 0.6007 2.9134, 0.2756 0.6246 2.9134, 0.2939 0.6007 2.9134, 0.2837 0.6184 2.9134, 0.29 0.6102 2.9134, 0.2661 0.6286 2.9134, -0.1575 -0.0394 1.2598, 0.1575 -0.0394 1.2598, 0.2362 -0.4331 1.2598, 0.2362 -0.1181 1.2598, -0.1575 -0.5118 1.2598, 0.1575 -0.5118 1.2598, -0.2362 -0.4331 1.2598, -0.2362 -0.1181 1.2598, 0.2257 -0.4724 1.2598, 0.2335 -0.4535 1.2598, 0.2335 -0.0977 1.2598, 0.1779 -0.5091 1.2598, 0.1969 -0.5013 1.2598, 0.2132 -0.4887 1.2598, -0.2335 -0.4535 1.2598, -0.1779 -0.5091 1.2598, -0.2257 -0.4724 1.2598, -0.2132 -0.4887 1.2598, -0.1969 -0.5013 1.2598, 0.2257 -0.0787 1.2598, 0.2132 -0.0624 1.2598, 0.1969 -0.0499 1.2598, 0.1779 -0.0421 1.2598, -0.2132 -0.0624 1.2598, -0.1969 -0.0499 1.2598, -0.1779 -0.0421 1.2598, -0.2257 -0.0787 1.2598, -0.2335 -0.0977 1.2598, -0.2756 -0.6102 1.2598, 0.2756 -0.6102 1.2598, 0.315 -0.6496 1.2598, 0.315 -1.3976 1.2598, -0.315 -1.3976 1.2598, -0.315 -0.6496 1.2598, -0.3097 -0.6299 1.2598, -0.3136 -0.6394 1.2598, -0.3034 -0.6218 1.2598, -0.2953 -0.6155 1.2598, 0.3136 -0.6394 1.2598, -0.2858 -0.6116 1.2598, 0.3097 -0.6299 1.2598, 0.3034 -0.6218 1.2598, 0.2858 -0.6116 1.2598, 0.2953 -0.6155 1.2598, -0.5709 -0.8661 0.4331, -0.5709 -1.1024 0.4331, -0.5709 0.1181 0.4331, -0.5709 -0.1181 0.4331, -0.5709 1.1024 0.4331, -0.5709 0.8661 0.4331, 0.5709 -0.8661 0.4331, 0.5709 -1.1024 0.4331, 0.5709 0.1181 0.4331, 0.5709 -0.1181 0.4331, 0.5709 1.1024 0.4331, 0.5709 0.8661 0.4331, 0.6791 -1.7224 0.3543, 0.6812 -1.7203 0.3546, 0.6812 -1.7245 0.3546, 0.6817 -1.725 0.3547, 0.6817 -1.7199 0.3547, 0.6833 -1.7266 0.3553, 0.6833 -1.7182 0.3553, 0.6841 -1.7274 0.3557, 0.684 -1.7175 0.3557, 0.6852 -1.7285 0.3565, 0.6852 -1.7163 0.3564, 0.6861 -1.7294 0.3572, 0.686 -1.7155 0.3573, 0.6868 -1.7301 0.358, 0.6868 -1.7148 0.358, 0.6876 -1.714 0.3593, 0.6876 -1.7309 0.3593, 0.688 -1.7136 0.3599, 0.688 -1.7313 0.3599, 0.6886 -1.7129 0.3616, 0.6886 -1.7319 0.3616, 0.6887 -1.7129 0.362, 0.6887 -1.732 0.362, 0.6889 -1.7127 0.3631, 0.6889 -1.7322 0.3631, -0.6791 -1.7224 0.3543, -0.6812 -1.7203 0.3546, -0.6817 -1.7199 0.3547, -0.6833 -1.7182 0.3553, -0.684 -1.7175 0.3557, -0.6852 -1.7163 0.3564, -0.686 -1.7155 0.3573, -0.6868 -1.7148 0.358, -0.6876 -1.714 0.3593, -0.688 -1.7136 0.3599, -0.6886 -1.7129 0.3616, -0.6887 -1.7129 0.362, -0.6889 -1.7127 0.3631, -0.6812 -1.7246 0.3546, -0.6889 -1.7322 0.3631, -0.6887 -1.732 0.362, -0.6886 -1.7319 0.3616, -0.688 -1.7313 0.3599, -0.6876 -1.7309 0.3593, -0.6868 -1.7301 0.358, -0.686 -1.7294 0.3573, -0.6852 -1.7285 0.3564, -0.684 -1.7273 0.3557, -0.6833 -1.7267 0.3553, -0.6817 -1.725 0.3547, -0.6812 1.7203 0.3546, -0.6791 1.7224 0.3543, 0.6791 1.7224 0.3543, -0.6817 1.7199 0.3547, 0.6812 1.7203 0.3546, 0.6817 1.7199 0.3547, -0.6833 1.7183 0.3553, -0.6841 1.7175 0.3557, 0.6833 1.7182 0.3553, 0.684 1.7175 0.3557, -0.6852 1.7164 0.3565, -0.6861 1.7155 0.3572, 0.6852 1.7163 0.3564, 0.686 1.7155 0.3573, -0.6868 1.7148 0.358, 0.6868 1.7148 0.358, 0.6876 1.714 0.3593, -0.6876 1.714 0.3593, 0.688 1.7136 0.3599, -0.688 1.7136 0.3599, 0.6886 1.7129 0.3616, -0.6886 1.7129 0.3616, -0.6887 1.7128 0.362, 0.6887 1.7129 0.362, -0.6889 1.7127 0.3631, 0.6889 1.7127 0.3631, 0.6812 1.7246 0.3546, 0.6889 1.7322 0.3631, 0.6887 1.732 0.362, 0.6886 1.7319 0.3616, 0.688 1.7313 0.3599, 0.6876 1.7309 0.3593, 0.6868 1.7301 0.358, 0.686 1.7294 0.3573, 0.6852 1.7285 0.3564, 0.6817 1.725 0.3547, 0.6833 1.7267 0.3553, 0.684 1.7273 0.3557, -0.6812 1.7245 0.3546, -0.6852 1.7285 0.3565, -0.6841 1.7274 0.3557, -0.6817 1.725 0.3547, -0.6833 1.7266 0.3553, -0.6868 1.7301 0.358, -0.6861 1.7294 0.3572, -0.6876 1.7309 0.3593, -0.688 1.7313 0.3599, -0.6886 1.7319 0.3616, -0.6887 1.732 0.362, -0.6889 1.7322 0.3631
            ]
        }
        coordIndex [
            0,1,2,-1,3,4,5,-1,6,7,8,-1,5,4,9,-1,3,10,11,-1,8,7,12,-1,12,7,13,-1,12,13,11,-1,11,13,14,-1,11,14,3,-1,15,16,17,-1,17,16,18,-1,18,16,19,-1,18,19,20,-1,20,19,21,-1,20,21,22,-1,15,23,24,-1,24,23,25,-1,24,25,26,-1,27,28,29,-1,29,28,30,-1,31,32,33,-1,30,28,34,-1,34,28,35,-1,34,35,36,-1,36,35,37,-1,36,37,38,-1,39,40,41,-1,41,40,42,-1,41,42,43,-1,44,45,46,-1,46,45,47,-1,46,47,48,-1,48,47,49,-1,48,49,50,-1,51,52,9,-1,1,0,53,-1,53,0,54,-1,53,54,55,-1,55,54,56,-1,55,56,57,-1,9,52,5,-1,5,52,58,-1,5,58,2,-1,2,58,59,-1,2,59,0,-1,60,32,61,-1,61,32,62,-1,60,61,63,-1,63,61,64,-1,63,64,65,-1,62,32,66,-1,66,32,31,-1,66,31,67,-1,67,31,68,-1,67,68,69,-1,70,71,72,-1,72,71,73,-1,74,75,76,-1,76,75,77,-1,73,71,23,-1,23,71,78,-1,23,78,25,-1,25,78,79,-1,25,79,80,-1,81,82,83,-1,83,82,60,-1,83,60,84,-1,84,60,63,-1,84,63,85,-1,85,63,65,-1,85,65,86,-1,87,88,89,-1,90,91,92,-1,92,91,93,-1,90,94,91,-1,91,94,95,-1,91,95,89,-1,96,97,88,-1,88,97,98,-1,88,98,89,-1,89,98,99,-1,89,99,91,-1,100,101,102,-1,103,104,105,-1,101,106,102,-1,102,106,107,-1,102,107,108,-1,93,109,105,-1,105,109,110,-1,105,104,93,-1,93,104,111,-1,93,111,92,-1,92,111,112,-1,92,112,107,-1,107,112,113,-1,107,113,108,-1,55,114,115,-1,116,117,102,-1,102,117,118,-1,102,118,119,-1,120,121,102,-1,102,121,122,-1,102,122,100,-1,116,123,117,-1,117,123,124,-1,117,124,125,-1,119,126,102,-1,102,126,127,-1,102,127,120,-1,128,129,57,-1,130,131,132,-1,132,131,133,-1,134,135,132,-1,132,135,136,-1,132,136,130,-1,129,137,57,-1,57,137,138,-1,57,138,55,-1,55,138,139,-1,55,139,114,-1,133,140,132,-1,132,140,141,-1,132,141,57,-1,57,141,142,-1,57,142,128,-1,143,144,145,-1,145,144,146,-1,145,146,134,-1,134,146,147,-1,134,147,135,-1,148,149,150,-1,150,149,151,-1,150,151,152,-1,152,151,40,-1,152,40,44,-1,44,40,39,-1,44,39,45,-1,3,5,10,-1,10,5,2,-1,10,2,153,-1,153,2,1,-1,153,1,154,-1,154,1,53,-1,154,53,155,-1,156,42,157,-1,157,42,40,-1,157,40,158,-1,158,40,151,-1,158,151,159,-1,160,161,162,-1,162,161,149,-1,162,149,163,-1,163,149,148,-1,161,164,149,-1,149,164,165,-1,149,165,151,-1,151,165,166,-1,151,166,159,-1,167,155,168,-1,168,155,53,-1,168,53,105,-1,105,53,55,-1,105,55,103,-1,103,55,115,-1,156,159,42,-1,42,159,166,-1,42,166,68,-1,68,166,65,-1,68,65,69,-1,69,65,64,-1,165,160,166,-1,166,160,162,-1,166,162,65,-1,65,162,169,-1,65,169,86,-1,170,171,172,-1,173,174,175,-1,172,171,176,-1,176,171,177,-1,176,177,178,-1,175,170,173,-1,173,170,172,-1,173,172,179,-1,179,172,169,-1,179,169,178,-1,178,169,162,-1,178,162,176,-1,176,162,163,-1,180,181,110,-1,110,181,87,-1,110,87,105,-1,105,87,89,-1,105,89,182,-1,182,183,105,-1,105,183,176,-1,105,176,168,-1,168,176,163,-1,168,163,167,-1,167,163,148,-1,183,184,176,-1,176,184,185,-1,176,185,186,-1,187,188,172,-1,172,188,189,-1,172,189,190,-1,186,191,176,-1,176,191,192,-1,176,192,193,-1,190,194,172,-1,172,194,195,-1,172,195,89,-1,89,195,196,-1,89,196,182,-1,193,197,176,-1,176,197,198,-1,176,198,172,-1,172,198,199,-1,172,199,187,-1,200,201,57,-1,57,201,202,-1,57,202,132,-1,132,202,203,-1,132,203,204,-1,200,57,205,-1,205,57,206,-1,205,206,204,-1,204,206,76,-1,204,76,132,-1,132,76,77,-1,132,77,134,-1,134,77,207,-1,134,207,145,-1,145,207,208,-1,145,208,209,-1,56,210,57,-1,57,210,51,-1,57,51,206,-1,206,51,9,-1,206,9,76,-1,76,9,80,-1,76,80,74,-1,74,80,79,-1,49,43,50,-1,50,43,42,-1,50,42,211,-1,211,42,68,-1,211,68,37,-1,37,68,31,-1,37,31,38,-1,38,31,33,-1,143,145,95,-1,95,145,212,-1,95,212,89,-1,89,212,213,-1,89,213,172,-1,172,213,214,-1,172,214,169,-1,169,214,215,-1,169,215,86,-1,4,6,9,-1,9,6,8,-1,9,8,80,-1,80,8,216,-1,80,216,25,-1,25,216,22,-1,25,22,26,-1,26,22,21,-1,70,72,209,-1,209,72,217,-1,209,217,145,-1,145,217,218,-1,145,218,212,-1,212,218,219,-1,212,219,213,-1,213,219,82,-1,213,82,214,-1,214,82,81,-1,214,81,215,-1,15,17,23,-1,23,17,220,-1,23,220,73,-1,73,220,221,-1,73,221,72,-1,72,221,222,-1,72,222,217,-1,217,222,223,-1,217,223,218,-1,218,223,224,-1,218,224,219,-1,219,224,225,-1,219,225,82,-1,82,225,226,-1,82,226,60,-1,60,226,27,-1,60,27,32,-1,32,27,29,-1,32,29,33,-1,11,227,12,-1,12,227,228,-1,12,228,8,-1,8,228,229,-1,8,229,216,-1,216,229,230,-1,216,230,22,-1,22,230,231,-1,22,231,20,-1,20,231,232,-1,20,232,18,-1,18,232,233,-1,234,235,236,-1,237,238,239,-1,239,238,240,-1,239,240,241,-1,242,243,236,-1,236,243,244,-1,236,244,234,-1,234,244,245,-1,246,247,235,-1,235,247,248,-1,235,248,236,-1,236,248,249,-1,236,249,240,-1,250,241,251,-1,251,241,240,-1,251,240,252,-1,252,240,249,-1,252,249,253,-1,253,249,254,-1,255,256,257,-1,257,256,258,-1,237,259,238,-1,238,259,257,-1,238,257,242,-1,242,257,258,-1,242,258,260,-1,261,243,262,-1,262,243,242,-1,262,242,263,-1,263,242,260,-1,263,260,264,-1,264,260,265,-1,266,267,268,-1,269,270,271,-1,271,270,268,-1,272,268,273,-1,273,268,274,-1,273,274,275,-1,267,276,268,-1,268,276,277,-1,268,277,271,-1,243,261,272,-1,272,261,278,-1,266,268,279,-1,279,268,272,-1,279,272,280,-1,280,272,278,-1,280,278,281,-1,282,256,255,-1,255,283,282,-1,282,283,280,-1,282,280,284,-1,284,280,281,-1,284,281,265,-1,265,281,264,-1,285,286,287,-1,287,286,288,-1,288,286,283,-1,283,286,289,-1,283,289,290,-1,291,292,293,-1,293,292,287,-1,293,287,294,-1,294,287,288,-1,294,288,239,-1,239,288,237,-1,290,295,283,-1,283,295,296,-1,283,296,280,-1,297,298,299,-1,299,298,300,-1,301,302,271,-1,271,302,269,-1,303,304,305,-1,306,307,308,-1,306,308,309,-1,309,308,310,-1,309,310,311,-1,305,312,309,-1,313,314,309,-1,303,305,315,-1,315,305,309,-1,315,309,316,-1,304,317,305,-1,305,317,318,-1,305,318,280,-1,280,318,319,-1,280,319,320,-1,320,321,280,-1,280,321,322,-1,280,322,323,-1,324,325,326,-1,311,327,309,-1,309,327,328,-1,309,328,329,-1,330,331,332,-1,314,333,309,-1,309,333,334,-1,309,334,316,-1,323,335,280,-1,280,335,336,-1,280,336,337,-1,338,339,309,-1,309,339,340,-1,309,340,313,-1,313,340,341,-1,306,342,307,-1,307,342,343,-1,307,343,344,-1,344,343,279,-1,344,279,345,-1,345,279,280,-1,345,280,346,-1,346,280,337,-1,346,337,347,-1,348,349,350,-1,350,349,346,-1,350,346,351,-1,351,346,347,-1,351,347,352,-1,352,347,353,-1,352,353,330,-1,330,353,354,-1,330,354,331,-1,355,329,356,-1,356,329,357,-1,356,357,358,-1,326,325,332,-1,332,325,359,-1,332,359,330,-1,355,360,329,-1,329,360,361,-1,329,361,309,-1,309,361,362,-1,309,362,338,-1,363,364,365,-1,365,364,366,-1,365,366,340,-1,340,366,367,-1,340,367,341,-1,363,368,364,-1,364,368,369,-1,364,369,326,-1,326,369,370,-1,326,370,324,-1,371,372,373,-1,373,372,374,-1,373,374,375,-1,375,374,376,-1,375,376,348,-1,348,376,377,-1,348,377,349,-1,371,378,372,-1,372,378,379,-1,372,379,357,-1,357,379,380,-1,357,380,358,-1,343,342,381,-1,382,383,384,-1,385,342,386,-1,385,387,342,-1,342,387,388,-1,342,388,381,-1,389,390,391,-1,254,392,253,-1,253,392,393,-1,253,393,394,-1,389,391,381,-1,381,391,395,-1,381,395,343,-1,396,305,397,-1,300,398,299,-1,299,398,396,-1,247,246,399,-1,399,246,400,-1,305,396,312,-1,384,385,382,-1,382,385,386,-1,382,386,401,-1,401,386,244,-1,397,402,396,-1,396,402,403,-1,396,403,299,-1,241,250,404,-1,404,250,405,-1,245,244,406,-1,406,244,386,-1,406,386,400,-1,400,386,393,-1,400,393,399,-1,399,393,392,-1,394,393,405,-1,405,393,312,-1,405,312,404,-1,404,312,396,-1,404,396,407,-1,407,396,408,-1,407,408,409,-1,388,387,410,-1,410,387,411,-1,302,412,269,-1,269,412,270,-1,286,285,413,-1,413,285,414,-1,298,415,300,-1,300,415,398,-1,416,242,417,-1,417,242,236,-1,240,225,236,-1,236,225,224,-1,236,224,223,-1,418,419,420,-1,420,419,421,-1,420,421,422,-1,422,421,28,-1,422,28,423,-1,423,28,27,-1,423,27,240,-1,240,27,226,-1,240,226,225,-1,223,222,236,-1,236,222,221,-1,236,221,220,-1,424,425,426,-1,424,426,427,-1,220,17,236,-1,236,17,18,-1,236,18,417,-1,417,18,233,-1,417,233,426,-1,426,233,428,-1,426,428,427,-1,423,240,429,-1,429,240,238,-1,242,10,153,-1,430,431,432,-1,432,431,227,-1,432,227,433,-1,10,242,11,-1,11,242,416,-1,11,416,227,-1,227,416,434,-1,227,434,433,-1,153,154,242,-1,242,154,155,-1,242,155,167,-1,152,238,150,-1,150,238,242,-1,150,242,148,-1,148,242,167,-1,152,44,238,-1,238,44,46,-1,238,46,429,-1,429,46,435,-1,46,436,435,-1,435,436,437,-1,435,437,438,-1,438,437,439,-1,41,440,39,-1,39,440,441,-1,39,441,45,-1,442,443,444,-1,445,446,447,-1,447,446,442,-1,447,442,448,-1,448,442,444,-1,445,447,43,-1,43,447,449,-1,43,449,450,-1,450,451,43,-1,43,451,452,-1,43,452,453,-1,453,454,43,-1,43,454,440,-1,43,440,41,-1,445,43,455,-1,455,43,49,-1,455,49,47,-1,456,457,458,-1,458,457,441,-1,456,459,457,-1,457,459,460,-1,457,460,461,-1,441,457,45,-1,45,457,462,-1,45,462,463,-1,463,464,45,-1,45,464,465,-1,45,465,466,-1,466,467,45,-1,45,467,455,-1,45,455,47,-1,449,447,457,-1,457,447,462,-1,468,38,469,-1,469,38,33,-1,469,33,29,-1,469,29,470,-1,471,472,473,-1,30,474,29,-1,29,474,475,-1,470,476,469,-1,469,476,471,-1,469,471,477,-1,477,471,473,-1,475,478,29,-1,29,478,479,-1,29,479,480,-1,480,481,29,-1,29,481,482,-1,29,482,470,-1,36,483,34,-1,34,483,474,-1,34,474,30,-1,484,485,486,-1,486,485,468,-1,484,487,485,-1,485,487,488,-1,485,488,489,-1,468,485,38,-1,38,485,490,-1,38,490,491,-1,491,492,38,-1,38,492,493,-1,38,493,494,-1,494,495,38,-1,38,495,483,-1,38,483,36,-1,470,482,485,-1,485,482,490,-1,496,26,497,-1,497,26,21,-1,497,21,19,-1,19,16,497,-1,497,16,498,-1,499,500,501,-1,502,503,497,-1,498,504,505,-1,505,504,499,-1,505,499,506,-1,506,499,501,-1,498,505,497,-1,497,505,507,-1,497,507,502,-1,508,509,503,-1,503,509,510,-1,503,510,497,-1,24,511,15,-1,15,511,498,-1,15,498,16,-1,496,512,513,-1,513,512,514,-1,513,514,515,-1,513,516,496,-1,496,516,517,-1,496,517,26,-1,26,517,518,-1,26,518,519,-1,519,520,26,-1,26,520,521,-1,26,521,522,-1,522,523,26,-1,26,523,511,-1,26,511,24,-1,507,505,517,-1,517,505,518,-1,7,524,13,-1,13,524,525,-1,13,525,14,-1,526,527,7,-1,7,527,528,-1,7,528,524,-1,524,528,529,-1,524,529,530,-1,531,532,530,-1,530,532,533,-1,530,533,524,-1,6,534,7,-1,7,534,535,-1,7,535,536,-1,536,537,7,-1,7,537,538,-1,7,538,526,-1,534,6,539,-1,539,6,4,-1,539,4,3,-1,539,3,14,-1,539,14,540,-1,541,542,14,-1,525,543,544,-1,544,543,545,-1,544,545,546,-1,544,547,525,-1,525,547,548,-1,525,548,14,-1,14,548,549,-1,14,549,541,-1,542,550,14,-1,14,550,551,-1,14,551,540,-1,528,527,548,-1,548,527,549,-1,552,553,52,-1,52,553,58,-1,58,553,59,-1,59,553,554,-1,59,554,0,-1,0,554,54,-1,554,555,54,-1,54,555,56,-1,56,555,210,-1,210,555,552,-1,210,552,51,-1,51,552,52,-1,555,554,552,-1,552,554,553,-1,61,556,64,-1,64,556,557,-1,64,557,69,-1,557,558,69,-1,69,558,67,-1,559,62,558,-1,558,62,66,-1,558,66,67,-1,559,556,62,-1,62,556,61,-1,559,558,556,-1,556,558,557,-1,78,560,79,-1,79,560,561,-1,79,561,74,-1,74,561,75,-1,75,561,562,-1,75,562,77,-1,77,562,207,-1,563,209,562,-1,562,209,208,-1,562,208,207,-1,209,563,70,-1,70,563,560,-1,70,560,71,-1,71,560,78,-1,563,562,560,-1,560,562,561,-1,564,565,161,-1,161,565,164,-1,565,566,164,-1,164,566,165,-1,566,567,165,-1,165,567,160,-1,567,564,160,-1,160,564,161,-1,567,566,564,-1,564,566,565,-1,81,568,215,-1,215,568,569,-1,215,569,86,-1,569,570,86,-1,86,570,85,-1,571,83,570,-1,570,83,84,-1,570,84,85,-1,571,568,83,-1,83,568,81,-1,571,570,568,-1,568,570,569,-1,572,573,159,-1,159,573,158,-1,573,574,158,-1,158,574,157,-1,574,575,157,-1,157,575,156,-1,575,572,156,-1,156,572,159,-1,575,574,572,-1,572,574,573,-1,287,576,285,-1,285,576,414,-1,413,414,577,-1,577,414,576,-1,577,576,578,-1,415,298,579,-1,579,298,297,-1,579,297,580,-1,579,396,415,-1,415,396,398,-1,408,396,292,-1,292,396,579,-1,287,292,576,-1,576,292,579,-1,576,579,578,-1,578,579,580,-1,581,268,412,-1,412,268,270,-1,385,582,387,-1,387,582,411,-1,410,411,583,-1,583,411,582,-1,583,582,584,-1,412,302,581,-1,581,302,301,-1,581,301,585,-1,274,268,384,-1,384,268,581,-1,385,384,582,-1,582,384,581,-1,582,581,584,-1,584,581,585,-1,306,586,342,-1,342,586,386,-1,586,587,386,-1,386,587,393,-1,587,309,393,-1,393,309,312,-1,309,587,306,-1,306,587,586,-1,319,318,588,-1,588,318,589,-1,334,333,590,-1,590,333,591,-1,364,326,592,-1,592,326,593,-1,594,595,336,-1,336,595,337,-1,593,595,592,-1,592,595,588,-1,588,589,592,-1,592,589,590,-1,592,590,591,-1,596,591,597,-1,597,591,598,-1,596,599,591,-1,591,599,600,-1,591,600,592,-1,601,602,603,-1,603,602,604,-1,603,604,593,-1,593,604,605,-1,593,605,595,-1,606,589,607,-1,607,589,608,-1,606,609,589,-1,589,609,610,-1,589,610,590,-1,611,612,613,-1,613,612,614,-1,595,594,588,-1,588,594,612,-1,588,612,615,-1,615,612,611,-1,616,617,369,-1,369,617,370,-1,350,351,618,-1,618,351,619,-1,380,379,620,-1,620,379,621,-1,622,623,362,-1,362,623,338,-1,624,625,618,-1,618,619,617,-1,617,619,626,-1,618,617,622,-1,622,617,616,-1,622,616,623,-1,627,628,618,-1,618,628,629,-1,618,629,624,-1,630,631,622,-1,622,631,620,-1,622,620,618,-1,618,620,621,-1,618,621,627,-1,630,632,631,-1,631,632,633,-1,631,633,634,-1,626,635,636,-1,636,637,626,-1,626,637,638,-1,626,638,617,-1,639,616,640,-1,640,616,641,-1,639,642,616,-1,616,642,643,-1,616,643,623,-1,644,645,357,-1,357,645,372,-1,646,647,345,-1,345,647,344,-1,647,648,344,-1,344,648,307,-1,308,307,649,-1,649,307,648,-1,650,651,652,-1,652,651,649,-1,652,649,653,-1,648,647,644,-1,644,647,646,-1,644,646,645,-1,645,646,654,-1,648,644,649,-1,649,644,655,-1,649,655,653,-1,654,656,645,-1,645,656,657,-1,645,657,658,-1,658,657,659,-1,381,388,583,-1,583,388,410,-1,289,286,577,-1,577,286,413,-1,381,583,389,-1,389,583,584,-1,389,584,585,-1,301,271,585,-1,585,271,277,-1,585,277,389,-1,389,277,276,-1,389,276,390,-1,390,276,267,-1,390,267,391,-1,391,267,266,-1,391,266,395,-1,395,266,279,-1,395,279,343,-1,289,577,290,-1,290,577,578,-1,290,578,580,-1,297,299,580,-1,580,299,403,-1,580,403,290,-1,290,403,402,-1,290,402,295,-1,295,402,397,-1,295,397,296,-1,296,397,305,-1,296,305,280,-1,235,660,246,-1,246,660,400,-1,660,661,400,-1,400,661,406,-1,661,234,406,-1,406,234,245,-1,234,661,235,-1,235,661,660,-1,249,662,254,-1,254,662,392,-1,662,663,392,-1,392,663,399,-1,663,248,399,-1,399,248,247,-1,248,663,249,-1,249,663,662,-1,251,664,250,-1,250,664,405,-1,664,665,405,-1,405,665,394,-1,665,252,394,-1,394,252,253,-1,252,665,251,-1,251,665,664,-1,666,263,281,-1,281,263,264,-1,262,667,261,-1,261,667,278,-1,667,666,278,-1,278,666,281,-1,667,262,666,-1,666,262,263,-1,668,258,282,-1,282,258,256,-1,260,669,265,-1,265,669,284,-1,669,668,284,-1,284,668,282,-1,669,260,668,-1,668,260,258,-1,670,259,288,-1,288,259,237,-1,257,671,255,-1,255,671,283,-1,671,670,283,-1,283,670,288,-1,671,257,670,-1,670,257,259,-1,528,548,547,-1,528,547,529,-1,529,547,544,-1,529,544,530,-1,530,544,546,-1,530,546,531,-1,531,546,545,-1,531,545,532,-1,532,545,543,-1,532,543,533,-1,533,543,525,-1,533,525,524,-1,549,527,526,-1,549,526,541,-1,541,526,538,-1,541,538,542,-1,542,538,537,-1,542,537,550,-1,550,537,536,-1,550,536,551,-1,551,536,535,-1,551,535,540,-1,540,535,534,-1,540,534,539,-1,507,517,516,-1,507,516,502,-1,502,516,513,-1,502,513,503,-1,503,513,515,-1,503,515,508,-1,508,515,514,-1,508,514,509,-1,509,514,512,-1,509,512,510,-1,510,512,496,-1,510,496,497,-1,518,505,506,-1,518,506,519,-1,519,506,501,-1,519,501,520,-1,520,501,500,-1,520,500,521,-1,521,500,499,-1,521,499,522,-1,522,499,504,-1,522,504,523,-1,523,504,498,-1,523,498,511,-1,441,440,454,-1,441,454,458,-1,458,454,453,-1,458,453,456,-1,456,453,452,-1,456,452,459,-1,459,452,451,-1,459,451,460,-1,460,451,450,-1,460,450,461,-1,461,450,449,-1,461,449,457,-1,445,455,467,-1,445,467,446,-1,446,467,466,-1,446,466,442,-1,442,466,465,-1,442,465,443,-1,443,465,464,-1,443,464,444,-1,444,464,463,-1,444,463,448,-1,448,463,462,-1,448,462,447,-1,468,469,477,-1,468,477,486,-1,486,477,473,-1,486,473,484,-1,484,473,472,-1,484,472,487,-1,487,472,471,-1,487,471,488,-1,488,471,476,-1,488,476,489,-1,489,476,470,-1,489,470,485,-1,474,483,495,-1,474,495,475,-1,475,495,494,-1,475,494,478,-1,478,494,493,-1,478,493,479,-1,479,493,492,-1,479,492,480,-1,480,492,491,-1,480,491,481,-1,481,491,490,-1,481,490,482,-1,233,232,428,-1,428,232,231,-1,428,231,230,-1,230,229,431,-1,431,229,228,-1,431,228,227,-1,230,431,428,-1,428,431,430,-1,428,430,427,-1,427,430,432,-1,427,432,424,-1,424,432,433,-1,424,433,425,-1,425,433,434,-1,425,434,426,-1,426,434,416,-1,426,416,417,-1,46,48,436,-1,436,48,50,-1,436,50,211,-1,211,37,421,-1,421,37,35,-1,421,35,28,-1,211,421,436,-1,436,421,419,-1,436,419,437,-1,437,419,418,-1,437,418,439,-1,439,418,420,-1,439,420,438,-1,438,420,422,-1,438,422,435,-1,435,422,423,-1,435,423,429,-1,243,272,244,-1,244,272,401,-1,272,273,401,-1,401,273,382,-1,383,382,275,-1,275,382,273,-1,291,293,409,-1,409,293,407,-1,293,294,407,-1,407,294,404,-1,294,239,404,-1,404,239,241,-1,672,673,674,-1,674,673,675,-1,675,673,676,-1,675,676,677,-1,677,676,678,-1,677,678,679,-1,679,678,680,-1,679,680,681,-1,681,680,682,-1,681,682,683,-1,683,682,684,-1,683,684,685,-1,684,686,685,-1,685,686,687,-1,685,687,688,-1,688,687,689,-1,688,689,690,-1,690,689,691,-1,690,691,692,-1,692,691,693,-1,692,693,694,-1,694,693,695,-1,694,695,696,-1,696,695,275,-1,696,275,274,-1,672,697,673,-1,673,697,698,-1,673,698,676,-1,676,698,699,-1,676,699,678,-1,699,700,678,-1,678,700,701,-1,678,701,680,-1,680,701,682,-1,701,702,682,-1,682,702,703,-1,682,703,684,-1,684,703,686,-1,703,704,686,-1,686,704,705,-1,686,705,687,-1,687,705,706,-1,687,706,689,-1,689,706,707,-1,689,707,691,-1,691,707,693,-1,693,707,695,-1,695,707,708,-1,695,708,275,-1,275,708,709,-1,275,709,383,-1,710,698,697,-1,384,383,709,-1,384,709,711,-1,711,709,708,-1,711,708,712,-1,712,708,713,-1,713,708,707,-1,713,707,714,-1,707,706,714,-1,714,706,705,-1,714,705,715,-1,715,705,704,-1,715,704,716,-1,716,704,717,-1,717,704,703,-1,717,703,718,-1,718,703,702,-1,718,702,719,-1,719,702,701,-1,719,701,720,-1,720,701,700,-1,720,700,699,-1,698,710,699,-1,699,710,721,-1,699,721,720,-1,697,672,710,-1,710,672,674,-1,710,674,721,-1,721,674,675,-1,721,675,720,-1,720,675,677,-1,720,677,719,-1,719,677,679,-1,719,679,718,-1,718,679,681,-1,718,681,717,-1,717,681,683,-1,717,683,716,-1,716,683,685,-1,716,685,715,-1,685,688,715,-1,715,688,690,-1,715,690,714,-1,714,690,692,-1,714,692,713,-1,713,692,712,-1,712,692,711,-1,711,692,694,-1,711,694,384,-1,384,694,696,-1,384,696,274,-1,722,723,724,-1,722,724,725,-1,724,726,725,-1,725,726,727,-1,725,727,728,-1,728,727,729,-1,727,730,729,-1,729,730,731,-1,729,731,732,-1,732,731,733,-1,731,734,733,-1,733,734,735,-1,733,735,736,-1,735,737,736,-1,736,737,738,-1,736,738,739,-1,739,738,740,-1,739,740,741,-1,741,740,742,-1,741,742,743,-1,743,742,744,-1,744,742,745,-1,744,745,746,-1,746,745,409,-1,409,745,747,-1,409,747,291,-1,748,726,724,-1,292,291,749,-1,749,291,747,-1,749,747,750,-1,747,745,750,-1,750,745,742,-1,750,742,751,-1,751,742,740,-1,751,740,752,-1,752,740,738,-1,752,738,753,-1,753,738,737,-1,753,737,754,-1,754,737,735,-1,754,735,755,-1,755,735,756,-1,756,735,734,-1,756,734,731,-1,726,748,727,-1,727,748,757,-1,727,757,730,-1,730,757,758,-1,730,758,731,-1,731,758,759,-1,731,759,756,-1,723,722,760,-1,732,761,762,-1,760,722,763,-1,763,722,725,-1,763,725,764,-1,764,725,728,-1,764,728,762,-1,762,728,729,-1,762,729,732,-1,736,765,766,-1,761,732,766,-1,766,732,733,-1,766,733,736,-1,765,736,767,-1,767,736,739,-1,767,739,768,-1,768,739,741,-1,768,741,769,-1,769,741,743,-1,769,743,770,-1,743,744,770,-1,770,744,746,-1,770,746,771,-1,771,746,409,-1,771,409,408,-1,750,769,749,-1,749,769,770,-1,749,770,292,-1,292,770,771,-1,292,771,408,-1,750,751,769,-1,769,751,752,-1,769,752,768,-1,768,752,753,-1,724,723,748,-1,748,723,760,-1,748,760,757,-1,757,760,763,-1,757,763,758,-1,758,763,764,-1,758,764,759,-1,759,764,762,-1,759,762,756,-1,756,762,761,-1,756,761,755,-1,755,761,766,-1,755,766,754,-1,754,766,765,-1,754,765,753,-1,753,765,767,-1,753,767,768,-1,594,336,335,-1,594,335,612,-1,612,335,323,-1,612,323,614,-1,614,323,322,-1,614,322,613,-1,613,322,321,-1,613,321,611,-1,611,321,320,-1,611,320,615,-1,615,320,319,-1,615,319,588,-1,589,318,317,-1,589,317,608,-1,608,317,304,-1,608,304,607,-1,607,304,303,-1,607,303,606,-1,606,303,315,-1,606,315,609,-1,609,315,316,-1,609,316,610,-1,610,316,334,-1,610,334,590,-1,591,333,314,-1,591,314,598,-1,598,314,313,-1,598,313,597,-1,597,313,341,-1,597,341,596,-1,596,341,367,-1,596,367,599,-1,599,367,366,-1,599,366,600,-1,600,366,364,-1,600,364,592,-1,593,326,332,-1,593,332,603,-1,603,332,331,-1,603,331,601,-1,601,331,354,-1,601,354,602,-1,602,354,353,-1,602,353,604,-1,604,353,347,-1,604,347,605,-1,605,347,337,-1,605,337,595,-1,380,620,358,-1,358,620,631,-1,358,631,356,-1,356,631,634,-1,356,634,355,-1,355,634,633,-1,355,633,360,-1,360,633,632,-1,360,632,361,-1,361,632,630,-1,361,630,362,-1,362,630,622,-1,338,623,339,-1,339,623,643,-1,339,643,340,-1,340,643,642,-1,340,642,365,-1,365,642,639,-1,365,639,363,-1,363,639,640,-1,363,640,368,-1,368,640,641,-1,368,641,369,-1,369,641,616,-1,350,618,348,-1,348,618,625,-1,348,625,375,-1,375,625,624,-1,375,624,373,-1,373,624,629,-1,373,629,371,-1,371,629,628,-1,371,628,378,-1,378,628,627,-1,378,627,379,-1,379,627,621,-1,370,617,324,-1,324,617,638,-1,324,638,325,-1,325,638,637,-1,325,637,359,-1,359,637,636,-1,359,636,330,-1,330,636,635,-1,330,635,352,-1,352,635,626,-1,352,626,351,-1,351,626,619,-1,308,649,310,-1,310,649,651,-1,310,651,311,-1,311,651,650,-1,311,650,327,-1,327,650,652,-1,327,652,328,-1,328,652,653,-1,328,653,329,-1,329,653,655,-1,329,655,357,-1,357,655,644,-1,372,645,374,-1,374,645,658,-1,374,658,376,-1,376,658,659,-1,376,659,377,-1,377,659,657,-1,377,657,349,-1,349,657,656,-1,349,656,346,-1,346,656,654,-1,346,654,345,-1,345,654,646,-1,
        ]
    }
}
Shape{
    appearance Appearance {
        material  Material 	{
            diffuseColor 1.0 1.0 1.0
            specularColor 0.8784313725490196 0.8784313725490196 0.8784313725490196
            ambientIntensity 1.0
            transparency 0.0
            shininess 0.5
        }
    }
    geometry IndexedFaceSet {
        ccw TRUE
        solid FALSE
        coord DEF co Coordinate {
            point [
                0.0246 -0.9331 0.1142, 0.0159 -0.9331 0.1142, 0.0246 -0.9331 0.1181, 0.0159 -0.9331 0.1181, 0.0246 -0.9629 0.1142, 0.0246 -0.9629 0.1181, 0.0947 -0.9629 0.1142, 0.0947 -0.9629 0.1181, 0.0947 -0.9734 0.1142, 0.0947 -0.9734 0.1181, 0.0159 -0.9734 0.1142, 0.0159 -0.9734 0.1181, 0.0287 -0.8678 0.1142, 0.02 -0.8678 0.1142, 0.0287 -0.8678 0.1181, 0.02 -0.8678 0.1181, 0.0279 -0.8692 0.1181, 0.0279 -0.8692 0.1142, 0.0248 -0.8775 0.1181, 0.0248 -0.8775 0.1142, 0.0236 -0.888 0.1181, 0.0236 -0.888 0.1142, 0.0244 -0.8953 0.1181, 0.0244 -0.8953 0.1142, 0.0249 -0.8965 0.1181, 0.0265 -0.9011 0.1142, 0.0265 -0.9011 0.1181, 0.0298 -0.9059 0.1181, 0.0298 -0.9059 0.1142, 0.0337 -0.9096 0.1181, 0.0337 -0.9096 0.1142, 0.0392 -0.9129 0.1181, 0.0392 -0.9129 0.1142, 0.0459 -0.915 0.1181, 0.0459 -0.915 0.1142, 0.0545 -0.9158 0.1181, 0.0545 -0.9158 0.1142, 0.084 -0.8999 0.1181, 0.0803 -0.9053 0.1142, 0.0803 -0.9053 0.1181, 0.0751 -0.9101 0.1142, 0.0751 -0.9101 0.1181, 0.069 -0.9133 0.1142, 0.069 -0.9133 0.1181, 0.0606 -0.9154 0.1142, 0.0606 -0.9154 0.1181, 0.0852 -0.8965 0.1181, 0.0861 -0.894 0.1142, 0.084 -0.8999 0.1142, 0.0861 -0.894 0.1181, 0.087 -0.8862 0.1181, 0.087 -0.8862 0.1142, 0.0857 -0.8767 0.1181, 0.0857 -0.8767 0.1142, 0.0819 -0.8678 0.1181, 0.0819 -0.8678 0.1142, 0.0925 -0.8678 0.1142, 0.0925 -0.8678 0.1181, 0.095 -0.8769 0.1181, 0.095 -0.8769 0.1142, 0.0956 -0.8863 0.1181, 0.0956 -0.8863 0.1142, 0.095 -0.8942 0.1181, 0.095 -0.8942 0.1142, 0.0943 -0.8965 0.1181, 0.0924 -0.903 0.1142, 0.0924 -0.903 0.1181, 0.0881 -0.9105 0.1181, 0.0881 -0.9105 0.1142, 0.0813 -0.9176 0.1181, 0.0813 -0.9176 0.1142, 0.0739 -0.9222 0.1181, 0.0739 -0.9222 0.1142, 0.065 -0.9252 0.1181, 0.065 -0.9252 0.1142, 0.0538 -0.9264 0.1181, 0.0538 -0.9264 0.1142, 0.0154 -0.8941 0.1181, 0.015 -0.8895 0.1181, 0.015 -0.8895 0.1142, 0.0157 -0.8965 0.1181, 0.016 -0.8992 0.1142, 0.016 -0.8992 0.1181, 0.0186 -0.9068 0.1142, 0.0186 -0.9068 0.1181, 0.0226 -0.9131 0.1142, 0.0226 -0.9131 0.1181, 0.0289 -0.919 0.1142, 0.0289 -0.919 0.1181, 0.0364 -0.9232 0.1142, 0.0364 -0.9232 0.1181, 0.0447 -0.9256 0.1142, 0.0447 -0.9256 0.1181, 0.0166 -0.8762 0.1142, 0.015 -0.8873 0.1181, 0.015 -0.8873 0.1142, 0.0154 -0.8841 0.1181, 0.0166 -0.8762 0.1181, 0.0246 -0.8102 0.1142, 0.0159 -0.8102 0.1142, 0.0246 -0.8102 0.1181, 0.0159 -0.8102 0.1181, 0.0246 -0.8419 0.1142, 0.0246 -0.8419 0.1181, 0.0515 -0.8419 0.1142, 0.0515 -0.8419 0.1181, 0.0515 -0.814 0.1142, 0.0515 -0.814 0.1181, 0.0601 -0.814 0.1142, 0.0601 -0.814 0.1181, 0.0601 -0.8419 0.1142, 0.0601 -0.8419 0.1181, 0.086 -0.8419 0.1142, 0.086 -0.8419 0.1181, 0.086 -0.8121 0.1142, 0.086 -0.8121 0.1181, 0.0947 -0.8121 0.1142, 0.0947 -0.8121 0.1181, 0.0947 -0.8524 0.1142, 0.0947 -0.8524 0.1181, 0.0159 -0.8524 0.1142, 0.0159 -0.8524 0.1181, 0.0715 -0.7341 0.1142, 0.0782 -0.7378 0.1142, 0.075 -0.7472 0.1142, 0.0844 -0.7433 0.1142, 0.079 -0.7511 0.1142, 0.0845 -0.7434 0.1142, 0.0828 -0.7568 0.1142, 0.0902 -0.752 0.1142, 0.085 -0.7633 0.1142, 0.0935 -0.7612 0.1142, 0.086 -0.7726 0.1142, 0.0947 -0.7726 0.1142, 0.086 -0.7842 0.1142, 0.0947 -0.7948 0.1142, 0.0246 -0.7842 0.1142, 0.0159 -0.7948 0.1142, 0.0246 -0.7731 0.1142, 0.0159 -0.7734 0.1142, 0.0253 -0.7648 0.1142, 0.0168 -0.7637 0.1142, 0.0274 -0.7581 0.1142, 0.0195 -0.7546 0.1142, 0.0306 -0.7528 0.1142, 0.0243 -0.7464 0.1142, 0.035 -0.7483 0.1142, 0.0305 -0.7399 0.1142, 0.0404 -0.745 0.1142, 0.0375 -0.7354 0.1142, 0.0478 -0.7427 0.1142, 0.0458 -0.7325 0.1142, 0.0561 -0.742 0.1142, 0.0563 -0.7314 0.1142, 0.0639 -0.7427 0.1142, 0.0637 -0.732 0.1142, 0.0701 -0.7445 0.1142, 0.0159 -0.7734 0.1181, 0.0159 -0.7948 0.1181, 0.0168 -0.7637 0.1181, 0.0195 -0.7546 0.1181, 0.0243 -0.7464 0.1181, 0.0305 -0.7399 0.1181, 0.0375 -0.7354 0.1181, 0.0458 -0.7325 0.1181, 0.0563 -0.7314 0.1181, 0.0637 -0.732 0.1181, 0.0715 -0.7341 0.1181, 0.0782 -0.7378 0.1181, 0.0844 -0.7433 0.1181, 0.0845 -0.7434 0.1181, 0.0902 -0.752 0.1181, 0.0935 -0.7612 0.1181, 0.0947 -0.7726 0.1181, 0.0947 -0.7948 0.1181, 0.086 -0.7726 0.1181, 0.086 -0.7842 0.1181, 0.0246 -0.7842 0.1181, 0.0246 -0.7731 0.1181, 0.0561 -0.742 0.1181, 0.0478 -0.7427 0.1181, 0.0404 -0.745 0.1181, 0.035 -0.7483 0.1181, 0.0306 -0.7528 0.1181, 0.0274 -0.7581 0.1181, 0.0253 -0.7648 0.1181, 0.085 -0.7633 0.1181, 0.0828 -0.7568 0.1181, 0.079 -0.7511 0.1181, 0.075 -0.7472 0.1181, 0.0701 -0.7445 0.1181, 0.0639 -0.7427 0.1181
            ]
        }
        coordIndex [
            0,1,2,-1,2,1,3,-1,4,0,5,-1,5,0,2,-1,6,4,7,-1,7,4,5,-1,8,6,9,-1,9,6,7,-1,10,8,11,-1,11,8,9,-1,1,10,3,-1,3,10,11,-1,6,8,4,-1,4,8,10,-1,4,10,0,-1,0,10,1,-1,12,13,14,-1,14,13,15,-1,12,14,16,-1,12,16,17,-1,17,16,18,-1,17,18,19,-1,19,18,20,-1,19,20,21,-1,21,20,22,-1,21,22,23,-1,23,22,24,-1,23,24,25,-1,24,26,25,-1,25,26,27,-1,25,27,28,-1,28,27,29,-1,28,29,30,-1,30,29,31,-1,30,31,32,-1,32,31,33,-1,32,33,34,-1,34,33,35,-1,34,35,36,-1,37,38,39,-1,39,38,40,-1,39,40,41,-1,41,40,42,-1,41,42,43,-1,43,42,44,-1,43,44,45,-1,45,44,36,-1,45,36,35,-1,46,47,37,-1,37,47,48,-1,37,48,38,-1,46,49,47,-1,47,49,50,-1,47,50,51,-1,51,50,52,-1,51,52,53,-1,53,52,54,-1,53,54,55,-1,56,55,57,-1,57,55,54,-1,56,57,58,-1,56,58,59,-1,59,58,60,-1,59,60,61,-1,61,60,62,-1,61,62,63,-1,63,62,64,-1,63,64,65,-1,64,66,65,-1,65,66,67,-1,65,67,68,-1,68,67,69,-1,68,69,70,-1,70,69,71,-1,70,71,72,-1,72,71,73,-1,72,73,74,-1,74,73,75,-1,74,75,76,-1,77,78,79,-1,77,79,80,-1,80,79,81,-1,80,81,82,-1,82,81,83,-1,82,83,84,-1,84,83,85,-1,84,85,86,-1,86,85,87,-1,86,87,88,-1,88,87,89,-1,88,89,90,-1,90,89,91,-1,90,91,92,-1,92,91,76,-1,92,76,75,-1,15,13,93,-1,79,78,94,-1,79,94,95,-1,95,94,96,-1,95,96,93,-1,93,96,97,-1,93,97,15,-1,23,79,21,-1,21,79,95,-1,21,95,19,-1,19,95,93,-1,19,93,17,-1,17,93,13,-1,17,13,12,-1,55,56,53,-1,53,56,59,-1,53,59,51,-1,51,59,61,-1,51,61,47,-1,47,61,63,-1,47,63,48,-1,48,63,65,-1,48,65,38,-1,38,65,68,-1,38,68,40,-1,40,68,70,-1,40,70,42,-1,42,70,72,-1,42,72,44,-1,44,72,74,-1,44,74,36,-1,36,74,76,-1,36,76,34,-1,34,76,91,-1,34,91,32,-1,32,91,89,-1,32,89,30,-1,30,89,87,-1,30,87,28,-1,28,87,85,-1,28,85,25,-1,25,85,83,-1,25,83,23,-1,23,83,81,-1,23,81,79,-1,98,99,100,-1,100,99,101,-1,102,98,103,-1,103,98,100,-1,104,102,105,-1,105,102,103,-1,106,104,107,-1,107,104,105,-1,108,106,109,-1,109,106,107,-1,110,108,111,-1,111,108,109,-1,112,110,113,-1,113,110,111,-1,114,112,115,-1,115,112,113,-1,116,114,117,-1,117,114,115,-1,118,116,119,-1,119,116,117,-1,120,118,121,-1,121,118,119,-1,99,120,101,-1,101,120,121,-1,106,108,104,-1,104,108,110,-1,99,98,120,-1,120,98,102,-1,114,116,112,-1,112,116,118,-1,112,118,110,-1,110,118,120,-1,110,120,104,-1,104,120,102,-1,122,123,124,-1,124,123,125,-1,124,125,126,-1,126,125,127,-1,126,127,128,-1,128,127,129,-1,128,129,130,-1,130,129,131,-1,130,131,132,-1,132,131,133,-1,132,133,134,-1,134,133,135,-1,134,135,136,-1,136,135,137,-1,136,137,138,-1,138,137,139,-1,138,139,140,-1,140,139,141,-1,140,141,142,-1,142,141,143,-1,142,143,144,-1,144,143,145,-1,144,145,146,-1,146,145,147,-1,146,147,148,-1,148,147,149,-1,148,149,150,-1,150,149,151,-1,150,151,152,-1,152,151,153,-1,152,153,154,-1,154,153,155,-1,154,155,156,-1,156,155,122,-1,156,122,124,-1,139,137,157,-1,157,137,158,-1,139,157,159,-1,139,159,141,-1,141,159,160,-1,141,160,143,-1,143,160,161,-1,143,161,145,-1,145,161,162,-1,145,162,147,-1,147,162,163,-1,147,163,149,-1,149,163,164,-1,149,164,151,-1,151,164,165,-1,151,165,153,-1,153,165,166,-1,153,166,155,-1,155,166,167,-1,155,167,122,-1,122,167,168,-1,122,168,123,-1,123,168,169,-1,123,169,125,-1,125,169,170,-1,125,170,127,-1,127,170,171,-1,127,171,129,-1,129,171,172,-1,129,172,131,-1,131,172,173,-1,131,173,133,-1,135,133,174,-1,174,133,173,-1,137,135,158,-1,158,135,174,-1,132,134,175,-1,175,134,176,-1,134,136,176,-1,176,136,177,-1,136,138,177,-1,177,138,178,-1,152,179,180,-1,152,180,150,-1,150,180,181,-1,150,181,148,-1,148,181,182,-1,148,182,146,-1,146,182,183,-1,146,183,144,-1,144,183,184,-1,144,184,142,-1,142,184,185,-1,142,185,140,-1,140,185,178,-1,140,178,138,-1,132,175,186,-1,132,186,130,-1,130,186,187,-1,130,187,128,-1,128,187,188,-1,128,188,126,-1,126,188,189,-1,126,189,124,-1,124,189,190,-1,124,190,156,-1,156,190,191,-1,156,191,154,-1,154,191,179,-1,154,179,152,-1,
        ]
    }
}
Shape{
    appearance Appearance {
        material  Material 	{
            diffuseColor 0.25098039215686274 0.25098039215686274 0.25098039215686274
            specularColor 0.12549019607843137 0.12549019607843137 0.12549019607843137
            ambientIntensity 0.251
            transparency 0.0
            shininess 0.5
        }
    }
    geometry IndexedFaceSet {
        ccw TRUE
        solid FALSE
        coord DEF co Coordinate {
            point [
                0.086 -0.7842 0.1181, 0.0246 -0.7842 0.1181, 0.086 -0.7726 0.1181, 0.0246 -0.7731 0.1181, 0.0253 -0.7648 0.1181, 0.0561 -0.742 0.1181, 0.0639 -0.7427 0.1181, 0.0701 -0.7445 0.1181, 0.085 -0.7633 0.1181, 0.0274 -0.7581 0.1181, 0.0306 -0.7528 0.1181, 0.035 -0.7483 0.1181, 0.0404 -0.745 0.1181, 0.0478 -0.7427 0.1181, 0.075 -0.7472 0.1181, 0.079 -0.7511 0.1181, 0.0828 -0.7568 0.1181
            ]
        }
        coordIndex [
            0,1,2,-1,2,1,3,-1,2,3,4,-1,5,6,2,-1,2,6,7,-1,2,7,8,-1,4,9,2,-1,2,9,10,-1,2,10,11,-1,11,12,2,-1,2,12,13,-1,2,13,5,-1,14,15,7,-1,7,15,16,-1,7,16,8,-1,
        ]
    }
}
Shape{
    appearance Appearance {
        material  Material 	{
            diffuseColor 1.0 1.0 1.0
            specularColor 0.8784313725490196 0.8784313725490196 0.8784313725490196
            ambientIntensity 1.0
            transparency 0.0
            shininess 0.5
        }
    }
    geometry IndexedFaceSet {
        ccw TRUE
        solid FALSE
        coord DEF co Coordinate {
            point [
                0.0467 -0.704 0.1142, 0.0795 -0.6922 0.1142, 0.0947 -0.6959 0.1142, 0.0159 -0.7257 0.1142, 0.0159 -0.7141 0.1142, 0.038 -0.7066 0.1142, 0.0823 -0.6915 0.1142, 0.0851 -0.691 0.1142, 0.0947 -0.6853 0.1142, 0.0851 -0.6907 0.1142, 0.0823 -0.6902 0.1142, 0.0467 -0.6776 0.1142, 0.038 -0.6741 0.1142, 0.0795 -0.6895 0.1142, 0.0159 -0.6546 0.1142, 0.0159 -0.6661 0.1142, 0.0947 -0.6853 0.1181, 0.0159 -0.6546 0.1181, 0.0947 -0.6959 0.1181, 0.0159 -0.7257 0.1181, 0.0159 -0.7141 0.1181, 0.038 -0.7066 0.1181, 0.038 -0.6741 0.1181, 0.0159 -0.6661 0.1181, 0.0467 -0.704 0.1181, 0.0467 -0.6776 0.1181, 0.0795 -0.6895 0.1181, 0.0851 -0.6907 0.1181, 0.0823 -0.6902 0.1181, 0.0851 -0.691 0.1181, 0.0795 -0.6922 0.1181, 0.0823 -0.6915 0.1181
            ]
        }
        coordIndex [
            0,1,2,-1,3,4,5,-1,1,6,2,-1,2,6,7,-1,2,7,8,-1,8,7,9,-1,8,9,10,-1,2,3,0,-1,0,3,5,-1,0,5,11,-1,11,5,12,-1,10,13,8,-1,8,13,11,-1,8,11,14,-1,14,11,12,-1,14,12,15,-1,8,14,16,-1,16,14,17,-1,2,8,18,-1,18,8,16,-1,3,2,19,-1,19,2,18,-1,4,3,20,-1,20,3,19,-1,5,4,21,-1,21,4,20,-1,12,5,22,-1,22,5,21,-1,15,12,23,-1,23,12,22,-1,14,15,17,-1,17,15,23,-1,0,11,24,-1,24,11,25,-1,11,13,25,-1,25,13,26,-1,9,27,28,-1,9,28,10,-1,10,28,26,-1,10,26,13,-1,9,7,27,-1,27,7,29,-1,1,30,31,-1,1,31,6,-1,6,31,29,-1,6,29,7,-1,1,0,30,-1,30,0,24,-1,
        ]
    }
}
Shape{
    appearance Appearance {
        material  Material 	{
            diffuseColor 0.25098039215686274 0.25098039215686274 0.25098039215686274
            specularColor 0.12549019607843137 0.12549019607843137 0.12549019607843137
            ambientIntensity 0.251
            transparency 0.0
            shininess 0.5
        }
    }
    geometry IndexedFaceSet {
        ccw TRUE
        solid FALSE
        coord DEF co Coordinate {
            point [
                0.0467 -0.704 0.1181, 0.0467 -0.6776 0.1181, 0.0795 -0.6922 0.1181, 0.0795 -0.6895 0.1181, 0.0823 -0.6915 0.1181, 0.0823 -0.6902 0.1181, 0.0851 -0.691 0.1181, 0.0851 -0.6907 0.1181
            ]
        }
        coordIndex [
            0,1,2,-1,2,1,3,-1,2,3,4,-1,4,3,5,-1,4,5,6,-1,6,5,7,-1,
        ]
    }
}
Shape{
    appearance Appearance {
        material  Material 	{
            diffuseColor 1.0 1.0 1.0
            specularColor 0.5019607843137255 0.5019607843137255 0.5019607843137255
            ambientIntensity 1.0
            transparency 0.0
            shininess 0.5
        }
    }
    geometry IndexedFaceSet {
        ccw TRUE
        solid FALSE
        coord DEF co Coordinate {
            point [
                -0.6791 -1.0827 0.3701, -0.6693 -1.0827 0.4331, -0.6791 -0.8858 0.3701, -0.6693 -0.8858 0.4331, -0.6791 -0.9205 -1.1811, -0.6791 -1.048 -1.1811, -0.6791 -0.8858 -0.9842, -0.6791 -1.0827 -0.9842, -0.5807 -0.9205 -1.1811, -0.5807 -1.048 -1.1811, -0.5807 -0.8858 0.3701, -0.5807 -1.0827 0.3701, -0.5807 -0.8858 -0.9842, -0.5807 -1.0827 -0.9842, -0.5709 -1.0827 0.4331, -0.5709 -0.8858 0.4331
            ]
        }
        coordIndex [
            0,1,2,-1,2,1,3,-1,4,5,6,-1,6,5,7,-1,6,7,2,-1,2,7,0,-1,8,9,4,-1,4,9,5,-1,10,11,12,-1,12,11,13,-1,12,13,8,-1,8,13,9,-1,14,11,15,-1,15,11,10,-1,1,14,3,-1,3,14,15,-1,14,1,11,-1,11,1,0,-1,11,0,13,-1,13,0,7,-1,12,6,10,-1,10,6,2,-1,10,2,15,-1,15,2,3,-1,
        ]
    }
}
Shape{
    appearance Appearance {
        material  Material 	{
            diffuseColor 1.0 1.0 1.0
            specularColor 0.8784313725490196 0.8784313725490196 0.8784313725490196
            ambientIntensity 1.0
            transparency 0.0
            shininess 0.5
        }
    }
    geometry IndexedFaceSet {
        ccw TRUE
        solid FALSE
        coord DEF co Coordinate {
            point [
                -0.5807 -0.8858 -0.9842, -0.5807 -0.9205 -1.1811, -0.6791 -0.8858 -0.9842, -0.6791 -0.9205 -1.1811, -0.5807 -1.048 -1.1811, -0.5807 -1.0827 -0.9842, -0.6791 -1.048 -1.1811, -0.6791 -1.0827 -0.9842
            ]
        }
        coordIndex [
            0,1,2,-1,2,1,3,-1,4,5,6,-1,6,5,7,-1,
        ]
    }
}
Shape{
    appearance Appearance {
        material  Material 	{
            diffuseColor 1.0 1.0 1.0
            specularColor 0.5019607843137255 0.5019607843137255 0.5019607843137255
            ambientIntensity 1.0
            transparency 0.0
            shininess 0.5
        }
    }
    geometry IndexedFaceSet {
        ccw TRUE
        solid FALSE
        coord DEF co Coordinate {
            point [
                -0.6791 0.8858 0.3701, -0.6693 0.8858 0.4331, -0.6791 1.0827 0.3701, -0.6693 1.0827 0.4331, -0.6791 1.048 -1.1811, -0.6791 0.9205 -1.1811, -0.6791 1.0827 -0.9842, -0.6791 0.8858 -0.9842, -0.5807 1.048 -1.1811, -0.5807 0.9205 -1.1811, -0.5807 1.0827 0.3701, -0.5807 0.8858 0.3701, -0.5807 1.0827 -0.9842, -0.5807 0.8858 -0.9842, -0.5709 0.8858 0.4331, -0.5709 1.0827 0.4331
            ]
        }
        coordIndex [
            0,1,2,-1,2,1,3,-1,4,5,6,-1,6,5,7,-1,6,7,2,-1,2,7,0,-1,8,9,4,-1,4,9,5,-1,10,11,12,-1,12,11,13,-1,12,13,8,-1,8,13,9,-1,14,11,15,-1,15,11,10,-1,1,14,3,-1,3,14,15,-1,14,1,11,-1,11,1,0,-1,11,0,13,-1,13,0,7,-1,12,6,10,-1,10,6,2,-1,10,2,15,-1,15,2,3,-1,
        ]
    }
}
Shape{
    appearance Appearance {
        material  Material 	{
            diffuseColor 1.0 1.0 1.0
            specularColor 0.8784313725490196 0.8784313725490196 0.8784313725490196
            ambientIntensity 1.0
            transparency 0.0
            shininess 0.5
        }
    }
    geometry IndexedFaceSet {
        ccw TRUE
        solid FALSE
        coord DEF co Coordinate {
            point [
                -0.5807 1.0827 -0.9842, -0.5807 1.048 -1.1811, -0.6791 1.0827 -0.9842, -0.6791 1.048 -1.1811, -0.5807 0.9205 -1.1811, -0.5807 0.8858 -0.9842, -0.6791 0.9205 -1.1811, -0.6791 0.8858 -0.9842
            ]
        }
        coordIndex [
            0,1,2,-1,2,1,3,-1,4,5,6,-1,6,5,7,-1,
        ]
    }
}
Shape{
    appearance Appearance {
        material  Material 	{
            diffuseColor 1.0 1.0 1.0
            specularColor 0.5019607843137255 0.5019607843137255 0.5019607843137255
            ambientIntensity 1.0
            transparency 0.0
            shininess 0.5
        }
    }
    geometry IndexedFaceSet {
        ccw TRUE
        solid FALSE
        coord DEF co Coordinate {
            point [
                0.5709 -1.0827 0.4331, 0.6693 -1.0827 0.4331, 0.5709 -0.8858 0.4331, 0.6693 -0.8858 0.4331, 0.5807 -1.0827 0.3701, 0.5807 -0.8858 0.3701, 0.6791 -1.0827 0.3701, 0.6791 -0.8858 0.3701
            ]
        }
        coordIndex [
            0,1,2,-1,2,1,3,-1,4,0,5,-1,5,0,2,-1,1,6,3,-1,3,6,7,-1,1,0,6,-1,6,0,4,-1,5,2,7,-1,7,2,3,-1,
        ]
    }
}
Shape{
    appearance Appearance {
        material  Material 	{
            diffuseColor 1.0 1.0 1.0
            specularColor 0.8784313725490196 0.8784313725490196 0.8784313725490196
            ambientIntensity 1.0
            transparency 0.0
            shininess 0.5
        }
    }
    geometry IndexedFaceSet {
        ccw TRUE
        solid FALSE
        coord DEF co Coordinate {
            point [
                0.5807 -1.0827 0.3701, 0.5807 -0.8858 0.3701, 0.6791 -1.0827 0.3701, 0.6791 -0.8858 0.3701
            ]
        }
        coordIndex [
            0,1,2,-1,2,1,3,-1,
        ]
    }
}
Shape{
    appearance Appearance {
        material  Material 	{
            diffuseColor 1.0 1.0 1.0
            specularColor 0.5019607843137255 0.5019607843137255 0.5019607843137255
            ambientIntensity 1.0
            transparency 0.0
            shininess 0.5
        }
    }
    geometry IndexedFaceSet {
        ccw TRUE
        solid FALSE
        coord DEF co Coordinate {
            point [
                0.5709 0.8858 0.4331, 0.6693 0.8858 0.4331, 0.5709 1.0827 0.4331, 0.6693 1.0827 0.4331, 0.5807 0.8858 0.3701, 0.5807 1.0827 0.3701, 0.6791 0.8858 0.3701, 0.6791 1.0827 0.3701
            ]
        }
        coordIndex [
            0,1,2,-1,2,1,3,-1,4,0,5,-1,5,0,2,-1,1,6,3,-1,3,6,7,-1,1,0,6,-1,6,0,4,-1,5,2,7,-1,7,2,3,-1,
        ]
    }
}
Shape{
    appearance Appearance {
        material  Material 	{
            diffuseColor 1.0 1.0 1.0
            specularColor 0.8784313725490196 0.8784313725490196 0.8784313725490196
            ambientIntensity 1.0
            transparency 0.0
            shininess 0.5
        }
    }
    geometry IndexedFaceSet {
        ccw TRUE
        solid FALSE
        coord DEF co Coordinate {
            point [
                0.5807 0.8858 0.3701, 0.5807 1.0827 0.3701, 0.6791 0.8858 0.3701, 0.6791 1.0827 0.3701
            ]
        }
        coordIndex [
            0,1,2,-1,2,1,3,-1,
        ]
    }
}
Shape{
    appearance Appearance {
        material  Material 	{
            diffuseColor 1.0 1.0 1.0
            specularColor 0.5019607843137255 0.5019607843137255 0.5019607843137255
            ambientIntensity 1.0
            transparency 0.0
            shininess 0.5
        }
    }
    geometry IndexedFaceSet {
        ccw TRUE
        solid FALSE
        coord DEF co Coordinate {
            point [
                -0.6791 -0.0984 0.3701, -0.6693 -0.0984 0.4331, -0.6791 0.0984 0.3701, -0.6693 0.0984 0.4331, -0.5709 -0.0984 0.4331, -0.5807 -0.0984 0.3701, -0.5709 0.0984 0.4331, -0.5807 0.0984 0.3701
            ]
        }
        coordIndex [
            0,1,2,-1,2,1,3,-1,4,5,6,-1,6,5,7,-1,1,4,3,-1,3,4,6,-1,5,4,0,-1,0,4,1,-1,3,6,2,-1,2,6,7,-1,
        ]
    }
}
Shape{
    appearance Appearance {
        material  Material 	{
            diffuseColor 1.0 1.0 1.0
            specularColor 0.8784313725490196 0.8784313725490196 0.8784313725490196
            ambientIntensity 1.0
            transparency 0.0
            shininess 0.5
        }
    }
    geometry IndexedFaceSet {
        ccw TRUE
        solid FALSE
        coord DEF co Coordinate {
            point [
                -0.5807 0.0984 0.3701, -0.5807 -0.0984 0.3701, -0.6791 0.0984 0.3701, -0.6791 -0.0984 0.3701
            ]
        }
        coordIndex [
            0,1,2,-1,2,1,3,-1,
        ]
    }
}
Shape{
    appearance Appearance {
        material  Material 	{
            diffuseColor 1.0 1.0 1.0
            specularColor 0.5019607843137255 0.5019607843137255 0.5019607843137255
            ambientIntensity 1.0
            transparency 0.0
            shininess 0.5
        }
    }
    geometry IndexedFaceSet {
        ccw TRUE
        solid FALSE
        coord DEF co Coordinate {
            point [
                0.689 -1.5138 1.3386, 0.689 -1.2697 1.3386, 0.689 -1.5138 1.378, 0.689 -1.2697 1.378, -0.689 -0.6876 1.2103, -0.689 -0.6837 1.2008, -0.689 -1.2795 0.9843, -0.689 -0.6774 1.1926, -0.689 -0.689 1.2205, -0.689 -1.2795 1.3386, -0.689 -0.689 1.3386, -0.689 -0.6693 1.1864, -0.689 -0.6598 1.1824, -0.689 -0.2513 0.9843, -0.689 -0.6496 1.1811, -0.689 -0.2513 1.1811, -0.3277 0.6821 1.3386, -0.3315 0.6772 1.3386, -0.6102 1.2402 1.3386, -0.689 -1.5256 1.3386, -0.2953 -1.5256 1.3386, -0.6102 -1.2795 1.3386, 0.3277 -0.6821 1.3386, 0.3315 -0.6772 1.3386, 0.6102 -1.2185 1.3386, 0.6102 1.2402 1.3386, 0.3338 0.6715 1.3386, 0.3315 0.6772 1.3386, -0.2756 1.5309 1.3386, -0.2674 1.5371 1.3386, -0.6155 1.2598 1.3386, 0.6772 1.2795 1.3386, 0.6496 1.2795 1.3386, 0.689 1.2913 1.3386, -0.2953 1.5256 1.3386, -0.6218 1.268 1.3386, -0.6299 1.2743 1.3386, 0.2756 -1.5309 1.3386, 0.2674 -1.5371 1.3386, -0.2572 -1.5548 1.3386, 0.2612 -1.5453 1.3386, 0.2851 -1.5269 1.3386, -0.2612 -1.5453 1.3386, -0.2674 -1.5371 1.3386, 0.6116 1.2503 1.3386, 0.3277 0.6821 1.3386, 0.6155 1.2598 1.3386, 0.311 0.689 1.3386, -0.311 0.689 1.3386, -0.3171 0.6882 1.3386, -0.3228 0.6858 1.3386, 0.689 1.5138 1.3386, 0.6772 1.5256 1.3386, 0.6798 1.5253 1.3386, -0.311 -0.689 1.3386, 0.311 -0.689 1.3386, 0.6155 -1.2382 1.3386, 0.3171 -0.6882 1.3386, 0.6116 -1.2287 1.3386, 0.3338 -0.6715 1.3386, 0.3346 -0.6654 1.3386, 0.3346 0.6654 1.3386, -0.6116 1.2503 1.3386, 0.3228 0.6858 1.3386, 0.3171 0.6882 1.3386, -0.6772 1.5256 1.3386, -0.6394 1.2782 1.3386, -0.6496 1.2795 1.3386, 0.6802 1.2799 1.3386, 0.6218 1.268 1.3386, 0.2707 1.5342 1.3386, 0.6299 1.2743 1.3386, 0.2782 1.5295 1.3386, 0.6394 1.2782 1.3386, 0.2865 1.5266 1.3386, -0.2851 1.5269 1.3386, 0.6845 1.523 1.3386, 0.6864 1.5211 1.3386, 0.6878 1.5189 1.3386, 0.6874 1.2854 1.3386, 0.6855 1.283 1.3386, 0.6831 1.2811 1.3386, 0.2953 1.5256 1.3386, 0.3228 -0.6858 1.3386, 0.2559 -1.565 1.3386, 0.2559 -1.6929 1.3386, -0.2559 -1.6929 1.3386, -0.3338 0.6715 1.3386, -0.3346 0.6654 1.3386, -0.6102 -0.6496 1.3386, -0.3346 -0.6654 1.3386, -0.3338 -0.6715 1.3386, 0.6823 1.5244 1.3386, 0.6887 1.5164 1.3386, 0.2645 1.5404 1.3386, -0.2572 1.5548 1.3386, -0.2612 1.5453 1.3386, 0.6218 -1.2463 1.3386, 0.2953 -1.5256 1.3386, 0.6299 -1.2526 1.3386, 0.6772 -1.5256 1.3386, 0.6394 -1.2565 1.3386, 0.6496 -1.2579 1.3386, 0.6886 -1.5168 1.3386, 0.6802 -1.5252 1.3386, 0.6772 -1.2579 1.3386, 0.2572 -1.5548 1.3386, -0.2559 -1.565 1.3386, -0.2756 -1.5309 1.3386, -0.3315 -0.6772 1.3386, -0.2851 -1.5269 1.3386, -0.689 1.2913 1.3386, -0.689 1.5138 1.3386, -0.6802 1.5252 1.3386, -0.6874 1.5197 1.3386, -0.6855 1.5221 1.3386, -0.6831 1.524 1.3386, 0.6886 1.2883 1.3386, -0.3277 -0.6821 1.3386, -0.3228 -0.6858 1.3386, -0.3171 -0.6882 1.3386, 0.6798 -1.2582 1.3386, 0.6823 -1.259 1.3386, 0.6845 -1.2605 1.3386, 0.6864 -1.2623 1.3386, 0.6878 -1.2646 1.3386, 0.6887 -1.2671 1.3386, -0.2559 1.565 1.3386, -0.2559 1.6929 1.3386, 0.2559 1.6929 1.3386, 0.6874 -1.5197 1.3386, 0.6855 -1.5221 1.3386, 0.6831 -1.524 1.3386, -0.6874 1.2854 1.3386, -0.6802 1.2799 1.3386, -0.6855 1.283 1.3386, -0.6831 1.2811 1.3386, -0.6772 1.2795 1.3386, -0.6886 1.2883 1.3386, -0.6886 1.5168 1.3386, 0.2559 1.565 1.3386, 0.2569 1.5562 1.3386, 0.2598 1.5479 1.3386, 0.689 1.5138 1.378, 0.689 1.2913 1.378, 0.689 -1.7717 0.8268, 0.689 -1.7717 0.6299, 0.689 -1.7323 0.8268, 0.689 -1.7323 0.6299, -0.689 1.5138 1.378, -0.689 1.2913 1.378, -0.689 -1.7717 0.6299, -0.689 -1.7717 0.8268, -0.689 -1.7323 0.6299, -0.689 -1.7323 0.8268, -0.6598 -1.7717 0.5919, -0.6496 -1.7717 0.5906, 0.2852 -1.7717 0.8585, 0.266 -1.7717 0.8493, 0.6496 -1.7717 0.5906, -0.2571 -1.7717 0.8465, -0.2617 -1.7717 0.8473, 0.6496 -1.7717 0.8661, 0.3269 -1.7717 0.8661, 0.2478 -1.7717 0.8482, 0.2438 -1.7717 0.8507, 0.2404 -1.7717 0.854, 0.238 -1.7717 0.8581, -0.2559 -1.7717 0.9371, 0.239 -1.7717 0.8763, 0.2483 -1.7717 0.8954, 0.2617 -1.7717 0.8473, 0.2571 -1.7717 0.8465, 0.2523 -1.7717 0.8468, 0.2371 -1.7717 0.872, -0.254 -1.7717 0.9159, 0.2363 -1.7717 0.8673, -0.2483 -1.7717 0.8954, -0.239 -1.7717 0.8763, 0.2559 -1.7717 1.3386, -0.2559 -1.7717 1.3386, 0.2559 -1.7717 0.9371, 0.254 -1.7717 0.9159, 0.6598 -1.7717 0.5919, 0.3057 -1.7717 0.8642, 0.6598 -1.7717 0.8648, -0.266 -1.7717 0.8493, -0.2852 -1.7717 0.8585, -0.3057 -1.7717 0.8642, 0.6693 -1.7717 0.5958, 0.6774 -1.7717 0.6021, 0.6837 -1.7717 0.6102, 0.6876 -1.7717 0.6197, -0.2371 -1.7717 0.872, -0.2363 -1.7717 0.8673, 0.2365 -1.7717 0.8626, -0.2365 -1.7717 0.8626, -0.238 -1.7717 0.8581, -0.2404 -1.7717 0.854, -0.2438 -1.7717 0.8507, -0.2478 -1.7717 0.8482, -0.2523 -1.7717 0.8468, 0.6837 -1.7717 0.8465, 0.6774 -1.7717 0.8546, 0.6693 -1.7717 0.8609, -0.6837 -1.7717 0.6102, -0.6774 -1.7717 0.6021, -0.6693 -1.7717 0.5958, -0.3269 -1.7717 0.8661, -0.6496 -1.7717 0.8661, -0.6598 -1.7717 0.8648, -0.6693 -1.7717 0.8609, 0.6876 -1.7717 0.837, -0.6774 -1.7717 0.8546, -0.6837 -1.7717 0.8465, -0.6876 -1.7717 0.837, -0.6876 -1.7717 0.6197, -0.2559 -1.7323 1.2992, 0.2559 -1.7323 1.2992, 0.2559 -1.7323 0.9371, 0.2363 -1.7323 0.8673, -0.254 -1.7323 0.9159, 0.2371 -1.7323 0.872, -0.2559 -1.7323 0.9371, 0.239 -1.7323 0.8763, -0.2363 -1.7323 0.8673, -0.2371 -1.7323 0.872, 0.2438 -1.7323 0.8507, -0.6496 -1.7323 0.5906, 0.2404 -1.7323 0.854, 0.238 -1.7323 0.8581, 0.2478 -1.7323 0.8482, 0.2523 -1.7323 0.8468, 0.6496 -1.7323 0.5906, 0.2571 -1.7323 0.8465, 0.254 -1.7323 0.9159, 0.2483 -1.7323 0.8954, -0.239 -1.7323 0.8763, -0.2483 -1.7323 0.8954, -0.3057 -1.7323 0.8642, -0.2852 -1.7323 0.8585, -0.266 -1.7323 0.8493, -0.2617 -1.7323 0.8473, -0.2571 -1.7323 0.8465, -0.2523 -1.7323 0.8468, -0.2478 -1.7323 0.8482, -0.2438 -1.7323 0.8507, -0.2404 -1.7323 0.854, -0.238 -1.7323 0.8581, -0.2365 -1.7323 0.8626, 0.2365 -1.7323 0.8626, 0.2617 -1.7323 0.8473, 0.266 -1.7323 0.8493, 0.2852 -1.7323 0.8585, -0.3269 -1.7323 0.8661, -0.6598 -1.7323 0.5919, -0.6693 -1.7323 0.5958, -0.6876 -1.7323 0.6197, -0.6496 -1.7323 0.8661, -0.6598 -1.7323 0.8648, 0.3057 -1.7323 0.8642, 0.3269 -1.7323 0.8661, 0.6496 -1.7323 0.8661, -0.6774 -1.7323 0.6021, -0.6837 -1.7323 0.6102, -0.6837 -1.7323 0.8465, -0.6774 -1.7323 0.8546, -0.6693 -1.7323 0.8609, 0.6693 -1.7323 0.8609, 0.6598 -1.7323 0.8648, 0.6598 -1.7323 0.5919, 0.6774 -1.7323 0.8546, 0.6837 -1.7323 0.8465, 0.6876 -1.7323 0.837, 0.6837 -1.7323 0.6102, 0.6774 -1.7323 0.6021, 0.6693 -1.7323 0.5958, -0.6876 -1.7323 0.837, 0.6876 -1.7323 0.6197, 0.689 1.7717 0.6299, 0.689 1.7717 0.8268, 0.689 1.7323 0.6299, 0.689 1.7323 0.8268, -0.2617 1.7717 0.8473, -0.2571 1.7717 0.8465, -0.6496 1.7717 0.5906, -0.2478 1.7717 0.8482, -0.2438 1.7717 0.8507, 0.6496 1.7717 0.5906, 0.2363 1.7717 0.8673, -0.254 1.7717 0.9159, 0.2371 1.7717 0.872, -0.2559 1.7717 0.9371, 0.239 1.7717 0.8763, -0.2363 1.7717 0.8673, -0.2371 1.7717 0.872, -0.2523 1.7717 0.8468, -0.239 1.7717 0.8763, -0.2483 1.7717 0.8954, -0.3057 1.7717 0.8642, -0.2852 1.7717 0.8585, -0.266 1.7717 0.8493, -0.2559 1.7717 1.3386, 0.2559 1.7717 1.3386, 0.2559 1.7717 0.9371, 0.6496 1.7717 0.8661, 0.6598 1.7717 0.8648, 0.6693 1.7717 0.8609, 0.254 1.7717 0.9159, 0.2483 1.7717 0.8954, 0.2404 1.7717 0.854, -0.2404 1.7717 0.854, 0.238 1.7717 0.8581, -0.238 1.7717 0.8581, -0.2365 1.7717 0.8626, 0.2852 1.7717 0.8585, 0.3057 1.7717 0.8642, 0.266 1.7717 0.8493, 0.2617 1.7717 0.8473, -0.3269 1.7717 0.8661, -0.6598 1.7717 0.5919, -0.6693 1.7717 0.5958, -0.6876 1.7717 0.6197, -0.689 1.7717 0.6299, -0.689 1.7717 0.8268, -0.6496 1.7717 0.8661, -0.6598 1.7717 0.8648, 0.2365 1.7717 0.8626, 0.2438 1.7717 0.8507, 0.2478 1.7717 0.8482, 0.2523 1.7717 0.8468, 0.3269 1.7717 0.8661, 0.2571 1.7717 0.8465, 0.6774 1.7717 0.8546, -0.6774 1.7717 0.6021, -0.6837 1.7717 0.6102, -0.6837 1.7717 0.8465, -0.6774 1.7717 0.8546, -0.6693 1.7717 0.8609, 0.6837 1.7717 0.8465, 0.6876 1.7717 0.837, -0.6876 1.7717 0.837, 0.6598 1.7717 0.5919, 0.6876 1.7717 0.6197, 0.6837 1.7717 0.6102, 0.6774 1.7717 0.6021, 0.6693 1.7717 0.5958, -0.689 1.7323 0.6299, -0.689 1.7323 0.8268, 0.3338 0.6715 1.378, 0.3346 0.6654 1.378, 0.6102 1.2402 1.378, -0.6116 1.2503 1.378, -0.6102 1.2402 1.378, -0.3315 0.6772 1.378, 0.3315 0.6772 1.378, -0.2612 1.5453 1.378, -0.2674 1.5371 1.378, 0.3277 0.6821 1.378, -0.6299 1.2743 1.378, -0.6218 1.268 1.378, -0.2953 1.5256 1.378, 0.3228 0.6858 1.378, 0.3346 -0.6654 1.378, 0.6116 -1.2287 1.378, 0.6102 -1.2185 1.378, 0.6772 1.5256 1.378, 0.6394 1.2782 1.378, 0.6496 1.2795 1.378, -0.3277 0.6821 1.378, -0.3228 0.6858 1.378, -0.6155 1.2598 1.378, -0.3171 0.6882 1.378, -0.311 0.689 1.378, 0.6772 -1.2579 1.378, 0.6496 -1.2579 1.378, 0.6772 -1.5256 1.378, 0.6394 -1.2565 1.378, 0.2953 -1.5256 1.378, 0.3338 -0.6715 1.378, 0.3315 -0.6772 1.378, 0.6155 -1.2382 1.378, 0.3277 -0.6821 1.378, 0.2612 -1.5453 1.378, -0.2612 -1.5453 1.378, -0.2572 -1.5548 1.378, 0.6798 -1.2582 1.378, -0.2559 1.7323 1.378, -0.2559 1.565 1.378, 0.6155 1.2598 1.378, -0.2572 1.5548 1.378, 0.6116 1.2503 1.378, -0.2851 1.5269 1.378, -0.2851 -1.5269 1.378, -0.2756 -1.5309 1.378, -0.311 -0.689 1.378, -0.3171 -0.6882 1.378, -0.3228 -0.6858 1.378, -0.6496 -1.5256 1.378, -0.3277 -0.6821 1.378, -0.6496 -0.689 1.378, 0.2674 -1.5371 1.378, 0.2756 -1.5309 1.378, 0.2851 -1.5269 1.378, 0.6299 -1.2526 1.378, 0.6218 -1.2463 1.378, 0.6823 1.5244 1.378, 0.6798 1.5253 1.378, 0.6772 1.2795 1.378, 0.6878 1.5189 1.378, 0.6864 1.5211 1.378, 0.6845 1.523 1.378, -0.6886 1.5168 1.378, -0.6772 1.5256 1.378, -0.2756 1.5309 1.378, 0.311 0.689 1.378, 0.3171 0.6882 1.378, -0.2674 -1.5371 1.378, -0.6325 -0.6851 1.378, -0.3338 -0.6715 1.378, -0.6251 -0.6804 1.378, -0.6188 -0.6742 1.378, -0.3315 -0.6772 1.378, -0.6408 -0.688 1.378, 0.6886 -1.5168 1.378, 0.6802 -1.5252 1.378, 0.3228 -0.6858 1.378, 0.3171 -0.6882 1.378, 0.311 -0.689 1.378, 0.6299 1.2743 1.378, 0.2953 1.5256 1.378, 0.2865 1.5266 1.378, 0.2782 1.5295 1.378, 0.6218 1.268 1.378, 0.2707 1.5342 1.378, 0.2645 1.5404 1.378, 0.2598 1.5479 1.378, 0.2569 1.5562 1.378, 0.2559 1.565 1.378, 0.2559 1.7323 1.378, -0.6394 1.2782 1.378, -0.6496 1.2795 1.378, 0.6831 1.2811 1.378, 0.6855 1.283 1.378, 0.6874 1.2854 1.378, 0.6887 1.5164 1.378, -0.2953 -1.5256 1.378, -0.2559 -1.7323 1.378, 0.2559 -1.7323 1.378, -0.2559 -1.565 1.378, 0.2559 -1.565 1.378, 0.2572 -1.5548 1.378, -0.3346 -0.6654 1.378, -0.3346 0.6654 1.378, -0.3338 0.6715 1.378, 0.6864 -1.2623 1.378, 0.6878 -1.2646 1.378, 0.6887 -1.2671 1.378, 0.6845 -1.2605 1.378, 0.6823 -1.259 1.378, 0.6802 1.2799 1.378, 0.6886 1.2883 1.378, -0.6802 1.5252 1.378, -0.6831 1.524 1.378, -0.6874 1.5197 1.378, -0.6855 1.5221 1.378, -0.6886 1.2883 1.378, -0.6802 1.2799 1.378, -0.6772 1.2795 1.378, -0.6874 1.2854 1.378, -0.6855 1.283 1.378, -0.6831 1.2811 1.378, -0.6102 -0.6496 1.378, -0.6112 -0.6584 1.378, -0.6141 -0.6667 1.378, 0.6831 -1.524 1.378, 0.6855 -1.5221 1.378, 0.6874 -1.5197 1.378, -0.6598 1.7323 0.5919, -0.6496 1.7323 0.5906, 0.6496 1.7323 0.5906, -0.2523 1.7323 0.8468, -0.2571 1.7323 0.8465, -0.2617 1.7323 0.8473, 0.2371 1.7323 0.872, -0.2559 1.7323 0.9371, -0.254 1.7323 0.9159, 0.2438 1.7323 0.8507, 0.2404 1.7323 0.854, -0.2365 1.7323 0.8626, -0.2404 1.7323 0.854, -0.238 1.7323 0.8581, 0.3057 1.7323 0.8642, 0.2852 1.7323 0.8585, 0.266 1.7323 0.8493, 0.2617 1.7323 0.8473, 0.2363 1.7323 0.8673, -0.2483 1.7323 0.8954, -0.239 1.7323 0.8763, -0.2438 1.7323 0.8507, -0.2478 1.7323 0.8482, -0.2559 1.7323 1.2992, 0.239 1.7323 0.8763, 0.2483 1.7323 0.8954, -0.266 1.7323 0.8493, -0.2852 1.7323 0.8585, -0.3057 1.7323 0.8642, 0.6876 1.7323 0.6197, 0.3269 1.7323 0.8661, 0.6496 1.7323 0.8661, 0.6598 1.7323 0.8648, 0.238 1.7323 0.8581, 0.2365 1.7323 0.8626, -0.2363 1.7323 0.8673, -0.2371 1.7323 0.872, 0.254 1.7323 0.9159, 0.2559 1.7323 0.9371, 0.2559 1.7323 1.2992, 0.2571 1.7323 0.8465, 0.2523 1.7323 0.8468, 0.2478 1.7323 0.8482, -0.6837 1.7323 0.6102, -0.6774 1.7323 0.6021, -0.6693 1.7323 0.5958, 0.6837 1.7323 0.8465, 0.6774 1.7323 0.8546, 0.6693 1.7323 0.8609, -0.3269 1.7323 0.8661, -0.6496 1.7323 0.8661, -0.6598 1.7323 0.8648, -0.6693 1.7323 0.8609, 0.6598 1.7323 0.5919, 0.6693 1.7323 0.5958, -0.6774 1.7323 0.8546, -0.6837 1.7323 0.8465, -0.6876 1.7323 0.837, -0.6876 1.7323 0.6197, 0.6774 1.7323 0.6021, 0.6837 1.7323 0.6102, 0.6876 1.7323 0.837, 0.2559 1.7237 1.3238, 0.2559 1.7664 1.3583, 0.2559 1.7601 1.3664, 0.2559 1.7175 1.33, 0.2559 1.7703 1.3488, 0.2559 1.7284 1.3163, 0.2559 1.7313 1.308, 0.2559 1.7017 1.3376, 0.2559 1.71 1.3347, 0.2559 1.7425 1.3766, 0.2559 1.752 1.3727, -0.2559 1.752 1.3727, -0.2559 1.7601 1.3664, -0.2559 1.7175 1.33, -0.2559 1.7237 1.3238, -0.2559 1.7425 1.3766, -0.2559 1.71 1.3347, -0.2559 1.7017 1.3376, -0.2559 1.7313 1.308, -0.2559 1.7284 1.3163, -0.2559 1.7703 1.3488, -0.2559 1.7664 1.3583, 0.2559 -1.7031 1.3372, 0.2559 -1.752 1.3727, 0.2559 -1.7208 1.3271, 0.2559 -1.7126 1.3333, 0.2559 -1.7425 1.3766, 0.2559 -1.7601 1.3664, 0.2559 -1.7664 1.3583, 0.2559 -1.727 1.3189, 0.2559 -1.7703 1.3488, 0.2559 -1.7309 1.3094, -0.2559 -1.7703 1.3488, -0.2559 -1.727 1.3189, -0.2559 -1.7664 1.3583, -0.2559 -1.7208 1.3271, -0.2559 -1.7031 1.3372, -0.2559 -1.7425 1.3766, -0.2559 -1.7126 1.3333, -0.2559 -1.752 1.3727, -0.2559 -1.7601 1.3664, -0.2559 -1.7309 1.3094, -0.6498 -0.689 1.2205, -0.6876 -0.689 1.3488, -0.6837 -0.689 1.3583, -0.6774 -0.689 1.3664, -0.6693 -0.689 1.3727, -0.6598 -0.689 1.3766, -0.6496 -0.689 1.2992, -0.6496 -0.689 0.9843, -0.6498 -0.689 0.9843, -0.6496 -1.2795 1.2992, -0.6496 -1.2795 0.9843, -0.6443 -1.2795 1.3189, -0.6381 -1.2795 1.3271, -0.6483 -1.2795 1.3094, -0.6299 -1.2795 1.3333, -0.6204 -1.2795 1.3372, -0.685 -0.2208 0.9843, -0.6487 -0.2394 0.9843, -0.6498 -0.2549 0.9843, -0.689 0.1103 0.9843, -0.6551 0.1304 0.9843, -0.6505 0.0457 0.9843, -0.6082 0.0516 0.9843, -0.6406 0.0243 0.9843, -0.5982 0.0302 0.9843, -0.635 0.0015 0.9843, -0.5927 0.0072 0.9843, -0.6341 -0.0221 0.9843, -0.5919 -0.0164 0.9843, -0.6379 -0.0453 0.9843, -0.5957 -0.0397 0.9843, -0.6456 -0.2241 0.9843, -0.6498 -0.6774 1.1926, -0.6498 -0.6693 1.1864, -0.6498 -0.6598 1.1824, -0.6498 -0.6837 1.2008, -0.6498 -0.6876 1.2103, -0.6498 -0.2549 1.1811, -0.6498 -0.6496 1.1811, -0.6456 -0.2241 1.1811, -0.5957 -0.0397 1.1811, -0.6082 0.0516 1.1811, -0.6551 0.1304 1.1811, -0.689 0.1103 1.1811, -0.6505 0.0457 1.1811, -0.6379 -0.0453 1.1811, -0.685 -0.2208 1.1811, -0.5982 0.0302 1.1811, -0.6406 0.0243 1.1811, -0.5927 0.0072 1.1811, -0.635 0.0015 1.1811, -0.5919 -0.0164 1.1811, -0.6341 -0.0221 1.1811, -0.6487 -0.2394 1.1811, -0.6598 -1.5256 1.3766, -0.6693 -1.5256 1.3727, -0.6774 -1.5256 1.3664, -0.6837 -1.5256 1.3583, -0.6876 -1.5256 1.3488, -0.6466 -0.6889 1.3143, -0.6483 -0.689 1.3094, -0.6493 -0.689 1.3044, -0.6325 -0.6851 1.3317, -0.6381 -0.6872 1.3271, -0.6408 -0.688 1.324, -0.6443 -0.6886 1.3189, -0.6188 -0.6742 1.3376, -0.6204 -0.676 1.3372, -0.6251 -0.6804 1.3357, -0.6299 -0.6837 1.3333, -0.6141 -0.6667 1.3384, -0.6112 -0.6584 1.3386
            ]
        }
        coordIndex [
            0,1,2,-1,2,1,3,-1,4,5,6,-1,6,5,7,-1,4,6,8,-1,8,6,9,-1,8,9,10,-1,7,11,6,-1,6,11,12,-1,6,12,13,-1,13,12,14,-1,13,14,15,-1,16,17,18,-1,19,9,20,-1,20,9,21,-1,22,23,24,-1,25,26,27,-1,28,29,30,-1,31,32,33,-1,34,35,36,-1,37,38,39,-1,39,38,40,-1,37,39,41,-1,41,39,42,-1,41,42,43,-1,25,27,44,-1,44,27,45,-1,44,45,46,-1,47,48,18,-1,48,49,18,-1,18,49,50,-1,18,50,16,-1,51,52,53,-1,54,55,56,-1,56,55,57,-1,56,57,58,-1,23,59,24,-1,24,59,60,-1,24,60,25,-1,25,60,61,-1,25,61,26,-1,30,29,62,-1,62,29,63,-1,62,63,18,-1,18,63,64,-1,18,64,47,-1,34,36,65,-1,65,36,66,-1,65,66,67,-1,31,33,68,-1,69,70,71,-1,71,70,72,-1,71,72,73,-1,73,72,74,-1,35,34,30,-1,30,34,75,-1,30,75,28,-1,76,77,78,-1,79,80,81,-1,74,82,73,-1,73,82,52,-1,73,52,32,-1,32,52,51,-1,32,51,33,-1,58,57,24,-1,24,57,83,-1,24,83,22,-1,84,85,86,-1,17,87,18,-1,18,87,88,-1,18,88,89,-1,89,88,90,-1,89,90,91,-1,53,92,51,-1,51,92,76,-1,51,76,93,-1,93,76,78,-1,94,70,95,-1,95,70,69,-1,95,69,96,-1,96,69,46,-1,96,46,29,-1,29,46,45,-1,29,45,63,-1,56,97,98,-1,98,97,99,-1,98,99,100,-1,100,99,101,-1,100,101,102,-1,103,104,0,-1,0,104,100,-1,0,100,1,-1,1,100,102,-1,1,102,105,-1,40,106,39,-1,39,106,84,-1,39,84,107,-1,107,84,86,-1,43,108,109,-1,91,109,89,-1,89,109,108,-1,89,108,21,-1,21,108,110,-1,21,110,20,-1,67,111,65,-1,65,111,112,-1,65,112,113,-1,114,115,116,-1,68,33,81,-1,81,33,117,-1,81,117,79,-1,43,109,41,-1,41,109,118,-1,41,118,98,-1,98,118,119,-1,98,119,56,-1,56,119,120,-1,56,120,54,-1,105,121,1,-1,1,121,122,-1,1,122,123,-1,123,124,1,-1,1,124,125,-1,1,125,126,-1,127,128,129,-1,103,130,104,-1,104,130,131,-1,104,131,132,-1,133,134,135,-1,135,134,136,-1,67,137,111,-1,111,137,134,-1,111,134,138,-1,138,134,133,-1,113,112,116,-1,116,112,139,-1,116,139,114,-1,129,140,127,-1,127,140,141,-1,127,141,95,-1,95,141,142,-1,95,142,94,-1,143,144,51,-1,51,144,33,-1,145,146,147,-1,147,146,148,-1,112,111,149,-1,149,111,150,-1,151,152,153,-1,153,152,154,-1,155,156,151,-1,157,158,159,-1,156,160,161,-1,162,163,145,-1,164,165,156,-1,156,165,166,-1,156,166,167,-1,168,169,170,-1,158,171,159,-1,159,171,172,-1,159,172,156,-1,156,172,173,-1,156,173,164,-1,169,168,174,-1,174,168,175,-1,174,175,176,-1,176,175,177,-1,176,177,178,-1,179,180,181,-1,181,180,168,-1,181,168,182,-1,182,168,170,-1,183,163,159,-1,159,163,184,-1,159,184,157,-1,162,145,185,-1,161,186,156,-1,156,186,187,-1,156,187,188,-1,151,156,152,-1,183,189,163,-1,163,189,190,-1,163,190,191,-1,191,192,163,-1,163,192,146,-1,163,146,145,-1,178,193,176,-1,176,193,194,-1,176,194,195,-1,195,194,196,-1,195,196,167,-1,167,196,197,-1,167,197,198,-1,198,199,167,-1,167,199,200,-1,167,200,156,-1,156,200,201,-1,156,201,160,-1,202,203,204,-1,205,206,207,-1,188,208,156,-1,156,208,209,-1,156,209,152,-1,152,209,210,-1,152,210,211,-1,185,145,204,-1,204,145,212,-1,204,212,202,-1,213,214,211,-1,211,214,215,-1,211,215,152,-1,155,151,207,-1,207,151,216,-1,207,216,205,-1,217,218,219,-1,220,221,222,-1,222,221,223,-1,222,223,224,-1,224,223,217,-1,225,226,220,-1,227,228,229,-1,229,228,230,-1,227,231,228,-1,228,231,232,-1,228,232,233,-1,233,232,234,-1,219,235,217,-1,217,235,236,-1,217,236,224,-1,226,237,220,-1,220,237,238,-1,220,238,221,-1,239,240,228,-1,228,240,241,-1,228,241,242,-1,242,243,228,-1,228,243,244,-1,228,244,230,-1,230,244,245,-1,230,245,246,-1,246,247,230,-1,230,247,248,-1,230,248,249,-1,225,220,249,-1,249,220,250,-1,249,250,230,-1,234,251,233,-1,233,251,252,-1,233,252,253,-1,239,228,254,-1,254,228,255,-1,254,255,256,-1,257,153,254,-1,254,153,154,-1,254,154,258,-1,258,154,259,-1,253,260,233,-1,233,260,261,-1,233,261,262,-1,256,263,254,-1,254,263,264,-1,254,264,257,-1,265,266,267,-1,268,147,269,-1,269,147,262,-1,262,147,233,-1,233,147,148,-1,233,148,270,-1,271,272,268,-1,268,272,273,-1,268,273,147,-1,274,275,276,-1,259,154,267,-1,267,154,277,-1,267,277,265,-1,270,148,276,-1,276,148,278,-1,276,278,274,-1,279,280,281,-1,281,280,282,-1,283,284,285,-1,286,287,288,-1,289,290,291,-1,291,290,292,-1,291,292,293,-1,289,294,295,-1,285,284,288,-1,288,284,296,-1,288,296,286,-1,295,297,289,-1,289,297,298,-1,289,298,290,-1,299,300,285,-1,285,300,301,-1,285,301,283,-1,302,303,292,-1,292,303,304,-1,305,306,307,-1,304,308,292,-1,292,308,309,-1,292,309,293,-1,310,311,312,-1,312,311,313,-1,312,313,314,-1,315,316,317,-1,317,316,318,-1,299,285,319,-1,319,285,320,-1,319,320,321,-1,322,323,319,-1,319,323,324,-1,319,324,325,-1,325,324,326,-1,294,289,314,-1,314,289,327,-1,314,327,312,-1,310,328,311,-1,311,328,329,-1,311,329,330,-1,316,331,318,-1,318,331,305,-1,318,305,332,-1,332,305,307,-1,332,307,333,-1,321,334,319,-1,319,334,335,-1,319,335,322,-1,336,337,338,-1,333,339,332,-1,332,339,340,-1,332,340,280,-1,326,324,338,-1,338,324,341,-1,338,341,336,-1,287,311,288,-1,288,311,330,-1,288,330,342,-1,342,330,332,-1,280,279,332,-1,332,279,343,-1,332,343,344,-1,344,345,332,-1,332,345,346,-1,332,346,342,-1,347,348,323,-1,323,348,324,-1,349,350,351,-1,352,353,354,-1,349,351,355,-1,356,357,358,-1,359,360,361,-1,358,357,362,-1,363,364,350,-1,350,364,365,-1,350,365,351,-1,366,367,368,-1,354,369,352,-1,352,369,370,-1,352,370,371,-1,371,370,372,-1,371,372,373,-1,374,375,376,-1,376,375,377,-1,376,377,378,-1,363,379,364,-1,364,379,380,-1,364,380,381,-1,381,380,382,-1,383,384,385,-1,386,374,3,-1,387,388,389,-1,389,388,390,-1,389,390,391,-1,391,390,356,-1,391,356,351,-1,351,356,358,-1,351,358,355,-1,361,360,392,-1,393,394,395,-1,396,397,398,-1,398,397,399,-1,398,399,400,-1,383,401,384,-1,384,401,402,-1,384,402,403,-1,377,404,378,-1,378,404,405,-1,378,405,403,-1,403,405,381,-1,406,407,143,-1,143,407,366,-1,143,366,144,-1,144,366,368,-1,144,368,408,-1,409,410,411,-1,412,149,413,-1,360,371,392,-1,392,371,373,-1,392,373,414,-1,414,373,415,-1,414,415,357,-1,357,415,416,-1,357,416,362,-1,395,394,403,-1,403,394,417,-1,403,417,384,-1,418,419,420,-1,420,419,421,-1,399,422,400,-1,400,422,419,-1,400,419,423,-1,423,419,418,-1,424,2,425,-1,382,426,381,-1,381,426,427,-1,381,427,403,-1,403,427,428,-1,403,428,395,-1,367,366,429,-1,429,366,430,-1,429,430,431,-1,431,432,429,-1,429,432,387,-1,429,387,433,-1,433,387,389,-1,432,434,387,-1,387,434,435,-1,387,435,436,-1,436,437,387,-1,387,437,438,-1,387,438,439,-1,359,361,440,-1,440,361,413,-1,440,413,441,-1,441,413,149,-1,441,149,150,-1,3,374,2,-1,2,374,376,-1,2,376,425,-1,442,443,444,-1,406,143,411,-1,411,143,445,-1,411,445,409,-1,396,398,395,-1,395,398,446,-1,395,446,393,-1,447,448,449,-1,449,448,450,-1,449,450,385,-1,385,450,451,-1,385,451,383,-1,452,453,353,-1,353,453,454,-1,353,454,354,-1,455,3,456,-1,456,3,457,-1,455,458,3,-1,3,458,459,-1,3,459,386,-1,408,460,144,-1,144,460,442,-1,144,442,461,-1,461,442,444,-1,413,462,412,-1,412,462,463,-1,412,463,464,-1,464,463,465,-1,466,467,150,-1,150,467,468,-1,150,468,441,-1,466,469,467,-1,467,469,470,-1,467,470,471,-1,353,472,452,-1,452,472,473,-1,452,473,419,-1,419,473,474,-1,419,474,421,-1,475,476,425,-1,425,476,477,-1,425,477,424,-1,478,479,347,-1,480,481,479,-1,479,481,482,-1,479,482,483,-1,484,485,486,-1,487,488,489,-1,490,480,491,-1,491,480,489,-1,492,493,480,-1,480,493,494,-1,480,494,495,-1,484,486,496,-1,496,486,497,-1,496,497,498,-1,490,499,480,-1,480,499,500,-1,480,500,481,-1,485,484,501,-1,501,484,502,-1,501,502,503,-1,483,504,479,-1,479,504,505,-1,479,505,506,-1,347,479,348,-1,507,281,508,-1,508,281,282,-1,508,282,509,-1,509,282,510,-1,488,511,489,-1,489,511,512,-1,489,512,513,-1,513,512,496,-1,513,496,514,-1,514,496,498,-1,503,515,501,-1,501,515,516,-1,501,516,517,-1,495,518,480,-1,480,518,519,-1,480,519,489,-1,489,519,520,-1,489,520,487,-1,521,522,523,-1,524,525,526,-1,506,527,479,-1,479,527,528,-1,479,528,348,-1,348,528,529,-1,348,529,530,-1,492,480,508,-1,508,480,531,-1,508,531,532,-1,533,534,530,-1,530,534,535,-1,530,535,348,-1,478,347,523,-1,523,347,536,-1,523,536,521,-1,532,537,508,-1,508,537,538,-1,508,538,507,-1,510,282,526,-1,526,282,539,-1,526,539,524,-1,480,479,288,-1,288,479,285,-1,159,156,233,-1,233,156,228,-1,438,140,439,-1,439,140,129,-1,540,541,542,-1,540,542,543,-1,541,540,544,-1,544,540,545,-1,544,545,303,-1,516,304,517,-1,517,304,303,-1,517,303,546,-1,546,303,545,-1,129,547,439,-1,439,547,548,-1,439,548,549,-1,549,548,543,-1,549,543,550,-1,550,543,542,-1,508,509,331,-1,331,509,305,-1,319,325,527,-1,527,325,528,-1,127,388,128,-1,128,388,387,-1,551,552,553,-1,553,552,554,-1,292,485,302,-1,302,485,501,-1,551,553,555,-1,555,553,556,-1,555,556,387,-1,387,556,557,-1,387,557,128,-1,501,558,302,-1,302,558,559,-1,302,559,560,-1,560,559,554,-1,560,554,561,-1,561,554,552,-1,163,162,261,-1,261,162,262,-1,84,450,85,-1,85,450,448,-1,85,448,562,-1,563,564,565,-1,562,448,565,-1,565,448,566,-1,565,566,563,-1,179,181,219,-1,563,567,564,-1,564,567,568,-1,564,568,569,-1,569,568,570,-1,569,570,571,-1,571,570,179,-1,571,179,218,-1,218,179,219,-1,447,449,107,-1,180,572,573,-1,573,572,574,-1,573,574,575,-1,107,86,447,-1,447,86,576,-1,447,576,577,-1,577,576,578,-1,577,578,579,-1,579,578,575,-1,579,575,580,-1,580,575,574,-1,223,168,217,-1,217,168,180,-1,217,180,581,-1,581,180,573,-1,254,258,208,-1,208,258,209,-1,395,428,54,-1,54,428,55,-1,453,452,88,-1,88,452,90,-1,48,47,373,-1,373,47,415,-1,363,350,60,-1,60,350,61,-1,8,10,582,-1,582,10,583,-1,582,583,584,-1,584,585,582,-1,582,585,586,-1,582,586,587,-1,587,400,588,-1,587,588,582,-1,582,588,589,-1,582,589,590,-1,591,592,588,-1,588,592,589,-1,593,594,9,-1,593,9,595,-1,594,596,9,-1,9,596,597,-1,9,597,21,-1,6,592,9,-1,9,592,591,-1,9,591,595,-1,590,589,592,-1,13,598,599,-1,599,600,13,-1,13,600,590,-1,13,590,6,-1,6,590,592,-1,601,602,603,-1,603,602,604,-1,603,604,605,-1,605,604,606,-1,605,606,607,-1,607,606,608,-1,607,608,609,-1,609,608,610,-1,609,610,611,-1,611,610,612,-1,611,612,598,-1,598,612,613,-1,598,613,599,-1,614,590,615,-1,615,590,616,-1,614,617,590,-1,590,617,618,-1,590,618,582,-1,600,619,590,-1,590,619,620,-1,590,620,616,-1,613,612,621,-1,621,612,622,-1,604,602,623,-1,623,602,624,-1,625,624,601,-1,601,624,602,-1,626,625,603,-1,603,625,601,-1,611,598,627,-1,627,598,628,-1,14,620,15,-1,15,620,619,-1,15,619,628,-1,624,625,623,-1,623,625,626,-1,623,626,629,-1,629,626,630,-1,629,630,631,-1,631,630,632,-1,631,632,633,-1,633,632,634,-1,633,634,622,-1,622,634,627,-1,622,627,621,-1,621,627,628,-1,621,628,635,-1,635,628,619,-1,137,67,468,-1,468,67,441,-1,472,353,89,-1,89,353,18,-1,24,25,365,-1,365,25,351,-1,408,368,31,-1,31,368,32,-1,19,20,446,-1,446,398,19,-1,19,398,636,-1,19,636,637,-1,638,639,637,-1,637,639,640,-1,637,640,19,-1,376,378,100,-1,100,378,98,-1,413,361,65,-1,65,361,34,-1,52,82,366,-1,366,82,430,-1,145,147,273,-1,145,273,212,-1,212,273,272,-1,212,272,202,-1,202,272,271,-1,202,271,203,-1,203,271,268,-1,203,268,204,-1,204,268,269,-1,204,269,185,-1,185,269,262,-1,185,262,162,-1,148,146,192,-1,148,192,278,-1,278,192,191,-1,278,191,274,-1,274,191,190,-1,274,190,275,-1,275,190,189,-1,275,189,276,-1,276,189,183,-1,276,183,270,-1,270,183,159,-1,270,159,233,-1,151,153,257,-1,151,257,216,-1,216,257,264,-1,216,264,205,-1,205,264,263,-1,205,263,206,-1,206,263,256,-1,206,256,207,-1,207,256,255,-1,207,255,155,-1,155,255,228,-1,155,228,156,-1,209,258,259,-1,209,259,210,-1,210,259,267,-1,210,267,211,-1,211,267,266,-1,211,266,213,-1,213,266,265,-1,213,265,214,-1,214,265,277,-1,214,277,215,-1,215,277,154,-1,215,154,152,-1,480,288,342,-1,480,342,531,-1,531,342,346,-1,531,346,532,-1,532,346,345,-1,532,345,537,-1,537,345,344,-1,537,344,538,-1,538,344,343,-1,538,343,507,-1,507,343,279,-1,507,279,281,-1,282,280,340,-1,282,340,539,-1,539,340,339,-1,539,339,524,-1,524,339,333,-1,524,333,525,-1,525,333,307,-1,525,307,526,-1,526,307,306,-1,526,306,510,-1,510,306,305,-1,510,305,509,-1,285,479,478,-1,285,478,320,-1,320,478,523,-1,320,523,321,-1,321,523,522,-1,321,522,334,-1,334,522,521,-1,334,521,335,-1,335,521,536,-1,335,536,322,-1,322,536,347,-1,322,347,323,-1,528,325,326,-1,528,326,529,-1,529,326,338,-1,529,338,530,-1,530,338,337,-1,530,337,533,-1,533,337,336,-1,533,336,534,-1,534,336,341,-1,534,341,535,-1,535,341,324,-1,535,324,348,-1,241,186,242,-1,242,186,161,-1,242,161,243,-1,243,161,160,-1,243,160,244,-1,244,160,201,-1,244,201,245,-1,245,201,200,-1,245,200,246,-1,246,200,199,-1,246,199,247,-1,247,199,198,-1,247,198,248,-1,248,198,197,-1,248,197,249,-1,249,197,196,-1,249,196,225,-1,225,196,194,-1,225,194,226,-1,226,194,193,-1,226,193,237,-1,237,193,178,-1,224,169,222,-1,222,169,174,-1,222,174,220,-1,220,174,176,-1,220,176,250,-1,250,176,195,-1,250,195,230,-1,230,195,167,-1,230,167,229,-1,229,167,166,-1,229,166,227,-1,227,166,165,-1,227,165,231,-1,231,165,164,-1,231,164,232,-1,232,164,173,-1,232,173,234,-1,234,173,172,-1,234,172,251,-1,251,172,171,-1,251,171,252,-1,252,171,158,-1,301,504,283,-1,283,504,483,-1,283,483,284,-1,284,483,482,-1,284,482,296,-1,296,482,481,-1,296,481,286,-1,286,481,500,-1,286,500,287,-1,287,500,499,-1,287,499,311,-1,311,499,490,-1,311,490,313,-1,313,490,491,-1,313,491,314,-1,314,491,489,-1,314,489,294,-1,294,489,513,-1,294,513,295,-1,295,513,514,-1,295,514,297,-1,297,514,498,-1,293,502,291,-1,291,502,484,-1,291,484,289,-1,289,484,496,-1,289,496,327,-1,327,496,512,-1,327,512,312,-1,312,512,511,-1,312,511,310,-1,310,511,488,-1,310,488,328,-1,328,488,487,-1,328,487,329,-1,329,487,520,-1,329,520,330,-1,330,520,519,-1,330,519,332,-1,332,519,518,-1,332,518,318,-1,318,518,495,-1,318,495,317,-1,317,495,494,-1,317,494,493,-1,317,493,315,-1,315,493,492,-1,315,492,316,-1,316,492,508,-1,316,508,331,-1,304,516,515,-1,304,515,308,-1,308,515,503,-1,308,503,309,-1,309,503,502,-1,309,502,293,-1,297,498,497,-1,297,497,298,-1,298,497,486,-1,298,486,290,-1,290,486,485,-1,290,485,292,-1,319,527,506,-1,319,506,299,-1,299,506,505,-1,299,505,300,-1,300,505,504,-1,300,504,301,-1,237,178,177,-1,237,177,238,-1,238,177,175,-1,238,175,221,-1,221,175,168,-1,221,168,223,-1,254,208,188,-1,254,188,239,-1,239,188,187,-1,239,187,240,-1,240,187,186,-1,240,186,241,-1,252,158,157,-1,252,157,253,-1,253,157,184,-1,253,184,260,-1,260,184,163,-1,260,163,261,-1,219,181,182,-1,219,182,235,-1,235,182,170,-1,235,170,236,-1,236,170,169,-1,236,169,224,-1,448,447,577,-1,448,577,566,-1,566,577,579,-1,566,579,563,-1,563,579,580,-1,563,580,567,-1,567,580,574,-1,567,574,568,-1,568,574,572,-1,568,572,570,-1,570,572,180,-1,570,180,179,-1,9,19,640,-1,583,639,584,-1,584,639,638,-1,584,638,585,-1,585,638,637,-1,585,637,586,-1,586,637,636,-1,586,636,587,-1,587,636,398,-1,587,398,400,-1,10,9,583,-1,583,9,640,-1,583,640,639,-1,387,439,549,-1,387,549,555,-1,555,549,550,-1,555,550,551,-1,551,550,542,-1,551,542,552,-1,552,542,541,-1,552,541,561,-1,561,541,544,-1,561,544,560,-1,560,544,303,-1,560,303,302,-1,107,449,39,-1,39,449,385,-1,39,385,42,-1,42,385,384,-1,42,384,43,-1,43,384,417,-1,43,417,108,-1,108,417,394,-1,108,394,110,-1,110,394,393,-1,110,393,20,-1,20,393,446,-1,98,378,41,-1,41,378,403,-1,41,403,37,-1,37,403,402,-1,37,402,38,-1,38,402,401,-1,38,401,40,-1,40,401,383,-1,40,383,106,-1,106,383,451,-1,106,451,84,-1,84,451,450,-1,430,82,431,-1,431,82,74,-1,431,74,432,-1,432,74,72,-1,432,72,434,-1,434,72,70,-1,434,70,435,-1,435,70,94,-1,435,94,436,-1,436,94,142,-1,436,142,437,-1,437,142,141,-1,437,141,438,-1,438,141,140,-1,388,127,390,-1,390,127,95,-1,390,95,356,-1,356,95,96,-1,356,96,357,-1,357,96,29,-1,357,29,414,-1,414,29,28,-1,414,28,392,-1,392,28,75,-1,392,75,361,-1,361,75,34,-1,351,25,391,-1,391,25,44,-1,391,44,389,-1,389,44,46,-1,389,46,433,-1,433,46,69,-1,433,69,429,-1,429,69,71,-1,429,71,367,-1,367,71,73,-1,367,73,368,-1,368,73,32,-1,441,67,440,-1,440,67,66,-1,440,66,359,-1,359,66,36,-1,359,36,360,-1,360,36,35,-1,360,35,371,-1,371,35,30,-1,371,30,352,-1,352,30,62,-1,352,62,353,-1,353,62,18,-1,52,366,407,-1,52,407,53,-1,53,407,406,-1,53,406,92,-1,92,406,411,-1,92,411,76,-1,76,411,410,-1,76,410,77,-1,77,410,409,-1,77,409,78,-1,78,409,445,-1,78,445,93,-1,93,445,143,-1,93,143,51,-1,33,144,461,-1,33,461,117,-1,117,461,444,-1,117,444,79,-1,79,444,443,-1,79,443,80,-1,80,443,442,-1,80,442,81,-1,81,442,460,-1,81,460,68,-1,68,460,408,-1,68,408,31,-1,112,149,412,-1,112,412,139,-1,139,412,464,-1,139,464,114,-1,114,464,465,-1,114,465,115,-1,115,465,463,-1,115,463,116,-1,116,463,462,-1,116,462,113,-1,113,462,413,-1,113,413,65,-1,137,468,467,-1,137,467,134,-1,134,467,471,-1,134,471,136,-1,136,471,470,-1,136,470,135,-1,135,470,469,-1,135,469,133,-1,133,469,466,-1,133,466,138,-1,138,466,150,-1,138,150,111,-1,641,642,400,-1,400,642,643,-1,400,643,588,-1,423,418,644,-1,644,645,423,-1,423,645,646,-1,423,646,400,-1,400,646,647,-1,400,647,641,-1,648,649,420,-1,420,649,650,-1,420,650,418,-1,418,650,651,-1,418,651,644,-1,420,421,648,-1,648,421,474,-1,648,474,652,-1,652,474,473,-1,652,473,653,-1,653,473,472,-1,653,472,89,-1,453,88,454,-1,454,88,87,-1,454,87,354,-1,354,87,17,-1,354,17,369,-1,369,17,16,-1,369,16,370,-1,370,16,50,-1,370,50,372,-1,372,50,49,-1,372,49,373,-1,373,49,48,-1,395,54,396,-1,396,54,120,-1,396,120,397,-1,397,120,119,-1,397,119,399,-1,399,119,118,-1,399,118,422,-1,422,118,109,-1,422,109,419,-1,419,109,91,-1,419,91,452,-1,452,91,90,-1,363,60,379,-1,379,60,59,-1,379,59,380,-1,380,59,23,-1,380,23,382,-1,382,23,22,-1,382,22,426,-1,426,22,83,-1,426,83,427,-1,427,83,57,-1,427,57,428,-1,428,57,55,-1,415,47,416,-1,416,47,64,-1,416,64,362,-1,362,64,63,-1,362,63,358,-1,358,63,45,-1,358,45,355,-1,355,45,27,-1,355,27,349,-1,349,27,26,-1,349,26,350,-1,350,26,61,-1,620,14,616,-1,616,14,12,-1,616,12,615,-1,615,12,11,-1,615,11,614,-1,614,11,7,-1,614,7,617,-1,617,7,5,-1,617,5,618,-1,618,5,4,-1,618,4,582,-1,582,4,8,-1,613,621,599,-1,599,621,635,-1,599,635,600,-1,600,635,619,-1,622,612,610,-1,622,610,633,-1,633,610,608,-1,633,608,631,-1,631,608,606,-1,631,606,629,-1,629,606,604,-1,629,604,623,-1,611,627,609,-1,609,627,634,-1,609,634,607,-1,607,634,632,-1,607,632,605,-1,605,632,630,-1,605,630,603,-1,603,630,626,-1,15,628,13,-1,13,628,598,-1,501,517,558,-1,558,517,546,-1,558,546,559,-1,559,546,545,-1,559,545,554,-1,554,545,540,-1,554,540,553,-1,553,540,543,-1,553,543,556,-1,556,543,548,-1,556,548,557,-1,557,548,547,-1,557,547,128,-1,128,547,129,-1,89,21,653,-1,653,21,652,-1,597,596,651,-1,651,650,597,-1,597,650,649,-1,597,649,21,-1,21,649,648,-1,21,648,652,-1,594,593,647,-1,647,646,594,-1,594,646,645,-1,594,645,596,-1,596,645,644,-1,596,644,651,-1,595,591,588,-1,588,643,595,-1,595,643,642,-1,595,642,593,-1,593,642,641,-1,593,641,647,-1,218,217,571,-1,571,217,581,-1,571,581,569,-1,569,581,573,-1,569,573,564,-1,564,573,575,-1,564,575,565,-1,565,575,578,-1,565,578,562,-1,562,578,576,-1,562,576,85,-1,85,576,86,-1,105,102,374,-1,374,102,375,-1,375,102,377,-1,377,102,101,-1,377,101,404,-1,404,101,99,-1,404,99,405,-1,405,99,97,-1,405,97,381,-1,381,97,56,-1,381,56,364,-1,364,56,58,-1,364,58,365,-1,365,58,24,-1,0,2,424,-1,0,424,103,-1,103,424,477,-1,103,477,130,-1,130,477,476,-1,130,476,131,-1,131,476,475,-1,131,475,132,-1,132,475,425,-1,132,425,104,-1,104,425,376,-1,104,376,100,-1,105,374,386,-1,105,386,121,-1,121,386,459,-1,121,459,122,-1,122,459,458,-1,122,458,123,-1,123,458,455,-1,123,455,124,-1,124,455,456,-1,124,456,125,-1,125,456,457,-1,125,457,126,-1,126,457,3,-1,126,3,1,-1,
        ]
    }
}