#VRML V2.0 utf8
# 3D model generated by easyeda2kicad.py (https://github.com/uPesy/easyeda2kicad.py)

Shape{
    appearance Appearance {
        material  Material 	{
            diffuseColor 0.25098039215686274 0.25098039215686274 0.25098039215686274
            specularColor 0.12549019607843137 0.12549019607843137 0.12549019607843137
            ambientIntensity 0.251
            transparency 0.0
            shininess 0.5
        }
    }
    geometry IndexedFaceSet {
        ccw TRUE
        solid FALSE
        coord DEF co Coordinate {
            point [
                0.9297 0.3451 0.1181, 0.9297 0.4186 0.1181, 1.0084 0.4186 0.1181, 1.3386 0.4921 0.1181, 1.3386 0.4186 0.1181, 1.1909 0.4186 0.1181, 1.1909 0.1613 0.1181, 1.3386 0.2953 0.1181, 1.4961 0.2953 0.1181, 1.5551 0.1613 0.1181, 1.1909 0.5315 0.1181, 1.5551 0.5315 0.1181, 1.5551 0.4186 0.1181, 1.4961 0.4186 0.1181, 1.4961 0.4921 0.1181, 1.3386 -0.3998 0.1181, 1.3386 -0.4921 0.1181, 1.1909 -0.5315 0.1181, 1.5551 -0.5315 0.1181, 1.4961 -0.4921 0.1181, 1.5551 -0.3998 0.1181, 1.4961 -0.3998 0.1181, 1.5551 -0.2423 0.1181, 1.1909 -0.3998 0.1181, 1.3386 -0.2953 0.1181, 1.1909 -0.2423 0.1181, 1.4961 -0.2953 0.1181, -1.1909 -0.5315 0.1181, -1.6142 -0.5315 0.1181, -1.3386 -0.4921 0.1181, -1.4961 -0.4921 0.1181, -1.1909 -0.2423 0.1181, -1.1909 -0.3998 0.1181, -1.3386 -0.3998 0.1181, -1.4961 -0.3998 0.1181, -1.6142 -0.3998 0.1181, -1.4961 -0.2953 0.1181, -1.6142 -0.2423 0.1181, -1.3386 -0.2953 0.1181, -1.3386 0.4186 0.1181, -1.1909 0.4186 0.1181, -1.3386 0.2953 0.1181, -1.1909 0.1613 0.1181, -1.4961 0.2953 0.1181, -1.1909 0.5315 0.1181, -1.3386 0.4921 0.1181, -1.6142 0.5315 0.1181, -1.4961 0.4921 0.1181, -1.6142 0.4186 0.1181, -1.4961 0.4186 0.1181, -1.6142 0.1613 0.1181, 1.0084 0.227 0.1181, 1.0433 0.227 0.1181, 0.8965 0.4186 0.1181, 0.9252 0.3451 0.1181, 0.9252 0.227 0.1181, 0.8965 0.1613 0.1181, 0.9297 0.1613 0.1181, 1.0433 0.3451 0.1181, 1.0084 0.3451 0.1181, -0.4921 -0.3998 0.1181, -0.9252 -0.3075 0.1181, -1.0433 -0.3075 0.1181, -0.4921 -0.2423 0.1181, -0.9252 -0.2423 0.1181, -0.4921 0.0154 0.1181, -1.0433 -0.2423 0.1181, -1.0433 -0.1894 0.1181, -1.1909 0.0154 0.1181, -0.9252 -0.1894 0.1181, 0.9297 -0.3075 0.1181, 1.0084 -0.3075 0.1181, 0.9297 -0.3998 0.1181, 1.0084 -0.3998 0.1181, 1.0433 -0.1894 0.1181, 1.0084 -0.1894 0.1181, 1.0084 0.0154 0.1181, 0.9297 -0.1894 0.1181, 1.0433 -0.3075 0.1181, 1.0433 -0.2423 0.1181, 1.1909 0.0154 0.1181, 0.0591 -0.3075 0.1181, 0.3568 -0.3998 0.1181, -0.0591 -0.3075 0.1181, -0.0591 -0.2423 0.1181, -0.0591 -0.1894 0.1181, 0.0591 -0.1894 0.1181, 0.8524 0.0947 0.1181, 0.8678 0.0287 0.1181, 0.8524 0.0159 0.1181, 0.8678 0.02 0.1181, 0.8121 0.0947 0.1181, 0.8025 0.1613 0.1181, 0.8121 0.086 0.1181, 0.8102 0.0246 0.1181, 0.8953 0.0244 0.1181, 0.888 0.0236 0.1181, 0.8965 0.0852 0.1181, 0.8102 0.0159 0.1181, 0.8025 0.0154 0.1181, 0.8762 0.0166 0.1181, 0.8841 0.0154 0.1181, 0.8775 0.0248 0.1181, 0.8692 0.0279 0.1181, 0.894 0.0861 0.1181, 0.8769 0.095 0.1181, 0.8863 0.0956 0.1181, 0.8942 0.095 0.1181, 0.8419 0.0515 0.1181, 0.8419 0.0246 0.1181, 0.814 0.0515 0.1181, 0.814 0.0601 0.1181, 0.8419 0.0601 0.1181, 0.8419 0.086 0.1181, 0.8678 0.0925 0.1181, 0.8678 0.0819 0.1181, 0.8767 0.0857 0.1181, 0.8862 0.087 0.1181, 0.8999 0.084 0.1181, 0.9154 0.0606 0.1181, 0.9158 0.0545 0.1181, 0.915 0.0459 0.1181, 0.9059 0.0298 0.1181, 0.9011 0.0265 0.1181, 0.8965 0.0249 0.1181, 0.9053 0.0803 0.1181, 0.9101 0.0751 0.1181, 0.9133 0.069 0.1181, 0.9129 0.0392 0.1181, 0.9096 0.0337 0.1181, 0.9222 0.0739 0.1181, 0.9176 0.0813 0.1181, 0.9131 0.0226 0.1181, 0.919 0.0289 0.1181, 0.9297 0.0154 0.1181, 0.9232 0.0364 0.1181, 0.8965 0.0154 0.1181, 0.8992 0.016 0.1181, 0.9068 0.0186 0.1181, 0.9105 0.0881 0.1181, 0.903 0.0924 0.1181, 0.8965 0.0943 0.1181, 0.9256 0.0447 0.1181, 0.9264 0.0538 0.1181, 0.9252 0.065 0.1181, 0.8873 0.015 0.1181, 0.8895 0.015 0.1181, 0.8965 -0.2423 0.1181, 0.8941 0.0154 0.1181, 0.8965 0.0157 0.1181, 0.7286 0.5315 0.1181, 0.3568 0.4186 0.1181, 0.3568 0.5315 0.1181, -0.4921 0.4186 0.1181, -0.4921 0.5315 0.1181, 1.0084 0.5315 0.1181, 0.9297 0.5315 0.1181, 0.8965 0.5315 0.1181, -1.0433 0.227 0.1181, -1.0433 0.3451 0.1181, -0.9252 0.3451 0.1181, -0.9252 0.227 0.1181, -0.0591 0.227 0.1181, 0.0591 0.227 0.1181, 0.3568 0.1613 0.1181, 0.7286 0.4186 0.1181, 0.8025 0.5315 0.1181, 0.0591 0.3451 0.1181, -0.0591 0.3451 0.1181, -0.4921 0.1613 0.1181, 0.3568 0.0154 0.1181, 0.7141 0.0159 0.1181, 0.7257 0.0159 0.1181, 0.7286 0.0154 0.1181, 0.6661 0.0159 0.1181, 0.6741 0.038 0.1181, 0.7066 0.038 0.1181, 0.7286 0.1613 0.1181, 0.6959 0.0947 0.1181, 0.6853 0.0947 0.1181, 0.6546 0.0159 0.1181, 0.8025 0.4186 0.1181, 0.7354 0.0375 0.1181, 0.7399 0.0305 0.1181, 0.7464 0.0243 0.1181, 0.7546 0.0195 0.1181, 0.7948 0.0947 0.1181, 0.7726 0.0947 0.1181, 0.7612 0.0935 0.1181, 0.752 0.0902 0.1181, 0.7434 0.0845 0.1181, 0.7433 0.0844 0.1181, 0.7378 0.0782 0.1181, 0.7341 0.0715 0.1181, 0.7637 0.0168 0.1181, 0.7734 0.0159 0.1181, 0.7948 0.0159 0.1181, 0.732 0.0637 0.1181, 0.7314 0.0563 0.1181, 0.7325 0.0458 0.1181, 0.9331 0.0246 0.1181, 0.9331 0.0159 0.1181, 0.9734 0.0159 0.1181, 0.9629 0.0246 0.1181, 0.9629 0.0947 0.1181, 0.9734 0.0947 0.1181, 1.0084 0.1613 0.1181, 0.9252 -0.1894 0.1181, 0.9252 -0.2423 0.1181, 0.9252 -0.3075 0.1181, 0.9297 0.227 0.1181, -1.6142 0.0154 0.1181, 0.8025 -0.2423 0.1181, 0.7286 -0.2423 0.1181, 0.3568 -0.2423 0.1181, 0.0591 -0.2423 0.1181, 1.5551 0.0154 0.1181, 0.8965 -0.3998 0.1181, 0.8025 -0.3998 0.1181, 0.7286 -0.3998 0.1181, 1.0084 -0.5315 0.1181, 0.9297 -0.5315 0.1181, 0.8965 -0.5315 0.1181, 0.8025 -0.5315 0.1181, 0.7286 -0.5315 0.1181, 0.3568 -0.5315 0.1181, -0.4921 -0.5315 0.1181, 1.6142 0.5315 0.1181, 1.6142 0.4186 0.1181, 1.6142 0.1613 0.1181, 1.6142 0.0154 0.1181, 1.6142 -0.2423 0.1181, 1.6142 -0.3998 0.1181, 1.6142 -0.5315 0.1181, -0.8661 0.5709 0.3543, 1.6535 0.5315 0.3543, -1.1024 0.5709 0.3543, -1.6535 0.5315 0.3543, -1.1024 0.689 0.3543, -0.8661 0.689 0.3543, -0.1181 0.689 0.3543, -0.1181 0.5709 0.3543, 0.1181 0.5709 0.3543, 1.6654 -0.689 0.3543, 1.1024 -0.689 0.3543, 1.1024 -0.5709 0.3543, 0.1181 0.689 0.3543, 0.8661 0.689 0.3543, 0.8661 0.5709 0.3543, 1.1024 0.5709 0.3543, 1.1024 0.689 0.3543, 0.8661 -0.5709 0.3543, -1.6535 -0.5315 0.3543, 1.6535 -0.5315 0.3543, 1.6654 0.689 0.3543, -0.1181 -0.5709 0.3543, -0.1181 -0.689 0.3543, -0.8661 -0.689 0.3543, -0.8661 -0.5709 0.3543, -1.1024 -0.5709 0.3543, 0.1181 -0.5709 0.3543, 0.1181 -0.689 0.3543, 0.8661 -0.689 0.3543, -1.1024 -0.689 0.3543, -1.6654 -0.689 0.3543, -1.6654 0.689 0.3543, 1.7323 0.689 0.8661, 1.618 0.689 1.3319, 1.6655 0.689 1.3122, 1.6654 0.689 0.4134, 1.7126 0.689 0.4134, 1.7323 0.689 0.3642, 1.7126 0.689 0.3642, 1.7717 0.689 1.1811, 1.7717 0.689 0.8661, 1.7376 0.689 1.2402, 1.7063 0.689 1.2809, 1.1024 0.689 0.4331, 1.5671 0.689 1.3386, -1.5671 0.689 1.3386, 0.8661 0.689 0.4331, -0.1181 0.689 0.4331, -0.8661 0.689 0.4331, 0.1181 0.689 0.4331, -1.7323 0.689 0.8661, -1.7717 0.689 0.8661, -1.7717 0.689 1.1811, -1.7376 0.689 1.2402, -1.7063 0.689 1.2809, -1.1024 0.689 0.4331, -1.6655 0.689 1.3122, -1.618 0.689 1.3319, -1.7126 0.689 0.3642, -1.7323 0.689 0.3642, -1.7126 0.689 0.4134, -1.6654 0.689 0.4134, -1.7376 -0.2559 1.2402, -1.7717 -0.2559 1.1811, -1.7376 -0.689 1.2402, -1.7717 -0.689 1.1811, 1.7376 0.2559 1.2402, 1.7717 0.2559 1.1811, -0.6184 -0.2837 1.3386, -0.6246 -0.2756 1.3386, -1.5671 -0.689 1.3386, 0.6218 -0.3034 1.3386, 0.6155 -0.2953 1.3386, -0.2756 -0.5315 1.3386, -0.0787 -0.2953 1.3386, -0.5906 -0.2953 1.3386, -0.2756 -0.689 1.3386, -0.6102 -0.29 1.3386, 0.6218 0.3034 1.3386, 0.6299 0.3097 1.3386, -0.6007 -0.2939 1.3386, -0.6286 0.2661 1.3386, -0.6246 0.2756 1.3386, -0.6184 0.2837 1.3386, -0.6102 0.29 1.3386, 0.6394 0.3136 1.3386, 0.6496 0.315 1.3386, 1.3976 0.315 1.3386, 1.5671 -0.689 1.3386, 1.3976 -0.315 1.3386, 1.2992 -0.689 1.3386, 0.6299 -0.3097 1.3386, 1.2992 -0.5315 1.3386, 0.6496 -0.315 1.3386, 0.6394 -0.3136 1.3386, 0.0421 0.1779 1.3386, 0.0499 0.1969 1.3386, -0.0394 0.2559 1.3386, 0.4331 0.2362 1.3386, 0.4535 0.2335 1.3386, 0.6155 0.2953 1.3386, -0.6007 0.2939 1.3386, -0.5906 0.2953 1.3386, -0.0787 0.2953 1.3386, -0.0686 0.2939 1.3386, -0.0591 0.29 1.3386, -0.0509 0.2837 1.3386, 0.4887 -0.2132 1.3386, 0.4724 -0.2257 1.3386, 0.4535 -0.2335 1.3386, 0.4331 -0.2362 1.3386, 0.1181 -0.2362 1.3386, 0.0977 -0.2335 1.3386, 0.1181 0.2362 1.3386, 0.4724 0.2257 1.3386, 0.4887 0.2132 1.3386, 0.6116 0.2858 1.3386, 0.6102 0.2756 1.3386, -0.6286 -0.2661 1.3386, -0.6299 -0.2559 1.3386, -0.6299 0.2559 1.3386, 0.5013 -0.1969 1.3386, 0.6116 -0.2858 1.3386, 0.5091 -0.1779 1.3386, 0.0787 -0.2257 1.3386, -0.0446 -0.2756 1.3386, 0.0624 -0.2132 1.3386, -0.0407 -0.2661 1.3386, -0.0509 -0.2837 1.3386, -0.0591 -0.29 1.3386, -0.0686 -0.2939 1.3386, -0.0394 -0.2559 1.3386, 0.0421 -0.1779 1.3386, 0.0394 -0.1575 1.3386, 0.0624 0.2132 1.3386, 0.0787 0.2257 1.3386, 0.0977 0.2335 1.3386, 0.5013 0.1969 1.3386, 0.5091 0.1779 1.3386, 0.6102 -0.2756 1.3386, 0.5118 0.1575 1.3386, 0.5118 -0.1575 1.3386, -0.0407 0.2661 1.3386, -0.0446 0.2756 1.3386, 0.0394 0.1575 1.3386, 0.0499 -0.1969 1.3386, -1.6654 -0.689 0.4134, -1.1024 -0.689 0.4331, -1.7717 -0.689 0.8661, -1.7323 -0.689 0.8661, -1.7323 -0.689 0.3642, -1.7126 -0.689 0.3642, -1.7126 -0.689 0.4134, -1.618 -0.689 1.3319, -1.6655 -0.689 1.3122, -1.7063 -0.689 1.2809, -0.2756 -0.689 0.9449, -0.8661 -0.689 0.4331, -0.1181 -0.689 0.4331, 0.1181 -0.689 0.4331, 0.8661 -0.689 0.4331, 1.7376 -0.689 1.2402, 1.6654 -0.689 0.4134, 1.2992 -0.689 0.9449, 1.7126 -0.689 0.3642, 1.7323 -0.689 0.3642, 1.7126 -0.689 0.4134, 1.7323 -0.689 0.8661, 1.1024 -0.689 0.4331, 1.7717 -0.689 1.1811, 1.7717 -0.689 0.8661, 1.618 -0.689 1.3319, 1.7063 -0.689 1.2809, 1.6655 -0.689 1.3122, 1.7717 -0.2559 1.1811, 1.7717 -0.2559 0.8661, 1.7717 0.2559 0.8661, -1.7717 0.2559 1.1811, -1.7717 0.2559 0.8661, -1.7717 -0.2559 0.8661, 1.6535 0.5315 0.1575, 1.6535 -0.5315 0.1575, -1.6339 -0.5315 0.1234, -1.6522 -0.5315 0.1473, -1.642 -0.5315 0.1296, -1.6483 -0.5315 0.1378, -1.6535 -0.5315 0.1575, -1.6244 -0.5315 0.1195, 1.6244 -0.5315 0.1195, 1.6339 -0.5315 0.1234, 1.642 -0.5315 0.1296, 1.6522 -0.5315 0.1473, 1.6483 -0.5315 0.1378, -1.6535 0.5315 0.1575, 1.6244 0.5315 0.1195, 1.6522 0.5315 0.1473, 1.6483 0.5315 0.1378, 1.642 0.5315 0.1296, 1.6339 0.5315 0.1234, -1.6244 0.5315 0.1195, -1.6522 0.5315 0.1473, -1.6339 0.5315 0.1234, -1.642 0.5315 0.1296, -1.6483 0.5315 0.1378, -1.3386 0.2953 0.063, -1.3386 0.4921 0.063, -1.3407 0.2953 0.0467, -1.4016 0.2953 0.0, -1.4331 0.2953 0.0, -1.4961 0.2953 0.063, -1.3701 0.2953 0.0084, -1.357 0.2953 0.0184, -1.347 0.2953 0.0315, -1.3853 0.2953 0.0021, -1.4939 0.2953 0.0467, -1.4876 0.2953 0.0315, -1.4494 0.2953 0.0021, -1.4776 0.2953 0.0184, -1.4646 0.2953 0.0084, -1.4961 0.4921 0.063, -1.4939 0.4921 0.0467, -1.4331 0.4921 0.0, -1.4016 0.4921 0.0, -1.4646 0.4921 0.0084, -1.4776 0.4921 0.0184, -1.4876 0.4921 0.0315, -1.3407 0.4921 0.0467, -1.347 0.4921 0.0315, -1.3853 0.4921 0.0021, -1.357 0.4921 0.0184, -1.3701 0.4921 0.0084, -1.4494 0.4921 0.0021, -1.3386 -0.2953 0.063, -1.3386 -0.4921 0.063, -1.3407 -0.4921 0.0467, -1.4016 -0.4921 0.0, -1.4331 -0.4921 0.0, -1.3853 -0.4921 0.0021, -1.3701 -0.4921 0.0084, -1.347 -0.4921 0.0315, -1.357 -0.4921 0.0184, -1.4776 -0.4921 0.0184, -1.4646 -0.4921 0.0084, -1.4876 -0.4921 0.0315, -1.4939 -0.4921 0.0467, -1.4961 -0.4921 0.063, -1.4494 -0.4921 0.0021, -1.4961 -0.2953 0.063, -1.4016 -0.2953 0.0, -1.4331 -0.2953 0.0, -1.4939 -0.2953 0.0467, -1.357 -0.2953 0.0184, -1.3701 -0.2953 0.0084, -1.347 -0.2953 0.0315, -1.3407 -0.2953 0.0467, -1.3853 -0.2953 0.0021, -1.4494 -0.2953 0.0021, -1.4646 -0.2953 0.0084, -1.4876 -0.2953 0.0315, -1.4776 -0.2953 0.0184, 1.4961 -0.2953 0.063, 1.4961 -0.4921 0.063, 1.4939 -0.4921 0.0467, 1.4331 -0.4921 0.0, 1.4016 -0.4921 0.0, 1.3386 -0.4921 0.063, 1.4494 -0.4921 0.0021, 1.4646 -0.4921 0.0084, 1.4876 -0.4921 0.0315, 1.4776 -0.4921 0.0184, 1.347 -0.4921 0.0315, 1.357 -0.4921 0.0184, 1.3701 -0.4921 0.0084, 1.3407 -0.4921 0.0467, 1.3853 -0.4921 0.0021, 1.3386 -0.2953 0.063, 1.3407 -0.2953 0.0467, 1.4016 -0.2953 0.0, 1.4331 -0.2953 0.0, 1.4876 -0.2953 0.0315, 1.4776 -0.2953 0.0184, 1.4646 -0.2953 0.0084, 1.4939 -0.2953 0.0467, 1.4494 -0.2953 0.0021, 1.3853 -0.2953 0.0021, 1.3701 -0.2953 0.0084, 1.347 -0.2953 0.0315, 1.357 -0.2953 0.0184, 1.4961 0.2953 0.063, 1.4961 0.4921 0.063, 1.3386 0.2953 0.063, 1.347 0.2953 0.0315, 1.357 0.2953 0.0184, 1.3701 0.2953 0.0084, 1.4016 0.2953 0.0, 1.4331 0.2953 0.0, 1.4939 0.2953 0.0467, 1.4646 0.2953 0.0084, 1.4776 0.2953 0.0184, 1.4876 0.2953 0.0315, 1.3407 0.2953 0.0467, 1.3853 0.2953 0.0021, 1.4494 0.2953 0.0021, 1.3386 0.4921 0.063, 1.4876 0.4921 0.0315, 1.4776 0.4921 0.0184, 1.4646 0.4921 0.0084, 1.4331 0.4921 0.0, 1.4016 0.4921 0.0, 1.3407 0.4921 0.0467, 1.3701 0.4921 0.0084, 1.357 0.4921 0.0184, 1.347 0.4921 0.0315, 1.4939 0.4921 0.0467, 1.4494 0.4921 0.0021, 1.3853 0.4921 0.0021, 1.0433 0.227 0.1969, 1.0433 0.3451 0.1969, 0.9252 0.3451 0.1969, 0.9252 0.227 0.1969, -0.9252 -0.3075 0.1969, -0.9252 -0.1894 0.1969, -1.0433 -0.1894 0.1969, -1.0433 -0.3075 0.1969, 1.0433 -0.3075 0.1969, 1.0433 -0.1894 0.1969, 0.9252 -0.1894 0.1969, 0.9252 -0.3075 0.1969, 0.0591 0.227 0.1969, 0.0591 0.3451 0.1969, -0.0591 0.3451 0.1969, -0.0591 0.227 0.1969, 0.0591 -0.3075 0.1969, 0.0591 -0.1894 0.1969, -0.0591 -0.1894 0.1969, -0.0591 -0.3075 0.1969, -0.9252 0.227 0.1969, -0.9252 0.3451 0.1969, -1.0433 0.3451 0.1969, -1.0433 0.227 0.1969, -1.7323 0.2559 0.8661, -1.7376 0.2559 1.2402, -1.7323 0.2559 1.2488, -1.7323 -0.2559 0.8661, -1.7323 -0.2559 1.2488, 1.7323 0.2559 0.8661, 1.7323 -0.2559 0.8661, 1.7376 -0.2559 1.2402, 1.7323 -0.2559 1.2488, 1.7323 0.2559 1.2488, 1.2992 -0.5315 0.9449, -0.2756 -0.5315 0.9449, -0.6299 0.2559 2.9134, -0.6299 -0.2559 2.9134, -0.5906 -0.2953 2.9134, -0.0787 -0.2953 2.9134, -0.0394 -0.2559 2.9134, -0.0394 0.2559 2.9134, -0.5906 0.2953 2.9134, -0.0787 0.2953 2.9134, -0.0686 -0.2939 2.9134, -0.0591 -0.29 2.9134, -0.0509 -0.2837 2.9134, -0.6102 -0.29 2.9134, -0.6007 -0.2939 2.9134, -0.0407 -0.2661 2.9134, -0.0446 -0.2756 2.9134, -0.0591 0.29 2.9134, -0.0509 0.2837 2.9134, -0.0407 0.2661 2.9134, -0.0446 0.2756 2.9134, -0.6007 0.2939 2.9134, -0.6102 0.29 2.9134, -0.6184 -0.2837 2.9134, -0.6286 -0.2661 2.9134, -0.6246 -0.2756 2.9134, -0.0686 0.2939 2.9134, -0.6184 0.2837 2.9134, -0.6246 0.2756 2.9134, -0.6286 0.2661 2.9134, 0.0394 -0.1575 1.2598, 0.0394 0.1575 1.2598, 0.4331 0.2362 1.2598, 0.1181 0.2362 1.2598, 0.5118 -0.1575 1.2598, 0.5118 0.1575 1.2598, 0.4331 -0.2362 1.2598, 0.1181 -0.2362 1.2598, 0.0421 -0.1779 1.2598, 0.0499 -0.1969 1.2598, 0.0977 0.2335 1.2598, 0.0787 0.2257 1.2598, 0.0421 0.1779 1.2598, 0.0624 0.2132 1.2598, 0.0499 0.1969 1.2598, 0.5091 0.1779 1.2598, 0.5013 0.1969 1.2598, 0.0624 -0.2132 1.2598, 0.0787 -0.2257 1.2598, 0.0977 -0.2335 1.2598, 0.4535 -0.2335 1.2598, 0.4724 -0.2257 1.2598, 0.4887 -0.2132 1.2598, 0.5013 -0.1969 1.2598, 0.5091 -0.1779 1.2598, 0.4887 0.2132 1.2598, 0.4724 0.2257 1.2598, 0.4535 0.2335 1.2598, 0.6102 -0.2756 1.2598, 0.6102 0.2756 1.2598, 0.6496 0.315 1.2598, 1.3976 0.315 1.2598, 1.3976 -0.315 1.2598, 0.6496 -0.315 1.2598, 0.6299 -0.3097 1.2598, 0.6394 -0.3136 1.2598, 0.6299 0.3097 1.2598, 0.6218 0.3034 1.2598, 0.6155 0.2953 1.2598, 0.6218 -0.3034 1.2598, 0.6116 -0.2858 1.2598, 0.6155 -0.2953 1.2598, 0.6394 0.3136 1.2598, 0.6116 0.2858 1.2598, 0.8661 -0.5709 0.4331, 1.1024 -0.5709 0.4331, -0.1181 -0.5709 0.4331, 0.1181 -0.5709 0.4331, -1.1024 -0.5709 0.4331, -0.8661 -0.5709 0.4331, 0.8661 0.5709 0.4331, 1.1024 0.5709 0.4331, -0.1181 0.5709 0.4331, 0.1181 0.5709 0.4331, -1.1024 0.5709 0.4331, -0.8661 0.5709 0.4331, 1.732 0.6887 0.362, 1.7317 0.6884 0.3609, 1.7136 0.688 0.3599, 1.7313 0.688 0.3599, 1.7136 0.688 0.3599, 1.7313 0.688 0.3599, 1.7147 0.6868 0.358, 1.7301 0.6868 0.358, 1.7148 0.6868 0.358, 1.7301 0.6868 0.358, 1.7163 0.6853 0.3565, 1.7286 0.6853 0.3565, 1.7163 0.6852 0.3564, 1.7285 0.6852 0.3564, 1.7182 0.6834 0.3553, 1.7267 0.6834 0.3553, 1.7182 0.6833 0.3553, 1.7266 0.6833 0.3553, 1.7203 0.6813 0.3546, 1.7246 0.6813 0.3546, 1.7203 0.6812 0.3546, 1.7246 0.6812 0.3546, 1.7224 0.6791 0.3543, 1.7132 0.6884 0.3609, 1.7128 0.6887 0.362, 1.732 0.6887 0.362, 1.7128 0.6887 0.362, 1.7322 0.6889 0.3631, 1.7127 0.6889 0.3631, 1.7128 -0.6887 0.362, 1.7128 -0.6887 0.362, 1.7224 -0.6791 0.3543, 1.7203 -0.6812 0.3546, 1.7203 -0.6813 0.3546, 1.7182 -0.6833 0.3553, 1.7182 -0.6834 0.3553, 1.7163 -0.6852 0.3564, 1.7163 -0.6853 0.3565, 1.7148 -0.6868 0.358, 1.7147 -0.6868 0.358, 1.7136 -0.688 0.3599, 1.7136 -0.688 0.3599, 1.7132 -0.6884 0.3609, 1.7127 -0.6889 0.3631, 1.7246 -0.6812 0.3546, 1.7322 -0.6889 0.3631, 1.7313 -0.688 0.3599, 1.7313 -0.688 0.3599, 1.7317 -0.6884 0.3609, 1.732 -0.6887 0.362, 1.732 -0.6887 0.362, 1.7301 -0.6868 0.358, 1.7301 -0.6868 0.358, 1.7286 -0.6853 0.3565, 1.7285 -0.6852 0.3564, 1.7246 -0.6813 0.3546, 1.7267 -0.6833 0.3553, 1.7267 -0.6834 0.3553, -1.7203 -0.6812 0.3546, -1.7224 -0.6791 0.3543, -1.7224 0.6791 0.3543, -1.7199 -0.6817 0.3547, -1.7203 0.6812 0.3546, -1.7199 0.6817 0.3547, -1.7183 -0.6833 0.3553, -1.7175 -0.6841 0.3556, -1.7182 0.6833 0.3553, -1.7175 0.684 0.3557, -1.7164 -0.6852 0.3565, -1.7155 -0.6861 0.3572, -1.7163 0.6852 0.3564, -1.7155 0.686 0.3573, -1.7148 -0.6868 0.358, -1.7148 0.6868 0.358, -1.714 0.6876 0.3593, -1.714 -0.6876 0.3593, -1.7136 0.688 0.3599, -1.7136 -0.688 0.3599, -1.7129 0.6886 0.3616, -1.7129 -0.6886 0.3616, -1.7128 -0.6887 0.362, -1.7129 0.6887 0.362, -1.7127 -0.6889 0.3631, -1.7127 0.6889 0.3631, -1.7246 0.6812 0.3546, -1.7294 0.686 0.3573, -1.7301 0.6868 0.358, -1.7322 0.6889 0.3631, -1.732 0.6887 0.362, -1.7319 0.6886 0.3616, -1.7313 0.688 0.3599, -1.7309 0.6876 0.3593, -1.7285 0.6852 0.3564, -1.725 0.6817 0.3547, -1.7267 0.6833 0.3553, -1.7273 0.684 0.3557, -1.7245 -0.6812 0.3546, -1.7285 -0.6852 0.3565, -1.7274 -0.6841 0.3556, -1.725 -0.6817 0.3547, -1.7266 -0.6833 0.3553, -1.7294 -0.6861 0.3572, -1.7301 -0.6868 0.358, -1.7309 -0.6876 0.3593, -1.7313 -0.688 0.3599, -1.7319 -0.6886 0.3616, -1.732 -0.6887 0.362, -1.7322 -0.6889 0.3631
            ]
        }
        coordIndex [
            0,1,2,-1,3,4,5,-1,5,4,6,-1,7,8,9,-1,3,10,11,-1,9,8,12,-1,12,8,13,-1,12,13,11,-1,11,13,14,-1,11,14,3,-1,15,16,17,-1,17,16,18,-1,18,16,19,-1,18,19,20,-1,20,19,21,-1,20,21,22,-1,15,23,24,-1,24,23,25,-1,24,25,26,-1,27,28,29,-1,29,28,30,-1,31,32,33,-1,30,28,34,-1,34,28,35,-1,34,35,36,-1,36,35,37,-1,36,37,38,-1,39,40,41,-1,41,40,42,-1,41,42,43,-1,44,45,46,-1,46,45,47,-1,46,47,48,-1,48,47,49,-1,48,49,50,-1,51,52,6,-1,1,0,53,-1,54,55,56,-1,56,55,57,-1,6,52,5,-1,5,52,58,-1,5,58,2,-1,2,58,59,-1,2,59,0,-1,60,32,61,-1,61,32,62,-1,60,61,63,-1,63,61,64,-1,63,64,65,-1,62,32,66,-1,66,32,31,-1,66,31,67,-1,67,31,68,-1,67,68,69,-1,70,71,72,-1,72,71,73,-1,74,75,76,-1,76,75,77,-1,73,71,23,-1,23,71,78,-1,23,78,25,-1,25,78,79,-1,25,79,80,-1,81,82,83,-1,83,82,60,-1,83,60,84,-1,84,60,63,-1,84,63,85,-1,85,63,65,-1,85,65,86,-1,87,88,89,-1,89,88,90,-1,87,91,92,-1,92,91,93,-1,92,93,94,-1,95,96,97,-1,94,98,99,-1,99,98,89,-1,90,100,89,-1,89,100,101,-1,89,101,99,-1,96,102,97,-1,97,102,103,-1,97,103,104,-1,105,56,106,-1,106,56,107,-1,108,109,110,-1,110,109,94,-1,110,94,111,-1,111,94,93,-1,111,93,112,-1,112,93,113,-1,92,114,87,-1,87,114,115,-1,87,115,88,-1,88,115,116,-1,88,116,103,-1,103,116,117,-1,103,117,104,-1,118,119,97,-1,97,119,120,-1,97,120,121,-1,122,123,97,-1,97,123,124,-1,97,124,95,-1,118,125,119,-1,119,125,126,-1,119,126,127,-1,121,128,97,-1,97,128,129,-1,97,129,122,-1,130,131,57,-1,132,133,134,-1,134,133,135,-1,136,137,134,-1,134,137,138,-1,134,138,132,-1,131,139,57,-1,57,139,140,-1,57,140,56,-1,56,140,141,-1,56,141,107,-1,135,142,134,-1,134,142,143,-1,134,143,57,-1,57,143,144,-1,57,144,130,-1,145,146,147,-1,147,146,148,-1,147,148,136,-1,136,148,149,-1,136,149,137,-1,150,151,152,-1,152,151,153,-1,152,153,154,-1,154,153,40,-1,154,40,44,-1,44,40,39,-1,44,39,45,-1,3,5,10,-1,10,5,2,-1,10,2,155,-1,155,2,1,-1,155,1,156,-1,156,1,53,-1,156,53,157,-1,158,42,159,-1,159,42,40,-1,159,40,160,-1,160,40,153,-1,160,153,161,-1,162,163,164,-1,164,163,151,-1,164,151,165,-1,165,151,150,-1,165,150,166,-1,163,167,151,-1,151,167,168,-1,151,168,153,-1,153,168,169,-1,153,169,161,-1,0,54,53,-1,53,54,56,-1,53,56,92,-1,92,56,105,-1,92,105,114,-1,158,161,42,-1,42,161,169,-1,42,169,68,-1,68,169,65,-1,68,65,69,-1,69,65,64,-1,168,162,169,-1,169,162,164,-1,169,164,65,-1,65,164,170,-1,65,170,86,-1,171,172,173,-1,174,175,176,-1,173,172,177,-1,177,172,178,-1,177,178,179,-1,176,171,174,-1,174,171,173,-1,174,173,180,-1,180,173,170,-1,180,170,179,-1,179,170,164,-1,179,164,177,-1,177,164,165,-1,177,165,181,-1,181,165,166,-1,181,166,157,-1,182,183,173,-1,173,183,184,-1,173,184,185,-1,94,99,92,-1,92,99,186,-1,92,186,187,-1,188,189,177,-1,177,189,190,-1,157,53,181,-1,181,53,92,-1,181,92,177,-1,177,92,187,-1,177,187,188,-1,190,191,177,-1,177,191,192,-1,177,192,193,-1,185,194,173,-1,173,194,195,-1,173,195,99,-1,99,195,196,-1,99,196,186,-1,193,197,177,-1,177,197,198,-1,177,198,173,-1,173,198,199,-1,173,199,182,-1,57,200,134,-1,134,200,201,-1,134,201,202,-1,203,200,204,-1,204,200,57,-1,204,57,205,-1,205,57,206,-1,205,206,202,-1,202,206,76,-1,202,76,134,-1,134,76,77,-1,134,77,136,-1,136,77,207,-1,136,207,147,-1,147,207,208,-1,147,208,209,-1,55,210,57,-1,57,210,51,-1,57,51,206,-1,206,51,6,-1,206,6,76,-1,76,6,80,-1,76,80,74,-1,74,80,79,-1,49,43,50,-1,50,43,42,-1,50,42,211,-1,211,42,68,-1,211,68,37,-1,37,68,31,-1,37,31,38,-1,38,31,33,-1,145,147,101,-1,101,147,212,-1,101,212,99,-1,99,212,213,-1,99,213,173,-1,173,213,214,-1,173,214,170,-1,170,214,215,-1,170,215,86,-1,4,7,6,-1,6,7,9,-1,6,9,80,-1,80,9,216,-1,80,216,25,-1,25,216,22,-1,25,22,26,-1,26,22,21,-1,70,72,209,-1,209,72,217,-1,209,217,147,-1,147,217,218,-1,147,218,212,-1,212,218,219,-1,212,219,213,-1,213,219,82,-1,213,82,214,-1,214,82,81,-1,214,81,215,-1,15,17,23,-1,23,17,220,-1,23,220,73,-1,73,220,221,-1,73,221,72,-1,72,221,222,-1,72,222,217,-1,217,222,223,-1,217,223,218,-1,218,223,224,-1,218,224,219,-1,219,224,225,-1,219,225,82,-1,82,225,226,-1,82,226,60,-1,60,226,27,-1,60,27,32,-1,32,27,29,-1,32,29,33,-1,11,227,12,-1,12,227,228,-1,12,228,9,-1,9,228,229,-1,9,229,216,-1,216,229,230,-1,216,230,22,-1,22,230,231,-1,22,231,20,-1,20,231,232,-1,20,232,18,-1,18,232,233,-1,234,235,236,-1,236,235,237,-1,236,237,238,-1,239,240,234,-1,234,240,241,-1,234,241,235,-1,235,241,242,-1,243,244,245,-1,246,247,242,-1,242,247,248,-1,242,248,235,-1,235,248,249,-1,235,249,250,-1,251,252,253,-1,250,254,235,-1,235,254,243,-1,235,243,253,-1,253,243,245,-1,253,245,251,-1,255,256,257,-1,258,259,252,-1,257,258,255,-1,255,258,252,-1,255,252,260,-1,260,252,251,-1,260,251,261,-1,261,251,262,-1,259,263,252,-1,252,263,264,-1,252,264,237,-1,237,264,265,-1,237,265,238,-1,266,267,268,-1,269,266,270,-1,270,266,271,-1,270,271,272,-1,273,274,275,-1,275,274,266,-1,275,266,276,-1,276,266,268,-1,254,250,269,-1,269,250,277,-1,267,266,278,-1,278,266,269,-1,278,269,279,-1,279,269,277,-1,279,277,280,-1,281,240,239,-1,239,282,281,-1,281,282,279,-1,281,279,283,-1,283,279,280,-1,283,280,246,-1,246,280,247,-1,284,285,286,-1,282,287,288,-1,287,282,286,-1,286,282,289,-1,286,289,284,-1,288,290,282,-1,282,290,291,-1,282,291,279,-1,292,293,294,-1,294,293,284,-1,294,284,295,-1,295,284,289,-1,295,289,265,-1,265,289,238,-1,296,297,298,-1,298,297,299,-1,300,301,275,-1,275,301,273,-1,302,303,304,-1,305,306,307,-1,308,309,307,-1,304,310,307,-1,302,304,311,-1,279,312,313,-1,307,309,304,-1,304,309,314,-1,304,314,311,-1,315,316,279,-1,279,316,317,-1,279,317,318,-1,313,319,279,-1,279,319,320,-1,279,320,278,-1,278,320,321,-1,278,321,322,-1,322,321,323,-1,322,323,324,-1,305,307,325,-1,324,323,326,-1,326,323,327,-1,326,327,307,-1,307,327,328,-1,307,328,325,-1,329,330,331,-1,332,333,334,-1,318,335,279,-1,279,335,336,-1,279,336,312,-1,312,336,337,-1,337,338,312,-1,312,338,339,-1,312,339,340,-1,306,341,342,-1,342,343,306,-1,306,343,344,-1,306,344,307,-1,307,344,345,-1,307,345,346,-1,332,334,347,-1,333,348,334,-1,334,348,349,-1,334,349,350,-1,350,349,351,-1,303,352,304,-1,304,352,353,-1,304,353,279,-1,279,353,354,-1,279,354,315,-1,341,306,355,-1,355,306,356,-1,355,356,357,-1,346,358,359,-1,359,358,360,-1,359,360,361,-1,359,362,346,-1,346,362,363,-1,346,363,307,-1,307,363,364,-1,307,364,308,-1,365,366,367,-1,330,368,331,-1,331,368,369,-1,331,369,370,-1,349,371,351,-1,351,371,372,-1,351,372,373,-1,373,372,374,-1,373,374,356,-1,356,374,375,-1,356,375,357,-1,370,347,331,-1,331,347,334,-1,331,334,376,-1,376,334,312,-1,376,312,377,-1,377,312,340,-1,365,367,331,-1,331,367,378,-1,331,378,329,-1,361,360,365,-1,365,360,379,-1,365,379,366,-1,264,263,380,-1,380,263,381,-1,299,382,298,-1,298,382,383,-1,384,385,386,-1,310,304,383,-1,383,304,387,-1,387,388,383,-1,383,388,389,-1,383,389,298,-1,384,386,383,-1,383,386,380,-1,383,380,310,-1,310,380,381,-1,310,381,390,-1,390,381,391,-1,390,391,392,-1,392,391,257,-1,392,257,256,-1,261,262,393,-1,393,262,394,-1,322,324,395,-1,243,396,397,-1,398,399,400,-1,400,399,401,-1,244,243,402,-1,402,243,397,-1,402,397,394,-1,394,397,390,-1,394,390,393,-1,393,390,392,-1,395,324,403,-1,396,400,397,-1,397,400,401,-1,397,401,324,-1,324,401,404,-1,324,404,403,-1,322,395,405,-1,405,395,406,-1,405,406,407,-1,403,404,408,-1,408,404,409,-1,301,410,273,-1,273,410,274,-1,286,285,411,-1,411,285,412,-1,297,413,299,-1,299,413,382,-1,414,235,415,-1,415,235,253,-1,28,27,252,-1,27,226,252,-1,252,226,225,-1,252,225,253,-1,253,225,224,-1,253,224,223,-1,416,417,418,-1,418,417,419,-1,252,420,28,-1,28,420,417,-1,28,417,421,-1,421,417,416,-1,223,222,253,-1,253,222,221,-1,253,221,220,-1,422,423,415,-1,415,423,424,-1,415,424,425,-1,425,424,426,-1,220,17,253,-1,253,17,18,-1,253,18,415,-1,415,18,233,-1,415,233,422,-1,420,252,427,-1,427,252,237,-1,428,227,414,-1,414,227,11,-1,414,11,235,-1,235,11,10,-1,235,10,155,-1,429,430,431,-1,429,431,414,-1,414,431,432,-1,414,432,428,-1,155,156,235,-1,235,156,157,-1,235,157,166,-1,166,150,235,-1,235,150,152,-1,235,152,237,-1,152,154,237,-1,237,154,44,-1,237,44,46,-1,433,434,46,-1,46,434,427,-1,46,427,237,-1,433,435,434,-1,434,435,436,-1,434,436,437,-1,41,438,39,-1,39,438,439,-1,39,439,45,-1,440,438,441,-1,441,438,41,-1,441,41,442,-1,442,41,43,-1,442,43,443,-1,444,445,446,-1,440,441,446,-1,446,441,447,-1,446,447,444,-1,443,448,442,-1,442,448,449,-1,442,449,450,-1,450,449,451,-1,450,451,452,-1,443,43,453,-1,453,43,49,-1,453,49,47,-1,454,453,455,-1,455,453,47,-1,455,47,456,-1,456,47,45,-1,456,45,439,-1,457,458,459,-1,439,460,456,-1,456,460,461,-1,456,461,462,-1,462,461,463,-1,462,463,464,-1,454,455,459,-1,459,455,465,-1,459,465,457,-1,441,442,456,-1,456,442,455,-1,466,38,467,-1,467,38,33,-1,467,33,29,-1,468,467,469,-1,469,467,29,-1,469,29,470,-1,470,29,30,-1,469,471,468,-1,468,471,472,-1,468,472,473,-1,473,472,474,-1,475,476,477,-1,477,476,478,-1,30,479,470,-1,470,479,478,-1,470,478,480,-1,480,478,476,-1,36,481,34,-1,34,481,479,-1,34,479,30,-1,38,482,36,-1,36,482,483,-1,36,483,481,-1,481,483,484,-1,485,486,487,-1,487,486,488,-1,38,466,482,-1,482,466,488,-1,482,488,489,-1,489,488,486,-1,483,490,484,-1,484,490,491,-1,484,491,492,-1,492,491,493,-1,469,470,482,-1,482,470,483,-1,494,26,495,-1,495,26,21,-1,495,21,19,-1,496,495,497,-1,497,495,19,-1,497,19,498,-1,498,19,16,-1,498,16,499,-1,497,500,496,-1,496,500,501,-1,496,501,502,-1,502,501,503,-1,504,505,506,-1,499,507,498,-1,498,507,504,-1,498,504,508,-1,508,504,506,-1,24,509,15,-1,15,509,499,-1,15,499,16,-1,510,509,511,-1,511,509,24,-1,511,24,512,-1,512,24,26,-1,512,26,494,-1,513,514,515,-1,494,516,512,-1,512,516,513,-1,512,513,517,-1,517,513,515,-1,511,518,510,-1,510,518,519,-1,510,519,520,-1,520,519,521,-1,497,498,512,-1,512,498,511,-1,8,522,13,-1,13,522,523,-1,13,523,14,-1,8,7,522,-1,522,7,524,-1,525,526,527,-1,524,528,522,-1,522,528,529,-1,522,529,530,-1,531,532,533,-1,524,534,528,-1,528,534,525,-1,528,525,535,-1,535,525,527,-1,530,529,533,-1,533,529,536,-1,533,536,531,-1,524,7,537,-1,537,7,4,-1,537,4,3,-1,3,14,537,-1,537,14,523,-1,538,539,540,-1,523,541,537,-1,537,541,542,-1,537,542,543,-1,544,545,546,-1,523,547,541,-1,541,547,538,-1,541,538,548,-1,548,538,540,-1,543,542,546,-1,546,542,549,-1,546,549,544,-1,529,528,541,-1,541,528,542,-1,550,551,52,-1,52,551,58,-1,58,551,59,-1,59,551,552,-1,59,552,0,-1,0,552,54,-1,552,553,54,-1,54,553,55,-1,55,553,210,-1,210,553,550,-1,210,550,51,-1,51,550,52,-1,553,552,550,-1,550,552,551,-1,61,554,64,-1,64,554,555,-1,64,555,69,-1,555,556,69,-1,69,556,67,-1,557,62,556,-1,556,62,66,-1,556,66,67,-1,557,554,62,-1,62,554,61,-1,557,556,554,-1,554,556,555,-1,78,558,79,-1,79,558,559,-1,79,559,74,-1,74,559,75,-1,75,559,560,-1,75,560,77,-1,77,560,207,-1,561,209,560,-1,560,209,208,-1,560,208,207,-1,209,561,70,-1,70,561,558,-1,70,558,71,-1,71,558,78,-1,561,560,558,-1,558,560,559,-1,562,563,163,-1,163,563,167,-1,563,564,167,-1,167,564,168,-1,564,565,168,-1,168,565,162,-1,565,562,162,-1,162,562,163,-1,565,564,562,-1,562,564,563,-1,81,566,215,-1,215,566,567,-1,215,567,86,-1,567,568,86,-1,86,568,85,-1,569,83,568,-1,568,83,84,-1,568,84,85,-1,569,566,83,-1,83,566,81,-1,569,568,566,-1,566,568,567,-1,570,571,161,-1,161,571,160,-1,571,572,160,-1,160,572,159,-1,572,573,159,-1,159,573,158,-1,573,570,158,-1,158,570,161,-1,573,572,570,-1,570,572,571,-1,284,574,285,-1,285,574,412,-1,411,412,575,-1,575,412,574,-1,575,574,576,-1,413,297,577,-1,577,297,296,-1,577,296,578,-1,577,383,413,-1,413,383,382,-1,384,383,293,-1,293,383,577,-1,284,293,574,-1,574,293,577,-1,574,577,576,-1,576,577,578,-1,579,266,410,-1,410,266,274,-1,401,580,404,-1,404,580,409,-1,408,409,581,-1,581,409,580,-1,581,580,582,-1,410,301,579,-1,579,301,300,-1,579,300,583,-1,271,266,399,-1,399,266,579,-1,401,399,580,-1,580,399,579,-1,580,579,582,-1,582,579,583,-1,326,584,324,-1,324,584,397,-1,584,585,397,-1,397,585,390,-1,585,307,390,-1,390,307,310,-1,307,585,326,-1,326,585,584,-1,354,353,586,-1,586,353,587,-1,309,308,588,-1,588,308,589,-1,365,331,590,-1,590,331,591,-1,592,593,336,-1,336,593,337,-1,594,595,596,-1,587,590,586,-1,586,590,591,-1,597,598,587,-1,587,598,588,-1,587,588,590,-1,590,588,589,-1,590,589,599,-1,594,596,589,-1,589,596,600,-1,589,600,599,-1,601,591,602,-1,602,591,603,-1,602,603,604,-1,605,606,586,-1,597,587,607,-1,607,587,608,-1,607,608,609,-1,601,610,591,-1,591,610,593,-1,591,593,586,-1,586,593,592,-1,586,592,605,-1,611,612,606,-1,606,612,613,-1,606,613,586,-1,614,615,367,-1,367,615,378,-1,332,347,616,-1,616,347,617,-1,375,374,618,-1,618,374,619,-1,620,621,344,-1,344,621,345,-1,617,621,616,-1,616,621,620,-1,622,623,621,-1,624,625,626,-1,626,625,627,-1,626,627,628,-1,624,626,617,-1,617,626,615,-1,617,615,621,-1,621,615,614,-1,621,614,622,-1,629,630,616,-1,623,631,621,-1,621,631,632,-1,621,632,633,-1,634,635,620,-1,620,635,636,-1,620,636,637,-1,637,638,620,-1,620,638,618,-1,620,618,616,-1,616,618,619,-1,616,619,629,-1,639,640,630,-1,630,640,641,-1,630,641,616,-1,642,643,373,-1,373,643,351,-1,644,645,320,-1,320,645,321,-1,645,646,321,-1,321,646,323,-1,327,323,647,-1,647,323,646,-1,642,646,643,-1,643,646,645,-1,643,645,644,-1,648,649,642,-1,642,649,647,-1,642,647,646,-1,650,651,652,-1,648,642,653,-1,653,642,654,-1,653,654,655,-1,644,656,643,-1,643,656,650,-1,643,650,657,-1,657,650,652,-1,395,403,581,-1,581,403,408,-1,287,286,575,-1,575,286,411,-1,395,581,406,-1,406,581,582,-1,406,582,583,-1,300,275,583,-1,583,275,276,-1,583,276,406,-1,406,276,268,-1,406,268,407,-1,407,268,267,-1,407,267,405,-1,405,267,278,-1,405,278,322,-1,287,575,288,-1,288,575,576,-1,296,298,578,-1,578,298,389,-1,578,389,576,-1,576,389,288,-1,288,389,388,-1,288,388,290,-1,290,388,387,-1,290,387,291,-1,291,387,304,-1,291,304,279,-1,251,658,262,-1,262,658,394,-1,658,659,394,-1,394,659,402,-1,659,245,402,-1,402,245,244,-1,245,659,251,-1,251,659,658,-1,255,660,256,-1,256,660,392,-1,660,661,392,-1,392,661,393,-1,661,260,393,-1,393,260,261,-1,260,661,255,-1,255,661,660,-1,259,662,263,-1,263,662,381,-1,662,663,381,-1,381,663,391,-1,663,258,391,-1,391,258,257,-1,258,663,259,-1,259,663,662,-1,664,248,280,-1,280,248,247,-1,249,665,250,-1,250,665,277,-1,665,664,277,-1,277,664,280,-1,665,249,664,-1,664,249,248,-1,666,241,281,-1,281,241,240,-1,242,667,246,-1,246,667,283,-1,667,666,283,-1,283,666,281,-1,667,242,666,-1,666,242,241,-1,668,236,289,-1,289,236,238,-1,234,669,239,-1,239,669,282,-1,669,668,282,-1,282,668,289,-1,669,234,668,-1,668,234,236,-1,529,541,548,-1,529,548,536,-1,536,548,540,-1,536,540,531,-1,531,540,539,-1,531,539,532,-1,532,539,538,-1,532,538,533,-1,533,538,547,-1,533,547,530,-1,530,547,523,-1,530,523,522,-1,542,528,535,-1,542,535,549,-1,549,535,527,-1,549,527,544,-1,544,527,526,-1,544,526,545,-1,545,526,525,-1,545,525,546,-1,546,525,534,-1,546,534,543,-1,543,534,524,-1,543,524,537,-1,497,512,517,-1,497,517,500,-1,500,517,515,-1,500,515,501,-1,501,515,514,-1,501,514,503,-1,503,514,513,-1,503,513,502,-1,502,513,516,-1,502,516,496,-1,496,516,494,-1,496,494,495,-1,511,498,508,-1,511,508,518,-1,518,508,506,-1,518,506,519,-1,519,506,505,-1,519,505,521,-1,521,505,504,-1,521,504,520,-1,520,504,507,-1,520,507,510,-1,510,507,499,-1,510,499,509,-1,439,438,440,-1,439,440,460,-1,460,440,446,-1,460,446,461,-1,461,446,445,-1,461,445,463,-1,463,445,444,-1,463,444,464,-1,464,444,447,-1,464,447,462,-1,462,447,441,-1,462,441,456,-1,443,453,454,-1,443,454,448,-1,448,454,459,-1,448,459,449,-1,449,459,458,-1,449,458,451,-1,451,458,457,-1,451,457,452,-1,452,457,465,-1,452,465,450,-1,450,465,455,-1,450,455,442,-1,466,467,468,-1,466,468,488,-1,488,468,473,-1,488,473,487,-1,487,473,474,-1,487,474,485,-1,485,474,472,-1,485,472,486,-1,486,472,471,-1,486,471,489,-1,489,471,469,-1,489,469,482,-1,479,481,484,-1,479,484,478,-1,478,484,492,-1,478,492,477,-1,477,492,493,-1,477,493,475,-1,475,493,491,-1,475,491,476,-1,476,491,490,-1,476,490,480,-1,480,490,483,-1,480,483,470,-1,233,232,422,-1,422,232,231,-1,422,231,230,-1,230,229,428,-1,428,229,228,-1,428,228,227,-1,230,428,422,-1,422,428,432,-1,422,432,423,-1,423,432,431,-1,423,431,424,-1,424,431,430,-1,424,430,426,-1,426,430,429,-1,426,429,425,-1,425,429,414,-1,425,414,415,-1,46,48,433,-1,433,48,50,-1,433,50,211,-1,211,37,421,-1,421,37,35,-1,421,35,28,-1,211,421,433,-1,433,421,416,-1,433,416,435,-1,435,416,418,-1,435,418,436,-1,436,418,419,-1,436,419,437,-1,437,419,417,-1,437,417,434,-1,434,417,420,-1,434,420,427,-1,243,254,396,-1,396,254,269,-1,396,269,400,-1,400,269,270,-1,398,400,272,-1,272,400,270,-1,292,294,385,-1,385,294,386,-1,386,294,380,-1,380,294,295,-1,380,295,264,-1,264,295,265,-1,670,671,672,-1,672,671,673,-1,672,673,674,-1,674,673,675,-1,674,675,676,-1,676,675,677,-1,676,677,678,-1,678,677,679,-1,678,679,680,-1,680,679,681,-1,680,681,682,-1,682,681,683,-1,682,683,684,-1,684,683,685,-1,684,685,686,-1,686,685,687,-1,686,687,688,-1,688,687,689,-1,688,689,690,-1,690,689,691,-1,690,691,692,-1,672,693,670,-1,670,693,694,-1,670,694,695,-1,695,694,696,-1,695,696,697,-1,697,696,271,-1,271,696,698,-1,271,698,272,-1,699,700,693,-1,692,701,690,-1,690,701,702,-1,690,702,688,-1,688,702,703,-1,688,703,686,-1,686,703,704,-1,686,704,684,-1,684,704,705,-1,684,705,682,-1,682,705,706,-1,682,706,680,-1,680,706,707,-1,680,707,678,-1,678,707,708,-1,678,708,676,-1,708,709,676,-1,676,709,710,-1,676,710,674,-1,674,710,711,-1,674,711,672,-1,693,700,694,-1,672,711,693,-1,693,711,712,-1,693,712,699,-1,398,272,713,-1,713,272,698,-1,713,698,700,-1,700,698,696,-1,700,696,694,-1,714,702,701,-1,398,713,399,-1,399,713,700,-1,399,700,715,-1,699,712,716,-1,716,712,711,-1,716,711,717,-1,716,718,699,-1,699,718,719,-1,699,719,700,-1,700,719,720,-1,700,720,715,-1,711,710,717,-1,717,710,709,-1,717,709,721,-1,721,709,708,-1,721,708,722,-1,722,708,707,-1,722,707,723,-1,723,707,724,-1,724,707,706,-1,724,706,705,-1,702,714,703,-1,703,714,725,-1,703,725,704,-1,704,725,726,-1,704,726,705,-1,705,726,727,-1,705,727,724,-1,701,692,714,-1,714,692,691,-1,714,691,725,-1,725,691,689,-1,725,689,726,-1,726,689,687,-1,726,687,727,-1,727,687,685,-1,727,685,724,-1,724,685,683,-1,724,683,723,-1,723,683,681,-1,723,681,722,-1,722,681,679,-1,722,679,721,-1,721,679,677,-1,721,677,717,-1,717,677,675,-1,717,675,716,-1,716,675,673,-1,716,673,718,-1,718,673,671,-1,718,671,719,-1,719,671,720,-1,671,670,720,-1,720,670,695,-1,720,695,715,-1,715,695,697,-1,715,697,399,-1,399,697,271,-1,728,729,730,-1,728,730,731,-1,730,732,731,-1,731,732,733,-1,731,733,734,-1,734,733,735,-1,733,736,735,-1,735,736,737,-1,735,737,738,-1,738,737,739,-1,737,740,739,-1,739,740,741,-1,739,741,742,-1,741,743,742,-1,742,743,744,-1,742,744,745,-1,745,744,746,-1,745,746,747,-1,747,746,748,-1,747,748,749,-1,749,748,750,-1,750,748,751,-1,750,751,752,-1,752,751,385,-1,385,751,753,-1,385,753,292,-1,754,732,730,-1,755,756,741,-1,293,292,753,-1,293,753,757,-1,757,753,751,-1,757,751,758,-1,758,751,759,-1,759,751,748,-1,759,748,760,-1,760,748,746,-1,760,746,761,-1,761,746,744,-1,761,744,756,-1,756,744,743,-1,756,743,741,-1,755,741,762,-1,762,741,740,-1,762,740,737,-1,732,754,733,-1,733,754,763,-1,733,763,736,-1,736,763,764,-1,736,764,737,-1,737,764,765,-1,737,765,762,-1,729,728,766,-1,738,767,768,-1,766,728,769,-1,769,728,731,-1,769,731,770,-1,770,731,734,-1,770,734,768,-1,768,734,735,-1,768,735,738,-1,767,738,771,-1,771,738,739,-1,771,739,772,-1,739,742,772,-1,772,742,745,-1,772,745,773,-1,773,745,747,-1,773,747,774,-1,774,747,749,-1,774,749,775,-1,775,749,750,-1,775,750,776,-1,776,750,752,-1,776,752,777,-1,777,752,385,-1,777,385,384,-1,775,776,757,-1,757,776,293,-1,293,776,777,-1,293,777,384,-1,730,729,754,-1,754,729,766,-1,754,766,763,-1,763,766,769,-1,763,769,764,-1,764,769,770,-1,764,770,765,-1,765,770,768,-1,765,768,762,-1,762,768,767,-1,762,767,755,-1,755,767,771,-1,755,771,756,-1,756,771,772,-1,756,772,761,-1,761,772,773,-1,761,773,760,-1,760,773,774,-1,760,774,759,-1,759,774,775,-1,759,775,758,-1,758,775,757,-1,592,336,335,-1,592,335,605,-1,605,335,318,-1,605,318,606,-1,606,318,317,-1,606,317,611,-1,611,317,316,-1,611,316,612,-1,612,316,315,-1,612,315,613,-1,613,315,354,-1,613,354,586,-1,587,353,352,-1,587,352,608,-1,608,352,303,-1,608,303,609,-1,609,303,302,-1,609,302,607,-1,607,302,311,-1,607,311,597,-1,597,311,314,-1,597,314,598,-1,598,314,309,-1,598,309,588,-1,589,308,364,-1,589,364,594,-1,594,364,363,-1,594,363,595,-1,595,363,362,-1,595,362,596,-1,596,362,359,-1,596,359,600,-1,600,359,361,-1,600,361,599,-1,599,361,365,-1,599,365,590,-1,591,331,376,-1,591,376,603,-1,603,376,377,-1,603,377,604,-1,604,377,340,-1,604,340,602,-1,602,340,339,-1,602,339,601,-1,601,339,338,-1,601,338,610,-1,610,338,337,-1,610,337,593,-1,375,618,357,-1,357,618,638,-1,357,638,355,-1,355,638,637,-1,355,637,341,-1,341,637,636,-1,341,636,342,-1,342,636,635,-1,342,635,343,-1,343,635,634,-1,343,634,344,-1,344,634,620,-1,345,621,346,-1,346,621,633,-1,346,633,358,-1,358,633,632,-1,358,632,360,-1,360,632,631,-1,360,631,379,-1,379,631,623,-1,379,623,366,-1,366,623,622,-1,366,622,367,-1,367,622,614,-1,332,616,333,-1,333,616,641,-1,333,641,348,-1,348,641,640,-1,348,640,349,-1,349,640,639,-1,349,639,371,-1,371,639,630,-1,371,630,372,-1,372,630,629,-1,372,629,374,-1,374,629,619,-1,378,615,329,-1,329,615,626,-1,329,626,330,-1,330,626,628,-1,330,628,368,-1,368,628,627,-1,368,627,369,-1,369,627,625,-1,369,625,370,-1,370,625,624,-1,370,624,347,-1,347,624,617,-1,327,647,328,-1,328,647,649,-1,328,649,325,-1,325,649,648,-1,325,648,305,-1,305,648,653,-1,305,653,306,-1,306,653,655,-1,306,655,356,-1,356,655,654,-1,356,654,373,-1,373,654,642,-1,351,643,350,-1,350,643,657,-1,350,657,334,-1,334,657,652,-1,334,652,312,-1,312,652,651,-1,312,651,313,-1,313,651,650,-1,313,650,319,-1,319,650,656,-1,319,656,320,-1,320,656,644,-1,
        ]
    }
}
Shape{
    appearance Appearance {
        material  Material 	{
            diffuseColor 1.0 1.0 1.0
            specularColor 0.8784313725490196 0.8784313725490196 0.8784313725490196
            ambientIntensity 1.0
            transparency 0.0
            shininess 0.5
        }
    }
    geometry IndexedFaceSet {
        ccw TRUE
        solid FALSE
        coord DEF co Coordinate {
            point [
                0.9331 0.0246 0.1142, 0.9331 0.0159 0.1142, 0.9331 0.0246 0.1181, 0.9331 0.0159 0.1181, 0.9629 0.0246 0.1142, 0.9629 0.0246 0.1181, 0.9629 0.0947 0.1142, 0.9629 0.0947 0.1181, 0.9734 0.0947 0.1142, 0.9734 0.0947 0.1181, 0.9734 0.0159 0.1142, 0.9734 0.0159 0.1181, 0.8678 0.0287 0.1142, 0.8678 0.02 0.1142, 0.8678 0.0287 0.1181, 0.8678 0.02 0.1181, 0.8692 0.0279 0.1181, 0.8692 0.0279 0.1142, 0.8775 0.0248 0.1181, 0.8775 0.0248 0.1142, 0.888 0.0236 0.1181, 0.888 0.0236 0.1142, 0.8953 0.0244 0.1181, 0.8953 0.0244 0.1142, 0.8965 0.0249 0.1181, 0.9011 0.0265 0.1142, 0.9011 0.0265 0.1181, 0.9059 0.0298 0.1181, 0.9059 0.0298 0.1142, 0.9096 0.0337 0.1181, 0.9096 0.0337 0.1142, 0.9129 0.0392 0.1181, 0.9129 0.0392 0.1142, 0.915 0.0459 0.1181, 0.915 0.0459 0.1142, 0.9158 0.0545 0.1181, 0.9158 0.0545 0.1142, 0.8999 0.084 0.1181, 0.9053 0.0803 0.1142, 0.9053 0.0803 0.1181, 0.9101 0.0751 0.1142, 0.9101 0.0751 0.1181, 0.9133 0.069 0.1142, 0.9133 0.069 0.1181, 0.9154 0.0606 0.1142, 0.9154 0.0606 0.1181, 0.8965 0.0852 0.1181, 0.894 0.0861 0.1142, 0.8999 0.084 0.1142, 0.894 0.0861 0.1181, 0.8862 0.087 0.1181, 0.8862 0.087 0.1142, 0.8767 0.0857 0.1181, 0.8767 0.0857 0.1142, 0.8678 0.0819 0.1181, 0.8678 0.0819 0.1142, 0.8678 0.0925 0.1142, 0.8678 0.0925 0.1181, 0.8769 0.095 0.1181, 0.8769 0.095 0.1142, 0.8863 0.0956 0.1181, 0.8863 0.0956 0.1142, 0.8942 0.095 0.1181, 0.8942 0.095 0.1142, 0.8965 0.0943 0.1181, 0.903 0.0924 0.1142, 0.903 0.0924 0.1181, 0.9105 0.0881 0.1181, 0.9105 0.0881 0.1142, 0.9176 0.0813 0.1181, 0.9176 0.0813 0.1142, 0.9222 0.0739 0.1181, 0.9222 0.0739 0.1142, 0.9252 0.065 0.1181, 0.9252 0.065 0.1142, 0.9264 0.0538 0.1181, 0.9264 0.0538 0.1142, 0.8941 0.0154 0.1181, 0.8895 0.015 0.1181, 0.8895 0.015 0.1142, 0.8965 0.0157 0.1181, 0.8992 0.016 0.1142, 0.8992 0.016 0.1181, 0.9068 0.0186 0.1142, 0.9068 0.0186 0.1181, 0.9131 0.0226 0.1142, 0.9131 0.0226 0.1181, 0.919 0.0289 0.1142, 0.919 0.0289 0.1181, 0.9232 0.0364 0.1142, 0.9232 0.0364 0.1181, 0.9256 0.0447 0.1142, 0.9256 0.0447 0.1181, 0.8762 0.0166 0.1142, 0.8873 0.015 0.1181, 0.8873 0.015 0.1142, 0.8841 0.0154 0.1181, 0.8762 0.0166 0.1181, 0.8102 0.0246 0.1142, 0.8102 0.0159 0.1142, 0.8102 0.0246 0.1181, 0.8102 0.0159 0.1181, 0.8419 0.0246 0.1142, 0.8419 0.0246 0.1181, 0.8419 0.0515 0.1142, 0.8419 0.0515 0.1181, 0.814 0.0515 0.1142, 0.814 0.0515 0.1181, 0.814 0.0601 0.1142, 0.814 0.0601 0.1181, 0.8419 0.0601 0.1142, 0.8419 0.0601 0.1181, 0.8419 0.086 0.1142, 0.8419 0.086 0.1181, 0.8121 0.086 0.1142, 0.8121 0.086 0.1181, 0.8121 0.0947 0.1142, 0.8121 0.0947 0.1181, 0.8524 0.0947 0.1142, 0.8524 0.0947 0.1181, 0.8524 0.0159 0.1142, 0.8524 0.0159 0.1181, 0.7341 0.0715 0.1142, 0.7378 0.0782 0.1142, 0.7472 0.075 0.1142, 0.7433 0.0844 0.1142, 0.7511 0.079 0.1142, 0.7434 0.0845 0.1142, 0.7568 0.0828 0.1142, 0.752 0.0902 0.1142, 0.7633 0.085 0.1142, 0.7612 0.0935 0.1142, 0.7726 0.086 0.1142, 0.7726 0.0947 0.1142, 0.7842 0.086 0.1142, 0.7948 0.0947 0.1142, 0.7842 0.0246 0.1142, 0.7948 0.0159 0.1142, 0.7731 0.0246 0.1142, 0.7734 0.0159 0.1142, 0.7648 0.0253 0.1142, 0.7637 0.0168 0.1142, 0.7581 0.0274 0.1142, 0.7546 0.0195 0.1142, 0.7528 0.0306 0.1142, 0.7464 0.0243 0.1142, 0.7483 0.035 0.1142, 0.7399 0.0305 0.1142, 0.745 0.0404 0.1142, 0.7354 0.0375 0.1142, 0.7427 0.0478 0.1142, 0.7325 0.0458 0.1142, 0.742 0.0561 0.1142, 0.7314 0.0563 0.1142, 0.7427 0.0639 0.1142, 0.732 0.0637 0.1142, 0.7445 0.0701 0.1142, 0.7734 0.0159 0.1181, 0.7948 0.0159 0.1181, 0.7637 0.0168 0.1181, 0.7546 0.0195 0.1181, 0.7464 0.0243 0.1181, 0.7399 0.0305 0.1181, 0.7354 0.0375 0.1181, 0.7325 0.0458 0.1181, 0.7314 0.0563 0.1181, 0.732 0.0637 0.1181, 0.7341 0.0715 0.1181, 0.7378 0.0782 0.1181, 0.7433 0.0844 0.1181, 0.7434 0.0845 0.1181, 0.752 0.0902 0.1181, 0.7612 0.0935 0.1181, 0.7726 0.0947 0.1181, 0.7948 0.0947 0.1181, 0.7726 0.086 0.1181, 0.7842 0.086 0.1181, 0.7842 0.0246 0.1181, 0.7731 0.0246 0.1181, 0.742 0.0561 0.1181, 0.7427 0.0478 0.1181, 0.745 0.0404 0.1181, 0.7483 0.035 0.1181, 0.7528 0.0306 0.1181, 0.7581 0.0274 0.1181, 0.7648 0.0253 0.1181, 0.7633 0.085 0.1181, 0.7568 0.0828 0.1181, 0.7511 0.079 0.1181, 0.7472 0.075 0.1181, 0.7445 0.0701 0.1181, 0.7427 0.0639 0.1181
            ]
        }
        coordIndex [
            0,1,2,-1,2,1,3,-1,4,0,5,-1,5,0,2,-1,6,4,7,-1,7,4,5,-1,8,6,9,-1,9,6,7,-1,10,8,11,-1,11,8,9,-1,1,10,3,-1,3,10,11,-1,6,8,4,-1,4,8,10,-1,4,10,0,-1,0,10,1,-1,12,13,14,-1,14,13,15,-1,12,14,16,-1,12,16,17,-1,17,16,18,-1,17,18,19,-1,19,18,20,-1,19,20,21,-1,21,20,22,-1,21,22,23,-1,23,22,24,-1,23,24,25,-1,24,26,25,-1,25,26,27,-1,25,27,28,-1,28,27,29,-1,28,29,30,-1,30,29,31,-1,30,31,32,-1,32,31,33,-1,32,33,34,-1,34,33,35,-1,34,35,36,-1,37,38,39,-1,39,38,40,-1,39,40,41,-1,41,40,42,-1,41,42,43,-1,43,42,44,-1,43,44,45,-1,45,44,36,-1,45,36,35,-1,46,47,37,-1,37,47,48,-1,37,48,38,-1,46,49,47,-1,47,49,50,-1,47,50,51,-1,51,50,52,-1,51,52,53,-1,53,52,54,-1,53,54,55,-1,56,55,57,-1,57,55,54,-1,56,57,58,-1,56,58,59,-1,59,58,60,-1,59,60,61,-1,61,60,62,-1,61,62,63,-1,63,62,64,-1,63,64,65,-1,64,66,65,-1,65,66,67,-1,65,67,68,-1,68,67,69,-1,68,69,70,-1,70,69,71,-1,70,71,72,-1,72,71,73,-1,72,73,74,-1,74,73,75,-1,74,75,76,-1,77,78,79,-1,77,79,80,-1,80,79,81,-1,80,81,82,-1,82,81,83,-1,82,83,84,-1,84,83,85,-1,84,85,86,-1,86,85,87,-1,86,87,88,-1,88,87,89,-1,88,89,90,-1,90,89,91,-1,90,91,92,-1,92,91,76,-1,92,76,75,-1,15,13,93,-1,79,78,94,-1,79,94,95,-1,95,94,96,-1,95,96,93,-1,93,96,97,-1,93,97,15,-1,23,79,21,-1,21,79,95,-1,21,95,19,-1,19,95,93,-1,19,93,17,-1,17,93,13,-1,17,13,12,-1,55,56,53,-1,53,56,59,-1,53,59,51,-1,51,59,61,-1,51,61,47,-1,47,61,63,-1,47,63,48,-1,48,63,65,-1,48,65,38,-1,38,65,68,-1,38,68,40,-1,40,68,70,-1,40,70,42,-1,42,70,72,-1,42,72,44,-1,44,72,74,-1,44,74,36,-1,36,74,76,-1,36,76,34,-1,34,76,91,-1,34,91,32,-1,32,91,89,-1,32,89,30,-1,30,89,87,-1,30,87,28,-1,28,87,85,-1,28,85,25,-1,25,85,83,-1,25,83,23,-1,23,83,81,-1,23,81,79,-1,98,99,100,-1,100,99,101,-1,102,98,103,-1,103,98,100,-1,104,102,105,-1,105,102,103,-1,106,104,107,-1,107,104,105,-1,108,106,109,-1,109,106,107,-1,110,108,111,-1,111,108,109,-1,112,110,113,-1,113,110,111,-1,114,112,115,-1,115,112,113,-1,116,114,117,-1,117,114,115,-1,118,116,119,-1,119,116,117,-1,120,118,121,-1,121,118,119,-1,99,120,101,-1,101,120,121,-1,120,99,98,-1,98,102,120,-1,120,102,104,-1,120,104,118,-1,114,116,112,-1,112,116,118,-1,112,118,110,-1,110,118,104,-1,110,104,108,-1,108,104,106,-1,122,123,124,-1,124,123,125,-1,124,125,126,-1,126,125,127,-1,126,127,128,-1,128,127,129,-1,128,129,130,-1,130,129,131,-1,130,131,132,-1,132,131,133,-1,132,133,134,-1,134,133,135,-1,134,135,136,-1,136,135,137,-1,136,137,138,-1,138,137,139,-1,138,139,140,-1,140,139,141,-1,140,141,142,-1,142,141,143,-1,142,143,144,-1,144,143,145,-1,144,145,146,-1,146,145,147,-1,146,147,148,-1,148,147,149,-1,148,149,150,-1,150,149,151,-1,150,151,152,-1,152,151,153,-1,152,153,154,-1,154,153,155,-1,154,155,156,-1,156,155,122,-1,156,122,124,-1,139,137,157,-1,157,137,158,-1,139,157,159,-1,139,159,141,-1,141,159,160,-1,141,160,143,-1,143,160,161,-1,143,161,145,-1,145,161,162,-1,145,162,147,-1,147,162,163,-1,147,163,149,-1,149,163,164,-1,149,164,151,-1,151,164,165,-1,151,165,153,-1,153,165,166,-1,153,166,155,-1,155,166,167,-1,155,167,122,-1,122,167,168,-1,122,168,123,-1,123,168,169,-1,123,169,125,-1,125,169,170,-1,125,170,127,-1,127,170,171,-1,127,171,129,-1,129,171,172,-1,129,172,131,-1,131,172,173,-1,131,173,133,-1,135,133,174,-1,174,133,173,-1,137,135,158,-1,158,135,174,-1,132,134,175,-1,175,134,176,-1,134,136,176,-1,176,136,177,-1,136,138,177,-1,177,138,178,-1,152,179,180,-1,152,180,150,-1,150,180,181,-1,150,181,148,-1,148,181,182,-1,148,182,146,-1,146,182,183,-1,146,183,144,-1,144,183,184,-1,144,184,142,-1,142,184,185,-1,142,185,140,-1,140,185,178,-1,140,178,138,-1,132,175,186,-1,132,186,130,-1,130,186,187,-1,130,187,128,-1,128,187,188,-1,128,188,126,-1,126,188,189,-1,126,189,124,-1,124,189,190,-1,124,190,156,-1,156,190,191,-1,156,191,154,-1,154,191,179,-1,154,179,152,-1,
        ]
    }
}
Shape{
    appearance Appearance {
        material  Material 	{
            diffuseColor 0.25098039215686274 0.25098039215686274 0.25098039215686274
            specularColor 0.12549019607843137 0.12549019607843137 0.12549019607843137
            ambientIntensity 0.251
            transparency 0.0
            shininess 0.5
        }
    }
    geometry IndexedFaceSet {
        ccw TRUE
        solid FALSE
        coord DEF co Coordinate {
            point [
                0.7842 0.086 0.1181, 0.7842 0.0246 0.1181, 0.7726 0.086 0.1181, 0.7731 0.0246 0.1181, 0.7648 0.0253 0.1181, 0.742 0.0561 0.1181, 0.7427 0.0639 0.1181, 0.7445 0.0701 0.1181, 0.7633 0.085 0.1181, 0.7581 0.0274 0.1181, 0.7528 0.0306 0.1181, 0.7483 0.035 0.1181, 0.745 0.0404 0.1181, 0.7427 0.0478 0.1181, 0.7472 0.075 0.1181, 0.7511 0.079 0.1181, 0.7568 0.0828 0.1181
            ]
        }
        coordIndex [
            0,1,2,-1,2,1,3,-1,2,3,4,-1,5,6,2,-1,2,6,7,-1,2,7,8,-1,4,9,2,-1,2,9,10,-1,2,10,11,-1,11,12,2,-1,2,12,13,-1,2,13,5,-1,14,15,7,-1,7,15,16,-1,7,16,8,-1,
        ]
    }
}
Shape{
    appearance Appearance {
        material  Material 	{
            diffuseColor 1.0 1.0 1.0
            specularColor 0.8784313725490196 0.8784313725490196 0.8784313725490196
            ambientIntensity 1.0
            transparency 0.0
            shininess 0.5
        }
    }
    geometry IndexedFaceSet {
        ccw TRUE
        solid FALSE
        coord DEF co Coordinate {
            point [
                0.704 0.0467 0.1142, 0.7066 0.038 0.1142, 0.6776 0.0467 0.1142, 0.6741 0.038 0.1142, 0.6922 0.0795 0.1142, 0.6959 0.0947 0.1142, 0.7257 0.0159 0.1142, 0.7141 0.0159 0.1142, 0.6915 0.0823 0.1142, 0.691 0.0851 0.1142, 0.6853 0.0947 0.1142, 0.6907 0.0851 0.1142, 0.6902 0.0823 0.1142, 0.6895 0.0795 0.1142, 0.6546 0.0159 0.1142, 0.6661 0.0159 0.1142, 0.6853 0.0947 0.1181, 0.6546 0.0159 0.1181, 0.6959 0.0947 0.1181, 0.7257 0.0159 0.1181, 0.7141 0.0159 0.1181, 0.7066 0.038 0.1181, 0.6741 0.038 0.1181, 0.6661 0.0159 0.1181, 0.704 0.0467 0.1181, 0.6776 0.0467 0.1181, 0.6895 0.0795 0.1181, 0.6907 0.0851 0.1181, 0.6902 0.0823 0.1181, 0.691 0.0851 0.1181, 0.6922 0.0795 0.1181, 0.6915 0.0823 0.1181
            ]
        }
        coordIndex [
            0,1,2,-1,2,1,3,-1,4,5,0,-1,0,5,6,-1,0,6,1,-1,1,6,7,-1,4,8,5,-1,5,8,9,-1,5,9,10,-1,10,9,11,-1,10,11,12,-1,12,13,10,-1,10,13,2,-1,10,2,14,-1,14,2,3,-1,14,3,15,-1,10,14,16,-1,16,14,17,-1,5,10,18,-1,18,10,16,-1,6,5,19,-1,19,5,18,-1,7,6,20,-1,20,6,19,-1,1,7,21,-1,21,7,20,-1,3,1,22,-1,22,1,21,-1,15,3,23,-1,23,3,22,-1,14,15,17,-1,17,15,23,-1,0,2,24,-1,24,2,25,-1,2,13,25,-1,25,13,26,-1,11,27,28,-1,11,28,12,-1,12,28,26,-1,12,26,13,-1,11,9,27,-1,27,9,29,-1,4,30,31,-1,4,31,8,-1,8,31,29,-1,8,29,9,-1,4,0,30,-1,30,0,24,-1,
        ]
    }
}
Shape{
    appearance Appearance {
        material  Material 	{
            diffuseColor 0.25098039215686274 0.25098039215686274 0.25098039215686274
            specularColor 0.12549019607843137 0.12549019607843137 0.12549019607843137
            ambientIntensity 0.251
            transparency 0.0
            shininess 0.5
        }
    }
    geometry IndexedFaceSet {
        ccw TRUE
        solid FALSE
        coord DEF co Coordinate {
            point [
                0.704 0.0467 0.1181, 0.6776 0.0467 0.1181, 0.6922 0.0795 0.1181, 0.6895 0.0795 0.1181, 0.6915 0.0823 0.1181, 0.6902 0.0823 0.1181, 0.691 0.0851 0.1181, 0.6907 0.0851 0.1181
            ]
        }
        coordIndex [
            0,1,2,-1,2,1,3,-1,2,3,4,-1,4,3,5,-1,4,5,6,-1,6,5,7,-1,
        ]
    }
}
Shape{
    appearance Appearance {
        material  Material 	{
            diffuseColor 1.0 1.0 1.0
            specularColor 0.5019607843137255 0.5019607843137255 0.5019607843137255
            ambientIntensity 1.0
            transparency 0.0
            shininess 0.5
        }
    }
    geometry IndexedFaceSet {
        ccw TRUE
        solid FALSE
        coord DEF co Coordinate {
            point [
                0.1181 0.8306 0.3989, 0.1181 0.9532 0.2205, -0.1181 0.8306 0.3989, -0.1181 0.9532 0.2205, -0.1181 0.7657 0.4331, -0.1181 0.5709 0.4331, 0.1181 0.7657 0.4331, 0.1181 0.5709 0.4331, 0.1181 0.5709 0.315, -0.1181 0.5709 0.315, 0.1181 0.7035 0.315, -0.1181 0.7035 0.315, -0.1181 0.7684 0.2808, -0.1181 0.8911 0.1024, 0.1181 0.7684 0.2808, 0.1181 0.8911 0.1024, -0.1181 1.0858 0.0, -0.1181 1.4173 0.0, 0.1181 1.0858 0.0, 0.1181 1.4173 0.0, 0.1181 1.4173 0.1181, -0.1181 1.4173 0.1181, 0.1181 1.1479 0.1181, -0.1181 1.1479 0.1181, 0.1181 0.7224 0.3127, 0.1181 0.7845 0.4308, 0.1181 0.7402 0.3059, 0.1181 0.9114 0.0768, 0.1181 0.9972 0.1724, 0.1181 0.9351 0.0543, 0.1181 1.0237 0.1534, 0.1181 0.9616 0.0353, 0.1181 1.0526 0.1382, 0.1181 1.1153 0.1204, 0.1181 1.0532 0.0023, 0.1181 1.0833 0.1271, 0.1181 1.0212 0.009, 0.1181 0.9905 0.0201, 0.1181 0.9735 0.1949, 0.1181 0.7558 0.2951, 0.1181 0.818 0.4132, 0.1181 0.8023 0.424, -0.1181 0.7224 0.3127, -0.1181 0.7845 0.4308, -0.1181 0.7402 0.3059, -0.1181 0.8023 0.424, -0.1181 0.818 0.4132, -0.1181 0.7558 0.2951, -0.1181 1.0532 0.0023, -0.1181 1.0833 0.1271, -0.1181 1.0212 0.009, -0.1181 1.0526 0.1382, -0.1181 0.9905 0.0201, -0.1181 1.0237 0.1534, -0.1181 0.9735 0.1949, -0.1181 0.9114 0.0768, -0.1181 0.9972 0.1724, -0.1181 0.9351 0.0543, -0.1181 0.9616 0.0353, -0.1181 1.1153 0.1204, 1.1024 -1.0858 0.0, 1.1024 -1.4173 0.0, 0.8661 -1.0858 0.0, 0.8661 -1.4173 0.0, 1.1024 -0.7684 0.2808, 1.1024 -0.8911 0.1024, 0.8661 -0.7684 0.2808, 0.8661 -0.8911 0.1024, 0.8661 -0.7035 0.315, 0.8661 -0.5709 0.315, 1.1024 -0.7035 0.315, 1.1024 -0.5709 0.315, 1.1024 -0.5709 0.4331, 0.8661 -0.5709 0.4331, 1.1024 -0.7657 0.4331, 0.8661 -0.7657 0.4331, 0.8661 -0.8306 0.3989, 0.8661 -0.9532 0.2205, 1.1024 -0.8306 0.3989, 1.1024 -0.9532 0.2205, 0.8661 -1.1479 0.1181, 0.8661 -1.4173 0.1181, 1.1024 -1.1479 0.1181, 1.1024 -1.4173 0.1181, 1.1024 -0.7224 0.3127, 1.1024 -0.7845 0.4308, 1.1024 -0.7402 0.3059, 1.1024 -0.8023 0.424, 1.1024 -0.818 0.4132, 1.1024 -0.7558 0.2951, 1.1024 -1.0532 0.0023, 1.1024 -1.0833 0.1271, 1.1024 -1.0212 0.009, 1.1024 -1.0526 0.1382, 1.1024 -0.9905 0.0201, 1.1024 -1.0237 0.1534, 1.1024 -1.1153 0.1204, 1.1024 -0.9735 0.1949, 1.1024 -0.9114 0.0768, 1.1024 -0.9972 0.1724, 1.1024 -0.9351 0.0543, 1.1024 -0.9616 0.0353, 0.8661 -0.7224 0.3127, 0.8661 -0.7845 0.4308, 0.8661 -0.7402 0.3059, 0.8661 -0.9972 0.1724, 0.8661 -0.9735 0.1949, 0.8661 -0.7558 0.2951, 0.8661 -0.818 0.4132, 0.8661 -0.8023 0.424, 0.8661 -1.1153 0.1204, 0.8661 -1.0532 0.0023, 0.8661 -1.0833 0.1271, 0.8661 -1.0212 0.009, 0.8661 -1.0526 0.1382, 0.8661 -0.9114 0.0768, 0.8661 -0.9351 0.0543, 0.8661 -1.0237 0.1534, 0.8661 -0.9616 0.0353, 0.8661 -0.9905 0.0201, -0.8661 -1.0858 0.0, -0.8661 -1.4173 0.0, -1.1024 -1.0858 0.0, -1.1024 -1.4173 0.0, -0.8661 -0.7684 0.2808, -0.8661 -0.8911 0.1024, -1.1024 -0.7684 0.2808, -1.1024 -0.8911 0.1024, -1.1024 -0.7035 0.315, -1.1024 -0.5709 0.315, -0.8661 -0.7035 0.315, -0.8661 -0.5709 0.315, -0.8661 -0.5709 0.4331, -1.1024 -0.5709 0.4331, -0.8661 -0.7657 0.4331, -1.1024 -0.7657 0.4331, -1.1024 -0.8306 0.3989, -1.1024 -0.9532 0.2205, -0.8661 -0.8306 0.3989, -0.8661 -0.9532 0.2205, -1.1024 -1.1479 0.1181, -1.1024 -1.4173 0.1181, -0.8661 -1.1479 0.1181, -0.8661 -1.4173 0.1181, -0.8661 -0.7224 0.3127, -0.8661 -0.7845 0.4308, -0.8661 -0.7402 0.3059, -0.8661 -0.8023 0.424, -0.8661 -0.818 0.4132, -0.8661 -0.7558 0.2951, -0.8661 -1.0532 0.0023, -0.8661 -1.0833 0.1271, -0.8661 -1.0212 0.009, -0.8661 -1.0526 0.1382, -0.8661 -0.9905 0.0201, -0.8661 -1.0237 0.1534, -0.8661 -1.1153 0.1204, -0.8661 -0.9735 0.1949, -0.8661 -0.9114 0.0768, -0.8661 -0.9972 0.1724, -0.8661 -0.9351 0.0543, -0.8661 -0.9616 0.0353, -1.1024 -0.7224 0.3127, -1.1024 -0.7845 0.4308, -1.1024 -0.7402 0.3059, -1.1024 -0.9972 0.1724, -1.1024 -0.9735 0.1949, -1.1024 -0.7558 0.2951, -1.1024 -0.818 0.4132, -1.1024 -0.8023 0.424, -1.1024 -1.1153 0.1204, -1.1024 -1.0532 0.0023, -1.1024 -1.0833 0.1271, -1.1024 -1.0212 0.009, -1.1024 -1.0526 0.1382, -1.1024 -0.9114 0.0768, -1.1024 -0.9351 0.0543, -1.1024 -1.0237 0.1534, -1.1024 -0.9616 0.0353, -1.1024 -0.9905 0.0201, -1.1024 0.745 0.4331, -1.1024 0.5709 0.4331, -0.8661 0.745 0.4331, -0.8661 0.5709 0.4331, -0.8661 0.5709 0.315, -1.1024 0.5709 0.315, -0.8661 0.745 0.315, -1.1024 0.745 0.315
            ]
        }
        coordIndex [
            0,1,2,-1,2,1,3,-1,4,5,6,-1,6,5,7,-1,8,7,9,-1,9,7,5,-1,10,8,11,-1,11,8,9,-1,12,13,14,-1,14,13,15,-1,16,17,18,-1,18,17,19,-1,20,19,21,-1,21,19,17,-1,22,20,23,-1,23,20,21,-1,6,7,8,-1,8,10,6,-1,6,10,24,-1,6,24,25,-1,25,24,26,-1,18,19,20,-1,15,27,28,-1,28,27,29,-1,28,29,30,-1,30,29,31,-1,30,31,32,-1,20,22,18,-1,18,22,33,-1,18,33,34,-1,34,33,35,-1,34,35,36,-1,36,35,32,-1,36,32,37,-1,37,32,31,-1,28,38,15,-1,15,38,1,-1,15,1,14,-1,14,1,0,-1,14,0,39,-1,39,0,40,-1,39,40,26,-1,26,40,41,-1,26,41,25,-1,9,5,11,-1,11,5,4,-1,11,4,42,-1,42,4,43,-1,42,43,44,-1,43,45,44,-1,44,45,46,-1,44,46,47,-1,47,46,2,-1,47,2,12,-1,12,2,13,-1,16,48,49,-1,49,48,50,-1,49,50,51,-1,51,50,52,-1,51,52,53,-1,2,3,13,-1,13,3,54,-1,13,54,55,-1,55,54,56,-1,55,56,57,-1,57,56,53,-1,57,53,58,-1,58,53,52,-1,21,17,23,-1,23,17,16,-1,23,16,59,-1,59,16,49,-1,15,13,55,-1,15,55,27,-1,27,55,57,-1,27,57,29,-1,29,57,58,-1,29,58,31,-1,31,58,52,-1,31,52,37,-1,37,52,50,-1,37,50,36,-1,36,50,48,-1,36,48,34,-1,34,48,16,-1,34,16,18,-1,3,1,54,-1,54,1,38,-1,54,38,56,-1,56,38,28,-1,56,28,53,-1,53,28,30,-1,53,30,51,-1,51,30,32,-1,51,32,49,-1,49,32,35,-1,49,35,59,-1,59,35,33,-1,59,33,23,-1,23,33,22,-1,12,14,47,-1,47,14,39,-1,47,39,44,-1,44,39,26,-1,44,26,42,-1,42,26,24,-1,42,24,11,-1,11,24,10,-1,0,2,46,-1,0,46,40,-1,40,46,45,-1,40,45,41,-1,41,45,43,-1,41,43,25,-1,25,43,4,-1,25,4,6,-1,60,61,62,-1,62,61,63,-1,64,65,66,-1,66,65,67,-1,68,69,70,-1,70,69,71,-1,72,71,73,-1,73,71,69,-1,74,72,75,-1,75,72,73,-1,76,77,78,-1,78,77,79,-1,80,81,82,-1,82,81,83,-1,61,83,63,-1,63,83,81,-1,71,72,70,-1,70,72,74,-1,70,74,84,-1,84,74,85,-1,84,85,86,-1,85,87,86,-1,86,87,88,-1,86,88,89,-1,89,88,78,-1,89,78,64,-1,64,78,65,-1,60,90,91,-1,91,90,92,-1,91,92,93,-1,93,92,94,-1,93,94,95,-1,83,61,82,-1,82,61,60,-1,82,60,96,-1,96,60,91,-1,78,79,65,-1,65,79,97,-1,65,97,98,-1,98,97,99,-1,98,99,100,-1,100,99,95,-1,100,95,101,-1,101,95,94,-1,75,73,69,-1,69,68,75,-1,75,68,102,-1,75,102,103,-1,103,102,104,-1,62,63,81,-1,105,106,67,-1,67,106,77,-1,67,77,66,-1,66,77,76,-1,66,76,107,-1,107,76,108,-1,107,108,104,-1,104,108,109,-1,104,109,103,-1,81,80,62,-1,62,80,110,-1,62,110,111,-1,111,110,112,-1,111,112,113,-1,113,112,114,-1,67,115,105,-1,105,115,116,-1,105,116,117,-1,117,116,118,-1,117,118,114,-1,114,118,119,-1,114,119,113,-1,60,62,111,-1,60,111,90,-1,90,111,113,-1,90,113,92,-1,92,113,119,-1,92,119,94,-1,94,119,118,-1,94,118,101,-1,101,118,116,-1,101,116,100,-1,100,116,115,-1,100,115,98,-1,98,115,67,-1,98,67,65,-1,80,82,110,-1,110,82,96,-1,110,96,112,-1,112,96,91,-1,112,91,114,-1,114,91,93,-1,114,93,117,-1,117,93,95,-1,117,95,105,-1,105,95,99,-1,105,99,106,-1,106,99,97,-1,106,97,77,-1,77,97,79,-1,68,70,102,-1,102,70,84,-1,102,84,104,-1,104,84,86,-1,104,86,107,-1,107,86,89,-1,107,89,66,-1,66,89,64,-1,74,75,103,-1,74,103,85,-1,85,103,109,-1,85,109,87,-1,87,109,108,-1,87,108,88,-1,88,108,76,-1,88,76,78,-1,120,121,122,-1,122,121,123,-1,124,125,126,-1,126,125,127,-1,128,129,130,-1,130,129,131,-1,132,131,133,-1,133,131,129,-1,134,132,135,-1,135,132,133,-1,136,137,138,-1,138,137,139,-1,140,141,142,-1,142,141,143,-1,121,143,123,-1,123,143,141,-1,131,132,130,-1,130,132,134,-1,130,134,144,-1,144,134,145,-1,144,145,146,-1,145,147,146,-1,146,147,148,-1,146,148,149,-1,149,148,138,-1,149,138,124,-1,124,138,125,-1,120,150,151,-1,151,150,152,-1,151,152,153,-1,153,152,154,-1,153,154,155,-1,143,121,142,-1,142,121,120,-1,142,120,156,-1,156,120,151,-1,138,139,125,-1,125,139,157,-1,125,157,158,-1,158,157,159,-1,158,159,160,-1,160,159,155,-1,160,155,161,-1,161,155,154,-1,135,133,129,-1,129,128,135,-1,135,128,162,-1,135,162,163,-1,163,162,164,-1,122,123,141,-1,165,166,127,-1,127,166,137,-1,127,137,126,-1,126,137,136,-1,126,136,167,-1,167,136,168,-1,167,168,164,-1,164,168,169,-1,164,169,163,-1,141,140,122,-1,122,140,170,-1,122,170,171,-1,171,170,172,-1,171,172,173,-1,173,172,174,-1,127,175,165,-1,165,175,176,-1,165,176,177,-1,177,176,178,-1,177,178,174,-1,174,178,179,-1,174,179,173,-1,140,142,170,-1,170,142,156,-1,170,156,172,-1,172,156,151,-1,172,151,174,-1,174,151,153,-1,174,153,177,-1,177,153,155,-1,177,155,165,-1,165,155,159,-1,165,159,166,-1,166,159,157,-1,166,157,137,-1,137,157,139,-1,120,122,171,-1,120,171,150,-1,150,171,173,-1,150,173,152,-1,152,173,179,-1,152,179,154,-1,154,179,178,-1,154,178,161,-1,161,178,176,-1,161,176,160,-1,160,176,175,-1,160,175,158,-1,158,175,127,-1,158,127,125,-1,128,130,162,-1,162,130,144,-1,162,144,164,-1,164,144,146,-1,164,146,167,-1,167,146,149,-1,167,149,126,-1,126,149,124,-1,134,135,163,-1,134,163,145,-1,145,163,169,-1,145,169,147,-1,147,169,168,-1,147,168,148,-1,148,168,136,-1,148,136,138,-1,180,181,182,-1,182,181,183,-1,184,183,185,-1,185,183,181,-1,186,184,187,-1,187,184,185,-1,183,184,182,-1,182,184,186,-1,187,185,180,-1,180,185,181,-1,
        ]
    }
}
Shape{
    appearance Appearance {
        material  Material 	{
            diffuseColor 1.0 1.0 1.0
            specularColor 0.8784313725490196 0.8784313725490196 0.8784313725490196
            ambientIntensity 1.0
            transparency 0.0
            shininess 0.5
        }
    }
    geometry IndexedFaceSet {
        ccw TRUE
        solid FALSE
        coord DEF co Coordinate {
            point [
                -0.8661 0.745 0.4331, -0.8661 0.745 0.315, -1.1024 0.745 0.4331, -1.1024 0.745 0.315
            ]
        }
        coordIndex [
            0,1,2,-1,2,1,3,-1,
        ]
    }
}
Shape{
    appearance Appearance {
        material  Material 	{
            diffuseColor 1.0 1.0 1.0
            specularColor 0.5019607843137255 0.5019607843137255 0.5019607843137255
            ambientIntensity 1.0
            transparency 0.0
            shininess 0.5
        }
    }
    geometry IndexedFaceSet {
        ccw TRUE
        solid FALSE
        coord DEF co Coordinate {
            point [
                0.8661 0.745 0.4331, 0.8661 0.5709 0.4331, 1.1024 0.745 0.4331, 1.1024 0.5709 0.4331, 1.1024 0.5709 0.315, 0.8661 0.5709 0.315, 1.1024 0.745 0.315, 0.8661 0.745 0.315
            ]
        }
        coordIndex [
            0,1,2,-1,2,1,3,-1,4,3,5,-1,5,3,1,-1,6,4,7,-1,7,4,5,-1,3,4,2,-1,2,4,6,-1,7,5,0,-1,0,5,1,-1,
        ]
    }
}
Shape{
    appearance Appearance {
        material  Material 	{
            diffuseColor 1.0 1.0 1.0
            specularColor 0.8784313725490196 0.8784313725490196 0.8784313725490196
            ambientIntensity 1.0
            transparency 0.0
            shininess 0.5
        }
    }
    geometry IndexedFaceSet {
        ccw TRUE
        solid FALSE
        coord DEF co Coordinate {
            point [
                1.1024 0.745 0.4331, 1.1024 0.745 0.315, 0.8661 0.745 0.4331, 0.8661 0.745 0.315
            ]
        }
        coordIndex [
            0,1,2,-1,2,1,3,-1,
        ]
    }
}
Shape{
    appearance Appearance {
        material  Material 	{
            diffuseColor 1.0 1.0 1.0
            specularColor 0.5019607843137255 0.5019607843137255 0.5019607843137255
            ambientIntensity 1.0
            transparency 0.0
            shininess 0.5
        }
    }
    geometry IndexedFaceSet {
        ccw TRUE
        solid FALSE
        coord DEF co Coordinate {
            point [
                0.1181 -0.5709 0.315, 0.1181 -0.745 0.315, -0.1181 -0.5709 0.315, -0.1181 -0.745 0.315, 0.1181 -0.5709 0.4331, -0.1181 -0.5709 0.4331, 0.1181 -0.745 0.4331, -0.1181 -0.745 0.4331
            ]
        }
        coordIndex [
            0,1,2,-1,2,1,3,-1,4,0,5,-1,5,0,2,-1,6,4,7,-1,7,4,5,-1,1,0,6,-1,6,0,4,-1,5,2,7,-1,7,2,3,-1,
        ]
    }
}
Shape{
    appearance Appearance {
        material  Material 	{
            diffuseColor 1.0 1.0 1.0
            specularColor 0.8784313725490196 0.8784313725490196 0.8784313725490196
            ambientIntensity 1.0
            transparency 0.0
            shininess 0.5
        }
    }
    geometry IndexedFaceSet {
        ccw TRUE
        solid FALSE
        coord DEF co Coordinate {
            point [
                -0.1181 -0.745 0.4331, -0.1181 -0.745 0.315, 0.1181 -0.745 0.4331, 0.1181 -0.745 0.315
            ]
        }
        coordIndex [
            0,1,2,-1,2,1,3,-1,
        ]
    }
}
Shape{
    appearance Appearance {
        material  Material 	{
            diffuseColor 1.0 1.0 1.0
            specularColor 0.5019607843137255 0.5019607843137255 0.5019607843137255
            ambientIntensity 1.0
            transparency 0.0
            shininess 0.5
        }
    }
    geometry IndexedFaceSet {
        ccw TRUE
        solid FALSE
        coord DEF co Coordinate {
            point [
                1.5138 0.689 1.3386, 1.2697 0.689 1.3386, 1.5138 0.689 1.378, 1.2697 0.689 1.378, 1.2795 -0.689 0.9843, 0.6876 -0.689 1.2103, 0.6837 -0.689 1.2008, 0.6598 -0.689 1.1824, 0.2513 -0.689 0.9843, 0.6496 -0.689 1.1811, 0.2513 -0.689 1.1811, 0.689 -0.689 1.2205, 1.2795 -0.689 1.3386, 0.689 -0.689 1.3386, 0.6774 -0.689 1.1926, 0.6693 -0.689 1.1864, -0.689 0.311 1.3386, -0.689 -0.311 1.3386, -1.5371 0.2674 1.3386, 1.5256 -0.689 1.3386, 1.5256 -0.2953 1.3386, 1.2795 -0.6102 1.3386, -1.5256 -0.2953 1.3386, -1.2503 -0.6116 1.3386, -1.2598 -0.6155 1.3386, -1.268 -0.6218 1.3386, -1.2743 -0.6299 1.3386, -1.5256 -0.6772 1.3386, -1.2782 -0.6394 1.3386, -1.2795 -0.6496 1.3386, 0.6882 -0.3171 1.3386, 0.6858 -0.3228 1.3386, 0.6821 -0.3277 1.3386, 1.5252 0.6802 1.3386, 1.5256 0.6772 1.3386, 1.5168 0.6886 1.3386, 1.2185 0.6102 1.3386, 0.6821 0.3277 1.3386, 0.6772 0.3315 1.3386, -1.2913 -0.689 1.3386, -1.2795 -0.6772 1.3386, 1.5453 0.2612 1.3386, 1.5548 0.2572 1.3386, -0.6715 0.3338 1.3386, -0.6772 0.3315 1.3386, -1.2402 0.6102 1.3386, -1.5138 -0.689 1.3386, -1.5252 -0.6802 1.3386, -1.5197 -0.6874 1.3386, -1.5221 -0.6855 1.3386, -1.524 -0.6831 1.3386, -0.6821 -0.3277 1.3386, -0.6772 -0.3315 1.3386, -1.2402 -0.6102 1.3386, -1.2503 0.6116 1.3386, -1.2799 0.6802 1.3386, -1.2795 0.6772 1.3386, -1.2913 0.689 1.3386, -1.2795 0.6496 1.3386, -1.5138 0.689 1.3386, -0.6882 -0.3171 1.3386, -0.6858 -0.3228 1.3386, 0.6496 -0.6102 1.3386, 0.6715 -0.3338 1.3386, 0.6772 -0.3315 1.3386, 1.5269 0.2851 1.3386, 1.2287 0.6116 1.3386, 1.2382 0.6155 1.3386, -1.5256 0.6772 1.3386, -1.5253 0.6798 1.3386, -1.5244 0.6823 1.3386, -1.523 0.6845 1.3386, -1.5211 0.6864 1.3386, -1.5189 0.6878 1.3386, -1.5164 0.6887 1.3386, -1.2854 0.6874 1.3386, -1.283 0.6855 1.3386, -1.2811 0.6831 1.3386, -1.2798 -0.6798 1.3386, -1.2807 -0.6823 1.3386, -1.2821 -0.6845 1.3386, -1.284 -0.6864 1.3386, -1.2862 -0.6878 1.3386, -1.2887 -0.6887 1.3386, -1.5168 -0.6886 1.3386, 1.5256 0.2953 1.3386, 1.5453 -0.2612 1.3386, 1.5371 -0.2674 1.3386, 1.5309 -0.2756 1.3386, 1.5269 -0.2851 1.3386, -0.6882 0.3171 1.3386, -1.2598 0.6155 1.3386, -0.6858 0.3228 1.3386, -0.6821 0.3277 1.3386, -1.2782 0.6394 1.3386, -1.5256 0.2953 1.3386, -1.2743 0.6299 1.3386, -1.5269 0.2851 1.3386, -1.268 0.6218 1.3386, -1.5309 0.2756 1.3386, -0.6715 -0.3338 1.3386, -0.6654 -0.3346 1.3386, 0.6654 -0.3346 1.3386, 1.2463 0.6218 1.3386, 1.2526 0.6299 1.3386, 1.2565 0.6394 1.3386, 1.2579 0.6496 1.3386, 1.5371 0.2674 1.3386, 1.5309 0.2756 1.3386, 0.689 -0.311 1.3386, 0.689 0.311 1.3386, 0.6882 0.3171 1.3386, 0.6858 0.3228 1.3386, -1.2883 0.6886 1.3386, -1.5269 -0.2851 1.3386, -1.5309 -0.2756 1.3386, -1.5371 -0.2674 1.3386, -1.5453 -0.2612 1.3386, 1.6929 0.2559 1.3386, 1.6929 -0.2559 1.3386, 1.565 0.2559 1.3386, 1.565 -0.2559 1.3386, 1.5548 -0.2572 1.3386, 0.6715 0.3338 1.3386, 0.6654 0.3346 1.3386, -0.6654 0.3346 1.3386, -1.6929 -0.2559 1.3386, -1.6929 0.2559 1.3386, -1.565 -0.2559 1.3386, -1.565 0.2559 1.3386, -1.5548 -0.2572 1.3386, -1.5548 0.2572 1.3386, -1.5453 0.2612 1.3386, 1.2579 0.6772 1.3386, 1.2582 0.6798 1.3386, 1.259 0.6823 1.3386, 1.2605 0.6845 1.3386, 1.2623 0.6864 1.3386, 1.2646 0.6878 1.3386, 1.2671 0.6887 1.3386, 1.5197 0.6874 1.3386, 1.5221 0.6855 1.3386, 1.524 0.6831 1.3386, -1.5138 0.689 1.378, -1.2913 0.689 1.378, 1.7717 0.689 0.8268, 1.7717 0.689 0.6299, 1.7323 0.689 0.8268, 1.7323 0.689 0.6299, -1.5138 -0.689 1.378, -1.2913 -0.689 1.378, 1.7717 -0.689 0.6299, 1.7717 -0.689 0.8268, 1.7323 -0.689 0.6299, 1.7323 -0.689 0.8268, 1.7717 0.2438 0.8506, 1.7717 -0.6496 0.5906, 1.7717 0.2478 0.8482, 1.7717 0.2523 0.8468, 1.7717 0.2571 0.8465, 1.7717 0.6496 0.5906, 1.7717 0.2617 0.8473, 1.7717 0.2404 0.854, 1.7717 -0.238 0.858, 1.7717 -0.2404 0.854, 1.7717 -0.6496 0.8661, 1.7717 -0.6598 0.8648, 1.7717 -0.6693 0.8609, 1.7717 0.6496 0.8661, 1.7717 0.3269 0.8661, 1.7717 0.2559 1.3386, 1.7717 -0.2559 1.3386, 1.7717 0.2559 0.9371, 1.7717 -0.2559 0.9371, 1.7717 -0.254 0.9159, 1.7717 0.238 0.858, 1.7717 0.2365 0.8626, 1.7717 -0.2365 0.8626, 1.7717 -0.2852 0.8585, 1.7717 -0.3057 0.8642, 1.7717 -0.266 0.8493, 1.7717 -0.2617 0.8473, 1.7717 -0.2483 0.8954, 1.7717 -0.239 0.8763, 1.7717 -0.2371 0.872, 1.7717 -0.2571 0.8465, 1.7717 -0.3269 0.8661, 1.7717 0.3057 0.8642, 1.7717 0.2852 0.8585, 1.7717 0.266 0.8493, 1.7717 -0.6774 0.8546, 1.7717 -0.6837 0.8465, 1.7717 -0.6876 0.837, 1.7717 0.6693 0.5958, 1.7717 0.6774 0.6021, 1.7717 0.6837 0.6102, 1.7717 -0.2363 0.8673, 1.7717 0.2363 0.8673, 1.7717 0.2371 0.872, 1.7717 0.239 0.8763, 1.7717 0.6598 0.5919, 1.7717 0.6876 0.6197, 1.7717 0.2483 0.8954, 1.7717 0.254 0.9159, 1.7717 -0.2438 0.8506, 1.7717 -0.2478 0.8482, 1.7717 -0.2523 0.8468, 1.7717 -0.6598 0.5919, 1.7717 0.6837 0.8465, 1.7717 0.6774 0.8546, 1.7717 0.6693 0.8609, 1.7717 0.6876 0.837, 1.7717 0.6598 0.8648, 1.7717 -0.6876 0.6197, 1.7717 -0.6837 0.6102, 1.7717 -0.6774 0.6021, 1.7717 -0.6693 0.5958, 1.7323 -0.2559 0.9371, 1.7323 -0.2559 1.2992, 1.7323 0.2559 1.2992, 1.7323 0.2365 0.8626, 1.7323 0.238 0.858, 1.7323 -0.2365 0.8626, 1.7323 -0.2371 0.872, 1.7323 -0.239 0.8763, 1.7323 0.2438 0.8506, 1.7323 -0.6496 0.5906, 1.7323 0.2404 0.854, 1.7323 0.2478 0.8482, 1.7323 0.2523 0.8468, 1.7323 0.6496 0.5906, 1.7323 0.2571 0.8465, 1.7323 0.2617 0.8473, 1.7323 -0.2483 0.8954, 1.7323 -0.254 0.9159, 1.7323 -0.2617 0.8473, 1.7323 -0.2571 0.8465, 1.7323 -0.2523 0.8468, 1.7323 -0.2478 0.8482, 1.7323 -0.2438 0.8506, 1.7323 0.2559 0.9371, 1.7323 0.254 0.9159, 1.7323 0.2483 0.8954, 1.7323 -0.2404 0.854, 1.7323 -0.238 0.858, 1.7323 0.239 0.8763, 1.7323 0.2371 0.872, 1.7323 0.2363 0.8673, 1.7323 -0.2363 0.8673, 1.7323 0.266 0.8493, 1.7323 0.2852 0.8585, 1.7323 0.3057 0.8642, 1.7323 -0.6876 0.6197, 1.7323 -0.3269 0.8661, 1.7323 -0.6496 0.8661, 1.7323 -0.3057 0.8642, 1.7323 -0.2852 0.8585, 1.7323 -0.266 0.8493, 1.7323 0.6876 0.837, 1.7323 0.6496 0.8661, 1.7323 0.3269 0.8661, 1.7323 -0.6598 0.5919, 1.7323 -0.6693 0.5958, 1.7323 -0.6774 0.6021, 1.7323 -0.6837 0.6102, 1.7323 0.6774 0.6021, 1.7323 0.6693 0.5958, 1.7323 0.6598 0.5919, 1.7323 -0.6837 0.8465, 1.7323 -0.6774 0.8546, 1.7323 -0.6693 0.8609, 1.7323 0.6598 0.8648, 1.7323 0.6693 0.8609, 1.7323 0.6837 0.8465, 1.7323 0.6774 0.8546, 1.7323 -0.6876 0.837, 1.7323 -0.6598 0.8648, 1.7323 0.6876 0.6197, 1.7323 0.6837 0.6102, -1.7717 0.689 0.6299, -1.7717 0.689 0.8268, -1.7323 0.689 0.6299, -1.7323 0.689 0.8268, -1.7717 -0.2478 0.8482, -1.7717 -0.2438 0.8506, -1.7717 -0.2404 0.854, -1.7717 -0.238 0.858, -1.7717 -0.2365 0.8626, -1.7717 -0.2363 0.8673, -1.7717 0.2483 0.8954, -1.7717 0.239 0.8763, -1.7717 0.238 0.858, -1.7717 0.2404 0.854, -1.7717 0.2438 0.8506, -1.7717 -0.6598 0.8648, -1.7717 -0.6496 0.8661, -1.7717 -0.6876 0.837, -1.7717 -0.3269 0.8661, -1.7717 -0.6496 0.5906, -1.7717 -0.3057 0.8642, -1.7717 0.6876 0.6197, -1.7717 0.6837 0.6102, -1.7717 0.6774 0.6021, -1.7717 0.6693 0.5958, -1.7717 0.6598 0.5919, -1.7717 -0.2523 0.8468, -1.7717 0.6496 0.5906, -1.7717 -0.2571 0.8465, -1.7717 -0.2617 0.8473, -1.7717 0.6496 0.8661, -1.7717 0.6598 0.8648, -1.7717 0.6693 0.8609, -1.7717 -0.6876 0.6197, -1.7717 -0.689 0.6299, -1.7717 -0.2852 0.8585, -1.7717 -0.266 0.8493, -1.7717 0.2371 0.872, -1.7717 0.2363 0.8673, -1.7717 0.2365 0.8626, -1.7717 0.254 0.9159, -1.7717 -0.2371 0.872, -1.7717 0.2559 0.9371, -1.7717 -0.239 0.8763, -1.7717 -0.2483 0.8954, -1.7717 0.2852 0.8585, -1.7717 0.3057 0.8642, -1.7717 0.266 0.8493, -1.7717 0.2617 0.8473, -1.7717 -0.2559 1.3386, -1.7717 0.2559 1.3386, -1.7717 -0.2559 0.9371, -1.7717 -0.254 0.9159, -1.7717 0.2571 0.8465, -1.7717 0.3269 0.8661, -1.7717 -0.6598 0.5919, -1.7717 -0.6693 0.5958, -1.7717 -0.689 0.8268, -1.7717 0.6774 0.8546, -1.7717 0.6837 0.8465, -1.7717 0.6876 0.837, -1.7717 -0.6774 0.6021, -1.7717 -0.6837 0.6102, -1.7717 0.2478 0.8482, -1.7717 0.2523 0.8468, -1.7717 -0.6693 0.8609, -1.7717 -0.6837 0.8465, -1.7717 -0.6774 0.8546, -1.7323 -0.689 0.6299, -1.7323 -0.689 0.8268, -1.565 0.2559 1.378, -1.7323 0.2559 1.378, -1.7323 -0.2559 1.378, 0.689 -0.311 1.378, 0.6882 -0.3171 1.378, 1.5256 -0.6496 1.378, -1.2598 0.6155 1.378, -1.268 0.6218 1.378, -1.5548 -0.2572 1.378, 1.5371 -0.2674 1.378, 1.5453 -0.2612 1.378, 0.689 0.311 1.378, 0.6654 -0.3346 1.378, -0.6654 -0.3346 1.378, -1.2503 -0.6116 1.378, -0.6715 -0.3338 1.378, -0.6772 -0.3315 1.378, 0.6858 -0.3228 1.378, 0.6821 -0.3277 1.378, 0.689 -0.6496 1.378, 0.6772 -0.3315 1.378, 0.6715 -0.3338 1.378, -1.565 -0.2559 1.378, 0.6654 0.3346 1.378, 0.6715 0.3338 1.378, 1.2287 0.6116 1.378, -0.6821 0.3277 1.378, -0.6772 0.3315 1.378, -1.2402 0.6102 1.378, -0.6715 0.3338 1.378, 1.2185 0.6102 1.378, 0.6742 -0.6188 1.378, 0.6804 -0.6251 1.378, -1.2798 -0.6798 1.378, -1.2795 -0.6772 1.378, -1.2795 -0.6496 1.378, -0.689 0.311 1.378, -0.6882 0.3171 1.378, -1.5371 -0.2674 1.378, -0.6858 0.3228 1.378, -1.5453 -0.2612 1.378, -1.5253 0.6798 1.378, -1.5256 0.6772 1.378, -1.5371 0.2674 1.378, -1.5453 0.2612 1.378, -1.5548 0.2572 1.378, 0.6772 0.3315 1.378, 0.6821 0.3277 1.378, 1.2382 0.6155 1.378, 0.6858 0.3228 1.378, 0.6882 0.3171 1.378, -1.5309 0.2756 1.378, -0.6654 0.3346 1.378, 1.2579 0.6772 1.378, 1.2579 0.6496 1.378, 1.5256 0.6772 1.378, 1.2565 0.6394 1.378, 1.5256 0.2953 1.378, 1.5269 0.2851 1.378, 1.2463 0.6218 1.378, 1.2526 0.6299 1.378, 0.6851 -0.6325 1.378, 0.688 -0.6408 1.378, -1.524 -0.6831 1.378, -1.5221 -0.6855 1.378, -1.5197 -0.6874 1.378, -1.2503 0.6116 1.378, -1.2782 0.6394 1.378, -1.2795 0.6496 1.378, 1.5256 -0.2953 1.378, 1.5269 -0.2851 1.378, 1.5309 -0.2756 1.378, 1.5548 0.2572 1.378, 1.5453 0.2612 1.378, 1.5371 0.2674 1.378, 1.5309 0.2756 1.378, 1.2582 0.6798 1.378, 0.6496 -0.6102 1.378, 0.6584 -0.6112 1.378, 0.6667 -0.6141 1.378, -1.5256 -0.6772 1.378, -1.5252 -0.6802 1.378, -1.5168 -0.6886 1.378, -1.284 -0.6864 1.378, -1.2862 -0.6878 1.378, -1.2887 -0.6887 1.378, -1.2821 -0.6845 1.378, -1.2807 -0.6823 1.378, -1.2782 -0.6394 1.378, -1.5256 -0.2953 1.378, -1.2743 -0.6299 1.378, -1.5269 -0.2851 1.378, -1.268 -0.6218 1.378, -1.5309 -0.2756 1.378, -1.2598 -0.6155 1.378, -1.2743 0.6299 1.378, -1.5256 0.2953 1.378, -1.5269 0.2851 1.378, 1.565 -0.2559 1.378, 1.7323 -0.2559 1.378, 1.7323 0.2559 1.378, -1.2402 -0.6102 1.378, -0.6821 -0.3277 1.378, -0.6858 -0.3228 1.378, -0.6882 -0.3171 1.378, -0.689 -0.311 1.378, 1.5548 -0.2572 1.378, 1.565 0.2559 1.378, -1.2795 0.6772 1.378, -1.5211 0.6864 1.378, -1.5189 0.6878 1.378, -1.5164 0.6887 1.378, -1.523 0.6845 1.378, -1.5244 0.6823 1.378, 1.5221 0.6855 1.378, 1.5197 0.6874 1.378, 1.5168 0.6886 1.378, 1.2623 0.6864 1.378, 1.2646 0.6878 1.378, 1.2671 0.6887 1.378, 1.2605 0.6845 1.378, 1.259 0.6823 1.378, -1.2811 0.6831 1.378, -1.283 0.6855 1.378, -1.2854 0.6874 1.378, -1.2799 0.6802 1.378, -1.2883 0.6886 1.378, 1.5252 0.6802 1.378, 1.524 0.6831 1.378, -1.7323 0.2617 0.8473, -1.7323 0.2571 0.8465, -1.7323 0.6496 0.5906, -1.7323 -0.6496 0.5906, -1.7323 0.2523 0.8468, -1.7323 0.2478 0.8482, -1.7323 0.2438 0.8506, -1.7323 0.2404 0.854, -1.7323 0.238 0.858, -1.7323 -0.238 0.858, -1.7323 -0.2404 0.854, -1.7323 -0.2371 0.872, -1.7323 -0.2363 0.8673, -1.7323 0.2371 0.872, -1.7323 -0.6496 0.8661, -1.7323 -0.6598 0.8648, -1.7323 -0.6693 0.8609, -1.7323 0.6496 0.8661, -1.7323 0.3269 0.8661, -1.7323 0.3057 0.8642, -1.7323 -0.2559 1.2992, -1.7323 0.239 0.8763, -1.7323 0.2483 0.8954, -1.7323 -0.2852 0.8585, -1.7323 -0.3057 0.8642, -1.7323 -0.266 0.8493, -1.7323 -0.2617 0.8473, -1.7323 0.2852 0.8585, -1.7323 0.266 0.8493, -1.7323 -0.2559 0.9371, -1.7323 -0.254 0.9159, -1.7323 -0.2365 0.8626, -1.7323 0.2365 0.8626, -1.7323 0.2363 0.8673, -1.7323 0.254 0.9159, -1.7323 0.2559 0.9371, -1.7323 0.2559 1.2992, -1.7323 -0.2571 0.8465, -1.7323 -0.6774 0.8546, -1.7323 -0.6837 0.8465, -1.7323 -0.3269 0.8661, -1.7323 -0.2483 0.8954, -1.7323 -0.239 0.8763, -1.7323 0.6837 0.8465, -1.7323 0.6774 0.8546, -1.7323 0.6693 0.8609, -1.7323 0.6876 0.837, -1.7323 0.6598 0.8648, -1.7323 -0.6876 0.837, -1.7323 0.6598 0.5919, -1.7323 0.6876 0.6197, -1.7323 0.6693 0.5958, -1.7323 0.6774 0.6021, -1.7323 0.6837 0.6102, -1.7323 -0.6876 0.6197, -1.7323 -0.6837 0.6102, -1.7323 -0.6774 0.6021, -1.7323 -0.2438 0.8506, -1.7323 -0.2478 0.8482, -1.7323 -0.2523 0.8468, -1.7323 -0.6598 0.5919, -1.7323 -0.6693 0.5958, -1.7703 0.2559 1.3488, -1.7284 0.2559 1.3163, -1.7237 0.2559 1.3238, -1.7313 0.2559 1.308, -1.7017 0.2559 1.3376, -1.71 0.2559 1.3347, -1.7425 0.2559 1.3766, -1.7175 0.2559 1.33, -1.7664 0.2559 1.3583, -1.7601 0.2559 1.3664, -1.752 0.2559 1.3727, -1.752 -0.2559 1.3727, -1.7601 -0.2559 1.3664, -1.7175 -0.2559 1.33, -1.7237 -0.2559 1.3238, -1.7425 -0.2559 1.3766, -1.71 -0.2559 1.3347, -1.7313 -0.2559 1.308, -1.7284 -0.2559 1.3163, -1.7703 -0.2559 1.3488, -1.7664 -0.2559 1.3583, -1.7017 -0.2559 1.3376, 1.7031 0.2559 1.3372, 1.7126 0.2559 1.3333, 1.7309 0.2559 1.3094, 1.7703 0.2559 1.3488, 1.727 0.2559 1.3189, 1.7664 0.2559 1.3583, 1.7208 0.2559 1.3271, 1.7425 0.2559 1.3766, 1.752 0.2559 1.3727, 1.7601 0.2559 1.3664, 1.7703 -0.2559 1.3488, 1.727 -0.2559 1.3189, 1.7664 -0.2559 1.3583, 1.7208 -0.2559 1.3271, 1.7309 -0.2559 1.3094, 1.7031 -0.2559 1.3372, 1.7425 -0.2559 1.3766, 1.7126 -0.2559 1.3333, 1.752 -0.2559 1.3727, 1.7601 -0.2559 1.3664, 0.689 -0.6498 1.2205, 0.689 -0.6876 1.3488, 0.689 -0.6837 1.3583, 0.689 -0.6774 1.3664, 0.689 -0.6693 1.3727, 0.689 -0.6598 1.3766, 0.689 -0.6496 1.2992, 0.689 -0.6496 0.9843, 0.689 -0.6498 0.9843, 1.2795 -0.6496 1.2992, 1.2795 -0.6496 0.9843, 1.2795 -0.6443 1.3189, 1.2795 -0.6381 1.3271, 1.2795 -0.6483 1.3094, 1.2795 -0.6299 1.3333, 1.2795 -0.6204 1.3372, -0.1103 -0.689 0.9843, -0.1304 -0.6551 0.9843, -0.0457 -0.6505 0.9843, -0.0516 -0.6082 0.9843, -0.0243 -0.6406 0.9843, -0.0302 -0.5982 0.9843, -0.0015 -0.635 0.9843, -0.0072 -0.5927 0.9843, 0.0221 -0.6341 0.9843, 0.0164 -0.5919 0.9843, 0.0453 -0.6379 0.9843, 0.0397 -0.5957 0.9843, 0.2208 -0.685 0.9843, 0.2241 -0.6456 0.9843, 0.2359 -0.688 0.9843, 0.2394 -0.6487 0.9843, 0.2549 -0.6498 0.9843, 0.2549 -0.6498 1.1811, 0.6496 -0.6498 1.1811, 0.6598 -0.6498 1.1824, 0.6876 -0.6498 1.2103, 0.6837 -0.6498 1.2008, 0.6693 -0.6498 1.1864, 0.6774 -0.6498 1.1926, 0.2241 -0.6456 1.1811, 0.0397 -0.5957 1.1811, -0.0516 -0.6082 1.1811, -0.1304 -0.6551 1.1811, -0.1103 -0.689 1.1811, -0.0457 -0.6505 1.1811, 0.0453 -0.6379 1.1811, 0.2208 -0.685 1.1811, -0.0302 -0.5982 1.1811, -0.0243 -0.6406 1.1811, -0.0072 -0.5927 1.1811, -0.0015 -0.635 1.1811, 0.0164 -0.5919 1.1811, 0.0221 -0.6341 1.1811, 0.2394 -0.6487 1.1811, 0.2359 -0.688 1.1811, 1.5256 -0.6598 1.3766, 1.5256 -0.6693 1.3727, 1.5256 -0.6774 1.3664, 1.5256 -0.6837 1.3583, 1.5256 -0.6876 1.3488, 0.6889 -0.6466 1.3143, 0.689 -0.6483 1.3094, 0.689 -0.6493 1.3044, 0.6851 -0.6325 1.3317, 0.6872 -0.6381 1.3271, 0.688 -0.6408 1.324, 0.6886 -0.6443 1.3189, 0.6742 -0.6188 1.3376, 0.676 -0.6204 1.3372, 0.6804 -0.6251 1.3357, 0.6837 -0.6299 1.3333, 0.6667 -0.6141 1.3384, 0.6584 -0.6112 1.3386
            ]
        }
        coordIndex [
            0,1,2,-1,2,1,3,-1,4,5,6,-1,4,7,8,-1,8,7,9,-1,8,9,10,-1,5,4,11,-1,11,4,12,-1,11,12,13,-1,6,14,4,-1,4,14,15,-1,4,15,7,-1,16,17,18,-1,19,12,20,-1,20,12,21,-1,22,23,24,-1,24,25,22,-1,22,25,26,-1,22,26,27,-1,27,26,28,-1,27,28,29,-1,30,21,31,-1,31,21,32,-1,33,34,35,-1,36,37,38,-1,39,29,40,-1,41,42,21,-1,43,44,45,-1,29,39,27,-1,27,39,46,-1,27,46,47,-1,48,49,50,-1,51,52,53,-1,45,44,54,-1,55,56,57,-1,57,56,58,-1,57,58,59,-1,22,17,23,-1,23,17,60,-1,23,60,53,-1,53,60,61,-1,53,61,51,-1,62,63,21,-1,21,63,64,-1,21,64,32,-1,65,66,67,-1,68,69,59,-1,59,69,70,-1,59,70,71,-1,71,72,59,-1,59,72,73,-1,59,73,74,-1,75,76,77,-1,40,78,39,-1,39,78,79,-1,39,79,80,-1,80,81,39,-1,39,81,82,-1,39,82,83,-1,47,46,50,-1,50,46,84,-1,50,84,48,-1,65,67,85,-1,86,87,42,-1,42,87,88,-1,42,88,21,-1,21,88,89,-1,21,89,20,-1,90,91,92,-1,92,91,54,-1,92,54,93,-1,93,54,44,-1,59,58,68,-1,68,58,94,-1,68,94,95,-1,95,94,96,-1,95,96,97,-1,97,96,98,-1,97,98,99,-1,99,98,91,-1,99,91,18,-1,18,91,90,-1,18,90,16,-1,52,100,53,-1,53,100,101,-1,53,101,62,-1,62,101,102,-1,62,102,63,-1,67,103,85,-1,85,103,104,-1,85,104,34,-1,34,104,105,-1,34,105,106,-1,41,21,107,-1,107,21,30,-1,107,30,108,-1,108,30,109,-1,108,109,65,-1,65,109,110,-1,65,110,66,-1,66,110,111,-1,66,111,36,-1,36,111,112,-1,36,112,37,-1,55,57,77,-1,77,57,113,-1,77,113,75,-1,22,114,17,-1,17,114,115,-1,17,115,18,-1,18,115,116,-1,18,116,117,-1,118,119,120,-1,120,119,121,-1,120,121,42,-1,42,121,122,-1,42,122,86,-1,38,123,36,-1,36,123,124,-1,36,124,45,-1,45,124,125,-1,45,125,43,-1,126,127,128,-1,128,127,129,-1,128,129,130,-1,130,129,131,-1,130,131,117,-1,117,131,132,-1,117,132,18,-1,1,106,133,-1,106,1,34,-1,34,1,0,-1,34,0,35,-1,133,134,1,-1,1,134,135,-1,1,135,136,-1,136,137,1,-1,1,137,138,-1,1,138,139,-1,140,141,35,-1,35,141,142,-1,35,142,33,-1,143,144,59,-1,59,144,57,-1,145,146,147,-1,147,146,148,-1,46,39,149,-1,149,39,150,-1,151,152,153,-1,153,152,154,-1,155,156,157,-1,157,156,158,-1,158,156,159,-1,159,156,160,-1,159,160,161,-1,162,163,155,-1,155,163,164,-1,165,166,167,-1,168,169,145,-1,170,171,172,-1,172,171,173,-1,172,173,174,-1,162,175,163,-1,163,175,176,-1,163,176,177,-1,178,179,180,-1,180,179,181,-1,174,182,172,-1,172,182,183,-1,172,183,184,-1,167,185,165,-1,165,185,181,-1,165,181,186,-1,186,181,179,-1,187,188,160,-1,160,188,189,-1,160,189,161,-1,167,190,185,-1,185,190,191,-1,185,191,192,-1,193,194,169,-1,169,194,195,-1,177,176,196,-1,196,176,197,-1,196,197,184,-1,184,197,198,-1,184,198,199,-1,187,160,169,-1,169,160,200,-1,169,200,193,-1,195,201,169,-1,169,201,146,-1,169,146,145,-1,199,202,184,-1,184,202,203,-1,184,203,172,-1,164,204,155,-1,155,204,205,-1,155,205,156,-1,156,205,206,-1,156,206,207,-1,208,209,210,-1,145,211,168,-1,168,211,208,-1,168,208,212,-1,212,208,210,-1,192,152,185,-1,185,152,151,-1,185,151,206,-1,206,151,213,-1,206,213,214,-1,214,215,206,-1,206,215,216,-1,206,216,207,-1,217,218,219,-1,220,221,222,-1,223,224,219,-1,225,226,227,-1,227,226,221,-1,225,228,226,-1,226,228,229,-1,226,229,230,-1,230,229,231,-1,230,231,232,-1,224,233,219,-1,219,233,234,-1,219,234,217,-1,235,236,226,-1,226,236,237,-1,226,237,221,-1,221,237,238,-1,221,238,239,-1,219,240,223,-1,223,240,241,-1,223,241,242,-1,239,243,221,-1,221,243,244,-1,221,244,222,-1,242,245,223,-1,223,245,246,-1,223,246,247,-1,220,222,247,-1,247,222,248,-1,247,248,223,-1,232,249,230,-1,230,249,250,-1,230,250,251,-1,252,153,253,-1,253,153,154,-1,253,154,254,-1,255,256,226,-1,226,256,257,-1,226,257,235,-1,258,147,259,-1,259,147,230,-1,259,230,260,-1,260,230,251,-1,255,226,253,-1,253,226,261,-1,253,261,262,-1,262,263,253,-1,253,263,264,-1,253,264,252,-1,265,266,267,-1,268,269,270,-1,259,271,258,-1,258,271,272,-1,258,272,273,-1,273,272,274,-1,154,275,254,-1,254,275,268,-1,254,268,276,-1,276,268,270,-1,147,148,230,-1,230,148,277,-1,230,277,267,-1,267,277,278,-1,267,278,265,-1,279,280,281,-1,281,280,282,-1,279,283,284,-1,284,285,279,-1,279,285,286,-1,279,286,287,-1,288,289,290,-1,291,292,287,-1,287,292,293,-1,294,295,296,-1,295,297,298,-1,298,297,299,-1,279,300,283,-1,283,300,301,-1,283,301,302,-1,302,303,283,-1,283,303,304,-1,283,304,305,-1,305,304,306,-1,305,306,307,-1,307,306,298,-1,307,298,308,-1,309,310,311,-1,312,313,298,-1,299,314,298,-1,298,314,315,-1,298,315,308,-1,290,316,288,-1,288,316,317,-1,288,317,287,-1,287,317,318,-1,287,318,291,-1,289,288,319,-1,319,288,320,-1,319,320,321,-1,321,320,322,-1,321,322,323,-1,324,325,326,-1,326,325,327,-1,328,329,330,-1,330,329,321,-1,330,321,331,-1,331,321,323,-1,311,332,309,-1,309,332,327,-1,309,327,333,-1,333,327,325,-1,298,334,335,-1,298,313,295,-1,295,313,336,-1,295,336,296,-1,311,337,332,-1,332,337,338,-1,332,338,339,-1,335,340,298,-1,298,340,341,-1,298,341,312,-1,293,342,287,-1,287,342,343,-1,287,343,279,-1,279,343,332,-1,279,332,280,-1,280,332,339,-1,294,296,344,-1,344,296,345,-1,344,345,346,-1,347,348,313,-1,313,348,336,-1,349,350,351,-1,352,353,354,-1,355,356,357,-1,358,359,360,-1,361,362,363,-1,363,362,364,-1,363,364,365,-1,353,366,354,-1,354,366,367,-1,354,367,368,-1,368,367,369,-1,368,369,370,-1,357,356,371,-1,372,373,374,-1,375,376,377,-1,377,376,378,-1,377,378,379,-1,380,381,370,-1,382,383,150,-1,150,383,384,-1,150,384,149,-1,385,386,387,-1,387,386,388,-1,387,388,389,-1,390,391,143,-1,392,393,351,-1,351,393,394,-1,351,394,349,-1,373,395,374,-1,374,395,396,-1,374,396,397,-1,397,396,398,-1,397,398,399,-1,371,356,351,-1,351,356,400,-1,351,400,392,-1,379,378,374,-1,374,378,401,-1,374,401,372,-1,402,403,404,-1,404,403,405,-1,404,405,406,-1,399,360,397,-1,397,360,407,-1,397,407,408,-1,408,407,406,-1,408,406,409,-1,409,406,405,-1,381,410,370,-1,370,410,411,-1,370,411,368,-1,412,413,414,-1,355,357,415,-1,415,357,389,-1,415,389,377,-1,377,389,388,-1,377,388,375,-1,391,416,417,-1,354,418,352,-1,352,418,419,-1,352,419,360,-1,360,419,420,-1,360,420,358,-1,421,422,359,-1,359,422,423,-1,359,423,360,-1,360,423,424,-1,360,424,407,-1,425,402,3,-1,426,427,370,-1,370,427,428,-1,370,428,380,-1,429,430,149,-1,149,430,412,-1,149,412,431,-1,431,412,414,-1,432,150,433,-1,433,150,434,-1,432,435,150,-1,150,435,436,-1,150,436,382,-1,149,384,429,-1,429,384,437,-1,429,437,438,-1,438,437,439,-1,438,439,440,-1,440,439,441,-1,440,441,442,-1,442,441,443,-1,442,443,387,-1,416,391,444,-1,444,391,445,-1,444,445,356,-1,356,445,446,-1,356,446,400,-1,447,448,449,-1,3,402,2,-1,361,363,370,-1,370,363,450,-1,370,450,426,-1,365,451,363,-1,363,451,452,-1,363,452,443,-1,443,452,453,-1,443,453,387,-1,387,453,454,-1,387,454,385,-1,359,455,421,-1,421,455,447,-1,421,447,456,-1,456,447,449,-1,143,391,144,-1,144,391,417,-1,144,417,457,-1,458,143,459,-1,459,143,460,-1,458,461,143,-1,143,461,462,-1,143,462,390,-1,463,464,465,-1,466,3,467,-1,467,3,468,-1,466,469,3,-1,3,469,470,-1,3,470,425,-1,471,472,473,-1,457,474,144,-1,144,474,471,-1,144,471,475,-1,475,471,473,-1,402,404,2,-1,2,404,476,-1,2,476,465,-1,465,476,477,-1,465,477,463,-1,478,479,480,-1,480,479,481,-1,481,479,482,-1,481,482,483,-1,483,484,481,-1,481,484,485,-1,481,485,486,-1,486,487,488,-1,489,490,491,-1,492,493,494,-1,495,496,480,-1,480,496,497,-1,498,499,500,-1,501,502,503,-1,503,502,504,-1,497,505,480,-1,480,505,506,-1,480,506,478,-1,499,498,491,-1,491,498,507,-1,491,507,508,-1,487,486,509,-1,509,486,510,-1,509,510,490,-1,490,510,511,-1,490,511,491,-1,500,512,498,-1,498,512,513,-1,498,513,514,-1,515,516,517,-1,502,518,504,-1,504,518,492,-1,504,492,515,-1,515,492,494,-1,515,494,516,-1,508,519,491,-1,491,519,520,-1,491,520,489,-1,521,522,523,-1,521,523,524,-1,524,523,525,-1,524,525,495,-1,517,526,515,-1,515,526,348,-1,515,348,347,-1,527,528,480,-1,480,528,281,-1,480,281,495,-1,495,281,282,-1,495,282,524,-1,527,529,528,-1,528,529,530,-1,528,530,531,-1,347,532,515,-1,515,532,533,-1,515,533,534,-1,488,535,486,-1,486,535,536,-1,486,536,481,-1,481,536,537,-1,481,537,538,-1,538,537,515,-1,538,515,539,-1,539,515,534,-1,480,481,306,-1,306,481,298,-1,160,156,230,-1,230,156,226,-1,329,540,541,-1,541,540,542,-1,513,321,514,-1,514,321,329,-1,514,329,543,-1,543,329,541,-1,349,129,350,-1,350,129,127,-1,127,544,350,-1,350,544,545,-1,350,545,546,-1,546,545,547,-1,540,548,542,-1,542,548,549,-1,542,549,547,-1,547,549,550,-1,547,550,546,-1,496,495,333,-1,333,495,309,-1,297,295,518,-1,518,295,492,-1,330,507,328,-1,328,507,498,-1,551,552,553,-1,553,552,554,-1,551,553,555,-1,555,553,556,-1,555,556,351,-1,498,557,328,-1,328,557,558,-1,328,558,559,-1,559,558,554,-1,559,554,560,-1,560,554,552,-1,128,371,126,-1,126,371,351,-1,126,351,561,-1,561,351,556,-1,169,168,260,-1,260,168,259,-1,120,456,118,-1,118,456,449,-1,118,449,562,-1,562,449,563,-1,170,172,240,-1,240,219,170,-1,170,219,564,-1,170,564,565,-1,565,564,566,-1,565,566,567,-1,567,566,568,-1,449,569,563,-1,563,569,570,-1,563,570,568,-1,568,570,571,-1,568,571,567,-1,448,447,121,-1,171,572,573,-1,573,572,574,-1,573,574,575,-1,217,173,218,-1,218,173,171,-1,218,171,576,-1,576,171,573,-1,121,119,448,-1,448,119,577,-1,448,577,578,-1,578,577,579,-1,578,579,580,-1,580,579,575,-1,580,575,581,-1,581,575,574,-1,253,254,186,-1,186,254,165,-1,352,360,109,-1,109,360,110,-1,362,361,101,-1,101,361,102,-1,17,16,454,-1,454,16,385,-1,372,401,124,-1,124,401,125,-1,11,13,582,-1,582,13,583,-1,582,583,584,-1,584,585,582,-1,582,585,586,-1,582,586,587,-1,587,368,588,-1,587,588,582,-1,582,588,589,-1,582,589,590,-1,591,592,588,-1,588,592,589,-1,593,594,12,-1,593,12,595,-1,594,596,12,-1,12,596,597,-1,12,597,21,-1,4,592,12,-1,12,592,591,-1,12,591,595,-1,589,592,590,-1,590,592,4,-1,590,4,8,-1,598,599,600,-1,600,599,601,-1,600,601,602,-1,602,601,603,-1,602,603,604,-1,604,603,605,-1,604,605,606,-1,606,605,607,-1,606,607,608,-1,608,607,609,-1,608,609,610,-1,610,609,611,-1,610,611,612,-1,612,611,613,-1,612,613,8,-1,8,613,614,-1,8,614,590,-1,614,615,590,-1,590,615,616,-1,590,616,617,-1,582,590,618,-1,618,590,619,-1,617,620,590,-1,590,620,621,-1,590,621,619,-1,611,609,622,-1,622,609,623,-1,601,599,624,-1,624,599,625,-1,626,625,598,-1,598,625,599,-1,627,626,600,-1,600,626,598,-1,608,610,628,-1,628,610,629,-1,625,626,624,-1,624,626,627,-1,624,627,630,-1,630,627,631,-1,630,631,632,-1,632,631,633,-1,632,633,634,-1,634,633,635,-1,634,635,623,-1,623,635,628,-1,623,628,622,-1,622,628,629,-1,622,629,636,-1,636,629,637,-1,636,637,615,-1,615,637,10,-1,615,10,616,-1,616,10,9,-1,40,29,383,-1,383,29,384,-1,426,450,62,-1,62,450,53,-1,36,45,379,-1,379,45,377,-1,457,417,56,-1,56,417,58,-1,19,20,418,-1,418,354,19,-1,19,354,638,-1,19,638,639,-1,640,641,639,-1,639,641,642,-1,639,642,19,-1,404,406,34,-1,34,406,85,-1,429,438,27,-1,27,438,22,-1,68,95,391,-1,391,95,445,-1,145,147,258,-1,145,258,211,-1,211,258,273,-1,211,273,208,-1,208,273,274,-1,208,274,209,-1,209,274,272,-1,209,272,210,-1,210,272,271,-1,210,271,212,-1,212,271,259,-1,212,259,168,-1,148,146,201,-1,148,201,277,-1,277,201,195,-1,277,195,278,-1,278,195,194,-1,278,194,265,-1,265,194,193,-1,265,193,266,-1,266,193,200,-1,266,200,267,-1,267,200,160,-1,267,160,230,-1,151,153,252,-1,151,252,213,-1,213,252,264,-1,213,264,214,-1,214,264,263,-1,214,263,215,-1,215,263,262,-1,215,262,216,-1,216,262,261,-1,216,261,207,-1,207,261,226,-1,207,226,156,-1,165,254,276,-1,165,276,166,-1,166,276,270,-1,166,270,167,-1,167,270,269,-1,167,269,190,-1,190,269,268,-1,190,268,191,-1,191,268,275,-1,191,275,192,-1,192,275,154,-1,192,154,152,-1,480,306,304,-1,480,304,527,-1,527,304,303,-1,527,303,529,-1,529,303,302,-1,529,302,530,-1,530,302,301,-1,530,301,531,-1,531,301,300,-1,531,300,528,-1,528,300,279,-1,528,279,281,-1,282,280,339,-1,282,339,524,-1,524,339,338,-1,524,338,521,-1,521,338,337,-1,521,337,522,-1,522,337,311,-1,522,311,523,-1,523,311,310,-1,523,310,525,-1,525,310,309,-1,525,309,495,-1,298,481,538,-1,298,538,334,-1,334,538,539,-1,334,539,335,-1,335,539,534,-1,335,534,340,-1,340,534,533,-1,340,533,341,-1,341,533,532,-1,341,532,312,-1,312,532,347,-1,312,347,313,-1,492,295,294,-1,492,294,493,-1,493,294,344,-1,493,344,494,-1,494,344,346,-1,494,346,516,-1,516,346,345,-1,516,345,517,-1,517,345,296,-1,517,296,526,-1,526,296,336,-1,526,336,348,-1,257,180,235,-1,235,180,181,-1,235,181,236,-1,236,181,185,-1,236,185,237,-1,237,185,206,-1,237,206,238,-1,238,206,205,-1,238,205,239,-1,239,205,204,-1,239,204,243,-1,243,204,164,-1,243,164,244,-1,244,164,163,-1,244,163,222,-1,222,163,177,-1,222,177,248,-1,248,177,196,-1,248,196,223,-1,223,196,184,-1,223,184,224,-1,224,184,183,-1,245,199,246,-1,246,199,198,-1,246,198,247,-1,247,198,197,-1,247,197,220,-1,220,197,176,-1,220,176,221,-1,221,176,175,-1,221,175,227,-1,227,175,162,-1,227,162,225,-1,225,162,155,-1,225,155,228,-1,228,155,157,-1,228,157,229,-1,229,157,158,-1,229,158,231,-1,231,158,159,-1,231,159,232,-1,232,159,161,-1,232,161,249,-1,249,161,189,-1,315,503,308,-1,308,503,504,-1,308,504,307,-1,307,504,515,-1,307,515,305,-1,305,515,537,-1,305,537,283,-1,283,537,536,-1,283,536,284,-1,284,536,535,-1,284,535,285,-1,285,535,488,-1,285,488,286,-1,286,488,487,-1,286,487,287,-1,287,487,509,-1,287,509,288,-1,288,509,490,-1,288,490,320,-1,320,490,489,-1,320,489,322,-1,322,489,520,-1,290,499,316,-1,316,499,491,-1,316,491,317,-1,317,491,511,-1,317,511,318,-1,318,511,510,-1,318,510,291,-1,291,510,486,-1,291,486,292,-1,292,486,485,-1,292,485,293,-1,293,485,484,-1,293,484,342,-1,342,484,483,-1,342,483,343,-1,343,483,482,-1,343,482,332,-1,332,482,479,-1,332,479,327,-1,327,479,478,-1,327,478,326,-1,326,478,506,-1,326,506,505,-1,326,505,324,-1,324,505,497,-1,324,497,325,-1,325,497,496,-1,325,496,333,-1,321,513,512,-1,321,512,319,-1,319,512,500,-1,319,500,289,-1,289,500,499,-1,289,499,290,-1,322,520,519,-1,322,519,323,-1,323,519,508,-1,323,508,331,-1,331,508,507,-1,331,507,330,-1,297,518,502,-1,297,502,299,-1,299,502,501,-1,299,501,314,-1,314,501,503,-1,314,503,315,-1,224,183,182,-1,224,182,233,-1,233,182,174,-1,233,174,234,-1,234,174,173,-1,234,173,217,-1,253,186,179,-1,253,179,255,-1,255,179,178,-1,255,178,256,-1,256,178,180,-1,256,180,257,-1,249,189,188,-1,249,188,250,-1,250,188,187,-1,250,187,251,-1,251,187,169,-1,251,169,260,-1,240,172,203,-1,240,203,241,-1,241,203,202,-1,241,202,242,-1,242,202,199,-1,242,199,245,-1,449,448,578,-1,449,578,569,-1,569,578,580,-1,569,580,570,-1,570,580,581,-1,570,581,571,-1,571,581,574,-1,571,574,567,-1,567,574,572,-1,567,572,565,-1,565,572,171,-1,565,171,170,-1,12,19,642,-1,583,641,584,-1,584,641,640,-1,584,640,585,-1,585,640,639,-1,585,639,586,-1,586,639,638,-1,586,638,587,-1,587,638,354,-1,587,354,368,-1,13,12,583,-1,583,12,642,-1,583,642,641,-1,351,350,546,-1,351,546,555,-1,555,546,550,-1,555,550,551,-1,551,550,549,-1,551,549,552,-1,552,549,548,-1,552,548,560,-1,560,548,540,-1,560,540,559,-1,559,540,329,-1,559,329,328,-1,121,447,122,-1,122,447,455,-1,122,455,86,-1,86,455,359,-1,86,359,87,-1,87,359,358,-1,87,358,88,-1,88,358,420,-1,88,420,89,-1,89,420,419,-1,89,419,20,-1,20,419,418,-1,85,406,65,-1,65,406,407,-1,65,407,108,-1,108,407,424,-1,108,424,107,-1,107,424,423,-1,107,423,41,-1,41,423,422,-1,41,422,42,-1,42,422,421,-1,42,421,120,-1,120,421,456,-1,445,95,446,-1,446,95,97,-1,446,97,400,-1,400,97,99,-1,400,99,392,-1,392,99,18,-1,392,18,393,-1,393,18,132,-1,393,132,394,-1,394,132,131,-1,394,131,349,-1,349,131,129,-1,371,128,357,-1,357,128,130,-1,357,130,389,-1,389,130,117,-1,389,117,387,-1,387,117,116,-1,387,116,442,-1,442,116,115,-1,442,115,440,-1,440,115,114,-1,440,114,438,-1,438,114,22,-1,377,45,415,-1,415,45,54,-1,415,54,355,-1,355,54,91,-1,355,91,356,-1,356,91,98,-1,356,98,444,-1,444,98,96,-1,444,96,416,-1,416,96,94,-1,416,94,417,-1,417,94,58,-1,384,29,437,-1,437,29,28,-1,437,28,439,-1,439,28,26,-1,439,26,441,-1,441,26,25,-1,441,25,443,-1,443,25,24,-1,443,24,363,-1,363,24,23,-1,363,23,450,-1,450,23,53,-1,68,391,390,-1,68,390,69,-1,69,390,462,-1,69,462,70,-1,70,462,461,-1,70,461,71,-1,71,461,458,-1,71,458,72,-1,72,458,459,-1,72,459,73,-1,73,459,460,-1,73,460,74,-1,74,460,143,-1,74,143,59,-1,57,144,475,-1,57,475,113,-1,113,475,473,-1,113,473,75,-1,75,473,472,-1,75,472,76,-1,76,472,471,-1,76,471,77,-1,77,471,474,-1,77,474,55,-1,55,474,457,-1,55,457,56,-1,46,149,431,-1,46,431,84,-1,84,431,414,-1,84,414,48,-1,48,414,413,-1,48,413,49,-1,49,413,412,-1,49,412,50,-1,50,412,430,-1,50,430,47,-1,47,430,429,-1,47,429,27,-1,40,383,382,-1,40,382,78,-1,78,382,436,-1,78,436,79,-1,79,436,435,-1,79,435,80,-1,80,435,432,-1,80,432,81,-1,81,432,433,-1,81,433,82,-1,82,433,434,-1,82,434,83,-1,83,434,150,-1,83,150,39,-1,643,644,368,-1,368,644,645,-1,368,645,588,-1,411,410,646,-1,646,647,411,-1,411,647,648,-1,411,648,368,-1,368,648,649,-1,368,649,643,-1,650,651,381,-1,381,651,652,-1,381,652,410,-1,410,652,653,-1,410,653,646,-1,381,380,650,-1,650,380,428,-1,650,428,654,-1,654,428,427,-1,654,427,655,-1,655,427,426,-1,655,426,62,-1,362,101,364,-1,364,101,100,-1,364,100,365,-1,365,100,52,-1,365,52,451,-1,451,52,51,-1,451,51,452,-1,452,51,61,-1,452,61,453,-1,453,61,60,-1,453,60,454,-1,454,60,17,-1,352,109,353,-1,353,109,30,-1,353,30,366,-1,366,30,31,-1,366,31,367,-1,367,31,32,-1,367,32,369,-1,369,32,64,-1,369,64,370,-1,370,64,63,-1,370,63,361,-1,361,63,102,-1,372,124,373,-1,373,124,123,-1,373,123,395,-1,395,123,38,-1,395,38,396,-1,396,38,37,-1,396,37,398,-1,398,37,112,-1,398,112,399,-1,399,112,111,-1,399,111,360,-1,360,111,110,-1,385,16,386,-1,386,16,90,-1,386,90,388,-1,388,90,92,-1,388,92,375,-1,375,92,93,-1,375,93,376,-1,376,93,44,-1,376,44,378,-1,378,44,43,-1,378,43,401,-1,401,43,125,-1,616,9,617,-1,617,9,7,-1,617,7,620,-1,620,7,15,-1,620,15,621,-1,621,15,14,-1,621,14,619,-1,619,14,6,-1,619,6,618,-1,618,6,5,-1,618,5,582,-1,582,5,11,-1,611,622,613,-1,613,622,636,-1,613,636,614,-1,614,636,615,-1,623,609,607,-1,623,607,634,-1,634,607,605,-1,634,605,632,-1,632,605,603,-1,632,603,630,-1,630,603,601,-1,630,601,624,-1,608,628,606,-1,606,628,635,-1,606,635,604,-1,604,635,633,-1,604,633,602,-1,602,633,631,-1,602,631,600,-1,600,631,627,-1,8,10,637,-1,8,637,612,-1,612,637,629,-1,612,629,610,-1,498,514,557,-1,557,514,543,-1,557,543,558,-1,558,543,541,-1,558,541,554,-1,554,541,542,-1,554,542,553,-1,553,542,547,-1,553,547,556,-1,556,547,545,-1,556,545,561,-1,561,545,544,-1,561,544,126,-1,126,544,127,-1,62,21,655,-1,655,21,654,-1,597,596,653,-1,653,652,597,-1,597,652,651,-1,597,651,21,-1,21,651,650,-1,21,650,654,-1,594,593,649,-1,649,648,594,-1,594,648,647,-1,594,647,596,-1,596,647,646,-1,596,646,653,-1,595,591,588,-1,588,645,595,-1,595,645,644,-1,595,644,593,-1,593,644,643,-1,593,643,649,-1,219,218,564,-1,564,218,576,-1,564,576,566,-1,566,576,573,-1,566,573,568,-1,568,573,575,-1,568,575,563,-1,563,575,579,-1,563,579,562,-1,562,579,577,-1,562,577,118,-1,118,577,119,-1,133,106,402,-1,402,106,403,-1,403,106,405,-1,405,106,105,-1,405,105,409,-1,409,105,104,-1,409,104,408,-1,408,104,103,-1,408,103,397,-1,397,103,67,-1,397,67,374,-1,374,67,66,-1,374,66,379,-1,379,66,36,-1,0,2,465,-1,0,465,35,-1,35,465,464,-1,35,464,140,-1,140,464,463,-1,140,463,141,-1,141,463,477,-1,141,477,142,-1,142,477,476,-1,142,476,33,-1,33,476,404,-1,33,404,34,-1,133,402,425,-1,133,425,134,-1,134,425,470,-1,134,470,135,-1,135,470,469,-1,135,469,136,-1,136,469,466,-1,136,466,137,-1,137,466,467,-1,137,467,138,-1,138,467,468,-1,138,468,139,-1,139,468,3,-1,139,3,1,-1,
        ]
    }
}