solid bot_case
facet normal 0 0 -1
outer loop
vertex 173.86748216337995 -78.99932227278043 0
vertex 174.08207356838162 -79.03465876287858 0
vertex 174.2915594214982 -79.09308663274244 0
endloop
endfacet
facet normal 0 0 -1
outer loop
vertex 173.86748216337995 -78.99932227278043 0
vertex 174.2915594214982 -79.09308663274244 0
vertex 174.49346265000005 -79.17391500000002 0
endloop
endfacet
facet normal 0 0 -1
outer loop
vertex 173.86748216337995 -78.99932227278043 0
vertex 174.49346265000005 -79.17391500000002 0
vertex 203.6681372 -92.73717599999999 0
endloop
endfacet
facet normal 0 0 -1
outer loop
vertex 173.86748216337995 -78.99932227278043 0
vertex 203.6681372 -92.73717599999999 0
vertex 203.950001321857 -92.89717200609664 0
endloop
endfacet
facet normal 0 0 -1
outer loop
vertex 173.86748216337995 -78.99932227278043 0
vertex 203.950001321857 -92.89717200609664 0
vertex 204.2023197071303 -93.10059695141432 0
endloop
endfacet
facet normal 0 0 -1
outer loop
vertex 173.86748216337995 -78.99932227278043 0
vertex 204.2023197071303 -93.10059695141432 0
vertex 204.41846747914008 -93.34210557771928 0
endloop
endfacet
facet normal 0 0 -1
outer loop
vertex 173.86748216337995 -78.99932227278043 0
vertex 204.41846747914008 -93.34210557771928 0
vertex 204.5927682582615 -93.6153554895622 0
endloop
endfacet
facet normal 0 0 -1
outer loop
vertex 173.86748216337995 -78.99932227278043 0
vertex 204.5927682582615 -93.6153554895622 0
vertex 204.72064463256024 -93.91317071553425 0
endloop
endfacet
facet normal 0 0 -1
outer loop
vertex 173.86748216337995 -78.99932227278043 0
vertex 204.72064463256024 -93.91317071553425 0
vertex 204.79873836781144 -94.22773016053449 0
endloop
endfacet
facet normal 0 0 -1
outer loop
vertex 173.86748216337995 -78.99932227278043 0
vertex 204.79873836781144 -94.22773016053449 0
vertex 204.82499860000001 -94.55077299999999 0
endloop
endfacet
facet normal 0 0 -1
outer loop
vertex 173.86748216337995 -78.99932227278043 0
vertex 204.82499860000001 -94.55077299999999 0
vertex 204.825 -167.56169709999975 0
endloop
endfacet
facet normal 0 0 -1
outer loop
vertex 173.86748216337995 -78.99932227278043 0
vertex 204.825 -167.56169709999975 0
vertex 204.80867927510283 -167.81668673627047 0
endloop
endfacet
facet normal 0 0 -1
outer loop
vertex 173.86748216337995 -78.99932227278043 0
vertex 204.80867927510283 -167.81668673627047 0
vertex 204.75998099108082 -168.06751809044852 0
endloop
endfacet
facet normal 0 0 -1
outer loop
vertex 173.86748216337995 -78.99932227278043 0
vertex 204.75998099108082 -168.06751809044852 0
vertex 204.6797 -168.31009354999986 0
endloop
endfacet
facet normal 0 0 -1
outer loop
vertex 173.86748216337995 -78.99932227278043 0
vertex 204.6797 -168.31009354999986 0
vertex 201.24145100251286 -176.83087478032394 0
endloop
endfacet
facet normal 0 0 -1
outer loop
vertex 173.86748216337995 -78.99932227278043 0
vertex 201.24145100251286 -176.83087478032394 0
vertex 146.9960880895748 -176.83087478032394 0
endloop
endfacet
facet normal 0 0 -1
outer loop
vertex 173.86748216337995 -78.99932227278043 0
vertex 146.9960880895748 -176.83087478032394 0
vertex 69.475 -176.83087478032394 0
endloop
endfacet
facet normal 0 0 -1
outer loop
vertex 173.86748216337995 -78.99932227278043 0
vertex 69.475 -176.83087478032394 0
vertex 69.475 -94.63439120000002 0
endloop
endfacet
facet normal 0 0 -1
outer loop
vertex 173.86748216337995 -78.99932227278043 0
vertex 69.475 -94.63439120000002 0
vertex 69.49723088625502 -94.33701648100312 0
endloop
endfacet
facet normal 0 0 -1
outer loop
vertex 173.86748216337995 -78.99932227278043 0
vertex 69.49723088625502 -94.33701648100312 0
vertex 69.56343180873412 -94.04624854848302 0
endloop
endfacet
facet normal 0 0 -1
outer loop
vertex 173.86748216337995 -78.99932227278043 0
vertex 69.56343180873412 -94.04624854848302 0
vertex 69.67213097938101 -93.76855619529405 0
endloop
endfacet
facet normal 0 0 -1
outer loop
vertex 173.86748216337995 -78.99932227278043 0
vertex 69.67213097938101 -93.76855619529405 0
vertex 69.82091178321413 -93.51011311620313 0
endloop
endfacet
facet normal 0 0 -1
outer loop
vertex 173.86748216337995 -78.99932227278043 0
vertex 69.82091178321413 -93.51011311620313 0
vertex 70.00646650484363 -93.27666505345708 0
endloop
endfacet
facet normal 0 0 -1
outer loop
vertex 173.86748216337995 -78.99932227278043 0
vertex 70.00646650484363 -93.27666505345708 0
vertex 70.2246698660589 -93.07340205664394 0
endloop
endfacet
facet normal 0 0 -1
outer loop
vertex 173.86748216337995 -78.99932227278043 0
vertex 70.2246698660589 -93.07340205664394 0
vertex 70.470670739582 -92.9048430967959 0
endloop
endfacet
facet normal 0 0 -1
outer loop
vertex 173.86748216337995 -78.99932227278043 0
vertex 70.470670739582 -92.9048430967959 0
vertex 70.73899999999978 -92.7747356000001 0
endloop
endfacet
facet normal 0 0 -1
outer loop
vertex 173.86748216337995 -78.99932227278043 0
vertex 70.73899999999978 -92.7747356000001 0
vertex 105.22037980000032 -79.1278499999999 0
endloop
endfacet
facet normal 0 0 -1
outer loop
vertex 173.86748216337995 -78.99932227278043 0
vertex 105.22037980000032 -79.1278499999999 0
vertex 105.45917349357012 -79.05028871245379 0
endloop
endfacet
facet normal 0 0 -1
outer loop
vertex 173.86748216337995 -78.99932227278043 0
vertex 105.45917349357012 -79.05028871245379 0
vertex 105.7058023964419 -79.00326167409914 0
endloop
endfacet
facet normal 0 0 -1
outer loop
vertex 173.86748216337995 -78.99932227278043 0
vertex 105.7058023964419 -79.00326167409914 0
vertex 105.95637989999999 -78.98750499999998 0
endloop
endfacet
facet normal 0 0 -1
outer loop
vertex 173.86748216337995 -78.99932227278043 0
vertex 105.95637989999999 -78.98750499999998 0
vertex 173.65032530000008 -78.9875 0
endloop
endfacet
facet normal 0 0 -1
outer loop
vertex 201.24145100251286 -176.83087478032394 0
vertex 201.2391624852389 -176.83654625875602 0
vertex 147.28693523279904 -176.83654625875602 0
endloop
endfacet
facet normal 0 0 -1
outer loop
vertex 201.24145100251286 -176.83087478032394 0
vertex 147.28693523279904 -176.83654625875602 0
vertex 146.9960880895748 -176.83087478032394 0
endloop
endfacet
facet normal 0 0 -1
outer loop
vertex 146.9960880895748 -176.83087478032394 0
vertex 146.7074947966285 -176.8674553442321 0
vertex 69.475 -176.8674553442321 0
endloop
endfacet
facet normal 0 0 -1
outer loop
vertex 146.9960880895748 -176.83087478032394 0
vertex 69.475 -176.8674553442321 0
vertex 69.475 -176.83087478032394 0
endloop
endfacet
facet normal 0 0 -1
outer loop
vertex 201.2391624852389 -176.83654625875602 0
vertex 201.21987312072451 -176.88434979340957 0
vertex 147.57388304767795 -176.88434979340957 0
endloop
endfacet
facet normal 0 0 -1
outer loop
vertex 201.2391624852389 -176.83654625875602 0
vertex 147.57388304767795 -176.88434979340957 0
vertex 147.28693523279904 -176.83654625875602 0
endloop
endfacet
facet normal 0 0 -1
outer loop
vertex 146.7074947966285 -176.8674553442321 0
vertex 146.42726084999998 -176.94551404999999 0
vertex 69.475 -176.94551404999999 0
endloop
endfacet
facet normal 0 0 -1
outer loop
vertex 146.7074947966285 -176.8674553442321 0
vertex 69.475 -176.94551404999999 0
vertex 69.475 -176.8674553442321 0
endloop
endfacet
facet normal 0 0 -1
outer loop
vertex 201.21987312072451 -176.88434979340957 0
vertex 201.18398936162805 -176.97327809999993 0
vertex 147.85086169999985 -176.97327809999993 0
endloop
endfacet
facet normal 0 0 -1
outer loop
vertex 201.21987312072451 -176.88434979340957 0
vertex 147.85086169999985 -176.97327809999993 0
vertex 147.57388304767795 -176.88434979340957 0
endloop
endfacet
facet normal 0 0 -1
outer loop
vertex 146.42726084999998 -176.94551404999999 0
vertex 108.90246009999987 -190.40752380000004 0
vertex 108.68234745329464 -190.47250014647508 0
endloop
endfacet
facet normal 0 0 -1
outer loop
vertex 146.42726084999998 -176.94551404999999 0
vertex 108.68234745329464 -190.47250014647508 0
vertex 108.45623493373003 -190.51183279691108 0
endloop
endfacet
facet normal 0 0 -1
outer loop
vertex 146.42726084999998 -176.94551404999999 0
vertex 108.45623493373003 -190.51183279691108 0
vertex 108.2271050500008 -190.52500189999998 0
endloop
endfacet
facet normal 0 0 -1
outer loop
vertex 146.42726084999998 -176.94551404999999 0
vertex 108.2271050500008 -190.52500189999998 0
vertex 71.47499999999971 -190.52499999999998 0
endloop
endfacet
facet normal 0 0 -1
outer loop
vertex 146.42726084999998 -176.94551404999999 0
vertex 71.47499999999971 -190.52499999999998 0
vertex 71.12770364466606 -190.49461550602442 0
endloop
endfacet
facet normal 0 0 -1
outer loop
vertex 146.42726084999998 -176.94551404999999 0
vertex 71.12770364466606 -190.49461550602442 0
vertex 70.79095971334874 -190.40438524157184 0
endloop
endfacet
facet normal 0 0 -1
outer loop
vertex 146.42726084999998 -176.94551404999999 0
vertex 70.79095971334874 -190.40438524157184 0
vertex 70.47499999999995 -190.25705080756885 0
endloop
endfacet
facet normal 0 0 -1
outer loop
vertex 146.42726084999998 -176.94551404999999 0
vertex 70.47499999999995 -190.25705080756885 0
vertex 70.18942478062691 -190.05708888623795 0
endloop
endfacet
facet normal 0 0 -1
outer loop
vertex 146.42726084999998 -176.94551404999999 0
vertex 70.18942478062691 -190.05708888623795 0
vertex 69.94291111376215 -189.8105752193732 0
endloop
endfacet
facet normal 0 0 -1
outer loop
vertex 146.42726084999998 -176.94551404999999 0
vertex 69.94291111376215 -189.8105752193732 0
vertex 69.74294919243106 -189.5249999999999 0
endloop
endfacet
facet normal 0 0 -1
outer loop
vertex 146.42726084999998 -176.94551404999999 0
vertex 69.74294919243106 -189.5249999999999 0
vertex 69.59561475842818 -189.20904028665137 0
endloop
endfacet
facet normal 0 0 -1
outer loop
vertex 146.42726084999998 -176.94551404999999 0
vertex 69.59561475842818 -189.20904028665137 0
vertex 69.5053844939756 -188.87229635533393 0
endloop
endfacet
facet normal 0 0 -1
outer loop
vertex 146.42726084999998 -176.94551404999999 0
vertex 69.5053844939756 -188.87229635533393 0
vertex 69.475 -188.5249999999999 0
endloop
endfacet
facet normal 0 0 -1
outer loop
vertex 146.42726084999998 -176.94551404999999 0
vertex 69.475 -188.5249999999999 0
vertex 69.475 -176.94551404999999 0
endloop
endfacet
facet normal 0 0 -1
outer loop
vertex 201.18398936162805 -176.97327809999993 0
vertex 194.465923 -193.62221009999993 0
vertex 194.30779621442372 -193.93288902525865 0
endloop
endfacet
facet normal 0 0 -1
outer loop
vertex 201.18398936162805 -176.97327809999993 0
vertex 194.30779621442372 -193.93288902525865 0
vertex 194.0981269644703 -194.21139187484923 0
endloop
endfacet
facet normal 0 0 -1
outer loop
vertex 201.18398936162805 -176.97327809999993 0
vertex 194.0981269644703 -194.21139187484923 0
vertex 193.84328376569644 -194.4492573318723 0
endloop
endfacet
facet normal 0 0 -1
outer loop
vertex 201.18398936162805 -176.97327809999993 0
vertex 193.84328376569644 -194.4492573318723 0
vertex 193.55100907504837 -194.6392587445323 0
endloop
endfacet
facet normal 0 0 -1
outer loop
vertex 201.18398936162805 -176.97327809999993 0
vertex 193.55100907504837 -194.6392587445323 0
vertex 193.23018256528064 -194.77562363090948 0
endloop
endfacet
facet normal 0 0 -1
outer loop
vertex 201.18398936162805 -176.97327809999993 0
vertex 193.23018256528064 -194.77562363090948 0
vertex 192.89055134932877 -194.85420905422188 0
endloop
endfacet
facet normal 0 0 -1
outer loop
vertex 201.18398936162805 -176.97327809999993 0
vertex 192.89055134932877 -194.85420905422188 0
vertex 192.54243385075554 -194.87262749045675 0
endloop
endfacet
facet normal 0 0 -1
outer loop
vertex 201.18398936162805 -176.97327809999993 0
vertex 192.54243385075554 -194.87262749045675 0
vertex 192.19640631706517 -194.8303193643526 0
endloop
endfacet
facet normal 0 0 -1
outer loop
vertex 201.18398936162805 -176.97327809999993 0
vertex 192.19640631706517 -194.8303193643526 0
vertex 191.86298150000007 -194.72857005000003 0
endloop
endfacet
facet normal 0 0 -1
outer loop
vertex 201.18398936162805 -176.97327809999993 0
vertex 191.86298150000007 -194.72857005000003 0
vertex 147.85086169999985 -176.97327809999993 0
endloop
endfacet
facet normal 0 0 1
outer loop
vertex 192.89055134932875 -194.8542090542219 10
vertex 193.2301825652806 -194.7756236309095 10
vertex 193.55100907504857 -194.63925874453224 10
endloop
endfacet
facet normal 0 0 1
outer loop
vertex 192.89055134932875 -194.8542090542219 10
vertex 193.55100907504857 -194.63925874453224 10
vertex 193.84328376569593 -194.4492573318727 10
endloop
endfacet
facet normal 0 0 1
outer loop
vertex 192.89055134932875 -194.8542090542219 10
vertex 193.84328376569593 -194.4492573318727 10
vertex 194.09812696447057 -194.21139187484894 10
endloop
endfacet
facet normal 0 0 1
outer loop
vertex 192.89055134932875 -194.8542090542219 10
vertex 194.09812696447057 -194.21139187484894 10
vertex 194.30779621442383 -193.93288902525856 10
endloop
endfacet
facet normal 0 0 1
outer loop
vertex 192.89055134932875 -194.8542090542219 10
vertex 194.30779621442383 -193.93288902525856 10
vertex 194.46592299999986 -193.62221010000033 10
endloop
endfacet
facet normal 0 0 1
outer loop
vertex 192.89055134932875 -194.8542090542219 10
vertex 194.46592299999986 -193.62221010000033 10
vertex 201.18398936162808 -176.97327809999993 10
endloop
endfacet
facet normal 0 0 1
outer loop
vertex 192.89055134932875 -194.8542090542219 10
vertex 201.18398936162808 -176.97327809999993 10
vertex 147.85086169999983 -176.97327809999993 10
endloop
endfacet
facet normal 0 0 1
outer loop
vertex 192.89055134932875 -194.8542090542219 10
vertex 147.85086169999983 -176.97327809999993 10
vertex 191.86298149999996 -194.72857004999997 10
endloop
endfacet
facet normal 0 0 1
outer loop
vertex 192.89055134932875 -194.8542090542219 10
vertex 191.86298149999996 -194.72857004999997 10
vertex 192.19640631706534 -194.83031936435265 10
endloop
endfacet
facet normal 0 0 1
outer loop
vertex 192.89055134932875 -194.8542090542219 10
vertex 192.19640631706534 -194.83031936435265 10
vertex 192.54243385075546 -194.87262749045678 10
endloop
endfacet
facet normal 0 0 1
outer loop
vertex 108.4562349337301 -190.51183279691108 10
vertex 108.68234745329445 -190.47250014647514 10
vertex 108.90246009999991 -190.40752380000004 10
endloop
endfacet
facet normal 0 0 1
outer loop
vertex 108.4562349337301 -190.51183279691108 10
vertex 108.90246009999991 -190.40752380000004 10
vertex 146.4272608499999 -176.94551405000004 10
endloop
endfacet
facet normal 0 0 1
outer loop
vertex 108.4562349337301 -190.51183279691108 10
vertex 146.4272608499999 -176.94551405000004 10
vertex 69.475 -176.94551405000004 10
endloop
endfacet
facet normal 0 0 1
outer loop
vertex 108.4562349337301 -190.51183279691108 10
vertex 69.475 -176.94551405000004 10
vertex 69.475 -188.5249999999999 10
endloop
endfacet
facet normal 0 0 1
outer loop
vertex 108.4562349337301 -190.51183279691108 10
vertex 69.475 -188.5249999999999 10
vertex 69.5053844939756 -188.87229635533393 10
endloop
endfacet
facet normal 0 0 1
outer loop
vertex 108.4562349337301 -190.51183279691108 10
vertex 69.5053844939756 -188.87229635533393 10
vertex 69.59561475842818 -189.20904028665137 10
endloop
endfacet
facet normal 0 0 1
outer loop
vertex 108.4562349337301 -190.51183279691108 10
vertex 69.59561475842818 -189.20904028665137 10
vertex 69.74294919243107 -189.52499999999995 10
endloop
endfacet
facet normal 0 0 1
outer loop
vertex 108.4562349337301 -190.51183279691108 10
vertex 69.74294919243107 -189.52499999999995 10
vertex 69.9429111137621 -189.81057521937316 10
endloop
endfacet
facet normal 0 0 1
outer loop
vertex 108.4562349337301 -190.51183279691108 10
vertex 69.9429111137621 -189.81057521937316 10
vertex 70.1894247806268 -190.05708888623786 10
endloop
endfacet
facet normal 0 0 1
outer loop
vertex 108.4562349337301 -190.51183279691108 10
vertex 70.1894247806268 -190.05708888623786 10
vertex 70.47499999999997 -190.25705080756885 10
endloop
endfacet
facet normal 0 0 1
outer loop
vertex 108.4562349337301 -190.51183279691108 10
vertex 70.47499999999997 -190.25705080756885 10
vertex 70.79095971334878 -190.40438524157187 10
endloop
endfacet
facet normal 0 0 1
outer loop
vertex 108.4562349337301 -190.51183279691108 10
vertex 70.79095971334878 -190.40438524157187 10
vertex 71.12770364466596 -190.4946155060244 10
endloop
endfacet
facet normal 0 0 1
outer loop
vertex 108.4562349337301 -190.51183279691108 10
vertex 71.12770364466596 -190.4946155060244 10
vertex 71.4749999999998 -190.52499999999998 10
endloop
endfacet
facet normal 0 0 1
outer loop
vertex 108.4562349337301 -190.51183279691108 10
vertex 71.4749999999998 -190.52499999999998 10
vertex 108.22710505000062 -190.52500189999998 10
endloop
endfacet
facet normal 0 0 1
outer loop
vertex 201.18398936162808 -176.97327809999993 10
vertex 201.21987312072451 -176.88434979340963 10
vertex 147.57388304767812 -176.88434979340963 10
endloop
endfacet
facet normal 0 0 1
outer loop
vertex 201.18398936162808 -176.97327809999993 10
vertex 147.57388304767812 -176.88434979340963 10
vertex 147.85086169999983 -176.97327809999993 10
endloop
endfacet
facet normal 0 0 1
outer loop
vertex 146.4272608499999 -176.94551405000004 10
vertex 146.7074947966288 -176.86745534423204 10
vertex 69.475 -176.86745534423204 10
endloop
endfacet
facet normal 0 0 1
outer loop
vertex 146.4272608499999 -176.94551405000004 10
vertex 69.475 -176.86745534423204 10
vertex 69.475 -176.94551405000004 10
endloop
endfacet
facet normal 0 0 1
outer loop
vertex 201.21987312072451 -176.88434979340963 10
vertex 201.2391624852389 -176.83654625875604 10
vertex 147.28693523279907 -176.83654625875604 10
endloop
endfacet
facet normal 0 0 1
outer loop
vertex 201.21987312072451 -176.88434979340963 10
vertex 147.28693523279907 -176.83654625875604 10
vertex 147.57388304767812 -176.88434979340963 10
endloop
endfacet
facet normal 0 0 1
outer loop
vertex 146.7074947966288 -176.86745534423204 10
vertex 146.99608808957436 -176.83087478032397 10
vertex 69.475 -176.83087478032397 10
endloop
endfacet
facet normal 0 0 1
outer loop
vertex 146.7074947966288 -176.86745534423204 10
vertex 69.475 -176.83087478032397 10
vertex 69.475 -176.86745534423204 10
endloop
endfacet
facet normal 0 0 1
outer loop
vertex 201.2391624852389 -176.83654625875604 10
vertex 201.24145100251286 -176.83087478032397 10
vertex 146.99608808957436 -176.83087478032397 10
endloop
endfacet
facet normal 0 0 1
outer loop
vertex 201.2391624852389 -176.83654625875604 10
vertex 146.99608808957436 -176.83087478032397 10
vertex 147.28693523279907 -176.83654625875604 10
endloop
endfacet
facet normal 0 0 1
outer loop
vertex 146.99608808957436 -176.83087478032397 10
vertex 201.24145100251286 -176.83087478032397 10
vertex 204.67970000000003 -168.31009354999983 10
endloop
endfacet
facet normal 0 0 1
outer loop
vertex 146.99608808957436 -176.83087478032397 10
vertex 204.67970000000003 -168.31009354999983 10
vertex 204.7599809910808 -168.0675180904487 10
endloop
endfacet
facet normal 0 0 1
outer loop
vertex 146.99608808957436 -176.83087478032397 10
vertex 204.7599809910808 -168.0675180904487 10
vertex 204.80867927510286 -167.81668673627036 10
endloop
endfacet
facet normal 0 0 1
outer loop
vertex 146.99608808957436 -176.83087478032397 10
vertex 204.80867927510286 -167.81668673627036 10
vertex 204.82499999999996 -167.5616971000003 10
endloop
endfacet
facet normal 0 0 1
outer loop
vertex 146.99608808957436 -176.83087478032397 10
vertex 204.82499999999996 -167.5616971000003 10
vertex 204.8249986 -94.55077299999968 10
endloop
endfacet
facet normal 0 0 1
outer loop
vertex 146.99608808957436 -176.83087478032397 10
vertex 204.8249986 -94.55077299999968 10
vertex 204.79873836781144 -94.22773016053456 10
endloop
endfacet
facet normal 0 0 1
outer loop
vertex 146.99608808957436 -176.83087478032397 10
vertex 204.79873836781144 -94.22773016053456 10
vertex 204.72064463256024 -93.91317071553435 10
endloop
endfacet
facet normal 0 0 1
outer loop
vertex 146.99608808957436 -176.83087478032397 10
vertex 204.72064463256024 -93.91317071553435 10
vertex 204.59276825826134 -93.61535548956196 10
endloop
endfacet
facet normal 0 0 1
outer loop
vertex 146.99608808957436 -176.83087478032397 10
vertex 204.59276825826134 -93.61535548956196 10
vertex 204.4184674791402 -93.34210557771945 10
endloop
endfacet
facet normal 0 0 1
outer loop
vertex 146.99608808957436 -176.83087478032397 10
vertex 204.4184674791402 -93.34210557771945 10
vertex 204.20231970713021 -93.10059695141427 10
endloop
endfacet
facet normal 0 0 1
outer loop
vertex 146.99608808957436 -176.83087478032397 10
vertex 204.20231970713021 -93.10059695141427 10
vertex 203.9500013218569 -92.89717200609658 10
endloop
endfacet
facet normal 0 0 1
outer loop
vertex 146.99608808957436 -176.83087478032397 10
vertex 203.9500013218569 -92.89717200609658 10
vertex 203.66813720000005 -92.73717600000003 10
endloop
endfacet
facet normal 0 0 1
outer loop
vertex 146.99608808957436 -176.83087478032397 10
vertex 203.66813720000005 -92.73717600000003 10
vertex 174.4934626500002 -79.17391500000008 10
endloop
endfacet
facet normal 0 0 1
outer loop
vertex 146.99608808957436 -176.83087478032397 10
vertex 174.4934626500002 -79.17391500000008 10
vertex 174.29155942149814 -79.09308663274241 10
endloop
endfacet
facet normal 0 0 1
outer loop
vertex 146.99608808957436 -176.83087478032397 10
vertex 174.29155942149814 -79.09308663274241 10
vertex 174.08207356838167 -79.03465876287858 10
endloop
endfacet
facet normal 0 0 1
outer loop
vertex 146.99608808957436 -176.83087478032397 10
vertex 174.08207356838167 -79.03465876287858 10
vertex 173.8674821633802 -78.99932227278046 10
endloop
endfacet
facet normal 0 0 1
outer loop
vertex 146.99608808957436 -176.83087478032397 10
vertex 173.8674821633802 -78.99932227278046 10
vertex 173.65032529999974 -78.9875 10
endloop
endfacet
facet normal 0 0 1
outer loop
vertex 146.99608808957436 -176.83087478032397 10
vertex 173.65032529999974 -78.9875 10
vertex 105.95637989999999 -78.98750499999998 10
endloop
endfacet
facet normal 0 0 1
outer loop
vertex 146.99608808957436 -176.83087478032397 10
vertex 105.95637989999999 -78.98750499999998 10
vertex 105.7058023964419 -79.00326167409914 10
endloop
endfacet
facet normal 0 0 1
outer loop
vertex 146.99608808957436 -176.83087478032397 10
vertex 105.7058023964419 -79.00326167409914 10
vertex 105.45917349356998 -79.05028871245382 10
endloop
endfacet
facet normal 0 0 1
outer loop
vertex 146.99608808957436 -176.83087478032397 10
vertex 105.45917349356998 -79.05028871245382 10
vertex 105.22037980000039 -79.12784999999985 10
endloop
endfacet
facet normal 0 0 1
outer loop
vertex 146.99608808957436 -176.83087478032397 10
vertex 105.22037980000039 -79.12784999999985 10
vertex 70.73899999999982 -92.77473560000007 10
endloop
endfacet
facet normal 0 0 1
outer loop
vertex 146.99608808957436 -176.83087478032397 10
vertex 70.73899999999982 -92.77473560000007 10
vertex 70.47067073958198 -92.90484309679591 10
endloop
endfacet
facet normal 0 0 1
outer loop
vertex 146.99608808957436 -176.83087478032397 10
vertex 70.47067073958198 -92.90484309679591 10
vertex 70.22466986605892 -93.07340205664393 10
endloop
endfacet
facet normal 0 0 1
outer loop
vertex 146.99608808957436 -176.83087478032397 10
vertex 70.22466986605892 -93.07340205664393 10
vertex 70.00646650484364 -93.27666505345707 10
endloop
endfacet
facet normal 0 0 1
outer loop
vertex 146.99608808957436 -176.83087478032397 10
vertex 70.00646650484364 -93.27666505345707 10
vertex 69.82091178321413 -93.51011311620314 10
endloop
endfacet
facet normal 0 0 1
outer loop
vertex 146.99608808957436 -176.83087478032397 10
vertex 69.82091178321413 -93.51011311620314 10
vertex 69.67213097938098 -93.76855619529411 10
endloop
endfacet
facet normal 0 0 1
outer loop
vertex 146.99608808957436 -176.83087478032397 10
vertex 69.67213097938098 -93.76855619529411 10
vertex 69.56343180873411 -94.04624854848302 10
endloop
endfacet
facet normal 0 0 1
outer loop
vertex 146.99608808957436 -176.83087478032397 10
vertex 69.56343180873411 -94.04624854848302 10
vertex 69.49723088625504 -94.33701648100302 10
endloop
endfacet
facet normal 0 0 1
outer loop
vertex 146.99608808957436 -176.83087478032397 10
vertex 69.49723088625504 -94.33701648100302 10
vertex 69.475 -94.63439120000011 10
endloop
endfacet
facet normal 0 0 1
outer loop
vertex 146.99608808957436 -176.83087478032397 10
vertex 69.475 -94.63439120000011 10
vertex 69.475 -176.83087478032397 10
endloop
endfacet
facet normal -0.9961946980917447 -0.08715574274766881 0
outer loop
vertex 69.5053844939756 -188.87229635533393 10
vertex 69.475 -188.5249999999999 10
vertex 69.475 -188.5249999999999 0
endloop
endfacet
facet normal -0.9961946980917447 -0.08715574274766881 0
outer loop
vertex 69.5053844939756 -188.87229635533393 10
vertex 69.475 -188.5249999999999 0
vertex 69.5053844939756 -188.87229635533393 0
endloop
endfacet
facet normal -0.965925826289063 -0.25881904510254106 0
outer loop
vertex 69.59561475842818 -189.20904028665137 10
vertex 69.5053844939756 -188.87229635533393 10
vertex 69.5053844939756 -188.87229635533393 0
endloop
endfacet
facet normal -0.965925826289063 -0.25881904510254106 0
outer loop
vertex 69.59561475842818 -189.20904028665137 10
vertex 69.5053844939756 -188.87229635533393 0
vertex 69.59561475842818 -189.20904028665137 0
endloop
endfacet
facet normal -0.9063077870366548 -0.4226182617406892 0
outer loop
vertex 69.74294919243107 -189.52499999999995 10
vertex 69.59561475842818 -189.20904028665137 10
vertex 69.59561475842818 -189.20904028665137 0
endloop
endfacet
facet normal -0.9063077870366548 -0.4226182617406892 0
outer loop
vertex 69.74294919243107 -189.52499999999995 10
vertex 69.59561475842818 -189.20904028665137 0
vertex 69.74294919243106 -189.5249999999999 0
endloop
endfacet
facet normal -0.819152044288981 -0.5735764363510616 0
outer loop
vertex 69.9429111137621 -189.81057521937316 10
vertex 69.74294919243107 -189.52499999999995 10
vertex 69.74294919243106 -189.5249999999999 0
endloop
endfacet
facet normal -0.819152044288981 -0.5735764363510616 0
outer loop
vertex 69.9429111137621 -189.81057521937316 10
vertex 69.74294919243106 -189.5249999999999 0
vertex 69.94291111376215 -189.8105752193732 0
endloop
endfacet
facet normal -0.7071067811865333 -0.7071067811865617 0
outer loop
vertex 70.1894247806268 -190.05708888623786 10
vertex 69.9429111137621 -189.81057521937316 10
vertex 69.94291111376215 -189.8105752193732 0
endloop
endfacet
facet normal -0.7071067811865333 -0.7071067811865617 0
outer loop
vertex 70.1894247806268 -190.05708888623786 10
vertex 69.94291111376215 -189.8105752193732 0
vertex 70.18942478062691 -190.05708888623795 0
endloop
endfacet
facet normal -0.5735764363510504 -0.8191520442889888 0
outer loop
vertex 70.47499999999997 -190.25705080756885 10
vertex 70.1894247806268 -190.05708888623786 10
vertex 70.18942478062691 -190.05708888623795 0
endloop
endfacet
facet normal -0.5735764363510504 -0.8191520442889888 0
outer loop
vertex 70.47499999999997 -190.25705080756885 10
vertex 70.18942478062691 -190.05708888623795 0
vertex 70.47499999999995 -190.25705080756885 0
endloop
endfacet
facet normal -0.42261826174069467 -0.9063077870366523 0
outer loop
vertex 70.79095971334878 -190.40438524157187 10
vertex 70.47499999999997 -190.25705080756885 10
vertex 70.47499999999995 -190.25705080756885 0
endloop
endfacet
facet normal -0.42261826174069467 -0.9063077870366523 0
outer loop
vertex 70.79095971334878 -190.40438524157187 10
vertex 70.47499999999995 -190.25705080756885 0
vertex 70.79095971334874 -190.40438524157184 0
endloop
endfacet
facet normal -0.2588190451025404 -0.9659258262890631 0
outer loop
vertex 71.12770364466596 -190.4946155060244 10
vertex 70.79095971334878 -190.40438524157187 10
vertex 70.79095971334874 -190.40438524157184 0
endloop
endfacet
facet normal -0.2588190451025404 -0.9659258262890631 0
outer loop
vertex 71.12770364466596 -190.4946155060244 10
vertex 70.79095971334874 -190.40438524157184 0
vertex 71.12770364466606 -190.49461550602442 0
endloop
endfacet
facet normal -0.087155742747683 -0.9961946980917434 0
outer loop
vertex 71.4749999999998 -190.52499999999998 10
vertex 71.12770364466596 -190.4946155060244 10
vertex 71.12770364466606 -190.49461550602442 0
endloop
endfacet
facet normal -0.087155742747683 -0.9961946980917434 0
outer loop
vertex 71.4749999999998 -190.52499999999998 10
vertex 71.12770364466606 -190.49461550602442 0
vertex 71.47499999999971 -190.52499999999998 0
endloop
endfacet
facet normal -5.169772521185223e-8 -0.9999999999999987 0
outer loop
vertex 108.22710505000062 -190.52500189999998 10
vertex 71.4749999999998 -190.52499999999998 10
vertex 71.47499999999971 -190.52499999999998 0
endloop
endfacet
facet normal -5.169772521185223e-8 -0.9999999999999987 0
outer loop
vertex 108.22710505000062 -190.52500189999998 10
vertex 71.47499999999971 -190.52499999999998 0
vertex 108.2271050500008 -190.52500189999998 0
endloop
endfacet
facet normal 0.05737970892127466 -0.9983524272540784 0
outer loop
vertex 108.4562349337301 -190.51183279691108 10
vertex 108.22710505000062 -190.52500189999998 10
vertex 108.2271050500008 -190.52500189999998 0
endloop
endfacet
facet normal 0.05737970892127466 -0.9983524272540784 0
outer loop
vertex 108.4562349337301 -190.51183279691108 10
vertex 108.2271050500008 -190.52500189999998 0
vertex 108.45623493373003 -190.51183279691108 0
endloop
endfacet
facet normal 0.17137811268398215 -0.9852053301179792 0
outer loop
vertex 108.68234745329445 -190.47250014647514 10
vertex 108.4562349337301 -190.51183279691108 10
vertex 108.45623493373003 -190.51183279691108 0
endloop
endfacet
facet normal 0.17137811268398215 -0.9852053301179792 0
outer loop
vertex 108.68234745329445 -190.47250014647514 10
vertex 108.45623493373003 -190.51183279691108 0
vertex 108.68234745329464 -190.47250014647508 0
endloop
endfacet
facet normal 0.28311796823066915 -0.9590850932346607 0
outer loop
vertex 108.90246009999991 -190.40752380000004 10
vertex 108.68234745329445 -190.47250014647514 10
vertex 108.68234745329464 -190.47250014647508 0
endloop
endfacet
facet normal 0.28311796823066915 -0.9590850932346607 0
outer loop
vertex 108.90246009999991 -190.40752380000004 10
vertex 108.68234745329464 -190.47250014647508 0
vertex 108.90246009999987 -190.40752380000004 0
endloop
endfacet
facet normal 0.3376773949868264 -0.9412619066523997 0
outer loop
vertex 146.4272608499999 -176.94551405000004 10
vertex 108.90246009999991 -190.40752380000004 10
vertex 108.90246009999987 -190.40752380000004 0
endloop
endfacet
facet normal 0.3376773949868264 -0.9412619066523997 0
outer loop
vertex 146.4272608499999 -176.94551405000004 10
vertex 108.90246009999987 -190.40752380000004 0
vertex 146.42726084999998 -176.94551404999999 0
endloop
endfacet
facet normal 0.2683329409261995 -0.9633262338449508 0
outer loop
vertex 146.7074947966288 -176.86745534423204 10
vertex 146.4272608499999 -176.94551405000004 10
vertex 146.42726084999998 -176.94551404999999 0
endloop
endfacet
facet normal 0.2683329409261995 -0.9633262338449508 0
outer loop
vertex 146.7074947966288 -176.86745534423204 10
vertex 146.42726084999998 -176.94551404999999 0
vertex 146.7074947966285 -176.8674553442321 0
endloop
endfacet
facet normal 0.12574856574474347 -0.9920621443302532 0
outer loop
vertex 146.99608808957436 -176.83087478032397 10
vertex 146.7074947966288 -176.86745534423204 10
vertex 146.7074947966285 -176.8674553442321 0
endloop
endfacet
facet normal 0.12574856574474347 -0.9920621443302532 0
outer loop
vertex 146.99608808957436 -176.83087478032397 10
vertex 146.7074947966285 -176.8674553442321 0
vertex 146.9960880895748 -176.83087478032394 0
endloop
endfacet
facet normal -0.019496153210667434 -0.9998099319420599 0
outer loop
vertex 147.28693523279907 -176.83654625875604 10
vertex 146.99608808957436 -176.83087478032397 10
vertex 146.9960880895748 -176.83087478032394 0
endloop
endfacet
facet normal -0.019496153210667434 -0.9998099319420599 0
outer loop
vertex 147.28693523279907 -176.83654625875604 10
vertex 146.9960880895748 -176.83087478032394 0
vertex 147.28693523279904 -176.83654625875602 0
endloop
endfacet
facet normal -0.16432841044530747 -0.9864056840471463 0
outer loop
vertex 147.57388304767812 -176.88434979340963 10
vertex 147.28693523279907 -176.83654625875604 10
vertex 147.28693523279904 -176.83654625875602 0
endloop
endfacet
facet normal -0.16432841044530747 -0.9864056840471463 0
outer loop
vertex 147.57388304767812 -176.88434979340963 10
vertex 147.28693523279904 -176.83654625875602 0
vertex 147.57388304767795 -176.88434979340957 0
endloop
endfacet
facet normal -0.305695897249962 -0.9521292025794297 0
outer loop
vertex 147.85086169999983 -176.97327809999993 10
vertex 147.57388304767812 -176.88434979340963 10
vertex 147.57388304767795 -176.88434979340957 0
endloop
endfacet
facet normal -0.305695897249962 -0.9521292025794297 0
outer loop
vertex 147.85086169999983 -176.97327809999993 10
vertex 147.57388304767795 -176.88434979340957 0
vertex 147.85086169999985 -176.97327809999993 0
endloop
endfacet
facet normal -0.3741218321729618 -0.9273795634429013 0
outer loop
vertex 191.86298149999996 -194.72857004999997 10
vertex 147.85086169999983 -176.97327809999993 10
vertex 147.85086169999985 -176.97327809999993 0
endloop
endfacet
facet normal -0.3741218321729618 -0.9273795634429013 0
outer loop
vertex 191.86298149999996 -194.72857004999997 10
vertex 147.85086169999985 -176.97327809999993 0
vertex 191.86298150000007 -194.72857005000003 0
endloop
endfacet
facet normal -0.29187615737799893 -0.9564561196177552 0
outer loop
vertex 192.19640631706534 -194.83031936435265 10
vertex 191.86298149999996 -194.72857004999997 10
vertex 191.86298150000007 -194.72857005000003 0
endloop
endfacet
facet normal -0.29187615737799893 -0.9564561196177552 0
outer loop
vertex 192.19640631706534 -194.83031936435265 10
vertex 191.86298150000007 -194.72857005000003 0
vertex 192.19640631706517 -194.8303193643526 0
endloop
endfacet
facet normal -0.1213642897911881 -0.9926080340010757 0
outer loop
vertex 192.54243385075546 -194.87262749045678 10
vertex 192.19640631706534 -194.83031936435265 10
vertex 192.19640631706517 -194.8303193643526 0
endloop
endfacet
facet normal -0.1213642897911881 -0.9926080340010757 0
outer loop
vertex 192.54243385075546 -194.87262749045678 10
vertex 192.19640631706517 -194.8303193643526 0
vertex 192.54243385075554 -194.87262749045675 0
endloop
endfacet
facet normal 0.05283477758399611 -0.9986032677082775 0
outer loop
vertex 192.89055134932875 -194.8542090542219 10
vertex 192.54243385075546 -194.87262749045678 10
vertex 192.54243385075554 -194.87262749045675 0
endloop
endfacet
facet normal 0.05283477758399611 -0.9986032677082775 0
outer loop
vertex 192.89055134932875 -194.8542090542219 10
vertex 192.54243385075554 -194.87262749045675 0
vertex 192.89055134932877 -194.85420905422188 0
endloop
endfacet
facet normal 0.2254286579550916 -0.9742596779978973 0
outer loop
vertex 193.2301825652806 -194.7756236309095 10
vertex 192.89055134932875 -194.8542090542219 10
vertex 192.89055134932877 -194.85420905422188 0
endloop
endfacet
facet normal 0.2254286579550916 -0.9742596779978973 0
outer loop
vertex 193.2301825652806 -194.7756236309095 10
vertex 192.89055134932877 -194.85420905422188 0
vertex 193.23018256528064 -194.77562363090948 0
endloop
endfacet
facet normal 0.3911737321304533 -0.9203168537471932 0
outer loop
vertex 193.55100907504857 -194.63925874453224 10
vertex 193.2301825652806 -194.7756236309095 10
vertex 193.23018256528064 -194.77562363090948 0
endloop
endfacet
facet normal 0.3911737321304533 -0.9203168537471932 0
outer loop
vertex 193.55100907504857 -194.63925874453224 10
vertex 193.23018256528064 -194.77562363090948 0
vertex 193.55100907504837 -194.6392587445323 0
endloop
endfacet
facet normal 0.5450344562657362 -0.8384136458116085 0
outer loop
vertex 193.84328376569593 -194.4492573318727 10
vertex 193.55100907504857 -194.63925874453224 10
vertex 193.55100907504837 -194.6392587445323 0
endloop
endfacet
facet normal 0.5450344562657362 -0.8384136458116085 0
outer loop
vertex 193.84328376569593 -194.4492573318727 10
vertex 193.55100907504837 -194.6392587445323 0
vertex 193.84328376569644 -194.4492573318723 0
endloop
endfacet
facet normal 0.6823363480198983 -0.7310383766744865 0
outer loop
vertex 194.09812696447057 -194.21139187484894 10
vertex 193.84328376569593 -194.4492573318727 10
vertex 193.84328376569644 -194.4492573318723 0
endloop
endfacet
facet normal 0.6823363480198983 -0.7310383766744865 0
outer loop
vertex 194.09812696447057 -194.21139187484894 10
vertex 193.84328376569644 -194.4492573318723 0
vertex 194.0981269644703 -194.21139187484923 0
endloop
endfacet
facet normal 0.7989080032093017 -0.6014532420796539 0
outer loop
vertex 194.30779621442383 -193.93288902525856 10
vertex 194.09812696447057 -194.21139187484894 10
vertex 194.0981269644703 -194.21139187484923 0
endloop
endfacet
facet normal 0.7989080032093017 -0.6014532420796539 0
outer loop
vertex 194.30779621442383 -193.93288902525856 10
vertex 194.0981269644703 -194.21139187484923 0
vertex 194.30779621442372 -193.93288902525865 0
endloop
endfacet
facet normal 0.8912060593742108 -0.45359867695429923 0
outer loop
vertex 194.46592299999986 -193.62221010000033 10
vertex 194.30779621442383 -193.93288902525856 10
vertex 194.30779621442372 -193.93288902525865 0
endloop
endfacet
facet normal 0.8912060593742108 -0.45359867695429923 0
outer loop
vertex 194.46592299999986 -193.62221010000033 10
vertex 194.30779621442372 -193.93288902525865 0
vertex 194.465923 -193.62221009999993 0
endloop
endfacet
facet normal 0 0 1
outer loop
vertex 204.67970000000003 -168.31009354999983 10
vertex 201.24145100251286 -176.83087478032397 10
vertex 201.2391624852389 -176.83654625875604 10
endloop
endfacet
facet normal 0 0 1
outer loop
vertex 204.67970000000003 -168.31009354999983 10
vertex 201.2391624852389 -176.83654625875604 10
vertex 201.21987312072451 -176.88434979340963 10
endloop
endfacet
facet normal 0 0 1
outer loop
vertex 204.67970000000003 -168.31009354999983 10
vertex 201.21987312072451 -176.88434979340963 10
vertex 201.18398936162808 -176.97327809999993 10
endloop
endfacet
facet normal 0 0 1
outer loop
vertex 204.67970000000003 -168.31009354999983 10
vertex 201.18398936162808 -176.97327809999993 10
vertex 194.46592299999986 -193.62221010000033 10
endloop
endfacet
facet normal 0 0 1
outer loop
vertex 204.67970000000003 -168.31009354999983 10
vertex 194.46592299999986 -193.62221010000033 10
vertex 194.465923 -193.62221009999993 0
endloop
endfacet
facet normal 0 0 1
outer loop
vertex 204.67970000000003 -168.31009354999983 10
vertex 194.465923 -193.62221009999993 0
vertex 201.18398936162805 -176.97327809999993 0
endloop
endfacet
facet normal 0 0 1
outer loop
vertex 204.67970000000003 -168.31009354999983 10
vertex 201.18398936162805 -176.97327809999993 0
vertex 201.21987312072451 -176.88434979340957 0
endloop
endfacet
facet normal 0 0 1
outer loop
vertex 204.67970000000003 -168.31009354999983 10
vertex 201.21987312072451 -176.88434979340957 0
vertex 201.2391624852389 -176.83654625875602 0
endloop
endfacet
facet normal 0 0 1
outer loop
vertex 204.67970000000003 -168.31009354999983 10
vertex 201.2391624852389 -176.83654625875602 0
vertex 201.24145100251286 -176.83087478032394 0
endloop
endfacet
facet normal 0 0 1
outer loop
vertex 204.67970000000003 -168.31009354999983 10
vertex 201.24145100251286 -176.83087478032394 0
vertex 204.6797 -168.31009354999986 0
endloop
endfacet
facet normal 0.9493591544883574 -0.31419292765616363 0
outer loop
vertex 204.7599809910808 -168.0675180904487 10
vertex 204.67970000000003 -168.31009354999983 10
vertex 204.6797 -168.31009354999986 0
endloop
endfacet
facet normal 0.9493591544883574 -0.31419292765616363 0
outer loop
vertex 204.7599809910808 -168.0675180904487 10
vertex 204.6797 -168.31009354999986 0
vertex 204.75998099108082 -168.06751809044852 0
endloop
endfacet
facet normal 0.9816699626666332 -0.19058878350546077 0
outer loop
vertex 204.80867927510286 -167.81668673627036 10
vertex 204.7599809910808 -168.0675180904487 10
vertex 204.75998099108082 -168.06751809044852 0
endloop
endfacet
facet normal 0.9816699626666332 -0.19058878350546077 0
outer loop
vertex 204.80867927510286 -167.81668673627036 10
vertex 204.75998099108082 -168.06751809044852 0
vertex 204.80867927510283 -167.81668673627047 0
endloop
endfacet
facet normal 0.9979579237540075 -0.06387474005106239 0
outer loop
vertex 204.82499999999996 -167.5616971000003 10
vertex 204.80867927510286 -167.81668673627036 10
vertex 204.80867927510283 -167.81668673627047 0
endloop
endfacet
facet normal 0.9979579237540075 -0.06387474005106239 0
outer loop
vertex 204.82499999999996 -167.5616971000003 10
vertex 204.80867927510283 -167.81668673627047 0
vertex 204.825 -167.56169709999975 0
endloop
endfacet
facet normal 0.9999999999999999 1.917521785799181e-8 0
outer loop
vertex 204.8249986 -94.55077299999968 10
vertex 204.82499999999996 -167.5616971000003 10
vertex 204.825 -167.56169709999975 0
endloop
endfacet
facet normal 0.9999999999999999 1.917521785799181e-8 0
outer loop
vertex 204.8249986 -94.55077299999968 10
vertex 204.825 -167.56169709999975 0
vertex 204.82499860000001 -94.55077299999999 0
endloop
endfacet
facet normal 0.996712233362257 0.08102298356652687 0
outer loop
vertex 204.79873836781144 -94.22773016053456 10
vertex 204.8249986 -94.55077299999968 10
vertex 204.82499860000001 -94.55077299999999 0
endloop
endfacet
facet normal 0.996712233362257 0.08102298356652687 0
outer loop
vertex 204.79873836781144 -94.22773016053456 10
vertex 204.82499860000001 -94.55077299999999 0
vertex 204.79873836781144 -94.22773016053449 0
endloop
endfacet
facet normal 0.9705376768926748 0.24094940907121992 0
outer loop
vertex 204.72064463256024 -93.91317071553435 10
vertex 204.79873836781144 -94.22773016053456 10
vertex 204.79873836781144 -94.22773016053449 0
endloop
endfacet
facet normal 0.9705376768926748 0.24094940907121992 0
outer loop
vertex 204.72064463256024 -93.91317071553435 10
vertex 204.79873836781144 -94.22773016053449 0
vertex 204.72064463256024 -93.91317071553425 0
endloop
endfacet
facet normal 0.9188752782725732 0.39454812504877185 0
outer loop
vertex 204.59276825826134 -93.61535548956196 10
vertex 204.72064463256024 -93.91317071553435 10
vertex 204.72064463256024 -93.91317071553425 0
endloop
endfacet
facet normal 0.9188752782725732 0.39454812504877185 0
outer loop
vertex 204.59276825826134 -93.61535548956196 10
vertex 204.72064463256024 -93.91317071553425 0
vertex 204.5927682582615 -93.6153554895622 0
endloop
endfacet
facet normal 0.8430817731470849 0.537785388223934 0
outer loop
vertex 204.4184674791402 -93.34210557771945 10
vertex 204.59276825826134 -93.61535548956196 10
vertex 204.5927682582615 -93.6153554895622 0
endloop
endfacet
facet normal 0.8430817731470849 0.537785388223934 0
outer loop
vertex 204.4184674791402 -93.34210557771945 10
vertex 204.5927682582615 -93.6153554895622 0
vertex 204.41846747914008 -93.34210557771928 0
endloop
endfacet
facet normal 0.7451476178793627 0.6668995633292253 0
outer loop
vertex 204.20231970713021 -93.10059695141427 10
vertex 204.4184674791402 -93.34210557771945 10
vertex 204.41846747914008 -93.34210557771928 0
endloop
endfacet
facet normal 0.7451476178793627 0.6668995633292253 0
outer loop
vertex 204.20231970713021 -93.10059695141427 10
vertex 204.41846747914008 -93.34210557771928 0
vertex 204.2023197071303 -93.10059695141432 0
endloop
endfacet
facet normal 0.6276447170435389 0.7784999095487012 0
outer loop
vertex 203.9500013218569 -92.89717200609658 10
vertex 204.20231970713021 -93.10059695141427 10
vertex 204.2023197071303 -93.10059695141432 0
endloop
endfacet
facet normal 0.6276447170435389 0.7784999095487012 0
outer loop
vertex 203.9500013218569 -92.89717200609658 10
vertex 204.2023197071303 -93.10059695141432 0
vertex 203.950001321857 -92.89717200609664 0
endloop
endfacet
facet normal 0.493650026262845 0.8696606531117138 0
outer loop
vertex 203.66813720000005 -92.73717600000003 10
vertex 203.9500013218569 -92.89717200609658 10
vertex 203.950001321857 -92.89717200609664 0
endloop
endfacet
facet normal 0.493650026262845 0.8696606531117138 0
outer loop
vertex 203.66813720000005 -92.73717600000003 10
vertex 203.950001321857 -92.89717200609664 0
vertex 203.6681372 -92.73717599999999 0
endloop
endfacet
facet normal 0.4215683483247612 0.906796629730577 0
outer loop
vertex 174.4934626500002 -79.17391500000008 10
vertex 203.66813720000005 -92.73717600000003 10
vertex 203.6681372 -92.73717599999999 0
endloop
endfacet
facet normal 0.4215683483247612 0.906796629730577 0
outer loop
vertex 174.4934626500002 -79.17391500000008 10
vertex 203.6681372 -92.73717599999999 0
vertex 174.49346265000005 -79.17391500000002 0
endloop
endfacet
facet normal 0.37165654146005506 0.9283703006828419 0
outer loop
vertex 174.29155942149814 -79.09308663274241 10
vertex 174.4934626500002 -79.17391500000008 10
vertex 174.49346265000005 -79.17391500000002 0
endloop
endfacet
facet normal 0.37165654146005506 0.9283703006828419 0
outer loop
vertex 174.29155942149814 -79.09308663274241 10
vertex 174.49346265000005 -79.17391500000002 0
vertex 174.2915594214982 -79.09308663274244 0
endloop
endfacet
facet normal 0.26865691805116754 0.9632359318377031 0
outer loop
vertex 174.08207356838167 -79.03465876287858 10
vertex 174.29155942149814 -79.09308663274241 10
vertex 174.2915594214982 -79.09308663274244 0
endloop
endfacet
facet normal 0.26865691805116754 0.9632359318377031 0
outer loop
vertex 174.08207356838167 -79.03465876287858 10
vertex 174.2915594214982 -79.09308663274244 0
vertex 174.08207356838162 -79.03465876287858 0
endloop
endfacet
facet normal 0.1624805516033518 0.9867117463325703 0
outer loop
vertex 173.8674821633802 -78.99932227278046 10
vertex 174.08207356838167 -79.03465876287858 10
vertex 174.08207356838162 -79.03465876287858 0
endloop
endfacet
facet normal 0.1624805516033518 0.9867117463325703 0
outer loop
vertex 173.8674821633802 -78.99932227278046 10
vertex 174.08207356838162 -79.03465876287858 0
vertex 173.86748216337995 -78.99932227278043 0
endloop
endfacet
facet normal 0.05436066712017862 0.9985213657555101 0
outer loop
vertex 173.65032529999974 -78.9875 10
vertex 173.8674821633802 -78.99932227278046 10
vertex 173.86748216337995 -78.99932227278043 0
endloop
endfacet
facet normal 0.05436066712017862 0.9985213657555101 0
outer loop
vertex 173.65032529999974 -78.9875 10
vertex 173.86748216337995 -78.99932227278043 0
vertex 173.65032530000008 -78.9875 0
endloop
endfacet
facet normal -7.38618552986736e-8 0.9999999999999972 0
outer loop
vertex 105.95637989999999 -78.98750499999998 10
vertex 173.65032529999974 -78.9875 10
vertex 173.65032530000008 -78.9875 0
endloop
endfacet
facet normal -7.38618552986736e-8 0.9999999999999972 0
outer loop
vertex 105.95637989999999 -78.98750499999998 10
vertex 173.65032530000008 -78.9875 0
vertex 105.95637989999999 -78.98750499999998 0
endloop
endfacet
facet normal -0.06275748786417522 0.9980288060557061 0
outer loop
vertex 105.7058023964419 -79.00326167409914 10
vertex 105.95637989999999 -78.98750499999998 10
vertex 105.95637989999999 -78.98750499999998 0
endloop
endfacet
facet normal -0.06275748786417522 0.9980288060557061 0
outer loop
vertex 105.7058023964419 -79.00326167409914 10
vertex 105.95637989999999 -78.98750499999998 0
vertex 105.7058023964419 -79.00326167409914 0
endloop
endfacet
facet normal -0.1873046792906621 0.9823018665948988 0
outer loop
vertex 105.45917349356998 -79.05028871245382 10
vertex 105.7058023964419 -79.00326167409914 10
vertex 105.7058023964419 -79.00326167409914 0
endloop
endfacet
facet normal -0.1873046792906621 0.9823018665948988 0
outer loop
vertex 105.45917349356998 -79.05028871245382 10
vertex 105.7058023964419 -79.00326167409914 0
vertex 105.45917349357012 -79.05028871245379 0
endloop
endfacet
facet normal -0.30891796983564734 0.9510886856190762 0
outer loop
vertex 105.22037980000039 -79.12784999999985 10
vertex 105.45917349356998 -79.05028871245382 10
vertex 105.45917349357012 -79.05028871245379 0
endloop
endfacet
facet normal -0.30891796983564734 0.9510886856190762 0
outer loop
vertex 105.22037980000039 -79.12784999999985 10
vertex 105.45917349357012 -79.05028871245379 0
vertex 105.22037980000032 -79.1278499999999 0
endloop
endfacet
facet normal -0.3680019662650822 0.929825011937748 0
outer loop
vertex 70.73899999999982 -92.77473560000007 10
vertex 105.22037980000039 -79.12784999999985 10
vertex 105.22037980000032 -79.1278499999999 0
endloop
endfacet
facet normal -0.3680019662650822 0.929825011937748 0
outer loop
vertex 70.73899999999982 -92.77473560000007 10
vertex 105.22037980000032 -79.1278499999999 0
vertex 70.73899999999978 -92.7747356000001 0
endloop
endfacet
facet normal -0.43629647999284704 0.899802968180174 0
outer loop
vertex 70.47067073958198 -92.90484309679591 10
vertex 70.73899999999982 -92.77473560000007 10
vertex 70.73899999999978 -92.7747356000001 0
endloop
endfacet
facet normal -0.43629647999284704 0.899802968180174 0
outer loop
vertex 70.47067073958198 -92.90484309679591 10
vertex 70.73899999999978 -92.7747356000001 0
vertex 70.470670739582 -92.9048430967959 0
endloop
endfacet
facet normal -0.565237843044716 0.8249279852145622 0
outer loop
vertex 70.22466986605892 -93.07340205664393 10
vertex 70.47067073958198 -92.90484309679591 10
vertex 70.470670739582 -92.9048430967959 0
endloop
endfacet
facet normal -0.565237843044716 0.8249279852145622 0
outer loop
vertex 70.22466986605892 -93.07340205664393 10
vertex 70.470670739582 -92.9048430967959 0
vertex 70.2246698660589 -93.07340205664394 0
endloop
endfacet
facet normal -0.6816127602655362 0.7317130892933353 0
outer loop
vertex 70.00646650484364 -93.27666505345707 10
vertex 70.22466986605892 -93.07340205664393 10
vertex 70.2246698660589 -93.07340205664394 0
endloop
endfacet
facet normal -0.6816127602655362 0.7317130892933353 0
outer loop
vertex 70.00646650484364 -93.27666505345707 10
vertex 70.2246698660589 -93.07340205664394 0
vertex 70.00646650484363 -93.27666505345708 0
endloop
endfacet
facet normal -0.7828339684150787 0.6222306468629616 0
outer loop
vertex 69.82091178321413 -93.51011311620314 10
vertex 70.00646650484364 -93.27666505345707 10
vertex 70.00646650484363 -93.27666505345708 0
endloop
endfacet
facet normal -0.7828339684150787 0.6222306468629616 0
outer loop
vertex 69.82091178321413 -93.51011311620314 10
vertex 70.00646650484363 -93.27666505345708 0
vertex 69.82091178321413 -93.51011311620313 0
endloop
endfacet
facet normal -0.8666511036069632 0.49891468671189954 0
outer loop
vertex 69.67213097938098 -93.76855619529411 10
vertex 69.82091178321413 -93.51011311620314 10
vertex 69.82091178321413 -93.51011311620313 0
endloop
endfacet
facet normal -0.8666511036069632 0.49891468671189954 0
outer loop
vertex 69.67213097938098 -93.76855619529411 10
vertex 69.82091178321413 -93.51011311620313 0
vertex 69.67213097938101 -93.76855619529405 0
endloop
endfacet
facet normal -0.9312007317098379 0.3645067863059103 0
outer loop
vertex 69.56343180873411 -94.04624854848302 10
vertex 69.67213097938098 -93.76855619529411 10
vertex 69.67213097938101 -93.76855619529405 0
endloop
endfacet
facet normal -0.9312007317098379 0.3645067863059103 0
outer loop
vertex 69.56343180873411 -94.04624854848302 10
vertex 69.67213097938101 -93.76855619529405 0
vertex 69.56343180873412 -94.04624854848302 0
endloop
endfacet
facet normal -0.9750477764722384 0.22199512065931531 0
outer loop
vertex 69.49723088625504 -94.33701648100302 10
vertex 69.56343180873411 -94.04624854848302 10
vertex 69.56343180873412 -94.04624854848302 0
endloop
endfacet
facet normal -0.9750477764722384 0.22199512065931531 0
outer loop
vertex 69.49723088625504 -94.33701648100302 10
vertex 69.56343180873412 -94.04624854848302 0
vertex 69.49723088625502 -94.33701648100312 0
endloop
endfacet
facet normal -0.9972173423362143 0.07454912570847226 0
outer loop
vertex 69.475 -94.63439120000011 10
vertex 69.49723088625504 -94.33701648100302 10
vertex 69.49723088625502 -94.33701648100312 0
endloop
endfacet
facet normal -0.9972173423362143 0.07454912570847226 0
outer loop
vertex 69.475 -94.63439120000011 10
vertex 69.49723088625502 -94.33701648100312 0
vertex 69.475 -94.63439120000002 0
endloop
endfacet
facet normal -1 0 0
outer loop
vertex 69.475 -176.94551405000004 10
vertex 69.475 -176.86745534423204 10
vertex 69.475 -176.83087478032397 10
endloop
endfacet
facet normal -1 0 0
outer loop
vertex 69.475 -176.94551405000004 10
vertex 69.475 -176.83087478032397 10
vertex 69.475 -94.63439120000011 10
endloop
endfacet
facet normal -1 0 0
outer loop
vertex 69.475 -176.94551405000004 10
vertex 69.475 -94.63439120000011 10
vertex 69.475 -94.63439120000002 0
endloop
endfacet
facet normal -1 0 0
outer loop
vertex 69.475 -176.94551405000004 10
vertex 69.475 -94.63439120000002 0
vertex 69.475 -176.83087478032394 0
endloop
endfacet
facet normal -1 0 0
outer loop
vertex 69.475 -176.94551405000004 10
vertex 69.475 -176.83087478032394 0
vertex 69.475 -176.8674553442321 0
endloop
endfacet
facet normal -1 0 0
outer loop
vertex 69.475 -176.94551405000004 10
vertex 69.475 -176.8674553442321 0
vertex 69.475 -176.94551404999999 0
endloop
endfacet
facet normal -1 0 0
outer loop
vertex 69.475 -176.94551405000004 10
vertex 69.475 -176.94551404999999 0
vertex 69.475 -188.5249999999999 0
endloop
endfacet
facet normal -1 0 0
outer loop
vertex 69.475 -176.94551405000004 10
vertex 69.475 -188.5249999999999 0
vertex 69.475 -188.5249999999999 10
endloop
endfacet
endsolid csg.js
