<svg width="318.8mm" height="127.957mm" viewBox="0 0 318.8 127.957" xmlns="http://www.w3.org/2000/svg"><g id="svgGroup" stroke-linecap="round" fill-rule="evenodd" font-size="9pt" stroke="#000" stroke-width="0.25mm" fill="none" style="stroke:#000;stroke-width:0.25mm;fill:#EEEEEE"><path d="M 7.5 117.038 L 44.6 117.038 A 1 1 0 0 0 45.6 116.038 L 45.6 108.513 A 1 1 0 0 1 46.6 107.513 L 63.65 107.513 A 1 1 0 0 0 64.65 106.513 L 64.65 103.75 A 1 1 0 0 1 65.65 102.75 L 82.505 102.75 A 1 1 0 0 1 82.88 102.823 L 129.029 121.488 A 1 1 0 0 0 130.331 120.935 L 140.66 95.37 A 1 1 0 0 0 140.106 94.068 L 122.427 86.964 A 1 1 0 0 1 121.8 86.037 L 121.8 79.937 A 1 1 0 0 1 122.8 78.937 L 139.85 78.937 A 1 1 0 0 0 140.85 77.937 L 140.85 21.787 A 1 1 0 0 0 139.85 20.787 L 122.8 20.787 A 1 1 0 0 1 121.8 19.787 L 121.8 12.263 A 1 1 0 0 0 120.8 11.263 L 103.75 11.263 A 1 1 0 0 1 102.75 10.263 L 102.75 9.881 A 1 1 0 0 0 101.75 8.881 L 84.7 8.881 A 1 1 0 0 1 83.7 7.881 L 83.7 7.5 A 1 1 0 0 0 82.7 6.5 L 64.65 6.5 A 1 1 0 0 0 63.65 7.5 L 63.65 10.263 A 1 1 0 0 1 62.65 11.263 L 45.6 11.263 A 1 1 0 0 0 44.6 12.263 L 44.6 19.787 A 1 1 0 0 1 43.6 20.787 L 7.5 20.787 A 1 1 0 0 0 6.5 21.787 L 6.5 116.038 A 1 1 0 0 0 7.5 117.038 Z M 274.2 117.038 L 311.3 117.038 A 1 1 0 0 0 312.3 116.038 L 312.3 21.787 A 1 1 0 0 0 311.3 20.787 L 275.2 20.787 A 1 1 0 0 1 274.2 19.787 L 274.2 12.263 A 1 1 0 0 0 273.2 11.263 L 256.15 11.263 A 1 1 0 0 1 255.15 10.263 L 255.15 7.5 A 1 1 0 0 0 254.15 6.5 L 236.1 6.5 A 1 1 0 0 0 235.1 7.5 L 235.1 7.881 A 1 1 0 0 1 234.1 8.881 L 217.05 8.881 A 1 1 0 0 0 216.05 9.881 L 216.05 10.263 A 1 1 0 0 1 215.05 11.263 L 198 11.263 A 1 1 0 0 0 197 12.263 L 197 19.787 A 1 1 0 0 1 196 20.787 L 178.95 20.787 A 1 1 0 0 0 177.95 21.787 L 177.95 77.937 A 1 1 0 0 0 178.95 78.937 L 196 78.937 A 1 1 0 0 1 197 79.937 L 197 86.037 A 1 1 0 0 1 196.373 86.964 L 178.694 94.068 A 1 1 0 0 0 178.14 95.37 L 188.469 120.935 A 1 1 0 0 0 189.771 121.488 L 235.92 102.823 A 1 1 0 0 1 236.295 102.75 L 253.15 102.75 A 1 1 0 0 1 254.15 103.75 L 254.15 106.513 A 1 1 0 0 0 255.15 107.513 L 272.2 107.513 A 1 1 0 0 1 273.2 108.513 L 273.2 116.038 A 1 1 0 0 0 274.2 117.038 Z M 318.8 115.538 L 318.8 21.647 A 8 8 0 0 0 313.744 14.208 L 279.263 0.561 A 8 8 0 0 0 276.319 0 L 208.625 0 A 8 8 0 0 0 205.252 0.746 L 176.077 14.309 A 8 8 0 0 0 171.45 21.563 L 171.45 94.587 A 8 8 0 0 0 172.032 97.581 L 182.273 122.951 A 8 8 0 0 0 192.696 127.371 L 234.937 110.253 A 1 1 0 0 1 235.643 110.236 L 272.399 123.089 A 8 8 0 0 0 275.04 123.538 L 310.8 123.538 A 8 8 0 0 0 318.8 115.538 Z M 0 115.538 L 0 21.647 A 8 8 0 0 1 5.056 14.208 L 39.537 0.561 A 8 8 0 0 1 42.481 0 L 110.175 0 A 8 8 0 0 1 113.548 0.746 L 142.723 14.309 A 8 8 0 0 1 147.35 21.563 L 147.35 94.587 A 8 8 0 0 1 146.768 97.581 L 136.527 122.951 A 8 8 0 0 1 126.104 127.371 L 83.863 110.253 A 1 1 0 0 0 83.157 110.236 L 46.401 123.089 A 8 8 0 0 1 43.76 123.538 L 8 123.538 A 8 8 0 0 1 0 115.538 Z M 87.013 103.434 L 110.726 113.014 A 1 1 0 0 0 112.027 112.462 L 118.04 97.58 A 1 1 0 0 0 117.487 96.279 L 93.774 86.698 A 1 1 0 0 0 92.473 87.251 L 86.46 102.132 A 1 1 0 0 0 87.013 103.434 Z M 129.778 119.634 L 139.359 95.921 A 1 1 0 0 0 138.806 94.619 L 123.925 88.607 A 1 1 0 0 0 122.623 89.159 L 113.043 112.872 A 1 1 0 0 0 113.595 114.174 L 128.477 120.186 A 1 1 0 0 0 129.778 119.634 Z M 208.074 113.014 L 231.787 103.434 A 1 1 0 0 0 232.34 102.132 L 226.327 87.251 A 1 1 0 0 0 225.026 86.698 L 201.313 96.279 A 1 1 0 0 0 200.76 97.58 L 206.773 112.462 A 1 1 0 0 0 208.074 113.014 Z M 196.177 89.159 L 205.757 112.872 A 1 1 0 0 1 205.205 114.174 L 190.323 120.186 A 1 1 0 0 1 189.022 119.634 L 179.441 95.921 A 1 1 0 0 1 179.994 94.619 L 194.875 88.607 A 1 1 0 0 1 196.177 89.159 Z M 8.5 116.038 L 24.55 116.038 A 1 1 0 0 0 25.55 115.038 L 25.55 98.988 A 1 1 0 0 0 24.55 97.988 L 8.5 97.988 A 1 1 0 0 0 7.5 98.988 L 7.5 115.038 A 1 1 0 0 0 8.5 116.038 Z M 8.5 96.988 L 24.55 96.988 A 1 1 0 0 0 25.55 95.988 L 25.55 79.937 A 1 1 0 0 0 24.55 78.937 L 8.5 78.937 A 1 1 0 0 0 7.5 79.937 L 7.5 95.988 A 1 1 0 0 0 8.5 96.988 Z M 27.55 116.038 L 43.6 116.038 A 1 1 0 0 0 44.6 115.038 L 44.6 98.988 A 1 1 0 0 0 43.6 97.988 L 27.55 97.988 A 1 1 0 0 0 26.55 98.988 L 26.55 115.038 A 1 1 0 0 0 27.55 116.038 Z M 27.55 96.988 L 43.6 96.988 A 1 1 0 0 0 44.6 95.988 L 44.6 79.937 A 1 1 0 0 0 43.6 78.937 L 27.55 78.937 A 1 1 0 0 0 26.55 79.937 L 26.55 95.988 A 1 1 0 0 0 27.55 96.988 Z M 46.6 106.513 L 62.65 106.513 A 1 1 0 0 0 63.65 105.513 L 63.65 89.462 A 1 1 0 0 0 62.65 88.462 L 46.6 88.462 A 1 1 0 0 0 45.6 89.462 L 45.6 105.513 A 1 1 0 0 0 46.6 106.513 Z M 46.6 87.462 L 62.65 87.462 A 1 1 0 0 0 63.65 86.462 L 63.65 70.412 A 1 1 0 0 0 62.65 69.412 L 46.6 69.412 A 1 1 0 0 0 45.6 70.412 L 45.6 86.462 A 1 1 0 0 0 46.6 87.462 Z M 65.65 101.75 L 81.7 101.75 A 1 1 0 0 0 82.7 100.75 L 82.7 84.7 A 1 1 0 0 0 81.7 83.7 L 65.65 83.7 A 1 1 0 0 0 64.65 84.7 L 64.65 100.75 A 1 1 0 0 0 65.65 101.75 Z M 65.65 82.7 L 81.7 82.7 A 1 1 0 0 0 82.7 81.7 L 82.7 65.65 A 1 1 0 0 0 81.7 64.65 L 65.65 64.65 A 1 1 0 0 0 64.65 65.65 L 64.65 81.7 A 1 1 0 0 0 65.65 82.7 Z M 84.7 85.081 L 100.75 85.081 A 1 1 0 0 0 101.75 84.081 L 101.75 68.031 A 1 1 0 0 0 100.75 67.031 L 84.7 67.031 A 1 1 0 0 0 83.7 68.031 L 83.7 84.081 A 1 1 0 0 0 84.7 85.081 Z M 103.75 87.462 L 119.8 87.462 A 1 1 0 0 0 120.8 86.462 L 120.8 70.412 A 1 1 0 0 0 119.8 69.412 L 103.75 69.412 A 1 1 0 0 0 102.75 70.412 L 102.75 86.462 A 1 1 0 0 0 103.75 87.462 Z M 294.25 116.038 L 310.3 116.038 A 1 1 0 0 0 311.3 115.038 L 311.3 98.988 A 1 1 0 0 0 310.3 97.988 L 294.25 97.988 A 1 1 0 0 0 293.25 98.988 L 293.25 115.038 A 1 1 0 0 0 294.25 116.038 Z M 294.25 96.988 L 310.3 96.988 A 1 1 0 0 0 311.3 95.988 L 311.3 79.937 A 1 1 0 0 0 310.3 78.937 L 294.25 78.937 A 1 1 0 0 0 293.25 79.937 L 293.25 95.988 A 1 1 0 0 0 294.25 96.988 Z M 275.2 116.038 L 291.25 116.038 A 1 1 0 0 0 292.25 115.038 L 292.25 98.988 A 1 1 0 0 0 291.25 97.988 L 275.2 97.988 A 1 1 0 0 0 274.2 98.988 L 274.2 115.038 A 1 1 0 0 0 275.2 116.038 Z M 275.2 96.988 L 291.25 96.988 A 1 1 0 0 0 292.25 95.988 L 292.25 79.937 A 1 1 0 0 0 291.25 78.937 L 275.2 78.937 A 1 1 0 0 0 274.2 79.937 L 274.2 95.988 A 1 1 0 0 0 275.2 96.988 Z M 256.15 106.513 L 272.2 106.513 A 1 1 0 0 0 273.2 105.513 L 273.2 89.462 A 1 1 0 0 0 272.2 88.462 L 256.15 88.462 A 1 1 0 0 0 255.15 89.462 L 255.15 105.513 A 1 1 0 0 0 256.15 106.513 Z M 256.15 87.462 L 272.2 87.462 A 1 1 0 0 0 273.2 86.462 L 273.2 70.412 A 1 1 0 0 0 272.2 69.412 L 256.15 69.412 A 1 1 0 0 0 255.15 70.412 L 255.15 86.462 A 1 1 0 0 0 256.15 87.462 Z M 237.1 101.75 L 253.15 101.75 A 1 1 0 0 0 254.15 100.75 L 254.15 84.7 A 1 1 0 0 0 253.15 83.7 L 237.1 83.7 A 1 1 0 0 0 236.1 84.7 L 236.1 100.75 A 1 1 0 0 0 237.1 101.75 Z M 237.1 82.7 L 253.15 82.7 A 1 1 0 0 0 254.15 81.7 L 254.15 65.65 A 1 1 0 0 0 253.15 64.65 L 237.1 64.65 A 1 1 0 0 0 236.1 65.65 L 236.1 81.7 A 1 1 0 0 0 237.1 82.7 Z M 218.05 85.081 L 234.1 85.081 A 1 1 0 0 0 235.1 84.081 L 235.1 68.031 A 1 1 0 0 0 234.1 67.031 L 218.05 67.031 A 1 1 0 0 0 217.05 68.031 L 217.05 84.081 A 1 1 0 0 0 218.05 85.081 Z M 199 87.462 L 215.05 87.462 A 1 1 0 0 0 216.05 86.462 L 216.05 70.412 A 1 1 0 0 0 215.05 69.412 L 199 69.412 A 1 1 0 0 0 198 70.412 L 198 86.462 A 1 1 0 0 0 199 87.462 Z M 8.5 77.937 L 24.55 77.937 A 1 1 0 0 0 25.55 76.937 L 25.55 60.887 A 1 1 0 0 0 24.55 59.887 L 8.5 59.887 A 1 1 0 0 0 7.5 60.887 L 7.5 76.937 A 1 1 0 0 0 8.5 77.937 Z M 8.5 58.887 L 24.55 58.887 A 1 1 0 0 0 25.55 57.887 L 25.55 41.837 A 1 1 0 0 0 24.55 40.837 L 8.5 40.837 A 1 1 0 0 0 7.5 41.837 L 7.5 57.887 A 1 1 0 0 0 8.5 58.887 Z M 8.5 39.837 L 24.55 39.837 A 1 1 0 0 0 25.55 38.837 L 25.55 22.787 A 1 1 0 0 0 24.55 21.787 L 8.5 21.787 A 1 1 0 0 0 7.5 22.787 L 7.5 38.837 A 1 1 0 0 0 8.5 39.837 Z M 27.55 77.937 L 43.6 77.937 A 1 1 0 0 0 44.6 76.937 L 44.6 60.887 A 1 1 0 0 0 43.6 59.887 L 27.55 59.887 A 1 1 0 0 0 26.55 60.887 L 26.55 76.937 A 1 1 0 0 0 27.55 77.937 Z M 27.55 58.887 L 43.6 58.887 A 1 1 0 0 0 44.6 57.887 L 44.6 41.837 A 1 1 0 0 0 43.6 40.837 L 27.55 40.837 A 1 1 0 0 0 26.55 41.837 L 26.55 57.887 A 1 1 0 0 0 27.55 58.887 Z M 27.55 39.837 L 43.6 39.837 A 1 1 0 0 0 44.6 38.837 L 44.6 22.787 A 1 1 0 0 0 43.6 21.787 L 27.55 21.787 A 1 1 0 0 0 26.55 22.787 L 26.55 38.837 A 1 1 0 0 0 27.55 39.837 Z M 46.6 68.412 L 62.65 68.412 A 1 1 0 0 0 63.65 67.412 L 63.65 51.362 A 1 1 0 0 0 62.65 50.362 L 46.6 50.362 A 1 1 0 0 0 45.6 51.362 L 45.6 67.412 A 1 1 0 0 0 46.6 68.412 Z M 46.6 49.363 L 62.65 49.363 A 1 1 0 0 0 63.65 48.363 L 63.65 32.313 A 1 1 0 0 0 62.65 31.313 L 46.6 31.313 A 1 1 0 0 0 45.6 32.313 L 45.6 48.363 A 1 1 0 0 0 46.6 49.363 Z M 46.6 30.313 L 62.65 30.313 A 1 1 0 0 0 63.65 29.313 L 63.65 13.263 A 1 1 0 0 0 62.65 12.263 L 46.6 12.263 A 1 1 0 0 0 45.6 13.263 L 45.6 29.313 A 1 1 0 0 0 46.6 30.313 Z M 65.65 63.65 L 81.7 63.65 A 1 1 0 0 0 82.7 62.65 L 82.7 46.6 A 1 1 0 0 0 81.7 45.6 L 65.65 45.6 A 1 1 0 0 0 64.65 46.6 L 64.65 62.65 A 1 1 0 0 0 65.65 63.65 Z M 65.65 44.6 L 81.7 44.6 A 1 1 0 0 0 82.7 43.6 L 82.7 27.55 A 1 1 0 0 0 81.7 26.55 L 65.65 26.55 A 1 1 0 0 0 64.65 27.55 L 64.65 43.6 A 1 1 0 0 0 65.65 44.6 Z M 65.65 25.55 L 81.7 25.55 A 1 1 0 0 0 82.7 24.55 L 82.7 8.5 A 1 1 0 0 0 81.7 7.5 L 65.65 7.5 A 1 1 0 0 0 64.65 8.5 L 64.65 24.55 A 1 1 0 0 0 65.65 25.55 Z M 84.7 66.031 L 100.75 66.031 A 1 1 0 0 0 101.75 65.031 L 101.75 48.981 A 1 1 0 0 0 100.75 47.981 L 84.7 47.981 A 1 1 0 0 0 83.7 48.981 L 83.7 65.031 A 1 1 0 0 0 84.7 66.031 Z M 84.7 46.981 L 100.75 46.981 A 1 1 0 0 0 101.75 45.981 L 101.75 29.931 A 1 1 0 0 0 100.75 28.931 L 84.7 28.931 A 1 1 0 0 0 83.7 29.931 L 83.7 45.981 A 1 1 0 0 0 84.7 46.981 Z M 84.7 27.931 L 100.75 27.931 A 1 1 0 0 0 101.75 26.931 L 101.75 10.881 A 1 1 0 0 0 100.75 9.881 L 84.7 9.881 A 1 1 0 0 0 83.7 10.881 L 83.7 26.931 A 1 1 0 0 0 84.7 27.931 Z M 103.75 68.412 L 119.8 68.412 A 1 1 0 0 0 120.8 67.412 L 120.8 51.362 A 1 1 0 0 0 119.8 50.362 L 103.75 50.362 A 1 1 0 0 0 102.75 51.362 L 102.75 67.412 A 1 1 0 0 0 103.75 68.412 Z M 103.75 49.363 L 119.8 49.363 A 1 1 0 0 0 120.8 48.363 L 120.8 32.313 A 1 1 0 0 0 119.8 31.313 L 103.75 31.313 A 1 1 0 0 0 102.75 32.313 L 102.75 48.363 A 1 1 0 0 0 103.75 49.363 Z M 103.75 30.313 L 119.8 30.313 A 1 1 0 0 0 120.8 29.313 L 120.8 13.263 A 1 1 0 0 0 119.8 12.263 L 103.75 12.263 A 1 1 0 0 0 102.75 13.263 L 102.75 29.313 A 1 1 0 0 0 103.75 30.313 Z M 122.8 77.937 L 138.85 77.937 A 1 1 0 0 0 139.85 76.937 L 139.85 60.887 A 1 1 0 0 0 138.85 59.887 L 122.8 59.887 A 1 1 0 0 0 121.8 60.887 L 121.8 76.937 A 1 1 0 0 0 122.8 77.937 Z M 122.8 58.887 L 138.85 58.887 A 1 1 0 0 0 139.85 57.887 L 139.85 41.837 A 1 1 0 0 0 138.85 40.837 L 122.8 40.837 A 1 1 0 0 0 121.8 41.837 L 121.8 57.887 A 1 1 0 0 0 122.8 58.887 Z M 122.8 39.837 L 138.85 39.837 A 1 1 0 0 0 139.85 38.837 L 139.85 22.787 A 1 1 0 0 0 138.85 21.787 L 122.8 21.787 A 1 1 0 0 0 121.8 22.787 L 121.8 38.837 A 1 1 0 0 0 122.8 39.837 Z M 294.25 77.937 L 310.3 77.937 A 1 1 0 0 0 311.3 76.937 L 311.3 60.887 A 1 1 0 0 0 310.3 59.887 L 294.25 59.887 A 1 1 0 0 0 293.25 60.887 L 293.25 76.937 A 1 1 0 0 0 294.25 77.937 Z M 294.25 58.887 L 310.3 58.887 A 1 1 0 0 0 311.3 57.887 L 311.3 41.837 A 1 1 0 0 0 310.3 40.837 L 294.25 40.837 A 1 1 0 0 0 293.25 41.837 L 293.25 57.887 A 1 1 0 0 0 294.25 58.887 Z M 294.25 39.837 L 310.3 39.837 A 1 1 0 0 0 311.3 38.837 L 311.3 22.787 A 1 1 0 0 0 310.3 21.787 L 294.25 21.787 A 1 1 0 0 0 293.25 22.787 L 293.25 38.837 A 1 1 0 0 0 294.25 39.837 Z M 275.2 77.937 L 291.25 77.937 A 1 1 0 0 0 292.25 76.937 L 292.25 60.887 A 1 1 0 0 0 291.25 59.887 L 275.2 59.887 A 1 1 0 0 0 274.2 60.887 L 274.2 76.937 A 1 1 0 0 0 275.2 77.937 Z M 275.2 58.887 L 291.25 58.887 A 1 1 0 0 0 292.25 57.887 L 292.25 41.837 A 1 1 0 0 0 291.25 40.837 L 275.2 40.837 A 1 1 0 0 0 274.2 41.837 L 274.2 57.887 A 1 1 0 0 0 275.2 58.887 Z M 275.2 39.837 L 291.25 39.837 A 1 1 0 0 0 292.25 38.837 L 292.25 22.787 A 1 1 0 0 0 291.25 21.787 L 275.2 21.787 A 1 1 0 0 0 274.2 22.787 L 274.2 38.837 A 1 1 0 0 0 275.2 39.837 Z M 256.15 68.412 L 272.2 68.412 A 1 1 0 0 0 273.2 67.412 L 273.2 51.362 A 1 1 0 0 0 272.2 50.362 L 256.15 50.362 A 1 1 0 0 0 255.15 51.362 L 255.15 67.412 A 1 1 0 0 0 256.15 68.412 Z M 256.15 49.363 L 272.2 49.363 A 1 1 0 0 0 273.2 48.363 L 273.2 32.313 A 1 1 0 0 0 272.2 31.313 L 256.15 31.313 A 1 1 0 0 0 255.15 32.313 L 255.15 48.363 A 1 1 0 0 0 256.15 49.363 Z M 256.15 30.313 L 272.2 30.313 A 1 1 0 0 0 273.2 29.313 L 273.2 13.263 A 1 1 0 0 0 272.2 12.263 L 256.15 12.263 A 1 1 0 0 0 255.15 13.263 L 255.15 29.313 A 1 1 0 0 0 256.15 30.313 Z M 237.1 63.65 L 253.15 63.65 A 1 1 0 0 0 254.15 62.65 L 254.15 46.6 A 1 1 0 0 0 253.15 45.6 L 237.1 45.6 A 1 1 0 0 0 236.1 46.6 L 236.1 62.65 A 1 1 0 0 0 237.1 63.65 Z M 237.1 44.6 L 253.15 44.6 A 1 1 0 0 0 254.15 43.6 L 254.15 27.55 A 1 1 0 0 0 253.15 26.55 L 237.1 26.55 A 1 1 0 0 0 236.1 27.55 L 236.1 43.6 A 1 1 0 0 0 237.1 44.6 Z M 237.1 25.55 L 253.15 25.55 A 1 1 0 0 0 254.15 24.55 L 254.15 8.5 A 1 1 0 0 0 253.15 7.5 L 237.1 7.5 A 1 1 0 0 0 236.1 8.5 L 236.1 24.55 A 1 1 0 0 0 237.1 25.55 Z M 218.05 66.031 L 234.1 66.031 A 1 1 0 0 0 235.1 65.031 L 235.1 48.981 A 1 1 0 0 0 234.1 47.981 L 218.05 47.981 A 1 1 0 0 0 217.05 48.981 L 217.05 65.031 A 1 1 0 0 0 218.05 66.031 Z M 218.05 46.981 L 234.1 46.981 A 1 1 0 0 0 235.1 45.981 L 235.1 29.931 A 1 1 0 0 0 234.1 28.931 L 218.05 28.931 A 1 1 0 0 0 217.05 29.931 L 217.05 45.981 A 1 1 0 0 0 218.05 46.981 Z M 218.05 27.931 L 234.1 27.931 A 1 1 0 0 0 235.1 26.931 L 235.1 10.881 A 1 1 0 0 0 234.1 9.881 L 218.05 9.881 A 1 1 0 0 0 217.05 10.881 L 217.05 26.931 A 1 1 0 0 0 218.05 27.931 Z M 199 68.412 L 215.05 68.412 A 1 1 0 0 0 216.05 67.412 L 216.05 51.362 A 1 1 0 0 0 215.05 50.362 L 199 50.362 A 1 1 0 0 0 198 51.362 L 198 67.412 A 1 1 0 0 0 199 68.412 Z M 199 49.363 L 215.05 49.363 A 1 1 0 0 0 216.05 48.363 L 216.05 32.313 A 1 1 0 0 0 215.05 31.313 L 199 31.313 A 1 1 0 0 0 198 32.313 L 198 48.363 A 1 1 0 0 0 199 49.363 Z M 199 30.313 L 215.05 30.313 A 1 1 0 0 0 216.05 29.313 L 216.05 13.263 A 1 1 0 0 0 215.05 12.263 L 199 12.263 A 1 1 0 0 0 198 13.263 L 198 29.313 A 1 1 0 0 0 199 30.313 Z M 179.95 77.937 L 196 77.937 A 1 1 0 0 0 197 76.937 L 197 60.887 A 1 1 0 0 0 196 59.887 L 179.95 59.887 A 1 1 0 0 0 178.95 60.887 L 178.95 76.937 A 1 1 0 0 0 179.95 77.937 Z M 179.95 58.887 L 196 58.887 A 1 1 0 0 0 197 57.887 L 197 41.837 A 1 1 0 0 0 196 40.837 L 179.95 40.837 A 1 1 0 0 0 178.95 41.837 L 178.95 57.887 A 1 1 0 0 0 179.95 58.887 Z M 179.95 39.837 L 196 39.837 A 1 1 0 0 0 197 38.837 L 197 22.787 A 1 1 0 0 0 196 21.787 L 179.95 21.787 A 1 1 0 0 0 178.95 22.787 L 178.95 38.837 A 1 1 0 0 0 179.95 39.837 Z" vector-effect="non-scaling-stroke"/></g></svg>